<?xml version="1.0" encoding="UTF-8"?><svg id="a" xmlns="http://www.w3.org/2000/svg" viewBox="0 0 78.03 76"><path d="M35.08,12.07c-1.59,1.53-3.17,3.05-4.76,4.59-.78,.75-1.51,1.56-2.37,2.24-1.59,1.23-3.44,1.2-4.79,0-1.33-1.19-1.46-2.92-.13-4.33,1.6-1.71,3.32-3.31,5-4.94,2.86-2.77,5.7-5.53,8.59-8.28,1.89-1.81,3.03-1.78,4.89,.03,4.22,4.11,8.46,8.22,12.7,12.32,.87,.85,1.68,1.69,1.65,2.97-.03,2.38-2.6,3.85-4.92,2.74-.71-.34-1.32-.89-1.87-1.43-1.95-1.88-3.87-3.78-5.79-5.69-.16-.16-.37-.27-.68-.52-.03,.44-.08,.72-.08,.97,0,5.67-.06,11.33,.02,17.01,.08,5.99,5.25,10.57,11.75,10.6,1.06,0,1.7-.2,2.21-1.17,1.79-3.5,4.95-5.55,9.14-5.92,6.98-.63,12.16,4.69,12.4,9.46,.29,5.77-4.17,9.67-8.08,10.6-4.7,1.13-10.62-.24-13.08-4.93-.7-1.33-1.62-1.76-3.22-1.79-8.65-.1-16.56-6.2-17.73-13.91-.51-3.32-.35-6.73-.41-10.1-.06-3.42,0-6.86,0-10.29l-.38-.24-.03,.03Zm31.59,27.41c-2.54,0-4.4,1.69-4.41,4.01,0,2.25,1.92,4.04,4.38,4.08,2.49,.04,4.65-1.89,4.59-4.13-.06-2.19-2.1-3.97-4.56-3.97Z" style="fill:#fff;"/><path d="M33.51,35.26c.54,.89,.79,1.2,.95,1.56,1.41,3.22,3.67,5.87,6.68,8,1.02,.72,1.4,1.5,1.36,2.64-.08,2.24,.05,4.47-.05,6.71-.05,1.23,.35,1.96,1.65,2.54,3.46,1.55,5.41,4.13,6.13,7.59,.78,3.81-1.57,8.91-6.68,10.88-5.64,2.16-12.16,0-14.71-4.87-2.67-5.09-.57-10.95,4.94-13.53,1.33-.63,1.79-1.35,1.76-2.67-.1-3.04-.03-6.08-.03-9.1,0-.5-.06-1.02-.1-1.69-.54,.24-.92,.39-1.27,.59-3.17,1.85-6.64,2.84-10.41,2.79-1.11,0-1.73,.37-2.21,1.28-1.83,3.41-4.84,5.4-9.03,5.77-5.49,.49-11.75-2.77-12.43-9-.65-6.08,3.83-10.96,10.56-11.39,4.54-.3,8.13,1.5,10.48,5.07,1.38,2.11,1.86,2.34,4.54,1.86,2.76-.5,5.16-1.58,6.97-3.55,.32-.34,.51-.79,.9-1.43v-.04Zm-17.78,8.37c.05-2.35-1.7-4.06-4.25-4.14-2.62-.07-4.46,1.49-4.54,3.84-.08,2.45,1.71,4.23,4.3,4.26,2.49,.03,4.44-1.69,4.48-3.95h.02Zm23.33,18.14c-2.59-.01-4.51,1.62-4.56,3.9-.06,2.28,2.02,4.21,4.51,4.18,2.44-.01,4.4-1.82,4.41-4.07,.02-2.31-1.83-4-4.37-4.03h0Z" style="fill:#fff;"/></svg>