<svg width="115" height="114" viewBox="0 0 115 114" fill="none" xmlns="http://www.w3.org/2000/svg">
<path d="M110.745 95.9046C103.959 89.0956 97.1494 82.3104 90.3632 75.5014C89.441 74.5794 88.6607 73.5391 87.8804 72.6407C102.541 45.9488 92.9405 21.101 74.4025 8.40516C55.8645 -4.29064 29.8783 -2.58845 13.5866 15.2377C-2.70508 33.0638 -3.43809 57.1788 10.7964 75.8088C25.4093 94.9116 51.4429 99.8528 73.0311 86.9205C73.6222 87.3697 74.3316 87.7953 74.9227 88.3627C81.9454 95.3608 88.9444 102.359 95.9671 109.381C97.6223 111.035 99.1829 112.856 102.351 113.211C105.898 109.664 109.729 105.882 113.488 102.075C114.458 101.106 114.387 99.9001 113.536 98.8598C112.661 97.8196 111.715 96.8738 110.745 95.9282V95.9046ZM47.8488 89.072C25.764 88.9065 5.61811 70.6548 6.04373 46.8945C6.4457 23.1105 24.3452 5.30801 47.8724 5.1898C71.1868 5.07159 90.1503 23.6543 89.8902 47.6983C90.4341 69.0471 70.7139 89.2375 47.8488 89.072ZM101.618 106.638C93.9336 99.2381 86.3671 91.9327 78.7769 84.6509C80.2429 81.4592 80.9286 80.679 84.8538 77.8892C92.2784 85.4311 99.6795 92.9493 107.459 100.846C105.591 102.69 103.463 104.818 101.618 106.638Z" fill="url(#paint0_linear_2343_1059)"/>
<path d="M81.1654 38.9285C77.9497 26.7292 70.0285 18.8563 58.4895 14.5771C55.2737 13.3713 51.6087 13.3005 48.1328 12.9222C46.6905 12.7567 45.5082 13.5368 45.319 15.1681C45.1299 16.7049 46.2176 17.6743 48.1801 17.958C50.6629 18.2889 53.2402 18.3126 55.5811 19.0691C65.7959 22.3317 73.1733 28.6205 75.8925 39.4013C76.46 41.6473 76.4836 44.0352 77.0038 46.3048C77.2403 47.3687 77.926 48.4799 78.73 49.2128C79.1792 49.6147 80.2905 49.2837 81.7329 49.2837C82.0403 45.501 82.0403 42.2147 81.1654 38.9285Z" fill="url(#paint1_linear_2343_1059)"/>
<defs>
<linearGradient id="paint0_linear_2343_1059" x1="0.7235" y1="56.6823" x2="114.198" y2="56.6823" gradientUnits="userSpaceOnUse">
<stop stop-color="#AE8ABE"/>
<stop offset="1" stop-color="#8390C8"/>
</linearGradient>
<linearGradient id="paint1_linear_2343_1059" x1="45.2954" y1="31.1502" x2="81.8984" y2="31.1502" gradientUnits="userSpaceOnUse">
<stop stop-color="#AE8ABE"/>
<stop offset="1" stop-color="#8390C8"/>
</linearGradient>
</defs>
</svg>
