<svg width="111" height="113" viewBox="0 0 111 113" fill="none" xmlns="http://www.w3.org/2000/svg">
<path d="M0.0943708 94.8367C0.330825 96.3735 1.20571 97.2955 2.83724 97.1773C4.20868 97.0827 4.94174 96.1843 5.03632 94.8604C5.10726 93.6783 5.03632 92.4962 5.10725 91.3141C5.20183 89.4227 4.77622 87.4604 5.62745 84.9071C17.663 102.946 33.7418 112.639 55.2354 112.687C76.7764 112.734 92.6424 102.639 105.269 84.4579C105.269 88.217 105.222 90.8412 105.269 93.4419C105.34 96.1843 105.978 97.13 107.61 97.201C109.289 97.2719 110.282 96.208 110.306 93.7256C110.376 86.8221 110.306 79.8949 110.306 72.9914C110.306 70.8164 109.242 69.5397 107.208 69.1614C102.715 71.7148 98.3173 74.1735 93.9429 76.7032C91.4602 78.1218 88.9774 79.5403 86.6365 81.1716C84.9813 82.3301 84.7212 83.9141 85.6907 85.0726C86.7311 86.3019 87.9606 86.3256 89.2848 85.4745C91.1291 84.316 92.9735 83.1339 94.8415 82.0227C97.0641 80.6988 99.2868 79.4457 102.053 77.8381C94.9597 96.8227 69.1626 109.92 57.9074 106.705C57.0561 95.7351 57.4344 58.357 58.5458 54.5743H73.3241C75.0739 50.8388 74.6719 49.8222 71.4798 49.6567C69.1153 49.5385 66.7507 49.6567 64.3862 49.6331C62.2581 49.6331 60.13 49.5858 57.8364 49.5621V39.2305C71.0542 35.8261 75.5941 25.4472 74.6483 17.5271C73.4424 7.38463 65.3083 0.197428 55.5901 0.0792179C45.2098 -0.0626347 36.792 7.10092 35.6334 17.6453C34.8058 25.2817 38.8255 35.566 52.5635 39.3251C52.3743 42.635 53.2019 46.0867 52.0433 49.6567C47.6452 49.6567 43.4364 49.6567 39.2275 49.6567C37.8325 49.6567 36.2009 49.704 35.8699 51.2171C35.6334 52.281 36.461 53.5576 36.8866 54.9762H52.2561C53.0364 62.3289 52.8 103.632 51.996 107.178C36.6738 108.667 14.187 94.4348 8.37026 77.7908C12.1062 80.0604 15.322 82.0227 18.5614 83.9614C19.72 84.647 20.8314 85.5454 22.0846 85.8764C22.8413 86.0655 24.189 85.5454 24.6383 84.9071C25.0876 84.2687 24.9693 82.9921 24.6383 82.1646C24.3782 81.4553 23.5507 80.8643 22.8413 80.4623C16.1969 76.585 9.50523 72.755 3.12098 69.0905C0.259886 70.0362 0.0234375 71.9512 0.0234375 74.1026C0.0707283 80.3441 0.0234375 86.5856 0.0234375 92.8035C0.0234375 93.4655 0.0234577 94.1511 0.118039 94.8131L0.0943708 94.8367ZM40.5517 20.1277C40.4334 11.6166 46.9123 5.09134 55.401 5.13863C63.5113 5.20955 69.872 11.8293 69.7537 20.1041C69.6591 27.3622 62.8729 33.6746 55.1408 33.6746C47.4324 33.6746 40.6226 27.3622 40.528 20.1277H40.5517Z" fill="url(#paint0_linear_2343_493)"/>
<defs>
<linearGradient id="paint0_linear_2343_493" x1="-0.0238533" y1="56.3947" x2="110.329" y2="56.3947" gradientUnits="userSpaceOnUse">
<stop stop-color="#AE8ABE"/>
<stop offset="1" stop-color="#8390C8"/>
</linearGradient>
</defs>
</svg>
