<svg width="110" height="110" viewBox="0 0 110 110" fill="none" xmlns="http://www.w3.org/2000/svg">
<path d="M109.722 54.1954C109.107 24.3827 85.5799 0.527751 55.3139 0.669603C24.8822 0.244046 -0.0872764 24.3827 0.267404 55.5193C0.622085 85.7103 22.8724 108.974 55.1957 109.731C68.8154 110.038 81.1819 105.191 91.5386 95.829C103.905 84.6463 110.053 70.4375 109.722 54.1954ZM57.4656 103.536C57.4656 101.314 57.4656 98.9971 57.4656 96.6802C57.4656 94.316 57.6311 91.9282 57.3474 89.6112C57.2292 88.6892 56.0942 87.247 55.4085 87.247C54.5336 87.247 53.304 88.2636 52.8311 89.162C52.3346 90.1077 52.4528 91.4553 52.4528 92.6138C52.4055 96.2783 52.4528 99.9428 52.4528 103.536C31.8813 106.255 4.76005 82.9205 6.13149 57.8363C9.01622 57.127 12.0429 57.7416 15.0222 57.4816C17.6941 57.2215 20.768 58.5928 23.0143 55.8976C22.3995 53.3206 20.8389 52.4458 18.5216 52.4695C14.5019 52.5167 10.4586 52.4695 6.46256 52.4695C5.32758 50.4362 5.65858 48.5449 5.98962 46.7954C8.18864 35.3999 13.5561 25.8721 22.234 18.023C28.9493 11.9706 36.705 8.37698 45.3592 6.41469C47.44 5.94185 49.6154 5.94181 52.4765 5.63446C52.4765 10.5284 52.4528 14.5475 52.4765 18.5667C52.5001 21.8293 53.375 23.1533 55.2193 22.9642C56.8509 22.7987 57.442 21.7111 57.4656 18.5667C57.5129 14.5475 57.4656 10.5284 57.4656 6.58013C65.4577 4.61783 78.4864 9.25174 88.914 18.8977C98.3012 27.5744 104.023 38.4497 104.236 52.304C99.9327 52.3513 95.9366 52.4695 91.9642 52.4222C89.7415 52.3986 87.9445 52.8241 87.0697 55.1884C87.4243 57.3398 89.0795 57.5052 90.8293 57.5052C94.2106 57.5052 97.5682 57.4579 100.949 57.5052C102.061 57.5052 103.172 57.7889 104.26 57.9544C104.142 85.7103 75.98 106.255 57.4893 103.536H57.4656Z" fill="url(#paint0_linear_2343_1052)"/>
<path d="M79.8587 61.9499C76.4064 60.9805 75.8153 58.9709 77.1158 55.6611C77.5414 54.5735 78.3217 53.5805 78.6291 52.4694C79.3858 49.5614 80.3316 46.6534 80.5444 43.6982C80.97 37.8349 75.5079 31.286 68.5562 31.1915C66.4517 31.1915 64.8202 30.695 62.9759 29.5129C57.9158 26.3212 52.5246 25.8957 47.3463 29.442C45.4546 30.7423 43.5157 31.1442 41.2221 31.1915C34.9561 31.2624 30.3926 35.7308 29.9433 41.8068C29.565 46.7953 30.1561 51.5001 32.9462 55.8502C34.4595 58.1908 34.1521 59.3965 32.0477 60.9096C31.2438 61.5007 30.298 61.9026 29.3522 62.2809C22.164 65.1889 17.6477 71.9269 17.7659 79.4923C17.7896 81.2182 18.3334 82.4239 20.7452 82.684C21.3836 81.5964 22.2822 80.4143 22.7787 79.0904C23.5118 77.2227 23.961 75.2604 24.5285 73.3454C25.4507 70.2483 27.3423 68.3096 30.5344 67.1511C32.9699 66.2764 35.3108 64.6214 37.1551 62.7773C39.496 60.4368 39.7324 57.3869 38.03 54.408C37.5334 53.5333 36.895 52.7531 36.3984 51.8547C34.4359 48.3084 34.1994 44.5493 35.1452 40.6956C35.8073 37.9768 37.9118 36.7474 41.0093 37.0075C39.4724 44.7148 39.9453 48.0956 43.5867 55.4246C44.2487 56.7722 44.8872 58.1435 45.4074 59.562C46.6133 62.8955 45.9276 64.9288 42.8537 66.6783C40.8202 67.8131 38.6448 68.877 36.4221 69.539C31.1965 71.052 28.028 74.6693 26.7275 79.5868C25.8999 82.7549 26.1364 86.2303 26.0891 89.5638C26.0891 90.8641 27.0349 91.7625 28.3827 91.7862C29.9906 91.7862 30.8418 90.7223 30.9364 89.2329C31.0546 87.3888 30.9127 85.521 31.031 83.677C31.3384 79.5159 33.0409 76.277 37.1315 74.6457C39.4724 73.7236 41.7423 72.5652 44.1305 71.8086C47.1808 70.863 48.7414 68.6169 50.0419 65.9926C51.9808 62.0917 50.8695 58.5454 49.0251 54.9754C47.8192 52.6112 46.8261 50.1052 45.8803 47.6228C44.5325 44.1001 45.0291 40.601 46.7315 37.3857C48.3867 34.2649 51.1532 32.35 54.771 32.1372C58.5069 31.9008 61.1315 33.6976 62.9522 36.9838C65.0567 40.7902 65.0804 44.7384 63.7326 48.6867C62.7631 51.5474 61.2734 54.1952 60.1148 56.985C57.9157 62.2572 59.2162 68.9006 65.1512 71.5249C67.303 72.4706 69.4784 73.3927 71.7011 74.1729C76.6429 75.9224 78.8183 79.4686 78.8183 84.5517C78.8183 86.0648 78.6764 87.6252 78.9601 89.091C79.1966 90.344 79.6222 91.8807 81.4193 91.7862C83.0508 91.6916 83.6892 90.5331 83.7838 89.0437C84.4932 77.1754 81.7976 72.4706 71.5828 68.7351C70.0222 68.1677 68.4143 67.5767 66.9956 66.7019C64.1108 64.9524 63.3069 61.9498 64.7256 58.9709C65.1513 58.0489 65.7661 57.2214 66.168 56.2994C68.036 51.9729 69.9276 47.6228 69.5966 42.7525C69.4547 40.7902 69.0527 38.8515 68.698 36.3928C74.1128 37.5749 76.6429 41.5703 75.3424 46.6298C74.704 49.0412 73.5217 51.3109 72.4813 53.6042C70.0458 58.9946 71.6538 63.6757 76.8794 66.2763C77.7779 66.7255 78.7001 67.222 79.6695 67.4112C82.0814 67.8604 83.5474 69.5154 84.5642 71.4304C85.5573 73.3217 86.0301 75.5204 86.8814 77.5063C87.638 79.2558 87.2124 81.691 89.8134 82.6604C91.374 82.1166 92.9583 81.2182 92.4617 79.185C90.6647 71.7141 88.7021 64.4323 79.8351 61.9499H79.8587Z" fill="url(#paint1_linear_2343_1052)"/>
<defs>
<linearGradient id="paint0_linear_2343_1052" x1="0.243759" y1="55.2119" x2="109.722" y2="55.2119" gradientUnits="userSpaceOnUse">
<stop stop-color="#AE8ABE"/>
<stop offset="1" stop-color="#8390C8"/>
</linearGradient>
<linearGradient id="paint1_linear_2343_1052" x1="17.7896" y1="59.3729" x2="92.5799" y2="59.3729" gradientUnits="userSpaceOnUse">
<stop stop-color="#AE8ABE"/>
<stop offset="1" stop-color="#8390C8"/>
</linearGradient>
</defs>
</svg>
