<svg width="89" height="79" viewBox="0 0 89 79" fill="none" xmlns="http://www.w3.org/2000/svg">
<path d="M31.4641 20.756C33.9763 19.8549 36.3588 18.9824 39.0655 18.0098C39.0655 16.8369 39.0169 15.5497 39.0655 14.2624C39.1628 12.3315 39.7462 11.8309 41.9829 11.7594C43.6847 11.7021 45.4027 11.6878 47.1045 11.7594C49.0333 11.8452 50.0219 12.6604 50.184 14.3482C50.2974 15.5354 50.2002 16.7368 50.2002 17.9955C52.7124 18.9252 55.0949 19.7977 57.7854 20.7989C58.7092 20.0122 59.7303 19.0968 60.8162 18.2386C62.3397 17.0372 63.1826 16.9085 64.7223 17.9812C66.2296 19.0396 67.6073 20.2697 68.8553 21.557C70.0708 22.8013 70.006 23.7596 68.8553 25.0755C68.3852 25.6333 67.7531 26.091 67.2183 26.6059C66.7645 27.0493 66.3269 27.507 65.7758 28.0506C66.7645 30.1674 67.7531 32.2699 68.8714 34.6442C69.9249 34.6442 71.0433 34.6299 72.1616 34.6442C75.2897 34.7158 76.0839 35.4309 76.1487 38.2915C76.1649 39.1926 76.1811 40.0937 76.1487 41.0091C76.0677 43.6695 75.2573 44.4133 72.3237 44.4991C71.2054 44.5277 70.087 44.4991 68.9201 44.4991C67.8504 46.6731 66.8779 48.6898 65.7434 50.9926C66.4727 51.6935 67.3479 52.4373 68.0935 53.2811C68.7742 54.0535 69.3253 54.9117 69.8439 55.6125C68.3042 58.7163 65.8082 60.8331 62.3074 61.9345C60.8325 60.8045 59.2441 59.5745 57.5261 58.2586C55.1435 59.1454 52.7772 60.0465 50.2002 61.0191C50.2002 62.2349 50.2812 63.422 50.184 64.6092C50.0543 66.3541 49.1467 67.2695 47.2828 67.3697C45.3541 67.4841 43.4092 67.4698 41.4805 67.3697C39.7462 67.2695 39.1628 66.6545 39.0493 65.0382C38.9683 63.751 39.0331 62.4494 39.0331 61.1478C36.4723 60.2038 34.0898 59.3314 31.5776 58.4017C29.8109 59.6174 27.9795 60.8761 26.1966 62.1061C23.3278 60.8475 21.6747 58.8879 19.8594 57.143C18.8707 56.199 19.1139 55.0404 20.1349 54.1679C21.1884 53.2668 22.3878 52.4659 23.4899 51.6506C22.2906 49.0618 21.2695 46.8734 20.1674 44.4991C18.8545 44.4991 17.5093 44.542 16.1641 44.4991C13.8788 44.4133 13.4574 44.1558 12.9225 42.139C12.647 41.0806 12.5497 39.9507 12.5822 38.8637C12.7118 35.3165 13.4898 34.6872 17.4283 34.6442C18.3197 34.6442 19.2273 34.6442 20.0377 34.6442C21.1398 32.3844 22.1609 30.2818 23.2954 27.9218C22.3878 27.1065 21.3343 26.2197 20.3781 25.2471C18.8545 23.731 18.8545 22.8585 20.4267 21.3281C21.5612 20.2125 22.7768 19.1397 24.0572 18.1385C25.6456 16.8942 26.618 16.9085 28.2388 18.1099C28.8547 18.5533 29.3733 19.0968 29.9568 19.5831C30.443 19.9836 30.9617 20.3698 31.4317 20.7417L31.4641 20.756ZM30.6537 55.398C34.0249 56.485 36.8775 57.429 39.7462 58.3158C41.0753 58.7306 41.8695 59.4458 41.8857 60.7187C41.9019 61.9917 41.8857 63.279 41.8857 64.6664C43.9116 64.8666 45.5324 65.1098 47.3476 64.4232V59.0882C49.1629 58.559 50.8971 58.1585 52.5341 57.5577C54.3007 56.8998 55.9539 56.0416 57.9151 55.1691C59.5196 56.5279 61.1404 57.8867 62.8908 59.3743C64.2199 58.1442 65.4354 57.0142 66.6834 55.8557C64.9978 54.2251 63.5715 52.852 62.3398 51.6649C63.9929 48.2178 65.484 45.1284 67.0724 41.8244H73.0368V37.1902C71.4647 37.1902 70.1194 37.1902 68.7742 37.1902C67.3641 37.1902 66.3755 36.6896 65.873 35.5024C64.7709 32.9136 63.685 30.3104 62.4694 27.3783C63.6202 26.2341 65.0464 24.8466 66.6024 23.3162C65.2409 22.1577 63.9767 21.0993 62.7449 20.0408C60.8 21.2137 59.7303 23.1875 58.0285 23.731C54.2035 22.3436 50.8809 21.1279 47.4449 19.8692C47.3314 18.1099 47.218 16.3363 47.1045 14.4483C45.2731 14.291 43.6361 13.9763 41.9019 14.7916C41.9019 15.9215 41.8694 17.0086 41.9019 18.1099C41.9505 19.3686 41.3832 20.1553 39.9894 20.613C37.0234 21.5713 34.106 22.6154 30.7996 23.7596C29.3085 22.5868 27.6391 21.2709 25.8725 19.8692C24.5596 21.0563 23.3117 22.172 22.0312 23.3162C23.7979 24.9468 25.289 26.3056 26.5532 27.4784C25.3052 30.3676 24.1382 32.9422 23.0685 35.5597C22.6147 36.661 21.8368 37.1759 20.5401 37.1759C19.0977 37.1759 17.6714 37.2331 16.1478 37.2617V41.8244C17.4445 41.8816 18.5466 41.9245 19.6649 41.9531C22.3554 42.0247 22.6309 42.2535 23.4575 44.542C23.9762 45.958 24.6245 47.3454 25.2728 48.7185C25.6942 49.6195 26.2452 50.492 26.7801 51.4503C25.2404 52.9093 23.7979 54.2824 22.712 55.3122C23.9113 56.6281 24.9486 57.7866 26.0994 59.0596C27.8336 57.6722 29.3085 56.4707 30.6537 55.3837V55.398Z" fill="url(#paint0_linear_2343_467)"/>
<path d="M9.0974 58.1726C12.9386 63.665 17.4443 67.7557 23.1332 70.6449C36.3101 77.3101 50.0218 77.9109 63.4742 71.7605C75.1437 66.4255 82.6641 57.8722 84.9007 46.158C85.3222 43.9983 85.3708 41.7956 85.5653 39.6073C85.6301 38.8063 85.4842 37.9767 85.6787 37.2043C85.9219 36.2031 86.635 35.631 87.8992 36.1459C90.7517 47.8601 82.891 65.8104 64.8032 74.0633C47.4448 81.9729 23.3764 79.7845 8.20598 61.8485C7.71975 62.7925 7.26592 63.8223 6.65003 64.7806C6.55278 64.938 5.85586 64.8092 5.46687 64.8092C4.62407 62.063 4.70511 57.0856 5.69378 54.8543C9.08119 55.3835 12.3551 56.256 15.8236 57.4718C15.4346 58.287 15.1429 58.8592 14.8025 59.5457C13.0196 59.1166 11.4151 58.7304 9.06498 58.1869L9.0974 58.1726Z" fill="url(#paint1_linear_2343_467)"/>
<path d="M80.719 16.7223C81.108 15.8355 80.3138 14.3194 82.1615 13.8188C83.2798 13.8903 83.6526 14.5482 83.7012 15.4493C83.8309 17.6377 84.0416 19.8404 84.0416 22.0287C84.0416 22.6009 83.3771 23.173 82.9557 23.8309C79.3738 22.8011 75.6622 22.7725 72.6476 20.7701C73.3499 19.7784 75.5001 19.5686 79.0982 20.1407C78.7903 18.7247 77.6233 17.9524 76.7805 16.9797C70.4271 9.57076 61.8694 5.0796 51.6748 3.74942C38.6438 2.03305 26.6339 4.53609 16.6662 12.7603C10.1507 18.1383 5.8881 24.6033 4.13767 32.2984C3.48937 35.1304 3.44074 38.0482 3.149 40.9374C3.05176 41.91 2.9707 42.8111 1.25268 42.4678C1.12302 42.0673 0.847499 41.6239 0.831291 41.1519C0.13436 25.3184 7.88164 13.6328 23.1493 5.58023C31.6421 1.10337 40.9291 0.130759 50.443 1.01755C58.7252 1.78991 66.2131 4.73634 72.5503 9.59938C75.4353 11.8164 78.0285 14.348 80.719 16.708V16.7223Z" fill="url(#paint2_linear_2343_467)"/>
<path d="M44.7378 22.6155C55.0296 22.7872 63.7656 29.667 63.717 39.579C63.6683 50.3492 53.9599 56.571 44.3488 56.4995C32.971 56.4137 25.1265 47.603 25.3372 39.2214C25.5641 30.3964 34.2028 22.401 44.7378 22.6155ZM34.4459 50.435H34.4297C37.8657 53.8964 42.4201 54.3397 47.1365 53.739C49.827 53.3957 52.485 52.5948 54.5434 50.7354C52.9713 50.4493 51.5936 50.1919 50.3456 49.9773C49.7622 46.0726 49.8918 36.275 50.5887 33.8435C51.7881 33.7576 53.1171 33.5574 54.43 33.6289C56.0994 33.7147 56.7639 34.4156 56.9421 35.9603C57.0232 36.7613 56.9746 37.5623 56.9746 38.3632C56.9746 41.6529 56.9746 44.9426 56.9746 48.3467C57.4284 48.1608 57.7039 48.1179 57.8174 47.9892C65.3377 38.5491 58.0605 27.922 49.4704 25.7765C43.1008 24.1889 36.0342 26.0483 32.1444 30.1103C27.3955 35.0735 27.1848 42.1679 30.4102 46.6447C31.4475 48.1036 32.2092 49.9487 34.4783 50.435H34.4459ZM53.2144 47.6888C54.3976 45.1286 54.3003 38.0772 53.182 36.275C52.7606 40.0796 52.874 43.8842 53.2144 47.6888Z" fill="url(#paint3_linear_2343_467)"/>
<path d="M42.0637 36.6035H47.9309C48.2064 37.6047 48.6765 38.5201 48.7089 39.4641C48.8061 42.1674 48.8061 44.8707 48.7251 47.574C48.6602 49.8196 47.7526 50.4632 45.0459 50.4632C42.3068 50.4632 41.3668 49.8338 41.2857 47.6455C41.1885 44.8421 41.2047 42.0387 41.2857 39.2353C41.3182 38.3914 41.7558 37.5618 42.0475 36.6035H42.0637ZM45.1756 39.4499H44.8352V47.5453H45.1756V39.4499Z" fill="url(#paint4_linear_2343_467)"/>
<path d="M34.4303 50.4342C33.9765 49.6476 33.2147 48.8895 33.1499 48.0885C32.9716 45.9001 33.0202 43.6975 33.1175 41.4948C33.1823 40.0073 33.7172 39.6068 35.4514 39.5067C36.7804 39.4351 38.1257 39.4924 39.7302 39.4924C40.3137 43.1254 39.9247 46.458 39.9895 49.576C38.0446 50.9205 36.1807 50.3484 34.4141 50.4199H34.4303V50.4342ZM36.359 42.3101C36.2294 44.1123 35.3217 45.9859 36.8128 48.3459C37.2504 45.9001 37.4125 44.0837 36.359 42.3101Z" fill="url(#paint5_linear_2343_467)"/>
<path d="M32.5495 37.3185C32.0795 36.1742 32.8736 35.688 33.9271 35.359C36.7797 34.4722 39.7295 33.7427 42.4848 32.6414C45.1429 31.583 47.5902 30.1384 50.3617 28.751C50.7183 29.0942 51.4315 29.4804 51.4639 29.8952C51.5125 30.3529 51.0425 30.9966 50.5724 31.2969C46.0829 34.229 41.1234 36.3316 35.7586 37.6904C34.6889 37.9621 34.5106 37.8906 32.5495 37.3042V37.3185Z" fill="url(#paint6_linear_2343_467)"/>
<defs>
<linearGradient id="paint0_linear_2343_467" x1="12.6146" y1="39.5788" x2="76.1973" y2="39.5788" gradientUnits="userSpaceOnUse">
<stop stop-color="#AE8ABE"/>
<stop offset="1" stop-color="#8390C8"/>
</linearGradient>
<linearGradient id="paint1_linear_2343_467" x1="4.8996" y1="57.1857" x2="88.4989" y2="57.1857" gradientUnits="userSpaceOnUse">
<stop stop-color="#AE8ABE"/>
<stop offset="1" stop-color="#8390C8"/>
</linearGradient>
<linearGradient id="paint2_linear_2343_467" x1="0.798876" y1="21.6426" x2="84.0578" y2="21.6426" gradientUnits="userSpaceOnUse">
<stop stop-color="#AE8ABE"/>
<stop offset="1" stop-color="#8390C8"/>
</linearGradient>
<linearGradient id="paint3_linear_2343_467" x1="25.3209" y1="39.5504" x2="63.7008" y2="39.5504" gradientUnits="userSpaceOnUse">
<stop stop-color="#AE8ABE"/>
<stop offset="1" stop-color="#8390C8"/>
</linearGradient>
<linearGradient id="paint4_linear_2343_467" x1="41.2371" y1="43.5405" x2="48.7899" y2="43.5405" gradientUnits="userSpaceOnUse">
<stop stop-color="#AE8ABE"/>
<stop offset="1" stop-color="#8390C8"/>
</linearGradient>
<linearGradient id="paint5_linear_2343_467" x1="33.0364" y1="44.9704" x2="40.0544" y2="44.9704" gradientUnits="userSpaceOnUse">
<stop stop-color="#AE8ABE"/>
<stop offset="1" stop-color="#8390C8"/>
</linearGradient>
<linearGradient id="paint6_linear_2343_467" x1="32.4036" y1="33.2994" x2="51.4639" y2="33.2994" gradientUnits="userSpaceOnUse">
<stop stop-color="#AE8ABE"/>
<stop offset="1" stop-color="#8390C8"/>
</linearGradient>
</defs>
</svg>
