<svg width="88" height="78" viewBox="0 0 88 78" fill="none" xmlns="http://www.w3.org/2000/svg">
<path d="M70.3044 65.9672C72.2493 67.6693 72.3952 68.1985 70.6934 69.1568C67.3546 71.0448 64.0644 73.2046 60.3853 74.3917C44.0965 79.6839 28.9586 77.8531 15.3765 67.941C15.2144 67.8266 14.9713 67.7694 14.712 67.6693C14.242 68.8421 15.182 70.7015 12.3295 70.9876C10.3521 68.1985 10.3845 64.9803 10.2549 61.7192C13.464 60.4748 16.6245 60.4891 19.7688 60.6465C20.2874 60.6751 20.7737 61.2758 21.3733 61.6763C20.0605 63.9362 17.4511 63.078 15.4575 64.0363C22.9293 70.6586 31.9408 74.0198 42.3947 74.4203C52.9297 74.8208 62.1519 71.574 70.272 65.9672H70.3044Z" fill="url(#paint0_linear_2343_196)"/>
<path d="M80.547 59.7734C82.2974 60.6602 85.1013 57.8711 86.3818 61.261C83.4482 63.3778 79.688 62.634 76.3006 63.6639C73.7884 61.547 74.5339 58.6149 73.837 56.0975C73.5129 54.9104 73.7398 54.8675 75.085 53.4801C77.581 54.1809 76.9327 56.3407 77.7269 58.0714C80.6442 54.3526 82.2812 50.3334 83.2537 46.114C84.8096 39.3915 84.1289 32.7979 81.4222 26.3472C79.5745 21.9561 76.6734 18.1658 73.1725 14.7045C72.6376 14.1753 72.0379 13.7033 71.5679 13.1454C70.8061 12.2157 70.8548 12.1442 72.3297 10.7568C84.9392 17.9227 94.0318 40.4214 80.5632 59.7877L80.547 59.7734Z" fill="url(#paint1_linear_2343_196)"/>
<path d="M12.4746 13.1458C20.8054 3.1909 43.253 -4.66148 65.4576 5.508L65.7493 1.94653C66.9811 1.30289 68.1481 1.15987 68.4722 2.53296C68.9098 4.37805 69.0557 6.28036 69.2015 8.16837C69.2988 9.36982 68.456 9.98484 67.1432 10.0993C65.4576 10.2566 63.7719 10.4139 62.1026 10.5713C61.0166 10.6714 59.9632 10.5141 59.639 9.45563C59.2986 8.34 60.1576 7.8251 61.2598 7.56764C61.4543 7.52473 61.6488 7.4246 61.9405 7.31017C58.699 5.66532 55.2143 4.79284 51.6648 4.16351C43.3178 2.70459 35.2302 3.63429 27.4343 6.59502C23.1069 8.23987 19.5088 10.8287 15.9269 13.4605C14.3871 14.6047 14.3385 14.5618 12.4908 13.1458H12.4746Z" fill="url(#paint2_linear_2343_196)"/>
<path d="M65.5713 55.7546H59.9148C59.8013 55.0109 59.5906 54.3386 59.5906 53.6663C59.5744 45.7425 59.6068 37.8186 59.542 29.8947C59.542 28.3785 59.931 27.1914 61.2438 26.1759C62.589 25.1317 63.8046 23.9732 65.2147 22.7432C65.9116 25.1461 66.1223 50.1192 65.555 55.7546H65.5713Z" fill="url(#paint3_linear_2343_196)"/>
<path d="M12.3457 45.671C24.3394 36.9748 36.3331 28.2785 48.6023 19.3677C46.8681 19.239 45.5714 19.1245 44.3234 19.0387C43.7724 17.0506 43.8859 16.6644 45.377 16.6215C48.3268 16.5357 51.2604 16.5929 54.4371 16.5929C54.5829 17.4225 54.9233 18.1233 54.7774 18.7098C54.2588 20.655 53.5294 22.5573 52.9459 24.4882C52.557 25.7755 51.7141 26.0329 50.142 25.4751L49.7855 22.3427C46.8033 24.4739 43.9507 26.4906 41.1305 28.5217C33.2212 34.2429 25.328 39.9784 17.4349 45.6996C16.738 46.2146 16.0086 46.7009 15.2307 47.1299C13.9665 47.8165 13.0913 47.416 12.3457 45.671Z" fill="url(#paint4_linear_2343_196)"/>
<path d="M6.00822 57.8577C-1.47973 45.0993 -1.20422 32.6128 6.04062 19.8544C5.26265 19.9402 4.61436 19.9402 4.03088 20.1119C2.81531 20.4694 1.92388 20.0976 1.59973 19.1107C1.22695 17.995 2.1346 17.4658 3.23672 17.2513C5.44097 16.8365 7.64519 16.4646 9.94668 16.0498C12.5885 17.6804 11.9403 20.3264 12.5075 22.5577C12.7668 23.5303 12.6371 24.603 11.146 24.9463C9.12007 24.7318 9.89808 22.7722 8.65008 21.8855C6.54309 25.3182 5.13299 28.9083 4.32261 32.7272C2.68563 40.4794 4.17673 47.8026 7.85587 54.8826C8.79592 56.6848 8.71489 56.7134 5.992 57.8577H6.00822Z" fill="url(#paint5_linear_2343_196)"/>
<path d="M52.0215 32.0117V55.483C50.4007 56.2697 48.7313 55.8835 46.7864 55.8406C46.673 55.0683 46.4785 54.3102 46.4622 53.5664C46.4298 48.7749 46.5271 43.9691 46.3974 39.1776C46.3488 37.5184 46.9161 36.3027 48.2937 35.2442C49.3958 34.4003 50.3683 33.442 52.0053 32.0117H52.0215Z" fill="url(#paint6_linear_2343_196)"/>
<path d="M39.0556 55.7689H32.8318C32.8318 52.8224 32.7832 50.062 32.8643 47.2872C32.8805 46.758 33.3019 46.1429 33.7395 45.7425C35.1171 44.4266 36.5758 43.1965 38.2776 41.709C39.6553 44.1548 38.8935 46.4433 39.0232 48.6317C39.169 50.9058 39.0556 53.1943 39.0556 55.7832V55.7689Z" fill="url(#paint7_linear_2343_196)"/>
<path d="M25.2957 50.334V55.4831C23.367 56.2269 21.4545 56.0409 19.4609 55.6404C20.482 53.6094 22.1514 52.0504 25.2957 50.334Z" fill="url(#paint8_linear_2343_196)"/>
<defs>
<linearGradient id="paint0_linear_2343_196" x1="10.2711" y1="68.9279" x2="71.8765" y2="68.9279" gradientUnits="userSpaceOnUse">
<stop stop-color="#AE8ABE"/>
<stop offset="1" stop-color="#8390C8"/>
</linearGradient>
<linearGradient id="paint1_linear_2343_196" x1="71.0817" y1="37.2032" x2="87.2245" y2="37.2032" gradientUnits="userSpaceOnUse">
<stop stop-color="#AE8ABE"/>
<stop offset="1" stop-color="#8390C8"/>
</linearGradient>
<linearGradient id="paint2_linear_2343_196" x1="12.4746" y1="7.51042" x2="69.2015" y2="7.51042" gradientUnits="userSpaceOnUse">
<stop stop-color="#AE8ABE"/>
<stop offset="1" stop-color="#8390C8"/>
</linearGradient>
<linearGradient id="paint3_linear_2343_196" x1="59.5582" y1="39.2489" x2="65.8954" y2="39.2489" gradientUnits="userSpaceOnUse">
<stop stop-color="#AE8ABE"/>
<stop offset="1" stop-color="#8390C8"/>
</linearGradient>
<linearGradient id="paint4_linear_2343_196" x1="12.3457" y1="32.0116" x2="54.8098" y2="32.0116" gradientUnits="userSpaceOnUse">
<stop stop-color="#AE8ABE"/>
<stop offset="1" stop-color="#8390C8"/>
</linearGradient>
<linearGradient id="paint5_linear_2343_196" x1="0.497601" y1="36.9609" x2="12.621" y2="36.9609" gradientUnits="userSpaceOnUse">
<stop stop-color="#AE8ABE"/>
<stop offset="1" stop-color="#8390C8"/>
</linearGradient>
<linearGradient id="paint6_linear_2343_196" x1="46.3974" y1="43.9834" x2="52.0215" y2="43.9834" gradientUnits="userSpaceOnUse">
<stop stop-color="#AE8ABE"/>
<stop offset="1" stop-color="#8390C8"/>
</linearGradient>
<linearGradient id="paint7_linear_2343_196" x1="32.8318" y1="48.7318" x2="39.1204" y2="48.7318" gradientUnits="userSpaceOnUse">
<stop stop-color="#AE8ABE"/>
<stop offset="1" stop-color="#8390C8"/>
</linearGradient>
<linearGradient id="paint8_linear_2343_196" x1="19.4609" y1="53.166" x2="25.2957" y2="53.166" gradientUnits="userSpaceOnUse">
<stop stop-color="#AE8ABE"/>
<stop offset="1" stop-color="#8390C8"/>
</linearGradient>
</defs>
</svg>
