<svg width="89" height="79" viewBox="0 0 89 79" fill="none" xmlns="http://www.w3.org/2000/svg">
<path d="M67.6158 61.4909C68.5396 61.7055 69.3662 61.7484 69.9821 62.0917C70.4521 62.3491 70.8411 62.9785 70.8897 63.4791C70.9222 63.7222 70.1766 64.1656 69.6904 64.3086C69.1717 64.466 68.572 64.3802 68.0048 64.3802C52.4292 64.3802 36.8536 64.3945 21.2618 64.3802C19.9814 64.3802 18.4417 64.7377 17.7285 62.8783L20.3866 61.2192C20.3866 57.4861 20.3704 53.6815 20.3866 49.8626C20.4028 46.4585 21.3915 45.6003 25.2165 45.5574C29.4305 45.5144 30.6136 46.5299 30.6623 50.3632C30.6947 53.6815 30.6623 56.9855 30.6623 60.3038C30.6623 61.1763 30.7919 61.963 32.4289 61.634C32.5099 60.9331 32.6558 60.1751 32.6558 59.4027C32.672 53.7816 32.6558 48.1605 32.6558 42.5394C32.6558 41.8385 32.6072 41.1234 32.7368 40.4368C32.9475 39.3784 33.6445 38.463 34.8925 38.3629C36.805 38.2056 38.7661 38.1913 40.6624 38.3915C41.3431 38.463 42.1697 39.3069 42.4452 39.9505C42.8342 40.8516 42.8991 41.8958 42.8991 42.8827C42.9315 48.6039 42.9153 54.3251 42.9315 60.0464C42.9315 60.9618 42.8666 61.963 44.7954 61.6054C44.844 60.6614 44.925 59.6888 44.925 58.7161C44.925 51.0926 44.925 43.4691 44.925 35.8313C44.925 35.1304 44.8602 34.4153 44.9574 33.7287C45.0223 33.1423 45.1681 32.5273 45.4599 32.0124C46.3351 30.4962 49.1552 29.8955 52.2833 30.4962C54.1148 30.8395 55.0548 31.8264 55.2493 33.7001C55.3141 34.401 55.2655 35.1018 55.2655 35.8027C55.2655 43.4262 55.2655 51.0497 55.2655 58.6876C55.2655 59.6602 55.2655 60.6328 55.2655 62.2633C56.3028 61.5339 56.9997 61.305 57.097 60.9331C57.3077 60.1751 57.2104 59.3455 57.2104 58.5445C57.2104 48.2034 57.2104 37.8766 57.2104 27.5355C57.2104 25.9192 57.016 24.1886 59.0257 23.3304C61.2948 22.3721 63.7097 22.3292 65.8978 23.4591C66.6595 23.8453 67.1944 24.8179 67.4861 25.6189C67.7616 26.3483 67.5672 27.2065 67.5672 28.0075C67.5672 38.1484 67.5672 48.2749 67.5672 58.4158V61.4909H67.6158ZM64.5363 25.8621H60.5492C59.982 29.2233 60.0792 59.3312 60.6303 61.5625H64.5363V25.8621ZM52.2509 61.6483V33.1995H48.0531V61.6483C48.8635 61.6912 49.5118 61.7627 50.1763 61.7627C50.8246 61.7627 51.4891 61.6912 52.2671 61.6483H52.2509ZM35.7515 40.8803V61.6197H40.1113C40.1113 54.6541 40.1437 47.8173 40.0789 40.8803H35.7515ZM23.466 48.2606V61.6197H27.68V48.2606H23.466Z" fill="url(#paint0_linear_2343_98)"/>
<path d="M18.4904 71.3595L19.2197 75.8649C17.9717 76.6373 17.0155 76.4943 16.7237 75.5932C15.7999 72.7326 15.0705 69.8147 14.3088 66.9112C14.2764 66.7682 14.5033 66.5679 14.6978 66.239C14.9895 66.1818 15.4595 65.9386 15.8323 66.0244C19.009 66.7253 22.1695 67.469 25.33 68.2414C26.1242 68.4416 26.8697 68.8421 26.6104 69.7289C26.3349 70.6872 25.5569 70.9447 24.5034 70.6014C24.2279 70.5156 23.8875 70.6014 23.1096 70.6014C27.2425 72.9328 31.4079 74.2058 35.7191 74.9782C47.9073 77.1379 59.2365 75.2642 69.2366 68.6133C78.5561 62.4201 83.8398 54.11 85.3795 43.8261C86.1899 38.4195 85.3147 33.2847 83.6129 28.1786C83.2887 27.2059 82.7701 26.2762 84.0505 25.4609C85.0878 25.3322 85.7847 25.7613 86.0602 26.6338C86.6113 28.3645 87.2272 30.0951 87.5675 31.8544C89.8042 43.683 87.4379 54.5391 78.6857 64.0363C71.3923 71.9459 61.9108 76.6516 50.6464 78.0676C42.8667 79.0402 34.9898 78.4252 27.6639 75.3643C24.6331 74.1057 21.6509 72.7468 18.5066 71.3738L18.4904 71.3595Z" fill="url(#paint1_linear_2343_98)"/>
<path d="M70.9221 8.14008C70.3872 6.60965 69.982 5.56554 69.6741 4.50711C69.5769 4.14954 69.6255 3.69183 69.7713 3.33425C69.8686 3.1054 70.2414 2.86226 70.5331 2.80504C70.9383 2.73353 71.3921 2.80504 72.1053 2.84795C73.0777 5.92311 74.034 8.98396 74.974 11.9161C74.5526 12.9602 73.7747 13.3321 72.7698 13.0889C69.82 12.3881 66.8702 11.6586 63.9528 10.872C63.2721 10.686 62.7048 10.1711 62.1375 9.84215C62.6886 7.51075 64.3904 8.56917 65.8815 8.6979C55.0224 2.10419 38.9605 0.330605 24.9409 7.51074C4.90818 17.7803 -0.42415 33.6424 5.84823 53.066C5.10267 53.2519 4.5192 53.4093 3.95193 53.5523C-1.99629 43.7833 -1.18591 25.2179 12.8824 12.3881C24.795 1.53207 48.28 -5.13316 70.9221 8.14008Z" fill="url(#paint2_linear_2343_98)"/>
<path d="M51.8454 19.0818C49.6736 19.6396 47.5018 20.1974 45.3299 20.7409C43.7578 21.1414 43.7416 21.1271 41.9587 20.1831C42.0074 19.0961 42.915 18.7242 43.9037 18.4381C47.7773 17.3082 51.6509 16.2068 55.5246 15.0626C56.6915 14.7193 57.7288 14.562 58.6689 15.9637C56.805 20.2832 55.7353 25.0605 53.1907 29.3371C51.5699 29.1654 51.0513 28.6505 51.4564 27.4776C52.0075 25.8757 52.4937 24.2452 53.0124 22.6718C48.8794 25.5038 44.8599 28.4789 40.5973 31.1535C36.2536 33.8711 31.4237 35.8736 26.4966 37.8331C26.0752 37.5041 25.6862 37.3039 25.4431 36.9892C25.2648 36.7747 25.2648 36.4457 25.1514 35.988C25.7673 35.6161 26.3507 35.1298 27.0477 34.8867C35.735 31.6542 43.2554 26.9198 50.0626 21.2272C50.7919 20.6265 51.2944 19.8112 51.9103 19.0961C52.0075 19.0675 52.1048 19.0532 52.1858 19.0103C52.2344 18.9817 52.2344 18.8958 52.2506 18.8386L51.8941 19.0961L51.8454 19.0818Z" fill="url(#paint3_linear_2343_98)"/>
<defs>
<linearGradient id="paint0_linear_2343_98" x1="17.7447" y1="43.512" x2="70.9059" y2="43.512" gradientUnits="userSpaceOnUse">
<stop stop-color="#AE8ABE"/>
<stop offset="1" stop-color="#8390C8"/>
</linearGradient>
<linearGradient id="paint1_linear_2343_98" x1="14.2764" y1="51.9502" x2="88.3455" y2="51.9502" gradientUnits="userSpaceOnUse">
<stop stop-color="#AE8ABE"/>
<stop offset="1" stop-color="#8390C8"/>
</linearGradient>
<linearGradient id="paint2_linear_2343_98" x1="0.451066" y1="27.1488" x2="74.974" y2="27.1488" gradientUnits="userSpaceOnUse">
<stop stop-color="#AE8ABE"/>
<stop offset="1" stop-color="#8390C8"/>
</linearGradient>
<linearGradient id="paint3_linear_2343_98" x1="25.119" y1="26.3191" x2="58.6689" y2="26.3191" gradientUnits="userSpaceOnUse">
<stop stop-color="#AE8ABE"/>
<stop offset="1" stop-color="#8390C8"/>
</linearGradient>
</defs>
</svg>
