<svg width="76" height="80" viewBox="0 0 76 80" fill="none" xmlns="http://www.w3.org/2000/svg">
<path d="M73.4892 55.8474C73.5541 54.8319 73.6513 53.9594 73.6513 53.0726C73.6513 43.7327 73.6513 34.3928 73.6513 25.0672C73.6513 24.5666 73.6837 24.066 73.6513 23.5654C73.4406 21.3484 72.533 20.5474 70.0208 20.4473C68.0111 20.3615 66.4983 20.0135 65.4826 19.4032C65.6933 19.1029 65.8068 18.6165 66.1148 18.4878C70.7988 16.6427 75.8718 19.2745 75.9042 23.7084C75.9853 36.3523 75.9528 49.0105 75.9204 61.6544C75.9204 64.701 74.6562 65.7308 71.1229 65.7451C64.8668 65.7737 58.6106 65.7451 52.3545 65.7451H48.805V69.6356C52.711 69.6928 56.3578 70.3221 58.7889 73.2542C60.2152 74.9706 61.1552 76.8872 60.6528 79.4618C56.9736 79.805 53.2459 79.5762 49.5505 79.6191C45.6769 79.662 41.8194 79.6191 37.9458 79.6191H15.5792C14.3798 74.327 18.7073 70.5939 27.0867 69.421V65.7308C25.8225 65.7308 24.7041 65.7308 23.602 65.7308C17.6862 65.7308 11.7704 65.6307 5.85459 65.7737C2.41856 65.8452 0.0360303 64.8154 0.0360303 60.7105C0.00361491 48.1667 0.00361491 35.6086 0.0360303 23.0648C0.0360303 19.7036 1.89988 18.1302 5.7249 18.0444C7.31325 18.0015 8.90162 18.0444 10.5062 18.0873C10.8141 18.0873 11.1221 18.2876 11.3976 18.3877C12.0783 19.4175 11.5111 20.0039 10.5062 20.2328C9.64718 20.4187 8.70711 20.3901 7.79948 20.4044C6.45424 20.433 5.09283 20.4044 4.03933 20.4044C2.53202 21.4342 2.20785 22.5499 2.20785 23.8085C2.20785 34.1497 2.20784 44.4908 2.24025 54.8319C2.24025 55.1179 2.38614 55.3897 2.51581 55.8331H73.5055L73.4892 55.8474ZM3.95826 63.7856H7.34566C28.0105 63.7856 48.6753 63.7856 69.3563 63.7856C70.6691 63.7856 71.9819 63.614 73.4082 63.5139V58.6222C67.0386 58.1502 5.028 58.3504 2.36994 58.8367C2.01337 60.5388 2.01334 62.1694 3.95826 63.7856ZM18.0265 77.2591C20.9925 77.8455 55.7905 77.8026 58.254 77.2019C56.9736 73.7406 54.2345 71.8239 50.2799 71.7953C43.0026 71.7524 35.7091 71.7953 28.4319 71.7953C27.4108 71.7953 26.3735 71.7524 25.3524 71.8096C21.2681 72.0671 18.7235 73.9694 18.0265 77.2734V77.2591ZM30.1661 69.4925C34.9636 70.0217 43.9426 69.8787 46.0334 69.3209V65.9453H30.1661V69.4925Z" fill="url(#paint0_linear_2343_89)"/>
<path d="M37.8324 27.8139C39.2101 28.8008 40.296 27.9569 41.3171 27.442C44.7694 25.7113 48.1892 23.9234 51.6252 22.1499C53.6836 21.0914 55.7419 20.0473 57.6869 19.0604C57.9948 18.1164 56.5686 17.1724 58.4811 16.3857C59.5994 17.0294 60.9284 17.8017 62.6626 18.7886C60.7015 19.8757 59.2104 20.7625 57.6545 21.5491C52.1438 24.3525 46.5522 27.0415 41.1226 29.945C39.3722 30.889 37.9783 30.7603 36.39 29.945C29.3234 26.3121 22.2731 22.6791 15.1903 19.0604C11.3653 17.1009 12.1919 13.2534 15.4496 11.5227C18.2698 10.0352 21.1386 8.59057 23.9911 7.14596C27.8323 5.20074 31.7383 3.35564 35.4985 1.2817C37.0869 0.394906 38.3511 0.39491 39.8746 1.19588C44.8666 3.78473 49.891 6.33069 54.8991 8.89093C56.0823 9.49166 57.3141 10.0209 58.4324 10.6931C59.3239 11.2366 60.1018 11.9375 60.7501 12.4238C60.6691 14.2117 59.4373 14.7695 58.2541 15.3845C53.1487 18.002 48.0595 20.6337 42.9703 23.2655C41.8033 23.8662 40.6039 24.467 39.5018 25.1678C38.497 25.8115 37.5245 26.5409 37.8163 27.8282L37.8324 27.8139ZM35.3365 26.9128C36.1631 24.281 38.3673 23.1225 40.7174 21.9925C45.5959 19.6325 50.3772 17.1295 55.1747 14.6551C56.0823 14.1831 56.9089 13.5823 57.9948 12.8958C51.1065 9.36292 44.5425 6.00173 37.8163 2.55469C31.6898 5.75857 25.2877 8.64777 19.0316 12.3237C24.7691 15.17 30.069 17.8017 35.2392 20.362C35.0123 21.6349 34.3478 21.921 33.4564 21.6636C32.7108 21.449 32.0139 21.0914 31.317 20.7625C27.2488 18.7743 23.1969 16.7576 19.1126 14.7838C18.2374 14.369 17.2973 14.0686 16.4545 13.754C14.6554 15.7564 14.6879 16.4286 16.6166 17.4299C22.6945 20.5479 28.8048 23.6231 35.3365 26.9271V26.9128Z" fill="url(#paint1_linear_2343_89)"/>
<path d="M45.742 33.0917C46.99 33.3921 48.2379 33.6925 49.9398 34.1073C52.3547 32.8772 55.2073 31.4469 58.1733 29.9451C57.8329 29.2585 56.6498 28.6149 57.9302 27.6852C59.6644 27.6852 60.9124 28.6149 62.3387 29.9165C58.4975 32.5626 54.0403 34.093 50.2153 36.4673C49.8425 37.8976 49.9398 39.6568 48.9835 40.6581C47.7517 41.9453 45.6772 42.6033 43.6512 43.7189C43.2622 42.4746 42.9705 41.5735 42.6301 40.4864C42.0142 40.6867 41.3821 40.8297 40.831 41.1015C39.1616 41.9024 37.7354 41.6736 36.066 40.8011C29.437 37.3112 22.8405 33.7497 15.9684 30.6602C11.3655 28.5863 12.0138 24.2954 15.4984 22.6505C16.0981 22.3645 16.6816 22.0784 17.2489 21.8066C18.432 22.2071 18.8048 22.7792 17.8809 23.5945C17.4109 24.0093 16.7626 24.2811 16.2278 24.6387C15.2067 25.3109 14.8501 26.1977 15.4174 27.7853C21.6736 31.0035 28.3025 34.4076 35.0935 37.8976C36.0822 35.5233 38.1568 34.3504 40.361 33.2491C45.4016 30.7317 50.345 28.0714 55.3856 25.5684C56.9091 24.8103 58.2705 24.0522 58.2868 22.4217C59.9399 21.9926 60.5558 23.0367 60.5396 23.7947C60.5396 24.5385 59.8589 25.5254 59.1295 25.9545C56.5849 27.442 53.862 28.7293 51.2364 30.1167C49.3887 31.0893 47.5897 32.1048 45.7582 33.0917C43.6998 34.1072 41.5928 35.0513 39.6155 36.1669C38.9023 36.5674 38.3513 37.2826 37.9461 37.9548C37.4923 38.7272 37.9461 39.2707 38.8537 39.5138C41.2686 39.0847 42.8894 37.0966 45.6123 36.8249C45.7258 37.9977 45.823 38.9417 45.9203 39.9C46.5686 39.4709 46.8927 38.9846 47.0386 38.4697C47.6059 36.4959 46.2931 34.851 45.7258 33.0775L45.742 33.0917Z" fill="url(#paint2_linear_2343_89)"/>
<defs>
<linearGradient id="paint0_linear_2343_89" x1="0.00361491" y1="48.7817" x2="75.9528" y2="48.7817" gradientUnits="userSpaceOnUse">
<stop stop-color="#AE8ABE"/>
<stop offset="1" stop-color="#8390C8"/>
</linearGradient>
<linearGradient id="paint1_linear_2343_89" x1="12.6457" y1="15.5991" x2="62.6626" y2="15.5991" gradientUnits="userSpaceOnUse">
<stop stop-color="#AE8ABE"/>
<stop offset="1" stop-color="#8390C8"/>
</linearGradient>
<linearGradient id="paint2_linear_2343_89" x1="12.7269" y1="32.7628" x2="62.3549" y2="32.7628" gradientUnits="userSpaceOnUse">
<stop stop-color="#AE8ABE"/>
<stop offset="1" stop-color="#8390C8"/>
</linearGradient>
</defs>
</svg>
