<svg width="74" height="85" viewBox="0 0 74 85" fill="none" xmlns="http://www.w3.org/2000/svg">
<path d="M37.0241 72.8741C34.755 72.8741 32.4697 72.8884 30.2006 72.8741C26.716 72.8455 25.5977 71.8871 25.2735 68.7977C25.1276 67.4103 25.0304 66.0086 24.7386 64.6355C23.5231 59.0144 19.9898 54.5232 15.7434 50.3896C10.1031 44.883 7.54229 38.3036 8.25543 31.0519C9.56825 17.8359 20.8974 9.12533 33.6204 7.55199C49.2447 5.62108 63.945 15.905 66.2141 29.3069C67.6404 37.6885 64.8851 45.1976 58.1427 51.3909C54.6256 54.6234 51.7893 58.2134 50.5413 62.6045C49.9416 64.7213 49.5526 66.9097 49.3095 69.0837C48.9853 71.9015 48.0939 72.8168 44.8686 72.8741C42.2592 72.9313 39.6335 72.8741 37.0241 72.8741ZM45.2252 69.5844C45.7924 67.0098 46.2138 64.6498 46.8459 62.347C48.4505 56.5114 52.5348 51.9773 56.9271 47.5719C62.3081 42.1654 63.8154 35.6861 62.4053 28.7634C60.2335 18.1792 48.8071 9.23975 34.2039 10.7273C22.2751 11.943 12.3722 20.5964 11.8211 32.2248C11.5132 38.7184 14.1388 44.3252 19.228 49.1024C24.9007 54.4374 28.5637 60.6449 28.8878 68.1397C28.904 68.5974 29.1957 69.0551 29.3902 69.5844H45.2414H45.2252Z" fill="url(#paint0_linear_2343_450)"/>
<path d="M48.531 76.35C47.6558 76.6361 46.8778 77.1081 46.0999 77.1224C40.2975 77.1796 34.4952 77.1653 28.6928 77.1653C27.7366 77.1653 26.7965 77.0938 26.6183 76.0496C26.4076 74.8768 27.3638 74.4477 28.4011 74.2189C29.0494 74.0758 29.7463 74.0615 30.427 74.0615C35.2083 74.0615 39.9896 74.0615 44.7546 74.0615C46.3106 74.0615 47.7369 74.1903 48.531 76.3786V76.35Z" fill="url(#paint1_linear_2343_450)"/>
<path d="M37.2184 81.3553C35.2896 81.3553 33.3609 81.3553 31.4322 81.3553C30.7515 81.3553 29.9573 81.4697 29.4225 81.198C28.8228 80.8976 28.0934 80.2111 28.1096 79.7105C28.1258 79.2099 28.9524 78.6663 29.5359 78.2802C29.8438 78.0799 30.4111 78.1657 30.8649 78.1657C35.1762 78.1657 39.5036 78.1657 43.8149 78.1657C44.0418 78.1657 44.2687 78.1657 44.4956 78.18C45.6139 78.2945 46.5378 78.695 46.4892 79.8106C46.4405 80.9262 45.5005 81.3267 44.3659 81.341C41.9834 81.3696 39.6009 81.341 37.2184 81.341V81.3553Z" fill="url(#paint2_linear_2343_450)"/>
<path d="M32.2432 84.989V82.5146C35.3226 82.1713 38.24 82.3715 41.1412 82.3715C42.146 82.3715 43.0375 82.8721 42.8106 83.8161C42.6971 84.2881 41.7409 84.9032 41.125 84.9318C38.3048 85.0462 35.4847 84.989 32.2432 84.989Z" fill="url(#paint3_linear_2343_450)"/>
<path d="M10.2812 10.6703C10.6378 10.227 10.8485 9.85508 11.1727 9.61192C11.4806 9.35447 11.902 9.21144 12.5665 8.86816C13.8794 10.0267 15.176 11.171 16.4402 12.2866C14.3008 14.618 13.4093 14.3605 10.2812 10.6703Z" fill="url(#paint4_linear_2343_450)"/>
<path d="M73.5404 29.9939C73.7025 32.5398 73.4594 32.926 71.6441 33.069C70.7527 33.1405 69.7803 33.1977 68.9861 32.926C68.3864 32.7114 67.6895 31.9534 67.6895 31.4528C67.6895 30.9665 68.4998 30.1512 69.0509 30.0654C70.4448 29.8651 71.9035 29.9939 73.5404 29.9939Z" fill="url(#paint5_linear_2343_450)"/>
<path d="M3.89552 33.6981C1.83715 33.7124 0.799844 33.2404 0.718805 32.2106C0.621559 31.0949 1.72368 30.5371 4.00896 30.5371C4.12242 30.5371 4.23588 30.5371 4.34934 30.5371C6.34288 30.58 7.05602 31.0091 6.95878 32.0818C6.86153 33.1546 6.08355 33.6123 4.23587 33.6838C4.12242 33.6838 4.00898 33.6838 3.89552 33.6838V33.6981Z" fill="url(#paint6_linear_2343_450)"/>
<path d="M57.7217 11.9283C58.8076 10.9414 59.618 9.96875 60.6877 9.33942C61.2712 8.99614 62.4705 8.95323 63.0702 9.2536C63.9779 9.7113 63.7348 10.6553 63.1351 11.3275C62.584 11.9426 61.9519 12.529 61.255 12.9867C60.007 13.802 59.5694 13.6732 57.7379 11.9283H57.7217Z" fill="url(#paint7_linear_2343_450)"/>
<path d="M59.9898 52.0768C60.784 50.7037 61.8537 50.4606 63.0855 51.2187C63.8959 51.7193 64.7063 52.3486 65.1925 53.078C65.5166 53.5501 65.5491 54.4797 65.2249 54.9374C64.6901 55.7241 63.5879 55.6383 62.8586 55.1091C61.6754 54.2652 60.3788 53.4356 59.9736 52.0768H59.9898Z" fill="url(#paint8_linear_2343_450)"/>
<path d="M37.6242 5.77832C36.5058 5.67819 35.6792 5.06316 35.5982 4.10486C35.5172 3.04643 35.5982 1.88788 36.0358 0.915276C36.4896 -0.100241 38.3697 -0.0430285 38.7425 0.972489C39.0829 1.88788 39.0018 2.93201 39.0342 3.91892C39.0666 4.7771 38.7263 5.49225 37.608 5.77832H37.6242Z" fill="url(#paint9_linear_2343_450)"/>
<path d="M14.512 51.1904C15.7924 51.8341 16.2624 52.6493 15.3385 53.6649C14.6416 54.4229 13.8636 55.2096 12.9236 55.6959C12.4374 55.9533 11.4163 55.796 10.8652 55.4956C10.1035 55.0952 10.0548 54.2942 10.6221 53.6792C11.6756 52.5492 12.7777 51.405 14.512 51.1904Z" fill="url(#paint10_linear_2343_450)"/>
<path d="M22.907 20.2674C23.1664 14.3173 29.3415 10.3696 37.5588 16.0766C40.5734 13.7595 43.8798 12.2433 47.9965 14.0598C50.5087 15.1755 51.546 16.8918 51.6757 20.439C55.6304 21.5403 57.397 24.0148 56.7811 27.5762C62 31.3379 61.6272 35.5001 56.8298 38.847C57.2836 42.2798 55.9383 45.0117 51.7729 46.3275C51.7405 49.6029 50.2656 52.0345 46.5703 53.2073C42.9884 54.3516 40.2169 52.8497 37.4615 51.1191C34.5928 52.7353 31.8699 54.3515 28.2556 53.1644C24.7061 51.9915 23.134 49.746 22.9719 46.399C19.5197 44.9115 17.0561 42.809 18.0123 38.7898C16.0836 37.5598 14.3332 36.0579 14.2359 33.5835C14.1387 31.1234 15.6298 29.4356 17.5099 28.1054C17.9799 23.6 18.531 22.8133 22.907 20.2531V20.2674ZM51.9998 37.1307C52.9237 36.7016 53.7341 36.2439 54.6093 35.9292C55.8897 35.4572 56.6028 34.6991 56.6352 33.4405C56.6677 32.1961 56.1004 31.3665 54.8362 30.7944C52.3726 29.6931 52.3888 29.6645 52.9723 27.3331C53.5072 25.159 52.5833 23.743 50.4439 23.5857C49.9091 23.5428 49.3256 23.886 48.8069 23.8288C48.0938 23.743 47.1376 23.6286 46.7972 23.1995C46.4568 22.7704 46.6513 21.9265 46.7972 21.2972C46.8782 20.9539 47.5914 20.6678 47.5752 20.3675C47.5103 19.3091 47.6076 18.079 47.0079 17.278C46.3596 16.3912 45.0143 16.1481 43.6205 16.4914C40.6869 17.2208 39.0985 18.9372 39.0823 21.6834C39.0661 29.0065 39.0823 36.3154 39.0823 43.6386C39.0823 44.5397 39.0013 45.455 39.1147 46.3418C39.3741 48.6589 41.6107 50.4611 44.1229 50.4182C45.6626 50.3896 47.3644 49.3026 47.721 48.1011C48.0938 46.8424 47.4779 46.0701 45.5492 45.1976C44.9009 44.9115 44.3498 44.4681 43.7501 44.0963C45.3871 41.8507 45.4357 41.8221 47.5265 42.4943C48.0614 42.6659 48.5476 42.9663 49.0825 43.0807C51.5947 43.61 53.653 41.8936 53.0858 39.6766C52.8913 38.9185 52.4699 38.2034 51.9998 37.1307ZM21.3511 40.263C23.0043 43.3954 23.5391 43.5956 26.7807 42.5658C27.4128 42.3656 28.0773 42.1367 28.7256 42.0938C29.7305 42.0366 30.6543 42.48 30.6705 43.3811C30.6705 43.9389 30.1033 44.6112 29.5684 45.026C29.0984 45.3978 28.2718 45.3978 27.7532 45.7411C26.651 46.4563 26.4403 47.6863 27.1373 48.6875C27.8828 49.7746 29.8602 50.504 31.2702 50.2323C34.0742 49.6888 35.4032 48.2441 35.4032 45.4837C35.4356 37.4453 35.4032 29.4213 35.4032 21.383C35.4032 20.9825 35.4356 20.5677 35.3708 20.1815C35.0466 18.0933 32.0806 16.0766 29.6819 16.3054C27.2831 16.5343 26.0351 18.551 27.2669 20.5105C28.0611 21.7835 28.677 22.8133 26.8617 23.9289C25.1923 23.4712 23.5229 23.128 22.0156 24.687C20.3624 26.3891 22.4532 27.662 22.3884 29.4928C21.6753 29.8504 20.8811 30.3653 20.0059 30.7086C18.7417 31.1806 17.8827 31.8528 17.8827 33.1401C17.8827 34.4703 18.6768 35.4715 20.3948 35.9149C21.4646 36.1867 22.3236 36.487 22.5343 37.6742L21.3349 40.2487L21.3511 40.263Z" fill="url(#paint11_linear_2343_450)"/>
<path d="M44.3658 24.6865C47.0239 25.4589 46.3755 29.1777 49.9412 28.7057C48.6284 31.3374 48.0449 31.5949 46.0676 30.7939C44.3334 30.0931 43.1178 29.0347 42.7774 27.2897C42.5181 26.0024 43.053 25.2157 44.3658 24.6865Z" fill="url(#paint12_linear_2343_450)"/>
<path d="M47.7531 36.9586L45.1599 37.7024C44.6575 38.5463 44.2361 39.3472 43.7336 40.091C43.5716 40.3198 43.1988 40.4343 42.9395 40.5773C40.8973 39.476 40.638 39.0898 41.1404 37.6738C41.7239 36.0575 42.907 34.9419 44.7709 34.4127C46.7159 33.8692 47.5262 34.4842 47.7693 36.9443L47.7531 36.9586Z" fill="url(#paint13_linear_2343_450)"/>
<path d="M33.3773 39.9768C31.8376 40.6491 30.703 40.4488 30.2168 39.1615C29.8116 38.0888 29.2605 37.4881 27.9801 37.2306C27.0239 37.0447 26.4242 36.3152 26.7807 35.3998C27.1697 34.3986 28.126 34.1269 29.2443 34.2699C32.0807 34.6418 33.6528 36.7443 33.3611 39.9768H33.3773Z" fill="url(#paint14_linear_2343_450)"/>
<path d="M32.0974 26.3032C32.1136 28.6203 29.1314 31.3522 26.9919 31.1662C26.2788 31.109 25.4036 30.4368 25.047 29.836C24.8687 29.5357 25.5657 28.4343 26.0843 28.2913C27.5268 27.8765 28.2886 27.1614 28.7424 25.8884C28.9045 25.445 30.0714 24.8872 30.5414 25.0159C31.2546 25.2161 31.757 25.9885 32.0974 26.2889V26.3032Z" fill="url(#paint15_linear_2343_450)"/>
<defs>
<linearGradient id="paint0_linear_2343_450" x1="8.12577" y1="40.0914" x2="66.5869" y2="40.0914" gradientUnits="userSpaceOnUse">
<stop stop-color="#AE8ABE"/>
<stop offset="1" stop-color="#8390C8"/>
</linearGradient>
<linearGradient id="paint1_linear_2343_450" x1="26.5858" y1="75.6063" x2="48.531" y2="75.6063" gradientUnits="userSpaceOnUse">
<stop stop-color="#AE8ABE"/>
<stop offset="1" stop-color="#8390C8"/>
</linearGradient>
<linearGradient id="paint2_linear_2343_450" x1="28.1096" y1="79.7534" x2="46.5054" y2="79.7534" gradientUnits="userSpaceOnUse">
<stop stop-color="#AE8ABE"/>
<stop offset="1" stop-color="#8390C8"/>
</linearGradient>
<linearGradient id="paint3_linear_2343_450" x1="32.2432" y1="83.6731" x2="42.843" y2="83.6731" gradientUnits="userSpaceOnUse">
<stop stop-color="#AE8ABE"/>
<stop offset="1" stop-color="#8390C8"/>
</linearGradient>
<linearGradient id="paint4_linear_2343_450" x1="10.2812" y1="11.3283" x2="16.424" y2="11.3283" gradientUnits="userSpaceOnUse">
<stop stop-color="#AE8ABE"/>
<stop offset="1" stop-color="#8390C8"/>
</linearGradient>
<linearGradient id="paint5_linear_2343_450" x1="67.6895" y1="31.5386" x2="73.5891" y2="31.5386" gradientUnits="userSpaceOnUse">
<stop stop-color="#AE8ABE"/>
<stop offset="1" stop-color="#8390C8"/>
</linearGradient>
<linearGradient id="paint6_linear_2343_450" x1="0.718805" y1="32.1247" x2="6.95878" y2="32.1247" gradientUnits="userSpaceOnUse">
<stop stop-color="#AE8ABE"/>
<stop offset="1" stop-color="#8390C8"/>
</linearGradient>
<linearGradient id="paint7_linear_2343_450" x1="57.7217" y1="11.256" x2="63.6537" y2="11.256" gradientUnits="userSpaceOnUse">
<stop stop-color="#AE8ABE"/>
<stop offset="1" stop-color="#8390C8"/>
</linearGradient>
<linearGradient id="paint8_linear_2343_450" x1="59.9898" y1="53.1639" x2="65.4518" y2="53.1639" gradientUnits="userSpaceOnUse">
<stop stop-color="#AE8ABE"/>
<stop offset="1" stop-color="#8390C8"/>
</linearGradient>
<linearGradient id="paint9_linear_2343_450" x1="35.5658" y1="2.97492" x2="39.0504" y2="2.97492" gradientUnits="userSpaceOnUse">
<stop stop-color="#AE8ABE"/>
<stop offset="1" stop-color="#8390C8"/>
</linearGradient>
<linearGradient id="paint10_linear_2343_450" x1="10.2331" y1="53.5075" x2="15.8248" y2="53.5075" gradientUnits="userSpaceOnUse">
<stop stop-color="#AE8ABE"/>
<stop offset="1" stop-color="#8390C8"/>
</linearGradient>
<linearGradient id="paint11_linear_2343_450" x1="14.2359" y1="33.4405" x2="60.5737" y2="33.4405" gradientUnits="userSpaceOnUse">
<stop stop-color="#AE8ABE"/>
<stop offset="1" stop-color="#8390C8"/>
</linearGradient>
<linearGradient id="paint12_linear_2343_450" x1="42.7126" y1="27.9476" x2="49.9412" y2="27.9476" gradientUnits="userSpaceOnUse">
<stop stop-color="#AE8ABE"/>
<stop offset="1" stop-color="#8390C8"/>
</linearGradient>
<linearGradient id="paint13_linear_2343_450" x1="40.9135" y1="37.4163" x2="47.7531" y2="37.4163" gradientUnits="userSpaceOnUse">
<stop stop-color="#AE8ABE"/>
<stop offset="1" stop-color="#8390C8"/>
</linearGradient>
<linearGradient id="paint14_linear_2343_450" x1="26.6835" y1="37.3021" x2="33.4097" y2="37.3021" gradientUnits="userSpaceOnUse">
<stop stop-color="#AE8ABE"/>
<stop offset="1" stop-color="#8390C8"/>
</linearGradient>
<linearGradient id="paint15_linear_2343_450" x1="25.0308" y1="28.0911" x2="32.0974" y2="28.0911" gradientUnits="userSpaceOnUse">
<stop stop-color="#AE8ABE"/>
<stop offset="1" stop-color="#8390C8"/>
</linearGradient>
</defs>
</svg>
