<svg width="74" height="86" viewBox="0 0 74 86" fill="none" xmlns="http://www.w3.org/2000/svg">
<path d="M37.4068 72.8735C34.6839 72.8735 31.9448 72.9307 29.2219 72.8591C26.6287 72.8019 25.7535 72.0725 25.5752 69.8126C24.9431 62.3321 21.734 55.9529 15.802 50.5178C11.6204 46.6702 9.38371 41.9073 8.45987 36.6009C6.33666 24.4719 14.8133 12.5002 28.0388 8.59551C37.4878 5.80641 46.3697 7.25102 54.4735 12.3572C60.4703 16.1332 64.2791 21.3538 65.8027 27.59C67.9583 36.3577 65.5109 44.2816 58.493 50.8753C54.6031 54.5226 51.5561 58.5561 50.1946 63.4477C49.6274 65.4645 49.3194 67.567 49.0763 69.641C48.7846 72.0439 48.0229 72.8162 45.2675 72.8735C42.6581 72.9307 40.0324 72.8735 37.423 72.8735H37.4068ZM45.1703 69.5408C45.5755 67.4526 45.8186 65.4645 46.3372 63.5479C47.8121 58.0698 50.8268 53.3498 55.2839 49.2877C62.2046 43.0087 63.9712 35.4853 61.848 27.0894C60.5027 21.7972 56.7426 17.9926 52.1396 14.7458C47.7149 11.6135 42.3339 10.2404 36.8881 10.4406C29.0436 10.7267 22.2202 13.3584 17.1796 19.1226C11.8797 25.1584 11.0207 31.8666 12.7063 39.0181C13.6787 43.1517 16.3044 46.5415 19.5621 49.5738C24.1327 53.8218 26.9852 58.8708 28.4277 64.5634C28.8491 66.1939 29.0598 67.8674 29.384 69.5694H45.1865L45.1703 69.5408Z" fill="url(#paint0_linear_2343_285)"/>
<path d="M48.347 76.3783C47.4556 76.6643 46.6776 77.122 45.8996 77.122C40.1297 77.1792 34.3597 77.1506 28.5898 77.1506C27.6011 77.1506 26.8232 76.8932 26.418 75.8205C26.7745 74.5904 27.8442 74.0612 29.3516 74.0469C34.6677 74.0469 39.9838 74.0469 45.2999 74.0469C46.6614 74.0469 47.6987 74.5189 48.3307 76.364L48.347 76.3783Z" fill="url(#paint1_linear_2343_285)"/>
<path d="M37.3739 78.1949C39.8537 78.1949 42.3497 78.1662 44.8295 78.1949C45.9154 78.2092 46.5313 78.8814 46.5313 79.7396C46.5313 80.5978 45.9154 81.2128 44.8457 81.3129C44.7322 81.3129 44.6188 81.3272 44.5053 81.3272C39.643 81.3272 34.7969 81.3272 29.9346 81.3272C28.8649 81.3272 28.168 80.798 28.0869 79.9112C27.9897 78.8528 28.7028 78.2092 29.9184 78.1949C32.3982 78.1519 34.8942 78.1949 37.3739 78.1949Z" fill="url(#paint2_linear_2343_285)"/>
<path d="M32.1064 84.8022C31.5553 83.2003 32.2036 82.4565 33.5651 82.3993C36.0611 82.2992 38.5571 82.2992 41.0531 82.3993C42.4307 82.4565 43.0466 83.2146 42.4793 84.8022C39.0433 85.1312 35.5424 85.1312 32.1064 84.8022Z" fill="url(#paint3_linear_2343_285)"/>
<path d="M37.3251 5.77809C35.3639 4.63384 34.6184 2.94608 35.5746 1.40135C35.8826 0.915046 36.774 0.443045 37.3899 0.457348C37.9896 0.485954 38.8324 1.02947 39.1079 1.53008C39.8697 2.96038 39.1241 4.50511 37.3413 5.76378L37.3251 5.77809Z" fill="url(#paint4_linear_2343_285)"/>
<path d="M11.8471 9.05371C14.0351 9.39698 15.2669 10.6843 16.0611 12.4149C14.6996 14.117 13.9703 14.26 12.4143 13.1587C10.2911 11.6426 10.1615 10.8416 11.8471 9.05371Z" fill="url(#paint5_linear_2343_285)"/>
<path d="M59.5621 14.3166L57.6982 12.6146C58.3465 10.7123 59.5459 9.78256 60.9074 9.09601C61.4098 8.83856 62.4795 9.0531 62.9982 9.39638C63.3223 9.61092 63.3872 10.655 63.0954 10.9983C62.2364 12.0138 61.1343 12.872 59.5621 14.3166Z" fill="url(#paint6_linear_2343_285)"/>
<path d="M67.0664 30.8231C68.1361 30.4512 68.8979 30.0364 69.6759 29.9792C70.7618 29.8934 71.8963 29.9792 72.966 30.1937C73.3226 30.2652 73.7926 30.9804 73.744 31.3523C73.6791 31.8529 73.2577 32.4679 72.7877 32.7397C71.0049 33.7123 68.9303 33.1115 67.0664 30.8374V30.8231Z" fill="url(#paint7_linear_2343_285)"/>
<path d="M7.24398 31.9243C5.67184 33.612 3.59725 34.2414 1.97648 33.4404C1.42542 33.1686 0.825741 32.3677 0.890572 31.8814C0.955403 31.3951 1.76578 30.7657 2.38168 30.6227C4.22935 30.1793 5.78529 30.6513 7.24398 31.9243Z" fill="url(#paint8_linear_2343_285)"/>
<path d="M59.417 51.9627C60.1463 51.3048 60.6974 50.8185 61.3619 50.2178C62.4965 50.9615 63.2582 51.362 63.8741 51.8912C65.5111 53.2786 65.8514 54.5087 64.879 55.1666C64.0038 55.7674 62.9016 55.4384 61.3943 54.0796C60.8433 53.5933 60.4057 53.0212 59.417 51.9484V51.9627Z" fill="url(#paint9_linear_2343_285)"/>
<path d="M10.0967 54.1944C11.4419 53.0645 12.6251 52.0632 13.9379 50.9619L15.8018 52.2778C15.8018 53.9083 14.6024 54.7236 13.4841 55.5103C12.1064 56.4829 11.4257 56.2111 10.0967 54.1944Z" fill="url(#paint10_linear_2343_285)"/>
<path d="M56.8067 38.7609C57.6495 42.5799 55.348 44.6967 52.0578 46.313C51.0043 53.3501 44.3591 55.753 37.3088 51.2618C29.5777 55.4955 24.4075 53.8364 22.8029 46.9709C21.2146 45.4977 19.6424 44.4393 18.7024 43.0376C17.9568 41.9219 17.973 40.4201 17.5192 38.5607C15.8174 37.4451 13.8725 35.6715 14.1318 33.0397C14.3425 30.88 15.6229 29.0635 17.8434 27.9478C17.4544 24.415 18.9293 21.8976 22.657 20.5818C24.8289 12.7151 30.1126 11.0416 37.2278 16.1192C39.8858 14.4028 42.5601 12.5577 46.3527 13.5017C50.3398 14.503 51.3933 17.1919 51.8633 20.2528C56.3528 22.8845 57.1794 24.1432 56.7904 27.9049C59.0757 29.1207 60.5993 30.9515 60.502 33.4402C60.4048 35.7859 58.9298 37.5595 56.7904 38.7752L56.8067 38.7609ZM27.0331 36.5154C29.5615 36.9015 30.5988 38.4606 31.4092 40.0625C33.111 40.0482 33.1596 39.1185 33.0624 38.2031C32.9003 36.7156 31.5875 35.3854 29.9343 35.0421C28.816 34.8133 27.6976 34.7561 27.0331 36.5154ZM47.7466 36.1006C45.1533 34.5129 43.3381 34.8562 42.0901 36.8014C41.0366 38.432 41.2473 39.1757 43.1274 40.0482C43.7757 38.1459 45.3802 37.016 47.7466 36.1006ZM48.719 30.2077C49.0918 28.3197 47.1307 28.663 46.4661 27.9192C45.753 27.1326 45.2992 26.1456 44.5374 24.9585C44.0188 25.6021 43.5325 25.9597 43.5163 26.3173C43.4839 27.0896 43.5163 27.9335 43.8567 28.6201C44.6184 30.1362 46.1258 30.5796 48.719 30.2077ZM30.534 25.2589C29.9667 25.4448 29.6426 25.4591 29.5777 25.5735C28.8808 26.918 28.3459 28.3197 26.3686 28.7202C26.0769 28.7774 25.9796 29.6499 25.7527 30.2649C27.9083 30.837 29.367 30.1648 30.4692 28.949C31.4254 27.8763 31.5226 26.6176 30.534 25.2589Z" fill="url(#paint11_linear_2343_285)"/>
<defs>
<linearGradient id="paint0_linear_2343_285" x1="8.11951" y1="40.0336" x2="66.5644" y2="40.0336" gradientUnits="userSpaceOnUse">
<stop stop-color="#AE8ABE"/>
<stop offset="1" stop-color="#8390C8"/>
</linearGradient>
<linearGradient id="paint1_linear_2343_285" x1="26.4342" y1="75.6059" x2="48.347" y2="75.6059" gradientUnits="userSpaceOnUse">
<stop stop-color="#AE8ABE"/>
<stop offset="1" stop-color="#8390C8"/>
</linearGradient>
<linearGradient id="paint2_linear_2343_285" x1="28.0869" y1="79.7539" x2="46.5313" y2="79.7539" gradientUnits="userSpaceOnUse">
<stop stop-color="#AE8ABE"/>
<stop offset="1" stop-color="#8390C8"/>
</linearGradient>
<linearGradient id="paint3_linear_2343_285" x1="31.9119" y1="83.6866" x2="42.69" y2="83.6866" gradientUnits="userSpaceOnUse">
<stop stop-color="#AE8ABE"/>
<stop offset="1" stop-color="#8390C8"/>
</linearGradient>
<linearGradient id="paint4_linear_2343_285" x1="35.1694" y1="3.11772" x2="39.3996" y2="3.11772" gradientUnits="userSpaceOnUse">
<stop stop-color="#AE8ABE"/>
<stop offset="1" stop-color="#8390C8"/>
</linearGradient>
<linearGradient id="paint5_linear_2343_285" x1="10.6963" y1="11.4566" x2="16.0611" y2="11.4566" gradientUnits="userSpaceOnUse">
<stop stop-color="#AE8ABE"/>
<stop offset="1" stop-color="#8390C8"/>
</linearGradient>
<linearGradient id="paint6_linear_2343_285" x1="57.6982" y1="11.6563" x2="63.2899" y2="11.6563" gradientUnits="userSpaceOnUse">
<stop stop-color="#AE8ABE"/>
<stop offset="1" stop-color="#8390C8"/>
</linearGradient>
<linearGradient id="paint7_linear_2343_285" x1="67.0664" y1="31.5525" x2="73.7602" y2="31.5525" gradientUnits="userSpaceOnUse">
<stop stop-color="#AE8ABE"/>
<stop offset="1" stop-color="#8390C8"/>
</linearGradient>
<linearGradient id="paint8_linear_2343_285" x1="0.890572" y1="32.1102" x2="7.24398" y2="32.1102" gradientUnits="userSpaceOnUse">
<stop stop-color="#AE8ABE"/>
<stop offset="1" stop-color="#8390C8"/>
</linearGradient>
<linearGradient id="paint9_linear_2343_285" x1="59.417" y1="52.8495" x2="65.4138" y2="52.8495" gradientUnits="userSpaceOnUse">
<stop stop-color="#AE8ABE"/>
<stop offset="1" stop-color="#8390C8"/>
</linearGradient>
<linearGradient id="paint10_linear_2343_285" x1="10.0967" y1="53.4936" x2="15.8018" y2="53.4936" gradientUnits="userSpaceOnUse">
<stop stop-color="#AE8ABE"/>
<stop offset="1" stop-color="#8390C8"/>
</linearGradient>
<linearGradient id="paint11_linear_2343_285" x1="14.1156" y1="33.3973" x2="60.5182" y2="33.3973" gradientUnits="userSpaceOnUse">
<stop stop-color="#AE8ABE"/>
<stop offset="1" stop-color="#8390C8"/>
</linearGradient>
</defs>
</svg>
