<svg width="81" height="76" viewBox="0 0 81 76" fill="none" xmlns="http://www.w3.org/2000/svg">
<path d="M73.4657 43.2097C72.4446 45.3981 71.4073 47.6008 70.2727 49.9894C70.9048 50.633 71.7152 51.3196 72.3797 52.1062C73.7736 53.7368 73.9843 55.0241 72.5094 56.483C70.1755 58.8144 67.6633 61.0027 65.0539 63.091C63.4979 64.3354 62.1041 64.2066 60.4185 63.0767C59.5271 62.476 58.7329 61.7465 57.7442 60.9455C56.8366 61.3031 55.9452 61.6607 55.1024 61.9896C56.6745 67.9397 55.3941 68.6835 50.3535 70.4714C50.3049 70.8862 50.2887 71.3868 50.2076 71.8588C49.7214 74.6908 47.9061 75.835 45.1508 75.6348C42.3307 75.4345 39.4619 75.6062 36.6256 75.5919C32.6547 75.5776 32.0388 75.1342 31.115 71.6299C31.0177 71.2437 30.9691 70.8576 30.8881 70.3998C29.0728 69.6418 26.9658 69.3557 26.0258 67.4248C25.1181 65.6083 25.7502 63.9063 26.2851 62.0898C25.4098 61.6893 24.6319 61.3317 23.7567 60.9169C23.157 61.3317 22.5735 61.6321 22.1359 62.0612C19.2185 64.8217 17.4033 64.0493 15.1504 62.1899C12.4437 59.9586 9.44529 57.8704 7.61382 54.4805C8.69973 53.0788 9.81805 51.6199 11.1471 49.9036C10.1746 47.8868 9.07252 45.6126 7.87315 43.1239C6.80344 42.9666 5.4582 42.8379 4.1778 42.5518C1.58457 41.9654 1.00111 41.3217 0.952483 39.0046C0.90386 36.5016 0.90386 33.9843 0.952483 31.4669C0.984898 28.8066 1.617 28.1057 4.50197 27.5193C5.60409 27.3047 6.73863 27.2332 7.84075 27.1045C8.95908 24.816 10.0774 22.5275 11.1795 20.2962C9.94775 18.7086 8.76455 17.1639 7.5976 15.6477C9.83426 12.0291 12.9786 9.56894 16.2525 7.26615C18.2623 5.85014 19.4779 6.05038 21.4066 7.48068C22.1035 7.99559 22.7356 8.55342 23.5136 9.18275C26.3499 8.18154 29.1538 7.19463 32.3143 6.07899C32.3143 5.1779 32.2657 4.19099 32.3143 3.21838C32.4278 1.31607 33.222 0.357755 35.3776 0.257634C38.8947 0.0859971 42.4279 0.0859971 45.945 0.257634C48.0682 0.357755 49.1217 1.48771 49.4297 3.41862C49.5593 4.30541 49.4459 5.20651 49.4459 6.17912C52.2822 7.22325 54.9727 8.21016 57.7766 9.23998C58.6681 8.53913 59.446 7.82397 60.3374 7.22324C62.1365 5.99318 63.5465 5.89305 65.2484 7.22324C67.6957 9.16846 70.0459 11.2281 72.2663 13.3879C73.9519 15.0327 73.8546 16.0625 72.3473 17.9505C71.699 18.7658 70.9697 19.5239 70.2565 20.3105C70.8562 21.4405 71.4883 22.5132 72.007 23.6145C72.5256 24.7159 72.9146 25.8601 73.3846 26.9901C74.8271 27.2475 76.1723 27.4049 77.469 27.7195C79.7056 28.263 80.3377 28.9067 80.3863 30.8519C80.4512 33.6553 80.4512 36.473 80.3863 39.2907C80.3377 41.3074 79.7542 41.9511 77.5662 42.4946C76.2696 42.8236 74.9243 42.9809 73.4981 43.2383L73.4657 43.2097ZM53.6436 44.2539V49.3457C51.5366 49.9894 49.5593 50.5901 47.7602 51.1479V60.874L49.5269 60.545C49.5269 59.6869 49.6242 58.986 49.5269 58.2995C49.0569 55.2815 50.3535 53.4507 53.3843 51.7486C62.4768 46.6425 65.2808 38.5898 63.4007 30.1224C61.4882 21.5263 50.9856 12.8157 37.6304 14.5607C30.7422 15.4618 25.4747 18.351 21.5524 23.1998C13.9672 32.5969 16.9981 46.0417 28.9431 52.4495C29.8832 52.9644 30.8394 53.465 31.8605 54.0085C31.8605 56.0825 31.8119 57.9848 31.8767 59.8871C31.9091 60.8311 32.525 61.0743 33.5461 60.588V51.1336L27.5979 49.3028V44.168C23.7405 41.4076 23.0597 38.9045 25.3774 36.7161C27.6141 34.6136 30.6125 34.6422 32.8006 36.802C35.0372 39.0046 34.3241 41.4076 30.5801 44.1251V47.3862C31.0339 47.6294 31.3743 47.9298 31.7957 48.0156C37.4846 49.1312 36.5284 49.3601 36.6094 53.9513C36.6256 55.0527 36.6094 56.154 36.6094 57.2696C36.6256 58.4425 36.6742 59.601 36.7066 60.874L39.1053 60.7596V39.3908C38.1815 38.4182 37.436 37.7746 36.8849 37.0308C36.4149 36.3872 35.9449 35.6291 35.8314 34.8853C35.5235 32.9544 36.6904 31.281 38.6678 30.5229C40.7099 29.7505 43.287 30.2512 44.5674 31.6958C45.8802 33.169 46.0261 35.529 44.7132 37.0308C44.0487 37.8032 43.0925 38.3753 42.3145 38.9903V60.874L44.778 60.6309C44.778 57.6415 44.7618 54.8381 44.778 52.0347C44.7942 49.3028 45.0211 49.1026 48.0682 48.3445C49.0082 48.1157 49.9321 47.7867 50.7749 47.5436V44.0965C47.0471 41.4076 46.4475 38.9474 48.8138 36.6446C50.7749 34.728 54.0164 34.7137 56.091 36.616C58.4735 38.8044 57.728 41.3789 53.6923 44.2968L53.6436 44.2539ZM28.8297 55.2386C15.6852 48.6592 12.7192 36.8878 15.4583 28.921C18.7485 19.3522 26.5444 12.5869 40.1751 11.7573C45.2805 11.4426 50.2563 12.9015 54.6972 15.376C59.4622 18.022 62.8982 21.7122 64.989 26.2892C67.0798 30.8662 67.404 35.6434 65.9777 40.4349C63.968 47.186 59.2029 52.0919 52.3957 55.3387C52.4767 57.1266 52.1202 58.6713 52.7198 60.3734C54.7134 59.458 56.3989 58.6999 58.2466 57.8561C59.7864 59.0718 61.2775 60.2447 63.0441 61.6321C64.3894 60.3591 65.6212 59.1863 66.8529 58.0277C68.1334 56.812 69.4299 55.6248 70.759 54.3804C69.2516 52.9644 68.0199 51.7916 66.7881 50.633C68.4899 47.1431 70.1269 43.7819 71.7153 40.5208C73.644 40.4063 75.3133 40.3205 77.3069 40.2061C77.55 36.6732 77.7607 33.3549 77.1934 29.9937L71.6504 29.6075C69.9648 26.1033 68.3926 22.8136 66.8205 19.5239C68.1657 18.2652 69.3813 17.1067 70.4835 16.0768C67.793 13.5881 65.2646 11.2281 62.6713 8.83947L58.4735 12.1864C54.2758 10.6417 50.548 9.26858 46.5123 7.78106V2.68917C42.5252 2.68917 38.9271 2.58903 35.1345 2.76067C35.1345 4.10516 35.1345 5.10637 35.1345 6.09329C35.1183 7.32335 34.47 8.16723 33.1409 8.62493C29.8832 9.74057 26.6255 10.8705 23.0922 12.1006C21.7956 11.0851 20.3045 9.89791 18.8296 8.72506C16.0743 11.1566 13.4648 13.4737 10.7095 15.9052C12.0385 17.2068 13.3676 18.5084 14.5832 19.6955C12.93 23.1282 11.3902 26.3178 9.80187 29.6361C7.9704 29.7649 6.09028 29.9079 3.95087 30.0652C3.74017 33.5552 3.65916 36.7877 4.03193 40.2204C6.17135 40.3634 8.05144 40.4921 9.80187 40.6209C11.4388 44.025 12.9786 47.2289 14.5832 50.5758C13.319 51.8059 11.9737 53.1217 11.0337 54.0514C13.7241 56.6689 16.2201 59.1004 18.7971 61.6035C20.4017 60.3019 21.8928 59.1147 23.3515 57.9276C25.264 58.7572 26.9334 59.4723 28.8297 60.2876V55.2672V55.2386ZM52.5902 63.8061C47.7765 63.2483 31.277 63.4057 28.6676 64.035V67.01C29.64 67.196 30.4991 67.4963 31.3581 67.482C38.3436 67.4391 45.3453 67.7109 52.5739 67.3104V63.7918L52.5902 63.8061ZM34.162 70.1853C34.1296 73.0173 34.47 73.4464 36.9335 73.5179C39.4295 73.5894 41.9417 73.5894 44.4377 73.5179C47.1768 73.4321 47.4847 72.9744 46.9012 70.1853H34.162ZM54.6647 39.5481C54.1623 38.5898 53.7895 37.417 52.1526 37.7031C51.0991 37.889 50.3535 38.5612 50.3535 39.591C50.3535 40.6209 51.1153 41.3074 52.1363 41.4934C53.7247 41.7937 54.2271 40.6924 54.681 39.5481H54.6647ZM28.8945 41.5077C30.0128 41.5649 30.9853 40.7067 31.0177 39.6197C31.0663 38.5326 30.3856 37.9319 29.2835 37.7174C28.1814 37.5028 27.0955 38.361 27.0144 39.4194C26.9172 40.5494 27.7114 41.4362 28.8945 41.5077ZM42.6387 34.5278C42.6387 33.4693 42.1038 32.8257 40.9044 32.697C39.6078 32.5683 38.7002 33.2548 38.6678 34.3704C38.6353 35.529 39.3971 36.1869 40.7423 36.1726C41.9903 36.1583 42.5576 35.5576 42.6387 34.5278Z" fill="url(#paint0_linear_2406_10)"/>
<defs>
<linearGradient id="paint0_linear_2406_10" x1="0.920068" y1="37.889" x2="80.3863" y2="37.889" gradientUnits="userSpaceOnUse">
<stop stop-color="#AE8ABE"/>
<stop offset="1" stop-color="#8390C8"/>
</linearGradient>
</defs>
</svg>
