<svg width="87" height="78" viewBox="0 0 87 78" fill="none" xmlns="http://www.w3.org/2000/svg">
<path d="M32.0157 65.7075C32.6478 63.6335 33.28 61.531 33.9607 59.314C30.3626 57.9552 26.1324 60.1436 22.8584 57.6549C23.604 56.0243 24.9168 55.8813 26.3106 55.8813C28.3528 55.8813 30.4112 55.7812 32.4533 55.9099C34.5117 56.0386 35.9866 55.4665 37.0077 53.65C32.3723 52.9062 27.5424 54.265 23.0853 52.6917C23.0691 50.6464 24.3333 50.4604 25.792 50.4604C29.4387 50.4604 33.0692 50.4604 36.716 50.4604C37.8505 50.4604 38.9688 50.4604 40.1034 50.4604C41.7079 48.601 43.2153 46.8704 44.9981 44.825C43.9932 44.6963 43.2963 44.5247 42.5994 44.5247C37.1374 44.496 31.6754 44.5247 26.2134 44.5103C24.9978 44.5103 23.6202 44.7249 23.1177 43.2374C23.4095 41.9358 24.5602 41.9215 25.7271 41.9215C29.147 41.9215 32.5506 41.9215 35.9704 41.9215C38.9202 41.9215 41.8862 41.8214 44.836 41.9501C47.0403 42.0502 48.5476 41.3923 49.5525 39.3326C48.661 39.2325 47.8345 39.0609 47.0241 39.0609C40.2006 39.0323 33.3772 39.0609 26.5537 39.0323C25.2571 39.0323 23.7336 39.3899 23.1339 37.8165C23.3122 36.801 24.1064 36.5006 25.0788 36.4863C26.4403 36.4577 27.8017 36.472 29.1794 36.472C36.797 36.472 44.4146 36.472 52.3402 36.472C54.6093 33.9833 56.9594 31.4374 59.2771 28.8628C60.833 27.1464 62.4376 25.4444 63.8638 23.6422C65.4522 21.6112 67.3809 19.8519 68.5154 17.4347C69.5041 15.3321 71.2707 13.3583 73.8316 12.1854C74.6581 11.7993 75.1444 10.8409 75.8251 10.183C76.6355 9.41064 77.689 8.69549 78.7911 9.38204C81.1574 10.8553 83.8642 12.0567 85.3715 14.5884C84.4476 15.7755 83.5724 16.9198 82.5999 18.1784C83.9127 19.1939 85.1608 20.1665 86.5708 21.2536C86.1332 22.0259 85.8901 22.8269 85.339 23.399C81.4978 27.3038 78.4994 31.8378 73.7019 35.7283L72.1622 34.1978C72.8105 33.2538 73.1833 32.5387 73.7181 31.9237C76.3438 28.9057 79.0181 25.9164 81.6761 22.9127C82.1623 22.3692 82.7782 21.8114 81.8868 21.1392C81.6599 21.1535 81.3519 21.1105 81.2385 21.2107C77.4945 24.6005 73.5074 27.7329 70.2497 31.5661C62.162 41.1062 53.7989 50.4747 45.4519 59.8432C44.366 61.0733 42.81 62.0173 41.3189 62.9041C39.2606 64.1484 37.0563 65.2069 34.9169 66.3511C33.9283 66.866 33.0044 67.0091 31.9995 65.7075H32.0157ZM76.749 21.9115L78.8559 19.2941L73.394 15.9185C72.6484 16.7481 72.1135 17.3488 71.449 18.0926L76.7651 21.9115H76.749ZM36.1325 62.7897C37.9802 61.7598 39.1957 61.0876 40.6869 60.258C39.5847 59.5858 38.7095 59.0566 37.6884 58.4415C37.186 59.8289 36.7808 60.9589 36.1163 62.7897H36.1325Z" fill="url(#paint0_linear_2343_161)"/>
<path d="M0.686438 0.885681H4.18726C17.04 0.885681 29.8927 0.928592 42.7454 0.842773C44.9658 0.842773 46.5704 1.37199 48.1263 2.8023C52.6969 7.0074 57.4133 11.0695 62.0649 15.203C64.3664 17.2484 64.3502 17.2627 63.7343 20.5667C61.7084 21.9255 61.3842 20.1233 60.59 19.0935C56.0357 19.0935 51.4975 19.1078 46.9431 19.0935C43.7178 19.0792 43.4585 18.836 43.4261 16.004C43.3937 12.7858 43.4261 9.58194 43.4261 6.36375C43.4261 5.49127 43.3288 4.60447 43.264 3.58896H3.70104C3.11757 5.94896 2.92307 69.6262 3.44172 74.0601C5.82425 74.6322 56.9595 74.761 61.0763 74.1746C61.1249 73.2449 61.2221 72.2579 61.2221 71.2853C61.2221 63.9622 61.2221 56.6247 61.2221 49.3015C61.2221 48.6007 61.1897 47.8855 61.2707 47.199C61.4004 46.1692 62.0163 45.5684 63.5399 45.7258C63.7343 46.1978 64.1233 46.727 64.1233 47.2562C64.1557 56.6962 64.1395 66.1219 64.1233 75.562C64.1233 75.9481 63.9613 76.32 63.8964 76.649C61.2708 77.2211 4.56004 77.3355 0.848476 76.8063C0.232584 74.7038 0.0218896 5.39115 0.702612 0.914293L0.686438 0.885681Z" fill="url(#paint1_linear_2343_161)"/>
<path d="M23.3125 24.2708C22.7776 23.1265 23.3611 22.5258 24.285 22.2397C24.9009 22.0395 25.6302 22.0824 26.2947 22.0824C34.8037 22.0824 43.3128 22.0824 51.8218 22.0824C52.5025 22.0824 53.2157 22.0252 53.8478 22.1968C54.9661 22.4972 55.501 23.1694 54.9823 24.2136C52.4701 24.7428 33.0209 25.0145 25.0791 24.6283C24.447 24.5997 23.8149 24.3709 23.2963 24.2708H23.3125Z" fill="url(#paint2_linear_2343_161)"/>
<path d="M23.0049 28.8196C24.1556 27.4751 25.6629 27.5467 27.1378 27.5467C47.5433 27.6325 44.8366 27.1462 46.9436 28.6909C47.0247 30.1212 45.9874 30.4931 44.5935 30.5074C42.7783 30.5217 40.963 30.5074 39.1316 30.5074C34.7069 30.5074 30.2659 30.5074 25.8412 30.5074C24.5446 30.5074 23.2804 30.4502 23.0049 28.791V28.8196Z" fill="url(#paint3_linear_2343_161)"/>
<path d="M13.3124 57.2967C11.9509 56.3384 10.9299 55.7233 10.0546 54.9796C8.9039 53.9784 9.06594 53.063 10.7191 52.3192L12.9396 53.349C15.0304 52.0475 15.6949 49.573 18.2881 48.7148C19.4551 49.2441 20.1358 49.9449 19.1795 51.0319C17.3805 53.0487 15.4842 54.9939 13.3124 57.2967Z" fill="url(#paint4_linear_2343_161)"/>
<path d="M17.8339 20.1943C19.714 20.9667 19.7626 21.7677 19.0332 22.6402C17.3152 24.7284 15.662 26.8882 13.3768 28.5616C11.4643 28.1039 10.1838 27.1456 9.47071 25.7296C9.26001 25.3005 9.85971 24.5568 10.1515 23.7701C11.2698 24.2421 12.0478 24.5711 12.9392 24.9573C14.5437 23.3839 16.1807 21.7963 17.8177 20.1943H17.8339Z" fill="url(#paint5_linear_2343_161)"/>
<path d="M10.2817 38.2023C11.4648 38.7601 12.2266 39.1177 12.9559 39.461L17.8831 34.5693C18.6286 35.1129 19.1311 35.4561 19.7308 35.8995C18.0452 38.66 15.922 40.9342 13.426 43.0654C11.4324 42.5647 10.071 41.5778 9.40645 40.0045C9.24438 39.6326 9.86027 39.0033 10.2655 38.2023H10.2817Z" fill="url(#paint6_linear_2343_161)"/>
<defs>
<linearGradient id="paint0_linear_2343_161" x1="22.8584" y1="37.9023" x2="86.5708" y2="37.9023" gradientUnits="userSpaceOnUse">
<stop stop-color="#AE8ABE"/>
<stop offset="1" stop-color="#8390C8"/>
</linearGradient>
<linearGradient id="paint1_linear_2343_161" x1="0.265003" y1="38.989" x2="64.1395" y2="38.989" gradientUnits="userSpaceOnUse">
<stop stop-color="#AE8ABE"/>
<stop offset="1" stop-color="#8390C8"/>
</linearGradient>
<linearGradient id="paint2_linear_2343_161" x1="23.118" y1="23.4412" x2="55.193" y2="23.4412" gradientUnits="userSpaceOnUse">
<stop stop-color="#AE8ABE"/>
<stop offset="1" stop-color="#8390C8"/>
</linearGradient>
<linearGradient id="paint3_linear_2343_161" x1="23.0049" y1="29.0485" x2="46.9598" y2="29.0485" gradientUnits="userSpaceOnUse">
<stop stop-color="#AE8ABE"/>
<stop offset="1" stop-color="#8390C8"/>
</linearGradient>
<linearGradient id="paint4_linear_2343_161" x1="9.32529" y1="53.0058" x2="19.6334" y2="53.0058" gradientUnits="userSpaceOnUse">
<stop stop-color="#AE8ABE"/>
<stop offset="1" stop-color="#8390C8"/>
</linearGradient>
<linearGradient id="paint5_linear_2343_161" x1="9.43829" y1="24.3851" x2="19.4708" y2="24.3851" gradientUnits="userSpaceOnUse">
<stop stop-color="#AE8ABE"/>
<stop offset="1" stop-color="#8390C8"/>
</linearGradient>
<linearGradient id="paint6_linear_2343_161" x1="9.40645" y1="38.8173" x2="19.747" y2="38.8173" gradientUnits="userSpaceOnUse">
<stop stop-color="#AE8ABE"/>
<stop offset="1" stop-color="#8390C8"/>
</linearGradient>
</defs>
</svg>
