<svg width="106" height="76" viewBox="0 0 106 76" fill="none" xmlns="http://www.w3.org/2000/svg">
<path d="M100.112 61.3747C101.182 61.4319 101.943 61.4605 102.705 61.5177C104.958 61.6893 105.574 62.1756 105.396 64.1351C104.99 68.8551 102.786 72.4023 97.3241 74.3332C95.3792 75.0198 93.1587 75.3917 91.0517 75.3917C65.5732 75.4632 40.0785 75.4346 14.6 75.4346C9.51083 75.4346 5.37787 73.8469 2.39565 70.0137C0.46694 67.5393 0.612831 64.9647 1.05044 61.9754L5.55617 61.2173C5.55617 60.1446 5.55617 59.0575 5.55617 57.9848C5.55617 41.3218 5.55614 24.6587 5.57235 7.99564C5.57235 6.80848 5.57236 5.52122 6.09101 4.4771C7.25796 2.08849 9.54326 0.844102 12.4931 0.615253C12.9469 0.586647 13.4007 0.615253 13.8545 0.615253C39.7868 0.615253 65.7353 0.615259 91.6676 0.643865C92.9967 0.643865 94.3905 0.829818 95.6385 1.216C98.5559 2.10279 99.7877 4.17672 100.047 6.76557C100.144 7.66666 100.079 8.56776 100.079 9.46885C100.079 25.6313 100.079 41.7938 100.079 57.9562C100.079 59.0433 100.079 60.116 100.079 61.3747H100.112ZM96.3354 61.4319C96.4164 60.7024 96.4975 60.3019 96.4975 59.9157C96.4975 42.6376 96.5137 25.3596 96.4975 8.09577C96.4975 4.992 95.1523 3.86205 91.4407 3.86205C65.8326 3.84775 40.2244 3.89067 14.6163 3.80485C10.8075 3.80485 9.21909 5.70716 9.2353 8.52486C9.34875 25.5026 9.28394 42.466 9.30015 59.4437C9.30015 60.116 9.49463 60.7739 9.59187 61.4319H96.3516H96.3354ZM101.182 65.4081C100.468 65.3223 100.047 65.2222 99.6094 65.2222C68.1016 65.2365 36.5939 65.2651 5.10236 65.308C5.02132 65.308 4.90786 65.4224 4.84303 65.4939C4.7782 65.5654 4.72955 65.6513 4.66472 65.7228C6.44757 70.1853 8.95977 71.8016 14.1948 71.8159C40.0137 71.8159 65.8326 71.8159 91.6514 71.8159C92.3321 71.8159 93.0291 71.8445 93.6936 71.7873C97.1945 71.4869 100.258 68.9553 101.182 65.4224V65.4081Z" fill="url(#paint0_linear_2343_433)"/>
<path d="M31.488 22.427C30.6776 21.5688 29.9321 20.8251 29.2189 20.0527C27.7764 18.508 27.6954 17.7928 29.2189 16.4197C31.2611 14.546 33.4167 12.7868 35.7992 10.7557C37.42 11.7999 38.9435 12.7868 40.6129 13.8595C42.2499 13.2445 44.0003 12.5722 45.6535 11.9429L46.7718 6.85098C47.955 6.62213 49.1057 6.29317 50.3051 6.20735C51.8934 6.09293 53.4818 6.16446 55.0702 6.17876C58.2469 6.22167 58.8628 6.73658 59.0897 9.43986C59.1545 10.1264 59.2193 10.8272 59.3004 11.7283L64.7786 13.602C65.7835 12.844 66.7073 12.1288 67.6636 11.4566C68.6522 10.7557 69.7867 10.5412 70.7592 11.3565C73.1255 13.3446 75.3946 15.4185 77.9068 17.6355C76.594 19.1802 75.4594 20.5104 74.3411 21.8263C75.1029 23.3424 75.8322 24.787 76.6264 26.3604C77.6313 26.4462 78.6361 26.5177 79.6248 26.6178C82.1046 26.8467 82.8825 27.4903 82.9636 29.5929C83.0284 31.4952 83.0446 33.4118 82.9636 35.3141C82.8825 37.2736 82.1046 37.9458 79.8517 38.1604C78.8468 38.2605 77.842 38.2891 76.756 38.3606C76.0429 39.9054 75.3622 41.3643 74.6652 42.8804C75.8484 44.2821 76.9829 45.6409 78.2634 47.1427C75.9619 50.0033 72.8662 52.0057 70.0299 54.6661C68.3443 53.5648 66.8207 52.5779 65.2 51.5195C63.5306 52.1774 61.7963 52.8782 59.8838 53.6363C59.8352 54.5946 59.819 55.5815 59.7056 56.5684C59.4949 58.4135 58.7655 59.1001 56.7234 59.1716C54.3408 59.2574 51.9421 59.2002 49.5595 59.1859C48.2467 59.1859 47.4364 58.6424 47.1932 57.4552C46.9339 56.1822 46.626 54.9236 46.3342 53.5934L41.5205 51.7054C39.916 52.7924 38.3924 53.8222 36.7879 54.9236C33.1898 53.2072 30.9855 50.3895 27.9871 47.8436L31.5366 43.567C30.8073 42.0794 30.0617 40.549 29.2513 38.9041C28.1654 38.8612 27.1443 38.8326 26.1394 38.7611C24 38.6038 23.0762 38.0603 22.9141 36.3153C22.7034 34.1269 22.7682 31.91 22.9141 29.7073C22.9951 28.3628 24.0972 27.5761 25.5884 27.3616C26.7067 27.2043 27.8412 27.1613 29.0892 27.0612C29.8186 25.6309 30.5641 24.1863 31.4555 22.427H31.488ZM50.2078 9.85463C49.9647 10.8988 49.8513 11.7855 49.5433 12.6008C49.2678 13.316 48.9437 14.2886 48.3116 14.5603C45.5887 15.7332 42.7523 16.6915 39.9646 17.7213C39.1866 17.1778 38.5869 16.7344 37.9548 16.3196C37.3389 15.9191 36.6906 15.5472 35.864 15.0323C34.616 16.148 33.4815 17.1635 32.3632 18.1504C34.4594 20.5438 34.9294 23.1183 33.7733 25.8741C33.6922 26.06 33.5787 26.2459 33.5301 26.4319C32.9953 29.3354 31.2773 30.9087 27.744 30.494C27.5819 30.4797 27.3712 30.6799 27.047 30.8658C26.9984 31.4666 26.9012 32.1531 26.9174 32.8397C26.9336 33.5119 27.0795 34.1841 27.1605 34.8135C28.9758 35.214 30.6127 35.5715 32.0714 35.9005C33.3194 38.2319 34.4702 40.406 35.6209 42.5657C36.1234 43.5097 35.8316 44.3107 35.1023 45.0545C34.4053 45.7839 33.7246 46.542 33.0439 47.2857C34.4053 48.4729 35.5237 49.4455 36.7555 50.5325C37.7279 49.9318 38.668 49.2024 39.7701 48.7447C40.5156 48.43 41.5692 48.2583 42.3147 48.4872C44.8755 49.2453 47.3715 50.2036 49.9485 51.1047C50.3537 52.535 50.7427 53.951 51.1317 55.3384H56.0264C56.0912 54.2513 55.9454 53.293 56.2533 52.4778C56.5451 51.6911 57.161 50.7471 57.9389 50.4181C60.4673 49.3597 63.1416 48.5587 65.7835 47.6433C67.2422 48.5015 68.636 49.3168 70.0461 50.1463C70.7754 49.5599 71.3913 49.1022 71.9261 48.6016C72.4448 48.101 72.8824 47.5432 73.628 46.6993C69.5761 44.5109 71.0509 41.9793 72.2341 38.9041C73.3848 35.9291 75.0218 34.6132 78.3282 34.4702C78.6199 34.4702 78.9117 34.2414 79.1548 34.1269V29.8789C77.8258 29.8217 76.7074 29.7788 75.5891 29.7216C74.4708 29.6644 73.6604 29.2496 73.2066 28.3056C72.1044 26.0171 71.0023 23.7286 69.8516 21.3686C70.824 20.1242 71.7641 18.9085 72.6231 17.8071L69.3167 14.6033C68.3605 15.1754 67.5339 15.5473 66.8856 16.0765C65.3945 17.3208 63.952 17.2207 62.2501 16.4054C60.8725 15.7332 59.3652 15.204 57.8417 14.8464C56.2857 14.4888 55.524 13.8309 55.4429 12.372C55.3943 11.5281 54.9891 10.7128 54.746 9.85463H50.2403H50.2078Z" fill="url(#paint1_linear_2343_433)"/>
<path d="M52.8505 70.1286C50.1276 70.1286 47.4047 70.1286 44.6818 70.1286C44.0011 70.1286 43.1907 70.2287 42.6883 69.9426C42.1048 69.5993 41.4727 68.8699 41.5051 68.3264C41.5213 67.8544 42.3641 67.2966 42.9638 66.9962C43.4014 66.7816 44.0659 66.9104 44.6332 66.9104C50.079 66.9104 55.5248 66.9104 60.9706 66.9104C61.1975 66.9104 61.4243 66.9104 61.6512 66.9104C63.5313 66.9819 64.4066 67.4825 64.4228 68.4694C64.4228 69.4563 63.499 70.0857 61.6837 70.1143C58.7339 70.1715 55.7841 70.1143 52.8343 70.1286H52.8505Z" fill="url(#paint2_linear_2343_433)"/>
<path d="M52.6719 44.8543C45.9944 45.3835 38.8467 39.1187 38.9116 32.5393C38.9764 26.7609 45.4271 20.1529 53.0123 20.4532C60.4678 20.7536 67.3723 26.3032 67.0805 32.6967C66.7078 40.6635 58.9767 45.3978 52.6719 44.8543ZM62.9962 32.6967C63.3366 27.9623 58.1501 23.7715 52.834 23.7429C47.6151 23.7286 42.8176 27.9194 42.7204 32.5393C42.6231 37.3738 47.5665 41.6647 53.1905 41.6218C58.5553 41.5789 62.9962 37.5311 62.9962 32.6967Z" fill="url(#paint3_linear_2343_433)"/>
<defs>
<linearGradient id="paint0_linear_2343_433" x1="0.807316" y1="38.0321" x2="105.428" y2="38.0321" gradientUnits="userSpaceOnUse">
<stop stop-color="#AE8ABE"/>
<stop offset="1" stop-color="#8390C8"/>
</linearGradient>
<linearGradient id="paint1_linear_2343_433" x1="22.8169" y1="32.668" x2="83.0446" y2="32.668" gradientUnits="userSpaceOnUse">
<stop stop-color="#AE8ABE"/>
<stop offset="1" stop-color="#8390C8"/>
</linearGradient>
<linearGradient id="paint2_linear_2343_433" x1="41.5051" y1="68.5123" x2="64.439" y2="68.5123" gradientUnits="userSpaceOnUse">
<stop stop-color="#AE8ABE"/>
<stop offset="1" stop-color="#8390C8"/>
</linearGradient>
<linearGradient id="paint3_linear_2343_433" x1="38.9116" y1="32.668" x2="67.0968" y2="32.668" gradientUnits="userSpaceOnUse">
<stop stop-color="#AE8ABE"/>
<stop offset="1" stop-color="#8390C8"/>
</linearGradient>
</defs>
</svg>
