<svg width="90" height="97" viewBox="0 0 90 97" fill="none" xmlns="http://www.w3.org/2000/svg">
<g clip-path="url(#clip0_2343_9)">
<path d="M60.7209 87.4099C52.7271 87.8086 44.5474 87.2304 36.7627 85.1568C32.8355 84.1998 29.1407 82.6446 25.5853 80.91C23.889 79.933 22.0997 79.0358 20.566 77.8793C19.7759 77.3211 18.9393 76.7827 18.1957 76.1846L16.0114 74.3104C10.1787 69.3258 6.41416 62.4869 5.25227 55.5085C4.09038 48.4902 5.20579 41.4121 7.87814 34.7926C8.20347 33.9751 9.50479 33.6362 10.6899 34.0948C11.8518 34.5533 12.5489 35.4306 12.2468 36.1484C9.80688 42.1299 8.78441 48.7096 9.85335 54.9303C10.9223 61.1511 14.1291 67.0528 19.3576 71.539L21.3096 73.2138C21.9835 73.7521 22.7271 74.2107 23.4475 74.7291C24.8185 75.7858 26.4451 76.5833 27.9788 77.4606C31.1857 79.0158 34.5319 80.4314 38.1338 81.3087C45.2445 83.2228 52.8898 83.7612 60.4188 83.4023C61.3251 83.3424 62.1616 84.1998 62.2546 85.2964C62.3708 86.393 61.6736 87.3301 60.6977 87.3899L60.7209 87.4099Z" fill="#AE8ABE"/>
<path d="M69.3194 96.6613C69.7609 96.5018 70.2256 96.2824 70.6672 96.0232L87.7702 85.4559C88.6532 84.8976 89.2574 84.2995 89.6292 83.6415C90.001 83.0035 90.1172 82.3256 89.9778 81.5879C89.8383 80.8302 89.4665 80.2121 88.8856 79.6937C88.3046 79.1953 87.4913 78.8165 86.4456 78.5573L66.2752 73.2337C65.8802 73.1141 65.5316 73.0343 65.2063 72.9745C64.8809 72.9147 64.6021 72.8948 64.3929 72.9147C63.7888 72.9745 63.324 73.2337 62.9522 73.6724C62.5804 74.111 62.4177 74.6294 62.4874 75.2674C62.5339 75.726 62.7431 76.1447 63.0916 76.5036C63.4402 76.8625 63.905 77.1616 64.4859 77.4008C67.135 78.3778 70.5277 79.0956 73.6416 79.933L83.1226 82.3655L83.1923 82.7642L75.1288 87.689C72.3868 89.324 69.97 90.9988 66.7167 92.6138C66.0661 92.9527 65.5781 93.3316 65.2295 93.7503C64.8809 94.169 64.7415 94.6076 64.788 95.1061C64.8577 95.7042 65.2063 96.1827 65.8802 96.5416C66.5541 96.9005 67.3209 97.0202 68.1807 96.9205C68.506 96.8806 68.8778 96.7809 69.3194 96.6214V96.6613Z" fill="#AE8ABE"/>
<path d="M29.2797 9.57111C37.2735 9.17235 45.4533 9.75056 53.2379 11.8241C57.1651 12.7812 60.8599 14.3364 64.4153 16.071C66.1117 17.048 67.901 17.9452 69.4347 19.1016C70.2247 19.6599 71.0613 20.1982 71.8049 20.7964L73.9893 22.6706C79.822 27.6552 83.5865 34.494 84.7484 41.4724C85.9103 48.4907 84.7948 55.5689 82.1225 62.1884C81.7972 63.0059 80.4959 63.3448 79.3107 62.8862C78.1488 62.4276 77.4517 61.5504 77.7538 60.8326C80.1938 54.8511 81.2162 48.2714 80.1473 42.0507C79.0784 35.8299 75.8715 29.9282 70.643 25.442L68.6911 23.7672C68.0172 23.2289 67.2735 22.7703 66.5532 22.2519C65.1821 21.1952 63.5555 20.3976 62.0218 19.5203C58.815 17.9652 55.4687 16.5495 51.8669 15.6722C44.7561 13.7582 37.1109 13.2198 29.5818 13.5787C28.6756 13.6385 27.839 12.7812 27.746 11.6846C27.6299 10.588 28.327 9.65087 29.303 9.59105L29.2797 9.57111Z" fill="#AE8ABE"/>
<path d="M20.7047 0.319728C20.2632 0.479235 19.7984 0.698556 19.3569 0.957755L2.25389 11.5251C1.37085 12.0833 0.766668 12.6815 0.394863 13.3395C0.0230583 13.9575 -0.0931308 14.6355 0.0462961 15.3732C0.185723 16.1308 0.557528 16.7489 1.13847 17.2673C1.71942 17.7658 2.53274 18.1446 3.57844 18.4038L23.7489 23.7273C24.1439 23.847 24.4925 23.9267 24.8178 23.9865C25.1431 24.0463 25.422 24.0663 25.6311 24.0463C26.2353 23.9865 26.7001 23.7273 27.0719 23.2887C27.4437 22.85 27.6063 22.3317 27.5366 21.6936C27.4901 21.235 27.281 20.8163 26.9324 20.4574C26.5839 20.0986 26.1191 19.7995 25.5382 19.5602C22.8891 18.5832 19.4963 17.8655 16.3825 17.0281L6.90145 14.5956L6.83173 14.1968L14.8953 9.27204C17.6373 7.6371 20.054 5.96228 23.3073 4.34727C23.958 4.00832 24.446 3.62949 24.7946 3.21079C25.1431 2.79208 25.2825 2.35344 25.2361 1.85498C25.1664 1.25683 24.8178 0.77831 24.1439 0.41942C23.47 0.0605295 22.7032 -0.0591004 21.8434 0.0405912C21.518 0.0804679 21.1462 0.18016 20.7047 0.339666V0.319728Z" fill="#AE8ABE"/>
<path d="M43.9424 66.7338C41.6186 66.7338 39.3645 66.4347 37.1802 65.8366C34.9958 65.2384 33.1368 64.3811 31.6263 63.2446C30.5341 62.4869 29.7208 61.6694 29.1399 60.832C28.5589 59.9946 28.2568 59.1572 28.2568 58.3597C28.2568 57.2631 28.6751 56.3858 29.5117 55.7079C30.3482 55.0499 31.4172 54.711 32.7417 54.711C33.3924 54.711 34.0198 54.8505 34.6008 55.1097C35.1817 55.3689 35.8556 55.8674 36.6457 56.5652C37.854 57.7017 39.0392 58.4793 40.2011 58.9379C41.363 59.3765 42.7107 59.6158 44.2677 59.6158C45.8943 59.6158 47.2421 59.4364 48.3343 59.0974C49.4265 58.7584 50.2166 58.2799 50.751 57.6818C51.2855 57.0836 51.5411 56.4456 51.5411 55.7278C51.5411 54.9702 51.1925 54.3122 50.4954 53.7938C49.7983 53.2754 48.9152 52.8168 47.8463 52.4779C46.7774 52.119 45.2901 51.7202 43.4079 51.2616C40.5496 50.504 38.1794 49.7663 36.3204 49.0684C34.4613 48.3706 32.8579 47.3537 31.5334 45.9979C30.2088 44.6421 29.5349 42.9075 29.5349 40.7342C29.5349 38.7005 30.1623 36.8662 31.3939 35.2312C32.6255 33.5763 34.4381 32.2803 36.8083 31.3034C39.1786 30.3264 41.9671 29.8279 45.174 29.8279C47.5442 29.8279 49.775 30.1469 51.8897 30.8049C54.0043 31.4429 55.7472 32.3202 57.1414 33.4168C58.1174 34.1745 58.861 34.9521 59.3722 35.7496C59.9067 36.5471 60.1623 37.3247 60.1623 38.0824C60.1623 39.1391 59.7673 40.0164 58.954 40.6943C58.1406 41.3722 57.0485 41.7112 55.7007 41.7112C55.0035 41.7112 54.3529 41.5716 53.7719 41.2925C53.191 41.0133 52.5171 40.5149 51.727 39.817C50.6116 38.7603 49.5194 38.0226 48.497 37.6039C47.4745 37.1852 46.2429 36.9858 44.8022 36.9858C43.5241 36.9858 42.4551 37.1453 41.5721 37.4244C40.6891 37.7235 40.0384 38.1422 39.5969 38.6606C39.1554 39.1989 38.923 39.7572 38.923 40.3554C38.923 41.113 39.2716 41.771 39.9919 42.2894C40.7123 42.8078 41.5953 43.2664 42.641 43.6053C43.6867 43.9642 45.1507 44.363 47.0562 44.8216C49.9609 45.5792 52.3312 46.3169 54.2135 47.0148C56.0725 47.7126 57.6527 48.7295 58.9772 50.0853C60.3018 51.4411 60.9524 53.1757 60.9524 55.349C60.9524 57.5223 60.3018 59.3965 59.0004 61.1311C57.6991 62.8657 55.7704 64.2216 53.191 65.2185C50.6116 66.2154 47.5442 66.7138 43.9888 66.7138L43.9424 66.7338ZM40.387 29.0902C40.387 28.0335 40.8517 27.1362 41.758 26.4185C42.6643 25.7007 43.7797 25.3418 45.1042 25.3418C45.9176 25.3418 46.6844 25.5013 47.4048 25.8403C48.1252 26.1792 48.6829 26.6179 49.1244 27.1761C49.5427 27.7344 49.775 28.3724 49.775 29.0703V32.5595L40.4102 32.6193V29.0703L40.387 29.0902ZM45.1042 71.2C44.2444 71.2 43.4776 71.0405 42.7572 70.7215C42.0369 70.4024 41.4791 69.9638 41.0376 69.4055C40.6193 68.8473 40.387 68.2292 40.387 67.5712V63.3841H49.7518V67.4715C49.7518 68.5282 49.287 69.4255 48.3808 70.1432C47.4745 70.861 46.3823 71.2199 45.1042 71.2199V71.2Z" fill="url(#paint0_linear_2343_9)"/>
</g>
<defs>
<linearGradient id="paint0_linear_2343_9" x1="28.2568" y1="48.2908" x2="60.9059" y2="48.2908" gradientUnits="userSpaceOnUse">
<stop stop-color="#AE8ABE"/>
<stop offset="1" stop-color="#8390C8"/>
</linearGradient>
<clipPath id="clip0_2343_9">
<rect width="90" height="97" fill="white"/>
</clipPath>
</defs>
</svg>
