<svg width="106" height="116" viewBox="0 0 106 116" fill="none" xmlns="http://www.w3.org/2000/svg">
<path d="M20.1773 53.6031C21.1468 61.6887 23.7004 68.8996 30.6049 73.959C34.5536 76.8433 37.2966 80.4605 37.5094 85.6618C37.5567 87.0567 38.5025 88.4043 39.2118 90.2247C49.1429 87.695 58.3647 85.4254 67.5391 82.9193C68.7923 82.5647 69.8798 81.1698 70.802 80.0823C72.3153 78.3091 73.3085 75.874 75.1292 74.5973C81.5844 70.0817 85.013 64.1711 86.4317 56.3692C88.8672 43.0587 83.0976 32.0179 72.1498 25.1144C63.1882 19.4639 53.4227 18.8729 43.4916 21.4735C29.5172 25.1144 18.2857 38.0703 20.1773 53.5795V53.6031ZM51.4601 25.209C59.5232 24.9489 66.6879 26.6984 73.0012 31.947C80.4258 38.0939 82.9085 45.9194 81.6553 55.2344C80.8277 61.3577 78.0376 66.2989 73.0957 70.058C71.5351 71.2638 70.1164 72.7296 68.8632 74.2427C65.2455 78.5455 65.2927 78.5692 59.8779 79.8458C54.3685 81.1698 48.8591 82.5174 42.8768 83.9596C42.4749 83.1321 41.9784 82.5647 41.9074 81.95C41.1508 76.2759 37.4148 72.5404 33.2059 69.467C27.9567 65.6369 25.9704 60.2938 25.3557 54.3833C23.6768 38.5667 35.4758 25.7054 51.4601 25.1617V25.209Z" fill="url(#paint0_linear_2343_1064)"/>
<path d="M66.0502 104.716C67.4689 103.983 68.8166 103.558 69.786 102.683C70.3772 102.139 70.7791 100.768 70.519 100.059C70.2353 99.326 69.1004 98.8532 68.2255 98.4749C67.8708 98.3094 67.2797 98.664 66.7832 98.7822C58.0107 101.028 49.2383 103.227 40.4895 105.544C38.2196 106.135 37.8648 107.837 38.7396 110.178C41.1751 110.39 43.0904 111.454 45.1476 113.062C52.0284 118.429 64.7497 116.206 66.0502 104.716Z" fill="url(#paint1_linear_2343_1064)"/>
<path d="M41.6951 100.107C42.0261 100.012 42.3099 99.7997 42.641 99.7287C46.0459 98.8776 49.4745 98.0974 52.9031 97.2227C58.1051 95.8751 63.2833 94.4802 68.4617 93.1326C69.975 92.7307 70.9208 91.8796 70.708 90.2955C70.4952 88.6879 69.3129 88.1205 67.5868 88.1914C67.3031 88.2387 66.7829 88.3332 66.31 88.4515C58.2233 90.6029 50.1129 92.7543 42.0262 94.9057C41.3877 95.0712 40.702 95.1658 40.0872 95.4259C38.6449 95.9933 37.8883 97.1281 38.4085 98.6176C38.9287 100.083 40.2055 100.509 41.7188 100.131L41.6951 100.107Z" fill="url(#paint2_linear_2343_1064)"/>
<path d="M20.7445 87.956C23.2982 85.5445 25.7338 82.9912 28.8077 79.8941C27.1525 78.6411 26.0411 77.8136 24.4095 76.5605C21.8795 79.303 19.6332 81.7618 17.3396 84.2206C16.2046 85.4263 15.4953 86.6794 16.8195 88.1925C17.8835 89.4218 19.1839 89.4218 20.7209 87.956H20.7445Z" fill="url(#paint3_linear_2343_1064)"/>
<path d="M25.284 23.7905C26.3007 24.618 27.4831 24.4761 28.4289 23.4831C29.351 22.4902 29.5402 21.3081 28.5707 20.3387C25.8042 17.5253 23.4634 14.2391 19.7274 12.2295C18.7816 13.2225 18.0013 14.0499 16.748 15.3502C18.4742 17.1707 19.8457 18.6129 21.2407 20.0314C22.5412 21.3317 23.8417 22.6557 25.2605 23.8141L25.284 23.7905Z" fill="url(#paint4_linear_2343_1064)"/>
<path d="M94.9213 53.8163C98.4208 53.8399 101.897 53.8163 105.704 53.8163C106.058 49.9153 105.822 48.9933 104.167 48.8987C101.022 48.7332 97.8297 48.7568 94.6849 48.9933C93.479 49.0878 91.9656 49.7025 92.1548 51.523C92.3203 53.1306 93.4553 53.7926 94.9449 53.7926L94.9213 53.8163Z" fill="url(#paint5_linear_2343_1064)"/>
<path d="M87.5198 89.587C88.5365 88.6177 89.3642 87.8612 90.0972 87.1519C87.7326 82.4944 84.2331 79.9411 80.8991 76.8203C79.7877 77.7896 78.8419 78.6171 77.4941 79.7756C80.4498 83.4165 83.4055 86.6318 87.5198 89.5634V89.587Z" fill="url(#paint6_linear_2343_1064)"/>
<path d="M82.3659 24.5706C84.9906 21.9464 87.5916 19.393 90.1217 16.7924C91.1621 15.7049 91.3513 14.4755 90.2872 13.2224C89.2705 12.0167 88.0646 12.4186 87.1897 13.1751C84.8251 15.232 82.3897 17.3125 80.3798 19.7004C79.032 21.308 79.4812 23.1521 82.3659 24.5706Z" fill="url(#paint7_linear_2343_1064)"/>
<path d="M2.20742 51.7117C3.20052 52.2082 4.42999 52.5392 5.51768 52.5156C8.00045 52.421 10.4832 52.1846 12.9187 51.7354C14.6448 51.4044 15.3542 50.1277 14.5502 47.8344C11.1217 47.5034 7.88221 47.1252 4.61915 46.8888C3.83885 46.8415 2.86943 47.0779 2.30194 47.5507C1.63987 48.0945 1.02508 49.0402 0.95414 49.844C0.883204 50.4351 1.59264 51.4044 2.20742 51.6881V51.7117Z" fill="url(#paint8_linear_2343_1064)"/>
<path d="M54.9363 13.8846C55.7639 13.6009 56.615 12.1824 56.6623 11.213C56.8751 7.71401 56.7333 4.21498 56.7333 0.597735C54.156 -0.395233 52.1934 -0.25338 51.9569 1.80348C51.555 5.08973 51.6969 8.49419 52.0043 11.8041C52.1225 13.0571 53.4466 14.4047 54.9363 13.861V13.8846Z" fill="url(#paint9_linear_2343_1064)"/>
<path d="M49.592 70.6259C50.2541 71.5243 51.0818 72.2809 51.862 73.132C54.3212 72.2336 55.5507 70.5786 56.5911 68.5691C58.5773 64.6918 60.7763 60.9327 62.9044 57.1263C65.4818 52.4688 68.0591 47.7877 70.9202 42.61C69.4069 42.1136 68.3429 41.4279 67.3734 41.5225C66.5458 41.5934 65.529 42.3973 65.0561 43.1538C63.1408 46.3218 61.4383 49.6081 59.594 52.7998C57.2767 56.8426 54.865 60.8381 52.4058 65.0464C48.2206 61.5946 46.9674 56.2752 42.5458 53.84C39.7556 56.2279 39.5901 56.6062 41.3398 59.1595C43.9881 63.0368 46.8019 66.8195 49.592 70.6023V70.6259Z" fill="url(#paint10_linear_2343_1064)"/>
<defs>
<linearGradient id="paint0_linear_2343_1064" x1="19.9645" y1="55.1162" x2="86.9992" y2="55.1162" gradientUnits="userSpaceOnUse">
<stop stop-color="#AE8ABE"/>
<stop offset="1" stop-color="#8390C8"/>
</linearGradient>
<linearGradient id="paint1_linear_2343_1064" x1="38.2904" y1="107.152" x2="70.59" y2="107.152" gradientUnits="userSpaceOnUse">
<stop stop-color="#AE8ABE"/>
<stop offset="1" stop-color="#8390C8"/>
</linearGradient>
<linearGradient id="paint2_linear_2343_1064" x1="38.2193" y1="94.2201" x2="70.7317" y2="94.2201" gradientUnits="userSpaceOnUse">
<stop stop-color="#AE8ABE"/>
<stop offset="1" stop-color="#8390C8"/>
</linearGradient>
<linearGradient id="paint3_linear_2343_1064" x1="16.1337" y1="82.8257" x2="28.8077" y2="82.8257" gradientUnits="userSpaceOnUse">
<stop stop-color="#AE8ABE"/>
<stop offset="1" stop-color="#8390C8"/>
</linearGradient>
<linearGradient id="paint4_linear_2343_1064" x1="16.7717" y1="18.2819" x2="29.2328" y2="18.2819" gradientUnits="userSpaceOnUse">
<stop stop-color="#AE8ABE"/>
<stop offset="1" stop-color="#8390C8"/>
</linearGradient>
<linearGradient id="paint5_linear_2343_1064" x1="92.1312" y1="51.3102" x2="105.845" y2="51.3102" gradientUnits="userSpaceOnUse">
<stop stop-color="#AE8ABE"/>
<stop offset="1" stop-color="#8390C8"/>
</linearGradient>
<linearGradient id="paint6_linear_2343_1064" x1="77.4941" y1="83.2273" x2="90.0972" y2="83.2273" gradientUnits="userSpaceOnUse">
<stop stop-color="#AE8ABE"/>
<stop offset="1" stop-color="#8390C8"/>
</linearGradient>
<linearGradient id="paint7_linear_2343_1064" x1="79.6468" y1="18.5183" x2="90.9966" y2="18.5183" gradientUnits="userSpaceOnUse">
<stop stop-color="#AE8ABE"/>
<stop offset="1" stop-color="#8390C8"/>
</linearGradient>
<linearGradient id="paint8_linear_2343_1064" x1="0.954141" y1="49.7022" x2="14.9049" y2="49.7022" gradientUnits="userSpaceOnUse">
<stop stop-color="#AE8ABE"/>
<stop offset="1" stop-color="#8390C8"/>
</linearGradient>
<linearGradient id="paint9_linear_2343_1064" x1="51.7205" y1="7.00474" x2="56.7806" y2="7.00474" gradientUnits="userSpaceOnUse">
<stop stop-color="#AE8ABE"/>
<stop offset="1" stop-color="#8390C8"/>
</linearGradient>
<linearGradient id="paint10_linear_2343_1064" x1="40.2049" y1="57.3391" x2="70.9202" y2="57.3391" gradientUnits="userSpaceOnUse">
<stop stop-color="#AE8ABE"/>
<stop offset="1" stop-color="#8390C8"/>
</linearGradient>
</defs>
</svg>
