<svg width="88" height="79" viewBox="0 0 88 79" fill="none" xmlns="http://www.w3.org/2000/svg">
<path d="M57.5099 77.9724C56.2133 77.6005 55.3057 77.343 54.0253 76.9854C54.7384 74.039 55.2571 71.1927 56.1647 68.4465C56.9913 65.9864 58.8065 64.084 61.3512 62.6967C65.5976 60.3653 69.7954 57.9766 73.9283 55.5022C75.0143 54.8586 76.1326 53.9718 76.6836 52.9563C79.1472 48.5509 81.4325 44.0741 83.7178 39.5972C84.5282 38.0096 84.4633 37.9667 82.4374 36.4077C80.9463 36.6079 80.2655 37.6949 79.5686 38.6961C76.7485 42.701 73.8473 46.6486 71.173 50.725C69.8926 52.6845 68.1584 53.9146 65.8245 54.6583C63.053 55.5308 60.3139 56.4319 57.3479 57.3902C56.894 56.4462 56.5213 55.6596 56.0026 54.5725C59.8438 53.2137 63.4581 51.9122 66.9428 50.6821C67.04 49.0086 65.9541 48.7941 64.9331 49.0516C60.5732 50.11 56.1161 51.0111 51.9345 52.4843C48.0771 53.8431 45.9701 56.6179 46.0511 60.5083C46.1321 65.0281 46.0997 69.5478 46.0511 74.0676C46.0187 76.5706 45.4676 76.8424 42.1612 76.0271C42.0964 75.2547 41.9505 74.3823 41.9343 73.5241C41.9019 69.2046 41.9343 64.885 41.8857 60.5655C41.8209 56.5034 39.1628 53.2567 34.7381 51.998C31.0752 50.9396 27.3636 50.0242 23.6521 49.1374C22.8579 48.9514 21.934 49.1087 21.1723 49.1087C20.7671 50.3531 21.2533 50.8823 22.2582 51.2113C24.5921 51.9837 26.9098 52.7989 29.2275 53.6285C30.0541 53.9146 30.8483 54.2722 31.9666 54.7156L30.6052 57.5047C27.0233 56.3175 23.7169 55.2734 20.4754 54.1291C18.8384 53.5427 17.7687 52.3555 16.8772 51.0397C14.1219 47.0062 11.3504 42.9727 8.54649 38.9679C8.01164 38.2098 7.41195 37.4375 6.6664 36.8653C6.245 36.5507 5.32115 36.4076 4.85113 36.6079C4.3649 36.8081 3.91109 37.4947 3.84626 38.0096C3.78143 38.6675 3.97592 39.4113 4.30007 40.0263C6.53673 44.303 8.7734 48.5795 11.1883 52.7846C11.8204 53.8717 12.9874 54.8443 14.1544 55.5451C17.6066 57.6477 21.0588 59.8217 24.738 61.581C29.9569 64.0697 32.2746 68.0174 33.0849 72.9376C33.2956 74.2106 33.4739 75.4979 33.6846 76.9997C32.8256 77.3001 31.918 77.6004 30.6862 78.0295C30.281 77.014 29.8596 76.2131 29.6327 75.3835C29.3247 74.225 29.0816 73.0378 28.952 71.8506C28.6116 68.8041 26.7477 66.6872 23.9114 65.0853C19.9891 62.8826 16.0993 60.6084 12.1608 58.4057C9.97276 57.19 8.49786 55.6167 7.46057 53.4712C5.4184 49.2375 2.98725 45.1325 0.831628 40.9417C-0.610857 38.1383 -0.0111696 35.6353 2.29032 34.1907C3.97592 33.1322 5.79118 32.7604 7.7199 33.7044C8.59511 34.1335 9.43791 34.6483 10.54 35.2491C10.2483 27.7972 11.9987 21.2178 20.6861 17.5991C18.6925 15.282 18.5142 12.7218 18.6439 10.1043C18.8222 6.2997 21.7233 3.31035 25.5321 3.02429C30.362 2.65241 33.5063 4.81219 34.6571 8.94577C35.5161 11.978 34.6733 14.6527 33.0039 17.5705C33.9764 18.0854 34.9974 18.6289 36.0347 19.1725C38.709 12.8362 47.2018 11.9351 51.2538 17.828C52.9718 16.8554 54.6736 15.8684 56.6023 14.7814C53.8632 12.0495 54.5115 8.63109 54.9977 5.48441C55.4191 2.69532 57.4451 0.978976 61.5943 0.192308C64.3009 -0.322602 67.818 1.03617 69.2929 3.12442C71.3675 6.07085 71.0596 9.23185 70.1843 12.4071C69.9736 13.1652 69.4064 13.8517 68.8877 14.7957C72.5345 16.5979 75.6139 18.9293 77.3319 22.4765C79.0337 25.995 78.6934 29.7138 78.9203 33.6758C79.6982 33.5184 80.2979 33.3754 80.8976 33.2896C85.6789 32.5744 89.3418 36.2503 87.4293 40.2122C84.9009 45.4615 82.0322 50.5963 79.0337 55.6596C78.3044 56.8896 76.6674 57.7764 75.2736 58.606C71.5782 60.7658 67.8018 62.8111 64.0578 64.8993C60.3625 66.9447 58.92 70.077 58.4176 73.71C58.2231 75.0688 57.8179 76.399 57.4451 77.9866L57.5099 77.9724ZM69.536 46.8346C70.9785 44.7749 72.4534 42.8726 73.7014 40.8702C74.2687 39.9405 74.7063 38.8249 74.7387 37.7807C74.8522 34.2765 74.6901 30.7722 74.7711 27.268C74.9332 20.2738 65.3707 14.3094 56.6509 18.5574C54.7222 19.5014 52.9069 20.8459 52.2748 22.9485C51.7076 24.8508 51.1403 26.7531 50.5244 28.827C58.839 32.4743 60.6866 39.068 59.7628 46.7917C63.2799 46.2338 66.4404 44.7892 69.5522 46.8489L69.536 46.8346ZM37.5907 28.7269C36.9586 27.1679 36.1968 25.8091 35.8565 24.3788C35.5971 23.2775 34.9812 22.5766 34.025 21.9902C30.0379 19.5014 25.6618 19.2726 21.4478 21.0605C17.3311 22.8054 14.7864 25.8663 14.7054 30.1143C14.6406 33.4326 14.6244 36.7366 14.673 40.0549C14.673 40.8273 14.8513 41.6855 15.2565 42.3434C16.1965 43.8882 17.3473 45.3328 18.417 46.8489C21.7233 44.6462 24.8838 46.477 28.3685 46.7345C27.0881 38.8392 29.2599 32.4171 37.5907 28.7412V28.7269ZM43.6523 54.1864C45.7593 52.613 47.3963 51.0397 49.3899 49.9813C51.3834 48.9228 53.7173 48.3936 56.1809 47.5354C56.1809 45.3328 56.4402 43.0157 56.1323 40.7701C55.2733 34.4767 50.1678 31.3873 45.0948 30.9868C38.8387 30.5005 33.7819 33.7187 32.2097 39.1681C31.3831 41.9858 31.8045 44.8894 31.9342 47.75C36.7479 48.9943 41.124 50.3674 43.6686 54.1864H43.6523ZM48.1419 22.4908L48.4822 22.4193C48.0933 21.1177 47.996 19.6588 47.2505 18.5431C46.4239 17.3131 44.7707 16.8125 43.0851 17.2129C41.1888 17.6706 39.7949 18.8149 39.5842 20.4884C39.3897 22.0188 39.6166 23.6636 40.0704 25.1511C40.5891 26.8818 42.6637 27.8687 44.5276 27.6542C46.6508 27.411 48.0122 26.0379 48.1581 23.9783C48.1905 23.4777 48.1581 22.9771 48.1581 22.4908H48.1419ZM31.0104 11.3916C31.0104 10.9911 31.0104 10.5906 31.0104 10.1901C30.9131 7.65849 29.5517 6.27111 27.1043 6.18529C24.2031 6.08517 22.5013 7.47255 22.3068 10.1472C22.242 11.0483 22.2258 11.9494 22.323 12.8505C22.5986 15.1819 24.2031 16.3977 26.845 16.3405C29.4868 16.2976 30.8807 15.0532 30.9941 12.593C31.0104 12.1925 30.9941 11.7921 30.9941 11.3916H31.0104ZM67.2021 8.71692C67.1211 7.91595 67.1697 7.10067 66.959 6.34261C66.4404 4.55472 64.2199 3.09583 62.4533 3.28177C60.4435 3.49632 58.5634 5.25558 58.45 7.15789C58.3852 8.35935 58.3689 9.57512 58.531 10.748C58.7579 12.2784 59.8601 13.2939 61.5132 13.6944C63.0205 14.0663 64.3496 13.7802 65.5814 12.7933C67.0076 11.6491 67.3156 10.2903 67.2021 8.71692Z" fill="url(#paint0_linear_2406_2)"/>
<path d="M82.0327 62.8246C78.5967 64.8127 75.3065 66.715 71.8219 68.746L69.7959 66.1143C73.313 64.0975 76.6031 62.1952 80.0067 60.25C81.0927 60.9222 81.8058 61.6803 82.0327 62.8246Z" fill="url(#paint1_linear_2406_2)"/>
<path d="M69.3252 70.1765C68.6282 70.5341 67.9799 70.8773 67.1858 71.2921C66.5212 70.4626 65.9702 69.7617 65.3057 68.9178C66.116 68.36 66.7968 67.888 67.4937 67.416C68.839 68.0597 69.3576 68.9178 69.3414 70.1765H69.3252Z" fill="url(#paint2_linear_2406_2)"/>
<defs>
<linearGradient id="paint0_linear_2406_2" x1="0.0698672" y1="39.0394" x2="87.9966" y2="39.0394" gradientUnits="userSpaceOnUse">
<stop stop-color="#AE8ABE"/>
<stop offset="1" stop-color="#8390C8"/>
</linearGradient>
<linearGradient id="paint1_linear_2406_2" x1="69.7959" y1="64.498" x2="82.0327" y2="64.498" gradientUnits="userSpaceOnUse">
<stop stop-color="#AE8ABE"/>
<stop offset="1" stop-color="#8390C8"/>
</linearGradient>
<linearGradient id="paint2_linear_2406_2" x1="65.2895" y1="69.3469" x2="69.3252" y2="69.3469" gradientUnits="userSpaceOnUse">
<stop stop-color="#AE8ABE"/>
<stop offset="1" stop-color="#8390C8"/>
</linearGradient>
</defs>
</svg>
