<svg width="99" height="78" viewBox="0 0 99 78" fill="none" xmlns="http://www.w3.org/2000/svg">
<path d="M41.5394 41.1581V32.9338C38.0385 32.9338 34.7808 32.9338 31.523 32.9338C26.5635 32.9338 26.6445 32.9338 26.5311 28.6286C26.4338 24.9527 26.6931 21.334 29.3836 18.359C30.972 16.5854 33.079 15.1837 34.9915 13.5818C30.5182 8.13233 33.8083 3.51244 37.3578 1.55292C41.8635 -0.921511 47.3904 0.909268 50.7454 6.14419C53.5169 1.79606 57.6499 0.0510999 63.1119 0.75195C66.71 1.20965 68.8817 2.65425 71.4264 6.60189C72.7878 4.11316 74.1331 1.59582 77.3746 0.923579C79.8058 0.422972 82.3342 0.308543 84.6681 1.40988C89.4331 3.66976 90.4056 7.70325 87.6179 13.7248C90.827 15.2839 93.5823 17.272 95.1707 20.3328C95.9486 21.8204 96.5321 23.2793 96.451 24.9384C96.3862 26.5404 96.451 28.1423 96.451 29.7585C96.4186 32.6049 96.1269 32.8909 92.9826 32.9195C90.0328 32.9481 87.0668 32.9195 84.117 32.9195H81.9452C81.9452 35.2366 82.0424 37.3106 81.9127 39.3988C81.7993 41.4584 80.843 42.2308 78.5253 42.431C77.9581 42.4739 77.3908 42.4454 76.8235 42.4454C66.5965 42.4454 56.3694 42.4454 46.1262 42.4454C44.6675 42.4454 43.144 42.6027 41.5232 41.1438L41.5394 41.1581ZM71.0536 15.3697L73.7116 13.9108C73.1606 13.3387 72.7554 12.9096 72.1719 12.2945C71.7181 13.5103 71.3778 14.4257 71.0374 15.3411L70.8753 15.5699L71.0698 15.3697H71.0536ZM45.332 38.4691C49.7405 39.0984 75.3973 38.9411 77.5853 38.3118C78.6064 31.6895 76.6453 26.0827 69.9353 22.5069C64.1005 19.3888 58.1036 19.5033 52.3823 22.9789C46.1424 26.7835 44.8296 32.3045 45.3158 38.4691H45.332ZM92.7557 29.5869C92.7557 27.8849 92.9178 26.4831 92.7233 25.1101C92.2208 21.52 90.3894 18.4448 86.4185 17.2148C82.4314 15.9847 78.2012 15.9275 74.2303 17.6582C73.3875 18.0301 72.6906 18.6594 71.6857 19.3316C76.4832 21.8632 79.2385 25.439 80.9241 29.5869H92.7557ZM51.0371 19.1171C50.3888 18.6594 49.8053 18.2017 49.1732 17.8012C46.4341 16.1134 43.306 16.5854 40.259 16.5568C37.5847 16.5282 35.4615 17.558 33.5976 19.1457C30.1454 22.0921 30.5506 25.7394 30.9558 29.5583H41.9284C43.1764 27.656 44.1812 25.7108 45.6075 24.0659C47.0986 22.3496 49.0111 20.9192 51.0371 19.1028V19.1171ZM68.2497 10.6067C68.2983 6.84503 65.3161 4.01303 61.2642 3.95582C56.9043 3.89861 53.6628 6.58761 53.5331 10.3779C53.4197 13.5532 57.2447 17.0145 60.8752 17.0288C64.8947 17.0288 68.2172 14.1539 68.2497 10.6067ZM80.5675 3.95582C77.6501 3.88431 75.3325 5.77231 75.2676 8.28965C75.1866 10.7927 77.4394 12.8094 80.373 12.8666C83.1121 12.9239 85.2839 11.0788 85.365 8.63295C85.4784 5.80094 83.6632 4.04165 80.5837 3.97014L80.5675 3.95582ZM36.9364 8.16092C36.8392 10.7069 38.7355 12.7093 41.3773 12.8523C44.473 13.024 46.9527 11.0931 47.0176 8.48991C47.0662 6.1156 44.9106 4.05596 42.285 3.97014C39.2865 3.87002 37.0336 5.6293 36.9364 8.17524V8.16092ZM48.6708 13.8965C49.8377 13.8202 50.1241 13.3911 49.5298 12.6092L48.6708 13.8965Z" fill="url(#paint0_linear_2406_3)"/>
<path d="M18.1356 69.6917C17.9897 70.3354 17.9087 70.9218 17.7304 71.4796C17.3576 72.6668 16.5472 73.339 15.0399 73.3247C11.0528 73.2818 7.08192 73.3247 3.09482 73.2818C2.34927 73.2818 1.61994 72.9528 0.728516 72.7383V43.3312C1.5389 43.2025 2.28448 42.9879 3.03003 42.9736C6.77401 42.945 10.5342 42.945 14.2782 42.9736C17.3414 42.9879 17.3414 43.0165 17.8601 45.777C17.8925 45.963 18.0384 46.1203 18.2328 46.4636C21.1989 46.7639 24.0352 46.5208 27.0012 45.3765C35.2023 42.2156 42.9495 43.2454 49.9513 48.1656C51.0534 48.938 52.1231 49.1382 53.3873 49.1382C57.4879 49.1382 61.5722 49.1239 65.6727 49.1382C66.7911 49.1382 67.9256 49.2526 69.0439 49.41C71.3454 49.7246 73.0148 50.7831 73.89 52.7569C74.1332 53.3147 74.4897 53.8296 74.9273 54.602C77.8609 52.5281 80.681 50.5685 83.485 48.5804C84.9923 47.5077 86.4348 46.392 87.9583 45.3479C91.3457 43.0451 94.5548 43.1882 96.986 45.7198C99.3037 48.1227 99.174 51.9703 96.4511 54.1729C93.5986 56.4614 90.5515 58.5639 87.5531 60.7094C81.929 64.7572 76.1753 68.6762 70.6809 72.8527C67.1152 75.5703 62.966 76.5572 58.5089 76.9148C53.598 77.3153 48.8329 76.643 44.1327 75.1698C38.5897 73.4248 32.9008 72.0231 27.3416 70.3354C24.3431 69.42 21.3447 69.563 18.1194 69.706L18.1356 69.6917ZM17.9735 65.787C18.8974 65.8442 19.5781 65.9729 20.2264 65.9157C23.1275 65.6726 25.8342 66.3305 28.5571 67.1172C34.4729 68.8335 40.4373 70.4641 46.3531 72.1805C52.1069 73.8539 57.8768 74.3116 63.6792 72.4951C64.9272 72.1089 66.2076 71.5797 67.2287 70.8503C75.5432 64.9574 83.8091 59.0074 92.0589 53.0573C92.9341 52.4279 93.7931 51.7271 94.4576 50.9261C95.2194 50.0107 94.9276 48.6805 93.9876 47.9368C92.9989 47.1644 91.9454 47.1501 90.8757 47.7651C90.5029 47.9797 90.1788 48.2801 89.8222 48.5375C85.3164 51.7414 80.7459 54.8738 76.3374 58.1778C73.9711 59.9513 71.2482 61.0098 68.3146 61.1242C62.5285 61.353 56.7261 61.21 50.9237 61.1957C49.4002 61.1957 48.3143 60.6236 47.9901 59.2505C49.5623 57.5913 49.5461 57.5484 51.2965 57.5198C53.7925 57.4769 56.3047 57.5198 58.8007 57.5198C61.8639 57.5198 64.9434 57.577 68.0066 57.4912C70.1623 57.434 70.9727 56.3756 70.4378 54.5019C70.3081 54.0299 70.0164 53.6008 69.6923 52.9428C68.5739 52.8856 67.4556 52.7855 66.3535 52.7855C62.026 52.7712 57.7148 52.7569 53.3873 52.7855C51.6045 52.7998 49.9837 52.5138 48.6547 51.441C43.063 46.8498 36.4016 46.1918 29.6106 48.2085C25.9801 49.2813 22.4792 49.9535 18.7191 49.9249C18.5246 49.9249 18.3463 50.0965 18.0059 50.2682V65.8156L17.9735 65.787ZM4.32662 62.9836C6.01222 62.5545 7.64922 61.7535 9.20515 61.8537C10.6801 61.9538 12.0901 63.0122 13.5164 63.6415C14.0188 57.6772 13.8406 48.5232 13.1598 46.3491H4.3104V62.9836H4.32662ZM8.78374 65.1433C8.26509 65.6439 7.63302 66.0159 7.69785 66.2447C7.82751 66.731 8.32991 67.1315 8.67027 67.5606C9.12409 67.2316 9.86964 66.9313 9.93447 66.5594C9.98309 66.2018 9.31859 65.7584 8.78374 65.1577V65.1433ZM13.565 68.9623L13.4029 68.7334C13.4029 68.7334 13.1922 68.905 13.2085 68.9336C13.2571 69.0338 13.3705 69.1196 13.4678 69.2197L13.565 68.9766V68.9623Z" fill="url(#paint1_linear_2406_3)"/>
<defs>
<linearGradient id="paint0_linear_2406_3" x1="26.5149" y1="21.4771" x2="96.4672" y2="21.4771" gradientUnits="userSpaceOnUse">
<stop stop-color="#AE8ABE"/>
<stop offset="1" stop-color="#8390C8"/>
</linearGradient>
<linearGradient id="paint1_linear_2406_3" x1="0.760931" y1="59.9799" x2="98.6392" y2="59.9799" gradientUnits="userSpaceOnUse">
<stop stop-color="#AE8ABE"/>
<stop offset="1" stop-color="#8390C8"/>
</linearGradient>
</defs>
</svg>
