<svg width="110" height="98" viewBox="0 0 110 98" fill="none" xmlns="http://www.w3.org/2000/svg">
<path d="M109.454 7.64401C109.454 0.953296 109.454 0.906015 102.834 0.906015C70.7705 0.906015 38.6837 0.906015 6.62058 0.906015C5.93486 0.906015 5.27282 0.882373 4.58711 0.906015C1.5605 1.09515 1.04026 1.59163 0.851096 4.42868C0.803805 4.92517 0.851096 5.44529 0.851096 5.94178C0.851096 34.9506 0.851119 63.9595 0.874765 92.9683C0.874765 94.245 1.15849 95.5217 1.30036 96.7274C7.16442 97.4603 103.425 97.2475 109.147 96.4674C109.242 91.8571 109.431 87.176 109.431 82.5185C109.454 57.5525 109.431 32.5864 109.431 7.64401H109.454ZM6.19498 6.20184H104.181C104.583 11.7341 104.3 17.0299 104.3 22.6567H6.17131V6.20184H6.19498ZM6.17131 92.2591V28.3308H104.111C104.205 29.773 104.347 31.0497 104.347 32.35C104.371 50.1998 104.347 68.0732 104.394 85.923C104.394 87.8853 104.583 89.8712 104.702 92.2591H6.14764H6.17131Z" fill="url(#paint0_linear_2343_1023)"/>
<path d="M87.4414 56.3239C84.2493 53.6051 80.939 51.0045 77.6995 48.3566C76.1389 47.0799 74.6729 45.685 73.0414 44.5029C71.6936 43.5336 69.6601 43.8882 69.069 45.0703C68.3833 46.4416 68.7616 47.6946 69.8493 48.7112C70.3222 49.1604 71.0079 49.3968 71.5281 49.8224C75.6661 53.2032 79.7804 56.6077 84.2257 60.2722C80.206 63.5821 76.47 66.6792 72.734 69.7763C71.8355 70.5328 70.866 71.2185 70.0385 72.0696C68.5724 73.5827 68.4069 74.9066 69.5419 75.9942C70.7242 77.129 71.9537 76.9871 73.136 75.9469C73.5143 75.6159 73.8926 75.2849 74.2946 74.9539C78.0542 71.8805 81.8138 68.7597 85.5971 65.7099C87.536 64.1495 89.9242 63.0856 91.1538 60.1776C89.9715 58.9482 88.8365 57.506 87.4651 56.3239H87.4414Z" fill="url(#paint1_linear_2343_1023)"/>
<path d="M40.5046 48.6626C41.6396 47.7169 41.9706 46.393 41.2376 45.0217C40.5756 43.7923 38.7312 43.5796 37.2415 44.478C36.9578 44.6434 36.674 44.8562 36.4139 45.069C31.7558 48.9227 27.074 52.7763 22.4868 56.7009C21.2336 57.7648 20.2405 59.0888 18.9873 60.46C20.0041 61.5948 20.6661 62.5878 21.541 63.2971C26.1045 67.0089 30.7154 70.6261 35.3026 74.3143C36.0829 74.9526 36.7923 75.7092 37.6199 76.2766C38.7312 77.0568 39.8661 76.9385 40.812 75.9692C41.7814 74.9762 41.8523 73.7705 40.9538 72.8012C39.9371 71.69 38.7312 70.768 37.5725 69.7986C33.8366 66.6779 30.1006 63.6044 26.0809 60.2709C28.9893 57.883 31.5666 55.7789 34.1676 53.6984C36.272 52.0198 38.4475 50.4357 40.481 48.7335L40.5046 48.6626Z" fill="url(#paint2_linear_2343_1023)"/>
<path d="M57.6942 40.4604C55.0932 52.7306 52.4449 65.0009 49.8912 77.2948C49.5838 78.7606 49.4893 80.321 49.6548 81.7868C49.7258 82.4251 50.6006 83.3235 51.239 83.4654C51.8774 83.6072 52.9415 83.0871 53.3198 82.5433C53.9583 81.5976 54.3602 80.4392 54.5967 79.3044C57.3159 66.8686 60.0115 54.4565 62.6598 41.9971C62.9199 40.7441 62.7071 39.3729 62.7071 37.7179C58.4272 37.3869 58.3563 37.4578 57.7179 40.4604H57.6942Z" fill="url(#paint3_linear_2343_1023)"/>
<path d="M93.66 9.96094C91.0354 10.0082 89.2857 11.6868 89.1911 14.2874C89.0729 17.4082 90.8463 19.2286 94.062 19.2523C96.9231 19.2759 98.8857 17.5264 99.0512 14.8076C99.1931 12.5379 96.3083 9.9373 93.66 9.98458V9.96094Z" fill="url(#paint4_linear_2343_1023)"/>
<path d="M81.7184 9.9582C79.0938 9.93456 76.9184 12.2042 77.0603 14.7812C77.2258 17.5237 79.212 19.2732 82.1204 19.2259C84.8396 19.2023 86.9913 17.1218 86.9204 14.5211C86.8731 12.4406 84.0593 9.95821 81.7184 9.93457V9.9582Z" fill="url(#paint5_linear_2343_1023)"/>
<defs>
<linearGradient id="paint0_linear_2343_1023" x1="0.851096" y1="49.0413" x2="109.454" y2="49.0413" gradientUnits="userSpaceOnUse">
<stop stop-color="#AE8ABE"/>
<stop offset="1" stop-color="#8390C8"/>
</linearGradient>
<linearGradient id="paint1_linear_2343_1023" x1="68.7143" y1="60.3431" x2="91.1301" y2="60.3431" gradientUnits="userSpaceOnUse">
<stop stop-color="#AE8ABE"/>
<stop offset="1" stop-color="#8390C8"/>
</linearGradient>
<linearGradient id="paint2_linear_2343_1023" x1="18.9873" y1="60.3654" x2="41.6396" y2="60.3654" gradientUnits="userSpaceOnUse">
<stop stop-color="#AE8ABE"/>
<stop offset="1" stop-color="#8390C8"/>
</linearGradient>
<linearGradient id="paint3_linear_2343_1023" x1="49.5839" y1="60.5325" x2="62.778" y2="60.5325" gradientUnits="userSpaceOnUse">
<stop stop-color="#AE8ABE"/>
<stop offset="1" stop-color="#8390C8"/>
</linearGradient>
<linearGradient id="paint4_linear_2343_1023" x1="89.1675" y1="14.6184" x2="99.0512" y2="14.6184" gradientUnits="userSpaceOnUse">
<stop stop-color="#AE8ABE"/>
<stop offset="1" stop-color="#8390C8"/>
</linearGradient>
<linearGradient id="paint5_linear_2343_1023" x1="77.0603" y1="14.6157" x2="86.9204" y2="14.6157" gradientUnits="userSpaceOnUse">
<stop stop-color="#AE8ABE"/>
<stop offset="1" stop-color="#8390C8"/>
</linearGradient>
</defs>
</svg>
