<svg width="115" height="114" viewBox="0 0 115 114" fill="none" xmlns="http://www.w3.org/2000/svg">
<path d="M110.847 32.168C105.669 23.6096 97.5347 20.2288 88.0293 19.5905C85.5702 19.425 84.1987 18.7157 82.8273 16.5879C77.1997 7.88762 69.6095 2.26081 58.8745 0.81864C45.302 -1.02544 34.8744 3.72664 26.7404 14.2474C22.8862 19.2595 20.8764 25.0991 20.1907 31.4351C18.8902 31.8371 17.7314 32.0499 16.6674 32.5227C13.7827 33.823 10.6142 34.816 8.13145 36.6837C1.81813 41.4358 -0.641014 50.9162 1.6053 58.4817C3.96984 66.4964 12.6241 74.0146 21.6093 73.258C26.2911 72.8561 31.0438 73.2107 35.7729 73.1871C36.9315 73.1871 38.1612 73.1871 39.2489 72.7852C39.8636 72.5724 40.573 71.5558 40.5493 70.9411C40.5257 70.3028 39.7689 69.5462 39.1305 69.1207C38.634 68.7897 37.8301 68.8606 37.168 68.837C31.8005 68.6005 26.4331 68.175 21.0655 68.175C14.7522 68.175 10.6142 64.8414 7.56398 59.9002C5.86151 57.1578 4.89213 53.9188 5.71972 50.7035C7.25667 44.6747 9.71568 39.0716 18.4645 37.4639C20.2615 37.1329 22.0585 36.731 24.3521 36.2582C24.6832 35.5962 25.0852 35.0288 25.2744 34.4141C25.4635 33.7757 25.5817 33.0901 25.5581 32.4281C25.4635 24.0352 29.5306 17.6755 35.4183 12.2378C43.9543 4.36496 58.8035 2.94642 69.1365 9.63713C73.7946 12.6397 77.4835 16.4934 79.7534 21.4818C80.9357 24.0825 82.5671 25.0518 85.2627 24.6499C85.9248 24.5553 86.6106 24.579 87.2963 24.579C97.3692 24.6026 106.449 30.3949 109.286 41.6485C113.07 56.6613 99.3791 68.8369 88.9042 68.2222C84.5771 67.9622 80.1789 68.5769 75.8282 68.8843C73.5109 69.0498 73.4163 69.3334 73.8893 72.998C78.3109 73.4708 82.8509 73.0216 87.3435 73.2107C95.4302 73.5417 102.027 70.5155 107.631 64.7705C116.191 55.9993 117.184 42.6652 110.847 32.1917V32.168Z" fill="url(#paint0_linear_2343_498)"/>
<path d="M57.7856 113.496C66.227 105.292 74.1955 97.5611 82.4477 89.5464C81.5019 88.648 80.7217 87.3004 79.8941 87.2768C78.7355 87.2295 77.2931 87.8915 76.4182 88.719C71.9019 93.0218 67.5511 97.4902 63.1058 101.864C62.491 102.479 61.6399 102.881 60.2211 103.826V83.9669C60.2211 77.7254 60.2448 71.5075 60.2211 65.266C60.1739 58.9062 60.4339 52.5466 60.0556 46.305C55.965 45.714 55.4684 45.9741 55.2083 48.7875C55.1138 49.9459 55.161 51.1517 55.161 52.3338C55.161 67.6539 55.161 82.9976 55.161 98.3176C55.161 99.949 55.1138 101.557 55.0665 103.944C47.76 98.4122 43.5038 90.8468 36.221 86.3548C35.2516 87.4896 34.5186 88.3407 33.7383 89.2391C36.8595 94.393 41.2811 98.1049 45.3481 102.053C49.486 106.072 52.962 110.943 57.8329 113.52L57.7856 113.496Z" fill="url(#paint1_linear_2343_498)"/>
<defs>
<linearGradient id="paint0_linear_2343_498" x1="0.825003" y1="36.8728" x2="114.938" y2="36.8728" gradientUnits="userSpaceOnUse">
<stop stop-color="#AE8ABE"/>
<stop offset="1" stop-color="#8390C8"/>
</linearGradient>
<linearGradient id="paint1_linear_2343_498" x1="33.691" y1="79.7586" x2="82.4477" y2="79.7586" gradientUnits="userSpaceOnUse">
<stop stop-color="#AE8ABE"/>
<stop offset="1" stop-color="#8390C8"/>
</linearGradient>
</defs>
</svg>
