<svg width="113" height="100" viewBox="0 0 113 100" fill="none" xmlns="http://www.w3.org/2000/svg">
<path d="M2.9459 5.26065C5.09763 5.568 7.32022 5.4025 9.51924 5.4025C15.738 5.4025 21.9331 5.4025 28.6484 5.4025C32.479 24.9782 36.2622 44.2938 39.9982 63.4439C45.0819 64.4841 98.4968 64.4132 102.304 63.4439C102.611 59.7793 102.091 59.0464 98.9461 59.1646C96.9363 59.2356 94.9501 59.7557 92.9402 59.7557C77.9254 59.803 62.9105 59.803 47.8957 59.7557C46.7607 59.7557 45.6494 59.4483 44.2307 59.2356C43.5686 55.8784 42.9302 52.7103 42.1735 48.8567C53.7598 48.8567 64.6839 48.8567 75.5845 48.8567C86.5086 48.8567 97.4091 48.833 108.215 48.8094C108.853 44.7193 108.523 44.081 105.756 43.8446C104.574 43.7263 103.391 43.8446 102.209 43.8209C83.151 43.8209 64.0928 43.8209 45.0347 43.7736C43.7578 43.7736 42.4809 43.5609 40.9912 43.419C41.275 39.9909 38.9342 37.1302 40.3056 33.5602C42.0553 33.5602 43.7106 33.5602 45.3657 33.5602C65.6062 33.5602 85.8466 33.5602 106.087 33.5602C107.269 33.5602 108.452 33.6075 109.634 33.5366C112.59 33.3238 112.779 33.0165 112.495 28.5245C110.343 28.5245 108.522 28.5245 106.702 28.5245C85.61 28.5245 64.542 28.5245 43.4503 28.5245C38.6267 28.5245 38.6268 28.5245 37.4918 23.9615C37.2553 22.9922 37.0188 22.0229 36.8296 21.0299C35.7892 15.6159 34.8435 10.1546 33.6849 4.76416C32.881 0.934145 32.1479 0.43766 28.1755 0.414018C20.7508 0.366734 13.3262 0.390376 5.90158 0.414018C4.74295 0.414018 3.53696 0.508587 2.42563 0.815934C1.267 1.12328 -0.0334858 1.85619 0.510358 3.25107C0.865039 4.14947 2.00004 5.16608 2.89857 5.30793L2.9459 5.26065Z" fill="url(#paint0_linear_2343_525)"/>
<path d="M86.485 99.6166C92.0417 99.9713 98.4732 93.7061 97.6929 88.4576C97.7875 82.0506 93.153 77.2512 86.7687 77.133C80.1953 77.0148 75.3717 81.7905 75.2771 88.4576C75.2062 94.6282 80.148 99.2147 86.485 99.6166ZM86.4378 82.1924C90.1974 82.1924 92.6802 84.6985 92.6329 88.5049C92.5856 91.9802 90.0792 94.4627 86.5797 94.4863C82.8437 94.4863 80.29 91.8857 80.3609 88.1266C80.4319 84.6512 82.9147 82.2161 86.4378 82.1924Z" fill="url(#paint1_linear_2343_525)"/>
<path d="M61.1136 88.4815C61.3264 81.8381 55.013 76.9915 49.6691 76.9206C43.9706 76.8496 37.7755 82.7129 38.7213 88.1033C37.941 95.1723 44.1598 99.4515 49.3145 99.5224C55.4623 99.5933 60.8771 95.4323 61.1136 88.4815ZM49.5509 94.4157C45.9095 94.4157 43.0012 91.4605 43.214 88.0087C43.4504 84.3205 46.0751 82.0509 50.0002 82.1927C53.5943 82.311 56.1953 84.8643 56.1007 88.1506C56.0062 91.7678 53.216 94.4394 49.5746 94.4157H49.5509Z" fill="url(#paint2_linear_2343_525)"/>
<defs>
<linearGradient id="paint0_linear_2343_525" x1="0.415776" y1="32.2599" x2="112.613" y2="32.2599" gradientUnits="userSpaceOnUse">
<stop stop-color="#AE8ABE"/>
<stop offset="1" stop-color="#8390C8"/>
</linearGradient>
<linearGradient id="paint1_linear_2343_525" x1="75.2771" y1="88.363" x2="97.7638" y2="88.363" gradientUnits="userSpaceOnUse">
<stop stop-color="#AE8ABE"/>
<stop offset="1" stop-color="#8390C8"/>
</linearGradient>
<linearGradient id="paint2_linear_2343_525" x1="38.6031" y1="88.2215" x2="61.1136" y2="88.2215" gradientUnits="userSpaceOnUse">
<stop stop-color="#AE8ABE"/>
<stop offset="1" stop-color="#8390C8"/>
</linearGradient>
</defs>
</svg>
