<svg width="114" height="77" viewBox="0 0 114 77" fill="none" xmlns="http://www.w3.org/2000/svg">
<path d="M113.424 4.22219C113.4 1.26693 112.809 0.770464 109.853 0.581327C108.836 0.510401 107.82 0.581327 106.827 0.581327C90.133 0.581327 73.4394 0.581327 56.7457 0.581327C39.5319 0.581327 22.3417 0.581327 5.12781 0.581327C0.469673 0.581327 0.233253 0.888672 0.138672 5.38067C0.138672 5.71166 0.138672 6.06627 0.138672 6.39726C0.138672 27.6279 0.138672 48.8585 0.138672 70.0891C0.138672 76.4252 0.185963 76.4488 6.64115 76.4488C40.0284 76.4488 73.4394 76.4488 106.827 76.4488C107.678 76.4488 108.505 76.4961 109.357 76.4488C112.241 76.236 113.282 75.2431 113.495 72.477C113.566 71.6495 113.495 70.7984 113.495 69.9472C113.495 54.2725 113.495 38.5978 113.495 22.9231C113.495 16.6816 113.542 10.4637 113.495 4.22219H113.424ZM102.499 5.78258C97.3212 11.0075 60.3634 41.6476 55.8235 43.3499C40.8796 31.0796 25.7703 18.6675 10.0698 5.78258H102.476H102.499ZM108.363 67.5121C108.363 71.0821 107.962 71.3658 104.155 71.413C98.9291 71.4603 93.7034 71.413 88.4778 71.413C62.6807 71.413 36.8836 71.413 11.0865 71.413C7.1456 71.413 5.16725 69.4823 5.15148 65.6207C5.15148 48.4329 5.15148 31.2451 5.15148 14.0573C5.15148 12.6388 5.34056 11.2439 5.50608 8.92699C9.40756 11.9532 12.6233 14.2937 15.6972 16.8234C26.0776 25.3582 36.4106 33.9403 46.7436 42.5224C48.8244 44.2247 50.8343 45.9978 52.9624 47.6528C55.9181 49.9224 57.0058 49.9697 60.0797 47.6291C64.7378 44.0591 69.3014 40.371 73.8413 36.6592C80.3438 31.3397 86.7754 25.9493 93.2542 20.6062C97.8887 16.7998 102.547 13.0407 107.583 8.92699C107.891 10.2982 108.34 11.3621 108.34 12.426C108.387 30.7959 108.387 49.1658 108.34 67.5121H108.363Z" fill="url(#paint0_linear_2343_490)"/>
<defs>
<linearGradient id="paint0_linear_2343_490" x1="0.0913811" y1="38.5269" x2="113.471" y2="38.5269" gradientUnits="userSpaceOnUse">
<stop stop-color="#AE8ABE"/>
<stop offset="1" stop-color="#8390C8"/>
</linearGradient>
</defs>
</svg>
