<svg width="115" height="102" viewBox="0 0 115 102" fill="none" xmlns="http://www.w3.org/2000/svg">
<path d="M110.696 7.98978C106.133 7.89521 101.593 7.98975 97.0293 7.96611C95.7524 7.96611 94.4755 7.72975 93.1514 7.5879C93.0805 6.35851 92.9859 5.53101 92.9859 4.6799C92.9859 2.8831 92.7968 1.18085 90.5978 0.897146C89.0136 0.684367 88.1623 2.07928 87.9022 4.91633C87.8313 5.72016 87.7839 6.54759 87.6657 7.96611C82.6055 7.96611 78.0657 7.96611 73.5258 7.96611C71.9415 7.96611 70.9721 7.2569 70.8538 5.57831C70.8065 4.91633 70.8538 4.23067 70.8065 3.54505C70.6883 2.03196 69.9553 0.897146 68.3474 0.897146C66.7868 0.897146 65.9592 1.96105 65.7937 3.49779C65.6518 4.93996 65.5336 6.35845 65.3917 7.96611C59.7169 7.82426 54.5386 8.10797 49.1947 7.82426C48.7691 5.27092 48.4143 3.21406 48.0833 1.25176C45.8606 0.518858 44.4419 0.731631 44.2528 3.16677C44.1345 4.60894 43.9217 6.07474 43.7798 7.37506C38.5069 8.24982 30.9404 8.1553 27.2281 7.20962C27.1571 5.93295 27.1336 4.60898 27.0153 3.28502C26.8971 1.93742 26.1641 1.08628 24.7927 0.968069C23.1375 0.826217 22.2862 1.79552 22.0734 3.30861C21.8606 4.75078 21.7896 6.2166 21.6241 7.96611C16.7532 7.96611 12.2133 8.0134 7.67343 7.96611C0.95814 7.89518 0.72168 7.63515 0.72168 14.9406C0.76897 40.5686 0.768872 66.2203 0.768872 91.8483C0.768872 93.5269 0.745227 95.2292 0.768872 96.9078C0.863454 100.903 1.83292 101.825 5.94722 101.92C7.98072 101.967 9.99059 101.92 12.0241 101.92C43.4252 101.92 74.8263 101.92 106.204 101.92C108.876 101.92 111.571 102.062 114.101 100.147C114.101 98.7045 114.101 97.2151 114.101 95.702C114.101 68.3717 114.101 41.0414 114.101 13.7348C114.101 12.8837 114.125 12.0326 114.054 11.2051C113.841 8.62815 113.274 7.9898 110.602 7.94252L110.696 7.98978ZM109.159 94.3307C109.088 95.9147 108.332 96.8368 106.677 96.8841C105.494 96.9077 104.312 96.9078 103.13 96.9078C72.7692 96.9078 42.4084 96.9078 12.0478 96.9078C10.2271 96.9078 8.42998 96.7895 7.12949 96.7186C6.51471 96.1275 6.37289 96.0093 6.30196 95.8911C6.20737 95.7492 6.08908 95.5837 6.08908 95.4419C6.01815 68.8209 5.94732 42.1999 5.90002 15.5789C5.90002 14.9405 6.04186 14.2786 6.16009 13.3329H21.3877C23.3503 15.2952 20.0872 19.7399 24.6035 20.7329C28.1739 19.4799 26.5661 16.1936 27.2991 13.8057C29.3562 13.2147 40.4932 12.5291 42.1956 13.1674C42.9996 13.4511 43.7326 14.3495 44.1109 15.1297C44.4419 15.8153 44.2291 16.7847 44.2528 17.6358C44.2528 19.078 44.5366 20.5674 46.1208 20.8038C48.1071 21.0875 48.5798 19.2907 48.9582 17.8722C49.3365 16.4536 49.4075 14.9642 49.644 13.2856H65.3209C66.4086 15.9335 64.5405 19.5981 68.7494 20.9457C72.2016 19.2907 69.979 15.9571 71.3504 13.3565C76.4578 12.6472 81.778 13.2147 86.98 13.0019C88.9662 15.3897 86.4834 19.2907 90.3613 20.7092C94.1209 19.669 92.3475 16.0518 93.3643 13.3329H108.639C108.781 14.255 109.088 15.3662 109.088 16.4537C109.112 41.7271 109.136 67.0241 109.136 92.2975C109.136 92.9831 109.136 93.6451 109.136 94.3307H109.159Z" fill="url(#paint0_linear_2343_1036)"/>
<path d="M78.7507 50.474C76.0552 50.3085 73.3595 50.2848 70.6639 50.474C67.1644 50.734 65.6511 52.4362 65.5329 56.0062C65.4383 58.7014 65.4147 61.3966 65.5566 64.0918C65.7221 67.118 67.3064 68.6075 70.333 68.8202C71.8463 68.9148 73.3595 68.8202 74.8728 68.8202C76.3862 68.8202 77.9231 68.9384 79.4127 68.7966C82.1083 68.5365 83.6926 66.9997 83.8817 64.2573C84.0709 61.3966 84.0709 58.5359 83.9291 55.6752C83.7872 52.8855 81.5409 50.6631 78.7507 50.474ZM78.5852 63.6426C75.5586 64.9193 72.7683 65.0138 69.9309 63.0988C69.9782 62.3423 69.7654 61.5384 70.0964 61.0892C71.2314 59.4816 68.7251 57.0228 70.9241 56.0771C72.6502 55.3442 74.8256 55.5807 76.8118 55.4625C77.2847 55.4388 77.7576 55.6515 78.5852 55.8407V63.6426Z" fill="url(#paint1_linear_2343_1036)"/>
<path d="M22.3331 74.2832C19.141 77.7349 19.1883 80.1464 22.546 83.409C26.0692 82.8653 25.1234 80.1464 25.2653 77.9477C25.4071 75.8199 24.8159 74.3068 22.3568 74.2832H22.3331Z" fill="url(#paint2_linear_2343_1036)"/>
<path d="M20.394 57.3297C19.8502 59.7176 19.4009 62.4365 22.593 64.3042C25.7852 62.3183 26.0452 61.0179 24.461 55.7694C22.6166 55.0365 20.8668 55.3438 20.4176 57.3297H20.394Z" fill="url(#paint3_linear_2343_1036)"/>
<path d="M42.1003 63.1237V56.0783C40.1851 55.0854 38.388 55.1563 37.9151 56.8112C37.3949 58.608 37.4185 60.8304 38.0333 62.5799C38.5771 64.1876 40.4215 64.0458 42.1003 63.1237Z" fill="url(#paint4_linear_2343_1036)"/>
<path d="M90.1233 37.0469V43.8085C91.8021 44.6596 93.2208 44.8961 94.3557 43.4066C95.3016 42.1773 95.2543 38.2999 94.2376 37.1888C93.0316 35.8412 91.6366 35.8885 90.0996 37.0469H90.1233Z" fill="url(#paint5_linear_2343_1036)"/>
<path d="M90.0996 56.1724V63.1704C92.204 63.9979 94.0247 64.0452 94.4503 62.2957C94.8995 60.4752 94.876 58.2529 94.2139 56.527C93.5991 54.943 91.7784 55.1794 90.0996 56.1724Z" fill="url(#paint6_linear_2343_1036)"/>
<path d="M56.3118 36.4798C54.9877 37.331 54.2546 39.9789 54.893 41.9648C55.5315 43.9981 56.7137 45.1329 59.0073 44.1635C60.426 42.083 60.5679 39.8843 59.6221 37.591C59.1019 36.338 57.3759 35.7942 56.3118 36.4798Z" fill="url(#paint7_linear_2343_1036)"/>
<path d="M22.9953 45.3899C23.7756 44.3497 25.0053 43.4276 25.1235 42.411C25.3126 40.6851 25.1234 38.7465 24.4377 37.1861C23.7283 35.5548 21.0328 35.9331 20.5363 37.7299C19.8033 40.2833 19.3776 42.9784 22.9953 45.3899Z" fill="url(#paint8_linear_2343_1036)"/>
<path d="M57.6604 63.6418C59.0555 63.8782 59.6703 62.8143 59.694 61.4667C59.694 60.9702 59.694 60.4737 59.694 59.9772C59.694 59.3153 59.694 58.6533 59.694 57.9913C59.6467 56.7619 59.3866 55.6744 57.8733 55.4853C56.5018 55.3198 55.5088 55.9108 55.2723 57.1875C54.9886 58.7715 54.7047 60.4737 55.0358 61.9868C55.1776 62.6961 56.6909 63.429 57.6604 63.6181V63.6418Z" fill="url(#paint9_linear_2343_1036)"/>
<path d="M37.9626 37.9456C37.206 39.8842 36.8276 41.9174 38.2227 43.6197C39.2867 44.92 40.8237 44.8964 42.2424 43.6433V36.7161C39.9725 35.9359 38.672 36.1488 37.9626 37.9456Z" fill="url(#paint10_linear_2343_1036)"/>
<path d="M74.2816 44.3982C75.6294 44.8474 76.9771 44.3037 77.4736 42.7906C77.7337 42.034 77.7102 41.1592 77.6865 41.2065C77.6865 39.8353 77.7102 39.3152 77.6865 38.8187C77.5683 37.2584 76.6934 36.3127 75.1564 36.2417C73.5485 36.1945 72.7683 37.2583 72.65 38.7714C72.5554 39.9299 72.4136 41.1593 72.6737 42.2468C72.8629 43.0506 73.5485 44.1382 74.2579 44.3746L74.2816 44.3982Z" fill="url(#paint11_linear_2343_1036)"/>
<path d="M38.1034 76.0787C37.134 78.041 37.2048 80.9017 38.5999 82.2493C39.6876 83.3132 41.0118 83.2186 42.1704 82.0365V75.133C40.397 74.5656 39.0256 74.211 38.1034 76.0551V76.0787Z" fill="url(#paint12_linear_2343_1036)"/>
<path d="M55.8858 82.5094C57.9666 83.1241 59.5982 83.2186 59.6928 80.7362C59.7401 78.7976 60.3548 76.7407 58.9833 74.9912C54.6089 74.9912 54.3961 75.4877 55.8858 82.5094Z" fill="url(#paint13_linear_2343_1036)"/>
<defs>
<linearGradient id="paint0_linear_2343_1036" x1="0.816261" y1="51.4203" x2="114.22" y2="51.4203" gradientUnits="userSpaceOnUse">
<stop stop-color="#AE8ABE"/>
<stop offset="1" stop-color="#8390C8"/>
</linearGradient>
<linearGradient id="paint1_linear_2343_1036" x1="65.4856" y1="59.5762" x2="84.0473" y2="59.5762" gradientUnits="userSpaceOnUse">
<stop stop-color="#AE8ABE"/>
<stop offset="1" stop-color="#8390C8"/>
</linearGradient>
<linearGradient id="paint2_linear_2343_1036" x1="19.9686" y1="78.8461" x2="25.2653" y2="78.8461" gradientUnits="userSpaceOnUse">
<stop stop-color="#AE8ABE"/>
<stop offset="1" stop-color="#8390C8"/>
</linearGradient>
<linearGradient id="paint3_linear_2343_1036" x1="19.9921" y1="59.8595" x2="25.3832" y2="59.8595" gradientUnits="userSpaceOnUse">
<stop stop-color="#AE8ABE"/>
<stop offset="1" stop-color="#8390C8"/>
</linearGradient>
<linearGradient id="paint4_linear_2343_1036" x1="37.5604" y1="59.6247" x2="42.1003" y2="59.6247" gradientUnits="userSpaceOnUse">
<stop stop-color="#AE8ABE"/>
<stop offset="1" stop-color="#8390C8"/>
</linearGradient>
<linearGradient id="paint5_linear_2343_1036" x1="90.1233" y1="40.3332" x2="95.0415" y2="40.3332" gradientUnits="userSpaceOnUse">
<stop stop-color="#AE8ABE"/>
<stop offset="1" stop-color="#8390C8"/>
</linearGradient>
<linearGradient id="paint6_linear_2343_1036" x1="90.0996" y1="59.5532" x2="94.7577" y2="59.5532" gradientUnits="userSpaceOnUse">
<stop stop-color="#AE8ABE"/>
<stop offset="1" stop-color="#8390C8"/>
</linearGradient>
<linearGradient id="paint7_linear_2343_1036" x1="54.6566" y1="40.3572" x2="60.2132" y2="40.3572" gradientUnits="userSpaceOnUse">
<stop stop-color="#AE8ABE"/>
<stop offset="1" stop-color="#8390C8"/>
</linearGradient>
<linearGradient id="paint8_linear_2343_1036" x1="20.0397" y1="40.7797" x2="25.1944" y2="40.7797" gradientUnits="userSpaceOnUse">
<stop stop-color="#AE8ABE"/>
<stop offset="1" stop-color="#8390C8"/>
</linearGradient>
<linearGradient id="paint9_linear_2343_1036" x1="54.8939" y1="59.5753" x2="59.7176" y2="59.5753" gradientUnits="userSpaceOnUse">
<stop stop-color="#AE8ABE"/>
<stop offset="1" stop-color="#8390C8"/>
</linearGradient>
<linearGradient id="paint10_linear_2343_1036" x1="37.2769" y1="40.428" x2="42.2424" y2="40.428" gradientUnits="userSpaceOnUse">
<stop stop-color="#AE8ABE"/>
<stop offset="1" stop-color="#8390C8"/>
</linearGradient>
<linearGradient id="paint11_linear_2343_1036" x1="72.5318" y1="40.4027" x2="77.7101" y2="40.4027" gradientUnits="userSpaceOnUse">
<stop stop-color="#AE8ABE"/>
<stop offset="1" stop-color="#8390C8"/>
</linearGradient>
<linearGradient id="paint12_linear_2343_1036" x1="37.465" y1="78.8448" x2="42.1704" y2="78.8448" gradientUnits="userSpaceOnUse">
<stop stop-color="#AE8ABE"/>
<stop offset="1" stop-color="#8390C8"/>
</linearGradient>
<linearGradient id="paint13_linear_2343_1036" x1="55.0582" y1="78.9158" x2="59.8583" y2="78.9158" gradientUnits="userSpaceOnUse">
<stop stop-color="#AE8ABE"/>
<stop offset="1" stop-color="#8390C8"/>
</linearGradient>
</defs>
</svg>
