<svg width="117" height="76" viewBox="0 0 117 76" fill="none" xmlns="http://www.w3.org/2000/svg">
<g clip-path="url(#clip0_2343_21)">
<path d="M4.14524 76C3.40735 76 2.71285 75.8622 2.06177 75.5866C1.41068 75.3111 0.911519 74.878 0.542571 74.3269C0.173623 73.756 0 73.1458 0 72.4766V3.52344C0 2.49987 0.390651 1.65346 1.19366 1.00389C1.97496 0.334628 2.97329 0 4.14524 0H18.5342C19.8364 0 20.8564 0.354312 21.616 1.04325C22.3756 1.73219 22.7663 2.55892 22.7663 3.54312C22.7663 4.52732 22.3756 5.35405 21.616 6.08236C20.8564 6.81067 19.8147 7.16498 18.5342 7.16498H8.3773V68.8941H18.5342C19.3806 68.8941 20.1185 69.0515 20.7696 69.3862C21.4207 69.7208 21.9199 70.1735 22.2454 70.7247C22.5927 71.2955 22.7446 71.8664 22.7446 72.4963C22.7446 73.4608 22.3539 74.3072 21.5943 74.9961C20.8347 75.6851 19.793 76.0394 18.5125 76.0394H4.14524V76Z" fill="url(#paint0_linear_2343_21)"/>
<path d="M116.458 1.69283C116.089 1.12199 115.59 0.708625 114.939 0.433048C114.266 0.137788 113.55 0 112.768 0H98.3794C97.1423 0 96.144 0.354312 95.3627 1.04325C94.5814 1.73219 94.2124 2.55892 94.2124 3.54312C94.2124 4.15333 94.386 4.74385 94.7116 5.31469C95.0588 5.88552 95.5363 6.31857 96.1874 6.6532C96.8385 6.98783 97.5546 7.1453 98.336 7.1453H108.58V34.4667H78.3042C76.9153 34.4667 75.8301 34.8014 75.0054 35.51C74.2024 36.1989 73.79 37.0256 73.79 38.0098C73.79 38.994 74.2024 39.8208 75.0054 40.5097C75.8084 41.1987 76.9153 41.553 78.3042 41.553H108.58V68.8744H98.336C97.0989 68.8744 96.1006 69.2287 95.341 69.957C94.5814 70.6656 94.1907 71.5121 94.1907 72.4963C94.1907 73.4805 94.5814 74.3072 95.341 74.9961C96.1006 75.6851 97.0989 76.0394 98.336 76.0394H112.725C113.962 76.0394 114.982 75.7047 115.763 75.0355C116.545 74.3662 116.957 73.5198 116.957 72.4963V3.52344C116.957 2.85418 116.783 2.24398 116.414 1.67314L116.458 1.69283Z" fill="url(#paint1_linear_2343_21)"/>
<path d="M56.514 33.0102H58.4889C59.8562 33.0102 60.9196 33.3842 61.6575 34.1321C62.3954 34.8801 62.7644 35.9628 62.7644 37.3603C62.7644 38.0493 63.0031 38.6004 63.4589 39.0532C63.9146 39.4862 64.5006 39.7027 65.1951 39.7027C65.8462 39.7027 66.4104 39.4862 66.8662 39.0532C67.322 38.6201 67.5607 38.0493 67.5607 37.3603C67.5607 35.5888 67.1918 34.014 66.4322 32.6362C65.6726 31.2583 64.6091 30.1953 63.2418 29.4473C62.1133 28.8371 60.8328 28.4828 59.4004 28.3647C60.0081 27.2034 60.312 26.0223 60.2902 24.8216C60.2685 23.365 59.7911 22.0068 58.8579 20.7273C57.9246 19.4479 56.6225 18.3652 54.9079 17.4795C54.2569 17.1448 53.6058 17.0464 52.9547 17.1842C52.3036 17.322 51.8261 17.6566 51.5006 18.1684C51.1534 18.6999 51.0665 19.2707 51.2619 19.8612C51.4572 20.4518 51.8695 20.9045 52.5206 21.2588C53.8662 21.9674 54.6909 22.7942 55.0382 23.739C55.3854 24.7035 55.2118 25.7074 54.5173 26.79L53.519 28.345H47.7026C46.7043 28.345 45.9013 28.0695 45.3153 27.538C45.0332 27.3018 44.8161 26.9868 44.6425 26.6522C47.529 25.7271 49.6125 23.2666 49.6125 20.3336C49.6125 18.5424 48.8529 16.8299 47.4422 15.5701C46.0532 14.2907 44.1867 13.582 42.1901 13.582C40.1934 13.582 38.327 14.271 36.938 15.5504C35.5273 16.8299 34.746 18.503 34.746 20.314C34.746 23.1681 36.6993 25.609 39.4772 26.5932C39.3036 26.9672 39.0649 27.2821 38.761 27.5577C38.1534 28.0892 37.3503 28.345 36.352 28.345H30.5357L29.559 26.79C28.8645 25.7074 28.6909 24.6838 29.0382 23.739C29.3854 22.7942 30.2318 21.9477 31.5557 21.2588C32.2068 20.9242 32.6408 20.4518 32.8145 19.8612C32.9881 19.2707 32.923 18.7196 32.5757 18.1684C32.2502 17.6566 31.751 17.322 31.1216 17.1842C30.4705 17.0464 29.8195 17.1448 29.1684 17.4795C27.4756 18.3652 26.1517 19.4479 25.2185 20.7273C24.2852 22.0068 23.8078 23.365 23.7861 24.8216C23.7644 26.0223 24.0682 27.2034 24.6759 28.3647C23.2652 28.4631 21.9847 28.8175 20.8345 29.4277C19.4672 30.1757 18.3821 31.2386 17.6442 32.6165C16.8846 33.9944 16.5156 35.5691 16.5156 37.3406C16.5156 38.0296 16.7544 38.5807 17.2101 39.0335C17.6659 39.4665 18.2301 39.683 18.8812 39.683C19.5757 39.683 20.14 39.4665 20.6175 39.0335C21.0732 38.6004 21.312 38.0296 21.312 37.3406C21.312 35.9431 21.6809 34.8605 22.4188 34.1125C23.1567 33.3645 24.2201 32.9905 25.5874 32.9905H27.5624L30.4705 37.5769C30.9697 38.3642 31.1216 39.1122 30.9046 39.8602C30.8178 40.1948 30.6225 40.5295 30.3837 40.8247C28.0615 39.0335 24.6542 38.6201 21.8762 40.0767C20.1617 40.9822 18.9246 42.4191 18.4038 44.171C17.8829 45.9032 18.1433 47.7141 19.12 49.2888C20.1183 50.8636 21.7026 51.9856 23.6342 52.4383C25.544 52.9107 27.5624 52.6745 29.2769 51.769C32.0115 50.3518 33.3353 47.596 32.9013 44.919C33.357 44.8599 33.7694 44.8993 34.16 44.9977C34.963 45.2143 35.6141 45.7064 36.1133 46.4937L39.0215 51.0801L38.0448 52.6351C37.3503 53.7177 36.4605 54.3673 35.3754 54.5642C34.2902 54.761 33.0749 54.5248 31.7293 53.8162C31.0782 53.4815 30.4271 53.3831 29.7761 53.5209C29.125 53.6587 28.6258 54.013 28.2786 54.5445C27.953 55.0563 27.8879 55.6074 28.0615 56.1979C28.2569 56.7885 28.6692 57.2412 29.3203 57.5955C31.0131 58.4813 32.7059 58.9734 34.3988 59.0718C36.0916 59.1702 37.6325 58.8553 39.0432 58.1467C40.1934 57.5561 41.17 56.7294 41.9948 55.6665C42.7978 56.7294 43.7744 57.5561 44.9463 58.1467C46.357 58.8553 47.8979 59.1702 49.5907 59.0718C51.2836 58.9734 52.9764 58.4813 54.6692 57.5955C55.3203 57.2609 55.7544 56.7885 55.928 56.1979C56.1233 55.6074 56.0365 55.0759 55.7109 54.5642C55.3637 54.013 54.8645 53.6784 54.2135 53.5406C53.5624 53.4028 52.9113 53.5012 52.2602 53.8359C50.9146 54.5445 49.721 54.7807 48.6358 54.5838C47.5507 54.387 46.6609 53.7374 45.9881 52.6548L45.0114 51.0998L47.9196 46.5331C48.4188 45.7457 49.0699 45.2536 49.8729 45.0568C50.2418 44.9584 50.6325 44.9387 51.0448 44.978C50.4806 47.6944 51.8044 50.5683 54.5824 52.0446C56.2969 52.9501 58.2936 53.1863 60.2251 52.7335C62.135 52.2808 63.741 51.1588 64.7393 49.6038C65.7377 48.0488 65.9981 46.2181 65.4989 44.4859C64.9998 42.7537 63.7627 41.2971 62.0482 40.3917C59.3353 38.9547 56.0148 39.2894 53.6926 40.9625C53.4322 40.6279 53.2368 40.2932 53.1283 39.9193C52.933 39.1713 53.0632 38.4233 53.5624 37.6359L56.4706 33.0692L56.514 33.0102ZM27.0198 48.1865C26.347 48.5408 25.5657 48.6196 24.8278 48.4424C24.0899 48.2653 23.4605 47.8322 23.0699 47.222C22.6792 46.6118 22.5924 45.9032 22.7877 45.2339C22.9831 44.5647 23.4605 43.9938 24.1333 43.6395C25.5223 42.9309 27.2802 43.364 28.0615 44.604C28.8428 45.8638 28.3654 47.4582 26.9981 48.1669L27.0198 48.1865ZM55.8412 44.8403C56.6442 43.6002 58.4021 43.1671 59.7911 43.8954C60.4639 44.2497 60.9413 44.8206 61.1367 45.4898C61.332 46.1591 61.2235 46.8677 60.8545 47.4779C60.4639 48.0881 59.8345 48.5212 59.0966 48.6983C58.3587 48.8755 57.5774 48.7771 56.9046 48.4227C55.5373 47.6944 55.0599 46.1 55.8629 44.8403H55.8412ZM39.3036 20.2943C39.3036 19.6053 39.6074 18.9361 40.15 18.444C40.6926 17.9519 41.4305 17.6763 42.1901 17.6763C42.9497 17.6763 43.6876 17.9519 44.2301 18.444C44.7727 18.9361 45.0766 19.6053 45.0766 20.2943C45.0766 21.7312 43.7744 22.9123 42.1901 22.9123C40.6058 22.9123 39.3036 21.7312 39.3253 20.2943H39.3036ZM49.135 35.2345C48.5056 36.2383 48.2235 37.3013 48.3103 38.4233C48.3971 39.5453 48.8746 40.4901 49.6993 41.2578L49.4822 41.5727C48.3537 41.2971 47.2251 41.4152 46.0966 41.9073C44.968 42.3994 44.0999 43.1474 43.4488 44.1316L42.0165 46.3756L40.5841 44.1316C39.9547 43.1277 39.0649 42.3798 37.9363 41.8877C36.8078 41.3956 35.6792 41.2971 34.5507 41.553L34.3337 41.2381C35.1584 40.4901 35.6141 39.5453 35.7226 38.4036C35.8094 37.2816 35.549 36.2187 34.9196 35.2148L33.4872 32.9708H36.3303C37.6108 32.9708 38.761 32.6558 39.7811 32.0063C40.8228 31.3567 41.4739 30.53 41.7994 29.5064H42.2118C42.5156 30.53 43.1884 31.3764 44.2301 32.0063C45.2502 32.6558 46.4004 32.9708 47.6809 32.9708H50.524L49.0916 35.2148L49.135 35.2345Z" fill="url(#paint2_linear_2343_21)"/>
<path d="M67.344 1.43681C66.4976 0.747867 65.3691 0.393555 63.9367 0.393555H32.0118C30.5794 0.393555 29.4509 0.728183 28.6045 1.43681C27.7581 2.12575 27.3457 2.95248 27.3457 3.93668C27.3457 4.92088 27.7581 5.74761 28.6045 6.43655C29.4509 7.12549 30.5794 7.4798 32.0118 7.4798H37.698V8.03095C37.698 10.1962 39.6512 11.9678 42.0385 11.9678C44.4258 11.9678 46.3791 10.1962 46.3791 8.03095V7.4798H63.9367C65.3691 7.4798 66.4976 7.12549 67.344 6.43655C68.1904 5.74761 68.6028 4.92088 68.6028 3.93668C68.6028 2.95248 68.1904 2.12575 67.344 1.43681Z" fill="url(#paint3_linear_2343_21)"/>
<path d="M67.344 69.5835C66.4976 68.8945 65.3691 68.5402 63.9367 68.5402H46.2489C46.3357 68.245 46.3791 67.93 46.3791 67.6151V64.5247C46.3791 62.3594 44.4258 60.5879 42.0385 60.5879C39.6512 60.5879 37.698 62.3594 37.698 64.5247V67.6151C37.698 67.93 37.7414 68.245 37.8282 68.5402H32.0118C30.5794 68.5402 29.4509 68.8749 28.6045 69.5835C27.7581 70.2724 27.3457 71.0992 27.3457 72.0834C27.3457 73.0676 27.7581 73.8943 28.6045 74.5832C29.4509 75.2722 30.5794 75.6265 32.0118 75.6265H63.9584C65.3908 75.6265 66.5193 75.2722 67.3657 74.5832C68.2121 73.8943 68.6245 73.0676 68.6245 72.0834C68.6245 71.0992 68.2121 70.2724 67.3657 69.5835H67.344Z" fill="url(#paint4_linear_2343_21)"/>
</g>
<defs>
<linearGradient id="paint0_linear_2343_21" x1="-0.282137" y1="38.0689" x2="23.0482" y2="37.9014" gradientUnits="userSpaceOnUse">
<stop stop-color="#AE8ABE"/>
<stop offset="1" stop-color="#8390C8"/>
</linearGradient>
<linearGradient id="paint1_linear_2343_21" x1="73.8334" y1="38.2067" x2="117.282" y2="37.8717" gradientUnits="userSpaceOnUse">
<stop stop-color="#AE8ABE"/>
<stop offset="1" stop-color="#8390C8"/>
</linearGradient>
<linearGradient id="paint2_linear_2343_21" x1="16.5156" y1="36.5139" x2="67.5601" y2="36.1071" gradientUnits="userSpaceOnUse">
<stop stop-color="#AE8ABE"/>
<stop offset="1" stop-color="#8390C8"/>
</linearGradient>
<linearGradient id="paint3_linear_2343_21" x1="27.3457" y1="6.16097" x2="68.6028" y2="6.16097" gradientUnits="userSpaceOnUse">
<stop stop-color="#AE8ABE"/>
<stop offset="1" stop-color="#8390C8"/>
</linearGradient>
<linearGradient id="paint4_linear_2343_21" x1="27.3457" y1="68.0875" x2="68.6028" y2="68.0875" gradientUnits="userSpaceOnUse">
<stop stop-color="#AE8ABE"/>
<stop offset="1" stop-color="#8390C8"/>
</linearGradient>
<clipPath id="clip0_2343_21">
<rect width="117" height="76" fill="white"/>
</clipPath>
</defs>
</svg>
