<svg width="123" height="103" viewBox="0 0 123 103" fill="none" xmlns="http://www.w3.org/2000/svg">
<g clip-path="url(#clip0_2343_43)">
<path d="M4.35782 103C3.58208 103 2.85198 102.86 2.1675 102.581C1.48303 102.302 0.958264 101.863 0.570395 101.305C0.182526 100.727 0 100.108 0 99.4305V29.5739C0 28.5369 0.410684 27.6794 1.25487 27.0014C2.07624 26.3234 3.12577 25.9844 4.35782 25.9844H19.4847C20.8536 25.9844 21.926 26.3433 22.7245 27.0413C23.5231 27.7393 23.9338 28.5768 23.9338 29.5739C23.9338 30.571 23.5231 31.4086 22.7245 32.1464C21.926 32.8843 20.8308 33.2432 19.4847 33.2432H8.8069V95.7811H19.4847C20.3745 95.7811 21.1502 95.9406 21.8347 96.2796C22.5192 96.6186 23.044 97.0773 23.3862 97.6357C23.7513 98.214 23.911 98.7923 23.911 99.4305C23.911 100.408 23.5003 101.265 22.7017 101.963C21.9032 102.661 20.808 103.02 19.4619 103.02H4.35782V103Z" fill="url(#paint0_linear_2343_43)"/>
<path d="M103.424 103C102.124 103 101.074 102.641 100.276 101.943C99.4771 101.245 99.0664 100.407 99.0664 99.4101C99.0664 98.413 99.4771 97.5754 100.276 96.8376C101.074 96.0997 102.124 95.7408 103.424 95.7408H114.193V33.2428H103.424C102.603 33.2428 101.827 33.0833 101.165 32.7443C100.481 32.4053 99.9562 31.9466 99.614 31.3882C99.2489 30.8099 99.0892 30.2117 99.0892 29.5935C99.0892 28.6163 99.4999 27.7588 100.298 27.0608C101.097 26.3629 102.147 26.0039 103.447 26.0039H118.574C119.395 26.0039 120.171 26.1435 120.833 26.4227C121.517 26.7019 122.042 27.1406 122.43 27.699C122.818 28.2773 123 28.8955 123 29.5735V99.43C123 100.467 122.59 101.325 121.745 102.003C120.924 102.681 119.852 103.02 118.551 103.02H103.424V103Z" fill="url(#paint1_linear_2343_43)"/>
<path d="M45.0154 103C43.5324 103 42.3459 102.641 41.4561 101.943C40.5891 101.245 40.1328 100.408 40.1328 99.4108C40.1328 98.4137 40.5663 97.5762 41.4561 96.8782C42.3231 96.1802 43.5096 95.8213 45.0154 95.8213H78.258C79.741 95.8213 80.9275 96.1603 81.8173 96.8782C82.6843 97.5762 83.1406 98.4137 83.1406 99.4108C83.1406 100.408 82.7071 101.245 81.8173 101.943C80.9503 102.641 79.7639 103 78.258 103H45.0154Z" fill="url(#paint2_linear_2343_43)"/>
<path d="M118.916 50.7121H4.76807C2.87436 50.7121 1.3457 49.376 1.3457 47.7208C1.3457 46.0656 2.87436 44.7295 4.76807 44.7295H118.916C120.809 44.7295 122.338 46.0656 122.338 47.7208C122.338 49.376 120.809 50.7121 118.916 50.7121Z" fill="url(#paint3_linear_2343_43)"/>
<path d="M61.8081 55.0795C77.9497 55.0795 91.0351 43.6423 91.0351 29.5339C91.0351 15.4254 77.9497 3.98828 61.8081 3.98828C45.6664 3.98828 32.5811 15.4254 32.5811 29.5339C32.5811 43.6423 45.6664 55.0795 61.8081 55.0795Z" fill="black"/>
<path d="M61.8078 59.0879C43.1673 59.0879 28.0176 45.8265 28.0176 29.5539C28.0176 13.2813 43.1673 0 61.8078 0C80.4483 0 95.598 13.2614 95.598 29.534C95.598 45.8066 80.4255 59.068 61.8078 59.068V59.0879ZM61.8078 3.98838C45.677 3.98838 32.5807 15.455 32.5807 29.534C32.5807 43.613 45.6998 55.0796 61.8078 55.0796C77.9157 55.0796 91.0348 43.613 91.0348 29.534C91.0348 15.455 77.9157 3.98838 61.8078 3.98838Z" fill="url(#paint4_linear_2343_43)"/>
<path d="M76.8669 24.5284H78.9431C80.3805 24.5284 81.4985 24.9073 82.2743 25.6651C83.05 26.4229 83.4379 27.5197 83.4379 28.9355C83.4379 29.6335 83.6888 30.1919 84.168 30.6505C84.6471 31.0893 85.2631 31.3086 85.9932 31.3086C86.6777 31.3086 87.2709 31.0893 87.75 30.6505C88.2292 30.2118 88.4802 29.6335 88.4802 28.9355C88.4802 27.1408 88.0923 25.5454 87.2937 24.1495C86.4952 22.7535 85.3772 21.6767 83.9398 20.9189C82.7534 20.3007 81.4073 19.9417 79.9014 19.8221C80.5403 18.6455 80.8597 17.449 80.8369 16.2325C80.814 14.7568 80.3121 13.3808 79.331 12.0846C78.3499 10.7884 76.981 9.69159 75.1785 8.7942C74.4941 8.45519 73.8096 8.35548 73.1251 8.49507C72.4406 8.63467 71.9387 8.97368 71.5965 9.49217C71.2314 10.0306 71.1401 10.6089 71.3455 11.2072C71.5508 11.8054 71.9843 12.2641 72.6688 12.623C74.0834 13.341 74.9504 14.1785 75.3154 15.1357C75.6805 16.1129 75.498 17.1299 74.7679 18.2267L73.7183 19.8021H67.6037C66.5542 19.8021 65.71 19.523 65.094 18.9845C64.7974 18.7452 64.5692 18.4261 64.3867 18.0871C67.4212 17.1499 69.6115 14.6571 69.6115 11.6858C69.6115 9.87107 68.8129 8.13612 67.3299 6.85984C65.8697 5.56361 63.9075 4.8457 61.8085 4.8457C59.7094 4.8457 57.7473 5.54367 56.2871 6.83989C54.804 8.13612 53.9827 9.83118 53.9827 11.6658C53.9827 14.5574 56.0361 17.0302 58.9565 18.0273C58.774 18.4062 58.523 18.7253 58.2036 19.0045C57.5647 19.5429 56.7206 19.8021 55.671 19.8021H49.5564L48.5297 18.2267C47.7996 17.1299 47.6171 16.0929 47.9821 15.1357C48.3472 14.1785 49.237 13.321 50.6287 12.623C51.3132 12.284 51.7695 11.8054 51.9521 11.2072C52.1346 10.6089 52.0661 10.0505 51.7011 9.49217C51.3588 8.97368 50.8341 8.63467 50.1724 8.49507C49.4879 8.35548 48.8035 8.45519 48.119 8.7942C46.3394 9.69159 44.9476 10.7884 43.9665 12.0846C42.9854 13.3808 42.4835 14.7568 42.4607 16.2325C42.4379 17.449 42.7573 18.6455 43.3961 19.8221C41.9131 19.9218 40.567 20.2807 39.3577 20.8989C37.9203 21.6567 36.7795 22.7336 36.0038 24.1295C35.2053 25.5255 34.8174 27.1208 34.8174 28.9156C34.8174 29.6136 35.0684 30.1719 35.5475 30.6306C36.0266 31.0693 36.6198 31.2887 37.3043 31.2887C38.0344 31.2887 38.6276 31.0693 39.1296 30.6306C39.6087 30.1919 39.8597 29.6136 39.8597 28.9156C39.8597 27.4997 40.2475 26.4029 41.0233 25.6451C41.799 24.8873 42.917 24.5084 44.3544 24.5084H46.4306L49.4879 29.1549C50.0127 29.9526 50.1724 30.7104 49.9443 31.4682C49.853 31.8072 49.6477 32.1462 49.3967 32.4453C46.9554 30.6306 43.3733 30.2118 40.4529 31.6875C38.6504 32.6048 37.3499 34.0606 36.8024 35.8354C36.2548 37.5903 36.5286 39.425 37.5553 41.0203C38.6048 42.6157 40.2704 43.7524 42.301 44.211C44.3088 44.6896 46.4306 44.4503 48.2331 43.533C51.1079 42.0972 52.4996 39.3053 52.0433 36.5932C52.5224 36.5334 52.9559 36.5733 53.3666 36.673C54.2108 36.8924 54.8953 37.3909 55.4201 38.1886L58.4774 42.835L57.4507 44.4105C56.7206 45.5073 55.7851 46.1653 54.6443 46.3648C53.5035 46.5642 52.2258 46.3249 50.8113 45.607C50.1268 45.268 49.4423 45.1683 48.7578 45.3078C48.0734 45.4474 47.5486 45.8064 47.1835 46.3448C46.8413 46.8633 46.7729 47.4217 46.9554 48.0199C47.1607 48.6182 47.5942 49.0769 48.2787 49.4358C50.0583 50.3332 51.838 50.8318 53.6176 50.9315C55.3972 51.0312 57.0172 50.7121 58.5002 49.9942C59.7094 49.3959 60.7361 48.5584 61.6031 47.4815C62.4473 48.5584 63.474 49.3959 64.7061 49.9942C66.1891 50.7121 67.809 51.0312 69.5887 50.9315C71.3683 50.8318 73.1479 50.3332 74.9276 49.4358C75.612 49.0968 76.0684 48.6182 76.2509 48.0199C76.4562 47.4217 76.365 46.8833 76.0227 46.3648C75.6577 45.8064 75.1329 45.4674 74.4484 45.3278C73.764 45.1882 73.0795 45.2879 72.395 45.6269C70.9804 46.3448 69.7256 46.5841 68.5848 46.3847C67.444 46.1853 66.5085 45.5272 65.8012 44.4304L64.7745 42.855L67.8319 38.2285C68.3566 37.4308 69.0411 36.9322 69.8853 36.7328C70.2731 36.6331 70.6838 36.6132 71.1173 36.6531C70.5241 39.405 71.9159 42.3166 74.8363 43.8122C76.6388 44.7295 78.7378 44.9688 80.7684 44.5102C82.7762 44.0515 84.4646 42.9148 85.5141 41.3394C86.5636 39.764 86.8374 37.9094 86.3127 36.1545C85.7879 34.3996 84.4874 32.9239 82.6849 32.0066C79.833 30.5508 76.3421 30.8898 73.9009 32.5849C73.6271 32.2459 73.4217 31.9069 73.3076 31.528C73.1023 30.7702 73.2392 30.0124 73.764 29.2147L76.8213 24.5882L76.8669 24.5284ZM45.8602 39.9036C45.1529 40.2625 44.3316 40.3423 43.5558 40.1628C42.7801 39.9834 42.1184 39.5446 41.7078 38.9264C41.2971 38.3082 41.2058 37.5903 41.4111 36.9123C41.6165 36.2343 42.1184 35.656 42.8257 35.297C44.2859 34.5791 46.134 35.0178 46.9554 36.2742C47.7768 37.5504 47.2748 39.1657 45.8374 39.8836L45.8602 39.9036ZM76.1596 36.5135C77.0038 35.2571 78.8519 34.8184 80.3121 35.5562C81.0194 35.9152 81.5213 36.4935 81.7267 37.1715C81.932 37.8496 81.8179 38.5675 81.4301 39.1857C81.0194 39.8039 80.3577 40.2426 79.582 40.4221C78.8063 40.6016 77.9849 40.5018 77.2776 40.1429C75.8402 39.405 75.3382 37.7897 76.1824 36.5135H76.1596ZM58.774 11.6459C58.774 10.9479 59.0934 10.2699 59.6638 9.77136C60.2342 9.27281 61.0099 8.99362 61.8085 8.99362C62.607 8.99362 63.3828 9.27281 63.9532 9.77136C64.5236 10.2699 64.843 10.9479 64.843 11.6459C64.843 13.1017 63.474 14.2982 61.8085 14.2982C60.1429 14.2982 58.774 13.1017 58.7968 11.6459H58.774ZM69.1095 26.7818C68.4479 27.7988 68.1513 28.8757 68.2425 30.0124C68.3338 31.1491 68.8357 32.1063 69.7027 32.884L69.4746 33.2031C68.2882 32.9239 67.1017 33.0436 65.9153 33.5421C64.7289 34.0407 63.8163 34.7985 63.1318 35.7956L61.626 38.0689L60.1201 35.7956C59.4585 34.7785 58.523 34.0207 57.3366 33.5222C56.1502 33.0236 54.9637 32.9239 53.7773 33.1832L53.5492 32.8641C54.4162 32.1063 54.8953 31.1491 55.0094 29.9925C55.1006 28.8558 54.8268 27.7789 54.1652 26.7619L52.6593 24.4885H55.6482C56.9943 24.4885 58.2036 24.1694 59.2759 23.5113C60.3711 22.8533 61.0556 22.0157 61.3978 20.9787H61.8313C62.1507 22.0157 62.858 22.8732 63.9532 23.5113C65.0255 24.1694 66.2347 24.4885 67.5809 24.4885H70.5697L69.0639 26.7619L69.1095 26.7818Z" fill="url(#paint5_linear_2343_43)"/>
<path d="M61.8079 91.9526C60.8724 91.9526 60.0967 91.6934 59.4807 91.1749C58.8646 90.6564 58.568 90.0382 58.568 89.2804V80.1869H48.8713C47.8218 80.1869 47.0004 79.9077 46.3616 79.3493C45.7227 78.791 45.4033 78.1329 45.4033 77.3352C45.4033 76.5375 45.7227 75.8794 46.3616 75.3211C47.0004 74.7627 47.8446 74.4835 48.8713 74.4835H58.568V65.39C58.568 64.6521 58.8646 64.014 59.4807 63.4955C60.0967 62.977 60.8724 62.7178 61.8079 62.7178C62.789 62.7178 63.6103 62.977 64.2035 63.4955C64.8196 64.014 65.1162 64.6322 65.1162 65.39V74.4835H74.7444C75.8396 74.4835 76.6838 74.7627 77.3226 75.3211C77.9615 75.8794 78.2809 76.5575 78.2809 77.3352C78.2809 78.1129 77.9615 78.791 77.3226 79.3493C76.6838 79.9077 75.8168 80.1869 74.7444 80.1869H65.1162V89.2804C65.1162 90.0183 64.8196 90.6564 64.2035 91.1749C63.5875 91.6934 62.789 91.9526 61.8079 91.9526Z" fill="url(#paint6_linear_2343_43)"/>
</g>
<defs>
<linearGradient id="paint0_linear_2343_43" x1="-0.296605" y1="64.572" x2="24.2301" y2="64.3893" gradientUnits="userSpaceOnUse">
<stop stop-color="#AE8ABE"/>
<stop offset="1" stop-color="#8390C8"/>
</linearGradient>
<linearGradient id="paint1_linear_2343_43" x1="98.7698" y1="64.5716" x2="123.296" y2="64.3888" gradientUnits="userSpaceOnUse">
<stop stop-color="#AE8ABE"/>
<stop offset="1" stop-color="#8390C8"/>
</linearGradient>
<linearGradient id="paint2_linear_2343_43" x1="40.1556" y1="99.5704" x2="83.117" y2="99.2049" gradientUnits="userSpaceOnUse">
<stop stop-color="#AE8ABE"/>
<stop offset="1" stop-color="#8390C8"/>
</linearGradient>
<linearGradient id="paint3_linear_2343_43" x1="1.3457" y1="47.7208" x2="122.338" y2="47.7208" gradientUnits="userSpaceOnUse">
<stop stop-color="#AE8ABE"/>
<stop offset="1" stop-color="#8390C8"/>
</linearGradient>
<linearGradient id="paint4_linear_2343_43" x1="27.9948" y1="29.534" x2="95.598" y2="29.534" gradientUnits="userSpaceOnUse">
<stop stop-color="#AE8ABE"/>
<stop offset="1" stop-color="#8390C8"/>
</linearGradient>
<linearGradient id="paint5_linear_2343_43" x1="34.7946" y1="28.0581" x2="88.4565" y2="27.6143" gradientUnits="userSpaceOnUse">
<stop stop-color="#AE8ABE"/>
<stop offset="1" stop-color="#8390C8"/>
</linearGradient>
<linearGradient id="paint6_linear_2343_43" x1="45.3805" y1="77.3551" x2="78.2809" y2="77.3551" gradientUnits="userSpaceOnUse">
<stop stop-color="#AE8ABE"/>
<stop offset="1" stop-color="#8390C8"/>
</linearGradient>
<clipPath id="clip0_2343_43">
<rect width="123" height="103" fill="white"/>
</clipPath>
</defs>
</svg>
