<svg width="92" height="81" viewBox="0 0 92 81" fill="none" xmlns="http://www.w3.org/2000/svg">
<path d="M7.21891 39.9062C7.28374 39.377 7.33237 38.9908 7.38099 38.6046C7.49445 37.5462 6.91096 35.9871 8.38586 35.7011C10.1849 35.3435 12.1623 35.558 14.0424 35.7297C14.3827 35.7583 14.7879 36.6737 14.8689 37.2172C15.0148 38.0897 14.9014 39.0051 14.9014 39.8633C16.2466 40.7215 17.4135 41.4652 18.6291 42.2375C18.7264 42.166 18.9371 42.0945 19.0019 41.9515C20.7847 38.2041 21.5627 37.7321 26.1171 37.7321C30.4283 37.7321 34.7234 37.7321 39.375 37.7321C38.8725 35.1003 38.4187 32.6974 37.9325 30.0657C42.6651 28.7355 47.3005 28.1776 51.9521 27.4053C53.8322 30.6807 53.7998 34.1706 55.0154 37.6034C56.0203 37.6463 57.1224 37.7321 58.2245 37.7321C67.4305 37.7321 76.6527 37.7321 85.8586 37.7321C89.1812 37.7321 90.6561 38.5903 91.5799 41.0361C91.8393 41.7512 91.8879 42.6094 91.7096 43.3389C90.5751 48.0303 89.3433 52.6931 88.1439 57.3702C86.3124 64.4788 84.481 71.5875 82.6333 78.6818C82.4874 79.2539 82.1957 79.7974 81.9039 80.4982C80.9963 80.5697 80.1049 80.6985 79.2297 80.6985C58.8728 80.6985 38.516 80.6555 18.1591 80.7557C14.8041 80.77 11.676 78.9964 10.6549 75.7925C7.59169 66.0665 4.36636 56.3833 1.2869 46.6715C-0.0421332 42.4664 1.31931 40.8359 6.29507 40.2065C6.50577 40.1779 6.71648 40.0778 7.20271 39.9204L7.21891 39.9062ZM18.5643 47.5011C17.997 46.1566 17.4784 45.1554 17.1704 44.1113C16.7976 42.8669 15.9549 42.1803 14.5448 42.166C11.4815 42.1231 8.40207 42.0659 5.33882 42.166C3.37769 42.2376 2.47005 43.3389 2.87524 45.0266C3.18319 46.2996 3.70184 47.5154 4.10703 48.7598C6.91096 57.4989 9.66627 66.2524 12.5188 74.9916C13.5561 78.1669 14.6258 78.7961 18.4022 78.7961C38.0621 78.7961 57.7383 78.7961 77.3982 78.7961C78.1276 78.7961 78.8569 78.6103 79.7483 78.4958C76.8147 69.3419 73.9946 60.4025 71.0772 51.4773C70.0886 48.4308 68.5488 47.5154 64.8859 47.5154C50.7852 47.5154 36.7007 47.5154 22.6 47.5154H18.5643V47.5011ZM42.9082 42.9956C46.7008 42.2805 50.072 41.6511 53.6702 40.9646C52.6977 37.0026 51.7739 33.2409 50.7852 29.279C47.1222 30.0799 43.6376 30.2373 40.1367 31.496C41.0606 35.3435 41.9358 39.0051 42.892 42.9813L42.9082 42.9956ZM9.55282 37.4317L9.81215 40.0492H12.7295L12.535 37.4317H9.55282Z" fill="url(#paint0_linear_2406_7)"/>
<path d="M61.7419 20.5544C56.8147 19.5675 52.3576 17.9942 47.4629 16.664C48.8892 11.1001 51.1745 6.07969 53.1518 0.644531C58.241 2.07484 62.8116 3.37642 67.5766 4.72091C65.7938 10.2133 64.1082 15.3481 61.7419 20.5544ZM60.5263 18.4948C62.0984 14.2754 63.6382 10.1561 65.2103 5.92236C61.4177 4.83533 57.9979 3.84842 54.3187 2.78999C52.779 7.12382 51.3203 11.2574 49.7806 15.5769C53.4922 16.5924 56.8309 17.4935 60.5263 18.4948Z" fill="url(#paint1_linear_2406_7)"/>
<path d="M27.0415 29.6792C22.1306 31.324 17.7221 32.7973 13.0381 34.3706C10.1045 29.4217 8.48368 24.244 6.00391 19.052C10.4772 16.8351 15.2099 15.8767 19.8291 14.0889C21.9361 16.3774 22.4223 19.1951 23.6379 21.6981C24.821 24.1582 25.7935 26.7042 27.0415 29.6649V29.6792ZM13.816 32.2395C17.5114 30.9951 20.9474 29.8508 24.5131 28.6494C22.6654 24.3441 20.9474 20.3679 19.1483 16.1914C15.534 17.4215 12.1953 18.5514 8.59715 19.7815C10.38 24.0295 12.0332 27.9342 13.8322 32.2251L13.816 32.2395Z" fill="url(#paint2_linear_2406_7)"/>
<path d="M79.9269 4.24902C81.6774 5.33606 83.0388 6.16564 84.7406 7.20977C83.3468 8.92613 82.115 10.4137 80.6563 12.1872C79.0355 11.1431 77.6417 10.242 76.0371 9.21219C77.3823 7.49582 78.5169 6.03691 79.9269 4.24902ZM82.0988 7.33849C79.2786 7.52443 79.0679 7.69607 79.4731 9.26941C79.5218 9.44105 79.9432 9.54115 80.2349 9.69849L82.0826 7.33849H82.0988Z" fill="url(#paint3_linear_2406_7)"/>
<path d="M66.9287 24.301C68.9385 23.6574 70.3809 23.1997 72.1962 22.6133C73.0228 24.5156 73.7684 26.232 74.5625 28.0198C73.1039 29.1641 71.4345 29.3786 69.7164 29.822C68.0795 28.3345 67.6418 26.4322 66.9287 24.301ZM70.9806 24.959C69.133 25.8744 69.8299 26.7325 70.381 27.5478C70.462 27.6622 70.7375 27.6908 70.9806 27.7767L72.0179 27.1616C71.6938 26.4608 71.402 25.8601 70.9806 24.959Z" fill="url(#paint4_linear_2406_7)"/>
<path d="M29.1645 11.8724C27.8679 11.0143 26.7009 10.2419 25.4043 9.398C25.9392 7.40988 27.7706 6.27995 29.0186 4.40625C30.6232 5.32165 32.0657 6.15123 33.654 7.05232C32.3574 9.05475 31.4984 10.9857 29.1645 11.8724ZM28.0137 8.89739C29.2455 9.76987 29.8938 9.24068 30.3801 8.46831C30.8663 7.69595 30.4935 7.13811 29.4238 6.70902C28.9538 7.43848 28.4838 8.16796 28.0299 8.88311L28.0137 8.89739Z" fill="url(#paint5_linear_2406_7)"/>
<path d="M4.83668 9.32613C3.13487 7.05194 2.85934 6.32248 2.69727 3.64781C4.05871 3.20441 5.50119 2.7324 7.0085 2.24609C8.82377 3.83373 8.82377 5.8791 9.68278 7.99595C7.91614 8.48226 6.34399 8.91134 4.85288 9.32613H4.83668ZM6.42503 4.39155C5.43636 4.66331 4.56115 4.94938 4.95013 6.00781C5.27429 6.88029 5.97121 7.26646 7.05713 6.75155L6.40882 4.39155H6.42503Z" fill="url(#paint6_linear_2406_7)"/>
<path d="M50.1537 67.1824C48.7275 67.6258 47.8036 67.9119 46.6529 68.2838L46.4584 70.0287C47.9171 70.1574 49.2461 70.2862 50.6076 70.4006C51.7259 71.3017 51.9204 72.3029 51.4666 73.6331C50.9803 75.0777 50.0889 76.1504 48.6302 76.8513C48.144 77.0801 47.5605 77.2518 47.0094 77.2947C42.4875 77.6523 37.9493 77.8954 33.4598 77.1374C31.0125 76.7226 29.3917 75.3923 28.5975 73.3327C27.3657 70.1145 26.1988 66.8678 24.9346 63.478C26.5878 62.3337 26.5553 60.9749 25.9232 59.2871C25.4208 57.9283 24.8211 56.4837 25.4046 54.8961C26.6688 51.4204 29.8617 49.2321 34.0433 49.2178C36.3934 49.2178 38.5814 49.7327 40.4453 50.9485C42.2282 52.107 43.622 53.38 44.2541 55.5541C44.7404 57.2132 46.0046 58.6864 45.5832 60.8748C44.6107 61.0178 43.6545 61.218 42.682 61.2896C41.2719 61.3754 40.2995 60.9034 39.9753 59.5446C39.7808 58.6721 39.3756 57.8282 39.0191 56.9844C38.3545 55.411 36.8796 54.6958 35.1454 54.3526C33.1195 53.9521 31.0935 55.7257 31.5149 57.6423C31.8553 59.2013 32.4712 60.7032 33.0222 62.4052H47.9981C48.6788 63.9357 49.3271 65.3802 50.1375 67.1967L50.1537 67.1824ZM38.6949 75.6784C38.3221 74.3626 38.079 73.4901 37.8359 72.6748C37.0417 72.2457 36.1827 71.931 35.5506 71.4018C34.3026 70.3434 34.3188 68.7272 35.4047 67.5973C36.361 66.6103 38.4356 66.2814 39.7808 66.8821C41.1261 67.4971 41.823 69.1848 41.1747 70.4721C40.8181 71.1873 40.2833 71.8309 39.8619 72.4746L40.7857 75.6498C42.7792 75.6498 44.6917 75.7643 46.588 75.6213C48.2899 75.4925 49.0678 74.5199 49.473 72.2886C48.0629 72.1313 46.5556 71.6449 45.2428 71.9024C43.8652 72.1742 42.682 73.1754 41.3692 73.8905C41.045 71.5592 41.2881 71.1873 44.0759 69.8142C44.2379 68.8273 44.0759 67.683 44.6431 66.9107C45.1131 66.2527 46.3611 66.0095 47.366 65.5518C47.1067 65.2229 46.8474 64.6365 46.588 64.6365C40.2833 64.5793 33.9623 64.5936 27.4468 64.5936C28.4516 67.3541 29.3269 70.043 30.3966 72.6605C31.207 74.6343 32.8925 75.6927 35.3561 75.6784C36.361 75.6784 37.3659 75.6784 38.7111 75.6784H38.6949Z" fill="url(#paint7_linear_2406_7)"/>
<defs>
<linearGradient id="paint0_linear_2406_7" x1="0.816873" y1="54.0662" x2="91.8231" y2="54.0662" gradientUnits="userSpaceOnUse">
<stop stop-color="#AE8ABE"/>
<stop offset="1" stop-color="#8390C8"/>
</linearGradient>
<linearGradient id="paint1_linear_2406_7" x1="47.4629" y1="10.5995" x2="67.5766" y2="10.5995" gradientUnits="userSpaceOnUse">
<stop stop-color="#AE8ABE"/>
<stop offset="1" stop-color="#8390C8"/>
</linearGradient>
<linearGradient id="paint2_linear_2406_7" x1="6.00391" y1="24.2297" x2="27.0415" y2="24.2297" gradientUnits="userSpaceOnUse">
<stop stop-color="#AE8ABE"/>
<stop offset="1" stop-color="#8390C8"/>
</linearGradient>
<linearGradient id="paint3_linear_2406_7" x1="76.0371" y1="8.22529" x2="84.7406" y2="8.22529" gradientUnits="userSpaceOnUse">
<stop stop-color="#AE8ABE"/>
<stop offset="1" stop-color="#8390C8"/>
</linearGradient>
<linearGradient id="paint4_linear_2406_7" x1="66.9287" y1="26.2176" x2="74.5625" y2="26.2176" gradientUnits="userSpaceOnUse">
<stop stop-color="#AE8ABE"/>
<stop offset="1" stop-color="#8390C8"/>
</linearGradient>
<linearGradient id="paint5_linear_2406_7" x1="25.4205" y1="8.13935" x2="33.6702" y2="8.13935" gradientUnits="userSpaceOnUse">
<stop stop-color="#AE8ABE"/>
<stop offset="1" stop-color="#8390C8"/>
</linearGradient>
<linearGradient id="paint6_linear_2406_7" x1="2.68106" y1="5.77896" x2="9.66657" y2="5.77896" gradientUnits="userSpaceOnUse">
<stop stop-color="#AE8ABE"/>
<stop offset="1" stop-color="#8390C8"/>
</linearGradient>
<linearGradient id="paint7_linear_2406_7" x1="24.9508" y1="63.435" x2="51.6935" y2="63.435" gradientUnits="userSpaceOnUse">
<stop stop-color="#AE8ABE"/>
<stop offset="1" stop-color="#8390C8"/>
</linearGradient>
</defs>
</svg>
