<svg width="76" height="77" viewBox="0 0 76 77" fill="none" xmlns="http://www.w3.org/2000/svg">
<path d="M59.7999 69.0541C58.406 70.3413 57.0445 70.3127 55.6669 70.3127C50.5452 70.3127 45.4236 70.3127 40.302 70.3127H36.9632V70.6703C44.3701 71.7859 51.7932 72.8873 59.5405 74.0458C61.3558 66.9372 62.4579 60.0431 63.9166 53.2063C65.3591 46.4409 66.7854 39.6613 68.1792 32.8816C69.5893 26.0019 70.9346 19.1221 72.3608 11.9133C69.8811 11.4556 67.385 10.9979 64.9052 10.5402C64.1273 9.43891 64.4514 8.59503 65.5211 7.73685C68.7465 8.28036 72.0366 8.83818 75.1485 9.3674C76.202 12.371 75.1485 14.9313 74.6623 17.4343C73.0739 25.6014 71.1939 33.7255 69.5083 41.8639C67.5795 51.1895 65.7642 60.5437 63.8841 69.8836C63.4303 72.1292 62.9117 74.3748 62.3606 76.8778C60.9019 76.8778 59.5568 77.0352 58.2763 76.8492C50.3508 75.7193 42.4252 74.5178 34.5159 73.345C29.0539 72.5297 23.608 71.5285 18.1136 70.9278C13.851 70.4558 9.52359 70.4987 5.22855 70.2841C3.67261 70.2126 2.13289 70.0267 0.722817 69.9122C0.00967854 67.352 -0.0875933 14.6166 0.544507 11.427H3.02428C3.25119 15.203 3.10533 18.8789 3.13775 22.5691C3.17016 26.2879 3.13775 30.0067 3.13775 33.7112V66.7656C5.84443 67.2948 50.059 67.4807 55.7479 67.023C55.8289 66.9658 55.9424 66.9086 56.0072 66.8371C56.0721 66.7656 56.1531 66.6798 56.1693 66.5939C56.2341 65.8931 56.3152 65.1922 56.3152 64.4914C56.3152 47.528 56.3152 30.5645 56.3152 13.3723C55.2941 13.2721 54.4351 13.1434 53.5599 13.1148C52.085 13.0719 50.5939 13.1291 49.119 13.1005C46.3474 13.029 45.9585 12.7 45.8936 10.3257C45.8612 8.82388 45.8936 7.30776 45.8936 5.80594C45.8936 5.11939 45.8288 4.44715 45.7802 3.61757H3.34845C3.21879 5.40545 3.08913 7.25054 2.94326 9.26727L0.447264 9.3674C-0.136212 6.63551 0.204159 4.06096 0.204159 1.21466C1.16041 1.08593 2.00324 0.885681 2.86224 0.885681C17.3195 0.871378 31.7606 0.885683 46.2178 0.842773C47.8386 0.842773 49.0055 1.32908 50.0914 2.33029C52.5388 4.57587 54.9862 6.82145 57.5794 8.924C59.2164 10.2542 59.8484 11.6845 59.8484 13.6726C59.7512 25.916 59.7999 38.1738 59.7999 50.4315V69.0541ZM49.0703 9.868H53.5599C52.0526 8.49491 50.529 7.12181 49.0703 5.79163V9.868Z" fill="url(#paint0_linear_2343_233)"/>
<path d="M25.4722 8.82394C25.7801 10.0254 26.2177 10.9551 26.2501 11.8991C26.3312 15.6036 26.315 19.2938 26.2664 22.9983C26.234 25.487 25.537 26.2022 22.652 26.288C19.3781 26.4024 16.0717 26.3881 12.7977 26.288C10.2207 26.2165 9.28068 25.4155 9.21585 23.1842C9.10239 19.2938 9.1186 15.389 9.21585 11.4843C9.24826 9.62492 10.0911 8.86686 12.0846 8.83825C16.3797 8.76673 20.6747 8.80964 25.4884 8.80964L25.4722 8.82394ZM13.0084 12.0421C12.4088 15.9469 12.5384 21.1532 13.2029 23.0126H22.7655C22.6845 19.2366 22.9114 15.6894 22.6196 12.0421H13.0084Z" fill="url(#paint1_linear_2343_233)"/>
<path d="M54.1592 48.3148V50.589C53.3164 51.2755 12.2624 51.4758 5.84412 50.9037C5.76308 50.1456 5.68202 49.316 5.61719 48.5437C8.27525 47.9286 48.8755 47.7427 54.1592 48.3005V48.3148Z" fill="url(#paint2_linear_2343_233)"/>
<path d="M5.58556 43.3516H54.0628C54.1438 44.2384 54.2248 45.0536 54.2897 45.683C53.3172 46.4839 12.1659 46.6699 5.84489 46.0977C5.76385 45.3397 5.68279 44.5101 5.56934 43.3516H5.58556Z" fill="url(#paint3_linear_2343_233)"/>
<path d="M5.76367 55.6524V53.2781C8.29207 52.706 48.5844 52.5201 54.0626 53.0493C54.1437 53.8073 54.2247 54.6369 54.3057 55.4093C51.6314 56.01 11.2905 56.196 5.76367 55.6524Z" fill="url(#paint4_linear_2343_233)"/>
<path d="M5.7793 60.5005V58.1119C8.27528 57.5254 47.8545 57.2966 54.0458 57.8544L54.3213 60.2144C51.6471 60.8438 12.003 61.0726 5.7793 60.5005Z" fill="url(#paint5_linear_2343_233)"/>
<path d="M5.8125 36.4572V34.1973H54.0952V36.2426C51.6154 36.7861 11.4042 36.9721 5.8125 36.4428V36.4572Z" fill="url(#paint6_linear_2343_233)"/>
<path d="M54.1599 39.0896V40.9633C54.0626 41.0491 53.9816 41.1063 53.9005 41.1778C53.8195 41.2494 53.7384 41.3495 53.6412 41.3638C53.0739 41.421 52.5229 41.4925 51.9556 41.4925C36.9635 41.4925 21.9876 41.4925 6.99546 41.4639C6.67131 41.4639 6.36337 41.3209 5.84473 41.1921V39.3328C6.6227 38.7177 47.774 38.5318 54.1599 39.1039V39.0896Z" fill="url(#paint7_linear_2343_233)"/>
<path d="M53.4951 21.4967C46.4447 21.4967 39.2809 21.5253 32.1171 21.4824C29.8643 21.4681 29.7022 21.182 29.8642 18.8792C32.2468 18.3071 50.0104 18.1784 54.0299 18.7362C54.4675 19.6516 54.662 20.5527 53.5113 21.511L53.4951 21.4967Z" fill="url(#paint8_linear_2343_233)"/>
<path d="M29.9619 13.8018H54.1114L54.2735 16.3191C53.4469 16.4621 52.7985 16.6481 52.1502 16.6624C45.6833 16.691 39.2003 16.6767 32.7334 16.6767C32.3931 16.6767 32.0527 16.691 31.7123 16.6624C29.8485 16.4764 29.654 16.2047 29.9457 13.8018H29.9619Z" fill="url(#paint9_linear_2343_233)"/>
<path d="M54.273 23.5413C54.2244 24.4567 54.1757 25.2004 54.1271 26.03C53.5112 26.1444 53.0899 26.2875 52.6523 26.2875C45.9423 26.3018 39.216 26.3304 32.5061 26.2875C29.8318 26.2875 29.7346 26.1158 29.7994 23.7129C32.0847 23.0979 49.3459 22.9262 54.2568 23.527L54.273 23.5413Z" fill="url(#paint10_linear_2343_233)"/>
<path d="M43.2678 9.10997V11.8705C38.7296 11.9277 34.3697 11.9992 29.8154 11.7989L29.6533 9.46754C30.6582 8.65227 38.0975 8.50924 43.2678 9.10997Z" fill="url(#paint11_linear_2343_233)"/>
<path d="M62.5228 7.3651C62.4255 8.3234 62.3445 9.06716 62.2311 10.1256L59.0381 9.66789C59.3136 8.66668 59.5081 7.95153 59.7675 7.03613L62.5228 7.3508V7.3651Z" fill="url(#paint12_linear_2343_233)"/>
<defs>
<linearGradient id="paint0_linear_2343_233" x1="0.106907" y1="38.9175" x2="75.6023" y2="38.9175" gradientUnits="userSpaceOnUse">
<stop stop-color="#AE8ABE"/>
<stop offset="1" stop-color="#8390C8"/>
</linearGradient>
<linearGradient id="paint1_linear_2343_233" x1="9.13481" y1="17.5774" x2="26.2988" y2="17.5774" gradientUnits="userSpaceOnUse">
<stop stop-color="#AE8ABE"/>
<stop offset="1" stop-color="#8390C8"/>
</linearGradient>
<linearGradient id="paint2_linear_2343_233" x1="5.61719" y1="49.6164" x2="54.1592" y2="49.6164" gradientUnits="userSpaceOnUse">
<stop stop-color="#AE8ABE"/>
<stop offset="1" stop-color="#8390C8"/>
</linearGradient>
<linearGradient id="paint3_linear_2343_233" x1="5.58554" y1="44.882" x2="54.2897" y2="44.882" gradientUnits="userSpaceOnUse">
<stop stop-color="#AE8ABE"/>
<stop offset="1" stop-color="#8390C8"/>
</linearGradient>
<linearGradient id="paint4_linear_2343_233" x1="5.76367" y1="54.3509" x2="54.3057" y2="54.3509" gradientUnits="userSpaceOnUse">
<stop stop-color="#AE8ABE"/>
<stop offset="1" stop-color="#8390C8"/>
</linearGradient>
<linearGradient id="paint5_linear_2343_233" x1="5.7793" y1="59.1703" x2="54.3213" y2="59.1703" gradientUnits="userSpaceOnUse">
<stop stop-color="#AE8ABE"/>
<stop offset="1" stop-color="#8390C8"/>
</linearGradient>
<linearGradient id="paint6_linear_2343_233" x1="5.8125" y1="35.4845" x2="54.0952" y2="35.4845" gradientUnits="userSpaceOnUse">
<stop stop-color="#AE8ABE"/>
<stop offset="1" stop-color="#8390C8"/>
</linearGradient>
<linearGradient id="paint7_linear_2343_233" x1="5.82852" y1="40.1194" x2="54.1599" y2="40.1194" gradientUnits="userSpaceOnUse">
<stop stop-color="#AE8ABE"/>
<stop offset="1" stop-color="#8390C8"/>
</linearGradient>
<linearGradient id="paint8_linear_2343_233" x1="29.8156" y1="19.9377" x2="54.3541" y2="19.9377" gradientUnits="userSpaceOnUse">
<stop stop-color="#AE8ABE"/>
<stop offset="1" stop-color="#8390C8"/>
</linearGradient>
<linearGradient id="paint9_linear_2343_233" x1="29.8485" y1="15.2464" x2="54.2735" y2="15.2464" gradientUnits="userSpaceOnUse">
<stop stop-color="#AE8ABE"/>
<stop offset="1" stop-color="#8390C8"/>
</linearGradient>
<linearGradient id="paint10_linear_2343_233" x1="29.7994" y1="24.7427" x2="54.273" y2="24.7427" gradientUnits="userSpaceOnUse">
<stop stop-color="#AE8ABE"/>
<stop offset="1" stop-color="#8390C8"/>
</linearGradient>
<linearGradient id="paint11_linear_2343_233" x1="29.6371" y1="10.3257" x2="43.2678" y2="10.3257" gradientUnits="userSpaceOnUse">
<stop stop-color="#AE8ABE"/>
<stop offset="1" stop-color="#8390C8"/>
</linearGradient>
<linearGradient id="paint12_linear_2343_233" x1="59.0381" y1="8.59516" x2="62.5228" y2="8.59516" gradientUnits="userSpaceOnUse">
<stop stop-color="#AE8ABE"/>
<stop offset="1" stop-color="#8390C8"/>
</linearGradient>
</defs>
</svg>
