<svg width="92" height="81" viewBox="0 0 92 81" fill="none" xmlns="http://www.w3.org/2000/svg">
<path d="M8.21875 58.386C20.2286 54.796 32.3034 52.1928 44.1998 48.8316V33.1697C41.8011 33.1411 39.451 33.1125 37.1009 33.0839C36.1932 33.0839 35.2856 33.084 34.378 33.0697C33.0327 33.041 32.2872 32.3974 32.1413 31.2245C32.0927 30.8241 32.1089 30.4236 32.1089 30.0231C32.1089 21.3983 32.1089 12.7593 32.1089 4.13455C32.1089 3.63394 32.0765 3.11905 32.1575 2.63274C32.3358 1.61723 32.9679 0.959267 34.1835 0.959267C39.1916 0.944964 44.1836 0.902067 49.1918 1.01649C49.9698 1.0308 50.8288 1.6601 51.4447 2.18931C53.7462 4.13453 55.9342 6.16559 58.2357 8.12511C59.2081 8.95469 59.6295 9.85577 59.6295 11.0572C59.5809 17.5794 59.6295 24.1016 59.5971 30.6238C59.5971 32.712 59.1757 33.041 56.777 33.0839C53.9569 33.1411 51.1367 33.0839 48.1221 33.0839V48.8745C48.9649 49.132 50.0022 49.4752 51.0395 49.747C60.9262 52.3072 70.8291 54.8246 80.6995 57.3991C83.8763 58.2287 84.0059 58.4719 84.0221 61.4183C84.0383 63.7211 84.0545 66.0382 84.0221 68.341C83.9735 70.6438 83.6818 71.0442 81.1209 71.7308C74.411 73.533 67.6686 75.2923 60.9424 77.0229C56.7122 78.1243 52.4171 79.0826 48.2193 80.2697C46.4689 80.7561 44.9454 80.5987 43.2598 80.1553C32.7248 77.4234 22.1736 74.7488 11.6224 72.0598C8.34841 71.2302 8.23496 71.13 8.21875 68.155C8.21875 65.0512 8.21875 61.9475 8.21875 58.3718V58.386ZM44.135 52.2214C34.9128 54.5957 25.9662 56.8842 16.8899 59.2299C17.2951 59.4445 17.5544 59.6733 17.8623 59.7449C26.4362 61.9475 35.0425 64.1358 43.6163 66.3528C45.4316 66.8248 47.1334 66.7248 48.9487 66.2528C54.1513 64.8654 59.3864 63.6066 64.6053 62.2622C68.0251 61.3754 71.4287 60.4171 75.5131 59.3157C65.983 56.8556 57.2146 54.5957 48.1545 52.2643V57.4707C49.2566 56.8127 50.1643 56.2692 51.3798 55.5397L53.8596 57.5278C50.9908 59.8163 49.1594 62.2622 45.8854 63.7354C43.2598 61.9332 40.9421 59.9594 38.7865 57.5136C39.6455 56.8556 40.3748 56.2978 41.1366 55.6971C42.2387 56.5409 43.1463 57.2418 44.1188 57.9999V52.2357L44.135 52.2214ZM48.738 12.0155C46.9551 10.6425 47.2145 9.29794 47.1334 8.01066C47.0524 6.752 47.5386 5.42184 46.5824 4.10596C44.7671 4.10596 42.9518 4.04872 41.1366 4.12023C39.3699 4.17744 37.5547 3.77697 35.8853 4.44922C35.3666 11.186 35.5773 27.5487 36.1932 29.7656C41.6066 30.1947 53.4058 30.0374 55.8207 29.5082C56.3394 25.7894 56.1935 14.3899 55.5452 12.0155H48.7218H48.738ZM44.1998 69.7856C33.4541 67.0251 22.7733 64.2789 12.0276 61.5185V68.77C17.5706 70.2289 22.8381 71.7451 28.1866 72.9894C33.4703 74.2195 38.6082 75.9788 44.1998 76.8656V69.7713V69.7856ZM48.1059 77.0372C58.9974 74.2195 69.3866 71.5449 79.9702 68.813C79.8567 66.3386 80.2943 64.0072 79.7271 61.59C69.03 64.3647 58.495 66.925 48.1221 69.7999V77.0372H48.1059ZM50.8288 8.53987C51.5257 8.59708 52.2226 8.65433 53.5192 8.75445C52.4171 7.83906 51.7364 7.28124 50.8288 6.52318V8.55419V8.53987Z" fill="url(#paint0_linear_2343_354)"/>
<path d="M75.772 33.1126H64.54C64.1997 32.0113 63.6486 30.9957 63.6324 29.9802C63.5676 21.3555 63.5676 12.7307 63.6324 4.106C63.6324 3.162 64.0376 2.20368 64.2807 1.18816C65.3018 1.08804 66.0636 0.930719 66.8415 0.930719C70.9259 0.902113 75.0264 0.959297 79.1108 0.902085C80.6829 0.873479 81.9309 1.20245 83.0492 2.24658C85.14 4.2204 87.3605 6.0941 89.5323 8.01071C90.3589 8.72586 91.0558 9.44102 91.0558 10.571C91.0072 17.6939 91.0072 24.8025 90.9748 31.9254C90.9748 32.1114 90.8289 32.2973 90.5858 32.8694C87.1498 33.3986 83.4058 32.8265 79.5808 33.1984C78.2193 38.5478 74.0702 40.0496 68.3813 39.7635C64.3942 39.5633 63.2434 40.6932 63.13 44.269C64.1186 43.6253 64.9614 43.0818 65.9987 42.4239C66.7929 43.0103 67.5547 43.5681 68.2678 44.0973C66.5822 46.6433 63.519 49.2178 60.7799 50.405C58.2352 48.8603 56.2741 46.6576 53.8105 44.555C54.5075 43.8399 55.1072 43.1963 55.8527 42.4096C57.0683 43.2678 58.0732 43.9829 59.1591 44.7553C59.7426 38.6479 62.271 36.6025 69.1592 36.5739C69.84 36.5739 70.5207 36.5739 71.2014 36.5596C73.5029 36.531 75.0588 35.6299 75.7396 33.1269L75.772 33.1126ZM87.3443 11.9584H79.8887C77.5386 9.48393 79.4835 6.5804 78.1059 4.12027C74.4753 4.12027 70.8935 4.02016 67.3764 4.1775C66.8739 9.3266 67.036 27.5058 67.6357 29.923C74.1188 29.923 80.6667 29.9373 87.3605 29.9087V11.9584H87.3443ZM84.7997 8.65436L82.1578 6.42309L82.2875 8.65436H84.7997Z" fill="url(#paint1_linear_2343_354)"/>
<path d="M12.6435 33.0841C9.66127 33.0841 6.84113 33.1127 4.00479 33.0841C1.20086 33.0555 0.779457 32.7408 0.779457 30.3522C0.747042 21.4128 0.76325 12.4877 0.779457 3.54827C0.779457 2.79021 1.0712 2.03214 1.23327 1.21686C2.25436 1.10244 3.03233 0.959406 3.8103 0.945103C7.91084 0.916497 11.9952 0.973725 16.0957 0.916513C17.5706 0.887907 18.689 1.27409 19.71 2.2181C21.9791 4.32065 24.3292 6.3803 26.6956 8.39703C27.7491 9.28382 28.2353 10.2421 28.2353 11.5723C28.1705 17.7941 28.2353 24.016 28.2029 30.2378C28.2029 32.7122 27.8139 33.0412 25.091 33.0841C23.0488 33.127 20.9904 33.0841 18.9483 33.0984C18.1865 33.0984 17.441 33.2414 16.663 33.3272C17.3761 35.673 18.0893 36.3452 20.1476 36.5168C21.2822 36.6169 22.4167 36.5883 23.5513 36.574C29.1105 36.4739 31.9631 38.7624 32.8869 43.1249C32.9517 43.4109 33.0003 43.7113 33.0976 44.2691C34.07 43.6397 34.9291 43.0819 35.9664 42.4097C36.7605 42.9675 37.5223 43.511 38.1382 43.9544C38.1706 45.1845 34.0376 48.8318 31.0878 50.3193C28.0894 49.1607 26.3876 46.5719 23.7133 44.5837C24.4913 43.7971 25.1234 43.1677 25.9014 42.3811C27.0197 43.1963 27.9598 43.8829 28.8836 44.5552C29.4833 41.9234 27.9435 39.9352 25.0586 39.7493C23.6971 39.6635 22.3357 39.7493 20.958 39.7207C16.9547 39.6635 14.3129 37.9757 13.0325 34.6574C12.8542 34.1997 12.7894 33.7277 12.6273 33.0984L12.6435 33.0841ZM15.7392 4.10611C11.6548 4.17763 8.08913 3.89156 4.4586 4.32065V29.5941C8.51053 30.1662 22.1412 30.0518 24.4427 29.4368C24.9289 24.0017 24.7344 14.2899 24.0537 11.9871C22.1898 11.9871 20.2773 12.0443 18.3648 11.9728C16.3388 11.887 15.8202 11.4149 15.7554 9.56985C15.6905 7.88208 15.7554 6.19436 15.7554 4.10611H15.7392ZM22.1736 8.69738C20.9418 7.78198 20.2773 7.29567 19.1914 6.4947L19.5966 8.69738H22.1736Z" fill="url(#paint2_linear_2343_354)"/>
<path d="M38.3809 22.7138V19.4527C39.2561 19.3383 40.0016 19.1667 40.7634 19.1524C44.3939 19.1238 48.0406 19.1524 51.6712 19.1524C52.9678 19.1524 53.9078 19.5099 53.9889 20.8115C54.0537 21.9987 53.4702 22.6709 51.9629 22.6995C47.5544 22.7711 43.1459 22.7281 38.3809 22.7281V22.7138Z" fill="url(#paint3_linear_2343_354)"/>
<path d="M53.5838 14.5327C54.0215 16.8641 53.8108 17.3076 51.7686 17.3362C47.4573 17.4077 43.1623 17.3648 38.5593 17.3648L38.2676 14.876C39.2725 14.0035 49.8237 13.9034 53.5838 14.5327Z" fill="url(#paint4_linear_2343_354)"/>
<path d="M44.4595 11.8727H38.4951L38.252 9.02637H44.1516C44.2974 9.28382 44.5405 9.54125 44.5567 9.7987C44.5892 10.3851 44.5081 10.9716 44.4595 11.8727Z" fill="url(#paint5_linear_2343_354)"/>
<path d="M38.1709 24.7026C39.5323 24.6454 40.3751 24.6168 41.5097 24.5596L41.8987 27.4059C40.7317 27.5203 39.7917 27.6204 38.5437 27.7349L38.1709 24.6883V24.7026Z" fill="url(#paint6_linear_2343_354)"/>
<path d="M44.6048 24.6025H47.6033L48.0247 27.4632C46.7443 27.5204 45.7394 27.5633 44.3779 27.6348L44.6048 24.6025Z" fill="url(#paint7_linear_2343_354)"/>
<path d="M53.6814 27.5198H50.7154L50.4561 24.7736C51.4285 24.7164 52.2551 24.4732 52.871 24.6734C54.1838 25.1025 54.1514 26.1324 53.6814 27.5198Z" fill="url(#paint8_linear_2343_354)"/>
<path d="M77.6689 22.714C75.7402 22.714 73.8115 22.7713 71.8828 22.6998C70.2458 22.6283 69.7109 22.1276 69.7109 20.9405C69.7109 19.7533 70.2458 19.1955 71.8666 19.1669C75.724 19.0954 79.5976 19.0954 83.4551 19.1669C84.9786 19.1955 85.5296 19.8677 85.4648 21.0692C85.4 22.1991 84.6382 22.6712 83.4713 22.6998C81.5425 22.7284 79.6138 22.6998 77.6851 22.6998L77.6689 22.714Z" fill="url(#paint9_linear_2343_354)"/>
<path d="M85.2699 24.8595C85.351 25.403 85.4482 25.7892 85.432 26.1897C85.432 26.5759 85.2861 26.9477 85.2537 27.148C84.4757 27.8345 75.4643 27.9633 69.9537 27.4912L69.6943 25.2314C70.7478 24.3446 80.7318 24.2159 85.2699 24.8738V24.8595Z" fill="url(#paint10_linear_2343_354)"/>
<path d="M69.8727 17.022V14.2186C74.9781 14.1614 79.9052 14.19 85.1565 14.2186L85.4482 16.6644C84.411 17.5512 74.4756 17.6942 69.8564 17.0363L69.8727 17.022Z" fill="url(#paint11_linear_2343_354)"/>
<path d="M76.3075 9.01172V11.8151H69.9054L69.7109 9.01172H76.3075Z" fill="url(#paint12_linear_2343_354)"/>
<path d="M6.93848 22.7288V19.4677C7.79748 19.3533 8.54304 19.1674 9.3048 19.1531C12.9353 19.1245 16.5821 19.1101 20.2126 19.1531C21.963 19.1817 22.6437 19.811 22.5465 21.0697C22.4492 22.3712 21.5254 22.7145 20.2288 22.7145C15.9337 22.7145 11.6387 22.7145 6.95468 22.7145L6.93848 22.7288Z" fill="url(#paint13_linear_2343_354)"/>
<path d="M6.8252 27.3199L7.0359 24.6023C8.86736 24.5594 10.5368 24.5165 12.2062 24.5022C14.8156 24.4879 17.4412 24.4592 20.0507 24.5022C22.2873 24.5451 22.3846 24.7167 22.3197 27.1339C20.0669 27.7919 11.2013 27.9206 6.8414 27.2913L6.8252 27.3199Z" fill="url(#paint14_linear_2343_354)"/>
<path d="M22.6279 14.1899L22.1255 17.2221H7.01989L6.87402 14.3186C12.0929 14.0469 17.0525 14.2471 22.6441 14.1899H22.6279Z" fill="url(#paint15_linear_2343_354)"/>
<path d="M13.0324 8.9834C13.081 9.78437 13.1621 10.285 13.1458 10.7713C13.1458 11.0573 12.9838 11.3291 12.8379 11.7868H7.05176V8.9834H13.0486H13.0324Z" fill="url(#paint16_linear_2343_354)"/>
<defs>
<linearGradient id="paint0_linear_2343_354" x1="8.21875" y1="40.7647" x2="84.0707" y2="40.7647" gradientUnits="userSpaceOnUse">
<stop stop-color="#AE8ABE"/>
<stop offset="1" stop-color="#8390C8"/>
</linearGradient>
<linearGradient id="paint1_linear_2343_354" x1="53.8268" y1="25.6464" x2="91.0558" y2="25.6464" gradientUnits="userSpaceOnUse">
<stop stop-color="#AE8ABE"/>
<stop offset="1" stop-color="#8390C8"/>
</linearGradient>
<linearGradient id="paint2_linear_2343_354" x1="0.76325" y1="25.6036" x2="38.1382" y2="25.6036" gradientUnits="userSpaceOnUse">
<stop stop-color="#AE8ABE"/>
<stop offset="1" stop-color="#8390C8"/>
</linearGradient>
<linearGradient id="paint3_linear_2343_354" x1="38.3809" y1="20.9402" x2="54.0051" y2="20.9402" gradientUnits="userSpaceOnUse">
<stop stop-color="#AE8ABE"/>
<stop offset="1" stop-color="#8390C8"/>
</linearGradient>
<linearGradient id="paint4_linear_2343_354" x1="38.2514" y1="15.7485" x2="53.7621" y2="15.7485" gradientUnits="userSpaceOnUse">
<stop stop-color="#AE8ABE"/>
<stop offset="1" stop-color="#8390C8"/>
</linearGradient>
<linearGradient id="paint5_linear_2343_354" x1="38.252" y1="10.4424" x2="44.5567" y2="10.4424" gradientUnits="userSpaceOnUse">
<stop stop-color="#AE8ABE"/>
<stop offset="1" stop-color="#8390C8"/>
</linearGradient>
<linearGradient id="paint6_linear_2343_354" x1="38.1709" y1="26.1472" x2="41.8987" y2="26.1472" gradientUnits="userSpaceOnUse">
<stop stop-color="#AE8ABE"/>
<stop offset="1" stop-color="#8390C8"/>
</linearGradient>
<linearGradient id="paint7_linear_2343_354" x1="44.3617" y1="26.1187" x2="48.0247" y2="26.1187" gradientUnits="userSpaceOnUse">
<stop stop-color="#AE8ABE"/>
<stop offset="1" stop-color="#8390C8"/>
</linearGradient>
<linearGradient id="paint8_linear_2343_354" x1="50.4561" y1="26.0609" x2="53.9731" y2="26.0609" gradientUnits="userSpaceOnUse">
<stop stop-color="#AE8ABE"/>
<stop offset="1" stop-color="#8390C8"/>
</linearGradient>
<linearGradient id="paint9_linear_2343_354" x1="69.7109" y1="20.9405" x2="85.4648" y2="20.9405" gradientUnits="userSpaceOnUse">
<stop stop-color="#AE8ABE"/>
<stop offset="1" stop-color="#8390C8"/>
</linearGradient>
<linearGradient id="paint10_linear_2343_354" x1="69.6943" y1="26.1039" x2="85.4482" y2="26.1039" gradientUnits="userSpaceOnUse">
<stop stop-color="#AE8ABE"/>
<stop offset="1" stop-color="#8390C8"/>
</linearGradient>
<linearGradient id="paint11_linear_2343_354" x1="69.8727" y1="15.8062" x2="85.4645" y2="15.8062" gradientUnits="userSpaceOnUse">
<stop stop-color="#AE8ABE"/>
<stop offset="1" stop-color="#8390C8"/>
</linearGradient>
<linearGradient id="paint12_linear_2343_354" x1="69.7271" y1="10.4134" x2="76.3075" y2="10.4134" gradientUnits="userSpaceOnUse">
<stop stop-color="#AE8ABE"/>
<stop offset="1" stop-color="#8390C8"/>
</linearGradient>
<linearGradient id="paint13_linear_2343_354" x1="6.93848" y1="20.9266" x2="22.5465" y2="20.9266" gradientUnits="userSpaceOnUse">
<stop stop-color="#AE8ABE"/>
<stop offset="1" stop-color="#8390C8"/>
</linearGradient>
<linearGradient id="paint14_linear_2343_354" x1="6.8252" y1="26.1041" x2="22.3197" y2="26.1041" gradientUnits="userSpaceOnUse">
<stop stop-color="#AE8ABE"/>
<stop offset="1" stop-color="#8390C8"/>
</linearGradient>
<linearGradient id="paint15_linear_2343_354" x1="6.85782" y1="15.6917" x2="22.6279" y2="15.6917" gradientUnits="userSpaceOnUse">
<stop stop-color="#AE8ABE"/>
<stop offset="1" stop-color="#8390C8"/>
</linearGradient>
<linearGradient id="paint16_linear_2343_354" x1="7.03555" y1="10.3851" x2="13.1458" y2="10.3851" gradientUnits="userSpaceOnUse">
<stop stop-color="#AE8ABE"/>
<stop offset="1" stop-color="#8390C8"/>
</linearGradient>
</defs>
</svg>
