<svg width="90" height="79" viewBox="0 0 90 79" fill="none" xmlns="http://www.w3.org/2000/svg">
<path d="M70.3319 54.7409C75.6156 59.4037 80.8507 64.0093 86.0695 68.6149C86.7178 69.187 87.3986 69.7163 87.9821 70.3313C89.7001 72.1621 89.8297 73.9642 88.0631 75.7664C86.9772 76.8678 85.6644 78.0835 84.1733 78.5269C82.1149 79.1419 80.0565 78.7414 78.3061 77.1395C73.6707 72.8629 68.8408 68.7436 64.1244 64.5385C63.3302 63.8233 62.6332 63.0224 61.8228 62.1785C60.51 62.7649 59.4728 63.1225 58.5489 63.6517C50.9313 67.9426 42.4871 69.1441 33.7187 68.2859C26.3766 67.5707 19.7315 64.9247 14.0426 60.6909C7.33263 55.6849 2.76203 49.4345 0.946771 41.8109C0.136386 38.4211 0.0715493 34.9598 0.282249 31.4269C0.622611 25.4912 2.95653 20.3135 6.52222 15.4647C12.2435 7.65525 20.477 2.83511 30.623 0.932805C44.2699 -1.61314 56.2798 1.74806 66.2313 10.3013C72.2444 15.479 75.8587 21.9726 77.0257 29.3101C78.3709 37.7918 76.5719 45.8015 71.1099 53.0388C70.9154 53.282 70.7533 53.5537 70.6074 53.8255C70.5102 53.9971 70.494 54.1974 70.3319 54.7123V54.7409ZM73.6383 34.6451C74.6269 17.6245 57.852 3.39292 39.1645 3.33571C19.3425 3.2785 3.63728 16.9379 3.45899 34.1159C3.28071 52.2808 20.4932 65.3681 38.5324 65.4539C57.9816 65.5397 74.5783 50.593 73.6383 34.6451ZM85.632 73.0345C83.8167 70.7174 74.9835 63.0081 72.5848 61.7351C71.5475 62.6791 70.494 63.6374 69.7484 64.324C74.238 68.3002 78.4682 72.0191 82.9253 75.9667C83.6384 75.1943 84.546 74.2216 85.632 73.0345ZM70.105 58.9317C69.3432 58.3024 68.5814 57.6873 68.1438 57.3154C66.7338 58.4311 65.5668 59.3465 64.3188 60.3334C65.0644 60.9484 65.7775 61.5491 66.4744 62.1213C67.7062 61.0485 68.8084 60.0759 70.105 58.9317Z" fill="url(#paint0_linear_2406_4)"/>
<path d="M44.4317 7.24058C45.3231 5.98191 46.4414 6.18214 47.7543 6.55401C60.8825 10.2585 68.6946 18.0823 71.0285 30.0539C72.9572 39.923 69.1808 48.2474 61.4659 55.1987C56.4091 59.7471 50.0233 62.2072 42.7785 63.0797C25.4849 65.1537 10.5738 54.7696 6.82983 41.4249C2.40513 25.6343 13.2157 10.0153 31.2062 6.18212C33.9939 5.5957 36.7655 5.35256 39.5694 5.71014C40.4122 7.81269 40.1042 8.41341 38.062 8.65657C35.9388 8.91402 33.7346 8.87113 31.6762 9.34313C20.3632 11.9606 13.1508 18.3397 10.2659 28.3233C8.15886 35.5749 9.81204 42.3546 14.6257 49.2057C14.7068 47.99 14.7392 47.3606 14.7878 46.7313C14.9337 44.6287 15.8575 43.4559 18.1428 43.1984C21.7733 42.7837 24.1558 43.5274 24.399 47.3034C24.561 50.0067 24.4638 52.7243 24.4314 55.4276C24.4314 56.5289 24.6096 57.4443 26.4573 57.6874C26.4573 55.0843 26.4573 52.524 26.4573 49.9495C26.4573 49.1485 26.4411 48.3476 26.4573 47.5466C26.5546 44.3713 28.0619 42.9982 31.4007 43.0554C34.626 43.1126 36.0523 44.3999 36.1171 47.4322C36.182 50.9507 36.1171 54.455 36.1333 57.9735C36.1333 58.9318 35.955 60.0188 37.7541 60.3621C37.9 59.7185 38.1269 59.1892 38.1269 58.6457C38.1593 55.4275 38.1269 52.2237 38.1431 49.0055C38.1431 48.3046 38.0944 47.5895 38.2079 46.9029C38.7265 43.6132 42.8919 41.9541 46.1335 43.742C47.4301 44.4571 47.8515 45.5012 47.8191 46.8171C47.7705 49.7206 47.8029 52.6385 47.8029 55.5563C47.8029 56.5289 47.8029 57.5158 47.8029 58.4312C49.6992 58.7316 50.2989 58.0736 50.2989 56.8293C50.2989 54.9269 50.2989 53.0103 50.2989 51.108C50.2989 50.0067 50.2989 48.9054 50.2989 47.7898C50.3313 43.7849 52.8272 42.2258 57.1547 43.413C58.5323 43.7992 59.3103 44.4428 59.521 45.6586C59.6669 46.5454 59.8776 47.4322 59.9262 48.319C59.9911 49.406 59.9424 50.5073 59.9424 52.0807C63.8647 48.3476 66.15 44.3999 67.2683 39.966C69.5536 30.9551 66.7011 23.0598 59.829 16.3659C56.555 13.1764 52.3734 10.8449 47.4787 9.71498C46.1335 9.40031 44.4317 9.2287 44.4317 7.19767V7.24058ZM30.0393 58.989C31.0279 59.2464 31.6438 59.4182 32.3732 59.6041V46.8314H30.2661C30.1851 47.3034 30.0393 47.6896 30.0393 48.0615C30.0393 51.6515 30.0393 55.2273 30.0393 58.989ZM44.1885 46.8887C42.3247 46.5597 42.195 47.3463 42.195 48.2045C42.195 51.5943 42.1788 54.9841 42.195 58.374C42.195 58.8317 42.4057 59.2894 42.5191 59.6899C43.7671 59.9617 44.1724 59.5182 44.1724 58.6457C44.1724 54.7839 44.1724 50.9078 44.1724 46.9029L44.1885 46.8887ZM55.7446 46.5311C54.8856 46.8744 54.1887 46.9602 54.0428 47.2462C53.5566 48.2331 53.9456 54.6409 54.4967 56.2428C54.9505 55.8423 55.5988 55.542 55.6636 55.1844C56.0688 52.4239 55.9391 49.6491 55.7609 46.5454L55.7446 46.5311ZM20.1363 46.3022C19.2611 46.9316 18.5156 47.2176 18.4832 47.5609C18.3535 49.1485 18.3535 50.7505 18.4183 52.3381C18.4669 53.2678 19.1152 53.8256 20.1363 54.1117V46.3165V46.3022Z" fill="url(#paint1_linear_2406_4)"/>
<path d="M37.6086 31.4412L34.043 28.9096C33.4109 29.0097 32.4222 29.2386 31.4335 29.2672C30.5583 29.2958 29.6669 29.1098 28.4999 28.9811C27.884 29.6247 27.1871 30.3971 26.4253 31.1266C25.3394 32.1564 25.0315 33.2005 25.4367 34.6737C26.3119 37.8204 23.5565 40.8956 19.8288 41.2532C16.8141 41.5392 13.6375 39.0219 13.3782 36.1613C13.0702 32.7428 15.5662 30.297 19.4074 30.3256C20.2988 30.3256 21.174 30.5116 22.1789 30.626C23.2972 29.4674 24.4804 28.2517 25.7284 26.9501C24.7235 24.1324 24.5777 21.4005 27.803 19.5125C30.3152 18.0393 32.6329 18.0965 35.0478 19.6984C37.7221 21.472 37.9652 23.832 36.8307 26.4495C38.03 27.465 39.1645 28.4233 40.1856 29.2815H46.3284L49.1485 26.1491C49.1323 26.0204 48.9378 25.2623 48.8892 24.49C48.6785 21.1717 51.2879 18.5542 54.886 18.3825C57.8034 18.2538 60.8667 20.8427 61.1746 23.7176C61.4501 26.3207 58.8083 29.0526 55.664 29.2529C54.4484 29.3387 53.2166 29.1241 51.6445 29.024C50.8665 29.7821 49.8779 30.7547 48.7271 31.8704C49.6347 34.5879 49.3754 37.2769 46.2149 39.0791C44.1241 40.2805 41.8712 40.1804 39.8291 38.9361C36.9441 37.1625 36.2472 34.7023 37.5762 31.4412H37.6086ZM22.1303 35.7751C22.1303 34.6022 20.8499 33.4723 19.5371 33.4866C17.9325 33.5009 16.9438 34.3591 16.9924 35.6892C17.0411 37.0337 18.1432 38.1065 19.4398 38.0636C20.704 38.035 22.1303 36.8192 22.1303 35.7751ZM33.8646 23.689C33.7836 22.5591 32.3573 21.4577 31.0769 21.5721C29.7155 21.6866 28.5648 22.8737 28.6782 24.0323C28.8079 25.2909 30.0072 26.192 31.4659 26.0919C32.9246 26.0061 33.9457 24.9763 33.8646 23.689ZM55.6316 21.3147C52.6818 22.5734 52.2766 23.0596 52.5197 24.4757C52.698 25.5198 53.3949 26.0204 54.5619 26.1062C56.2313 26.2206 56.5878 25.9632 57.9168 23.0883C57.301 22.6163 56.4906 21.9869 55.6316 21.329V21.3147ZM40.4612 34.2447C41.5471 36.2757 42.4385 36.9336 43.7189 36.576C44.9183 36.2328 45.6314 35.5462 45.5828 34.3591C45.5504 33.3722 45.2263 32.5855 44.0269 32.2994C42.4872 31.9275 41.6768 32.371 40.4612 34.2447Z" fill="url(#paint2_linear_2406_4)"/>
<defs>
<linearGradient id="paint0_linear_2406_4" x1="0.168797" y1="39.4795" x2="89.3111" y2="39.4795" gradientUnits="userSpaceOnUse">
<stop stop-color="#AE8ABE"/>
<stop offset="1" stop-color="#8390C8"/>
</linearGradient>
<linearGradient id="paint1_linear_2406_4" x1="5.84116" y1="34.445" x2="71.5147" y2="34.445" gradientUnits="userSpaceOnUse">
<stop stop-color="#AE8ABE"/>
<stop offset="1" stop-color="#8390C8"/>
</linearGradient>
<linearGradient id="paint2_linear_2406_4" x1="13.3782" y1="29.825" x2="61.2394" y2="29.825" gradientUnits="userSpaceOnUse">
<stop stop-color="#AE8ABE"/>
<stop offset="1" stop-color="#8390C8"/>
</linearGradient>
</defs>
</svg>
