<svg width="106" height="78" viewBox="0 0 106 78" fill="none" xmlns="http://www.w3.org/2000/svg">
<path d="M44.1928 8.1379C45.4246 8.1379 46.6402 8.1379 47.872 8.1379C60.1574 8.1379 72.459 8.33815 84.7445 8.05209C91.5031 7.89476 96.3005 12.9723 96.1546 18.0499C96.0898 20.4528 96.1546 22.8558 96.1546 25.3874C97.4837 25.6878 98.6669 25.9166 99.8338 26.2313C103.335 27.1467 105.28 29.2206 105.02 32.4245C104.761 35.4997 104.08 38.5605 103.416 41.5928C101.503 50.4177 99.5421 59.2284 97.5323 68.0391C97.2082 69.498 96.7543 70.9712 96.0574 72.3157C94.469 75.348 91.422 76.5494 87.8725 76.9785C87.3215 77.05 86.738 76.9785 86.1707 76.9785C60.7895 76.9785 35.4244 76.9785 10.0432 76.9785C9.13554 76.9785 8.21171 77.0214 7.32029 76.9356C3.5601 76.5637 1.09655 74.4755 0.545484 71.1858C0.448238 70.5994 0.448242 69.9843 0.448242 69.3836C0.448242 49.7026 0.448258 30.0216 0.464466 10.3406C0.464466 7.73742 1.1776 5.39172 3.34943 3.48941C5.19711 1.87316 7.36893 0.914866 10.027 0.914866C18.2281 0.914866 26.4129 0.871949 34.614 0.929162C38.6335 0.957768 41.4537 2.81717 43.2528 5.92094C43.6093 6.53597 43.82 7.20821 44.2252 8.1093L44.1928 8.1379ZM57.8072 29.4495C52.6856 29.4495 47.564 29.4495 42.4424 29.4495C34.5979 29.4495 26.7371 29.4352 18.8926 29.4495C15.3269 29.4495 13.7547 30.4936 12.7337 33.5401C12.1826 35.1564 11.8422 36.8441 11.4857 38.5033C9.33005 48.401 7.20686 58.313 5.01882 68.2108C4.06257 72.5303 4.77571 73.3598 9.83251 73.3598C34.9706 73.3598 60.1249 73.3169 85.2631 73.3885C90.7737 73.4028 92.7186 72.5732 93.8532 66.995C93.8856 66.7947 93.8693 66.5945 93.918 66.3943C95.4415 59.4287 96.9488 52.4774 98.4885 45.5261C99.3962 41.4068 100.369 37.3018 101.26 33.1826C101.73 31.0228 100.547 29.6783 98.0996 29.4638C97.5323 29.4209 96.965 29.4495 96.3977 29.4495C83.545 29.4495 70.6924 29.4495 57.8235 29.4495H57.8072ZM4.59741 49.817L4.92158 49.9601C5.61851 46.8277 6.2992 43.6953 7.01234 40.5772C8.04963 36.0575 8.90866 31.5377 8.60071 26.8892C8.45484 24.6865 8.55207 22.4696 8.58449 20.2669C8.63311 17.4349 9.86491 16.3193 13.1064 16.1333C13.7872 16.0904 14.4679 16.1333 15.1486 16.1333C36.7697 16.1333 58.3745 16.1333 79.9956 16.1333C80.5628 16.1333 81.1301 16.119 81.6974 16.1333C85.0038 16.2764 85.9114 17.063 85.9762 19.9665C86.0086 21.8402 86.0086 23.7139 86.0411 25.5447H91.9082C91.9082 22.4124 92.0055 19.5231 91.8758 16.6196C91.7786 14.4169 90.3685 12.8007 88.0346 12.1142C86.4625 11.6422 84.712 11.4562 83.0426 11.4562C70.3034 11.399 57.5642 11.4276 44.8249 11.4276C43.5931 11.4276 42.3775 11.4276 40.9026 11.4276C40.5461 10.126 40.2057 9.09621 39.9788 8.05209C39.6384 6.55027 38.7308 5.42032 37.11 4.96262C35.7324 4.57644 34.2575 4.27608 32.815 4.23318C29.6383 4.13305 26.4454 4.20456 23.2525 4.20456C19.3788 4.20456 15.5214 4.17596 11.6478 4.20456C7.35272 4.24747 4.35429 5.94954 4.54879 10.4121C4.84052 16.734 4.61363 23.056 4.61363 29.3779C4.61363 36.2005 4.61363 43.0231 4.61363 49.8456L4.59741 49.817ZM82.1026 20.1382C78.31 19.6233 15.5214 19.7091 12.8795 20.2383C12.7499 22.5411 12.5554 24.8582 13.0092 27.3183C15.9428 26.0453 18.8115 25.745 21.81 25.7593C40.6595 25.7879 59.5091 25.7736 78.3586 25.7593C79.5742 25.7593 80.7898 25.6735 82.1026 25.6305V20.1382Z" fill="url(#paint0_linear_2406_15)"/>
<defs>
<linearGradient id="paint0_linear_2406_15" x1="0.432034" y1="38.9753" x2="105.036" y2="38.9753" gradientUnits="userSpaceOnUse">
<stop stop-color="#AE8ABE"/>
<stop offset="1" stop-color="#8390C8"/>
</linearGradient>
</defs>
</svg>
