<svg width="82" height="82" viewBox="0 0 82 82" fill="none" xmlns="http://www.w3.org/2000/svg">
<path d="M65.5287 27.6766C64.9128 30.2654 62.2548 32.5682 59.4508 32.8543V50.4327C62.3682 51.4769 64.8642 52.807 65.5125 55.7821L65.2856 55.968C64.4104 56.5544 63.6324 56.4543 62.903 55.7249C61.9306 54.7523 60.9257 53.8083 59.7426 52.6783C56.7766 57.1552 51.9791 57.6415 47.2951 58.371C46.2092 58.5426 45.1232 58.6713 44.3453 58.7714C44.1346 60.9312 43.9887 62.7906 43.7456 64.6357C43.6808 65.1077 43.308 65.5511 42.8704 66.4093C40.5851 63.706 41.8655 61.3889 41.1361 59.0718C39.4505 58.8572 37.6029 58.5855 35.739 58.371C32.6757 58.0277 29.7421 57.3983 26.9706 56.154C24.7015 55.1384 23.6318 53.5794 23.648 51.3338C23.6804 44.9118 23.6805 38.4897 23.6318 32.0676C23.6318 30.0509 24.5557 28.6349 26.5006 27.648C29.7259 26.0031 33.2754 25.3309 36.8897 25.1306C41.2982 24.8875 45.7715 24.6586 50.099 25.6885C52.368 26.232 54.6371 26.9614 56.7279 27.934C57.9273 28.4918 58.7539 29.7076 59.856 30.7231C60.6502 30.0509 61.6389 29.2499 62.5627 28.3917C63.3245 27.6766 64.1672 27.3047 65.2856 27.462C65.3828 27.5192 65.4639 27.5907 65.5449 27.6766H65.5287ZM26.3547 30.8232C27.7972 33.169 29.9366 33.5122 31.8491 33.9699C37.0842 35.2429 42.4489 34.8853 47.7651 34.5563C49.6452 34.4419 51.5252 33.8412 53.3405 33.3263C54.6047 32.9544 55.8851 32.4252 56.3713 31.0378C55.2368 29.1212 52.984 28.8208 50.9742 28.3059C46.5333 27.1617 41.9627 27.4334 37.4408 27.6337C34.88 27.7481 32.303 28.3345 29.8232 28.9496C28.6238 29.2499 27.6027 30.1224 26.3709 30.8089L26.3547 30.8232ZM26.6951 53.2218C29.58 55.1528 32.7082 55.4817 35.8524 55.968C41.4603 56.8262 46.9385 56.3685 52.3032 54.9811C56.3876 53.9227 56.9062 52.9072 56.031 49.1455C46.274 52.664 36.5169 52.5353 26.5492 49.0597C26.5492 50.018 26.533 50.8189 26.5492 51.6056C26.5492 52.1062 26.6302 52.5925 26.6951 53.2218ZM56.2903 42.1227C46.1605 45.0977 38.8671 45.5697 26.7599 42.2085V45.9702C33.6968 50.4041 49.9369 50.3326 56.4362 45.7413C56.4362 45.2121 56.4362 44.5256 56.4362 43.8247C56.4362 43.3384 56.3552 42.8521 56.3065 42.1227H56.2903ZM56.2255 34.9425C46.3226 38.1893 36.6142 38.2465 26.922 35.0284C26.1278 38.9188 26.4844 39.4194 30.3256 40.6351C35.82 42.3944 41.5089 42.2085 47.133 41.7508C50.3259 41.479 53.6323 40.8926 56.2417 38.8187V34.9425H56.2255Z" fill="url(#paint0_linear_2406_6)"/>
<path d="M16.1279 27.663C13.8426 28.2208 11.5573 28.8072 9.27205 29.3364C7.97544 29.6368 6.87334 29.4366 5.85225 28.5355C4.18286 27.0623 2.38381 25.7178 0.536133 24.2446C1.47618 21.6271 2.23791 19.2385 3.24279 16.9357C3.50211 16.3207 4.40975 15.7629 5.17151 15.5054C6.97056 14.9047 8.8993 14.6043 10.6659 13.975C12.1895 13.4315 13.1943 13.8033 14.3127 14.733C19.3371 18.8666 19.3857 18.8523 17.619 24.6736C17.3273 25.6319 16.7924 26.5187 16.3548 27.4484C16.2738 27.5342 16.1927 27.6058 16.1117 27.6773L16.1279 27.663ZM4.62045 21.527C5.9819 21.2266 7.35955 20.9119 8.72099 20.6116C9.17481 19.2957 9.53139 18.2087 10.05 16.6925C8.26719 17.2361 6.95437 17.6223 5.5443 18.0514C5.23636 19.2814 4.94464 20.4113 4.6529 21.5556C4.57186 21.5842 4.47458 21.5842 4.40974 21.6271C4.36112 21.6557 4.36116 21.7272 4.34495 21.7844L4.62045 21.5413V21.527ZM9.3045 22.9573C7.8296 23.4007 6.41949 23.8155 4.91218 24.2589C7.47299 26.9908 7.69994 27.7202 12.4974 25.7893L9.32067 22.943L9.3045 22.9573ZM16.1117 20.0967C15.1554 19.0955 14.3127 18.0943 12.7891 17.422C12.2867 18.7522 11.8815 19.8678 11.3953 21.1408C12.4812 22.0419 13.5023 22.9001 14.8475 24.0014C15.3337 22.5282 15.7227 21.3267 16.1279 20.0967H16.1117Z" fill="url(#paint1_linear_2406_6)"/>
<path d="M65.5128 55.7968C67.9277 55.3248 70.3913 55.0101 72.7252 54.3379C74.4108 53.8516 75.5129 54.1948 76.6312 55.2533C77.782 56.3546 78.9976 57.3987 80.2293 58.4285C81.0397 59.1008 81.4612 59.8445 81.0722 60.8314C80.197 63.077 79.3055 65.3369 78.3817 67.6969C75.8695 68.3834 73.4221 69.1415 70.9261 69.685C70.1806 69.8424 69.2729 69.4133 68.4301 69.2416C68.3329 69.2273 68.2681 69.0986 68.187 69.0414C61.396 63.9209 62.644 65.294 64.5241 58.5716C64.7672 57.7134 65.0428 56.8552 65.3021 55.997L65.529 55.8111L65.5128 55.7968ZM72.239 66.7243C73.6166 66.4096 74.9943 66.095 76.3557 65.7946C76.7933 64.4645 77.1661 63.3774 77.6199 61.9757C75.9505 62.3761 74.7025 62.6766 73.2438 63.0342C72.9197 64.2928 72.5955 65.5229 72.2714 66.7529L72.0931 66.9675L72.2552 66.7243H72.239ZM72.7414 60.7599C74.2001 60.3165 75.5291 59.916 76.5664 59.5871L73.9732 56.3689C72.2552 56.8838 71.0072 57.27 69.3864 57.7563C70.6668 58.9005 71.6555 59.773 72.7414 60.7599ZM67.1498 59.7158C66.1017 62.462 66.7608 64.6742 69.1271 66.3524C70.2184 63.7588 69.5593 61.5466 67.1498 59.7158Z" fill="url(#paint2_linear_2406_6)"/>
<path d="M42.5623 17.0783C40.0663 15.8197 37.7972 14.6897 35.5606 13.5455C34.5071 13.002 33.9236 12.2296 33.9398 11.0997C33.9722 9.01142 33.9398 6.92316 33.9398 4.64897C36.8572 3.34739 39.6611 2.10305 42.5137 0.830078C44.9448 1.8885 47.2625 2.93263 49.5964 3.91954C50.6337 4.34864 51.1848 4.97796 51.1686 6.00778C51.1524 8.19615 51.1686 10.3845 51.1686 12.7159C48.3322 14.1605 45.5931 15.5336 42.5623 17.0783ZM41.2171 13.5741V9.41191C39.8556 8.81118 38.5752 8.25334 36.9706 7.55249V11.5574C38.3159 12.201 39.6773 12.8447 41.2171 13.5741ZM44.3289 13.474C45.7876 12.7159 46.9384 12.1295 48.0567 11.5574V7.30936C46.6142 7.99591 45.4635 8.55373 44.3289 9.09724V13.474ZM46.7601 5.32122C44.88 4.47734 43.6968 3.94813 42.4813 3.40461C41.1684 4.03395 40.0339 4.59179 38.4293 5.34985C40.0663 6.09361 41.2332 6.62282 42.4974 7.18064C43.7616 6.62282 44.9448 6.10791 46.7438 5.30694L46.7601 5.32122Z" fill="url(#paint3_linear_2406_6)"/>
<path d="M51.1847 70.1002C51.1847 72.4459 51.136 74.4483 51.2009 76.4365C51.2495 77.7094 50.666 78.4675 49.3532 78.9967C47.1814 79.8549 45.0906 80.8275 42.8377 81.8144C41.4115 81.228 40.0014 80.6272 38.5751 80.0408C37.1488 79.44 35.7387 78.8393 34.1504 78.1671V70.0144C36.3871 68.8415 38.8506 67.4541 41.4276 66.2669C42.0921 65.9665 43.2916 66.081 44.0047 66.41C46.4034 67.5113 48.6887 68.7986 51.2009 70.1144L51.1847 70.1002ZM41.379 73.3184C41.379 72.4459 41.4114 71.8594 41.379 71.273C41.3304 70.6436 41.2169 70.0143 41.0873 69.0703C39.4665 69.9428 38.1537 70.6579 37.0191 71.273V75.3065C38.6237 74.577 39.8879 74.0049 41.3952 73.3326L41.379 73.3184ZM46.7924 77.3089C45.0906 76.5652 43.794 76.0074 42.5298 75.4495C41.1359 76.0789 39.8393 76.6653 38.3968 77.3089C39.8879 78.0384 41.2332 78.6963 42.6594 79.4114C43.9722 78.7392 45.2203 78.1099 46.7924 77.3089ZM48.17 71.2873C46.9058 70.6151 45.7875 70.0144 44.4099 69.2706V73.6187C45.6741 74.105 46.6141 74.9918 48.17 74.9203V71.2873Z" fill="url(#paint4_linear_2406_6)"/>
<path d="M65.2698 27.4764C64.4595 24.7874 63.6491 22.0841 62.8711 19.4667C65.1402 17.407 67.2634 15.4761 69.419 13.5166C71.834 14.1745 74.0868 14.8325 76.3721 15.3617C77.9929 15.7336 78.8519 16.5631 79.2571 17.9791C79.8244 19.9101 80.5699 21.7981 81.3641 24.0294C79.5974 25.5884 77.766 27.2046 75.9345 28.8209C74.9944 29.6362 73.8761 29.5503 72.7416 29.3072C70.3266 28.778 67.9279 28.2201 65.513 27.6766C65.4319 27.5908 65.3509 27.5336 65.2536 27.4621L65.2698 27.4764ZM69.0462 26.0461C72.5687 26.7994 75.297 26.1748 77.2311 24.1724C75.5942 23.7719 74.0058 23.3857 72.6606 23.0568C71.3801 24.1152 70.3266 24.9877 69.0462 26.0461ZM67.0851 24.1867C68.1548 23.1425 69.2083 22.1413 70.4077 20.9828C70.2942 20.6109 70.1322 19.9387 69.8728 19.2951C69.6297 18.68 69.2893 18.0936 68.9814 17.4643C66.8312 18.9041 66.1991 21.1449 67.0851 24.1867ZM77.6201 21.6836C76.2424 17.4928 76.1614 17.4213 71.9312 17.0495C72.4012 18.2938 72.8388 19.481 73.3088 20.711C74.6541 21.0114 75.9021 21.2975 77.6201 21.6836Z" fill="url(#paint5_linear_2406_6)"/>
<path d="M16.9385 56.5123C17.441 58.3431 17.7813 60.2311 18.5107 62.0047C19.1914 63.6353 18.9807 64.7795 17.5058 65.9952C11.6062 70.9012 14.1022 70.4435 6.22522 68.4697C4.11822 67.9405 2.96749 66.9536 2.44885 65.1228C1.94641 63.3921 1.23325 61.7043 0.503906 59.7305C2.36779 58.1 4.28031 56.4265 6.19282 54.7388C7.13287 53.9092 8.13773 54.0236 9.32089 54.3383C11.59 54.9247 13.9077 55.3681 16.2092 55.8687L16.2902 55.9402L16.9223 56.498L16.9548 56.5267L16.9385 56.5123ZM4.89623 59.3729C6.50079 59.8593 7.97566 60.3026 9.48298 60.7603L12.8704 57.6709C10.893 57.2275 9.40197 56.8842 8.04052 56.5696C6.9384 57.5422 5.99835 58.3717 4.89623 59.3586V59.3729ZM11.1362 62.5625C12.3031 63.6782 11.7521 65.2229 13.2918 66.0382L16.274 63.7783C15.7554 62.2621 15.3177 60.9892 14.7505 59.3444C13.4539 60.5029 12.5138 61.3468 11.1362 62.5625ZM9.85577 66.7676C8.78607 62.7199 8.235 62.3193 4.32895 62.3336C4.81518 63.5494 5.28521 64.7509 5.70661 65.8522C7.11668 66.1669 8.29984 66.4244 9.85577 66.7676Z" fill="url(#paint6_linear_2406_6)"/>
<path d="M16.3876 27.4336C19.224 27.6767 21.1203 29.0355 22.7735 32.0392C22.2386 33.0976 21.2986 33.3408 20.3747 32.5684C18.6729 31.1524 16.5983 29.9366 16.1445 27.6624C16.2256 27.5909 16.3066 27.5194 16.3876 27.4336Z" fill="url(#paint7_linear_2406_6)"/>
<path d="M41.655 17.622C42.8868 16.9927 43.8106 17.3646 43.9241 18.2371C44.1186 19.8819 44.0375 21.5697 43.8268 23.2145C43.7782 23.5721 42.7409 23.8439 41.9143 24.2729C41.1202 21.7556 41.2498 19.6388 41.6712 17.622H41.655Z" fill="url(#paint8_linear_2406_6)"/>
<path d="M16.209 55.8535C16.8897 53.3076 19.4343 52.2492 21.6872 50.2324L23.2756 51.7199C21.0227 53.6365 19.8233 55.8821 16.9546 56.4971L16.9221 56.4685L16.2901 55.9107L16.209 55.8392V55.8535Z" fill="url(#paint9_linear_2406_6)"/>
<path d="M42.4978 52.8365C42.0764 53.8807 42.044 54.6101 41.655 54.8247C40.1315 55.6399 38.4459 55.5112 36.8575 54.9534C36.4685 54.8247 36.0795 54.1524 36.1282 53.7805C36.1768 53.423 36.7927 52.908 37.1979 52.8794C38.7214 52.765 40.2773 52.8365 42.4978 52.8365Z" fill="url(#paint10_linear_2406_6)"/>
<path d="M47.0522 54.0802C45.2208 55.4247 44.0862 55.6249 43.2596 54.6952C42.9679 54.3805 42.9841 53.4937 43.2596 53.1934C44.0538 52.4067 45.4315 52.75 47.0522 54.0802Z" fill="url(#paint11_linear_2406_6)"/>
<path d="M35.8848 47.1579C36.6141 45.6131 37.6514 45.5559 38.6887 45.6132C39.6936 45.6561 40.7146 45.7133 41.6871 45.9135C41.9464 45.9707 42.222 46.5571 42.222 46.9004C42.222 47.2437 41.8816 47.8158 41.6223 47.8587C40.4067 48.0161 39.1425 48.1448 37.9107 48.0447C37.2462 48.0018 36.6141 47.5011 35.8848 47.1579Z" fill="url(#paint12_linear_2406_6)"/>
<path d="M46.9228 46.786C46.469 48.0303 45.4803 48.1304 44.443 48.1018C43.6002 48.0732 42.7574 47.8444 42.9033 46.9719C42.9681 46.5142 43.5678 45.9135 44.0702 45.7562C45.1724 45.4129 46.2745 45.5559 46.9228 46.786Z" fill="url(#paint13_linear_2406_6)"/>
<path d="M42.19 40.8648C40.2613 40.8648 38.7054 40.9506 37.1818 40.8362C36.1121 40.7647 35.6907 39.7492 36.3228 39.1056C37.3763 38.0185 41.0393 38.1186 42.0766 39.3201C42.2873 39.5632 42.1414 40.0495 42.19 40.8648Z" fill="url(#paint14_linear_2406_6)"/>
<path d="M47.117 40.1493C46.2255 40.4353 45.48 40.7643 44.702 40.8787C43.9241 40.9932 43.0488 40.8501 42.8706 39.992C42.6761 38.9907 43.5351 38.5902 44.4427 38.4472C45.4962 38.2756 46.42 38.5331 47.117 40.135V40.1493Z" fill="url(#paint15_linear_2406_6)"/>
<defs>
<linearGradient id="paint0_linear_2406_6" x1="23.6156" y1="45.6984" x2="65.5287" y2="45.6984" gradientUnits="userSpaceOnUse">
<stop stop-color="#AE8ABE"/>
<stop offset="1" stop-color="#8390C8"/>
</linearGradient>
<linearGradient id="paint1_linear_2406_6" x1="0.552341" y1="21.5985" x2="18.6888" y2="21.5985" gradientUnits="userSpaceOnUse">
<stop stop-color="#AE8ABE"/>
<stop offset="1" stop-color="#8390C8"/>
</linearGradient>
<linearGradient id="paint2_linear_2406_6" x1="63.033" y1="61.9185" x2="81.218" y2="61.9185" gradientUnits="userSpaceOnUse">
<stop stop-color="#AE8ABE"/>
<stop offset="1" stop-color="#8390C8"/>
</linearGradient>
<linearGradient id="paint3_linear_2406_6" x1="33.9398" y1="8.9542" x2="51.1848" y2="8.9542" gradientUnits="userSpaceOnUse">
<stop stop-color="#AE8ABE"/>
<stop offset="1" stop-color="#8390C8"/>
</linearGradient>
<linearGradient id="paint4_linear_2406_6" x1="34.1504" y1="73.9477" x2="51.2009" y2="73.9477" gradientUnits="userSpaceOnUse">
<stop stop-color="#AE8ABE"/>
<stop offset="1" stop-color="#8390C8"/>
</linearGradient>
<linearGradient id="paint5_linear_2406_6" x1="62.8711" y1="21.4977" x2="81.3641" y2="21.4977" gradientUnits="userSpaceOnUse">
<stop stop-color="#AE8ABE"/>
<stop offset="1" stop-color="#8390C8"/>
</linearGradient>
<linearGradient id="paint6_linear_2406_6" x1="0.520114" y1="61.9761" x2="18.8835" y2="61.9761" gradientUnits="userSpaceOnUse">
<stop stop-color="#AE8ABE"/>
<stop offset="1" stop-color="#8390C8"/>
</linearGradient>
<linearGradient id="paint7_linear_2406_6" x1="16.1283" y1="30.2227" x2="22.7573" y2="30.2227" gradientUnits="userSpaceOnUse">
<stop stop-color="#AE8ABE"/>
<stop offset="1" stop-color="#8390C8"/>
</linearGradient>
<linearGradient id="paint8_linear_2406_6" x1="41.3309" y1="20.7973" x2="44.0375" y2="20.7973" gradientUnits="userSpaceOnUse">
<stop stop-color="#AE8ABE"/>
<stop offset="1" stop-color="#8390C8"/>
</linearGradient>
<linearGradient id="paint9_linear_2406_6" x1="16.209" y1="53.3648" x2="23.2594" y2="53.3648" gradientUnits="userSpaceOnUse">
<stop stop-color="#AE8ABE"/>
<stop offset="1" stop-color="#8390C8"/>
</linearGradient>
<linearGradient id="paint10_linear_2406_6" x1="36.1119" y1="54.1095" x2="42.4978" y2="54.1095" gradientUnits="userSpaceOnUse">
<stop stop-color="#AE8ABE"/>
<stop offset="1" stop-color="#8390C8"/>
</linearGradient>
<linearGradient id="paint11_linear_2406_6" x1="43.0327" y1="54.023" x2="47.0522" y2="54.023" gradientUnits="userSpaceOnUse">
<stop stop-color="#AE8ABE"/>
<stop offset="1" stop-color="#8390C8"/>
</linearGradient>
<linearGradient id="paint12_linear_2406_6" x1="35.8848" y1="46.8289" x2="42.222" y2="46.8289" gradientUnits="userSpaceOnUse">
<stop stop-color="#AE8ABE"/>
<stop offset="1" stop-color="#8390C8"/>
</linearGradient>
<linearGradient id="paint13_linear_2406_6" x1="42.8871" y1="46.8432" x2="46.9228" y2="46.8432" gradientUnits="userSpaceOnUse">
<stop stop-color="#AE8ABE"/>
<stop offset="1" stop-color="#8390C8"/>
</linearGradient>
<linearGradient id="paint14_linear_2406_6" x1="36.0473" y1="39.6348" x2="42.2062" y2="39.6348" gradientUnits="userSpaceOnUse">
<stop stop-color="#AE8ABE"/>
<stop offset="1" stop-color="#8390C8"/>
</linearGradient>
<linearGradient id="paint15_linear_2406_6" x1="42.8543" y1="39.663" x2="47.117" y2="39.663" gradientUnits="userSpaceOnUse">
<stop stop-color="#AE8ABE"/>
<stop offset="1" stop-color="#8390C8"/>
</linearGradient>
</defs>
</svg>
