<svg width="88" height="78" viewBox="0 0 88 78" fill="none" xmlns="http://www.w3.org/2000/svg">
<path d="M52.2651 71.3337V77.4554C46.7707 77.5127 41.5843 77.4984 36.0088 77.4554C35.9116 76.3255 35.7981 75.3815 35.7657 74.4232C35.717 73.422 35.7657 72.4208 35.7657 71.3195C32.0055 69.9464 28.2777 68.5732 24.2258 67.0857C23.1399 68.0011 21.9567 69.0596 20.6925 70.0465C19.3149 71.1192 18.4072 71.205 17.1268 70.118C14.2418 67.7008 11.4217 65.212 8.68262 62.6661C7.40222 61.4932 7.45082 60.7352 8.71502 59.5337C9.86577 58.4324 11.1624 57.4455 12.2321 56.5587C10.5789 52.9972 9.0392 49.7075 7.36981 46.1318H0.740865C0.530165 45.4309 0.270828 44.9732 0.270828 44.5012C0.238413 40.9827 0.205998 37.4641 0.270828 33.9599C0.303244 31.8573 0.692246 31.5569 3.07478 31.4711C4.53347 31.4282 6.00837 31.4711 7.43465 31.4711C9.08783 28.067 10.6275 24.8631 12.2807 21.4447C10.8545 20.0859 9.26609 18.5698 7.75877 17.1252C8.8771 14.994 15.4412 8.9581 18.9583 6.75543C21.4219 7.35616 22.4429 9.73048 24.4689 10.7174C28.2129 9.30138 31.8434 7.9426 35.8143 6.45508V0.776765C38.4561 -0.0385095 48.3429 -0.167234 52.2327 0.533615C52.2976 1.42041 52.3948 2.3787 52.4272 3.337C52.4596 4.33822 52.4272 5.33944 52.4272 6.45508C56.2198 7.85678 59.9475 9.22988 63.805 10.6602C65.5068 9.38721 67.3707 7.9855 69.2832 6.5409C70.126 7.0272 70.7581 7.27035 71.2281 7.65653C73.9186 9.97363 76.5928 12.305 79.2023 14.6793C80.9041 16.2241 80.8879 16.9106 79.1375 18.4696C78.0191 19.4566 76.7063 20.2861 75.8797 20.9012C77.695 24.6915 79.2347 27.9097 80.9365 31.4568H87.2251C88.1003 33.7596 88.2624 42.2556 87.5493 45.9601H80.8069C80.0613 47.8624 79.494 49.5645 78.7323 51.2094C77.9705 52.8685 77.0143 54.4562 76.0256 56.3013C77.1601 57.3311 78.2947 58.2894 79.3482 59.3192C80.8393 60.7781 80.8555 61.4503 79.2672 62.8949C76.6577 65.2836 73.9996 67.6293 71.2929 69.9177C69.8018 71.1764 69.0077 71.1478 67.4841 69.9463C66.3172 69.0166 65.2312 68.0011 64.1291 67.0571C60.1582 68.4874 56.3981 69.8462 52.33 71.3051L52.2651 71.3337ZM78.3109 34.06C76.1228 29.3829 74.1617 25.1778 72.1357 20.8726C73.5782 19.5281 75.0531 18.1693 76.5928 16.739C74.0969 14.5792 71.9251 12.305 68.8294 10.1739C67.7921 11.2752 67.0141 12.2764 66.0416 13.1203C64.5019 14.4505 63.9671 14.4934 62.1681 13.5351C58.9427 11.8187 55.6039 10.3598 51.8761 9.71618C51.1306 9.58745 50.4175 9.21556 49.3802 8.85798V2.90793H39.2341C39.2341 4.32393 39.3152 5.59689 39.2179 6.86986C39.072 8.67204 38.3913 9.47303 36.414 9.7877C32.6538 10.3884 29.315 11.8044 26.0735 13.4779C24.0637 14.5077 23.7396 14.4648 21.9405 12.9773C20.968 12.162 20.028 11.3181 18.9421 10.3884C16.3164 12.4195 13.9988 14.3933 11.8431 16.6532C12.8318 17.5686 13.6098 18.298 14.4039 19.0132C16.5758 21.0013 16.5271 20.9727 15.0522 23.347C14.1284 24.8345 13.3018 26.3793 12.6049 27.9669C11.7459 29.9121 11.0652 31.9145 10.1738 34.1887C7.92089 34.4032 5.63559 34.6321 3.43135 34.8467V43.3856C5.87871 43.5 8.09913 43.5858 9.88198 43.6716C12.0538 48.3058 14.0312 52.5395 16.1219 57.0164C14.8253 58.2751 13.4153 59.6624 11.7945 61.2358C13.0911 62.38 14.2743 63.4384 15.4574 64.4969C16.6244 65.5267 17.8076 66.5565 19.5742 68.087C21.0653 66.2848 22.3457 64.7543 23.7071 63.1238C28.2129 65.6983 32.5241 67.4004 37.2082 68.3444C38.5858 68.6162 39.1855 69.6174 39.2179 70.8332C39.2665 72.1061 39.299 73.3791 39.3476 74.7093H49.4125V69.1883C54.6638 67.2574 59.5424 65.4695 64.6964 63.5815C66.0741 64.6828 67.63 65.9272 69.2994 67.2574C71.6819 65.1548 73.9023 63.2096 76.2524 61.15C74.7289 59.6481 73.3189 58.2608 72.0709 57.0164C74.2266 52.468 76.2687 48.1771 78.473 43.5429H84.5022C85.1181 40.1245 85.0533 36.8348 84.3239 34.5749C83.238 34.5749 82.1035 34.6464 80.9852 34.5463C79.8992 34.4461 78.8457 34.1601 78.2946 34.06H78.3109Z" fill="url(#paint0_linear_2343_444)"/>
<path d="M43.999 63.6098C30.3521 64.1676 15.749 53.755 16.0083 38.4221C16.219 25.5351 27.8886 14.207 44.1287 14.1069C59.7853 14.0211 72.2004 25.4779 72.1355 39.1373C72.0707 53.5262 57.9376 64.1962 43.999 63.6098ZM68.6509 39.0371C69.1858 26.8509 57.2083 16.9818 43.9342 17.0819C30.5142 17.1821 19.2336 27.3229 19.3471 38.9799C19.4605 48.9062 28.002 60.7921 44.0476 60.8064C59.1531 60.8064 69.3316 49.793 68.6347 39.0371H68.6509Z" fill="url(#paint1_linear_2343_444)"/>
<path d="M38.8131 39.4525C40.8391 34.5466 42.8164 30.0983 45.6689 25.6357C46.69 26.4367 47.4032 26.7371 47.6301 27.2091C49.575 31.1281 51.4227 35.0757 53.3514 39.1092C51.6496 40.2391 50.4989 41.3405 50.7744 43.1856C50.8716 43.7863 50.3854 44.5444 49.9316 45.0879C49.2994 45.8603 47.5491 45.5313 47.5328 44.6159C47.468 42.0985 46.4145 39.4239 48.7322 37.0066C47.9704 35.3332 47.1763 33.5882 46.1552 31.3426C45.0855 33.3737 44.2264 35.0185 43.4485 36.5203C46.0093 40.9686 44.3723 45.517 44.7775 49.9223C44.8423 50.5946 44.3076 51.324 44.032 52.0678C41.7954 51.7674 41.3415 50.6375 41.3253 49.2215C41.3253 47.219 41.2442 45.2023 41.3415 43.1999C41.4225 41.5693 41.1794 40.1962 38.7969 39.4668L38.8131 39.4525Z" fill="url(#paint2_linear_2343_444)"/>
<path d="M38.7478 33.8736C38.5695 35.3039 38.7964 36.7342 36.9325 37.292C34.55 36.963 35.1011 35.2896 35.1659 34.0023C35.2307 32.7723 35.6845 31.5565 36.0897 29.7686C35.7008 29.1965 34.939 28.0952 34.0476 26.7936C33.1399 28.0093 32.3457 29.0821 31.5192 30.1834C33.0913 31.8282 32.5078 33.7449 32.5726 35.5614C32.6375 37.4637 32.5726 39.366 32.5726 41.4256L29.9632 41.9119C29.1528 39.1943 29.8173 36.5626 29.477 34.0023C28.618 33.4874 27.7427 32.9439 26.6406 32.2859C27.4834 30.9129 28.1966 29.6828 28.9584 28.4813C30.0119 26.8222 31.0491 25.1487 32.1837 23.5325C33.221 22.045 34.6148 21.9449 35.6197 23.3609C37.3701 25.821 39.0071 28.3383 40.5954 30.8842C41.422 32.2001 41.1303 32.572 38.7316 33.8593L38.7478 33.8736Z" fill="url(#paint3_linear_2343_444)"/>
<path d="M55.0528 44.0866C54.8421 45.2451 54.6152 45.8887 54.6314 46.5324C54.7124 48.9067 54.8907 51.2953 55.0041 53.6696C55.0528 54.7567 54.372 55.3145 53.1564 55.4146C51.5681 54.8711 51.4385 53.6839 51.5033 52.4396C51.6006 50.6231 51.6654 48.8209 49.5908 47.648C51.0819 44.673 52.8323 42.0555 54.8421 39.624C55.458 39.7384 55.9604 39.6955 56.0739 39.8672C57.7919 42.1842 59.4613 44.5157 61.0982 46.8757C61.2441 47.0902 61.2603 47.5336 61.0982 47.7481C60.0772 49.1785 59.0075 50.5802 58.0026 51.9247C56.7222 51.8102 56.2035 51.2095 56.2035 50.3084C56.2035 49.1213 56.09 47.8483 56.5114 46.7612C56.9815 45.5598 56.1873 45.145 55.0041 44.1009L55.0528 44.0866Z" fill="url(#paint4_linear_2343_444)"/>
<defs>
<linearGradient id="paint0_linear_2343_444" x1="0.205998" y1="38.78" x2="87.9544" y2="38.78" gradientUnits="userSpaceOnUse">
<stop stop-color="#AE8ABE"/>
<stop offset="1" stop-color="#8390C8"/>
</linearGradient>
<linearGradient id="paint1_linear_2343_444" x1="16.0083" y1="38.8798" x2="72.1517" y2="38.8798" gradientUnits="userSpaceOnUse">
<stop stop-color="#AE8ABE"/>
<stop offset="1" stop-color="#8390C8"/>
</linearGradient>
<linearGradient id="paint2_linear_2343_444" x1="38.8131" y1="38.8375" x2="53.3677" y2="38.8375" gradientUnits="userSpaceOnUse">
<stop stop-color="#AE8ABE"/>
<stop offset="1" stop-color="#8390C8"/>
</linearGradient>
<linearGradient id="paint3_linear_2343_444" x1="26.6406" y1="32.1429" x2="41.033" y2="32.1429" gradientUnits="userSpaceOnUse">
<stop stop-color="#AE8ABE"/>
<stop offset="1" stop-color="#8390C8"/>
</linearGradient>
<linearGradient id="paint4_linear_2343_444" x1="49.607" y1="47.505" x2="61.2441" y2="47.505" gradientUnits="userSpaceOnUse">
<stop stop-color="#AE8ABE"/>
<stop offset="1" stop-color="#8390C8"/>
</linearGradient>
</defs>
</svg>
