<svg width="145" height="76" viewBox="0 0 145 76" fill="none" xmlns="http://www.w3.org/2000/svg">
<path d="M36.7835 71.848C36.8646 65.3973 38.3557 65.1971 44.077 65.0684C45.1143 62.8371 46.184 60.5486 47.3185 58.1456C46.5892 57.2875 45.7788 56.4579 45.1143 55.5425C43.6556 53.5258 43.688 52.0526 45.4709 50.3648C47.8696 48.0906 50.3818 45.8879 52.9588 43.7568C54.693 42.3265 57.0107 42.3551 58.826 43.6853C59.7012 44.3146 60.4792 45.0441 61.2409 45.6877L68.9396 42.7127C62.732 41.2395 56.8487 39.8377 50.787 38.3931C49.1338 39.852 47.4482 41.3396 45.7626 42.8271C35.4707 51.9238 25.195 61.0206 14.9031 70.1173C13.9631 70.9469 12.8772 71.6621 12.0344 72.2914C9.7491 72.1484 8.80905 70.761 7.60968 69.7455C6.29686 68.6441 5.01646 67.4999 3.78468 66.3127C2.66635 65.2257 1.64526 64.0671 0.429688 62.7799C1.27249 61.8502 1.83975 61.1207 2.53668 60.5057C16.2646 48.3481 30.0249 36.2048 43.7366 24.0186C45.1467 22.7599 46.3947 22.3165 48.5341 22.8457C58.4532 25.3201 68.4371 27.5371 78.3887 29.9257C80.366 30.3977 82.1002 30.4692 83.9317 29.5109C92.7325 24.9483 101.566 20.4285 110.577 15.8086C107.644 11.2173 104.759 6.71187 101.938 2.32083C103.154 0.103859 103.446 -0.110695 105.488 0.18967C110.853 0.976338 116.185 1.80592 121.534 2.6355C127.774 3.59381 134.013 4.5521 140.237 5.55332C141.55 5.76786 142.83 6.12544 143.916 6.35428C144.775 7.94192 144.273 9.15769 143.754 10.3878C140.302 18.6549 136.866 26.9221 133.414 35.1749C132.83 36.5766 132.231 37.9927 131.647 39.3944C131.453 39.8664 131.355 40.3813 131.096 40.8103C130.059 42.4409 128.195 42.5553 127.077 40.9534C125.164 38.2215 123.43 35.4038 121.598 32.6433C120.691 31.2702 119.767 29.9257 118.713 28.3667C109.151 33.2584 99.8477 38.007 90.2041 42.9415C92.619 43.9427 94.7098 44.8009 96.8979 45.7163C97.4165 45.2872 97.9027 44.8867 98.389 44.4862C101.225 42.1262 103.43 42.1691 106.282 44.6579C108.146 46.2741 109.994 47.9047 111.825 49.5495C114.953 52.3529 114.986 53.8547 112.068 56.7153C111.695 57.0872 111.323 57.4591 110.885 57.8882C111.955 60.2196 113.008 62.5224 114.11 64.911C116.088 65.526 118.794 64.4676 120.14 66.2555C121.258 67.743 121.615 69.6882 122.474 71.848C123.527 71.848 124.986 71.7765 126.428 71.8623C127.903 71.9624 128.616 72.6347 128.633 73.7074C128.633 74.7801 127.952 75.4953 126.461 75.5525C123.851 75.6526 121.226 75.6383 118.616 75.6383C90.2851 75.6383 61.9541 75.6097 33.623 75.5954C33.0558 75.5954 32.4885 75.624 31.9212 75.5811C30.2518 75.438 29.3766 74.7372 29.5063 73.6216C29.6359 72.4201 30.5274 71.8766 31.824 71.8623C33.3961 71.8337 34.9683 71.8623 36.7511 71.8623L36.7835 71.848ZM69.361 38.7936C70.609 36.3049 73.0402 36.1619 75.6496 36.2334C78.0321 36.3049 80.4309 36.3764 82.8134 36.2191C85.6821 36.0188 87.9512 36.6196 89.0696 39.1798C99.3939 33.9163 109.491 28.7672 119.751 23.5323C123.819 26.8935 125.115 31.5849 128.746 35.4753C132.425 26.636 135.942 18.1686 139.605 9.34364C128.989 7.71309 118.794 6.15406 108.276 4.53781C110.512 8.04206 112.554 11.2459 114.613 14.4641C116.185 16.91 116.088 17.3533 113.43 18.7121C106.363 22.3451 99.2966 25.9495 92.2138 29.5682C89.4585 30.9699 86.7194 32.4001 83.9641 33.7875C82.8782 34.3311 81.8409 34.7602 80.4309 34.4169C70.4955 31.9997 60.5278 29.7255 50.6087 27.2368C48.2424 26.6503 46.6702 26.822 44.8712 28.4382C32.6506 39.3801 20.3165 50.2075 8.03109 61.0921C7.41519 61.6356 6.88035 62.2649 6.21583 62.9515C8.07972 64.4962 9.79772 65.9265 11.613 67.4284C12.3423 66.8133 13.1851 66.1411 13.9793 65.4259C24.9033 55.7571 35.8597 46.1168 46.7188 36.405C48.4855 34.8174 50.0738 34.1594 52.6995 34.8889C58.0804 36.3764 63.6235 37.4635 69.3286 38.7793L69.361 38.7936ZM117.303 68.9588C115.747 68.9588 114.499 68.9302 113.251 68.9588C111.663 69.0017 110.496 68.358 110.204 67.0422C109.556 64.1386 108.049 61.5641 106.493 59.0182C105.65 57.6165 106.007 56.601 107.206 55.5425C108.049 54.7988 109.264 54.2552 109.362 53.0252C106.963 50.9512 104.613 48.9345 102.214 46.8749C100.755 47.9476 99.2156 49.0919 97.9838 50.0072C93.8346 48.5912 90.1555 47.3183 86.4439 46.1025C85.1635 45.6877 84.7421 44.901 84.7421 43.7854C84.7421 42.6126 84.6935 41.4397 84.6611 40.2668H74.1423C74.0612 41.2251 73.9964 42.0118 73.9478 42.7985C73.7857 45.1871 73.3319 45.7163 70.8035 46.4744C69.2962 46.9178 67.7726 47.304 66.3302 47.8475C64.4825 48.5483 62.6996 49.4065 60.7547 50.2361C59.1826 49.006 57.6915 47.8331 56.0221 46.5316C53.4288 48.8058 50.8842 50.8797 48.5341 53.2683C49.5552 54.2123 50.3008 54.9561 51.1273 55.6426C52.3753 56.6867 52.6833 57.9168 51.7756 59.1612C50.0252 61.5498 49.0203 64.1959 48.1289 66.8848C47.6427 68.3581 46.5406 68.9731 44.8388 68.9588C43.7366 68.9588 42.6183 69.0446 41.3703 69.0875V71.4761C45.1791 71.9767 55.86 71.8909 58.3236 71.3903C58.9557 69.6596 59.4257 67.9146 60.2199 66.2841C64.2232 58.0312 75.0337 53.3971 84.9528 56.0717C92.0193 57.974 96.5737 62.0504 98.9238 68.1578C99.3938 69.3592 99.8315 70.575 100.253 71.6764H117.32C117.401 71.1901 117.514 70.8182 117.514 70.4463C117.514 70.0601 117.417 69.6739 117.32 68.9445L117.303 68.9588ZM95.3905 71.6335C94.5964 64.4676 86.5087 58.1314 76.4276 59.2899C69.8148 60.048 62.6834 66.5416 63.3317 71.6335H95.4067H95.3905Z" fill="url(#paint0_linear_2406_9)"/>
<defs>
<linearGradient id="paint0_linear_2406_9" x1="0.445895" y1="37.8639" x2="144.386" y2="37.8639" gradientUnits="userSpaceOnUse">
<stop stop-color="#AE8ABE"/>
<stop offset="1" stop-color="#8390C8"/>
</linearGradient>
</defs>
</svg>
