<svg width="89" height="79" viewBox="0 0 89 79" fill="none" xmlns="http://www.w3.org/2000/svg">
<path d="M64.6865 67.6696C60.9588 69.0713 57.3282 70.4445 53.6005 71.8461C52.8225 73.7628 53.9733 75.994 52.6118 78.1681C51.4125 78.211 50.1969 78.2682 48.9651 78.2682C45.6587 78.2825 42.3685 78.3111 39.0622 78.2682C36.7283 78.2396 36.3393 77.8534 36.2258 75.7938C36.1934 75.193 36.2258 74.5923 36.2258 73.9916C36.2258 73.3909 36.2258 72.7902 36.2258 71.9892C32.5143 70.5732 28.8027 69.1572 24.8805 67.6696C23.3083 68.9569 21.6065 70.3729 19.9857 71.7031C17.5546 70.6304 12.0278 66.0248 8.33241 62.0485C8.99693 59.8602 11.7198 58.9877 12.903 56.9852C11.3957 53.81 9.85594 50.6061 8.13793 46.9731H1.26583C1.05513 45.743 0.747192 44.7847 0.7634 43.855C0.860646 40.0933 0.358225 36.303 1.13619 32.3697H8.10548C9.72625 28.8225 11.2498 25.5185 12.8705 21.9714C11.4281 20.5983 9.82349 19.0821 8.1541 17.4945C8.5593 16.9367 8.78624 16.4647 9.15902 16.1357C11.9467 13.6327 14.7507 11.1297 17.6032 8.68383C19.3699 7.1677 20.0992 7.21061 21.9145 8.68383C22.4979 9.15583 23.0328 9.68503 23.6163 10.1713C24.1025 10.5718 24.6374 10.9437 25.2046 11.3585C28.8027 10.0283 32.336 8.72673 36.0637 7.35363C36.2258 5.39411 36.3879 3.34878 36.5662 1.07459C38.9812 1.03168 40.9909 0.974466 43.0169 0.960163C45.6263 0.94586 48.2519 0.917253 50.8614 0.960163C52.8387 1.00307 53.2439 1.37495 53.3411 3.10562C53.4222 4.49302 53.3411 5.88042 53.3411 7.15339C57.2472 8.62661 60.8778 9.99971 64.7676 11.4586C66.2425 10.2572 67.9605 8.85547 69.5813 7.52528C72.0611 8.5265 79.16 14.591 81.3967 17.5517C79.8569 19.0106 78.2686 20.5267 76.6154 22.1001C77.5393 23.7878 78.5279 25.3612 79.3059 27.0204C80.0352 28.5794 80.5701 30.2099 81.3156 32.1552L88.3822 32.4412C88.5767 33.328 88.8522 34.0718 88.8684 34.8298C88.9171 38.048 88.9333 41.2519 88.8684 44.4701C88.836 46.5869 88.447 46.9016 86.0807 46.9731C84.5086 47.016 82.9364 46.9731 81.4129 46.9731C80.6349 48.9326 80.0514 50.649 79.2735 52.2938C78.5441 53.8529 77.6041 55.3404 76.7613 56.8565C78.382 58.4871 79.9218 60.0604 81.6398 61.8054C77.9607 65.5099 74.2653 68.8139 70.0189 72.0178C68.074 70.4587 66.3397 69.0571 64.7028 67.7412L64.6865 67.6696ZM64.33 64.194C67.1339 64.5945 68.1712 66.883 70.2458 67.827C72.5635 65.7817 74.784 63.8221 77.1827 61.7053C76.194 60.8328 75.2377 60.0032 74.3139 59.1307C72.6445 57.5717 72.4824 56.9996 73.8115 55.1831C75.7564 52.537 77.0044 49.6764 77.831 46.6298C78.4307 44.3843 79.1438 43.9552 81.8991 43.8265C82.985 43.7692 84.0872 43.712 85.2703 43.6548C85.4 40.5939 85.6107 37.8478 85.1245 34.8298H78.9331C78.5603 34.1576 78.2038 33.7428 78.0741 33.2708C77.1503 29.7236 75.7564 26.3624 73.4549 23.3158C72.6283 22.2288 72.8876 21.2562 73.9249 20.3551C75.0433 19.3968 76.113 18.3813 77.0692 17.5088C74.5084 15.2775 72.1907 13.2465 69.792 11.1583C68.3171 12.3454 66.5828 13.7328 64.7514 15.206C60.6346 12.7316 56.4044 11.0581 51.8176 10.1856C50.3103 9.89957 49.8727 9.02709 49.8079 7.78273C49.7431 6.42394 50.1644 5.00793 49.4837 3.73496H39.7429C39.7429 5.03654 39.7591 6.12358 39.7429 7.21061C39.6781 9.61353 39.6457 9.62781 37.0848 10.343C35.1399 10.8865 33.1464 11.3442 31.2987 12.0594C29.1269 12.8889 27.0685 13.9759 24.7022 15.063C23.0814 13.8186 21.412 12.517 19.6778 11.1725C17.2628 13.2608 14.8317 15.0344 13.0002 17.2943C14.1672 19.1823 16.6956 20.0118 16.9549 22.3003C14.6048 25.6043 12.7247 29.1086 11.7036 32.9704C11.2498 34.6725 10.9418 34.8155 8.86725 34.887C7.40855 34.93 5.96608 34.887 4.57222 34.887C3.94012 38.4199 4.03735 41.6524 4.81532 43.8265C5.88503 43.8265 7.01956 43.7549 8.1541 43.8265C10.6177 43.9981 11.1525 44.4272 11.8008 46.6155C12.7247 49.7479 14.1834 52.6657 15.9824 55.4691C16.3552 56.0555 16.6956 56.6706 17.117 57.3715C15.5449 58.8161 14.0699 60.1892 12.4816 61.6624C14.9127 63.8221 17.0522 66.1249 19.8399 67.9128C21.5579 66.5254 23.13 65.2667 24.8967 63.8507C28.8838 66.4682 33.2274 67.8556 37.7656 68.8568C39.1919 69.1715 39.7753 70.001 39.7429 71.2883C39.7105 72.6614 39.7753 74.0345 39.7915 75.4076H49.8241C49.8241 74.0488 49.7917 72.8617 49.8241 71.6745C49.9051 69.572 50.0186 69.3574 52.4174 68.7853C56.6151 67.7984 60.5698 66.3395 64.3138 64.1511L64.33 64.194Z" fill="url(#paint0_linear_2343_438)"/>
<path d="M16.9551 39.4638C16.1771 26.0762 30.0509 14.7053 44.7675 14.7482C59.0302 14.8054 73.0661 24.5029 72.9364 39.9645C72.8229 53.5381 60.9265 64.0937 44.9133 64.3226C29.7916 64.5371 16.4526 53.4379 16.9551 39.4638ZM45.0592 17.8805C31.7689 17.3799 20.1156 27.1346 20.0345 39.2922C19.9535 51.9933 31.6068 61.1473 44.4271 61.3761C58.4467 61.6336 69.5166 51.1065 69.5976 40.0074C69.6786 27.8212 58.5926 17.4944 45.0754 17.8662L45.0592 17.8805Z" fill="url(#paint1_linear_2343_438)"/>
<path d="M42.2554 41.4239L39.9701 40.2225C39.8729 39.8506 39.7108 39.636 39.7756 39.4787C41.5099 35.6884 43.2441 31.8838 45.0918 28.1364C45.3511 27.5929 46.2101 26.9635 46.8098 26.9492C47.3932 26.9492 48.2522 27.5786 48.5278 28.1221C50.4565 31.941 52.2556 35.8171 54.1843 39.8506L51.5911 41.3238C50.732 42.9115 52.5959 45.4574 49.3706 46.3442C47.1339 44.6707 48.0902 42.5396 47.8633 40.6373C47.7174 39.3929 48.3819 38.5347 49.7434 37.934C48.8033 35.9887 47.8795 34.0722 46.8422 31.941C45.8373 33.9434 44.9459 35.7456 43.9896 37.6765C44.4921 38.1914 45.2376 38.692 45.5456 39.3643C45.8697 40.0651 45.8211 40.9233 45.8373 41.71C45.8697 44.1129 45.8373 46.5158 45.8373 48.9187C45.8373 49.4193 45.8697 49.9199 45.8211 50.4205C45.7077 51.4647 45.3349 52.5517 43.941 52.5231C42.4985 52.4945 42.2716 51.4074 42.2716 50.3204C42.2878 47.3311 42.2716 44.3274 42.2716 41.4239H42.2554Z" fill="url(#paint2_linear_2343_438)"/>
<path d="M34.7181 22.6719C38.1055 25.6612 39.6939 29.38 42.1575 32.9271C41.0553 33.5851 40.2612 34.0571 39.2725 34.6721C39.1753 35.3301 39.1915 36.2598 38.8835 37.0751C38.4945 38.062 37.5545 37.9332 36.4685 37.59C35.9337 35.3444 35.7068 33.1131 36.9548 30.7102L34.8154 27.492L32.676 30.324C33.0487 31.8831 33.4863 33.0988 33.5836 34.3289C33.7295 36.131 33.6322 37.9475 33.616 39.7497C33.616 40.3505 33.6809 41.0227 33.4053 41.5233C33.146 41.9953 32.3842 42.6103 31.979 42.5531C31.3469 42.453 30.4231 41.8952 30.3096 41.4089C30.0341 40.2503 30.1476 39.0203 30.1314 37.8188C30.1152 36.8176 30.1314 35.8164 30.1314 34.8438C29.2724 34.2288 28.5106 33.6709 27.7812 33.156C28.4458 30.7388 32.2708 24.9031 34.7668 22.7005L34.7181 22.6719Z" fill="url(#paint3_linear_2343_438)"/>
<path d="M55.9506 39.8786C59.3704 42.2529 60.1646 45.5283 62.2554 47.9884C61.3964 49.2471 59.8566 49.8335 59.8729 51.3496C59.8729 51.6643 58.8193 52.3222 58.3979 52.2364C57.7658 52.0934 56.8745 51.4927 56.8096 51.0064C56.6475 49.8478 56.9393 48.6606 56.9717 47.4735C56.9879 46.6439 56.8907 45.8143 56.291 44.7988C55.8858 45.2994 55.4806 45.8 54.9619 46.4437C56.3882 48.6606 56.0478 51.1637 55.9182 53.6238C55.8858 54.3389 55.3833 55.1542 54.8161 55.6978C54.5243 55.9695 53.6167 55.7407 52.7253 55.7407C52.6442 54.7538 52.5146 53.8956 52.4984 53.0231C52.4498 50.2483 52.4498 50.2483 50.3428 48.1457C51.8177 45.3853 53.5357 42.6677 55.9506 39.8643V39.8786Z" fill="url(#paint4_linear_2343_438)"/>
<defs>
<linearGradient id="paint0_linear_2343_438" x1="0.682371" y1="39.5641" x2="88.8846" y2="39.5641" gradientUnits="userSpaceOnUse">
<stop stop-color="#AE8ABE"/>
<stop offset="1" stop-color="#8390C8"/>
</linearGradient>
<linearGradient id="paint1_linear_2343_438" x1="16.9227" y1="39.5354" x2="72.9202" y2="39.5354" gradientUnits="userSpaceOnUse">
<stop stop-color="#AE8ABE"/>
<stop offset="1" stop-color="#8390C8"/>
</linearGradient>
<linearGradient id="paint2_linear_2343_438" x1="39.7594" y1="39.7362" x2="54.1681" y2="39.7362" gradientUnits="userSpaceOnUse">
<stop stop-color="#AE8ABE"/>
<stop offset="1" stop-color="#8390C8"/>
</linearGradient>
<linearGradient id="paint3_linear_2343_438" x1="27.7326" y1="32.5982" x2="42.1575" y2="32.5982" gradientUnits="userSpaceOnUse">
<stop stop-color="#AE8ABE"/>
<stop offset="1" stop-color="#8390C8"/>
</linearGradient>
<linearGradient id="paint4_linear_2343_438" x1="50.3428" y1="47.8454" x2="62.2554" y2="47.8454" gradientUnits="userSpaceOnUse">
<stop stop-color="#AE8ABE"/>
<stop offset="1" stop-color="#8390C8"/>
</linearGradient>
</defs>
</svg>
