<svg width="89" height="79" viewBox="0 0 89 79" fill="none" xmlns="http://www.w3.org/2000/svg">
<path d="M63.8904 0.859599C76.1921 0.130143 88.3478 9.91344 88.2667 22.0281C88.1857 35.33 75.252 43.8546 62.9666 43.4112C49.8383 42.9392 39.0278 34.0999 39.1089 21.9852C39.2061 9.3413 50.8108 0.38759 63.8742 0.873894L63.8904 0.859599ZM82.74 13.6608C80.8923 9.24119 76.889 6.82397 72.367 4.87876C74.085 7.78228 75.0089 11.2436 79.5471 11.9731C80.6816 12.159 81.6865 13.0744 82.74 13.6465V13.6608ZM44.4898 30.5384L44.2467 30.3811L44.506 30.5241C46.5644 34.7864 50.357 37.4039 55.2031 39.392C53.3338 35.9021 50.7676 33.4134 47.5044 31.9258C46.4995 31.4681 45.4947 30.9961 44.4898 30.5384ZM44.4898 13.6608C46.5158 12.7454 48.5579 11.873 50.5353 10.9146C51.297 10.5428 52.1236 10.0708 52.545 9.45573C53.5175 8.03973 54.263 6.49501 55.4462 4.39246C50.3083 6.79537 46.532 9.41282 44.4898 13.6608ZM82.74 30.5528C80.714 31.4539 78.6718 32.3263 76.6783 33.2846C75.9327 33.6565 75.1061 34.1571 74.6847 34.7865C73.7285 36.2025 73.0153 37.7329 71.8808 39.8068C76.8241 37.3324 80.8436 34.9438 82.7075 30.5384L82.902 30.3096L82.7237 30.5528H82.74ZM76.581 13.6751L76.3217 13.5321L76.5972 13.6465C76.9052 15.9779 77.2131 18.3093 77.5211 20.6836C80.244 20.8553 82.6265 20.8267 85.2197 20.7408C83.5504 16.8361 80.4547 14.8766 76.581 13.6751ZM65.5112 11.2579C64.8953 14.8337 64.9763 18.6383 65.6084 20.5692H74.7495C74.1336 17.68 73.5664 15.0911 72.9829 12.3592C70.2762 11.9588 67.8937 11.6155 65.5112 11.2579ZM74.6847 23.4584C71.1028 23.3583 68.2179 23.1438 65.3005 23.5729V32.8269C67.9261 32.4694 70.3249 32.1547 73.0154 31.7971C73.5664 29.0366 74.0851 26.4335 74.6847 23.4727V23.4584ZM61.6051 20.6693C62.3345 18.6955 62.4479 15.0768 61.832 11.4439C59.3198 11.5869 56.8239 11.7299 54.263 12.6596C53.7768 15.32 53.3068 17.9088 52.8205 20.6693H61.6214H61.6051ZM62.0265 32.784V23.6873C58.4771 23.1438 55.349 23.1867 52.934 23.816C53.1123 25.089 53.242 26.362 53.5013 27.6349C53.7606 28.9794 54.1334 30.3096 54.4089 31.4538C55.041 31.7399 55.3166 31.9544 55.6407 31.9973C57.6343 32.2691 59.644 32.4837 62.0265 32.7697V32.784ZM50.9567 13.8611C46.4185 14.6907 42.9663 17.6085 42.9177 20.6407H49.8059C50.1949 18.3236 50.5677 16.121 50.9567 13.8611ZM77.5373 23.4441C77.1807 25.8757 76.8728 27.9925 76.4838 30.7101C80.6005 28.8793 83.8583 27.2201 85.1387 23.3297C83.1775 23.3297 81.492 23.3297 79.8064 23.3297C79.1419 23.3297 78.4773 23.3869 77.5373 23.4441ZM42.5449 23.4584C43.8253 27.1915 46.4185 29.1939 50.9567 30.1666C50.5677 27.9353 50.1787 25.7326 49.7735 23.4584H42.5449ZM71.7998 9.48434C69.9521 6.69524 68.6879 4.30664 65.3491 3.51997V8.64047L71.7998 9.49864V9.48434ZM71.6052 34.6434C69.2713 34.9438 67.3264 35.2012 65.2356 35.473C65.1384 37.3038 64.8791 38.92 65.4301 40.6793C68.5258 39.4349 70.1628 37.4182 71.6052 34.6434ZM61.9455 40.8509V35.5588C59.4279 35.063 57.5208 34.9962 56.2242 35.3586C57.3587 37.6185 59.1902 39.2633 61.9455 40.8366V40.8509ZM62.0265 3.47706C58.6391 5.20773 57.4235 6.43779 56.2404 9.36991C58.2501 9.09816 60.0654 8.85501 62.0265 8.59756V3.47706Z" fill="url(#paint0_linear_2343_372)"/>
<path d="M16.4502 42.6673C17.293 42.3669 18.1034 42.0666 19.0759 41.709C18.46 36.7458 21.037 34.7577 26.4666 35.5587C30.5509 36.1451 30.2106 39.0057 30.3402 41.709L32.8524 42.6816C33.7115 42.0236 34.4408 41.3943 35.2188 40.8508C37.5851 39.2202 39.6435 39.6207 42.5122 42.2811C44.7975 44.398 44.9434 45.7567 43.0309 47.7735C42.4474 48.3885 41.7991 48.932 40.9887 49.6901C41.329 50.4767 41.6856 51.2634 41.9773 51.95C48.1849 52.4363 49.2384 53.18 49.287 56.8988C49.3356 60.8465 48.347 61.5759 42.026 62.1481C41.718 62.7631 41.3615 63.464 40.9563 64.2506C41.7181 64.9944 42.415 65.6237 43.0633 66.3103C44.7975 68.1983 44.7651 69.4855 42.9336 71.3592C42.5609 71.7454 42.1556 72.0887 41.7342 72.432C39.06 74.6203 37.0988 74.6346 34.2949 72.4606C33.7925 72.0744 33.3062 71.6453 32.739 71.1733C32.1879 71.3735 31.6693 71.5309 31.1831 71.7597C30.8913 71.8885 30.6644 72.1316 30.4375 72.2889C29.8054 77.7241 29.3354 78.239 25.0889 78.2819C19.8539 78.3391 19.6756 78.1532 18.8004 72.2317C18.541 72.0744 18.2979 71.8455 17.99 71.7454C17.3579 71.5452 16.7096 71.4164 16.1099 71.2591C11.7014 74.7348 10.4372 75.0065 7.82776 72.6322C4.7483 69.8431 2.94925 69.5141 8.23296 64.1505C7.92501 63.5069 7.58461 62.806 7.22804 62.0479C4.78068 61.7047 1.73364 62.5057 0.647721 59.831C0.0642437 58.4007 -0.0492102 56.6414 0.242528 55.1253C0.907044 51.7497 4.06756 51.9929 7.04978 52.1502C7.48739 51.3635 7.87638 50.677 8.3302 49.876C7.60085 49.1466 6.92011 48.5029 6.28801 47.8307C4.42413 45.814 4.47278 44.541 6.46633 42.5529C6.92014 42.1095 7.40635 41.6804 7.90878 41.2799C10.1292 39.4634 11.7824 39.3919 14.246 41.0367C14.9591 41.5087 15.6236 42.0523 16.4178 42.6387L16.4502 42.6673ZM9.254 59.502C10.113 61.2327 10.9234 62.8632 11.8311 64.694C10.502 66.0528 9.18921 67.4116 7.73052 68.9134L11.28 71.7454C12.998 70.4581 14.4405 69.3854 15.9316 68.2698C18.0548 69.0851 19.9997 69.8288 21.896 70.544C21.9933 72.3604 22.0905 73.9338 22.1715 75.5214H27.1798C27.2932 73.7335 27.3742 72.1602 27.4715 70.4867C29.5623 69.7287 31.5234 69.0135 33.5007 68.2984C35.0729 69.4998 36.4991 70.5868 38.1361 71.8169C39.4489 70.7013 40.5186 69.7859 41.6694 68.8133C40.1134 67.3258 38.8007 66.0957 37.4554 64.8084C38.3631 62.9347 39.2058 61.2184 40.0486 59.502C42.1718 59.4019 44.0681 59.3018 46.0941 59.2016V54.7391C44.5544 54.7391 43.3226 54.7247 42.0746 54.7391C40.8104 54.7677 39.838 54.3386 39.3355 53.2945C38.671 51.9357 38.0875 50.5483 37.4878 49.2038C38.9465 47.8021 40.2269 46.5577 41.7018 45.1417C40.4052 44.1548 39.2545 43.268 38.0065 42.3097C36.2885 43.597 34.846 44.684 33.3873 45.7711C31.2641 44.9558 29.3191 44.212 27.3094 43.4396C27.3094 42.4384 27.3418 41.6375 27.3094 40.8508C27.2608 39.9783 27.1473 39.1201 27.0501 38.1046H22.285C22.1229 40.0498 21.9609 41.7948 21.7988 43.6399C19.708 44.3837 17.7469 45.0845 15.7695 45.7711C14.9429 45.0988 14.2784 44.5553 13.5977 44.0404C12.8521 43.4826 12.0904 42.9533 11.2638 42.3669C10.0482 43.5112 9.05953 44.4409 7.95741 45.4707C9.18919 46.6722 10.5344 47.9737 11.8959 49.3039C11.2962 50.4768 10.7127 51.4494 10.3075 52.4792C9.65923 54.1097 8.54088 54.9393 6.4825 54.7534C5.41279 54.6532 4.31067 54.8678 3.24096 54.9393V59.1444C4.39171 59.2302 5.26695 59.3017 6.15838 59.3446C7.16325 59.4019 8.16809 59.4305 9.254 59.4734V59.502Z" fill="url(#paint1_linear_2343_372)"/>
<path d="M54.8141 60.7038C55.43 59.388 56.5969 59.4166 57.7477 59.4166C60.1302 59.4166 62.5127 59.4309 64.8953 59.4166C68.5258 59.3737 69.6765 58.3295 69.7252 55.0398C69.7576 52.8372 69.7252 50.6345 69.7252 48.4318C69.7252 47.2733 70.1952 46.5152 71.897 46.5295C72.1077 46.9872 72.5453 47.5021 72.5615 48.017C72.6263 50.8204 72.6912 53.6238 72.5615 56.4129C72.4319 59.3593 69.8386 61.7623 66.516 61.9196C63.3555 62.0626 60.1788 61.9625 57.0021 61.9768C56.0297 61.9768 55.2193 61.7479 54.7979 60.6895L54.8141 60.7038Z" fill="url(#paint2_linear_2343_372)"/>
<path d="M18.6062 32.0118C16.7261 32.6412 15.7698 32.3837 15.7536 31.0106C15.6888 28.1071 15.5915 25.1892 15.8022 22.3C15.9967 19.5109 18.7358 17.294 21.9287 17.1938C25.2189 17.0937 28.5091 17.1366 31.7992 17.1938C32.4313 17.1938 33.0635 17.6658 33.809 17.9662C32.869 19.5395 31.5561 19.6683 30.1785 19.6683C27.7959 19.6683 25.4134 19.6254 23.0309 19.6826C20.0324 19.7541 18.7196 20.9126 18.6386 23.5587C18.5738 26.3478 18.6386 29.1369 18.6386 31.9975L18.6062 32.0118Z" fill="url(#paint3_linear_2343_372)"/>
<path d="M24.8944 46.672C31.5072 46.7149 36.9205 51.4636 36.7909 57.1419C36.6612 62.8774 31.264 67.3399 24.6027 67.4401C18.5086 67.5259 12.609 63.521 12.5928 57.0418C12.5766 50.3622 19.0597 46.0427 24.8944 46.672ZM24.7647 49.2037C19.3676 49.1751 15.6074 52.2359 15.3805 56.8558C15.1698 61.0466 19.481 64.6939 24.4568 64.9084C29.3677 65.123 33.6952 61.1324 33.7276 57.1419C33.76 52.7222 29.2543 48.7174 24.7647 49.218V49.2037Z" fill="url(#paint4_linear_2343_372)"/>
<defs>
<linearGradient id="paint0_linear_2343_372" x1="39.1089" y1="22.1282" x2="88.2667" y2="22.1282" gradientUnits="userSpaceOnUse">
<stop stop-color="#AE8ABE"/>
<stop offset="1" stop-color="#8390C8"/>
</linearGradient>
<linearGradient id="paint1_linear_2343_372" x1="0.129074" y1="56.8273" x2="49.3356" y2="56.8273" gradientUnits="userSpaceOnUse">
<stop stop-color="#AE8ABE"/>
<stop offset="1" stop-color="#8390C8"/>
</linearGradient>
<linearGradient id="paint2_linear_2343_372" x1="54.8141" y1="54.2818" x2="72.6426" y2="54.2818" gradientUnits="userSpaceOnUse">
<stop stop-color="#AE8ABE"/>
<stop offset="1" stop-color="#8390C8"/>
</linearGradient>
<linearGradient id="paint3_linear_2343_372" x1="15.6726" y1="24.7316" x2="33.7928" y2="24.7316" gradientUnits="userSpaceOnUse">
<stop stop-color="#AE8ABE"/>
<stop offset="1" stop-color="#8390C8"/>
</linearGradient>
<linearGradient id="paint4_linear_2343_372" x1="12.5928" y1="57.0274" x2="36.7909" y2="57.0274" gradientUnits="userSpaceOnUse">
<stop stop-color="#AE8ABE"/>
<stop offset="1" stop-color="#8390C8"/>
</linearGradient>
</defs>
</svg>
