<svg width="98" height="87" viewBox="0 0 98 87" fill="none" xmlns="http://www.w3.org/2000/svg">
<path d="M45.0185 61.3878C43.106 60.1577 41.1935 58.9419 39.3135 57.7405C38.7462 57.9693 38.3572 58.1982 37.9196 58.2983C35.3588 58.9419 34.3701 60.4295 34.3539 62.7466C34.3377 65.2925 33.5273 65.8932 30.691 66.0649C29.3295 66.1507 27.9519 66.1364 26.5904 66.0649C24.2727 65.9647 23.6082 65.4069 23.2516 63.4331C23.1706 62.9325 23.1382 62.4319 23.0247 61.9456C22.8464 61.1589 22.6033 60.4009 22.344 59.4426C21.1446 58.9133 19.8318 58.3412 18.3569 57.6976C16.4606 58.9133 14.5481 60.1291 12.3601 61.5451C10.0099 59.5141 7.77328 57.5832 5.29351 55.4377C6.7522 53.5783 8.08124 51.8762 9.41028 50.1456C9.28061 49.8595 9.10231 49.5877 9.03748 49.3017C8.37297 46.6413 6.55772 45.5257 3.42963 45.6401C1.12814 45.7116 0.739144 45.1824 0.706729 43.0799C0.674314 40.8915 0.755357 38.7031 0.787772 36.3717C3.23513 35.914 5.42318 35.5135 7.65984 35.0987C8.25953 33.8687 8.82679 32.6815 9.47509 31.38C8.35676 29.8781 7.17359 28.3048 5.89318 26.6027C7.85431 24.1998 10.2531 22.3976 12.7653 20.3237L18.6487 23.9567C20.1722 23.3989 21.6147 22.8553 23.0571 22.3261C23.2516 20.8529 23.3813 19.4512 23.6568 18.0924C23.9161 16.7765 24.7265 15.947 26.4445 15.9899C28.8271 16.0471 31.2096 16.0042 33.4625 16.0042C35.764 17.7777 34.6618 20.0948 35.2939 22.2689L39.7024 23.9996C41.5501 22.841 43.4626 21.6539 45.6669 20.2665C47.6604 22.0258 49.5891 23.6849 51.4854 25.387C52.5713 26.3596 52.3282 27.3751 51.453 28.3477C50.4805 29.4347 49.5081 30.5218 48.5518 31.5945L50.4319 35.6137C52.7334 36.2859 55.3753 35.2418 57.6119 37.2156C57.6119 39.2609 57.6281 41.5637 57.6119 43.8522C57.6119 44.8963 56.9798 45.54 55.7967 45.7116C54.1273 45.9691 52.4579 46.2122 50.4806 46.5126L48.568 50.3029L52.4417 55.123C49.9619 57.2113 47.6928 59.1279 45.051 61.3592L45.0185 61.3878ZM45.3913 23.8708C44.273 24.6861 43.3978 25.3012 42.5388 25.9448C40.9828 27.132 39.4107 27.3465 37.563 26.3453C36.5257 25.7732 35.294 25.4442 34.127 25.0866C32.4738 24.5717 31.3879 23.7707 31.4689 22.0401C31.5175 20.9816 31.3069 19.9232 31.2096 18.779H27.0442C26.947 19.8803 26.8335 20.8672 26.8011 21.8398C26.7201 23.5419 25.8448 24.6146 23.9485 25.1438C22.5547 25.53 21.2094 26.0735 19.8966 26.6456C18.5028 27.2607 17.3034 27.1606 16.1203 26.2881C15.083 25.5157 13.997 24.8148 13.3649 24.3715C12.0683 25.201 10.9986 25.8876 10.01 26.5169C11.3714 28.2476 12.587 29.7923 13.7215 31.2369C12.9435 32.6243 12.3114 33.6827 11.7766 34.7698C11.1931 35.9426 10.7069 37.1441 10.1882 38.3169L3.88345 39.3325V42.4648C5.94182 42.7795 7.91915 43.0942 10.1234 43.4374L13.7863 50.7177C12.5384 52.1766 11.3066 53.6069 10.3017 54.7941C11.1769 55.7667 12.0035 56.6678 12.9111 57.669C14.1915 56.7536 15.245 56.0098 16.2985 55.2518C17.271 54.5366 18.2759 54.4365 19.459 54.9228C21.5985 55.8096 23.7865 56.6249 26.1852 57.5402C26.5418 59.2852 26.9146 61.116 27.336 63.1184C28.746 62.8467 30.1399 63.4474 31.3879 62.5892C31.4527 61.445 31.3555 60.315 31.6634 59.2709C31.8903 58.4842 32.4576 57.4687 33.2193 57.1398C35.537 56.1385 38.0006 55.4234 40.4804 54.5795C42.166 55.6236 43.803 56.6249 45.5696 57.7262C46.4935 56.8251 47.3038 56.0384 48.098 55.2661C46.7852 53.5497 45.6345 52.0765 44.5323 50.6462C45.8776 48.043 47.1256 45.6115 48.2439 43.4374C50.4319 42.7938 52.62 43.6663 54.1597 41.907L53.9814 39.2895C52.2958 39.0035 50.7237 38.8175 49.2326 38.4457C48.5518 38.274 47.709 37.8163 47.4497 37.2871C46.4124 35.1989 45.5696 33.0391 44.6458 30.8937C45.8289 29.4061 46.9959 27.9615 48.1953 26.4597C47.2228 25.5586 46.461 24.8435 45.4237 23.8708H45.3913Z" fill="url(#paint0_linear_2406_14)"/>
<path d="M63.1231 79.0806L58.8604 81.8125C55.9106 80.9686 53.9819 79.4382 52.0046 76.3344C53.0095 75.0615 54.0954 73.6741 55.3109 72.158L53.6091 68.8396C52.4908 68.7538 51.3887 68.6966 50.2865 68.5679C48.3902 68.3533 47.8878 67.9529 47.823 66.308C47.742 64.42 47.8068 62.5177 47.8068 60.3293C49.8003 59.9145 51.6318 59.5284 53.7064 59.0993L55.3271 55.9526C54.225 54.6081 53.1067 53.2493 51.9235 51.8047C53.5443 49.5448 55.781 48.0144 58.05 46.0835C59.7356 47.0418 61.4212 47.9858 63.2365 49.0156C64.3062 48.658 65.457 48.2718 66.6077 47.8714C67.0291 46.1693 67.4181 44.5387 67.8233 42.8653C70.4489 42.1501 72.9449 42.5649 75.4085 42.5363C76.624 42.522 77.2075 43.2944 77.3372 44.2956C77.4668 45.2825 77.4993 46.2837 77.5965 47.4995C78.8607 48.043 80.1573 48.5865 81.4377 49.13C83.0423 48.1145 84.501 47.1848 86.0407 46.2122C88.7474 46.956 90.2061 48.9584 91.9565 50.6175C92.3617 50.9894 92.1996 51.9048 92.1186 52.5628C92.07 52.906 91.6162 53.2064 91.3568 53.5354C89.9198 55.2708 89.8009 57.135 91.0003 59.1279C92.7345 59.4425 94.4849 59.7429 96.0733 60.029C97.613 62.2173 97.0619 64.3628 97.0133 66.4367C96.9809 67.6954 95.976 68.4105 94.566 68.5536C93.4476 68.668 92.3131 68.6966 91.0651 68.7681C90.6923 69.5262 90.3358 70.2414 89.963 70.9565C89.4281 71.9863 89.574 72.8874 90.4816 73.717C90.9516 74.1461 91.4055 74.6038 91.8269 75.0758C92.6372 75.9912 92.6535 76.9495 91.7296 77.7934C90.1575 79.2237 88.5367 80.5967 86.8511 82.07C85.8462 81.6266 84.8576 81.4263 84.3065 80.8971C82.394 79.0806 80.4166 79.1378 77.9045 80.6397C77.7586 81.4263 77.4993 82.4705 77.402 83.5432C77.2886 84.8591 76.4782 85.5885 75.1005 85.7745C72.7504 86.1034 70.3841 86.3037 67.8719 85.2452C67.4991 83.7577 67.1101 82.213 66.6563 80.3822C65.6352 80.0103 64.3386 79.524 63.1555 79.0949L63.1231 79.0806ZM59.606 55.7094C58.8766 57.0396 58.1473 57.8978 57.9366 58.8418C57.3207 61.5737 55.5378 62.7751 52.4422 62.6178C52.1504 62.6035 51.8425 62.8324 51.3563 63.0183L51.6156 65.2639C52.2801 65.3497 52.7339 65.4498 53.1715 65.4498C55.6999 65.4069 57.1424 66.3938 57.661 68.668C57.9528 69.8981 58.7794 71.028 59.4925 72.444C58.5525 73.6169 57.5152 74.8898 56.4293 76.2486L58.1635 78.1223C58.6821 77.8363 59.0873 77.6646 59.4115 77.4072C61.4536 75.7766 63.3499 75.5764 66.1215 76.6062C69.1685 77.7361 71.0162 78.9233 70.6434 81.9841C70.611 82.2273 70.9027 82.4991 71.0972 82.8995L73.6094 82.6421C73.8201 81.4549 73.8849 80.4394 74.1929 79.4954C74.4036 78.8661 74.8412 78.0794 75.4247 77.8077C77.1103 77.0067 78.9093 76.3488 80.7246 75.8339C81.3729 75.6479 82.3129 75.8481 82.9613 76.1485C83.8527 76.549 84.5982 77.2069 85.441 77.7218C85.7003 77.8792 86.0407 77.9364 86.4945 78.0937L88.2774 76.2629C86.2676 74.1318 84.1282 72.0864 86.7052 69.3403C87.2725 65.9647 89.9468 65.1208 93.399 65.3497V62.7179C92.2483 62.6321 91.2434 62.5606 90.2385 62.4891C88.9905 62.4033 88.0829 61.8168 87.6291 60.8156C86.8511 59.0564 86.1704 57.2685 85.4086 55.4091C86.3487 54.2219 87.2887 53.0062 88.3098 51.6903L86.5594 49.6306C85.5059 50.3744 84.8413 50.7606 84.3065 51.2469C82.9126 52.5055 81.5026 52.4626 79.6711 51.8762C76.2675 50.7892 73.6581 49.316 73.7067 45.7116C73.7067 45.5686 73.4311 45.4255 73.2529 45.2396C72.6208 45.2396 71.94 45.211 71.2755 45.2539C71.0972 45.2539 70.9352 45.4827 70.692 45.6544C70.6596 46.0978 70.5948 46.5984 70.5786 47.0847C70.5462 50.1742 70.1572 50.1312 67.4343 50.9036C66.786 51.0895 66.0728 51.204 65.538 51.5329C63.4796 52.763 61.7454 52.4626 60.1084 50.8893C59.687 50.4888 58.9901 50.3029 58.3742 49.9882L56.2834 51.6045C57.5152 53.1492 58.5363 54.4222 59.5898 55.7237L59.606 55.7094Z" fill="url(#paint1_linear_2406_14)"/>
<path d="M54.1275 30.7936C54.8082 29.9211 55.4565 29.1201 56.0886 28.3048C57.3852 26.6314 56.4938 24.5717 54.2247 24.1427C53.236 23.9567 52.215 23.9567 51.1615 23.8709C49.1193 21.8256 49.9783 19.4512 50.2052 17.2343C50.2538 16.7766 51.5018 16.276 52.296 16.0614C53.3495 15.7754 54.484 15.7468 55.5861 15.6037L56.7369 12.929C55.7806 11.6418 54.8568 10.4117 53.7547 8.90989C55.651 7.22213 57.4662 5.60588 59.395 3.88952C60.4485 4.44734 61.4371 4.79061 62.1178 5.39134C63.6414 6.75013 65.1001 6.54989 66.9315 5.39134C67.2557 4.16128 67.6285 2.73098 68.0337 1.17194C70.7566 0.714246 73.4308 0.842973 76.413 1.11473L76.9803 5.31982L79.9463 6.53559C80.8539 5.99207 81.794 5.46286 82.7016 4.89074C84.6789 3.63207 85.1976 3.57485 86.8022 4.96225C88.0826 6.07788 89.8978 7.26504 90.1085 8.59522C90.303 9.8825 88.7471 11.37 87.7908 13.0292C88.0501 13.5727 88.4553 14.3737 88.7957 15.0888C95.4733 16.2903 94.3712 16.1472 94.4684 21.3536C94.4684 21.8399 94.3712 22.3405 94.3387 22.6837C92.9611 24.4144 90.9027 23.7851 88.9578 24.2428L87.6774 26.8745C88.6174 28.1046 89.5413 29.3347 90.4165 30.4646C89.2009 32.6101 87.7584 33.9832 84.841 35.8426C83.3013 35.0988 81.794 34.1977 80.1408 33.6828C79.4763 33.4682 78.4714 34.0976 77.6772 34.3264C77.2882 35.8426 76.9479 37.2013 76.5913 38.5315C74.4681 40.1335 72.0045 39.6329 69.7031 39.3754C68.9575 39.2896 68.1309 38.2884 67.7743 37.5589C67.4016 36.7722 67.5474 35.7853 67.4664 34.827C66.2184 34.1262 65.019 33.1536 63.4469 33.8258C62.2475 34.3407 61.2264 35.1703 60.0757 35.8855C57.3852 34.7412 55.6348 33.0249 54.1275 30.7936ZM63.8035 10.1972C62.4744 9.4248 61.1616 8.66675 59.7839 7.86578L58.5522 9.08153C59.5246 10.4117 60.3674 11.5703 61.0968 12.5858C60.4971 13.8874 59.9622 14.8886 59.5732 15.9327C58.9574 17.5919 58.0983 18.7933 55.7644 18.6789C54.6623 18.6217 53.4143 18.922 53.6412 20.3094C53.8519 20.5097 53.9978 20.7814 54.1437 20.7814C58.0173 20.8386 59.5733 23.0699 60.4647 25.9591C60.6105 26.4311 60.8537 26.8745 61.0968 27.4037C60.2054 28.5766 59.3463 29.7065 58.4387 30.8937L59.8488 31.995C61.3885 31.1368 62.7013 30.3931 63.8683 29.7351C65.2459 30.2644 66.2508 30.765 67.3205 31.0367C69.3627 31.5516 70.8376 32.2954 70.6917 34.5124C70.6269 35.5851 71.4373 36.1286 72.7987 35.7996C72.977 35.5708 73.3012 35.3419 73.3174 35.0845C73.4794 32.467 75.2785 31.2656 77.969 30.7364C78.828 30.5647 79.606 30.107 80.5946 29.7208L84.5979 32.0522C85.0355 31.6375 85.4731 31.2084 85.8621 30.8365C84.9059 29.5492 84.0631 28.3907 83.2527 27.2893C84.2414 25.2726 85.1328 23.4561 86.0242 21.6539C86.8994 21.5252 87.5963 21.4966 88.2284 21.3106C88.9416 21.0961 89.5899 20.7528 90.2544 20.4668C89.5737 18.8219 89.5575 18.6217 88.4067 18.6503C86.2349 18.7075 85.4245 17.5918 84.841 16.0471C84.4196 14.9172 83.8524 13.8158 83.2689 12.5143C84.0793 11.4272 84.9545 10.283 85.8945 9.03863L84.5331 7.89438L80.5298 10.2258C78.2607 9.36759 76.1861 8.58093 74.2736 7.85147C73.8036 6.30674 73.3984 4.97656 73.0256 3.73219C71.0807 3.36031 70.6917 4.49025 70.7403 5.43425C70.8376 7.62262 69.4113 8.40929 67.3691 8.9242C66.186 9.22456 65.0839 9.73947 63.8521 10.1829L63.8035 10.1972Z" fill="url(#paint2_linear_2406_14)"/>
<path d="M17.0765 40.434C16.4282 35.1848 22.8626 29.6352 29.1188 29.7639C36.0557 29.8926 41.5339 35.2849 41.3232 40.6915C41.0963 46.5414 36.1529 51.2042 29.1674 51.3615C22.2953 51.5189 17.0441 46.6558 17.0765 40.434ZM20.626 40.7344C20.5611 45.1254 23.7378 48.3007 29.1026 48.3579C34.8077 48.4294 37.5954 44.6248 37.7575 40.5055C37.9196 36.6151 33.349 32.9106 29.0215 32.9821C25.1803 33.0393 20.0911 36.3576 20.626 40.7344Z" fill="url(#paint3_linear_2406_14)"/>
<path d="M82.8967 63.8764C82.8642 69.0828 77.8236 73.4881 72.0213 73.3737C66.381 73.2593 61.4863 68.8539 61.5187 63.8049C61.5511 58.5271 65.441 54.5365 72.2644 54.2076C78.1154 53.9358 82.9291 58.6129 82.8967 63.8764ZM79.2986 63.8478C79.331 60.1863 76.527 57.5688 72.3941 57.4258C68.4232 57.2827 65.1978 59.9717 65.1006 63.5332C65.0034 67.1375 68.2935 70.227 72.232 70.1984C76.1218 70.1841 79.2661 67.3521 79.2986 63.8478Z" fill="url(#paint4_linear_2406_14)"/>
<path d="M72.2151 28.2192C66.4128 27.9475 62.4905 24.858 62.604 19.6088C62.7174 14.2738 66.5586 11.3416 72.1179 11.2415C77.3692 11.1414 81.8101 14.3882 82.0532 19.6517C82.2639 24.1572 77.4502 28.2192 72.2151 28.2335V28.2192ZM72.2151 25.0869C75.7484 25.0869 78.5685 22.6267 78.5037 19.6374C78.4389 16.7339 75.6512 14.3596 72.361 14.3739C68.4712 14.4025 66.3155 16.3477 66.3479 19.8233C66.3803 23.113 68.5846 25.0869 72.2151 25.0726V25.0869Z" fill="url(#paint5_linear_2406_14)"/>
<defs>
<linearGradient id="paint0_linear_2406_14" x1="0.674314" y1="41.0488" x2="57.5957" y2="41.0488" gradientUnits="userSpaceOnUse">
<stop stop-color="#AE8ABE"/>
<stop offset="1" stop-color="#8390C8"/>
</linearGradient>
<linearGradient id="paint1_linear_2406_14" x1="47.7906" y1="64.2341" x2="97.143" y2="64.2341" gradientUnits="userSpaceOnUse">
<stop stop-color="#AE8ABE"/>
<stop offset="1" stop-color="#8390C8"/>
</linearGradient>
<linearGradient id="paint2_linear_2406_14" x1="49.8324" y1="20.2522" x2="94.4846" y2="20.2522" gradientUnits="userSpaceOnUse">
<stop stop-color="#AE8ABE"/>
<stop offset="1" stop-color="#8390C8"/>
</linearGradient>
<linearGradient id="paint3_linear_2406_14" x1="17.0279" y1="40.5627" x2="41.3394" y2="40.5627" gradientUnits="userSpaceOnUse">
<stop stop-color="#AE8ABE"/>
<stop offset="1" stop-color="#8390C8"/>
</linearGradient>
<linearGradient id="paint4_linear_2406_14" x1="61.5187" y1="63.7763" x2="82.8967" y2="63.7763" gradientUnits="userSpaceOnUse">
<stop stop-color="#AE8ABE"/>
<stop offset="1" stop-color="#8390C8"/>
</linearGradient>
<linearGradient id="paint5_linear_2406_14" x1="62.604" y1="19.7232" x2="82.0694" y2="19.7232" gradientUnits="userSpaceOnUse">
<stop stop-color="#AE8ABE"/>
<stop offset="1" stop-color="#8390C8"/>
</linearGradient>
</defs>
</svg>
