<svg width="115" height="113" viewBox="0 0 115 113" fill="none" xmlns="http://www.w3.org/2000/svg">
<path d="M57.6007 112.665C88.4343 114.155 114.397 85.9495 114.066 56.4205C113.735 25.5676 89.0018 0.45971 58.0263 0.0341527C26.6489 -0.415047 0.662607 25.1421 0.733543 56.2787C0.804479 89.2358 27.5947 113.682 57.5771 112.641L57.6007 112.665ZM66.9643 106.825C69.6362 103.776 72.1663 101.199 74.318 98.338C76.4461 95.5719 78.1958 92.522 80.3239 89.3067C84.9111 88.5502 88.0087 91.7655 91.5555 94.0351C87.2757 100.253 76.517 105.903 66.9406 106.825H66.9643ZM60.3909 59.1394H83.4215C82.9249 67.2723 81.3407 74.7905 78.1012 81.7885C72.0244 80.8901 66.3022 80.0626 60.3909 79.2115V59.1394ZM60.3909 53.6308V34.0788C66.2313 33.2277 71.8352 32.4002 77.983 31.5018C81.1988 38.358 82.8067 45.687 83.5161 53.6308H60.3909ZM95.4097 90.2997C91.5555 88.1482 87.654 85.9732 83.7762 83.7981C85.5732 75.3815 87.2757 67.3905 89.0254 59.163H108.013C110.401 66.6339 103.189 84.6256 95.4097 90.2997ZM108.911 53.2052C105.435 54.5055 102.078 53.7253 98.8146 53.8672C95.6461 54.0091 92.454 53.8908 89.2382 53.8908C87.323 45.6161 85.455 37.5778 83.587 29.4686C87.8904 27.0571 91.8156 24.8584 96.119 22.4469C103.733 31.2417 108.273 41.266 108.935 53.2052H108.911ZM91.6973 18.4513C89.0254 21.6194 85.2894 23.0143 81.0569 24.5274C80.253 23.5108 79.2599 22.4232 78.4559 21.2411C75.051 16.3236 72.0244 11.1223 67.2244 7.0795C72.7811 5.82647 85.6914 11.8788 91.6737 18.4513H91.6973ZM60.3672 8.68716C64.4579 10.082 67.2716 13.2501 75.3584 25.3548C74.9564 25.875 74.5781 26.8916 74.0106 26.9861C69.6362 27.8136 65.2618 29.1376 60.3672 28.1682V8.68716ZM60.2017 86.5406C60.2017 84.9093 61.4786 84.1291 62.9682 84.3419C67.0589 84.9566 71.1259 85.7131 75.2402 86.446C72.8993 93.3731 67.2244 100.371 60.1544 104.792C60.1544 98.1961 60.1071 92.3565 60.178 86.5406H60.2017ZM22.9366 94.768C26.0105 91.2453 30.3376 90.276 34.1445 88.1482C38.8263 94.437 43.3662 100.537 48.3081 107.156C38.3534 105.478 30.172 101.364 22.9366 94.768ZM32.9386 59.6595C36.4617 58.7375 47.8588 58.5483 54.8815 59.3049V78.9515C49.112 79.8026 43.5317 80.6301 37.5967 81.5285C34.4282 74.3885 32.2292 67.3432 32.9386 59.6595ZM55.0943 101.27C55.0943 102.215 54.8815 103.185 54.7633 104.249C49.6559 101.411 46.1563 97.2977 39.7484 86.5406C44.1228 85.7367 48.0243 84.9566 51.9495 84.3182C53.6519 84.0582 55.047 84.7438 55.0707 86.6824C55.1652 91.5527 55.1179 96.423 55.0943 101.27ZM54.5505 53.749C51.1692 53.7963 47.6933 53.8672 44.2174 53.8672C40.6942 53.8672 37.1711 53.8672 33.2932 53.8672C31.6381 45.7107 35.2322 38.8308 37.3603 31.6673C43.2243 32.4711 48.6627 33.2277 54.0775 33.9606C55.3307 37.1759 55.5909 46.7273 54.5505 53.749ZM54.8342 8.8763V27.8609C49.9396 28.9248 47.1967 28.6647 40.6706 26.6079C41.7819 21.312 47.0785 14.5031 54.8342 8.85265V8.8763ZM48.7573 6.0156C43.8627 12.3517 39.3228 18.2149 34.381 24.5983C30.3849 23.889 26.6253 21.5012 22.5583 18.475C30.3612 11.9025 38.5189 7.33956 48.7337 6.03924L48.7573 6.0156ZM5.86459 51.503C7.49612 41.266 10.6646 31.6673 17.8055 23.7708C18.2311 23.298 18.8459 22.967 19.2952 22.636C23.4804 25.0238 27.5238 27.3171 31.7799 29.7523C32.0637 33.8187 29.6755 37.3414 29.0607 41.2423C28.446 45.1906 27.8785 49.1624 27.1927 53.8672C20.8558 53.8672 14.637 53.8672 8.41829 53.8672C6.8577 53.8672 5.60449 53.1579 5.86459 51.503ZM16.7415 88.2664C11.3503 80.8665 7.3306 72.8991 6.45572 63.6077C6.33749 62.4729 5.98285 61.3854 5.67546 59.9669C9.76611 58.6665 22.44 58.5483 27.4765 59.7304C27.6656 67.6033 29.6755 75.2869 32.6548 83.1361C30.8341 84.0818 29.0607 84.9566 27.3346 85.8786C25.4193 86.8952 23.4804 87.9118 21.6124 88.9994C18.8223 90.6543 18.5149 90.6779 16.7415 88.2664Z" fill="url(#paint0_linear_2343_481)"/>
<defs>
<linearGradient id="paint0_linear_2343_481" x1="0.757189" y1="56.3969" x2="114.09" y2="56.3969" gradientUnits="userSpaceOnUse">
<stop stop-color="#AE8ABE"/>
<stop offset="1" stop-color="#8390C8"/>
</linearGradient>
</defs>
</svg>
