<svg width="97" height="86" viewBox="0 0 97 86" fill="none" xmlns="http://www.w3.org/2000/svg">
<path d="M96.2844 61.4453C91.6004 59.6574 87.1595 57.941 82.4916 56.1532C81.9244 58.8993 82.3458 61.5597 82.2323 64.2058C82.1675 65.7219 82.1999 65.7219 81.114 67.424C76.6893 65.7219 72.2484 64.0199 67.4185 62.1605C67.3537 65.9079 67.2888 69.5122 67.224 73.5314C61.762 72.3299 57.4345 69.6982 52.2481 68.2679V79.4958C47.0292 78.609 42.9935 75.8199 37.9367 74.6899C37.8557 78.3229 37.7908 81.7842 37.726 85.0024C36.2997 85.8463 35.4083 85.2599 34.4845 84.9023C26.5913 81.8272 18.6982 78.752 10.805 75.6625C7.40142 74.3324 3.9978 72.9736 0.723849 71.672C0.0107108 68.4252 0.140373 27.3611 0.902135 25.0583C5.79686 26.317 10.1567 28.7056 15.0676 30.236C15.4242 26.5172 14.9056 22.8127 15.4404 18.6792C20.3189 20.5242 24.7436 22.1834 29.3304 23.9141C30.2867 20.1953 28.8118 16.5194 30.3839 12.8578C35.3435 14.0593 39.444 16.5051 44.2577 17.7924C44.9222 15.8471 44.436 13.9448 44.6143 12.0997C44.7764 10.3548 44.128 8.52398 45.3598 6.56446C49.9628 8.32374 54.4848 10.0687 59.3471 11.9281C59.8495 8.20931 59.3471 4.73367 59.7199 0.943359C60.7571 1.07209 61.6485 1.01487 62.3779 1.30094C69.3472 3.98991 76.2841 6.7504 83.2372 9.46798C84.4203 9.92568 85.2469 10.6265 85.9439 11.6277C89.1854 16.219 92.5728 20.7388 95.8306 25.3301C96.333 26.0452 96.6571 27.0035 96.6571 27.8474C96.7058 38.3888 96.7058 48.9444 96.6734 59.4858C96.6734 60.0436 96.4464 60.6014 96.2519 61.4453H96.2844ZM63.1397 36.558C63.1721 36.6295 63.172 36.7153 63.2207 36.7725C63.2531 36.8154 63.3341 36.8154 63.399 36.8297L63.1073 36.5723C61.9565 34.8702 60.8057 33.1681 59.6388 31.4804C58.5042 29.8355 57.3211 28.2193 55.8462 26.174V34.1408C58.326 34.9703 60.7409 35.757 63.1397 36.558ZM93.1725 24.5148L93.4156 24.6864L93.1563 24.5291C90.6279 21.0105 88.1157 17.492 85.2631 13.5014V21.8687C87.9374 22.7698 90.5631 23.6423 93.1725 24.5148ZM78.148 30.5364C78.229 30.6365 78.3101 30.7223 78.2452 30.6508C78.3263 30.7223 78.2452 30.6508 78.1318 30.565C75.6358 27.0321 73.1398 23.4993 70.2386 19.4086V27.9046C72.9129 28.8057 75.5385 29.6782 78.1642 30.5507L78.148 30.5364ZM63.1234 32.9536L62.8641 32.8106L63.091 32.9822C64.7604 36.2576 67.532 38.446 71.4218 39.5759C72.7022 39.9478 73.9664 40.4484 75.1496 41.0348C75.5385 41.2351 75.6682 41.8501 76.2841 42.9371C74.2582 42.2363 73.0101 41.8358 71.7946 41.3781C70.4493 40.8632 69.1365 40.2911 67.5805 39.6474V43.166C70.5465 44.3818 73.3019 45.5117 76.0086 46.6273C75.652 48.0862 74.7606 47.7573 73.9178 47.4283C71.8756 46.6416 69.8334 45.8407 67.4995 44.9396V48.2722C70.1252 49.9456 73.6423 50.2031 75.8789 52.5202C72.7995 52.6489 70.3359 50.9898 67.4347 50.1602C67.4023 50.7609 67.3375 51.2472 67.3537 51.7478C67.3861 52.3343 67.4833 52.9207 67.5481 53.5786C69.1365 54.2652 70.6762 54.8945 72.1997 55.5667C73.545 56.1675 75.5061 56.096 76.0572 58.27C72.767 57.8552 70.4331 56.1103 67.4833 55.4666V60.5013C71.6325 62.1032 75.7168 63.6766 79.8984 65.2928V33.4828C76.0248 31.9095 72.3294 30.422 68.4395 28.8486V17.2774C61.2109 14.4168 54.2254 11.6564 46.8996 8.76713V18.7221C47.3372 18.9652 47.6937 19.2227 48.0989 19.38C50.449 20.3669 53.2043 20.939 55.0844 22.3979C57.0456 23.9284 58.3097 26.2455 59.6226 28.3337C60.7085 30.0501 62.4265 30.8511 64.3228 31.5805C67.7589 32.8964 71.1787 34.2266 74.5985 35.5854C75.1496 35.7999 75.5872 36.2433 76.0734 36.5723C75.1658 37.0157 74.4364 37.0586 73.8205 36.844C70.2386 35.5854 66.6891 34.2695 63.1397 32.9679L63.1234 32.9536ZM78.1318 26.9463C78.0507 26.8462 77.9697 26.7604 78.0021 26.8033C77.9535 26.7747 78.0669 26.8462 78.1642 26.932C79.3635 29.6353 81.1788 31.7522 84.469 32.7391C86.3977 33.3255 88.2454 34.1265 90.0606 34.9274C90.4172 35.0848 90.4983 35.7284 91.0169 36.8011C87.7267 35.5997 85.1821 34.67 82.524 33.6974V37.1301C84.161 37.788 85.6521 38.2886 87.046 38.9609C88.3264 39.5759 90.0444 39.719 91.0007 41.5068C87.6943 41.5068 85.5225 39.39 82.524 39.2183V42.3793C84.939 43.3376 87.2243 44.2101 89.4771 45.1684C90.1579 45.4545 90.9845 45.8979 89.931 46.8562C87.5322 45.9837 85.0525 45.0826 82.4592 44.1243V47.5999C85.0201 48.6012 87.5322 49.5309 89.9796 50.5607C90.3686 50.7323 90.5306 51.3473 90.79 51.7621L90.3524 52.2055C87.8078 51.2758 85.2632 50.3461 82.4916 49.3306V54.4511C86.6408 56.0674 90.7414 57.655 94.9554 59.2998V27.4183C91.1141 25.8593 87.4187 24.3718 83.5289 22.7984V11.1986C76.0734 8.26652 68.8124 5.42022 61.4379 2.531V12.6719C62.3293 13.0151 63.0424 13.3584 63.7879 13.573C68.2937 14.8745 71.7135 17.2345 73.707 21.1393C74.9388 23.5565 77.2566 24.8438 80.0767 25.7449C83.2696 26.7747 86.3166 28.1478 89.4123 29.4064C90.093 29.6925 90.8224 30.1216 90.1254 31.1371C89.4609 30.9369 88.845 30.7652 88.2453 30.5507C84.8904 29.3492 81.5354 28.1335 78.1804 26.9177L78.1318 26.9463ZM24.0791 35.614L2.50668 27.0607V70.728C13.5279 74.9474 24.3384 79.4242 35.5866 83.5864V51.8336C31.7129 50.2603 27.9365 48.7156 24.0791 47.1565V35.614ZM61.1137 42.4794L60.7571 43.2947C58.5853 43.0087 56.6404 42.0504 54.6306 41.3066C52.6371 40.5771 50.8056 39.4615 48.3582 39.1611C48.8445 39.8334 49.2334 40.2196 49.4441 40.6773C50.4166 42.7798 52.2481 43.9956 54.5658 44.7965C56.3648 45.4259 58.1315 46.1124 59.8657 46.8419C60.5302 47.1136 61.3244 47.4712 60.6599 48.7442C57.9532 47.743 55.3275 46.7561 52.5074 45.7262V49.1876C55.1006 50.2174 57.5804 51.2043 60.0602 52.1912C60.8706 52.5059 61.4378 52.9064 60.6113 54.0077C58.018 53.0494 55.3762 52.0625 52.475 50.9898V54.2938C55.1817 55.9672 58.6663 56.2676 61.5027 58.5847C59.3308 59.3141 58.099 58.127 56.7376 57.7551C55.2951 57.3546 53.9337 56.7682 52.4588 56.2247V59.5573C54.0309 60.2295 55.5383 60.8875 57.078 61.5311C58.5205 62.1318 60.3844 62.1891 61.2272 64.0914C57.8073 64.1915 55.5221 62.0031 52.475 61.5311V66.5086C56.7701 68.182 61.0002 69.8126 65.5222 71.5719V39.719C62.3617 38.4746 59.2984 37.1587 56.1379 36.0574C53.9985 35.3136 53.2692 34.1408 53.3988 32.1383C53.5933 29.2491 53.4474 26.3456 53.4474 23.3133C46.2674 20.467 39.2657 17.6922 31.9723 14.803V24.8295C32.572 25.1298 32.9447 25.4016 33.3661 25.5017C38.7147 26.8462 42.4262 29.7926 44.6467 34.2552C45.5381 36.0431 47.3534 36.8583 49.2496 37.5735C52.4912 38.7893 55.7003 40.0336 58.9095 41.3066C59.6874 41.607 60.3681 42.079 61.0975 42.4794H61.1137ZM37.9853 72.759C42.2318 74.2036 46.0892 76.249 50.5463 77.3932V45.7834C47.3858 44.5248 44.3387 43.2089 41.1944 42.1076C39.055 41.3638 38.3257 40.1767 38.4391 38.1885C38.6174 35.2993 38.4878 32.3958 38.4878 29.3635C31.2916 26.5029 24.306 23.7281 16.9964 20.8246V30.9369C18.5523 31.5805 19.93 32.3243 21.4373 32.7534C24.1602 33.5257 26.2996 34.7272 27.4989 37.1444C28.05 38.2314 29.0711 39.1182 29.7032 40.1623C30.7891 41.9359 32.4261 42.9657 34.5169 43.7095C38.196 45.0254 41.7941 46.5129 45.3922 47.9861C45.8298 48.1721 46.073 48.7442 46.8509 49.6739C41.6969 48.6441 37.9691 46.2268 33.5768 45.1255C35.3272 48.0147 37.6396 50.0505 40.5137 51.2329C42.0535 51.8623 43.658 52.4058 45.1491 53.0923C45.5705 53.2782 45.7326 53.8933 46.0243 54.3081L45.5867 54.7944C43.0908 53.8647 40.5948 52.9493 37.8232 51.9195C37.9043 53.3784 37.9691 54.4511 38.0177 55.3951C41 56.6252 43.7391 57.7551 46.4295 58.8707C46.1216 60.0722 45.4895 60.1294 44.5981 59.7718C42.4911 58.928 40.3516 58.1127 38.0177 57.2116V60.5013C40.6434 62.2892 44.2739 62.3607 46.4619 64.6206C46.235 64.8923 46.1378 65.0354 46.1054 65.0354C43.4797 64.2916 40.8703 63.5478 38.0826 62.7469V65.9078C39.7033 66.5801 41.1458 67.1808 42.5721 67.7672C43.8687 68.3108 45.6029 68.3537 46.1378 70.3275C42.9773 70.0414 40.7406 68.3537 37.9691 67.6814V72.7733L37.9853 72.759ZM25.7971 45.7405C29.6708 47.9003 31.3564 48.501 33.593 48.501C31.0484 45.054 28.5362 41.6356 25.7971 37.9025V45.7262V45.7405ZM49.0552 43.2661C46.0567 39.1468 43.5122 35.6712 40.8703 32.0525V40.0336C43.4311 41.0491 45.8623 42.0074 49.0552 43.2661Z" fill="url(#paint0_linear_2343_249)"/>
<path d="M32.0698 70.7284C31.0974 71.0574 30.7246 71.3149 30.5139 71.229C22.6532 68.1682 14.7924 65.0787 6.94792 61.975C6.72101 61.8891 6.65617 61.4886 6.25098 60.8164C7.28827 60.9165 8.01763 60.845 8.60111 61.0596C13.1717 62.8188 17.7098 64.621 22.248 66.4232C24.7278 67.4101 27.2075 68.3684 29.6711 69.3839C30.3518 69.67 30.9515 70.0991 32.0698 70.7284Z" fill="url(#paint1_linear_2343_249)"/>
<path d="M31.8264 54.8797C31.2267 55.3088 30.9836 55.5663 30.8863 55.5234C22.9932 52.534 15.1162 49.5304 7.2555 46.4981C6.91514 46.3694 6.70445 45.9546 6.47754 45.7115C7.12585 44.6244 7.88759 45.0678 8.58452 45.3396C13.1389 47.1275 17.677 48.9297 22.2314 50.7175C24.7112 51.6901 27.2072 52.6627 29.6707 53.664C30.3515 53.95 30.9674 54.3791 31.8426 54.8654L31.8264 54.8797Z" fill="url(#paint2_linear_2343_249)"/>
<path d="M5.87793 50.5889C7.10971 50.5316 7.7094 50.3457 8.1308 50.5174C14.5328 53.049 20.9187 55.6378 27.2883 58.241C27.4504 58.3125 27.4179 58.7559 27.499 59.042C25.3434 58.9418 15.2946 55.3518 8.14702 52.1193C7.51492 51.8332 6.99628 51.3612 5.89415 50.5889H5.87793Z" fill="url(#paint3_linear_2343_249)"/>
<path d="M7.14186 55.1237C12.5228 57.3979 17.92 59.6577 23.2847 61.9605C23.4306 62.0178 23.3496 62.4611 23.382 62.7472C21.2912 62.5041 8.47091 57.7554 6.93118 56.6255C6.67186 56.4396 6.63943 56.0105 6.50977 55.6815L7.14186 55.1094V55.1237Z" fill="url(#paint4_linear_2343_249)"/>
<path d="M19.2652 45.5544C18.7466 45.5258 18.1793 45.6116 17.7417 45.44C14.0626 43.9238 10.4158 42.3791 6.76909 40.7915C6.60702 40.72 6.63943 40.2766 6.50977 39.7188C10.7886 40.5769 14.2733 42.6223 18.0983 43.8666C18.6493 44.0526 19.0707 44.5532 19.557 44.9108L19.2652 45.5401V45.5544Z" fill="url(#paint5_linear_2343_249)"/>
<path d="M6.44493 35.3999C8.79505 34.8134 11.1127 35.5286 18.0658 38.6609C18.6385 38.9184 19.2166 39.5525 19.8001 40.5633C14.8081 39.4047 10.7075 37.202 6.42871 35.3999H6.44493Z" fill="url(#paint6_linear_2343_249)"/>
<path d="M15.9106 69.5553C15.392 69.9128 15.1327 70.2561 14.9058 70.2418C13.7064 70.1417 7.88783 67.6101 6.60742 66.709C8.21198 65.9223 10.9673 66.7519 15.9268 69.5553H15.9106Z" fill="url(#paint7_linear_2343_249)"/>
<path d="M49.6552 27.247C48.861 27.3614 48.3586 27.5759 48.0668 27.4472C44.0635 25.6736 39.6874 24.5866 35.4248 22.0406C36.4297 21.7975 36.9808 21.4685 37.3211 21.5973C41.0651 22.999 44.7929 24.4579 48.5044 25.9597C48.9096 26.1313 49.1365 26.6462 49.6552 27.2327V27.247Z" fill="url(#paint8_linear_2343_249)"/>
<path d="M78.1964 15.4756C74.1121 13.6591 69.7036 12.472 65.1006 9.88311C66.4458 9.71148 67.078 9.43972 67.5156 9.59706C71.065 10.9272 74.5821 12.3146 78.0667 13.7592C78.4719 13.9309 78.6178 14.5745 78.8771 15.0036L78.2126 15.4899L78.1964 15.4756Z" fill="url(#paint9_linear_2343_249)"/>
<path d="M21.21 27.3037C26.2019 29.1202 30.5132 30.5934 34.9703 32.839C32.5877 34.1549 31.356 32.6388 29.9459 32.224C28.3413 31.752 26.753 31.1798 25.2943 30.4361C23.949 29.7638 21.9879 29.7209 21.21 27.3037Z" fill="url(#paint10_linear_2343_249)"/>
<path d="M50.5137 16.3911C51.1458 15.8047 51.2592 15.6044 51.4375 15.5329C51.632 15.4614 51.9076 15.4328 52.102 15.5043C56.1378 17.0633 60.1572 18.6224 64.744 20.4103C63.7716 20.8966 63.1557 21.4258 62.8639 21.3114C58.8282 19.7666 54.8411 18.1218 50.5137 16.3768V16.3911Z" fill="url(#paint11_linear_2343_249)"/>
<defs>
<linearGradient id="paint0_linear_2343_249" x1="0.270034" y1="43.1946" x2="96.722" y2="43.1946" gradientUnits="userSpaceOnUse">
<stop stop-color="#AE8ABE"/>
<stop offset="1" stop-color="#8390C8"/>
</linearGradient>
<linearGradient id="paint1_linear_2343_249" x1="6.25098" y1="66.0227" x2="32.0698" y2="66.0227" gradientUnits="userSpaceOnUse">
<stop stop-color="#AE8ABE"/>
<stop offset="1" stop-color="#8390C8"/>
</linearGradient>
<linearGradient id="paint2_linear_2343_249" x1="6.47754" y1="50.2741" x2="31.8264" y2="50.2741" gradientUnits="userSpaceOnUse">
<stop stop-color="#AE8ABE"/>
<stop offset="1" stop-color="#8390C8"/>
</linearGradient>
<linearGradient id="paint3_linear_2343_249" x1="5.87793" y1="54.7368" x2="27.499" y2="54.7368" gradientUnits="userSpaceOnUse">
<stop stop-color="#AE8ABE"/>
<stop offset="1" stop-color="#8390C8"/>
</linearGradient>
<linearGradient id="paint4_linear_2343_249" x1="6.50977" y1="58.9426" x2="23.382" y2="58.9426" gradientUnits="userSpaceOnUse">
<stop stop-color="#AE8ABE"/>
<stop offset="1" stop-color="#8390C8"/>
</linearGradient>
<linearGradient id="paint5_linear_2343_249" x1="6.50977" y1="42.6366" x2="19.557" y2="42.6366" gradientUnits="userSpaceOnUse">
<stop stop-color="#AE8ABE"/>
<stop offset="1" stop-color="#8390C8"/>
</linearGradient>
<linearGradient id="paint6_linear_2343_249" x1="6.44492" y1="37.8886" x2="19.8163" y2="37.8886" gradientUnits="userSpaceOnUse">
<stop stop-color="#AE8ABE"/>
<stop offset="1" stop-color="#8390C8"/>
</linearGradient>
<linearGradient id="paint7_linear_2343_249" x1="6.60742" y1="68.3395" x2="15.9106" y2="68.3395" gradientUnits="userSpaceOnUse">
<stop stop-color="#AE8ABE"/>
<stop offset="1" stop-color="#8390C8"/>
</linearGradient>
<linearGradient id="paint8_linear_2343_249" x1="35.4086" y1="24.5294" x2="49.6552" y2="24.5294" gradientUnits="userSpaceOnUse">
<stop stop-color="#AE8ABE"/>
<stop offset="1" stop-color="#8390C8"/>
</linearGradient>
<linearGradient id="paint9_linear_2343_249" x1="65.1006" y1="12.5149" x2="78.8609" y2="12.5149" gradientUnits="userSpaceOnUse">
<stop stop-color="#AE8ABE"/>
<stop offset="1" stop-color="#8390C8"/>
</linearGradient>
<linearGradient id="paint10_linear_2343_249" x1="21.21" y1="30.336" x2="34.9541" y2="30.336" gradientUnits="userSpaceOnUse">
<stop stop-color="#AE8ABE"/>
<stop offset="1" stop-color="#8390C8"/>
</linearGradient>
<linearGradient id="paint11_linear_2343_249" x1="50.5137" y1="18.4078" x2="64.744" y2="18.4078" gradientUnits="userSpaceOnUse">
<stop stop-color="#AE8ABE"/>
<stop offset="1" stop-color="#8390C8"/>
</linearGradient>
</defs>
</svg>
