<svg width="116" height="86" viewBox="0 0 116 86" fill="none" xmlns="http://www.w3.org/2000/svg">
<path d="M53.1834 24.687C54.4476 24.0291 55.3876 23.4713 56.3925 23.0279C58.7426 21.9837 60.8497 22.4844 62.2597 24.4439C63.297 25.8885 64.1074 27.4475 65.2095 28.8349C65.8254 29.6216 66.7006 30.537 67.6569 30.7658C70.5905 31.4524 73.6051 32.1675 76.6197 32.2676C82.7462 32.4965 88.9052 32.4107 95.0479 32.2963C97.2035 32.2533 99.0674 32.7826 100.85 33.7123C104.465 35.586 107.982 37.6742 111.742 39.3048C115.664 40.9925 116.41 45.8413 112.358 48.1011C109.586 49.6602 106.961 51.4337 104.351 53.2073C102.406 54.5375 100.461 55.1954 98.0463 53.6793C97.7708 55.8534 98.2408 57.8987 96.7011 59.6437C96.2473 60.1586 96.5552 61.2027 96.5552 62.0037C96.5552 67.6248 96.5552 73.2459 96.539 78.867C96.539 79.8539 96.4418 80.8694 96.15 81.8277C95.6476 83.444 94.4482 84.388 92.4385 84.3594C91.3039 84.3451 90.1693 84.3308 89.0186 84.3594C87.4951 84.4023 86.4092 83.8302 85.615 82.7145C85.2585 82.2139 84.9505 81.4988 84.4156 81.3271C80.3637 80.0113 78.8402 76.4498 76.0038 74.0755C74.1075 72.4878 73.7672 70.5283 73.7834 68.34C73.7834 65.651 73.4754 62.962 73.281 60.2587C73.281 60.0585 73.3134 59.8153 73.2161 59.6723C71.2064 56.6973 72.0816 53.4219 71.9519 50.2609C71.8547 47.7579 71.9357 45.2405 71.9357 42.5229C71.1416 42.2083 70.3798 41.8078 69.5532 41.6075C67.1545 41.0211 64.7395 40.449 62.3245 39.9627C60.0717 39.5193 58.3375 38.5753 57.4461 36.6158C57.284 36.2725 56.9112 36.0007 56.3925 35.4143C56.1008 36.4584 55.7766 37.2022 55.6956 37.9603C55.1445 44.1821 51.903 49.1739 46.7652 53.3217C45.8414 54.0655 44.9337 54.8236 44.0099 55.5673C41.6273 57.5125 40.3307 59.8439 40.5576 62.7761C40.6387 63.8774 40.6225 64.993 40.5576 66.0944C40.3955 69.284 38.3372 71.0575 34.7715 71.0718C30.1037 71.1004 25.4359 71.1004 20.7843 71.0718C17.5914 71.0432 15.4519 69.3126 15.1764 66.5378C15.0629 65.4364 15.063 64.3208 15.1602 63.2338C15.4195 59.8582 13.896 57.2694 11.1407 54.9952C8.83919 53.0929 6.53768 51.1048 4.69001 48.8592C1.54571 45.0546 0.119464 40.7494 0.00601031 35.9292C-0.139859 29.7789 1.99953 24.4868 6.31078 19.8383C11.0596 14.7178 17.2996 11.9287 24.7551 11.2135C33.248 10.4126 40.6711 12.6152 46.9921 17.5641C48.9046 19.0659 50.3147 21.0827 51.9192 22.8848C52.3244 23.3425 52.6324 23.8718 53.1997 24.6727L53.1834 24.687ZM36.3436 67.2815C36.3436 65.9084 36.4084 64.8214 36.3436 63.7487C35.987 59.2003 37.932 55.5387 41.7408 52.578C42.4215 52.0488 43.086 51.491 43.7343 50.9474C48.0942 47.3431 50.8333 43.1094 51.5627 37.7028C52.1299 33.4262 51.4168 29.407 49.1477 25.8456C42.3567 15.1898 27.9805 11.4853 16.0354 17.4497C6.00283 22.4701 1.82127 31.8958 5.41937 42.2655C6.76461 46.1273 9.4713 49.1882 13.0694 51.6197C17.4293 54.5661 19.7308 58.3421 19.439 63.2481C19.358 64.521 19.439 65.8083 19.439 67.21H21.7405C21.5136 65.6796 21.3677 64.3065 21.1084 62.9334C19.6659 55.4672 18.2234 48.001 16.7485 40.5348C16.554 39.5336 16.7972 38.6754 17.6724 38.1319C18.6935 37.4883 19.8929 37.6313 20.8329 38.3321C21.6757 38.9615 22.3726 39.7338 22.8913 40.2201C24.1717 39.4049 25.3062 38.3035 26.7001 37.8887C29.0178 37.1879 30.2009 39.1903 31.6434 40.2631C32.6645 39.4621 33.3938 38.6039 34.3663 38.2177C35.1929 37.8887 36.4409 37.8172 37.2512 38.1319C38.3534 38.5467 38.6289 39.6337 38.4182 40.7208C37.3971 46.0272 36.3598 51.3336 35.4036 56.6544C34.8201 59.9012 34.3177 63.1623 33.8152 66.4233C33.7828 66.6808 34.0259 66.9669 34.1718 67.2958H36.3761L36.3436 67.2815ZM111.337 43.9103C110.072 43.0522 109.424 42.4943 108.679 42.1082C105.453 40.4347 102.131 38.89 98.9701 37.1307C97.5277 36.3297 96.1176 36.0437 94.4968 36.058C89.3752 36.1009 84.2698 35.9435 79.1644 36.1152C74.8855 36.2582 70.866 35.3142 66.7817 34.4989C64.5126 34.0412 62.9243 32.9971 61.8546 31.1663C60.8821 29.5215 59.6503 27.9767 58.4347 26.2461C57.5271 26.7467 56.9112 27.0899 56.0684 27.5619C57.673 29.9362 59.2289 32.1246 60.6552 34.3845C61.4331 35.6289 62.5353 36.2725 64.075 36.6015C67.041 37.2165 69.9908 37.9174 72.9406 38.6325C76.0687 39.3906 76.1335 39.4907 76.1497 42.3227C76.1659 46.0272 76.1497 49.746 76.1497 53.4505C76.1497 54.2085 76.2956 54.9809 76.3929 55.8677C79.4561 55.8677 82.2762 55.8677 85.1125 55.8677C87.9003 55.8677 90.7042 55.8105 93.6378 55.7819C93.6378 54.4374 93.6378 53.4505 93.6378 52.4493C93.6378 48.8449 93.6702 45.2262 93.6378 41.6218C93.6216 40.1772 94.043 39.0616 96.069 38.6039C98.4515 39.8197 101.045 41.0354 103.525 42.4371C105.21 43.3811 105.259 44.3394 103.881 45.6124C103.265 46.1845 102.455 46.5993 101.774 47.1142C101.11 47.6148 100.477 48.1726 99.7319 48.7734C100.186 49.5457 100.575 50.1894 100.98 50.8902C104.416 48.5874 107.641 46.4277 111.337 43.9532V43.9103ZM29.2771 67.3101C30.7034 59.5436 32.0972 52.0059 33.4749 44.5683C32.3079 44.4109 31.141 44.4682 30.2496 44.0677C29.1961 43.61 28.3695 42.7518 27.7049 42.2512C25.76 43.3096 24.0744 44.225 22.0971 45.312C23.5396 52.4493 24.4796 59.9155 26.2624 67.2958H29.2771V67.3101ZM89.1158 59.7009C89.1158 63.8345 89.0835 67.7249 89.1483 71.6297C89.1483 72.1732 89.5211 72.7596 89.8614 73.2602C90.8501 74.6762 90.9473 76.035 89.8614 77.4653C89.1483 78.4093 88.6783 79.4105 89.6507 80.6692L92.0657 80.426V59.7009H89.0997H89.1158ZM77.5436 59.6866C77.7543 63.3053 77.9163 66.5807 78.1757 69.8418C78.2243 70.3853 78.5971 70.986 79.0023 71.4151C80.5906 73.1029 82.2438 74.7477 83.8808 76.3926C84.0753 76.5928 84.4318 76.6643 84.8208 76.8503L86.4254 75.1339C85.2747 73.8609 84.3184 72.6309 83.1677 71.5581C81.1579 69.6987 80.3799 67.5819 80.6393 65.0216C80.8175 63.2624 80.6393 61.4888 80.6393 59.6723H77.5436V59.6866ZM98.2408 44.7971C98.4029 44.697 98.6298 44.6255 98.727 44.4825C98.7919 44.4109 98.6622 44.225 98.6136 44.082C98.4353 44.1535 98.176 44.1964 98.1111 44.3108C98.0463 44.4252 98.1922 44.6255 98.2408 44.7828V44.7971Z" fill="url(#paint0_linear_2343_177)"/>
<path d="M74.4964 21.2687C73.9453 15.9623 80.1043 11.7715 85.2907 11.8287C91.0607 11.8859 96.4092 15.7477 96.3768 21.4976C96.3444 27.0901 91.32 31.2236 85.2421 31.1521C79.4398 31.0806 74.075 26.9756 74.4964 21.2687ZM85.1773 15.6047C81.8709 15.1613 78.4349 18.2794 78.4673 21.4547C78.4997 24.7444 81.563 27.4619 85.1773 27.5192C88.8726 27.5764 92.1952 24.7444 92.26 21.469C92.3411 18.1507 89.2292 15.5761 85.1773 15.6047Z" fill="url(#paint1_linear_2343_177)"/>
<path d="M15.9541 74.1324C16.4565 72.6449 17.5587 72.1729 19.0822 72.1729C24.9818 72.1729 30.8814 72.1729 36.781 72.1729C38.1911 72.1729 39.1635 72.6878 39.747 73.8463C39.5687 75.4626 38.4504 75.9489 36.7161 75.9346C30.93 75.8916 25.1439 75.906 19.3577 75.9346C17.8666 75.9346 16.6834 75.5913 15.9541 74.1324Z" fill="url(#paint2_linear_2343_177)"/>
<path d="M27.9961 76.9507C30.0383 76.9507 32.0805 76.9078 34.1388 76.9507C36.1648 76.9936 37.1859 77.6659 37.0724 78.7529C36.959 79.8256 35.8082 80.6123 34.0578 80.6695C32.2425 80.741 30.4273 80.6838 28.612 80.6838C26.5698 80.6838 24.5277 80.6838 22.4693 80.6838C21.7886 80.6838 21.0917 80.6838 20.4596 80.4979C19.4223 80.1975 18.6118 79.5396 18.7091 78.5241C18.8063 77.4799 19.714 76.9793 20.8485 76.965C23.2311 76.9364 25.6136 76.965 28.0123 76.965V76.9364L27.9961 76.9507Z" fill="url(#paint3_linear_2343_177)"/>
<path d="M27.8346 85.0033C26.4732 85.0033 25.1117 85.0462 23.7503 85.0033C22.243 84.9461 21.2705 84.2739 21.384 83.3871C21.5298 82.3429 22.324 81.7994 23.491 81.7851C26.4408 81.7565 29.3905 81.7565 32.3403 81.7851C33.5073 81.7994 34.3501 82.4002 34.3339 83.4443C34.3339 84.517 33.4263 84.989 32.2593 84.989C30.7844 84.989 29.3095 84.989 27.8346 84.989V85.0033Z" fill="url(#paint4_linear_2343_177)"/>
<path d="M26.0517 4.21945C26.0517 3.41848 25.8896 2.5746 26.1003 1.83084C26.2786 1.25871 26.8135 0.572168 27.4132 0.329016C28.3208 -0.0428637 29.1474 0.386228 29.666 1.1729C30.5898 2.54599 30.4926 6.36491 29.3743 7.53776C28.9853 7.93824 28.1425 8.36734 27.6887 8.23861C27.0566 8.06697 26.3272 7.45194 26.1651 6.90842C25.9058 6.06454 26.1003 5.12054 26.1003 4.21945H26.0517Z" fill="url(#paint5_linear_2343_177)"/>
<path d="M43.2803 10.4557C44.6741 8.26737 46.538 6.46519 49.3582 5.30664L51.449 6.83707C50.282 9.28289 47.8671 10.5273 46.0518 12.3008C44.6418 12.2293 43.6044 11.8717 43.2803 10.4557Z" fill="url(#paint6_linear_2343_177)"/>
<path d="M5.09473 7.50885L7.47726 5.20605C9.79496 6.23587 11.1078 7.92364 12.7124 9.28243C13.539 9.98328 13.6362 10.9416 12.8258 11.7139C11.9992 12.5006 10.9295 12.4434 10.0867 11.7712C8.49837 10.5125 7.02346 9.1537 5.11095 7.49454L5.09473 7.50885Z" fill="url(#paint7_linear_2343_177)"/>
<defs>
<linearGradient id="paint0_linear_2343_177" x1="-0.0264051" y1="47.7436" x2="115.048" y2="47.7436" gradientUnits="userSpaceOnUse">
<stop stop-color="#AE8ABE"/>
<stop offset="1" stop-color="#8390C8"/>
</linearGradient>
<linearGradient id="paint1_linear_2343_177" x1="74.464" y1="21.4833" x2="96.3606" y2="21.4833" gradientUnits="userSpaceOnUse">
<stop stop-color="#AE8ABE"/>
<stop offset="1" stop-color="#8390C8"/>
</linearGradient>
<linearGradient id="paint2_linear_2343_177" x1="15.9541" y1="74.0609" x2="39.747" y2="74.0609" gradientUnits="userSpaceOnUse">
<stop stop-color="#AE8ABE"/>
<stop offset="1" stop-color="#8390C8"/>
</linearGradient>
<linearGradient id="paint3_linear_2343_177" x1="18.6929" y1="78.8244" x2="37.0724" y2="78.8244" gradientUnits="userSpaceOnUse">
<stop stop-color="#AE8ABE"/>
<stop offset="1" stop-color="#8390C8"/>
</linearGradient>
<linearGradient id="paint4_linear_2343_177" x1="21.384" y1="83.3871" x2="34.3339" y2="83.3871" gradientUnits="userSpaceOnUse">
<stop stop-color="#AE8ABE"/>
<stop offset="1" stop-color="#8390C8"/>
</linearGradient>
<linearGradient id="paint5_linear_2343_177" x1="25.9869" y1="4.21945" x2="30.2819" y2="4.21945" gradientUnits="userSpaceOnUse">
<stop stop-color="#AE8ABE"/>
<stop offset="1" stop-color="#8390C8"/>
</linearGradient>
<linearGradient id="paint6_linear_2343_177" x1="43.2803" y1="8.79659" x2="51.449" y2="8.79659" gradientUnits="userSpaceOnUse">
<stop stop-color="#AE8ABE"/>
<stop offset="1" stop-color="#8390C8"/>
</linearGradient>
<linearGradient id="paint7_linear_2343_177" x1="5.09473" y1="8.76752" x2="13.3769" y2="8.76752" gradientUnits="userSpaceOnUse">
<stop stop-color="#AE8ABE"/>
<stop offset="1" stop-color="#8390C8"/>
</linearGradient>
</defs>
</svg>
