<svg width="68" height="86" viewBox="0 0 68 86" fill="none" xmlns="http://www.w3.org/2000/svg">
<path d="M34.1997 68.5532C34.1997 72.9872 34.1997 77.0922 34.1997 81.1972C34.1997 81.9981 34.2645 82.8134 34.1673 83.6001C33.989 85.059 33.7134 85.202 31.3633 85.3737C30.1964 84.5155 30.1315 83.3283 30.1477 82.1126C30.1477 77.8932 30.2126 73.6738 30.1153 69.4543C30.0667 67.595 30.8609 66.4507 32.8058 65.7356C35.8366 64.6056 38.7702 63.2468 41.8335 62.1884C43.438 61.6306 44.4753 60.7724 45.3181 59.528C47.6034 56.1811 49.9373 52.8628 52.3847 49.3585C51.3312 48.8007 50.2777 48.2572 48.9811 47.5707C47.1496 50.1452 45.2695 52.6196 43.6001 55.1942C42.4818 56.9249 40.9259 58.0405 38.9809 59.0131C34.3942 61.3159 29.6291 62.3743 24.3292 62.0454C20.3745 61.7879 16.3712 61.9452 12.3841 62.0168C8.46186 62.074 5.94967 63.5615 4.7665 66.5508C4.40993 67.4662 4.3289 68.5103 4.3289 69.4973C4.28027 73.7167 4.3289 77.9361 4.29648 82.1555C4.29648 83.1281 4.19923 84.115 4.15061 85.0304C1.41151 85.5739 0.941488 85.3736 0.828034 83.457C0.714581 81.5547 0.795619 79.6381 0.795619 77.7358C0.795619 75.1184 0.844242 72.5152 0.795619 69.8977C0.665958 62.9608 5.1717 59.0131 13.2755 58.8558C18.5106 58.7557 23.7457 58.7986 28.9808 58.8558C32.9841 58.8987 36.1608 56.9964 39.2078 55.1942C40.7638 54.2788 41.4769 52.2621 42.5628 50.7316C43.7136 49.1154 44.7671 47.4562 45.9989 45.8972C47.3927 44.1236 48.819 43.8948 50.9908 44.9532C52.174 45.5396 53.4058 46.0975 54.4755 46.8269C56.3556 48.0713 56.5825 49.1726 55.3669 50.9605C52.9196 54.5649 50.3749 58.1406 47.9114 61.745C47.0524 62.9894 45.934 63.8762 44.4105 64.4769C41.0879 65.7642 37.814 67.1372 34.2483 68.5962L34.1997 68.5532Z" fill="url(#paint0_linear_2343_220)"/>
<path d="M47.9439 35.4706C47.49 35.4706 47.0362 35.4706 46.5824 35.4706C42.8384 35.4277 41.9632 34.7698 41.7849 31.4658C41.7039 30.0498 41.088 29.0629 40.0345 28.0474C38.8351 26.8745 37.7978 25.53 36.955 24.1426C33.1949 17.8779 37.7654 9.03859 47.6035 8.55229C54.4431 8.20901 60.0348 12.5285 60.3589 18.9649C60.5372 22.5264 59.3541 25.4585 56.307 27.7899C54.8483 28.9055 54.1676 30.2357 54.1352 31.9807C54.0866 34.7984 53.2438 35.4134 50.0022 35.4706C49.3215 35.4706 48.6408 35.4706 47.9601 35.4706H47.9439ZM45.2696 32.3097C46.55 32.3097 47.328 32.3383 48.1221 32.3097C48.8839 32.2668 49.6294 32.1523 50.4398 32.0522C50.5209 29.2345 51.8661 27.132 54.0541 25.3584C57.1174 22.884 57.4902 19.6944 56.1449 16.5477C54.8645 13.5441 52.1578 11.842 48.2518 11.8277C44.3944 11.8277 41.5904 13.3295 40.1317 16.3188C38.7217 19.2224 38.9486 22.3118 41.6391 24.6432C44.0378 26.7029 45.7882 28.8483 45.2534 32.3097H45.2696Z" fill="url(#paint1_linear_2343_220)"/>
<path d="M31.6225 48.5144C31.7359 53.0627 27.9433 57.983 20.812 57.9401C14.102 57.8972 10.0987 53.6778 9.88797 48.4715C9.69348 43.3796 15.0258 38.9742 20.812 38.9456C26.6467 38.9027 31.6549 43.3367 31.6225 48.5144ZM20.9254 54.6647C25.2042 54.6361 27.8623 52.1903 28.0568 48.4715C28.2189 45.4392 24.9611 42.1495 20.9092 42.1066C16.9059 42.0637 13.6482 45.0387 13.7292 48.6431C13.794 52.4334 16.5007 54.6933 20.9254 54.6647Z" fill="url(#paint2_linear_2343_220)"/>
<path d="M11.8335 85.1883C8.89991 85.4029 8.31643 85.1883 8.28401 83.6007C8.18677 79.5958 8.23539 75.6053 8.26781 71.6004C8.26781 71.2143 8.34884 70.6707 8.62438 70.4991C9.20785 70.1272 9.95341 69.7267 10.6179 69.7554C11.0231 69.7697 11.6714 70.5134 11.7363 70.9854C11.9145 72.1725 11.8335 73.374 11.8335 74.5755C11.8335 78.0511 11.8335 81.5411 11.8335 85.1883Z" fill="url(#paint3_linear_2343_220)"/>
<path d="M41.9629 37.5013C43.2271 37.0007 43.8916 36.543 44.5885 36.5144C46.9711 36.4143 49.3536 36.4858 51.7361 36.4715C52.7896 36.4715 53.6324 36.9149 53.6 37.816C53.5838 38.3595 52.8545 39.3035 52.4006 39.3321C49.6129 39.4608 46.7928 39.4608 43.9889 39.3178C43.4378 39.2892 42.9516 38.431 41.9629 37.5156V37.5013Z" fill="url(#paint4_linear_2343_220)"/>
<path d="M43.9238 43.3088C44.4911 41.9643 44.5883 41.149 45.107 40.6627C45.9174 39.8903 50.3097 39.8474 51.2011 40.6055C51.6711 41.006 51.979 41.8069 51.9142 42.3648C51.8656 42.7223 50.9904 43.2373 50.4555 43.2659C48.5916 43.3803 46.7116 43.3088 43.9238 43.3088Z" fill="url(#paint5_linear_2343_220)"/>
<path d="M49.9697 0.799805C49.9697 2.74502 50.0508 4.11811 49.9373 5.4769C49.8725 6.34939 49.2242 7.02164 48.1707 6.99303C47.1496 6.96443 46.5013 6.34939 46.4527 5.43399C46.3878 4.14672 46.4365 2.84514 46.4365 1.2575L49.9697 0.799805Z" fill="url(#paint6_linear_2343_220)"/>
<path d="M34.8151 18.4358C34.1992 20.2236 32.8053 20.3953 31.2332 20.3667C29.7259 20.3524 28.6075 19.9233 28.1699 18.5645C29.969 16.7194 32.546 16.6479 34.8151 18.4358Z" fill="url(#paint7_linear_2343_220)"/>
<path d="M60.553 5.67676C61.2823 6.07724 61.6875 6.24888 62.0279 6.50634C62.271 6.69228 62.4169 6.97834 62.5951 7.20718C61.0068 10.6971 59.4509 11.398 56.9062 9.68162C57.2952 7.85083 59.2077 7.14998 60.5692 5.69106L60.553 5.67676Z" fill="url(#paint8_linear_2343_220)"/>
<path d="M39.0625 9.08112C39.1435 10.0966 37.701 11.0978 36.7772 10.5114C35.6102 9.78197 34.5405 8.83796 33.7139 7.79384C33.0656 6.99287 34.265 5.7199 35.3995 5.82002C36.5016 5.92014 38.9652 8.12281 39.0462 9.08112H39.0625Z" fill="url(#paint9_linear_2343_220)"/>
<path d="M61.5586 18.4494C63.0983 16.3182 65.2864 17.6198 67.0206 17.1621C68.0903 19.5078 67.7175 20.2087 65.5133 20.3517C63.8763 20.4518 62.3204 20.3517 61.5586 18.4637V18.4494Z" fill="url(#paint10_linear_2343_220)"/>
<defs>
<linearGradient id="paint0_linear_2343_220" x1="0.746996" y1="64.8345" x2="56.08" y2="64.8345" gradientUnits="userSpaceOnUse">
<stop stop-color="#AE8ABE"/>
<stop offset="1" stop-color="#8390C8"/>
</linearGradient>
<linearGradient id="paint1_linear_2343_220" x1="35.6584" y1="21.9972" x2="60.3752" y2="21.9972" gradientUnits="userSpaceOnUse">
<stop stop-color="#AE8ABE"/>
<stop offset="1" stop-color="#8390C8"/>
</linearGradient>
<linearGradient id="paint2_linear_2343_220" x1="9.88797" y1="48.4429" x2="31.6225" y2="48.4429" gradientUnits="userSpaceOnUse">
<stop stop-color="#AE8ABE"/>
<stop offset="1" stop-color="#8390C8"/>
</linearGradient>
<linearGradient id="paint3_linear_2343_220" x1="8.21918" y1="77.5076" x2="11.8497" y2="77.5076" gradientUnits="userSpaceOnUse">
<stop stop-color="#AE8ABE"/>
<stop offset="1" stop-color="#8390C8"/>
</linearGradient>
<linearGradient id="paint4_linear_2343_220" x1="41.9629" y1="37.9304" x2="53.5838" y2="37.9304" gradientUnits="userSpaceOnUse">
<stop stop-color="#AE8ABE"/>
<stop offset="1" stop-color="#8390C8"/>
</linearGradient>
<linearGradient id="paint5_linear_2343_220" x1="43.9238" y1="41.6925" x2="51.9304" y2="41.6925" gradientUnits="userSpaceOnUse">
<stop stop-color="#AE8ABE"/>
<stop offset="1" stop-color="#8390C8"/>
</linearGradient>
<linearGradient id="paint6_linear_2343_220" x1="46.4202" y1="3.88927" x2="50.0021" y2="3.88927" gradientUnits="userSpaceOnUse">
<stop stop-color="#AE8ABE"/>
<stop offset="1" stop-color="#8390C8"/>
</linearGradient>
<linearGradient id="paint7_linear_2343_220" x1="28.1699" y1="18.7504" x2="34.8151" y2="18.7504" gradientUnits="userSpaceOnUse">
<stop stop-color="#AE8ABE"/>
<stop offset="1" stop-color="#8390C8"/>
</linearGradient>
<linearGradient id="paint8_linear_2343_220" x1="56.89" y1="8.12258" x2="62.5789" y2="8.12258" gradientUnits="userSpaceOnUse">
<stop stop-color="#AE8ABE"/>
<stop offset="1" stop-color="#8390C8"/>
</linearGradient>
<linearGradient id="paint9_linear_2343_220" x1="33.5356" y1="8.25154" x2="39.0787" y2="8.25154" gradientUnits="userSpaceOnUse">
<stop stop-color="#AE8ABE"/>
<stop offset="1" stop-color="#8390C8"/>
</linearGradient>
<linearGradient id="paint10_linear_2343_220" x1="61.5586" y1="18.764" x2="67.5879" y2="18.764" gradientUnits="userSpaceOnUse">
<stop stop-color="#AE8ABE"/>
<stop offset="1" stop-color="#8390C8"/>
</linearGradient>
</defs>
</svg>
