<svg width="114" height="98" viewBox="0 0 114 98" fill="none" xmlns="http://www.w3.org/2000/svg">
<path d="M5.03408 97.6636C39.6273 97.6636 74.1968 97.6636 108.79 97.6636C109.783 97.6636 110.894 97.7345 111.769 97.3799C112.408 97.1198 113.164 96.1978 113.188 95.5594C113.212 94.9211 112.526 93.9281 111.911 93.6681C110.611 93.1007 109.145 92.8879 107.489 92.4623C107.489 90.6419 107.489 89.1288 107.489 87.6394C107.489 76.1729 107.489 64.7065 107.489 53.2401C107.489 52.2235 107.56 51.2069 107.489 50.2139C107.277 47.6842 106.615 46.9513 104.061 46.8804C100.68 46.7622 97.322 46.8331 93.9407 46.8331C88.3131 46.8331 88.1712 46.9513 88.1712 52.4126C88.1712 63.7135 88.1712 75.0145 88.1712 86.2918C88.1712 87.4739 88.2185 88.656 88.1712 89.8381C88.0293 92.8643 87.5801 93.3135 84.5299 93.2898C83.2294 93.2898 81.9524 93.0061 80.1317 92.7697V60.1436C78.1691 59.7417 76.7268 59.2688 75.2844 59.1979C71.9031 59.0797 68.5456 59.1033 65.1643 59.1506C61.3337 59.2216 60.8844 59.6235 60.8608 63.5953C60.8135 71.5154 60.8844 79.4355 60.8608 87.3556C60.8608 89.1288 60.6716 90.9256 60.5534 92.7933H52.8686V36.336C51.6391 35.7686 50.7641 34.9884 49.842 34.9648C45.3021 34.8229 40.7386 34.8229 36.175 34.9175C34.378 34.9411 33.4794 36.1232 33.4794 37.92C33.4794 39.1021 33.4794 40.2842 33.4794 41.4663C33.4794 56.6446 33.4794 71.8228 33.4794 86.9774C33.4794 88.7978 33.4794 90.6183 33.4794 93.0534C31.1149 93.148 29.6252 93.2898 28.1592 93.2662C26.3149 93.2425 25.4163 92.2259 25.4636 90.3582C25.4872 89.0106 25.4636 87.663 25.4636 86.3154C25.4636 79.5774 25.5345 72.8394 25.4636 66.0778C25.4163 62.7679 24.8961 62.2714 21.633 62.1768C17.9207 62.0822 14.2085 62.0822 10.4962 62.1768C6.64196 62.2477 6.19266 62.6969 6.16901 66.6215C6.12172 74.2106 6.16897 81.7997 6.12168 89.3889C6.12168 90.5 5.8143 91.6112 5.69608 92.486C5.05765 92.8406 4.77386 93.1007 4.46647 93.148C2.71671 93.4317 0.139359 93.148 0.470395 95.7722C0.777785 98.1837 3.26058 97.6872 5.08127 97.6872L5.03408 97.6636ZM95.7377 51.8925C97.724 51.7979 99.7338 51.8925 101.649 51.8925C102.619 55.6989 102.926 81.918 102.122 92.3914H93.4914C93.3732 90.8783 93.184 89.4125 93.184 87.9703C93.184 78.7263 93.184 69.4586 93.184 60.2145C93.184 58.5359 93.0658 56.881 92.9003 55.2024C92.6402 52.5308 92.9949 52.0107 95.7614 51.8925H95.7377ZM66.1337 64.4464C69.1366 64.1864 71.8795 63.7135 74.8115 65.0375V92.5096H66.1337V64.4464ZM38.4922 40.166C40.2893 40.0478 41.5897 39.9532 42.8902 39.906C44.238 39.8587 45.5623 39.906 46.8391 39.906C47.9741 43.5941 48.3523 82.7454 47.3356 92.4151H38.5632C38.3977 74.9672 38.5158 57.7085 38.4685 40.1897L38.4922 40.166ZM11.1582 67.3781H19.6469C20.64 70.7116 20.9237 83.0055 20.167 92.1077C18.1808 92.486 16.1001 92.9825 14.0193 93.2189C12.1986 93.4317 11.2291 92.5333 11.2055 90.5473C11.1346 83.0055 11.1818 75.4637 11.1818 67.3781H11.1582Z" fill="url(#paint0_linear_2393_2)"/>
<path d="M10.1632 48.3707C14.112 50.6403 18.0134 50.3802 21.6311 48.0397C25.7218 45.4154 27.1406 41.3726 26.313 36.6205C26.1239 35.5094 25.6982 34.4218 25.5564 33.9253C30.0726 29.4097 34.2105 25.2723 38.4903 21.0167C41.9425 23.8538 45.6076 21.7024 49.1307 20.6621C50.1238 21.395 50.9752 21.9388 51.7318 22.5771C56.3427 26.4071 61.2373 29.717 60.0077 37.2825C59.3693 41.1835 62.2303 44.517 66.2736 46.101C70.1988 47.6141 73.793 47.2122 77.1506 44.4934C80.4373 41.8218 81.525 38.2991 81.2886 34.1854C83.9132 32.9087 86.325 31.7503 89.0915 30.4027C92.7802 33.8308 96.3742 35.4621 101.269 33.8308C105.927 32.2704 109.261 26.3835 108.433 21.8206C107.511 16.7375 102.262 12.2455 97.2255 12.6947C91.7634 13.1912 87.4127 16.4302 87.2944 22.1516C87.2235 25.3669 85.8048 26.7145 83.1565 27.5656C81.9033 27.9675 80.65 28.464 79.2549 28.9605C74.5259 25.3433 69.4895 24.0666 64.0983 27.1873C60.2441 23.4046 56.5081 19.7637 52.9613 16.2647C54.6401 9.1957 53.4105 4.9874 48.7997 2.12671C45.0164 -0.213858 41.0204 -0.190215 37.3791 2.24492C31.6569 6.07494 31.4913 11.5599 33.5957 17.3995C29.5996 21.6787 25.7456 25.8161 21.8914 29.9535C19.0539 28.9369 16.7129 28.5586 14.3957 28.6295C9.8321 28.7477 6.45087 31.8685 5.29225 36.6915C4.2282 41.0889 6.4982 46.2902 10.2105 48.4179L10.1632 48.3707ZM97.4146 17.5886C100.536 17.5886 103.421 20.2602 103.444 23.1445C103.468 26.549 100.678 29.6461 97.6511 29.5279C95.0028 29.4333 91.5742 26.0998 91.5506 23.6174C91.5269 21.0877 94.9319 17.565 97.3911 17.565L97.4146 17.5886ZM64.8076 35.5803C65.0914 32.1049 66.7939 30.4736 70.3407 30.5682C73.8639 30.6864 76.1574 32.8851 76.1574 36.1713C76.1574 39.2212 73.32 41.94 70.2697 41.8218C65.9426 41.3017 64.5002 39.2684 64.784 35.5566L64.8076 35.5803ZM43.1485 5.4366C46.2224 5.4366 48.7761 8.1318 48.7051 11.2526C48.6342 14.4915 46.1514 17.2577 43.2431 17.3759C40.1692 17.4941 37.3553 14.4679 37.4262 11.158C37.4972 7.98995 40.051 5.4366 43.1485 5.46025V5.4366ZM15.105 33.5943C19.0774 33.3579 21.2529 35.2257 21.3947 39.0084C21.513 42.1055 18.912 44.848 15.7908 44.848C12.3859 44.848 10.1868 42.6966 10.0922 39.1975C9.9976 35.7931 11.7711 33.7835 15.0815 33.5943H15.105Z" fill="url(#paint1_linear_2393_2)"/>
<defs>
<linearGradient id="paint0_linear_2393_2" x1="0.399459" y1="66.2905" x2="113.164" y2="66.2905" gradientUnits="userSpaceOnUse">
<stop stop-color="#AE8ABE"/>
<stop offset="1" stop-color="#8390C8"/>
</linearGradient>
<linearGradient id="paint1_linear_2393_2" x1="4.98486" y1="25.1305" x2="108.528" y2="25.1305" gradientUnits="userSpaceOnUse">
<stop stop-color="#AE8ABE"/>
<stop offset="1" stop-color="#8390C8"/>
</linearGradient>
</defs>
</svg>
