<svg width="115" height="114" viewBox="0 0 115 114" fill="none" xmlns="http://www.w3.org/2000/svg">
<path d="M87.6883 72.9725C103.649 43.2543 90.5494 18.9975 73.6903 7.93302C55.1759 -4.21902 30.632 -2.11485 14.5531 14.2691C-1.40752 30.5112 -3.46463 53.775 8.38171 72.6178C18.9985 89.4983 44.2044 103.045 73.7848 86.9449C82.8883 95.9762 91.8026 104.842 101.001 113.968C105.943 109.523 110.364 105.268 114.715 100.208C109.939 95.4088 105.446 90.9168 100.977 86.3775C96.508 81.8619 91.8499 77.5117 87.712 72.9488L87.6883 72.9725ZM47.5621 89.1673C25.9503 88.9072 6.18272 71.8849 5.89897 47.2025C5.63888 24.8371 24.6734 4.97776 47.9877 5.23782C71.9642 5.49788 90.2183 25.0263 89.8873 47.4153C89.5563 70.2536 71.7277 88.9545 47.5385 89.1673H47.5621ZM101.214 106.284C98.116 104.298 82.5336 88.9781 78.7976 84.2024C80.8075 81.9328 82.5809 79.9232 84.2834 77.9609C87.7829 80.0887 103.578 95.6452 107.267 100.492C105.281 102.407 103.247 104.322 101.214 106.284Z" fill="url(#paint0_linear_2343_1056)"/>
<path d="M72.3419 28.953C70.4976 28.3383 69.67 29.875 68.9606 31.2226C68.6533 31.79 68.6297 32.523 68.4168 33.1613C67.2109 36.6603 66.0049 40.1357 64.7517 43.6111C62.9783 48.5759 61.1577 53.5408 59.0532 59.3567C56.9724 54.4628 55.2463 50.4673 53.5438 46.4718C52.1724 43.2328 50.8247 39.9702 49.5005 36.7076C48.9331 35.3364 48.0581 34.5089 46.4739 34.4852C44.7005 34.4616 44.2276 35.8092 43.7311 37.0149C41.532 42.4526 39.4276 47.9376 37.2522 53.3989C36.5192 55.2194 35.668 57.0161 34.864 58.813L33.8 58.6475C33.5872 58.0328 33.3743 57.4181 33.1615 56.8034C30.1822 48.5996 27.2266 40.3958 24.1999 32.2156C23.8453 31.2463 22.9704 30.4424 22.4029 29.6386C19.7782 30.6789 18.927 31.9319 19.8728 34.4852C23.7979 45.1951 27.4866 55.9995 31.3644 66.7094C31.8373 67.9861 32.9961 69.0027 34.2966 70.7522C35.5734 68.9791 36.6611 67.9152 37.2049 66.6385C39.3803 61.5554 41.3428 56.3778 43.4708 51.2711C44.393 49.0488 44.937 46.5663 47.136 44.7459C47.6326 45.5734 48.0345 46.0935 48.2946 46.7082C51.0848 53.3753 53.8039 60.0423 56.6177 66.6858C57.6581 69.1446 57.7291 69.1209 61.3941 68.388C64.4916 59.4276 67.6129 50.42 70.7577 41.3887C71.7508 38.528 72.8622 35.7146 73.7134 32.8303C74.139 31.3881 74.2099 29.5913 72.3656 28.953H72.3419Z" fill="url(#paint1_linear_2343_1056)"/>
<defs>
<linearGradient id="paint0_linear_2343_1056" x1="0.791405" y1="57.0613" x2="114.691" y2="57.0613" gradientUnits="userSpaceOnUse">
<stop stop-color="#AE8ABE"/>
<stop offset="1" stop-color="#8390C8"/>
</linearGradient>
<linearGradient id="paint1_linear_2343_1056" x1="19.4708" y1="49.7817" x2="73.9498" y2="49.7817" gradientUnits="userSpaceOnUse">
<stop stop-color="#AE8ABE"/>
<stop offset="1" stop-color="#8390C8"/>
</linearGradient>
</defs>
</svg>
