<svg width="114" height="100" viewBox="0 0 114 100" fill="none" xmlns="http://www.w3.org/2000/svg">
<path d="M1.40216 99.6626C14.2889 99.6626 26.75 99.6626 39.1875 99.6626C51.5068 99.6626 63.826 99.7099 76.1453 99.639C88.5355 99.5681 100.949 99.97 113.458 99.4026C113.6 98.0313 113.741 97.2038 113.741 96.3764C113.694 64.696 113.623 32.9919 113.529 1.31149C113.529 1.16963 113.387 1.02778 113.269 0.90957C113.174 0.767718 113.032 0.673149 112.772 0.413086H1.21303C0.905643 3.061 0.409099 5.49614 0.409099 7.95492C0.361808 33.252 0.314517 58.5254 0.409099 83.8224C0.409099 88.8345 1.00024 93.823 1.37857 99.6626H1.40216ZM108.421 94.7214C103.03 95.5725 10.1274 95.478 5.89485 94.6032C5.75297 93.6103 5.44558 92.4991 5.44558 91.3643C5.42193 71.6467 5.42191 51.9292 5.42191 32.2117C5.42191 31.7152 5.39826 31.1951 5.42191 30.6986C5.61107 28.2162 6.06034 27.7434 8.37758 27.5306C8.87414 27.4833 9.39437 27.5306 9.89092 27.5306C41.5994 27.5306 73.3078 27.5306 105.016 27.5542C106.009 27.5542 106.979 27.6488 108.421 27.7434V94.7451V94.7214ZM5.98938 5.44885H108.492V21.8092C104.378 22.6603 10.9786 22.7549 6.34412 21.9747C5.20914 18.6884 5.01994 11.1939 6.01304 5.44885H5.98938Z" fill="url(#paint0_linear_2343_1030)"/>
<path d="M93.2185 52.3057C89.5062 48.5466 85.1554 46.6316 79.6933 46.7025C64.844 46.868 49.9947 46.7261 35.1454 46.7971C32.6863 46.7971 30.6764 46.3951 28.6665 44.7402C26.7513 43.1562 24.3631 42.0923 22.0459 41.1229C19.303 39.9881 17.6478 40.5083 15.8271 42.8252C14.5739 44.4092 13.5099 46.1351 12.4458 47.8373C11.5 49.3504 11.1926 50.9108 12.233 52.5894C13.8409 55.1427 15.2596 57.8143 16.9621 60.2967C21.5966 67.1293 27.6262 71.8813 37.0607 72.3542C36.0676 74.3164 35.2636 75.6168 34.7671 77.0117C34.2232 78.572 33.7031 80.227 33.6085 81.8583C33.372 85.5701 34.7198 86.8704 38.3612 87.6033C41.8607 88.3126 44.7454 86.7995 47.2519 84.979C51.6026 81.8583 55.8351 78.4538 59.6657 74.7184C62.2903 72.1414 64.9149 71.0302 68.58 71.1484C75.3189 71.3848 82.0815 71.243 88.8204 71.0775C90.9721 71.0302 93.2185 70.7229 95.2284 70.0136C99.2244 68.5951 100.785 64.7887 99.6027 60.6513C98.5623 57.0104 95.7249 54.8354 93.2422 52.3529L93.2185 52.3057ZM60.8479 66.6091C59.9258 67.5784 58.98 68.5478 57.9869 69.4462C54.6765 72.496 51.3898 75.5931 47.9612 78.5484C45.4548 80.7235 42.5228 82.2129 38.9287 83.1113C38.5504 80.487 39.4489 78.4775 40.5129 76.7043C42.8538 72.8506 45.4785 69.1625 48.0085 65.427C49.2381 63.6302 50.8459 62.85 53.1395 62.9682C56.4735 63.1574 59.8312 63.0155 64.0401 63.0155C62.645 64.5759 61.7465 65.5925 60.8243 66.5855L60.8479 66.6091ZM91.6816 65.8526C84.3042 66.0417 76.9268 65.9471 68.9583 65.9471L72.9307 61.4315C72.6706 59.1855 71.8194 57.9325 69.3839 57.9561C62.1484 58.0507 54.8893 57.9798 47.6302 57.9798C45.7622 60.344 43.9888 62.5663 42.2863 64.836C41.1986 66.2781 39.8981 66.8692 38.0065 66.9874C33.1592 67.3184 28.9976 65.8762 25.6163 62.4954C23.37 60.2494 21.2656 57.8143 19.3976 55.2373C16.4183 51.0763 16.5601 50.4852 20.2488 45.6149C22.0458 46.6316 24.0321 47.5063 25.7345 48.7593C28.8794 51.0526 32.2606 51.8328 36.1385 51.7855C49.8055 51.6437 63.4726 52.0929 77.116 51.5964C84.8717 51.3127 89.8608 54.7408 93.8096 60.6986C94.188 61.266 94.59 61.7861 94.9446 62.3535C95.0392 62.4954 95.0392 62.6609 95.3702 63.7484C94.0934 64.4813 92.8874 65.7817 91.6342 65.8289L91.6816 65.8526Z" fill="url(#paint1_linear_2343_1030)"/>
<path d="M82.2705 19.2322C84.7769 19.2322 87.3542 16.4897 87.2833 13.8891C87.2124 11.0047 85.4626 9.37341 82.4124 9.32613C79.5276 9.27885 77.5178 11.0284 77.3049 13.7472C77.1158 16.1114 79.9296 19.2322 82.2705 19.2322Z" fill="url(#paint2_linear_2343_1030)"/>
<path d="M97.498 19.231C100.052 19.2074 102.558 16.5358 102.511 13.8879C102.463 11.0036 100.548 9.20679 97.6635 9.34865C95.0152 9.4905 92.4378 12.233 92.6743 14.7154C92.8635 16.725 95.559 19.2547 97.498 19.2074V19.231Z" fill="url(#paint3_linear_2343_1030)"/>
<defs>
<linearGradient id="paint0_linear_2343_1030" x1="0.361808" y1="50.0615" x2="113.741" y2="50.0615" gradientUnits="userSpaceOnUse">
<stop stop-color="#AE8ABE"/>
<stop offset="1" stop-color="#8390C8"/>
</linearGradient>
<linearGradient id="paint1_linear_2343_1030" x1="11.571" y1="64.1267" x2="99.981" y2="64.1267" gradientUnits="userSpaceOnUse">
<stop stop-color="#AE8ABE"/>
<stop offset="1" stop-color="#8390C8"/>
</linearGradient>
<linearGradient id="paint2_linear_2343_1030" x1="77.2813" y1="14.2673" x2="87.2597" y2="14.2673" gradientUnits="userSpaceOnUse">
<stop stop-color="#AE8ABE"/>
<stop offset="1" stop-color="#8390C8"/>
</linearGradient>
<linearGradient id="paint3_linear_2343_1030" x1="92.6506" y1="14.2662" x2="102.511" y2="14.2662" gradientUnits="userSpaceOnUse">
<stop stop-color="#AE8ABE"/>
<stop offset="1" stop-color="#8390C8"/>
</linearGradient>
</defs>
</svg>
