<svg width="114" height="114" viewBox="0 0 114 114" fill="none" xmlns="http://www.w3.org/2000/svg">
<path d="M92.154 1.07751C82.3412 -0.766574 73.2851 1.03021 65.6713 8.59568C53.7303 20.4404 42.2859 32.7343 30.0849 44.2953C22.8731 51.1278 16.0395 58.3859 8.94592 65.3367C5.58828 68.623 3.31831 72.4767 2.06511 76.8977C1.28481 79.6166 0.315386 82.5246 0.55184 85.2434C1.2612 93.5654 4.71345 100.587 11.145 106.285C22.7076 116.522 39.7086 114.63 48.15 105.528C53.7303 99.4995 59.8071 93.8728 65.9077 88.3642C71.3934 83.3993 75.3895 77.0396 81.159 72.3584C84.1619 69.9233 86.9757 67.2518 89.6713 64.4856C95.3462 58.7406 100.832 52.8064 106.53 47.085C111.567 42.0256 114.026 36.0442 113.766 28.3368C114.31 22.5209 111.874 17.0596 108.067 12.1657C103.953 6.86983 98.7748 2.35416 92.2014 1.12477L92.154 1.07751ZM38.1007 65.7859C41.7421 69.4032 44.9579 72.5712 48.4338 75.9993C47.9372 76.5667 47.1569 77.5833 46.2347 78.5054C42.4515 82.3354 38.6918 86.1655 34.8377 89.9246C30.747 93.9201 28.3588 93.8491 24.1263 89.83C22.4948 88.2932 20.9578 86.7092 21.4071 84.2504C21.6199 83.1629 21.9036 81.8626 22.6366 81.106C26.9401 76.614 31.3617 72.2639 35.7598 67.8664C36.5637 67.0626 37.4859 66.3297 38.0771 65.8096L38.1007 65.7859ZM69.6673 76.5195C63.1649 83.7303 56.0476 90.3974 49.1904 97.2772C47.0623 99.405 44.9578 101.58 42.7115 103.566C35.7598 109.689 23.2751 109.808 16.0632 103.85C12.7056 101.084 9.60804 97.9865 7.74006 93.8255C3.79128 85.1252 5.2336 76.9686 11.1686 70.4434C18.1913 62.7125 25.876 55.5725 33.277 48.1962C33.4899 47.9834 33.8682 47.9125 34.1046 47.8179C34.6248 51.4115 35.0977 55.0288 35.6889 58.646C35.9726 60.3956 35.0741 61.5067 33.9628 62.5942C29.5411 66.9917 25.1194 71.4128 20.6977 75.8102C14.4553 82.0281 14.5026 87.3712 20.8632 93.6127C26.68 99.3105 32.2839 99.4286 38.0771 93.7782C44.4613 87.5366 50.751 81.1533 57.0643 74.8409C58.6249 73.2805 60.3274 71.8619 61.6515 70.1361C64.9382 65.9041 66.688 62.9489 62.3372 57.0147C60.2801 54.225 57.6081 51.908 54.9126 49.0237C56.9697 46.8486 59.1215 44.5553 61.3205 42.2147C65.3166 42.9713 67.5392 45.9029 69.6909 48.5272C76.8318 57.2984 77.423 67.8901 69.6909 76.4958L69.6673 76.5195ZM76.8555 47.9362C73.0722 44.3899 69.5963 41.1273 65.8367 37.6046C70.9441 32.5688 75.9097 27.5567 81.0171 22.6628C83.7836 20.0148 86.621 20.133 89.4348 22.7337C90.1678 23.4193 90.9245 24.1049 91.5629 24.8851C93.9747 27.864 94.2585 30.2992 91.7048 33.018C86.7865 38.2666 81.5846 43.2314 76.8791 47.9362H76.8555ZM108.753 30.7956C108.398 36.588 105.703 41.0563 101.967 45.0046C98.1363 49.0237 93.9511 52.7118 90.0023 56.6128C87.0466 59.5208 84.2092 62.5234 80.426 66.4243C80.2368 63.209 80.2604 61.1994 79.9767 59.2371C79.7166 57.4166 79.1018 55.6671 78.5344 53.3975C83.8309 48.1253 89.3166 42.664 94.7787 37.2026C98.6329 33.349 99.6969 29.0225 97.3324 24.3887C95.1097 20.0622 91.492 16.9177 86.621 15.9247C83.1688 15.2155 80.0713 16.3976 77.4703 19.0455C69.5727 27.1075 61.5569 35.0985 53.5175 43.0422C48.3155 48.1726 49.1431 53.6339 53.2574 58.1732C55.0545 60.1355 57.1116 61.885 59.1214 63.8C58.2702 67.37 55.5274 69.3322 53.1156 71.46C39.685 64.8875 36.2564 50.0167 42.9007 39.0467C43.681 37.77 44.816 36.7062 45.8801 35.6187C53.8486 27.604 61.7934 19.5657 69.8565 11.6692C78.3688 3.29989 91.3028 2.99254 100.312 11.22C106.105 16.5158 109.273 22.71 108.777 30.7956H108.753Z" fill="url(#paint0_linear_2343_485)"/>
<defs>
<linearGradient id="paint0_linear_2343_485" x1="0.504548" y1="56.8019" x2="113.79" y2="56.8019" gradientUnits="userSpaceOnUse">
<stop stop-color="#AE8ABE"/>
<stop offset="1" stop-color="#8390C8"/>
</linearGradient>
</defs>
</svg>
