<svg width="90" height="115" viewBox="0 0 90 115" fill="none" xmlns="http://www.w3.org/2000/svg">
<path d="M3.84053 27.7164C2.77648 31.4992 1.807 35.3292 0.790252 39.1356C0.506508 41.4525 -0.0609498 43.7931 0.00998639 46.11C0.222795 54.8339 2.58733 62.9431 7.24547 70.3904C12.9677 79.5399 19.9903 87.7201 26.8948 95.9475C31.6475 101.622 36.8731 106.894 42.0041 112.237C44.345 114.672 45.882 114.743 47.9628 112.568C52.1481 108.194 56.4279 103.868 60.3057 99.2101C66.5481 91.7392 72.5776 84.0555 78.5836 76.3955C87.5925 64.8818 91.9196 52.0914 89.0112 37.3624C87.1196 27.7873 82.4378 19.7018 75.4151 13.1529C69.8348 7.95164 63.1668 4.31075 55.6002 2.67945C51.6515 0.717154 47.5608 0.0788211 43.2573 1.26093C42.477 1.4737 41.6258 1.68648 40.8219 1.66284C34.6741 1.45006 29.3302 3.86156 24.1519 6.76954C22.3785 6.62769 20.8416 6.88775 20.1086 8.80276C19.7539 9.11011 19.3992 9.44108 19.0445 9.74843C18.5716 9.86664 17.9568 9.84301 17.6494 10.1504C15.5923 12.0181 13.5824 13.9331 11.5489 15.8481C10.8159 16.5337 9.72822 17.1721 9.51541 17.9995C8.75875 21.0494 6.27598 22.9407 4.85726 25.5177C4.45529 26.227 4.07693 26.9599 3.86412 27.7401L3.84053 27.7164ZM6.5834 37.5043C6.5834 31.0263 10.5795 26.3688 14.0317 21.5931C16.0415 18.8034 18.7844 16.5337 21.2199 14.004C23.8682 12.5855 26.4928 11.167 29.141 9.74843C31.1509 9.08645 33.1608 8.42448 35.1707 7.7625C39.8525 6.22577 44.6761 7.00596 49.4524 6.76954C51.2258 8.63726 53.4958 7.45516 55.5293 7.78615C62.6702 10.0794 69.3146 13.4366 74.2565 19.1343C82.6979 28.8749 86.4575 40.0576 84.2112 53.1553C82.9343 60.6026 79.4348 66.7495 75.1786 72.6128C66.7845 84.1974 57.7047 95.2146 47.6081 105.381C46.8987 106.09 46.3077 106.917 45.4564 107.958C41.6495 105.452 38.7411 101.976 35.8327 98.5954C29.7086 91.4555 23.6081 84.2683 17.8859 76.7974C12.4947 69.7521 6.96169 62.6358 5.80306 53.3445C5.80306 48.5924 5.80306 43.864 5.80306 39.1119C5.874 38.8046 5.89766 38.4736 5.89766 38.1662C6.13412 37.9535 6.5834 37.717 6.5834 37.5043Z" fill="url(#paint0_linear_2399_2)"/>
<path d="M25.0739 49.5149C26.8 51.2172 27.6276 52.943 27.2966 55.3072C26.7527 59.2791 26.3745 63.2983 25.7124 67.2465C25.4286 68.9251 24.6483 70.58 26.2089 71.904C28.006 73.4407 29.7085 72.1877 31.34 71.4075C34.3666 69.9417 37.4878 68.6178 40.3489 66.8919C43.6356 64.8823 46.5439 65.1896 49.7834 66.9864C53.141 68.8542 56.6878 70.4382 60.2583 71.8803C63.5213 73.2043 65.011 71.9276 64.5381 68.3577C64.0652 64.7168 63.3795 61.0996 62.812 57.4823C62.2918 54.2197 62.2681 51.2172 65.342 48.8766C67.4701 47.2453 69.2199 45.1648 71.0642 43.2025C72.6485 41.5239 74.1381 39.7271 76.4317 37.1501C74.0908 36.1099 72.8612 35.3297 71.4898 35.0223C68.0612 34.2421 64.6326 33.391 61.1331 33.06C57.0188 32.6817 54.4888 30.8377 52.8572 27.0077C51.2966 23.3195 49.1686 19.8441 47.1114 16.3924C45.8819 14.3118 44.0848 14.3591 42.6898 16.3214C42.1223 17.1489 41.7676 18.1182 41.271 18.993C39.4267 22.3738 37.4641 25.6837 35.8089 29.1354C34.8158 31.1923 33.3735 32.1853 31.2217 32.5635C26.7764 33.3201 22.3547 34.1712 17.9094 34.9987C14.7645 35.5897 14.0079 37.5284 16.1124 39.8926C19.0207 43.1552 21.9055 46.4415 25.0266 49.4913L25.0739 49.5149ZM34.1065 37.2683C36.6365 37.0082 38.0079 35.9444 39.1193 33.7929C40.8454 30.4121 42.8316 27.1495 45.2198 22.9649C47.2533 26.8894 48.9794 29.892 50.4218 33.0364C51.5804 35.5661 53.2356 37.0083 56.1203 37.1974C58.4612 37.3392 60.7785 37.7884 63.0721 38.2849C64.3016 38.545 65.4603 39.1597 67.3046 39.869C64.4435 42.8006 62.079 45.3776 59.5253 47.7654C57.8937 49.2785 57.1371 50.9098 57.4681 53.1322C57.8701 55.9456 58.1775 58.7826 58.4613 61.596C58.5795 62.7072 58.4613 63.842 58.4613 65.6625C54.7016 63.842 51.3676 62.4235 48.2228 60.6503C45.9055 59.35 43.943 59.3973 41.6493 60.6976C38.5991 62.4235 35.3597 63.8184 32.1675 65.3551C31.2454 62.4472 31.5055 58.428 33.0425 50.6734C29.6139 47.0325 26.3035 43.5571 22.5202 39.538C26.9419 38.6159 30.4887 37.623 34.1065 37.221V37.2683Z" fill="url(#paint1_linear_2399_2)"/>
<defs>
<linearGradient id="paint0_linear_2399_2" x1="-0.0136593" y1="57.3873" x2="89.8861" y2="57.3873" gradientUnits="userSpaceOnUse">
<stop stop-color="#AE8ABE"/>
<stop offset="1" stop-color="#8390C8"/>
</linearGradient>
<linearGradient id="paint1_linear_2399_2" x1="14.9774" y1="43.7699" x2="76.4553" y2="43.7699" gradientUnits="userSpaceOnUse">
<stop stop-color="#AE8ABE"/>
<stop offset="1" stop-color="#8390C8"/>
</linearGradient>
</defs>
</svg>
