<svg width="80" height="86" viewBox="0 0 80 86" fill="none" xmlns="http://www.w3.org/2000/svg">
<path d="M47.6107 77.3508C46.5734 80.4117 50.4957 81.5702 50.7064 84.0303C49.9284 85.4463 48.5183 84.9886 47.3676 85.0029C39.6365 85.0458 31.8893 85.0172 24.1582 85.0172C20.9653 85.0172 17.7886 85.0172 14.5957 85.0172C13.4449 85.0172 12.2617 85.0744 12.0024 84.0732C13.137 81.7132 14.1256 79.6107 15.1305 77.5224C16.3299 75.0051 15.325 72.5879 14.6605 70.185C13.7852 67.0383 12.0511 64.2206 10.0413 61.5173C8.22604 59.0858 6.32971 56.7115 4.69273 54.1941C0.0735413 47.1284 -0.185756 39.791 3.25027 32.2676C3.78513 31.0947 4.5955 30.4511 6.0704 30.5512C6.52421 30.5798 6.97802 30.5512 7.43184 30.5512C27.3511 30.5512 47.2542 30.5512 67.1734 30.5512H69.718C71.4846 31.9815 71.5981 33.7837 71.8574 35.3999C72.1815 37.3451 72.0843 39.3476 71.9871 41.3214C71.8898 43.3667 72.0033 45.3262 73.3809 47.0855C74.7262 48.8162 76.0552 50.5612 77.3842 52.3061C77.8867 52.9641 78.4377 53.622 78.8591 54.3229C80.2854 56.7544 79.7343 58.2705 77.0601 59.5006C76.3631 59.8152 75.65 60.1013 74.8072 60.4589C75.18 62.5042 77.5301 64.4208 75.8769 66.3947C74.4993 68.0252 75.0665 70.7428 72.0033 71.3149C72.1005 72.1731 72.1329 72.8596 72.2788 73.5319C73.4944 79.2674 69.9125 82.6429 63.3646 82.0279C59.0047 81.6131 54.9528 80.426 51.0305 78.824C49.9122 78.3663 48.8263 77.8657 47.6431 77.3508H47.6107ZM17.6427 81.7275H44.5313C44.1585 79.5392 43.7857 77.4795 43.4615 75.6058C42.2298 74.1612 40.9007 72.9025 40.0093 71.4293C39.0693 69.8703 39.523 69.1551 41.9542 67.8679C42.2135 68.2541 42.716 68.7547 42.8619 69.3125C43.4453 71.6582 45.5361 72.7595 47.6107 73.7607C50.3984 75.0909 53.2672 76.3353 56.2332 77.3222C58.9723 78.2519 61.841 78.8097 64.8557 78.8955C67.6758 78.9813 69.4586 77.9229 68.6969 74.9622C67.8541 71.7297 69.5073 68.9978 69.6046 66.0228C69.6046 65.6652 70.2529 65.2361 70.7067 65.0073C71.2253 64.7355 71.8736 64.6497 72.4409 64.4923C71.3064 60.8498 72.4895 58.0512 75.9903 56.0965C75.2286 55.1381 74.4506 54.1798 73.7375 53.2072C72.4409 51.448 71.1604 49.6744 69.9125 47.8865C68.6158 46.0414 68.162 44.039 68.3565 41.8506C68.5186 40.0627 68.4862 38.2319 68.3565 36.444C68.2917 35.5144 67.7893 34.6276 67.53 33.8409H6.65385C4.90342 36.7015 4.30377 39.8053 4.51447 42.8518C4.80621 46.9568 6.18387 50.8329 8.92297 54.3515C11.6783 57.8843 14.2877 61.5745 16.4271 65.4221C19.1824 70.3852 20.317 75.6487 17.7724 81.0553C17.6913 81.2269 17.7237 81.4272 17.6751 81.7561L17.6427 81.7275Z" fill="url(#paint0_linear_2343_120)"/>
<path d="M17.5297 9.71132C16.7194 10.498 15.9576 11.2274 15.1472 12.0141C16.6221 13.5588 17.9997 14.9748 19.3774 16.4195C18.4698 17.8641 17.5946 19.0512 16.9787 20.3099C16.2655 21.7688 15.6658 23.2849 15.212 24.8154C14.4989 27.204 14.0451 27.5472 11.2898 27.6903C9.84728 27.7618 8.40477 28.0621 6.96229 28.2052C6.20053 28.2767 5.40638 28.2052 4.66083 28.2052C4.12597 25.9024 4.98495 24.7867 7.51335 24.5436C8.72892 24.4292 9.97693 24.5293 11.1277 24.5293C12.4405 21.8689 13.6561 19.3945 15.0013 16.6626C14.4017 16.0762 13.5912 15.4039 12.9429 14.6173C12.4243 14.0022 11.8408 13.2871 11.7112 12.5576C11.3222 10.5552 15.0013 6.55035 17.3353 6.50744C18.2429 6.47883 19.2801 6.92223 20.0743 7.40853C21.0792 8.00926 21.8896 8.86744 22.7162 9.56829L32.1491 6.22138C32.1491 5.17725 32.1491 4.0044 32.1491 2.81725C32.1491 1.40125 32.8622 0.500153 34.483 0.328516C36.0389 0.156879 37.6597 -0.100576 39.1994 0.056758C42.1654 0.357122 42.992 1.31543 43.2027 4.03301C43.2675 4.81968 43.3161 5.60634 43.381 6.43592C46.2821 7.49435 49.0861 8.50987 52.0845 9.5969C52.8787 8.95326 53.6891 8.26671 54.5319 7.60877C56.3309 6.17847 57.4331 6.10695 59.3618 7.29411C59.6373 7.46574 59.8804 7.68029 60.1397 7.88053C64.451 11.2417 64.5158 12.4289 60.5774 16.1906C60.3504 16.4052 60.1721 16.6626 60.0911 16.7627C61.3067 19.3373 62.4736 21.8117 63.6568 24.3577C65.5207 24.987 68.0005 23.7283 69.6537 25.4304C70.2533 26.0311 70.4478 26.9465 70.934 27.9477C69.8643 28.1194 69.1998 28.3339 68.584 28.291C66.5742 28.1337 64.5644 27.819 62.5547 27.6903C61.0474 27.6045 60.3342 27.0037 60.0425 25.7164C59.3293 22.5269 57.66 19.6806 55.6664 17.0202C55.8447 14.6888 58.4703 13.9021 59.54 11.9712L57.2386 9.69702C56.0716 10.6839 55.0181 11.5707 53.9808 12.4861C52.9435 13.4015 51.7766 13.5588 50.5934 12.8437C47.7247 11.1416 44.5804 10.0832 41.193 9.49678C39.7181 9.23932 39.3615 8.03786 39.2156 6.95083C39.0698 5.77798 39.1832 4.57652 39.1832 3.23204H35.6661C35.6661 4.4621 35.7472 5.54913 35.6499 6.62186C35.4554 8.6672 34.9044 9.1535 32.6677 9.66841C29.9124 10.2977 27.2543 11.0987 24.8556 12.529C22.8134 13.7448 22.1975 13.5875 20.3823 12.0999C19.8798 11.6851 19.426 11.2417 18.9236 10.827C18.5184 10.4837 18.097 10.1547 17.5784 9.72563L17.5297 9.71132Z" fill="url(#paint1_linear_2343_120)"/>
<path d="M49.5231 28.1335L46.3302 28.2765C45.2443 24.0428 42.9428 21.0106 37.5294 20.9963C32.6023 20.9963 30.3332 22.6983 28.3883 28.1049H25.3574C25.3574 24.3432 27.0917 21.597 30.3818 19.6804C35.001 17.02 39.7661 17.0629 44.4015 19.6804C47.7727 21.5827 49.1827 24.4576 49.5231 28.1192V28.1335Z" fill="url(#paint2_linear_2343_120)"/>
<defs>
<linearGradient id="paint0_linear_2343_120" x1="0.916356" y1="57.7985" x2="79.6047" y2="57.7985" gradientUnits="userSpaceOnUse">
<stop stop-color="#AE8ABE"/>
<stop offset="1" stop-color="#8390C8"/>
</linearGradient>
<linearGradient id="paint1_linear_2343_120" x1="4.49875" y1="14.1453" x2="70.9016" y2="14.1453" gradientUnits="userSpaceOnUse">
<stop stop-color="#AE8ABE"/>
<stop offset="1" stop-color="#8390C8"/>
</linearGradient>
<linearGradient id="paint2_linear_2343_120" x1="25.3412" y1="22.9987" x2="49.5231" y2="22.9987" gradientUnits="userSpaceOnUse">
<stop stop-color="#AE8ABE"/>
<stop offset="1" stop-color="#8390C8"/>
</linearGradient>
</defs>
</svg>
