<svg width="77" height="86" viewBox="0 0 77 86" fill="none" xmlns="http://www.w3.org/2000/svg">
<path d="M40.3249 36.9301C35.7382 41.1782 32.0266 41.4213 26.6781 38.2031C24.9763 38.3605 24.879 39.6477 24.5873 40.6489C24.0362 42.494 22.8044 43.8671 21.2485 45.0829C20.3733 45.7694 19.4656 45.9983 18.5742 45.1401C17.8287 44.4106 17.9421 43.5954 18.7201 43.0089C20.7947 41.4499 21.5402 39.4761 21.5726 37.1447C21.5889 36.1292 22.3182 35.5428 23.5014 35.3711C24.8304 35.1852 26.127 34.8991 27.9098 34.5701C28.2826 34.8133 29.0282 35.2138 29.6927 35.7287C32.5939 38.0029 35.5923 37.5452 37.4238 34.4843C37.9424 33.6118 38.1369 32.5105 40.0008 32.4247C40.5356 32.8252 41.3298 33.3544 42.0592 33.9551C43.3882 35.0278 44.9928 34.9992 46.5649 34.7275C47.9263 34.4986 48.6395 33.5975 48.834 32.3818C49.0123 31.2518 49.693 30.6082 51.0706 30.5224C55.7547 30.222 56.3381 27.9049 55.3819 24.7582C55.3008 24.4722 55.236 24.1861 55.0901 23.6283C55.7709 23.2421 56.4678 22.7701 57.2296 22.4412C58.7693 21.7832 59.8228 20.9393 59.8552 19.2659C59.8876 17.4494 58.7531 16.5483 57.0999 15.8474C56.3219 15.5185 55.6088 15.0751 54.847 14.6889C55.4305 12.4433 56.7271 10.2692 54.4905 8.56718C52.4483 7.00815 50.244 7.79482 47.9426 9.01058C47.3429 8.39555 46.3866 7.85203 46.3056 7.237C45.9814 4.86269 44.2796 4.06172 41.7998 3.73275L38.0072 5.24888C33.3232 2.38826 33.0801 2.38826 28.6554 5.13445C23.0313 4.20475 22.8531 4.27627 19.5467 8.39555C18.7849 8.39555 17.8935 8.36694 17.0021 8.39555C14.1657 8.50997 12.6746 10.069 13.0312 12.5005C13.2365 13.8927 12.6314 14.8415 11.2159 15.3468C10.908 15.4613 10.5676 15.5185 10.2435 15.6329C6.9371 16.8344 6.46707 19.8237 9.31963 21.7546C10.1138 22.2981 11.0538 22.6843 12.2208 23.285C11.9777 24.229 11.6859 25.1587 11.5239 26.1027C11.0863 28.4913 11.6373 29.1636 14.3278 30.0361C15.0409 30.2649 15.8513 30.6082 16.2727 31.1231C18.5418 33.8121 19.5305 36.8443 18.8498 40.1769C18.6715 41.0351 18.1204 41.8647 17.5531 42.5942C16.5158 43.9243 15.8189 43.8528 14.0685 42.2366C15.8513 39.376 16.1107 36.4438 13.9064 33.5546C8.34717 31.3663 7.32608 29.8644 8.2175 24.9728C5.86739 23.4424 3.67935 21.5115 3.89005 18.6794C4.10075 15.9333 5.85119 13.8164 8.89823 12.615C9.77345 8.28112 11.9291 5.02003 17.7476 5.12015C19.0605 3.06051 21.0378 1.83044 23.631 1.38705C23.8579 1.34414 24.101 1.1582 24.2631 1.21541C26.9212 1.93057 29.3037 0.857836 31.7835 0.371532C34.1012 -0.0718627 36.273 0.385835 38.2504 1.44426C42.7399 -0.329318 46.5325 0.857836 49.2392 4.54803C51.8 4.66245 54.5553 4.4479 56.7595 6.35021C58.9152 8.20961 59.5473 10.398 59.1583 13.0583C61.3625 14.646 63.2102 16.4625 63.3561 19.2087C63.4857 21.9405 61.6381 23.6569 59.3366 25.3018C59.8066 29.9932 57.3268 32.8824 52.1728 33.8407C49.4337 38.6322 45.2521 39.19 40.3411 36.9158L40.3249 36.9301Z" fill="url(#paint0_linear_2343_187)"/>
<path d="M45.0087 74.8185C44.6846 77.4074 45.5598 79.2954 47.0671 81.026C47.6181 81.6554 48.3475 82.2132 48.7203 82.914C48.9472 83.3574 48.8823 84.2013 48.542 84.5303C48.1854 84.8736 47.2778 84.988 46.7105 84.8593C46.1108 84.7162 45.5922 84.2156 45.1222 83.7865C42.7072 81.5123 41.3134 78.8377 41.2971 75.6624C41.2971 74.7613 41.2971 73.8602 41.2971 73.4168C39.9357 71.7147 38.785 70.3846 37.7639 68.9686C37.0994 68.0389 37.0183 67.0376 38.2663 66.3511C39.2226 65.8219 40.114 66.1509 40.8271 67.5526C41.6051 69.1259 42.9503 70.0556 44.5549 70.8995C47.7964 72.5872 51.1838 73.9746 54.8306 74.8185C57.2293 75.3763 59.6767 75.7911 62.124 76.1487C63.4855 76.3489 64.8793 75.6338 65.3169 74.3894C65.6735 73.3882 65.8032 72.2154 65.5925 71.1855C65.2683 69.5693 64.8469 68.0389 66.1922 66.6229C66.3867 66.4083 66.4839 66.0936 66.5325 65.8076C66.7918 64.1866 67.6508 62.9851 69.1095 62.2032C69.0285 60.7014 67.0512 59.2568 68.4126 57.7407C69.4175 56.625 70.9248 55.8527 72.4159 54.7513C72.0107 54.2221 71.4434 53.5213 70.9086 52.7918C69.3202 50.6034 67.7319 48.4008 66.1759 46.1981C65.1711 44.7678 64.8469 43.1229 65.3007 41.5496C66.5649 37.2158 64.9442 33.4541 62.513 29.864C61.5892 28.5052 61.5892 27.2751 62.3834 25.6875C63.0317 25.945 63.8096 26.0165 64.1014 26.3884C67.7481 31.0082 70.4548 35.8856 68.9475 41.7784C68.4774 43.5949 69.4013 45.154 70.4062 46.5843C71.5893 48.2863 73.0318 49.8597 74.3446 51.4902C74.7984 52.0623 75.3333 52.6059 75.6899 53.2209C77.0837 55.6238 76.4516 57.2257 73.6801 58.2842C73.0804 58.513 72.4483 58.6847 71.7838 58.9135C72.1404 60.9302 74.296 62.7038 72.5942 64.6633C71.2652 66.1795 71.719 68.7397 68.9799 69.1831C69.142 70.6849 69.304 71.9579 69.3851 73.2452C69.612 76.7351 65.1711 79.9962 60.7302 79.3097C55.3168 78.4801 50.1627 77.0927 44.9763 74.7899L45.0087 74.8185Z" fill="url(#paint1_linear_2343_187)"/>
<path d="M10.5672 83.4436C11.3938 82.6998 12.2042 81.8989 13.0956 81.1837C15.3809 79.3243 15.8833 76.9214 15.6402 74.3611C15.235 69.8557 13.1604 65.8651 10.4537 62.1177C8.07121 58.828 5.41314 55.667 3.28994 52.2486C-1.73445 44.1102 -0.551274 36.172 5.02417 28.0479L6.64494 31.5092C5.28349 34.427 4.0355 37.3877 3.841 40.6488C3.56547 45.2544 5.07279 49.3308 7.90914 53.1211C10.3403 56.3822 12.7714 59.6433 15.0729 62.9759C17.342 66.2513 18.8979 69.7985 19.4166 73.6174C20.0163 78.037 18.2172 81.6986 14.2301 84.4448C12.7876 85.446 12.1718 85.2458 10.5348 83.4722L10.5672 83.4436Z" fill="url(#paint2_linear_2343_187)"/>
<path d="M26.9696 16.1766L24.7492 14.6891C24.5061 14.8464 24.1495 14.9608 24.0198 15.1897C23.6632 15.819 23.566 16.5914 23.0798 17.1063C22.6584 17.564 21.848 18.0074 21.2159 17.9931C20.13 17.9645 19.741 17.1349 19.8869 16.2481C20.1786 14.3887 20.9728 12.7295 23.0149 11.8714C25.3489 10.8844 27.6503 9.88323 29.7898 8.58165C30.665 8.05244 31.913 7.83789 32.9827 7.83789C33.5175 7.83789 34.2955 8.58165 34.5062 9.12517C34.6521 9.48274 34.02 10.484 33.6634 10.5126C30.357 10.8129 29.1415 12.8011 28.3473 15.2469C28.2987 15.4185 28.0717 15.5615 27.9097 15.6903C27.7314 15.819 27.5207 15.9048 26.9696 16.1909V16.1766Z" fill="url(#paint3_linear_2343_187)"/>
<path d="M31.0697 29.7926C29.6597 28.5912 27.4068 28.4052 27.1475 26.3456C27.6499 25.1298 28.8655 24.6578 30.0324 25.4302C32.3339 26.9606 34.2302 26.317 36.2076 25.0726C36.3859 24.9582 36.629 24.9439 36.9855 24.8438C37.2773 25.0154 37.6987 25.1727 37.9904 25.4445C38.2821 25.7162 38.4442 26.1024 38.6387 26.4028C38.428 26.7747 38.347 27.1179 38.1039 27.2753C36.1589 28.6198 34.5058 30.1502 33.4198 32.1526C32.8526 33.1967 31.6532 33.8118 30.3242 33.6687C29.6597 33.5972 28.8493 33.1109 28.5251 32.596C28.3144 32.267 28.7196 31.4661 29.1086 31.0513C29.5786 30.5507 30.308 30.2503 31.0697 29.764V29.7926Z" fill="url(#paint4_linear_2343_187)"/>
<path d="M44.7332 13.7164C43.7931 13.2444 43.08 13.0584 42.6748 12.6437C42.3182 12.2575 42.0427 11.4994 42.2372 11.0846C42.4317 10.6412 43.1934 10.1549 43.7445 10.1263C45.4463 10.0405 46.7915 10.727 47.6343 12.0572C48.5096 13.4446 48.7689 14.9035 47.7316 16.2766C47.4237 16.6771 46.5971 17.0347 46.0946 16.9632C45.576 16.8774 44.9601 16.3052 44.7818 15.8332C44.5549 15.2039 44.7332 14.4601 44.7332 13.7164Z" fill="url(#paint5_linear_2343_187)"/>
<path d="M15.332 23.4276C15.4455 23.1415 15.5589 22.5265 15.9155 22.0545C16.2072 21.6969 16.8556 21.2535 17.2445 21.325C17.8118 21.4252 18.7032 21.8972 18.7519 22.2834C18.9139 23.6421 19.2867 24.7578 20.632 25.6017C20.9237 25.7876 20.9885 26.6601 20.7616 26.9461C20.4213 27.3466 19.6919 27.6899 19.1246 27.7042C17.2283 27.7471 15.3807 25.7304 15.332 23.4276Z" fill="url(#paint6_linear_2343_187)"/>
<path d="M47.9751 28.0767C46.646 27.3758 46.4515 26.5177 47.116 25.4878C47.8616 24.3293 48.6234 23.1707 49.7579 21.4544C49.9848 21.3113 50.9735 21.2541 51.557 21.9264C52.0432 22.4842 52.3835 23.4568 52.1891 24.1004C51.6056 25.9312 50.7466 27.7191 47.9751 28.0767Z" fill="url(#paint7_linear_2343_187)"/>
<defs>
<linearGradient id="paint0_linear_2343_187" x1="3.87384" y1="22.9561" x2="63.3561" y2="22.9561" gradientUnits="userSpaceOnUse">
<stop stop-color="#AE8ABE"/>
<stop offset="1" stop-color="#8390C8"/>
</linearGradient>
<linearGradient id="paint1_linear_2343_187" x1="37.2938" y1="55.3091" x2="76.4354" y2="55.3091" gradientUnits="userSpaceOnUse">
<stop stop-color="#AE8ABE"/>
<stop offset="1" stop-color="#8390C8"/>
</linearGradient>
<linearGradient id="paint2_linear_2343_187" x1="0.113235" y1="56.5252" x2="19.5463" y2="56.5252" gradientUnits="userSpaceOnUse">
<stop stop-color="#AE8ABE"/>
<stop offset="1" stop-color="#8390C8"/>
</linearGradient>
<linearGradient id="paint3_linear_2343_187" x1="19.8707" y1="12.9155" x2="34.5386" y2="12.9155" gradientUnits="userSpaceOnUse">
<stop stop-color="#AE8ABE"/>
<stop offset="1" stop-color="#8390C8"/>
</linearGradient>
<linearGradient id="paint4_linear_2343_187" x1="27.1313" y1="29.2777" x2="38.6387" y2="29.2777" gradientUnits="userSpaceOnUse">
<stop stop-color="#AE8ABE"/>
<stop offset="1" stop-color="#8390C8"/>
</linearGradient>
<linearGradient id="paint5_linear_2343_187" x1="42.1724" y1="13.5447" x2="48.4123" y2="13.5447" gradientUnits="userSpaceOnUse">
<stop stop-color="#AE8ABE"/>
<stop offset="1" stop-color="#8390C8"/>
</linearGradient>
<linearGradient id="paint6_linear_2343_187" x1="15.332" y1="24.5146" x2="20.8913" y2="24.5146" gradientUnits="userSpaceOnUse">
<stop stop-color="#AE8ABE"/>
<stop offset="1" stop-color="#8390C8"/>
</linearGradient>
<linearGradient id="paint7_linear_2343_187" x1="46.7433" y1="24.7155" x2="52.2377" y2="24.7155" gradientUnits="userSpaceOnUse">
<stop stop-color="#AE8ABE"/>
<stop offset="1" stop-color="#8390C8"/>
</linearGradient>
</defs>
</svg>
