<svg width="89" height="86" viewBox="0 0 89 86" fill="none" xmlns="http://www.w3.org/2000/svg">
<path d="M9.19946 55.3525C14.0942 58.1702 14.159 58.3418 12.3924 62.8759C14.0456 63.5338 16.0067 64.0058 15.0018 66.2657C16.7198 68.4255 15.9094 70.8713 15.9905 73.217C16.0715 75.72 17.3357 76.6783 20.1396 76.2349C24.9695 75.4912 29.5725 74.1467 33.9 72.087C37.9195 70.1847 38.4381 70.4708 38.665 74.49C38.8109 77.0788 39.1026 79.7106 37.4657 82.0706C36.8822 82.9145 36.1691 83.7154 35.3911 84.4163C34.5807 85.16 33.511 85.2745 32.6682 84.5021C31.9064 83.8012 32.2144 82.9431 32.9275 82.3566C34.9373 80.6689 35.3587 78.5806 35.0993 76.2921C35.0669 76.0061 34.8724 75.7486 34.6942 75.3338C33.8189 75.6771 32.9923 75.9632 32.1982 76.3064C28.3894 77.9513 24.3374 78.881 20.1883 79.4388C15.1315 80.1254 11.4847 76.6926 12.2465 72.1299C12.3762 71.3433 12.4086 70.5423 12.4896 69.6412C9.65327 68.4254 10.0423 65.5934 8.53494 63.6768C8.25941 63.3336 8.63219 62.5326 8.82668 61.9605C9.086 61.2024 9.45878 60.4873 9.88018 59.5433C8.90772 59.1285 8.00009 58.7995 7.1735 58.3704C5.52031 57.5122 4.92063 56.0533 5.76343 54.5229C6.44415 53.2642 7.43282 52.1343 8.29183 50.9614C8.97255 50.046 9.65327 49.1163 10.415 48.2438C12.4086 45.941 12.6355 43.4523 12.2465 40.5917C11.8575 37.7597 12.5707 34.8562 13.9807 32.1672C18.0975 24.3005 24.8561 19.1085 34.3538 17.0489C44.8564 14.7604 55.0672 15.3468 64.3542 20.8535C70.8373 24.6867 75.0837 29.9931 77.1097 36.6441C78.9249 42.637 78.0659 48.3296 74.4516 53.6504C72.4094 56.654 70.2376 59.6005 68.1954 62.6041C66.1695 65.5648 65.0998 68.8402 64.6622 72.2301C64.2084 75.7915 64.7432 79.2386 67.3364 82.2136C68.0496 83.0432 68.1792 83.8728 67.2068 84.6022C66.364 85.2315 65.2132 84.9741 64.3056 83.9872C63.949 83.601 63.5114 83.2148 63.3331 82.7571C62.5228 80.6832 61.4368 78.6378 61.1127 76.4924C60.4482 72.3445 61.4044 68.2824 63.3656 64.4921C64.7594 61.7745 66.5423 59.2 68.2441 56.5968C69.3786 54.8661 70.7238 53.2356 71.8422 51.4906C73.8681 48.2724 74.403 44.8254 74.2085 41.1352C73.9006 35.6428 71.4046 31.0802 67.2878 27.1325C64.0139 23.9858 60.1888 21.5829 55.4724 20.3672C48.7786 18.6365 41.9714 18.4506 35.2938 19.9524C27.4493 21.7117 21.5335 25.9025 17.7895 32.3674C16.2822 34.9563 15.6177 37.7025 16.0715 40.5202C16.8333 45.2116 14.5156 48.8732 11.5658 52.4203C10.7716 53.3786 10.0098 54.3512 9.24808 55.3095L9.19946 55.3525Z" fill="url(#paint0_linear_2343_409)"/>
<path d="M36.0387 27.0469C37.854 27.0469 39.6692 26.9897 41.4845 27.0469C44.2398 27.1613 45.2933 27.9909 45.8606 30.3795C45.9578 30.7657 46.0226 31.1662 46.0226 31.5667C46.0226 34.5703 46.1361 37.574 46.0064 40.5776C45.8768 43.7958 44.6288 44.9257 41.0469 45.0545C37.3029 45.1832 33.5589 45.1689 29.8149 45.0545C27.011 44.9686 25.6334 43.7386 25.5523 41.2785C25.4227 37.7742 25.4227 34.27 25.5523 30.7657C25.6496 28.3485 27.0921 27.2042 29.9122 27.0755C31.9544 26.9897 33.9965 27.0612 36.0387 27.0612V27.0469ZM41.7924 41.3786V30.1936C37.5298 30.165 33.4131 30.0935 29.3287 30.2508V41.3929H41.7924V41.3786Z" fill="url(#paint1_linear_2343_409)"/>
<path d="M64.0132 45.7983C65.9582 46.8282 66.493 48.6446 66.6065 50.5899C66.7037 52.2204 66.1202 52.907 64.3536 52.9499C60.7231 53.0357 57.0925 53.0071 53.4782 52.9499C52.1816 52.9356 51.4685 52.2633 51.3874 51.0333C51.2254 48.802 51.6792 46.8425 54.3534 45.4551C54.0131 44.2107 53.8348 42.952 53.3324 41.7792C51.7278 38.0461 53.77 34.5561 58.1785 33.7838C60.253 33.4262 62.1007 34.2415 63.3649 35.5001C64.8722 37.002 65.9582 38.9043 64.8074 41.0068C63.9808 42.5086 63.6242 44.0105 64.0294 45.7983H64.0132ZM62.7004 49.6888C61.6631 48.7305 60.1882 48.4301 60.3017 46.8997C60.4475 44.7399 59.7992 42.5515 61.2093 40.4776C62.0683 39.2189 61.5497 38.1319 60.3341 37.3595C59.3616 36.7302 58.4378 36.8589 57.514 37.4167C56.347 38.1176 56.0228 39.2332 56.6387 40.592C56.7198 40.778 56.8656 40.9353 57.0115 41.0926C58.3081 42.5086 57.4653 44.1964 57.8057 45.7125C58.2433 47.6863 56.8008 48.6017 54.4183 49.7031H62.7166L62.7004 49.6888Z" fill="url(#paint2_linear_2343_409)"/>
<path d="M72.1501 7.12255C70.7886 9.2108 69.5082 11.2132 68.2116 13.1871C68.0495 13.4445 67.8388 13.7592 67.5633 13.8593C66.9798 14.0595 66.056 14.4028 65.7804 14.174C65.2942 13.7878 64.7594 12.8438 64.9701 12.4433C66.1694 10.2978 67.4822 8.19528 68.9571 6.19286C69.6217 5.27746 70.4158 5.53491 72.1501 7.12255Z" fill="url(#paint3_linear_2343_409)"/>
<path d="M2.78089 22.1406C5.40654 23.5423 8.35633 24.6008 10.6254 26.8749L9.21534 28.6628C6.28175 28.0335 4.01267 26.5317 1.75981 25.0584C0.365945 24.1431 0.657684 23.4279 2.76468 22.1406H2.78089Z" fill="url(#paint4_linear_2343_409)"/>
<path d="M80.5778 27.9906C78.9247 25.9596 78.8274 25.4447 80.1078 24.658C81.9555 23.5137 83.9166 22.5125 85.8615 21.497C86.7854 21.0107 87.6606 21.3111 88.1955 22.0691C88.7627 22.8844 88.4548 23.6282 87.5796 24.1288C85.3105 25.416 83.0252 26.6604 80.5778 28.0049V27.9906Z" fill="url(#paint5_linear_2343_409)"/>
<path d="M43.8998 0.64329C46.8496 0.514562 47.271 0.700502 47.3682 2.34535C47.4817 4.13324 47.4006 5.92112 47.3682 7.709C47.3682 7.99506 47.3682 8.40985 47.1575 8.55288C46.5903 8.96767 45.9744 9.46828 45.3099 9.5541C44.4022 9.66852 43.916 9.02488 43.8998 8.22391C43.8836 5.76379 43.8998 3.30366 43.8998 0.64329Z" fill="url(#paint6_linear_2343_409)"/>
<path d="M21.4357 6.1354C23.64 8.08061 24.8394 10.4549 26.1198 12.7577C26.7032 13.8304 26.3953 14.0879 24.2235 14.9604C21.9544 13.1296 20.9495 10.5264 19.4908 8.22364C18.7939 7.13661 19.815 6.39285 21.452 6.12109L21.4357 6.1354Z" fill="url(#paint7_linear_2343_409)"/>
<path d="M30.9824 38.6607C31.1283 37.8168 31.7442 37.1302 32.7491 37.3019C33.3487 37.402 34.305 38.2459 34.224 38.5463C34.0133 39.1899 33.365 39.905 32.6842 40.2197C32.0197 40.5201 30.9824 39.5046 30.9986 38.675L30.9824 38.6607Z" fill="url(#paint8_linear_2343_409)"/>
<path d="M38.6651 40.5632C36.9795 38.8183 36.8174 38.1603 37.7899 37.5739C39.0054 36.8444 39.8482 37.3164 40.5938 38.6466L38.6651 40.5632Z" fill="url(#paint9_linear_2343_409)"/>
<path d="M34.4348 33.2831L32.6682 35.0281C32.0361 34.5561 31.3715 34.2843 31.1284 33.8266C30.6746 32.9827 31.1446 32.239 32.1009 31.9243C33.2678 31.5524 33.9972 32.0959 34.4186 33.2831H34.4348Z" fill="url(#paint10_linear_2343_409)"/>
<path d="M38.6644 35.1423C36.9788 33.3831 36.8329 32.7251 37.8054 32.153C39.021 31.4235 39.8638 31.8955 40.6093 33.2257L38.6644 35.1423Z" fill="url(#paint11_linear_2343_409)"/>
<defs>
<linearGradient id="paint0_linear_2343_409" x1="5.40686" y1="50.4322" x2="78.0497" y2="50.4322" gradientUnits="userSpaceOnUse">
<stop stop-color="#AE8ABE"/>
<stop offset="1" stop-color="#8390C8"/>
</linearGradient>
<linearGradient id="paint1_linear_2343_409" x1="25.4551" y1="36.0864" x2="46.0713" y2="36.0864" gradientUnits="userSpaceOnUse">
<stop stop-color="#AE8ABE"/>
<stop offset="1" stop-color="#8390C8"/>
</linearGradient>
<linearGradient id="paint2_linear_2343_409" x1="51.355" y1="43.3525" x2="66.6227" y2="43.3525" gradientUnits="userSpaceOnUse">
<stop stop-color="#AE8ABE"/>
<stop offset="1" stop-color="#8390C8"/>
</linearGradient>
<linearGradient id="paint3_linear_2343_409" x1="64.9052" y1="9.95456" x2="72.1501" y2="9.95456" gradientUnits="userSpaceOnUse">
<stop stop-color="#AE8ABE"/>
<stop offset="1" stop-color="#8390C8"/>
</linearGradient>
<linearGradient id="paint4_linear_2343_409" x1="0.917006" y1="25.4017" x2="10.6254" y2="25.4017" gradientUnits="userSpaceOnUse">
<stop stop-color="#AE8ABE"/>
<stop offset="1" stop-color="#8390C8"/>
</linearGradient>
<linearGradient id="paint5_linear_2343_409" x1="79.2326" y1="24.6294" x2="88.4872" y2="24.6294" gradientUnits="userSpaceOnUse">
<stop stop-color="#AE8ABE"/>
<stop offset="1" stop-color="#8390C8"/>
</linearGradient>
<linearGradient id="paint6_linear_2343_409" x1="43.8836" y1="5.09154" x2="47.4168" y2="5.09154" gradientUnits="userSpaceOnUse">
<stop stop-color="#AE8ABE"/>
<stop offset="1" stop-color="#8390C8"/>
</linearGradient>
<linearGradient id="paint7_linear_2343_409" x1="19.2639" y1="10.555" x2="26.3791" y2="10.555" gradientUnits="userSpaceOnUse">
<stop stop-color="#AE8ABE"/>
<stop offset="1" stop-color="#8390C8"/>
</linearGradient>
<linearGradient id="paint8_linear_2343_409" x1="30.9824" y1="38.7608" x2="34.224" y2="38.7608" gradientUnits="userSpaceOnUse">
<stop stop-color="#AE8ABE"/>
<stop offset="1" stop-color="#8390C8"/>
</linearGradient>
<linearGradient id="paint9_linear_2343_409" x1="37.1902" y1="38.8898" x2="40.5938" y2="38.8898" gradientUnits="userSpaceOnUse">
<stop stop-color="#AE8ABE"/>
<stop offset="1" stop-color="#8390C8"/>
</linearGradient>
<linearGradient id="paint10_linear_2343_409" x1="30.9663" y1="33.4118" x2="34.4348" y2="33.4118" gradientUnits="userSpaceOnUse">
<stop stop-color="#AE8ABE"/>
<stop offset="1" stop-color="#8390C8"/>
</linearGradient>
<linearGradient id="paint11_linear_2343_409" x1="37.1895" y1="33.4689" x2="40.5931" y2="33.4689" gradientUnits="userSpaceOnUse">
<stop stop-color="#AE8ABE"/>
<stop offset="1" stop-color="#8390C8"/>
</linearGradient>
</defs>
</svg>
