<svg width="88" height="78" viewBox="0 0 88 78" fill="none" xmlns="http://www.w3.org/2000/svg">
<path d="M30.9565 29.2754V33.0943C30.9565 45.2376 30.9565 57.3952 30.9403 69.5385C30.9403 70.7256 30.7134 71.9128 30.5027 73.1C29.903 76.5184 25.5917 78.6782 21.2319 77.2049C20.5998 76.9904 20.0001 76.7043 19.7732 76.6185C17.6662 77.0047 15.932 77.5196 14.1815 77.5768C11.0372 77.6769 8.444 75.8604 7.74707 73.1572C7.34188 71.6124 7.16359 69.9962 7.13118 68.4086C7.05014 63.803 7.09876 59.1831 7.09876 54.4202C6.20734 54.3058 5.44558 54.2199 4.68382 54.1055C2.09059 53.7336 0.194288 51.9457 0.129457 49.6C0.0484187 46.4963 0.0970417 43.3782 0.0970417 40.2601C0.0970417 36.0407 0.38878 31.807 0.0160033 27.6162C-0.421604 22.6674 5.76973 17.4754 13.2415 18.4766C14.6029 18.6625 15.3485 19.535 15.932 20.5791C16.9206 22.367 17.9417 24.1263 19.06 26.1144C20.146 24.1978 21.1832 22.5243 22.0585 20.7937C22.9013 19.1345 24.1817 18.3478 26.2725 18.3621C34.3439 18.4051 42.4315 18.3765 50.503 18.3908C52.7882 18.3908 54.8142 19.063 56.1756 20.665C58.7851 23.7401 57.2616 27.6592 53.0476 28.7605C51.7672 29.0895 50.3733 29.2182 49.0281 29.2325C44.2468 29.2897 39.4655 29.2611 34.7005 29.2611H30.9565V29.2754ZM6.92048 50.1293C7.00152 49.2282 7.08256 48.6274 7.08256 48.041C7.08256 43.6213 7.03393 39.2017 7.13118 34.7821C7.14739 33.6092 7.37429 32.3505 7.92536 31.3207C8.6547 29.9476 10.7617 30.0478 11.3776 31.4781C11.799 32.465 11.88 33.6235 11.8962 34.6963C11.9287 46.2388 11.9124 57.7814 11.9124 69.3383C11.9124 70.1392 11.8638 70.9545 11.9449 71.7412C12.0907 73.2716 12.6742 73.7865 14.1977 73.8294C15.8671 73.8723 16.4992 73.3145 16.6451 71.6124C16.6937 71.0117 16.6451 70.411 16.6451 69.8102C16.6451 65.3906 16.6127 60.971 16.6613 56.5513C16.6613 55.5644 16.7585 54.506 17.1799 53.6335C17.4717 53.0185 18.4117 52.2747 19.06 52.2747C19.757 52.2747 20.7132 52.9756 21.0536 53.5906C21.4588 54.3486 21.4426 55.3355 21.4426 56.2223C21.475 61.1426 21.4426 66.0629 21.475 70.9831C21.475 73.243 22.0585 73.858 23.8737 73.8437C25.6404 73.8294 26.1266 73.2287 26.2076 70.883C26.2238 70.1821 26.2076 69.4813 26.2076 68.7804C26.2076 55.9363 26.2076 43.0779 26.2076 30.2337C26.2076 29.3326 26.159 28.4172 26.3049 27.5304C26.5318 26.2002 27.4718 25.3706 29.0116 25.199C29.903 25.0989 30.8268 25.1275 31.7344 25.1275C37.5368 25.1275 43.3392 25.1275 49.1415 25.1275C50.2436 25.1275 51.3458 25.0274 52.302 24.9701C53.2258 23.5398 52.61 22.8104 51.362 22.4242C50.7461 22.224 50.0167 22.2383 49.336 22.2383C42.0588 22.2383 34.7815 22.2383 27.488 22.2383C27.0504 22.2383 26.6128 22.3813 26.078 22.4671C24.5058 25.2562 22.9823 28.0453 21.3453 30.7915C20.0325 32.9799 18.2659 33.0085 16.8234 30.863C15.8995 29.49 15.1864 28.0024 14.3598 26.5721C13.5008 25.0846 12.6094 23.6114 11.8152 22.2669C4.87831 22.982 4.16517 25.5423 4.27863 29.919C4.42449 35.6403 4.31104 41.3615 4.32725 47.0827C4.32725 48.0553 4.4407 49.0422 4.50553 50.1435H6.90427L6.92048 50.1293Z" fill="url(#paint0_linear_2343_94)"/>
<path d="M39.8059 72.5991C43.323 66.3486 46.6456 60.4414 50.2113 54.1195H34.4412L34.2791 51.0872C34.5547 50.8298 34.6357 50.7583 34.7167 50.6868C34.7978 50.6153 34.8788 50.5294 34.9761 50.5008C35.1868 50.4436 35.4137 50.4007 35.6406 50.3864C35.8675 50.3578 36.0944 50.3578 36.3213 50.3578C51.7834 50.3292 67.2456 50.3006 82.7239 50.2577C82.8212 50.2577 82.9184 50.1862 83.0319 50.1432C83.664 47.9692 83.9071 13.4845 83.3074 7.2198C79.1906 7.00525 75.0253 7.14827 70.8599 7.11966C66.5324 7.09106 62.2212 7.11966 57.8937 7.11966H32.4639V3.47236C38.639 3.15769 44.7493 3.48668 51.0055 3.27214L51.6376 0.46875H55.3167L55.9002 3.21491C56.9861 3.25782 57.9748 3.34364 58.9796 3.34364C67.0511 3.34364 75.1225 3.34364 83.2101 3.34364C84.0043 3.34364 84.7985 3.32936 85.5927 3.37227C86.9217 3.44378 87.6835 4.0874 87.7645 5.27456C87.8131 5.87529 87.7969 6.47603 87.7969 7.07676C87.7969 21.5371 87.7969 35.9832 87.7969 50.4436C87.7969 50.744 87.7969 51.0443 87.7969 51.3447C87.6997 53.7619 87.3593 54.1195 84.5878 54.1338C76.0625 54.1624 67.5211 54.1338 58.9959 54.1338H56.4999C59.9683 60.3127 63.2909 66.2342 66.6297 72.1986C65.3006 73.1426 64.0851 72.6706 62.7236 72.7278C59.6442 67.3355 56.5809 62.0005 53.3394 56.3222C50.114 61.9862 47.1156 67.2354 44.0524 72.6134H39.7897L39.8059 72.5991Z" fill="url(#paint1_linear_2343_94)"/>
<path d="M19.3354 0.240082C23.825 -0.432162 29.1087 4.04468 28.9142 8.85051C28.7035 14.0282 24.295 17.2321 19.0275 17.3036C13.8248 17.3751 9.1246 13.2129 9.17323 8.72179C9.23806 3.91596 13.679 0.211476 19.3354 0.240082ZM13.9059 8.75038C13.9221 11.4966 16.1912 13.5562 19.1572 13.499C21.9287 13.4561 24.7002 10.9817 24.6029 8.65029C24.4733 5.8898 22.2528 4.03038 19.0923 4.03038C15.948 4.03038 13.8897 5.90407 13.9059 8.75038Z" fill="url(#paint2_linear_2343_94)"/>
<defs>
<linearGradient id="paint0_linear_2343_94" x1="-0.000204387" y1="48.0124" x2="57.4885" y2="48.0124" gradientUnits="userSpaceOnUse">
<stop stop-color="#AE8ABE"/>
<stop offset="1" stop-color="#8390C8"/>
</linearGradient>
<linearGradient id="paint1_linear_2343_94" x1="32.4639" y1="36.6269" x2="87.7969" y2="36.6269" gradientUnits="userSpaceOnUse">
<stop stop-color="#AE8ABE"/>
<stop offset="1" stop-color="#8390C8"/>
</linearGradient>
<linearGradient id="paint2_linear_2343_94" x1="9.17323" y1="8.7504" x2="28.9142" y2="8.7504" gradientUnits="userSpaceOnUse">
<stop stop-color="#AE8ABE"/>
<stop offset="1" stop-color="#8390C8"/>
</linearGradient>
</defs>
</svg>
