<svg width="110" height="78" viewBox="0 0 110 78" fill="none" xmlns="http://www.w3.org/2000/svg">
<path d="M26.7536 15.9453V41.4905C24.7925 42.2772 22.9773 43.0067 20.9837 43.8076C20.2057 41.276 20.6596 38.8731 20.5785 36.5274C20.4975 34.1388 20.5623 31.7358 20.1247 29.3186C20.0761 29.9766 19.9788 30.6345 19.9788 31.2925C19.9788 35.8122 19.9788 40.3177 19.9788 44.8375C19.9788 45.6384 20.0275 46.468 19.8492 47.2261C19.5088 48.6278 18.1474 49.4144 16.559 49.2714C15.0355 49.1284 14.4034 48.4704 14.2899 46.7827C14.2413 46.0818 14.2899 45.381 14.2899 44.6801C14.2899 36.0554 14.2899 27.4306 14.2899 18.8059V15.931H13.7227C13.7227 18.8202 13.7713 21.7094 13.6902 24.5986C13.674 25.5855 13.4471 26.5867 13.1392 27.5307C12.815 28.532 11.8102 29.0469 10.7405 28.7179C10.0273 28.4891 9.46005 27.7453 8.95761 27.1446C8.7307 26.8728 8.84415 26.3722 8.84415 25.9717C8.84415 21.8667 8.76312 17.7475 8.86036 13.6425C8.9414 10.6102 10.5135 9.33728 13.9658 9.32298C18.277 9.29437 22.6045 9.28007 26.9157 9.32298C29.9952 9.35159 30.919 10.0095 31.6808 12.627C31.9239 13.4852 32.1022 14.3862 32.1184 15.273C32.167 18.3768 32.167 21.4949 32.1184 24.5986C32.1184 25.3853 32.0212 26.2006 31.7618 26.9586C31.2756 28.4175 30.3842 29.004 29.12 28.7894C27.7909 28.5606 27.2885 27.7167 27.2723 26.6011C27.2723 25.8001 27.2723 24.9991 27.2723 24.1982C27.2723 21.4949 27.2723 18.7916 27.2723 16.0883L26.7699 15.9596L26.7536 15.9453Z" fill="url(#paint0_linear_2343_299)"/>
<path d="M34.4367 0.383458H75.3611C76.0418 2.68625 76.1715 23.9835 75.5069 27.3876C73.1568 27.8596 70.6608 27.5306 68.2135 27.5879C65.7175 27.6451 63.2215 27.5879 60.2555 27.5879C61.0497 28.4174 61.5521 29.0181 62.1194 29.5331C64.5992 31.75 67.1114 33.9241 69.5749 36.1411C70.2881 36.7847 70.904 37.4999 71.4712 38.2436C72.0709 39.0303 71.8764 39.9028 70.985 40.3176C70.4177 40.575 69.4615 40.5178 68.8456 40.2603C68.1649 39.9886 67.6462 39.3593 67.079 38.8587C63.9347 36.0982 60.8066 33.3234 57.6623 30.5629C56.9491 29.9335 56.1874 29.3471 55.296 28.6177C54.5342 29.1755 53.8211 29.6475 53.2052 30.191C49.9798 33.0087 46.8031 35.8836 43.5292 38.687C42.5081 39.5595 41.2601 40.2174 39.9311 41.1042C39.1855 40.2031 38.6831 39.6024 37.9861 38.7585C41.9732 35.1971 45.8469 31.7071 50.0447 27.9454C48.0511 27.3447 46.3817 27.6308 44.7772 27.5879C43.0754 27.5306 41.3736 27.5879 39.6555 27.5879H34.7122C33.9018 25.2851 33.6749 4.846 34.3718 0.369141L34.4367 0.383458ZM71.6009 3.45861C60.369 3.50152 49.4126 3.37278 38.5048 3.54442C37.8889 9.48019 38.132 22.1527 38.8452 24.1551H71.6009V3.44429V3.45861Z" fill="url(#paint1_linear_2343_299)"/>
<path d="M42.6054 59.3119C41.8113 54.0055 43.3024 52.6181 50.1096 51.9315C48.1971 48.4845 48.4078 46.1817 50.8065 44.3509C52.8973 42.749 56.2847 42.5487 58.4079 43.9075C61.1146 45.6382 61.4874 47.8265 59.6397 51.9315C60.677 52.0173 61.6495 52.046 62.5895 52.2033C66.4307 52.8326 68.3595 55.965 66.8197 59.3119H42.6054Z" fill="url(#paint2_linear_2343_299)"/>
<path d="M95.2967 59.3544H71.0014C69.2834 54.9062 71.6659 52.4603 78.2949 51.9883C77.9383 51.2446 77.5331 50.5866 77.3062 49.8858C76.3824 47.0109 77.9707 44.2075 80.9853 43.2778C84.0648 42.3195 87.4684 43.6354 88.6354 46.2242C89.2837 47.6688 89.073 49.3566 87.9384 51.7166C95.4102 53.4186 96.3826 54.3769 95.3129 59.3544H95.2967Z" fill="url(#paint3_linear_2343_299)"/>
<path d="M31.1783 52.0462C37.7749 52.318 39.4767 53.9056 38.8608 59.1405C38.1801 59.2406 37.4345 59.4552 36.689 59.4552C30.0924 59.4838 23.4959 59.4838 16.8994 59.4552C13.8199 59.4552 13.2851 58.7686 14.0954 56.1655C14.841 53.7626 16.5266 52.461 19.3467 52.1463C20.1085 52.0605 20.8703 52.0033 21.6644 51.9318C19.9464 47.7267 20.4164 45.5383 23.3176 43.8362C25.4894 42.5489 28.4879 42.7635 30.5625 44.3368C32.9774 46.1676 33.1881 48.5133 31.1621 52.0319L31.1783 52.0462Z" fill="url(#paint4_linear_2343_299)"/>
<path d="M64.5664 70.6395C61.73 66.5202 63.1239 64.4033 65.2795 62.6583C67.4189 60.9277 70.7739 61.0993 73.0916 62.7442C75.5066 64.4605 75.7011 67.264 73.6103 70.5966C80.7579 70.6109 81.86 72.7563 81.5845 77.2188C79.1533 77.7481 62.2487 77.9197 57.1757 77.462C55.5387 72.9709 57.6457 70.9684 64.5502 70.6395H64.5664Z" fill="url(#paint5_linear_2343_299)"/>
<path d="M102.104 70.6399C108.668 70.5541 110.451 73.2144 109.673 77.1621C107.242 77.7914 88.3437 77.8772 85.086 77.2765C84.0973 72.7281 85.8963 71.0975 92.4442 70.6112C90.7911 66.4634 91.2287 63.9317 94.0812 62.3441C96.4151 61.0425 98.4573 60.9138 100.986 62.5872C103.66 64.3751 103.968 66.7351 102.104 70.6542V70.6399Z" fill="url(#paint6_linear_2343_299)"/>
<path d="M17.224 70.4966C24.1447 71.2976 25.7168 72.6706 24.9712 77.4908C16.835 77.7911 8.63389 77.548 0.530042 77.6481C-0.701742 72.828 1.2756 71.0115 7.67764 70.6253C7.35349 69.4239 6.93208 68.2367 6.73759 67.021C6.36481 64.6038 7.83971 63.0018 10.0926 61.9434C12.232 60.9421 15.1332 61.4571 16.916 63.1019C18.7313 64.7754 19.0879 66.7778 18.164 68.9233C17.9371 69.4525 17.5643 69.9245 17.224 70.4823V70.4966Z" fill="url(#paint7_linear_2343_299)"/>
<path d="M36.4952 70.6686C34.1937 67.1787 34.2747 64.8186 36.6573 62.9306C38.8453 61.2 41.9248 60.9711 44.129 62.3585C47.1436 64.2465 47.5164 66.4063 45.5067 70.6543C47.8244 70.8974 50.3852 70.311 52.087 72.3564C53.3026 73.8296 53.7564 75.3743 53.1891 77.1193C50.8228 77.7343 32.2164 77.8774 28.5372 77.3052C27.3379 72.8284 29.5745 70.8974 36.479 70.6543L36.4952 70.6686Z" fill="url(#paint8_linear_2343_299)"/>
<path d="M25.3437 4.43088C25.2789 6.60495 22.9288 8.7504 20.5625 8.80762C17.8882 8.86483 15.5057 6.57633 15.6191 4.05899C15.7326 1.58456 17.6289 0.139947 20.6111 0.254372C23.4637 0.354493 25.4248 2.08518 25.3599 4.43088H25.3437Z" fill="url(#paint9_linear_2343_299)"/>
<path d="M55.3448 12.4407C54.3561 11.4395 53.3674 10.4382 52.5895 9.65157C52.9947 7.29156 54.2427 6.19024 56.4145 5.81836C58.4891 6.16163 59.7857 7.23436 60.1585 9.20818L59.1374 11.4538C60.6285 11.9687 62.541 12.2548 62.7517 13.9711C62.9462 15.616 61.4389 16.3311 59.8667 16.9461C59.2184 16.7459 58.4891 16.5314 57.6301 16.2882C57.0628 17.4897 56.5928 18.6768 55.9283 19.7638C55.6365 20.2358 54.9882 20.5791 54.4372 20.8652C53.8051 21.1941 53.0433 21.3515 52.4112 21.6948C51.536 22.1668 50.7742 22.1811 49.9152 21.6375C49.4128 21.3086 48.7969 21.0654 48.181 20.9367C46.9654 20.6792 46.1388 20.2215 46.155 18.9486C46.155 18.5481 45.8147 18.1047 45.5067 17.7471C44.8584 17.0176 44.907 16.3454 45.4095 15.5587C45.9281 14.7435 46.3009 13.8424 46.8357 12.8125C47.7596 12.412 48.8941 11.797 50.1097 11.4251C50.758 11.2249 51.9088 11.1963 52.2491 11.5253C53.1567 12.455 54.2913 12.1975 55.361 12.3835L56.6738 15.5873C56.9656 14.2714 57.1762 13.3275 57.3869 12.3835C57.5004 12.2976 57.6301 12.2118 57.5652 12.2547C57.6139 12.1975 57.5166 12.2976 57.4194 12.412H55.3448V12.4407ZM53.2216 16.5027C53.1567 15.3728 52.3626 14.8007 50.9363 14.8293C49.7045 14.8579 48.6834 15.7447 48.7969 16.6887C48.8941 17.5469 50.0935 18.3908 51.228 18.3908C52.5409 18.3908 53.3026 17.6613 53.2378 16.4884L53.2216 16.5027ZM56.4469 10.2523C56.8197 9.68019 57.2087 9.33693 57.2411 8.96505C57.2573 8.7505 56.7062 8.50734 56.4145 8.27849C56.1228 8.59315 55.6852 8.8792 55.5717 9.25108C55.5069 9.43702 56.0093 9.76601 56.4469 10.2523ZM60.7582 14.2428C60.3854 13.9997 60.1585 13.7423 59.9154 13.7423C59.6398 13.7423 59.3643 13.9568 59.0888 14.0712C59.3481 14.3001 59.5912 14.6005 59.8991 14.7292C60.045 14.7864 60.353 14.4717 60.7419 14.2428H60.7582Z" fill="url(#paint10_linear_2343_299)"/>
<defs>
<linearGradient id="paint0_linear_2343_299" x1="8.79553" y1="29.2757" x2="32.1346" y2="29.2757" gradientUnits="userSpaceOnUse">
<stop stop-color="#AE8ABE"/>
<stop offset="1" stop-color="#8390C8"/>
</linearGradient>
<linearGradient id="paint1_linear_2343_299" x1="34.0153" y1="20.7653" x2="75.9283" y2="20.7653" gradientUnits="userSpaceOnUse">
<stop stop-color="#AE8ABE"/>
<stop offset="1" stop-color="#8390C8"/>
</linearGradient>
<linearGradient id="paint2_linear_2343_299" x1="42.4272" y1="51.1592" x2="67.3546" y2="51.1592" gradientUnits="userSpaceOnUse">
<stop stop-color="#AE8ABE"/>
<stop offset="1" stop-color="#8390C8"/>
</linearGradient>
<linearGradient id="paint3_linear_2343_299" x1="70.4666" y1="51.1731" x2="95.6533" y2="51.1731" gradientUnits="userSpaceOnUse">
<stop stop-color="#AE8ABE"/>
<stop offset="1" stop-color="#8390C8"/>
</linearGradient>
<linearGradient id="paint4_linear_2343_299" x1="13.7713" y1="51.2452" x2="38.9742" y2="51.2452" gradientUnits="userSpaceOnUse">
<stop stop-color="#AE8ABE"/>
<stop offset="1" stop-color="#8390C8"/>
</linearGradient>
<linearGradient id="paint5_linear_2343_299" x1="56.657" y1="69.5667" x2="81.6331" y2="69.5667" gradientUnits="userSpaceOnUse">
<stop stop-color="#AE8ABE"/>
<stop offset="1" stop-color="#8390C8"/>
</linearGradient>
<linearGradient id="paint6_linear_2343_299" x1="84.8266" y1="69.4956" x2="109.851" y2="69.4956" gradientUnits="userSpaceOnUse">
<stop stop-color="#AE8ABE"/>
<stop offset="1" stop-color="#8390C8"/>
</linearGradient>
<linearGradient id="paint7_linear_2343_299" x1="0.189681" y1="69.5383" x2="25.1495" y2="69.5383" gradientUnits="userSpaceOnUse">
<stop stop-color="#AE8ABE"/>
<stop offset="1" stop-color="#8390C8"/>
</linearGradient>
<linearGradient id="paint8_linear_2343_299" x1="28.2455" y1="69.5673" x2="53.4322" y2="69.5673" gradientUnits="userSpaceOnUse">
<stop stop-color="#AE8ABE"/>
<stop offset="1" stop-color="#8390C8"/>
</linearGradient>
<linearGradient id="paint9_linear_2343_299" x1="15.6191" y1="4.53099" x2="25.3599" y2="4.53099" gradientUnits="userSpaceOnUse">
<stop stop-color="#AE8ABE"/>
<stop offset="1" stop-color="#8390C8"/>
</linearGradient>
<linearGradient id="paint10_linear_2343_299" x1="45.0367" y1="13.9425" x2="62.7841" y2="13.9425" gradientUnits="userSpaceOnUse">
<stop stop-color="#AE8ABE"/>
<stop offset="1" stop-color="#8390C8"/>
</linearGradient>
</defs>
</svg>
