<svg width="109" height="80" viewBox="0 0 109 80" fill="none" xmlns="http://www.w3.org/2000/svg">
<path d="M80.6173 68.949C82.8378 65.4734 86.1603 64.0431 90.585 64.3578C92.7245 64.5151 94.9125 64.4722 97.0681 64.3578C101.509 64.1289 104.459 66.0026 106.226 69.4067C107.798 72.439 108.64 75.6286 108.235 79.0041C106.793 79.8766 105.334 79.4761 103.584 79.4189L102.238 74.1411C102.06 76.0434 101.93 77.5595 101.801 78.9755C98.9969 79.662 88.705 79.7478 85.0258 79.1328V73.2972L84.5234 73.2686L83.2268 79.2616H77.7324C77.3434 77.3021 76.9544 75.3711 76.5654 73.4259H76.2088V78.9898C73.4535 79.6621 62.9834 79.7336 59.4015 79.1185C59.2394 77.6596 59.0449 76.1149 58.818 74.1267C58.3156 76.1006 57.9104 77.6596 57.4727 79.3617H52.3673C51.9621 77.7883 51.5569 76.1721 51.0383 74.1554L50.6007 78.9755C47.8454 79.6763 37.6183 79.7622 33.8257 79.1614V73.3258L33.3071 73.2972C32.8857 75.2138 32.4805 77.1161 31.9943 79.3331C30.4383 79.4046 28.9148 79.4761 27.1319 79.5476C27.0347 78.5464 26.8078 77.7597 26.9375 77.0303C27.2778 75.1566 27.6344 73.2686 28.2827 71.4664C29.7414 67.4043 32.7074 63.943 38.9636 64.3721C41.3299 64.5294 43.7448 64.4436 46.1274 64.3864C49.4337 64.3148 52.1242 65.2589 53.9395 67.8334C54.1664 68.1481 54.5554 68.3626 55.0092 68.7202C55.5927 68.0765 56.0627 67.533 56.5489 67.0181C58.0886 65.3876 60.066 64.4722 62.4485 64.415C65.8521 64.3435 69.272 64.3578 72.6756 64.415C75.0581 64.4436 77.1003 65.2303 78.6562 66.8608C79.3045 67.533 79.9204 68.2196 80.6173 68.9634V68.949Z" fill="url(#paint0_linear_2343_109)"/>
<path d="M45.7226 19.1751C47.3109 20.0475 46.5654 20.7198 46.0791 21.3491C44.037 23.9952 41.9786 26.6413 39.904 29.273C39.2395 30.1026 38.6722 30.8464 39.126 32.0049C39.3367 32.5484 38.9964 33.4066 38.6074 33.9501C36.7759 36.5962 34.8958 39.228 32.9185 41.8025C31.0708 44.2197 29.5311 44.2769 27.2134 42.0743C26.1437 41.0588 25.1712 39.9431 23.8098 38.5128C23.7287 39.6427 23.6477 40.3436 23.6315 41.0587C23.6315 52.2008 23.6315 63.3572 23.6315 74.4993C23.6315 75.2001 23.6801 75.9153 23.6153 76.6018C23.437 78.5041 22.2863 79.5483 20.2117 79.7485C18.1047 79.9488 16.5325 79.2193 15.9814 77.4743C15.5762 76.2443 15.398 74.9141 15.3818 73.6268C15.3169 67.9056 15.3494 62.1844 15.3494 56.4488V53.4738H14.7659V55.8481C14.7659 62.0699 14.7659 68.306 14.7659 74.5279C14.7659 75.3288 14.8307 76.1441 14.6686 76.9308C14.312 78.6472 13.064 79.6198 11.2164 79.7485C9.12558 79.9059 7.61827 79.1335 7.06721 77.3456C6.67822 76.1155 6.51613 74.7853 6.49993 73.4981C6.4513 63.3572 6.48375 53.2163 6.48375 43.0611V40.1004C4.8954 44.1911 5.17091 48.3962 5.25195 52.5584C5.28437 54.2748 4.7171 55.5048 2.67494 55.9196C0.843466 55.5191 0.114124 54.4607 0.146539 52.8302C0.21137 49.1114 0.0492959 45.3926 0.276204 41.6881C0.438281 38.9848 1.29729 36.353 2.83702 33.9644C4.53883 31.3327 6.88891 29.7307 10.5518 29.888C13.5016 30.0168 16.4839 30.0597 19.4175 29.8737C22.0269 29.7164 23.7125 30.7033 25.2036 32.4054C26.5813 33.9787 28.1048 35.4662 29.7904 37.2112C31.1032 35.4376 32.2864 33.8929 33.4047 32.3196C34.1989 31.1896 34.9769 30.2027 36.6462 29.888C37.3756 29.745 38.0563 28.9726 38.5426 28.3576C40.5685 25.8117 42.4972 23.2085 44.4584 20.634C44.8311 20.1476 45.2525 19.6899 45.755 19.1035L45.7226 19.1751Z" fill="url(#paint1_linear_2343_109)"/>
<path d="M19.4339 2.03971C19.4339 5.24359 19.4339 8.14714 19.4339 11.0507C19.4339 11.7515 19.5312 12.5095 19.2557 13.1246C19.1098 13.4822 18.3318 13.6538 17.6024 14.0257C17.4404 13.2247 17.2621 12.7384 17.2621 12.2664C17.2459 8.47608 17.2621 4.6715 17.2621 0.952706C19.9526 0.294765 93.9245 0.18032 97.4902 0.752442C98.1223 3.06954 98.1709 37.0822 97.4902 39.9714C96.7446 40.0716 95.8856 40.2861 95.0266 40.3004C77.5061 40.3147 59.9855 40.3147 42.465 40.3004C41.8005 40.3004 41.055 40.3004 40.4715 40.0715C40.1311 39.9285 40.0339 39.3278 39.6125 38.5268C43.7293 38.3266 47.457 38.4553 51.1686 38.4267C54.8153 38.4124 58.4458 38.4267 62.0926 38.4267H95.6263V2.02544H19.4663L19.4339 2.03971Z" fill="url(#paint2_linear_2343_109)"/>
<path d="M67.846 63.3565C64.102 63.3708 60.5687 60.6104 60.4715 57.5638C60.358 54.2598 63.7941 51.1274 67.5542 51.0988C71.4603 51.0702 74.8639 53.988 74.8153 57.3206C74.7667 60.782 71.8168 63.3422 67.846 63.3708V63.3565Z" fill="url(#paint3_linear_2343_109)"/>
<path d="M93.3245 63.3567C89.1915 63.3853 86.1445 60.7822 86.2579 57.1778C86.3714 53.8595 89.1591 51.2277 93.2435 51.099C97.1495 50.9846 100.342 53.8452 100.342 57.3637C100.342 60.6248 97.1819 63.3281 93.3083 63.3424L93.3245 63.3567Z" fill="url(#paint4_linear_2343_109)"/>
<path d="M42.0107 63.3572C37.894 63.3572 34.8632 60.6825 35.0577 57.0924C35.236 53.6883 38.1695 51.171 42.1566 51.0995C46.0627 51.0423 49.2394 53.9458 49.1746 57.45C49.1259 60.7111 45.9168 63.3572 42.027 63.3429L42.0107 63.3572Z" fill="url(#paint5_linear_2343_109)"/>
<path d="M15.1221 16.7144C19.1578 16.6715 22.1724 19.1173 22.2534 22.5071C22.3345 25.9828 19.174 28.9435 15.3652 28.9864C11.3943 29.0293 8.42829 26.5406 8.34725 23.0793C8.25 19.3176 10.9729 16.7716 15.1221 16.7287V16.7144Z" fill="url(#paint6_linear_2343_109)"/>
<defs>
<linearGradient id="paint0_linear_2343_109" x1="26.8888" y1="71.9527" x2="108.332" y2="71.9527" gradientUnits="userSpaceOnUse">
<stop stop-color="#AE8ABE"/>
<stop offset="1" stop-color="#8390C8"/>
</linearGradient>
<linearGradient id="paint1_linear_2343_109" x1="0.130331" y1="49.4975" x2="46.695" y2="49.4975" gradientUnits="userSpaceOnUse">
<stop stop-color="#AE8ABE"/>
<stop offset="1" stop-color="#8390C8"/>
</linearGradient>
<linearGradient id="paint2_linear_2343_109" x1="17.2621" y1="20.3619" x2="97.9764" y2="20.3619" gradientUnits="userSpaceOnUse">
<stop stop-color="#AE8ABE"/>
<stop offset="1" stop-color="#8390C8"/>
</linearGradient>
<linearGradient id="paint3_linear_2343_109" x1="60.4715" y1="57.2205" x2="74.8153" y2="57.2205" gradientUnits="userSpaceOnUse">
<stop stop-color="#AE8ABE"/>
<stop offset="1" stop-color="#8390C8"/>
</linearGradient>
<linearGradient id="paint4_linear_2343_109" x1="86.2579" y1="57.235" x2="100.359" y2="57.235" gradientUnits="userSpaceOnUse">
<stop stop-color="#AE8ABE"/>
<stop offset="1" stop-color="#8390C8"/>
</linearGradient>
<linearGradient id="paint5_linear_2343_109" x1="35.0415" y1="57.2355" x2="49.1584" y2="57.2355" gradientUnits="userSpaceOnUse">
<stop stop-color="#AE8ABE"/>
<stop offset="1" stop-color="#8390C8"/>
</linearGradient>
<linearGradient id="paint6_linear_2343_109" x1="8.33104" y1="22.8361" x2="22.2534" y2="22.8361" gradientUnits="userSpaceOnUse">
<stop stop-color="#AE8ABE"/>
<stop offset="1" stop-color="#8390C8"/>
</linearGradient>
</defs>
</svg>
