<svg width="94" height="78" viewBox="0 0 94 78" fill="none" xmlns="http://www.w3.org/2000/svg">
<path d="M16.8849 56.1939C15.8152 60.8138 14.8751 64.8615 13.9189 68.9951H0.0126953C0.0613184 68.0797 -0.00352721 67.2215 0.174757 66.4062C1.42275 60.7279 2.768 55.0639 3.98357 49.3856C4.97224 44.8229 8.52172 43.0494 13.4489 44.8373C14.5672 45.252 15.6369 45.8957 16.5445 46.6251C17.6304 47.4976 18.5705 48.5132 19.4619 49.543C21.4393 51.7886 23.6435 53.3619 27.2254 52.8613C28.7165 52.6467 30.3859 53.0043 31.8932 53.3476C33.6599 53.7481 34.8268 55.4215 34.5675 56.7374C34.2757 58.2392 32.8981 59.4407 31.0342 59.4836C27.8575 59.5694 24.6646 59.5694 21.4879 59.4836C20.6775 59.455 19.7537 59.0259 19.1054 58.5539C18.3436 58.0104 17.8087 57.2094 16.8687 56.1939H16.8849Z" fill="url(#paint0_linear_2343_134)"/>
<path d="M76.756 56.4656C75.897 57.2808 75.346 57.7815 74.8273 58.3107C73.9521 59.2118 72.8662 59.5836 71.521 59.5693C68.6846 59.5264 65.8483 59.5979 63.0119 59.5407C60.5646 59.4835 59.3166 58.4537 59.1221 56.5657C58.96 54.9352 59.9811 53.6908 62.2664 53.2903C64.2437 52.947 66.3021 52.8612 68.3281 52.8612C69.9326 52.8612 71.1644 52.475 72.1855 51.388C73.6442 49.8575 75.0867 48.2985 76.7398 46.9397C77.8744 46.01 79.2358 45.1519 80.6783 44.7085C85.3299 43.2925 88.5228 44.8944 89.5115 49.0566C90.9378 55.1068 92.2506 61.1713 93.5958 67.2358C93.6931 67.7078 93.5958 68.2084 93.5958 68.6518C91.0998 69.2811 83.7092 69.3955 79.6248 68.8234C78.701 64.8901 77.7609 60.8423 76.7398 56.4513L76.756 56.4656Z" fill="url(#paint1_linear_2343_134)"/>
<path d="M46.6264 77.6337C43.2228 77.6337 39.8192 77.5908 36.4155 77.648C34.1303 77.6909 32.8012 76.6182 32.0557 74.9161C29.7542 69.6669 32.3312 61.6858 42.0234 61.8002C45.3136 61.8431 48.6037 61.7859 51.8939 61.8002C61.5699 61.8717 63.8227 70.0102 61.4078 75.1879C60.6784 76.7326 59.317 77.7052 57.1614 77.6623C53.6443 77.5765 50.1273 77.6337 46.6102 77.6337H46.6264Z" fill="url(#paint2_linear_2343_134)"/>
<path d="M24.4053 29.2037H65.3135L65.4594 31.5637C64.7301 31.6638 64.1952 31.8068 63.6603 31.8211C55.4755 31.8354 47.2906 31.8211 39.0895 31.8211C33.9679 31.8211 28.8462 31.8497 23.7408 31.8068C21.5852 31.7925 21.0828 31.3777 21.0828 29.504C21.0504 20.1641 21.0827 10.8386 21.1152 1.49866C21.1152 1.2269 21.3097 0.940796 21.3907 0.697644C23.9839 0.0826125 68.782 0.0111287 72.2828 0.640463V5.68944H69.8193L69.3493 2.95755H24.5836C23.8867 4.95998 23.7084 25.113 24.4053 29.2037Z" fill="url(#paint3_linear_2343_134)"/>
<path d="M86.254 27.7158C82.0562 26.214 78.5229 26.0138 75.1841 27.8875C72.0074 29.6753 70.338 32.2928 70.2408 35.9973C68.9117 35.8686 67.761 35.7541 66.3347 35.6111C66.2537 32.021 66.1726 28.6598 66.0916 25.1699C65.4595 25.3558 65.1191 25.413 64.8598 25.556C61.3428 27.487 61.0996 27.487 57.9716 25.4131C56.6101 24.512 55.2324 23.6252 53.8872 22.7241C53.3524 22.3665 52.542 22.0232 52.3961 21.5512C51.6019 18.9194 48.8952 18.0327 46.8207 16.5595C45.3133 15.501 43.7412 14.4998 42.2663 13.3984C41.4235 12.7691 41.3425 12.0397 42.866 11.2959C44.9892 12.6261 47.2907 14.0135 49.5273 15.4724C51.2454 16.588 52.7851 17.8324 55.1676 17.9469C56.2535 18.0041 57.2908 19.0053 58.3281 19.6203C59.3492 20.221 60.3379 20.879 61.4724 21.5941C62.8015 20.7502 63.936 19.9492 65.1678 19.2484C66.1078 18.7049 67.0965 17.9325 68.1176 17.861C71.1646 17.6751 74.2603 17.7466 77.3235 17.8038C77.9394 17.8038 78.7012 18.1471 79.1064 18.5476C81.343 20.8074 83.5149 23.1103 85.6381 25.456C85.9946 25.8421 85.946 26.5144 86.2378 27.7015L86.254 27.7158Z" fill="url(#paint4_linear_2343_134)"/>
<path d="M55.4271 52.5894C55.3947 56.6657 51.1969 60.2272 46.5615 60.1127C42.0557 59.9983 38.1335 56.4225 38.1821 52.4606C38.2307 48.3985 42.3475 44.9086 47.0639 44.9229C51.44 44.9229 55.4595 48.6274 55.4271 52.5894Z" fill="url(#paint5_linear_2343_134)"/>
<path d="M4.68004 35.8118C4.599 31.8213 8.22954 28.6603 12.8487 28.5602C17.2086 28.4601 20.8877 31.3064 21.1957 35.6831C21.455 39.502 17.1438 43.3352 12.6542 43.0349C8.45643 42.7488 4.82591 40.16 4.68004 35.8118Z" fill="url(#paint6_linear_2343_134)"/>
<path d="M69.22 52.4886C68.2475 48.2978 67.3723 44.5075 66.4971 40.7458C64.0335 40.1593 31.2454 40.0163 27.161 40.5741C26.2858 44.3787 25.3944 48.2549 24.4867 52.2883C22.6877 51.8163 21.6342 51.0297 21.9097 49.6566C22.6391 46.1237 23.5629 42.6195 24.4381 39.1152C24.5354 38.7433 24.8271 38.4144 24.9892 38.1283C27.4852 37.5276 64.4549 37.3703 68.5068 37.9567C68.831 38.5717 69.3658 39.2439 69.5441 40.002C70.3221 43.1201 71.0028 46.2668 71.6835 49.3991C71.9915 50.8437 71.019 51.5875 69.22 52.4743V52.4886Z" fill="url(#paint7_linear_2343_134)"/>
<path d="M78.6852 11.8545C79.0742 14.5148 76.3027 17.0178 73.0936 17.2038C69.9169 17.3897 66.9185 14.7723 66.8536 11.9546C66.7888 9.07968 69.6252 6.61955 72.9477 6.67676C76.2379 6.73397 78.669 8.93662 78.6852 11.8401V11.8545Z" fill="url(#paint8_linear_2343_134)"/>
<path d="M30.0937 70.3536C26.3173 70.3536 23.0434 70.4109 19.7694 70.325C18.3107 70.2821 17.5652 69.5384 17.7921 68.3798C18.3431 65.6622 19.0725 62.959 19.7694 60.127C20.8229 60.1842 21.5523 60.2271 22.6382 60.2843C22.1519 62.7873 21.7143 65.0901 21.2119 67.6933H29.7209L30.0775 70.3536H30.0937Z" fill="url(#paint9_linear_2343_134)"/>
<path d="M71.1487 60.3417L73.7095 60.0557C74.1957 61.8006 74.6657 63.4026 75.0871 65.0046C75.3465 65.9629 75.5572 66.9354 75.7355 67.9223C76.0272 69.4528 75.4275 70.2824 73.6933 70.3396C70.4517 70.4397 67.194 70.3682 63.7418 70.3682L63.5635 67.9081H71.8942C72.7046 65.1905 70.7759 62.9306 71.1325 60.3561L71.1487 60.3417Z" fill="url(#paint10_linear_2343_134)"/>
<defs>
<linearGradient id="paint0_linear_2343_134" x1="0.028903" y1="56.5801" x2="34.6323" y2="56.5801" gradientUnits="userSpaceOnUse">
<stop stop-color="#AE8ABE"/>
<stop offset="1" stop-color="#8390C8"/>
</linearGradient>
<linearGradient id="paint1_linear_2343_134" x1="59.1059" y1="56.6944" x2="93.6607" y2="56.6944" gradientUnits="userSpaceOnUse">
<stop stop-color="#AE8ABE"/>
<stop offset="1" stop-color="#8390C8"/>
</linearGradient>
<linearGradient id="paint2_linear_2343_134" x1="31.2777" y1="69.7241" x2="62.2992" y2="69.7241" gradientUnits="userSpaceOnUse">
<stop stop-color="#AE8ABE"/>
<stop offset="1" stop-color="#8390C8"/>
</linearGradient>
<linearGradient id="paint3_linear_2343_134" x1="21.0666" y1="16.0305" x2="72.2828" y2="16.0305" gradientUnits="userSpaceOnUse">
<stop stop-color="#AE8ABE"/>
<stop offset="1" stop-color="#8390C8"/>
</linearGradient>
<linearGradient id="paint4_linear_2343_134" x1="41.6666" y1="23.6395" x2="86.254" y2="23.6395" gradientUnits="userSpaceOnUse">
<stop stop-color="#AE8ABE"/>
<stop offset="1" stop-color="#8390C8"/>
</linearGradient>
<linearGradient id="paint5_linear_2343_134" x1="38.1821" y1="52.5178" x2="55.4271" y2="52.5178" gradientUnits="userSpaceOnUse">
<stop stop-color="#AE8ABE"/>
<stop offset="1" stop-color="#8390C8"/>
</linearGradient>
<linearGradient id="paint6_linear_2343_134" x1="4.68004" y1="35.8118" x2="21.2119" y2="35.8118" gradientUnits="userSpaceOnUse">
<stop stop-color="#AE8ABE"/>
<stop offset="1" stop-color="#8390C8"/>
</linearGradient>
<linearGradient id="paint7_linear_2343_134" x1="21.8611" y1="45.0367" x2="71.7484" y2="45.0367" gradientUnits="userSpaceOnUse">
<stop stop-color="#AE8ABE"/>
<stop offset="1" stop-color="#8390C8"/>
</linearGradient>
<linearGradient id="paint8_linear_2343_134" x1="66.8536" y1="11.9546" x2="78.7177" y2="11.9546" gradientUnits="userSpaceOnUse">
<stop stop-color="#AE8ABE"/>
<stop offset="1" stop-color="#8390C8"/>
</linearGradient>
<linearGradient id="paint9_linear_2343_134" x1="17.7435" y1="65.2474" x2="30.0937" y2="65.2474" gradientUnits="userSpaceOnUse">
<stop stop-color="#AE8ABE"/>
<stop offset="1" stop-color="#8390C8"/>
</linearGradient>
<linearGradient id="paint10_linear_2343_134" x1="63.5797" y1="65.2048" x2="75.8327" y2="65.2048" gradientUnits="userSpaceOnUse">
<stop stop-color="#AE8ABE"/>
<stop offset="1" stop-color="#8390C8"/>
</linearGradient>
</defs>
</svg>
