<svg width="89" height="78" viewBox="0 0 89 78" fill="none" xmlns="http://www.w3.org/2000/svg">
<path d="M67.0031 42.959C63.5509 41.729 65.2365 39.1401 64.3775 37.2092C62.7243 36.6228 60.9413 36.9947 58.8181 36.9231C59.0937 37.8099 59.4503 38.5251 59.5152 39.2545C59.6448 40.8279 59.6285 42.4012 59.6447 43.9745C59.6447 44.7469 59.353 45.5765 59.5475 46.3059C60.4551 49.6386 59.0613 52.1416 56.1601 54.1583C55.7225 54.4587 54.896 54.6875 54.8473 55.0165C54.5718 56.8187 52.9672 57.3193 51.5409 58.1346C50.8602 58.5207 50.6333 59.522 50.0174 60.5375C52.9348 61.2956 55.4146 61.9678 57.8944 62.5971C59.7421 63.0548 61.6059 63.5125 63.486 63.8987C64.9771 64.1991 65.4958 65 65.4796 66.2873C65.4472 69.4054 65.512 72.5091 65.4471 75.6272C65.4147 77.3579 64.9447 77.7155 63.016 77.8442C62.3352 77.8871 61.6545 77.8442 60.9738 77.8442C50.1633 77.8442 39.3527 77.8442 28.5584 77.8442C27.7642 77.8442 26.97 77.8728 26.1759 77.8156C24.7172 77.7011 23.8258 76.9431 23.7933 75.6844C23.7123 72.5807 23.7285 69.4626 23.7609 66.3445C23.7771 64.9428 24.7334 64.2134 26.2407 63.8558C29.5309 63.0977 32.7886 62.2825 36.0626 61.4672C36.9054 61.2526 37.732 60.9666 38.6234 60.6948V58.4635C38.202 58.2204 37.8454 57.9772 37.4402 57.8056C36.176 57.2764 35.1225 56.6614 34.5877 55.3884C34.3608 54.8306 33.6152 54.3729 32.9993 53.9867C30.2278 52.2417 29.1419 49.4955 30.0009 46.4204C30.1468 45.8912 30.0495 45.2761 29.8874 44.7469C27.8129 38.0817 33.6963 31.1018 40.6494 29.5857C42.5133 29.1852 44.4258 29.0279 46.6624 28.7132C46.7435 28.1411 46.9217 27.383 46.9379 26.6249C46.9703 22.5056 46.9379 18.3864 46.9379 14.2814C46.9379 13.6807 46.9055 13.0799 46.9379 12.4792C47.2134 8.6746 49.2394 7.24427 53.1941 7.27288C63.097 7.3587 72.9837 7.28721 82.8866 7.30151C87.1979 7.30151 88.6728 8.57449 88.689 12.3076C88.7214 18.8298 88.5755 25.3663 88.7538 31.8885C88.8348 35.1353 86.7278 37.1806 82.8866 36.9517C80.6175 36.823 78.3322 36.9946 76.0631 36.9088C74.5882 36.8516 73.4699 37.2521 72.4489 38.2104C70.6822 39.8696 68.7859 41.4286 67.0031 42.9876V42.959ZM40.7466 64.5852L40.0659 63.9845C39.9848 63.8844 39.9038 63.7986 39.9362 63.8272C39.8876 63.7986 39.9848 63.8701 40.0821 63.9559L40.7628 64.5567L41.4435 65.1574C41.5246 65.2575 41.6218 65.3719 41.5084 65.2432C41.6543 65.329 41.5408 65.2575 41.4111 65.186C41.1842 64.9858 40.9573 64.7855 40.7304 64.5852H40.7466ZM55.7712 50.0962L56.2412 49.3954L55.9657 49.281L55.8035 50.1106C55.7063 50.1964 55.6091 50.2679 55.6415 50.2393C55.6091 50.2679 55.6901 50.1821 55.7712 50.082V50.0962ZM85.2691 33.662C85.966 29.743 85.804 12.8511 85.1395 10.7771C82.2383 10.1764 53.259 10.2193 50.5847 10.8344V29.7144C52.1731 30.7585 53.6479 31.5452 54.8311 32.5893C55.917 33.5333 57.0516 33.8337 58.4941 33.7908C60.7631 33.7336 63.0321 33.7336 65.3012 33.7908C67.6837 33.848 67.9593 34.1197 68.17 36.2366C68.2186 36.6943 68.2511 37.1377 68.2997 37.7527C68.7697 37.438 69.0938 37.3093 69.2883 37.0805C71.5574 34.2771 74.6045 33.2186 78.4295 33.7764C78.6564 33.8051 78.8833 33.7764 79.1102 33.7764C81.1199 33.7335 83.1297 33.6906 85.2529 33.6477L85.2691 33.662ZM55.447 45.7338C57.943 40.7707 55.447 36.208 51.7516 33.7622C48.5587 31.6453 41.6867 31.1304 37.9589 33.6764C33.3559 36.823 31.1192 41.3285 33.8421 45.5908C37.6023 46.8924 38.6396 44.1033 40.3252 41.8863C44.5068 46.3345 49.9364 45.8625 55.4632 45.7195L55.447 45.7338ZM46.3058 69.434C46.4679 71.2648 46.0303 72.9525 46.63 74.5974H61.7679V66.6163C58.9964 65.9155 56.306 65.2432 53.8748 64.6282C50.9574 65.9726 49.9688 69.1336 46.3221 69.4483L46.3058 69.434ZM27.2618 74.2255C29.6768 74.9406 39.5958 75.0122 42.6915 74.3114V70.235C40.2442 68.3041 38.0075 66.5448 35.5764 64.6425C32.9021 65.3147 30.0333 66.0155 27.2618 66.7164V74.2398V74.2255ZM52.2865 49.3382C48.4615 48.5801 44.7823 47.8507 40.698 47.0497C39.92 47.4645 38.6882 48.1367 37.1809 48.952C37.4889 50.9258 37.813 52.9569 38.1048 54.9021C40.5359 55.9748 42.6429 56.9045 44.8147 57.8628C47.0676 56.8616 49.2557 55.8747 51.3141 54.9593C51.6544 52.9426 51.9623 51.1976 52.2865 49.3382ZM44.7175 63.3981C45.8682 62.5828 46.9541 62.0536 46.7434 60.7806C45.1713 60.6376 43.7288 60.4946 42.2701 60.3659C42.2053 61.8534 43.6316 62.3254 44.7175 63.3981ZM47.1972 65.3004L47.6673 65.7009C48.2994 65.1288 48.9315 64.5709 49.5474 63.9988L49.1422 63.6412L47.1972 65.3004ZM33.4532 50.2822H33.7611L33.7125 49.281H33.4045L33.4693 50.2822H33.4532Z" fill="url(#paint0_linear_2406_17)"/>
<path d="M24.9755 29.6565C23.76 31.759 25.6401 34.119 22.9172 35.7066C22.0744 35.1917 21.1019 34.7055 20.2915 34.0761C19.1894 33.2179 18.1197 32.3025 17.1634 31.3156C15.964 30.0855 14.5864 29.5277 12.7063 29.6278C10.4372 29.7566 8.16817 29.728 5.8991 29.6278C2.43065 29.5134 1.02055 28.1976 1.00434 25.1367C0.988136 18.3285 0.988136 11.5059 1.00434 4.69763C1.00434 1.2935 2.3658 0.0777571 6.33669 0.0205448C10.5345 -0.0366674 14.7485 0.0205448 18.9463 0.0205448C24.7324 0.0205448 30.5348 0.00624179 36.3209 0.0205448C40.7942 0.0348479 42.2205 1.3078 42.2367 5.22684C42.2529 11.6346 42.1395 18.0567 42.2853 24.4645C42.3502 27.4824 41.167 29.542 36.5478 29.6278C32.6904 29.6994 28.8492 29.6278 24.9755 29.6278V29.6565ZM4.16486 3.22442V26.567C6.45015 26.567 8.58956 26.7243 10.6966 26.5384C14.554 26.1808 17.8928 26.7958 20.2753 29.7566C20.3239 29.8281 20.486 29.8281 20.5833 29.8567C21.6692 26.5956 21.6854 26.5813 25.7211 26.5813C29.1247 26.5813 32.5445 26.5956 35.9481 26.5813C36.8071 26.5813 37.6662 26.424 38.7197 26.3095C38.6548 18.5144 38.898 10.9481 38.5738 3.25301H4.16486V3.22442Z" fill="url(#paint1_linear_2406_17)"/>
<path d="M31.4104 58.0049C30.4217 60.6367 28.0068 59.378 26.1429 60.0074C25.8998 60.3506 25.527 60.8369 25.2191 61.3518C24.3763 62.7249 23.0148 63.3686 21.313 63.3829C16.0941 63.4258 10.8591 63.4687 5.6402 63.3829C2.38246 63.3257 1.02099 61.9526 1.00478 59.0205C0.972365 53.714 0.972365 48.3933 1.00478 43.0868C1.00478 39.9974 2.39864 38.6958 5.91571 38.6386C10.9077 38.5671 15.9159 38.5671 20.9078 38.6386C24.1007 38.6815 25.6891 40.1261 25.835 42.9152C25.9322 44.8175 26.0457 46.7484 25.8187 48.6221C25.4622 51.5542 26.3374 53.8713 29.0603 55.6878C30.0165 56.3172 30.6973 57.2755 31.4266 58.0192L31.4104 58.0049ZM4.11668 60.1218H21.4265C22.6258 58.5341 23.5497 57.2898 24.5059 56.0168C23.0688 54.5102 22.3449 52.7605 22.3341 50.7676C22.3341 48.7651 22.3503 46.7627 22.3341 44.746C22.3341 43.7877 22.2207 42.8294 22.1558 41.9426C17.099 41.4563 6.59645 41.5993 4.11668 42.1715V60.1075V60.1218Z" fill="url(#paint2_linear_2406_17)"/>
<path d="M62.0586 53.6712C63.4038 51.1539 65.6892 52.198 67.6017 51.6974C68.5093 48.8797 70.9891 48.1503 74.1333 48.2361C77.1966 48.3219 80.276 48.2218 83.3393 48.2647C87.1319 48.3219 88.6716 49.6807 88.704 53.0562C88.7527 58.1767 88.7527 63.2829 88.704 68.4034C88.6716 71.6216 87.1157 72.9947 83.5338 73.0376C80.2436 73.0948 76.9373 72.9518 73.6471 73.0805C70.3083 73.2092 67.7313 72.1079 67.4558 67.8313C67.3423 66.1292 67.2613 64.4129 67.472 62.7251C67.8124 60.0075 67.002 57.8621 64.4736 56.16C63.5174 55.5164 62.8852 54.5294 62.0748 53.6712H62.0586ZM85.3329 69.6335C85.9812 65.7573 85.8029 53.8286 85.1384 51.7689C82.4155 51.1968 74.1982 51.1825 71.2484 51.7975C70.746 53.1277 71.0863 55.1302 67.7962 55.0586C70.9567 56.7893 71.1026 59.0206 70.9405 61.4092C70.8432 62.911 70.9081 64.4128 70.9405 65.9146C70.9405 67.1876 70.9891 68.4463 71.0215 69.9481C75.4624 69.9481 79.5143 69.9481 83.5825 69.9481C84.1173 69.9481 84.6522 69.7765 85.3491 69.6478L85.3329 69.6335Z" fill="url(#paint3_linear_2406_17)"/>
<path d="M63.9717 30.9295C61.3946 28.7125 59.0445 26.6958 56.6943 24.6647C57.4237 22.5765 59.0769 21.4752 61.2326 20.5312C62.0105 21.0318 62.8208 21.5467 63.6798 22.1045C63.923 21.9758 64.2472 21.8756 64.4741 21.6754C66.8242 19.6301 69.1256 17.5561 71.492 15.5251C72.4482 14.7098 73.5503 14.009 74.62 13.208C76.6946 14.1377 77.9751 15.4536 79.2555 17.0841C78.8341 17.6849 78.5586 18.3571 78.0237 18.8005C73.3397 22.8339 68.9798 27.1678 63.9878 30.9152L63.9717 30.9295ZM68.0722 22.977C68.2991 22.7767 68.526 22.5765 68.7529 22.3762C68.9798 22.176 69.2067 21.9758 69.4337 21.7755L70.1144 21.1748L70.795 20.5741L71.4757 19.9733C71.7027 19.7731 71.9296 19.5729 72.1565 19.3726L72.8372 18.7719L73.5179 18.1712L74.1987 17.5704C74.3284 17.4989 74.4418 17.4274 74.296 17.5132C74.4094 17.3845 74.3121 17.4846 74.2311 17.599C74.0042 17.7993 73.7773 17.9995 73.5504 18.1998L72.8697 18.8005L72.1889 19.4012L71.5082 20.002L70.8275 20.6027C70.6006 20.8029 70.3737 21.0032 70.1468 21.2034C69.9199 21.4037 69.6929 21.6039 69.466 21.8041L68.7853 22.4049C68.5584 22.6051 68.3315 22.8053 68.1046 23.0056L67.4238 23.6063L66.7431 24.2071C66.5162 24.4073 66.2893 24.6075 66.0624 24.8078L65.3817 25.4085L64.6848 26.0092L61.0381 24.4502L60.8759 24.6647C61.816 25.4514 62.7723 26.2381 63.842 27.1392C64.2148 26.6243 64.4417 26.3096 64.6686 25.9949L65.3331 25.3799C65.56 25.1796 65.7869 24.9794 66.0138 24.7792C66.2407 24.5789 66.4676 24.3787 66.6946 24.1784L67.3752 23.5777C67.6022 23.3775 67.829 23.1772 68.0559 22.977H68.0722Z" fill="url(#paint4_linear_2406_17)"/>
<path d="M14.3604 12.8939C13.3555 12.6651 12.4641 12.4648 11.5078 12.236C11.7996 10.2907 12.2696 8.74603 13.55 7.55888C15.8839 5.41342 18.6716 4.22624 22.1077 5.12734C25.803 6.08564 28.3314 8.63161 28.5259 11.764C28.7204 14.925 27.1807 17.3565 24.0364 18.9584C23.1287 19.4304 21.8321 19.4018 21.4431 20.6748C21.3621 20.9609 20.0168 21.1754 19.3847 21.0181C18.9147 20.9036 18.3475 20.1456 18.3475 19.6736C18.3475 18.8297 18.7364 18.0001 18.9309 17.2993C23.6798 16.3123 25.1709 15.0108 25.0412 12.1501C24.944 9.77584 23.5177 8.30263 21.0703 8.00227C17.7153 7.58748 16.2243 8.60298 14.3604 12.9082V12.8939Z" fill="url(#paint5_linear_2406_17)"/>
<path d="M21.5396 22.0335L21.6692 24.6796C20.7292 24.6796 19.935 24.8512 19.2867 24.6367C18.2818 24.322 18.0225 23.4924 18.4763 22.6628C19.1246 21.49 20.2268 21.6759 21.5396 22.0335Z" fill="url(#paint6_linear_2406_17)"/>
<path d="M6.14238 52.1845C6.09376 51.4837 6.04511 50.7256 6.0127 50.1391C6.98516 49.281 16.0777 49.1809 20.1458 49.8531C20.1944 50.554 20.2431 51.312 20.2917 51.927C19.2544 52.7709 10.1781 52.871 6.14238 52.1988V52.1845Z" fill="url(#paint7_linear_2406_17)"/>
<path d="M6.14238 56.9896C6.09376 56.2887 6.04511 55.5307 6.0127 54.9442C6.98516 54.0861 16.1101 53.9859 20.1458 54.6725C20.1944 55.3733 20.2431 56.1314 20.2917 56.7321C19.2544 57.5617 10.1295 57.6618 6.14238 56.9896Z" fill="url(#paint8_linear_2406_17)"/>
<path d="M20.1622 44.832V47.5496H11.6855V44.832H20.1622Z" fill="url(#paint9_linear_2406_17)"/>
<path d="M6.07775 47.1776V44.8318C7.13125 44.7889 8.05507 44.7603 9.20582 44.7031C9.27065 45.7186 9.31932 46.4767 9.35173 47.1776C8.11995 47.907 7.09882 47.9499 6.06152 47.1776H6.07775Z" fill="url(#paint10_linear_2406_17)"/>
<path d="M71.9297 64.0703H82.9023C83.0158 64.857 83.1454 65.6723 83.3075 66.8451C79.5797 67.1598 76.1437 66.9738 72.3836 67.0024L71.9459 64.0703H71.9297Z" fill="url(#paint11_linear_2406_17)"/>
<path d="M83.0316 59.0928V62.1108C79.4983 62.2824 76.0623 62.2109 72.3183 62.1537C72.2211 61.2097 72.1238 60.3944 71.9941 59.2358C75.7381 58.9641 79.1741 59.1643 83.0316 59.0928Z" fill="url(#paint12_linear_2406_17)"/>
<path d="M82.5944 57.2185H77.7158V54.458H82.8374C83.3236 55.5307 83.5182 56.4318 82.5944 57.2185Z" fill="url(#paint13_linear_2406_17)"/>
<path d="M75.0089 54.5723C74.9278 55.5592 74.863 56.303 74.7819 57.1898H72.2373V54.3721C73.2584 54.4436 74.0526 54.5008 75.0089 54.5723Z" fill="url(#paint14_linear_2406_17)"/>
<defs>
<linearGradient id="paint0_linear_2406_17" x1="23.6961" y1="42.5442" x2="88.7538" y2="42.5442" gradientUnits="userSpaceOnUse">
<stop stop-color="#AE8ABE"/>
<stop offset="1" stop-color="#8390C8"/>
</linearGradient>
<linearGradient id="paint1_linear_2406_17" x1="0.988136" y1="17.8564" x2="42.2853" y2="17.8564" gradientUnits="userSpaceOnUse">
<stop stop-color="#AE8ABE"/>
<stop offset="1" stop-color="#8390C8"/>
</linearGradient>
<linearGradient id="paint2_linear_2406_17" x1="0.988573" y1="51.0107" x2="31.4104" y2="51.0107" gradientUnits="userSpaceOnUse">
<stop stop-color="#AE8ABE"/>
<stop offset="1" stop-color="#8390C8"/>
</linearGradient>
<linearGradient id="paint3_linear_2406_17" x1="62.0586" y1="60.6511" x2="88.7202" y2="60.6511" gradientUnits="userSpaceOnUse">
<stop stop-color="#AE8ABE"/>
<stop offset="1" stop-color="#8390C8"/>
</linearGradient>
<linearGradient id="paint4_linear_2406_17" x1="56.6943" y1="22.0759" x2="79.2393" y2="22.0759" gradientUnits="userSpaceOnUse">
<stop stop-color="#AE8ABE"/>
<stop offset="1" stop-color="#8390C8"/>
</linearGradient>
<linearGradient id="paint5_linear_2406_17" x1="11.4916" y1="12.9511" x2="28.5421" y2="12.9511" gradientUnits="userSpaceOnUse">
<stop stop-color="#AE8ABE"/>
<stop offset="1" stop-color="#8390C8"/>
</linearGradient>
<linearGradient id="paint6_linear_2406_17" x1="18.2656" y1="23.2493" x2="21.6692" y2="23.2493" gradientUnits="userSpaceOnUse">
<stop stop-color="#AE8ABE"/>
<stop offset="1" stop-color="#8390C8"/>
</linearGradient>
<linearGradient id="paint7_linear_2406_17" x1="6.0127" y1="51.0116" x2="20.2917" y2="51.0116" gradientUnits="userSpaceOnUse">
<stop stop-color="#AE8ABE"/>
<stop offset="1" stop-color="#8390C8"/>
</linearGradient>
<linearGradient id="paint8_linear_2406_17" x1="6.0127" y1="55.831" x2="20.2917" y2="55.831" gradientUnits="userSpaceOnUse">
<stop stop-color="#AE8ABE"/>
<stop offset="1" stop-color="#8390C8"/>
</linearGradient>
<linearGradient id="paint9_linear_2406_17" x1="11.6693" y1="46.1908" x2="20.1622" y2="46.1908" gradientUnits="userSpaceOnUse">
<stop stop-color="#AE8ABE"/>
<stop offset="1" stop-color="#8390C8"/>
</linearGradient>
<linearGradient id="paint10_linear_2406_17" x1="6.07773" y1="46.2336" x2="9.35173" y2="46.2336" gradientUnits="userSpaceOnUse">
<stop stop-color="#AE8ABE"/>
<stop offset="1" stop-color="#8390C8"/>
</linearGradient>
<linearGradient id="paint11_linear_2406_17" x1="71.9297" y1="65.5578" x2="83.2913" y2="65.5578" gradientUnits="userSpaceOnUse">
<stop stop-color="#AE8ABE"/>
<stop offset="1" stop-color="#8390C8"/>
</linearGradient>
<linearGradient id="paint12_linear_2406_17" x1="71.9941" y1="60.6518" x2="83.0316" y2="60.6518" gradientUnits="userSpaceOnUse">
<stop stop-color="#AE8ABE"/>
<stop offset="1" stop-color="#8390C8"/>
</linearGradient>
<linearGradient id="paint13_linear_2406_17" x1="77.7158" y1="55.8311" x2="83.2426" y2="55.8311" gradientUnits="userSpaceOnUse">
<stop stop-color="#AE8ABE"/>
<stop offset="1" stop-color="#8390C8"/>
</linearGradient>
<linearGradient id="paint14_linear_2406_17" x1="72.2373" y1="55.7881" x2="75.0089" y2="55.7881" gradientUnits="userSpaceOnUse">
<stop stop-color="#AE8ABE"/>
<stop offset="1" stop-color="#8390C8"/>
</linearGradient>
</defs>
</svg>
