<svg width="89" height="80" viewBox="0 0 89 80" fill="none" xmlns="http://www.w3.org/2000/svg">
<path d="M36.0488 44.0476C37.3292 42.5028 38.9985 42.7317 40.5707 42.7317C51.1543 42.7317 61.7379 42.7317 72.3215 42.7317H76.1628V3.25526H13.0338C12.969 4.54253 12.9365 5.8155 12.8555 7.08847C12.8069 8.08968 12.3369 8.96218 11.1213 8.97648C9.88954 8.97648 9.38709 8.11832 9.38709 7.1171C9.37088 5.04316 9.38709 2.9549 9.38709 0.981078C12.2721 0.366047 75.5145 0.237312 79.534 0.795131C79.6312 1.48168 79.8419 2.23972 79.8419 3.01209C79.8581 16.271 79.8743 29.5157 79.8419 42.7746C79.8419 45.6209 79.5664 45.8498 76.3248 45.8641C64.0394 45.8784 51.754 45.8641 39.4523 45.8641C37.9936 45.8641 36.3891 46.05 36.0488 44.0762V44.0476Z" fill="url(#paint0_linear_2343_208)"/>
<path d="M21.0078 35.8237C25.319 35.2086 29.0793 32.534 33.666 34.0358C37.8962 30.1597 41.624 25.8688 46.1945 22.0928L48.2043 23.5803C46.8753 26.3694 44.1038 27.957 42.094 30.0595C40.1329 32.1335 38.0583 34.1359 35.8703 36.31C35.9027 36.8821 36.0809 37.6688 35.9513 38.4268C35.5947 40.4436 34.4764 41.9883 32.1587 42.6605C28.0743 43.862 23.99 45.1064 19.8733 46.222C17.8311 46.7798 15.7403 46.6511 14.0871 45.3209C12.0936 43.7047 10.2297 41.9454 8.34959 40.2863C9.40309 38.1837 9.72728 38.0693 11.3318 39.2278C12.6447 40.1718 14.0223 41.0872 15.1892 42.1742C16.4534 43.3614 17.9284 43.6189 19.5329 43.1755C23.2121 42.1743 26.8588 41.0729 30.5217 40.0002C30.9431 39.8715 31.4618 39.7141 31.6887 39.4138C32.0453 38.9561 32.4666 38.3267 32.3532 37.869C32.2235 37.4257 31.478 36.8249 30.9756 36.8106C29.8734 36.7534 28.7064 36.8964 27.653 37.1825C24.6221 37.9978 21.6399 38.956 18.6091 39.7999C17.0369 40.229 17.0207 40.1718 15.3838 38.67C16.0321 38.0407 16.6803 37.4113 17.3611 36.7391C16.4372 33.335 14.314 32.1192 9.87311 32.5054C6.64778 32.7915 4.67046 34.6509 4.62184 37.7832C4.5408 43.2041 4.58944 48.6249 4.58944 54.0315C4.58944 55.4332 4.63807 56.8492 3.32524 58.0506C2.02863 58.1937 1.20199 57.7932 1.10475 56.4916C1.07233 55.991 1.07235 55.4904 1.07235 54.9898C1.07235 49.569 1.29928 44.1481 0.991332 38.7415C0.780633 35.0513 3.95733 30.4028 8.62514 29.5447C13.8278 28.6007 18.1066 30.6603 20.2299 34.5364C20.473 34.9655 20.7323 35.3946 20.9916 35.8237H21.0078Z" fill="url(#paint1_linear_2343_208)"/>
<path d="M44.5577 55.3184C49.9225 55.3184 54.5741 59.1945 54.4606 63.8144C54.3472 68.1768 50.7815 72.6108 44.4281 72.5249C38.0584 72.4391 34.8007 67.9336 34.6872 63.843C34.5576 59.2231 39.2092 55.3327 44.5577 55.3184ZM44.6712 58.4078C41.1055 58.3792 38.2854 60.6534 38.1719 63.6571C38.0422 66.8896 41.1055 69.7644 44.6388 69.7072C48.0586 69.65 50.9922 66.9324 50.976 63.843C50.9598 60.825 48.2044 58.4507 44.6712 58.4221V58.4078Z" fill="url(#paint2_linear_2343_208)"/>
<path d="M11.0404 28.9577C5.35149 28.7145 1.26718 25.2389 1.25098 20.3758C1.25098 15.8704 5.18943 11.6939 11.2673 11.5652C16.1458 11.465 21.1702 15.8561 20.9433 20.0898C20.7002 24.9385 17.1669 28.7288 11.0242 28.972L11.0404 28.9577ZM11.0728 25.8396C14.6223 25.8396 17.4425 23.4939 17.5073 20.4903C17.5721 17.3865 14.6547 14.6117 11.2511 14.5259C7.6854 14.4401 4.7356 16.9717 4.7194 20.147C4.70319 23.4653 7.34506 25.8253 11.0728 25.8396Z" fill="url(#paint3_linear_2343_208)"/>
<path d="M84.6396 63.7426C85.1745 68.5198 80.1825 72.3959 75.2068 72.4817C69.6799 72.5818 65.2715 68.3767 65.2715 64.0858C65.2715 59.3801 69.5665 55.361 74.834 55.318C80.3446 55.2608 84.6072 58.9367 84.6396 63.7426ZM68.8047 63.9714C68.8372 67.1753 71.4466 69.5782 74.9475 69.6354C78.2052 69.6926 81.3495 67.018 81.4467 64.143C81.544 60.696 78.8049 58.3503 74.7692 58.4218C70.9442 58.479 68.7723 60.5101 68.8209 63.9714H68.8047Z" fill="url(#paint4_linear_2343_208)"/>
<path d="M14.2659 72.4105C9.11186 72.8539 4.42781 68.4771 4.50885 63.943C4.57368 59.1801 8.80389 55.4756 14.1848 55.2754C18.9823 55.1038 23.9743 59.4805 23.9743 63.9001C23.9743 68.1911 19.8089 72.7394 14.2659 72.4105ZM20.3762 63.8715C20.3762 60.4388 18.1719 58.465 14.3307 58.4364C10.295 58.4078 8.0097 60.4102 8.04211 63.9717C8.07453 67.1756 10.6029 69.5499 14.1362 69.65C17.6695 69.7501 20.3924 67.2471 20.3762 63.8715Z" fill="url(#paint5_linear_2343_208)"/>
<path d="M25.3516 79.4619C25.0275 77.0447 23.3581 76.5155 20.9918 76.5727C16.4698 76.6728 11.9316 76.6442 7.39349 76.587C5.43236 76.5584 3.81159 76.7586 3.1957 78.7753C2.88776 79.7766 1.8829 79.6765 0.942859 79.4333C-0.19168 76.0721 1.25077 74.0411 5.01096 73.9839C11.1213 73.898 17.2478 73.9266 23.3581 73.9839C26.0323 73.9982 27.5072 75.1567 28.1069 77.4452C28.5607 79.1329 28.2852 79.3618 25.3192 79.4619H25.3516Z" fill="url(#paint6_linear_2343_208)"/>
<path d="M58.3023 79.2758C57.9943 79.3759 57.7026 79.519 57.3784 79.5619C57.0543 79.6048 56.7139 79.5333 56.1791 79.4903C55.3039 76.8014 52.9537 76.4438 50.1012 76.5582C46.0331 76.7156 41.9487 76.6297 37.8644 76.5868C35.9195 76.5582 34.2501 76.7871 33.5045 78.6751C33.0507 79.8193 32.0458 79.7049 31.0085 79.3759C30.1009 76.4152 31.7703 74.1839 35.1253 73.998C37.2647 73.8835 39.4365 73.9694 41.5759 73.9694C45.6603 73.9694 49.7284 73.9694 53.8128 73.9694C55.4011 73.9694 56.6167 74.4986 57.573 75.6571C58.4806 76.7728 59.0964 77.8598 58.286 79.2758H58.3023Z" fill="url(#paint7_linear_2343_208)"/>
<path d="M88.3511 79.4191H86.2927C85.7741 76.7587 83.6184 76.487 80.9928 76.5585C76.5843 76.6872 72.1434 76.6157 67.7349 76.5871C65.9844 76.5728 64.6068 76.8875 64.0881 78.5896C63.7316 79.7767 62.7429 79.7338 61.6732 79.3905C60.6521 75.9721 62.1108 74.0269 65.8872 73.984C71.9002 73.9125 77.8971 73.9268 83.9102 73.984C87.7838 74.0126 89.1128 75.6574 88.3348 79.4191H88.3511Z" fill="url(#paint8_linear_2343_208)"/>
<path d="M21.1214 51.0563C21.089 51.4711 21.2024 52.0432 20.9593 52.4437C20.6676 52.9014 20.0841 53.4592 19.5817 53.5164C19.1117 53.5593 18.2364 53.0587 18.123 52.6582C17.7988 51.6427 17.6692 50.5556 17.734 49.4972C17.7826 48.6676 18.4957 47.9239 19.5492 48.1957C20.1489 48.353 20.7 48.9966 21.0241 49.5259C21.2673 49.912 21.1214 50.4842 21.1376 51.0563H21.1214Z" fill="url(#paint9_linear_2343_208)"/>
<defs>
<linearGradient id="paint0_linear_2343_208" x1="9.35467" y1="23.1222" x2="79.8419" y2="23.1222" gradientUnits="userSpaceOnUse">
<stop stop-color="#AE8ABE"/>
<stop offset="1" stop-color="#8390C8"/>
</linearGradient>
<linearGradient id="paint1_linear_2343_208" x1="1.00754" y1="40.086" x2="48.2043" y2="40.086" gradientUnits="userSpaceOnUse">
<stop stop-color="#AE8ABE"/>
<stop offset="1" stop-color="#8390C8"/>
</linearGradient>
<linearGradient id="paint2_linear_2343_208" x1="34.6872" y1="63.9145" x2="54.4606" y2="63.9145" gradientUnits="userSpaceOnUse">
<stop stop-color="#AE8ABE"/>
<stop offset="1" stop-color="#8390C8"/>
</linearGradient>
<linearGradient id="paint3_linear_2343_208" x1="1.25098" y1="20.2471" x2="20.9595" y2="20.2471" gradientUnits="userSpaceOnUse">
<stop stop-color="#AE8ABE"/>
<stop offset="1" stop-color="#8390C8"/>
</linearGradient>
<linearGradient id="paint4_linear_2343_208" x1="65.2877" y1="63.8999" x2="84.6883" y2="63.8999" gradientUnits="userSpaceOnUse">
<stop stop-color="#AE8ABE"/>
<stop offset="1" stop-color="#8390C8"/>
</linearGradient>
<linearGradient id="paint5_linear_2343_208" x1="4.49264" y1="63.8572" x2="23.9743" y2="63.8572" gradientUnits="userSpaceOnUse">
<stop stop-color="#AE8ABE"/>
<stop offset="1" stop-color="#8390C8"/>
</linearGradient>
<linearGradient id="paint6_linear_2343_208" x1="0.586285" y1="76.7729" x2="28.3014" y2="76.7729" gradientUnits="userSpaceOnUse">
<stop stop-color="#AE8ABE"/>
<stop offset="1" stop-color="#8390C8"/>
</linearGradient>
<linearGradient id="paint7_linear_2343_208" x1="30.7654" y1="76.7728" x2="58.675" y2="76.7728" gradientUnits="userSpaceOnUse">
<stop stop-color="#AE8ABE"/>
<stop offset="1" stop-color="#8390C8"/>
</linearGradient>
<linearGradient id="paint8_linear_2343_208" x1="61.3653" y1="76.7731" x2="88.5617" y2="76.7731" gradientUnits="userSpaceOnUse">
<stop stop-color="#AE8ABE"/>
<stop offset="1" stop-color="#8390C8"/>
</linearGradient>
<linearGradient id="paint9_linear_2343_208" x1="17.7016" y1="50.8131" x2="21.1376" y2="50.8131" gradientUnits="userSpaceOnUse">
<stop stop-color="#AE8ABE"/>
<stop offset="1" stop-color="#8390C8"/>
</linearGradient>
</defs>
</svg>
