<svg width="75" height="78" viewBox="0 0 75 78" fill="none" xmlns="http://www.w3.org/2000/svg">
<path d="M45.3265 9.7469C44.5486 9.84702 43.7544 10.0473 42.9765 10.0473C40.0429 10.0186 37.5145 7.80168 37.4334 5.27004C37.3686 2.767 39.8159 0.364077 42.6523 0.163834C45.3266 -0.0221057 48.1629 1.89454 48.3412 4.39757C48.4385 5.79927 47.7253 7.25818 47.385 8.64558C50.3834 8.58837 53.6898 8.53114 57.0123 8.44532C58.3089 8.40241 59.4272 8.65987 60.5131 9.34642C62.6201 10.6909 64.873 11.8781 67.0124 13.2083C68.7629 14.281 69.0222 15.4109 68.0335 16.7411C67.2718 17.7566 65.6186 18.0999 64.0789 17.3275C62.3933 16.4979 60.8211 15.511 59.249 14.5098C57.8875 13.6516 56.4937 13.1224 54.4029 13.6659C55.2619 14.8674 55.9426 16.0689 56.8826 17.0987C59.3624 19.8306 60.2052 22.5768 57.0285 25.5804C59.2976 27.1251 61.4208 28.5697 63.544 30.0144C63.9978 30.3147 64.5003 30.5578 64.9379 30.8868C67.6283 32.8892 67.6608 34.1765 64.9379 36.6366C66.429 36.7225 67.8228 36.8083 69.5571 36.9084C69.7029 37.9811 69.9298 38.9395 69.946 39.8835C69.9785 50.5249 69.9622 61.1664 69.946 71.8079C69.946 72.8663 70.3026 74.0821 68.7791 74.6971C67.4987 74.411 67.8228 73.467 67.8228 72.7233C67.7904 68.4037 67.8228 64.0842 67.8228 59.7647C67.8228 53.8432 67.8228 47.9218 67.8228 41.986V38.868C64.4516 38.3816 61.3236 38.6105 57.8713 38.6963C57.8227 39.8834 57.7579 40.9419 57.7579 42.0146C57.7579 51.8551 57.7578 61.6956 57.7254 71.5361C57.7254 72.5659 58.1468 73.7388 56.8826 74.8401C56.4288 74.3538 55.8777 74.0106 55.6995 73.5386C55.4888 72.995 55.586 72.3514 55.586 71.7507C55.586 60.909 55.586 50.0672 55.586 39.2112C55.586 38.5247 55.6995 37.8381 55.7968 36.8798H63.2361C59.6704 34.577 56.6882 32.6461 53.2521 30.4291C52.8632 31.9023 52.4742 32.9178 52.3445 33.962C52.0366 36.4507 51.8907 38.9394 51.5665 41.4282C51.4369 42.4008 50.9507 43.3305 50.5779 44.4318C51.1938 44.7465 51.9393 45.1326 52.7821 45.576C52.8307 46.3055 52.8956 46.9921 52.8956 47.6786C52.8956 55.6168 52.9118 63.5407 52.8956 71.4789C52.8956 72.6232 53.3332 73.939 51.7286 74.74C50.2861 74.1679 50.7724 73.0379 50.7724 72.1368C50.7399 64.8137 50.7561 57.4762 50.7561 50.153C50.7561 49.066 50.7561 47.9933 50.7561 46.7346H40.6749C40.6749 49.867 40.6749 52.9422 40.6749 56.0316C40.6749 59.1211 40.6912 62.2534 40.6749 65.3715C40.6425 68.4467 40.8046 71.5218 40.5129 75.2263C39.5242 74.4253 38.9083 74.1393 38.7138 73.7102C38.4707 73.181 38.5355 72.5373 38.5355 71.9366C38.5355 63.5979 38.5355 55.2735 38.5355 46.9349C38.5355 46.5344 38.6166 46.1482 38.6652 45.6905C40.8695 43.8311 43.7382 45.2042 46.2018 44.4747C43.9975 41.6141 45.6669 38.5389 45.521 35.5639C45.5048 35.1777 45.91 34.7772 45.8452 34.4054C45.2293 30.329 47.7577 27.3397 50.2051 24.3074C50.4644 23.9927 50.6265 23.6208 50.9831 23.0487C49.6702 21.2751 48.325 19.4587 46.7204 17.2703C45.0673 19.2728 43.4141 20.9033 42.2471 22.777C40.286 25.9523 37.2713 27.9118 33.6732 29.3564C33.2518 29.528 32.8304 29.6711 32.4576 29.8999C29.9779 31.4589 27.5305 31.8165 25.1156 29.7998C24.9697 29.6853 24.6942 29.6997 24.4673 29.6711C24.37 29.6711 24.2566 29.714 23.9 29.7998C23.2355 32.0883 22.5386 34.4912 21.793 37.0801C23.2355 37.3947 24.6131 37.6951 26.007 37.9954C27.7088 38.3673 28.8433 39.2398 29.0865 40.8275C29.5403 43.8025 30.0589 46.7632 30.3344 49.7382C30.4317 50.7538 29.8806 51.8265 29.5727 53.1138C30.772 53.1138 32.1173 53.0566 33.4463 53.1138C35.375 53.2139 35.8451 53.5858 35.8937 55.3165C35.9748 58.0197 35.9099 60.7373 35.9099 63.4549C35.9099 66.3727 35.9099 69.2762 35.9099 72.1941C35.9099 73.0665 36.1206 74.0392 34.8564 74.6113C33.4787 74.1822 33.7057 73.0952 33.7057 72.1512C33.6895 67.5313 33.7057 62.9114 33.7057 58.2915C33.7057 57.3046 33.7057 56.332 33.7057 55.1734H23.7217C23.4138 61.667 23.8514 68.1463 23.4462 75.1834C22.4737 74.411 21.9875 74.1107 21.6309 73.7102C21.4526 73.5099 21.4851 73.1381 21.4851 72.8377C21.4851 66.6159 21.4851 60.394 21.4851 54.0578L24.3538 52.8563C23.8027 49.7669 23.2517 46.7489 22.652 43.5021L18.2921 42.7154C17.6114 49.7096 13.835 55.4166 10.1559 61.5526C12.3439 61.5526 14.3374 61.4954 16.3472 61.5669C18.2111 61.6241 18.7135 61.9817 18.7622 63.4549C18.8432 66.6731 18.827 69.877 18.7459 73.0952C18.7459 73.6673 18.1462 74.2251 17.6114 75.1691C16.0555 73.0236 16.801 71.107 16.6714 69.3191C16.5417 67.5169 16.639 65.7148 16.639 63.6837H6.75227C6.15258 67.2023 6.97919 70.9926 6.31468 74.6542L5.58531 74.8115C5.21253 74.3109 4.51558 73.8246 4.49937 73.324C4.38592 70.02 4.33733 66.7017 4.4832 63.3834C4.51562 62.6396 5.35841 61.9102 5.94188 60.9805C4.45077 59.636 5.03425 58.0197 5.94188 56.2747C7.70852 52.8134 9.71827 49.395 10.8528 45.762C12.5384 40.4126 13.5595 34.8917 14.8561 29.4279C13.3002 29.714 12.2791 30.6437 11.6632 32.0168C10.9176 33.6902 10.0424 35.3351 9.34551 37.0228C8.76203 38.4532 7.78953 39.4114 6.21739 39.8691C3.46208 38.4817 3.12174 37.8238 4.06178 35.5782C4.33732 34.9203 4.69388 34.291 4.96941 33.633C6.93594 29.1323 10.3125 25.8093 15.0992 23.6638C17.0117 22.8056 18.9891 22.0762 20.7719 21.3467C20.1722 20.3741 19.0863 19.2441 18.7622 17.9712C18.1463 15.4681 20.5288 12.7362 23.43 12.207C25.6829 11.7922 28.503 13.5086 29.4106 15.84C30.2859 18.0713 28.8109 20.7603 26.1367 21.7329C25.3101 22.0332 24.3862 22.1619 23.511 22.3765L22.733 21.9331L22.5872 22.1763L23.5434 22.3622C25.2776 23.5923 26.9957 24.8366 28.4868 25.8951C33.2843 24.6078 36.3961 22.1763 38.7138 18.7721C40.8046 15.6827 43.1385 12.7219 45.359 9.70399C45.4725 9.63248 45.5859 9.56098 45.4724 9.63249C45.5535 9.54668 45.4724 9.63246 45.3752 9.73258L45.3265 9.7469ZM20.4964 26.1239L21.1933 25.5375C23.6407 26.9106 26.1042 28.2694 28.665 29.6997C31.3231 28.4124 33.9163 27.1966 36.4609 25.8951C36.8013 25.7234 36.8824 25.1656 37.3848 24.1644C33.9974 25.6519 31.2907 26.839 28.5192 28.0548C26.4446 26.7675 24.5483 25.5232 22.5548 24.3789C20.2695 23.0631 18.7946 23.5923 18.0977 25.9666C16.9955 29.6425 15.9096 33.3183 14.9371 37.0085C14.694 37.9239 14.9047 38.9251 14.9047 40.1695C17.5952 40.6701 20.1074 41.2136 22.652 41.5855C24.1431 41.8001 24.8238 42.4294 24.9211 43.7453C25.0832 45.8335 25.3911 47.9218 25.618 50.01C25.7152 50.8539 25.8936 51.612 27.2712 51.7407C27.5305 51.4117 28.0978 50.9969 28.0654 50.6393C27.7412 47.178 27.7088 43.6737 26.7849 40.4413C23.9972 38.8822 20.5612 39.5116 18.0977 37.6379C20.0588 36.0931 20.6747 34.5341 21.9226 28.4553C21.4202 27.64 20.9664 26.8963 20.5126 26.1525L20.4964 26.1239ZM54.6622 20.9319C53.9653 22.1048 53.5439 22.9915 52.9604 23.7925C51.68 25.5661 50.2861 27.2681 49.0381 29.056C48.5843 29.6997 48.2602 30.4863 48.1467 31.2444C47.6767 34.5055 47.2877 37.7809 46.8825 41.042C46.7204 42.3293 47.3525 42.9014 49.1678 42.7441C49.4595 40.4842 49.7999 38.2386 50.0106 35.993C50.2699 33.0895 50.6265 30.2575 52.9118 27.8975C54.0787 26.6817 54.9377 25.2514 55.975 23.9356C57.223 22.3479 57.2392 20.7889 56.0236 19.1869C54.257 16.8555 52.5552 14.4955 50.7399 12.207C49.3623 10.4478 47.466 10.4048 46.0883 12.1069C43.5437 15.2965 41.064 18.529 38.6166 21.7615C38.3249 22.1476 38.3897 22.7198 38.2924 23.2204C39.2973 22.9772 39.8808 22.5625 40.3022 22.0475C42.3929 19.4301 44.4351 16.7983 46.4935 14.1665C46.9797 13.5372 47.4984 13.0652 48.4871 13.7088C47.3363 16.9556 50.5293 18.6148 51.7935 20.9319H54.6622ZM14.2078 41.843C13.9323 42.5009 13.4622 43.1875 13.365 43.9169C12.895 47.1351 11.6794 50.1101 9.96141 52.9422C9.16723 54.258 8.47029 55.6311 7.72474 56.9756C7.27092 57.7909 6.8171 58.5918 7.46541 59.4929C8.81065 60.0365 9.34551 59.2784 9.79932 58.4202C11.4039 55.3451 13.1219 52.2985 14.5319 49.1518C15.2613 47.507 15.4882 45.6762 15.861 43.9169C16.0555 42.9586 15.861 42.1004 14.2078 41.843ZM42.944 8.23078C44.6945 8.23078 46.5097 6.70033 46.526 5.21281C46.5422 3.69669 44.7755 2.00894 43.1547 2.00894C41.3557 2.00894 39.4918 3.43927 39.4108 4.89819C39.3135 6.54304 41.1125 8.24508 42.944 8.23078ZM24.0458 20.4599C27.1415 19.2012 27.8871 18.2858 27.4008 16.4979C27.0929 15.3537 25.5532 14.1522 24.2728 14.0807C22.6358 13.9806 21.1933 14.9675 20.8205 16.4264C20.3505 18.2858 20.9826 19.1154 24.0297 20.4599H24.0458ZM56.2667 27.3254C54.6784 28.913 54.6136 29.1132 55.8454 29.9428C58.2603 31.5734 60.7563 33.1467 63.2199 34.7343C63.3819 34.8345 63.6413 34.8201 64.0465 34.8917L65.1972 33.776C62.604 31.0298 59.1679 29.4708 56.283 27.3254H56.2667ZM6.00673 37.7523L6.62258 37.881C7.62745 35.8071 8.69717 33.7474 9.62101 31.6449C10.3504 29.9857 11.4201 28.7128 13.3326 27.9833C14.3861 27.5828 15.5855 27.168 15.861 25.5232C13.8512 26.3957 12.1494 27.1108 10.48 27.8832C10.01 28.0977 9.47515 28.4696 9.28066 28.8701C8.04888 31.5305 6.89814 34.2194 5.7474 36.9227C5.65015 37.1373 5.89326 37.4662 5.9905 37.738L6.00673 37.7523ZM65.9427 16.1976L66.3965 15.7113C66.2993 15.4395 66.3155 15.0391 66.1048 14.9103C63.8844 13.5372 61.6639 12.1498 59.3624 10.9054C57.7416 10.033 54.4353 10.2189 52.1986 11.2201C53.0739 11.3631 53.7384 11.6349 54.3218 11.5491C56.8827 11.1772 58.9086 12.1069 60.8859 13.3799C62.5067 14.424 64.2571 15.2679 65.959 16.2119L65.9427 16.1976Z" fill="url(#paint0_linear_2406_8)"/>
<path d="M74.4681 76.5281C73.7874 77.1288 73.4956 77.6437 73.1067 77.7152C72.2314 77.8726 71.3076 77.8297 70.4 77.8297C48.2116 77.8297 26.0395 77.8297 3.85119 77.8297C2.94356 77.8297 2.00354 77.9012 1.14453 77.7009C0.723131 77.6008 0.463786 76.9572 0.0585938 76.4709C3.08943 75.7843 71.0645 75.7843 74.4681 76.5281Z" fill="url(#paint1_linear_2406_8)"/>
<defs>
<linearGradient id="paint0_linear_2406_8" x1="3.51072" y1="37.6951" x2="69.946" y2="37.6951" gradientUnits="userSpaceOnUse">
<stop stop-color="#AE8ABE"/>
<stop offset="1" stop-color="#8390C8"/>
</linearGradient>
<linearGradient id="paint1_linear_2406_8" x1="0.0585938" y1="76.9" x2="74.4681" y2="76.9" gradientUnits="userSpaceOnUse">
<stop stop-color="#AE8ABE"/>
<stop offset="1" stop-color="#8390C8"/>
</linearGradient>
</defs>
</svg>
