<svg width="89" height="78" viewBox="0 0 89 78" fill="none" xmlns="http://www.w3.org/2000/svg">
<path d="M58.6071 51.9261C57.7967 51.2682 56.9701 50.5959 55.9814 49.7806C56.4677 49.0798 56.9539 48.3646 57.5374 47.5208C58.3478 47.9499 58.9313 48.2216 59.4823 48.5649C61.9297 50.081 64.4905 51.2968 67.6024 51.2968C68.3641 51.2968 69.1583 51.5685 69.8877 51.826C70.3901 51.9976 71.0708 52.3123 71.1843 52.6699C71.6543 54.3004 71.9623 55.9739 72.3188 57.633C72.6916 59.4352 72.1243 60.9514 70.6494 62.2815C69.3366 63.4687 68.8504 64.9419 68.9476 66.6725C69.0935 68.9753 68.9314 71.2925 69.0124 73.5953C69.0124 74.01 69.5797 74.4105 70.1632 75.1686C70.4873 74.339 70.7143 73.9957 70.7467 73.6524C71.0222 70.9635 71.2977 68.2745 71.4598 65.5855C71.5409 64.3126 72.1729 63.5545 73.4696 63.0825C75.5441 62.3101 77.5701 61.4663 79.7095 60.6224C78.7046 56.5317 77.7484 52.6556 76.7111 48.4648C75.0741 48.4648 73.6479 48.3932 72.2216 48.479C70.7629 48.5649 69.2231 48.6078 67.8779 49.0369C64.5553 50.1096 61.9459 48.7508 59.2878 47.392C58.7044 47.106 58.1533 46.7913 57.3591 46.3622C57.8778 45.5183 58.3154 44.7746 58.7205 44.131C61.5893 44.3169 63.2587 46.9772 66.4516 46.162C65.2199 43.473 65.2198 40.9413 68.1048 39.0104C70.1794 37.623 72.3837 37.7089 74.5069 38.753C77.3756 40.1547 77.3918 42.6148 77.0839 45.2609C79.6447 46.5195 80.5685 48.6936 81.0547 51.1394C81.5248 53.4994 82.1569 55.8308 82.5945 58.1908C82.8214 59.4352 83.3077 60.6796 82.5135 61.9811C82.2217 62.4674 82.481 63.3399 82.7241 63.955C83.8749 66.7727 85.1067 69.5761 86.3222 72.3652C86.9219 73.7526 87.554 75.1257 88.251 76.7133C87.4406 77.1424 86.8409 77.643 86.1602 77.7574C85.1715 77.929 84.118 77.7574 83.0969 77.829C81.4113 77.9291 80.2606 77.2139 79.4826 75.9982C77.8132 73.395 76.1924 70.7632 74.6689 68.3317C74.3934 70.6059 74.1341 73.1375 73.7613 75.6549C73.502 77.4427 73.1616 77.7717 71.2329 77.8003C66.9216 77.8575 65.2036 78.4154 65.4467 73.1805C65.5602 70.7775 65.4467 68.3603 65.463 65.9574C65.463 64.3268 65.7871 62.7392 67.1162 61.5092C69.288 59.4781 69.1745 57.2183 68.0076 54.6008C64.8309 54.0001 61.5083 53.4708 58.5909 51.8832L58.6233 51.9118L58.6071 51.9261ZM79.0288 64.1123C77.3756 65.0563 77.8295 66.0575 78.105 67.0015C78.9478 69.9193 81.4275 73.4808 83.5831 74.668C82.0434 71.0922 80.5847 67.7167 79.0288 64.1123ZM73.6316 43.3157C73.6803 41.9426 72.9509 41.1702 71.5733 41.1559C70.3091 41.1559 69.1097 42.0284 69.0287 43.0582C68.9314 44.1739 70.2118 45.2323 71.6381 45.2037C72.9185 45.1751 73.5992 44.5457 73.6479 43.3013L73.6316 43.3157Z" fill="url(#paint0_linear_2343_318)"/>
<path d="M11.3129 48.3217C10.5025 52.8128 9.0114 56.6746 8.8007 60.7939C10.6808 61.552 12.2853 62.2957 13.9871 62.8393C15.7051 63.3971 16.5156 64.4412 16.6938 65.9573C16.8397 67.3447 17.018 68.7464 17.0504 70.1481C17.0828 71.7358 17.5042 73.1804 18.6063 74.6107C18.7198 74.1816 18.9305 73.7525 18.9305 73.3091C18.9629 71.5069 18.8333 69.6904 18.9791 67.8882C19.1898 65.3852 18.8333 63.1253 16.6938 61.2659C15.5431 60.2647 15.3648 59.0489 15.7538 57.6616C16.2563 55.9309 16.548 54.143 16.9694 52.1549C21.54 50.8962 26.775 51.1394 30.3569 47.1774C31.2159 48.4075 31.7022 49.1083 32.2694 49.9093C28.6227 52.6269 24.7004 54.2145 20.0488 54.5006C19.8868 55.2873 19.8705 56.0024 19.5788 56.6174C18.7684 58.3195 19.2222 59.6354 20.5999 60.9799C21.9938 62.353 22.5772 64.0407 22.4962 65.9716C22.3827 69.0754 22.5448 72.1935 22.4962 75.3115C22.4638 77.3712 21.9937 77.7431 19.676 77.8289C18.3146 77.8718 16.9532 77.8289 15.7052 77.8289C13.6468 76.5273 14.2789 74.6822 14.052 73.0517C13.8251 71.3782 13.5172 69.719 13.3227 68.5605C11.7181 71.0635 9.93524 73.9385 8.03894 76.7705C7.73099 77.2282 7.03404 77.5714 6.45057 77.7573C5.38086 78.0863 2.38245 77.743 0.794098 77.2424C-0.0811175 75.9409 0.648229 74.768 1.19929 73.5523C2.57694 70.4771 3.90596 67.4019 5.23499 64.3125C5.4781 63.7546 5.88329 63.0967 5.73742 62.5961C4.39219 57.9762 7.05029 53.7854 7.55273 49.3658C7.74722 47.6351 9.07621 46.2477 11.2156 45.5755C10.1621 42.7148 10.9401 40.4121 13.7602 38.7672C15.9645 37.4943 18.1688 37.8089 20.1137 39.1248C22.6907 40.8841 23.0796 43.2584 21.6858 45.9473C24.8139 47.0487 26.5805 44.5743 29.4007 44.1738C29.7734 44.703 30.2597 45.3895 30.7945 46.1476C28.6227 47.8926 26.3536 49.2084 23.7766 49.3801C21.3454 49.5374 18.8495 48.8795 16.3859 48.622C14.8299 48.4647 13.274 48.4075 11.3129 48.2931V48.3217ZM9.04381 63.8977C8.1848 66.1004 7.40685 67.7595 6.8882 69.4616C6.36956 71.1779 4.68394 72.5939 5.25121 74.6393C6.66128 72.9944 7.9741 71.2924 8.94656 69.4616C9.64349 68.1457 9.96764 66.6582 10.308 65.2279C10.3728 64.9704 9.70832 64.5843 9.04381 63.8977ZM18.9143 43.0581C18.8495 41.8281 18.1363 41.1701 16.8397 41.1701C15.3648 41.1701 14.2789 42.1427 14.3113 43.43C14.3437 44.6601 15.2351 45.3037 16.8235 45.2179C18.3146 45.1321 18.9791 44.4455 18.9143 43.0581Z" fill="url(#paint1_linear_2343_318)"/>
<path d="M45.5917 0.306641V2.56655C42.6743 3.38182 42.334 3.13865 42.4961 0.306641H45.5917Z" fill="url(#paint2_linear_2343_318)"/>
<path d="M48.3147 54.8018V57.6481C47.4557 57.7339 46.7264 57.8197 45.8187 57.9055C45.4946 56.9901 45.2191 56.2034 44.8301 55.1021C46.1105 54.9877 47.0343 54.9162 48.3147 54.8018Z" fill="url(#paint3_linear_2343_318)"/>
<path d="M53.3879 53.4567C53.8093 54.6009 54.0686 55.3018 54.409 56.2458C53.3068 56.5748 52.4154 56.8465 51.3619 57.1612C51.054 56.3173 50.7784 55.6022 50.4219 54.6582C51.3133 54.2863 52.1561 53.9573 53.3879 53.4424V53.4567Z" fill="url(#paint4_linear_2343_318)"/>
<path d="M42.8203 55.1873V57.7333C41.9451 57.7333 41.1834 57.862 40.5026 57.7047C39.6274 57.5045 39.3357 56.8322 39.595 56.0742C40.0812 54.6868 41.1834 54.6581 42.8203 55.2017V55.1873Z" fill="url(#paint5_linear_2343_318)"/>
<path d="M67.0677 8.28731C66.0953 9.10258 65.447 9.6461 64.6528 10.304C63.81 9.6461 63.1942 9.15979 62.3027 8.45894C62.9672 7.71518 63.5345 7.07154 64.2152 6.31348C65.1553 6.97142 65.836 7.44341 67.0516 8.27299L67.0677 8.28731Z" fill="url(#paint6_linear_2343_318)"/>
<path d="M11.945 23.6211C13.9224 24.136 14.7922 25.0991 14.5545 26.5103H11.4102C11.6046 25.4662 11.7505 24.6795 11.9288 23.6211H11.945Z" fill="url(#paint7_linear_2343_318)"/>
<path d="M11.9453 34.2767C14.0523 33.7904 15.2517 34.334 15.5434 35.9073C14.8141 36.2077 14.0523 36.5366 12.8692 37.0229C12.5126 35.9788 12.2371 35.1349 11.9453 34.2767Z" fill="url(#paint8_linear_2343_318)"/>
<path d="M71.4756 19.5732C72.7398 19.1871 73.5502 18.9439 74.5065 18.6436C74.8792 19.4874 75.2034 20.1883 75.641 21.1752L72.7885 22.0763C72.3184 21.1895 71.9618 20.5173 71.4756 19.559V19.5732Z" fill="url(#paint9_linear_2343_318)"/>
<path d="M34.9924 53.6852C35.9 53.9713 36.5969 54.2001 37.5694 54.5005C37.4073 55.3873 37.2614 56.174 37.067 57.1895L33.793 56.3313C34.2468 55.3158 34.6034 54.5434 34.9924 53.6709V53.6852Z" fill="url(#paint10_linear_2343_318)"/>
<path d="M58.5744 51.8981C58.85 52.6276 59.1255 53.357 59.4659 54.2581C58.7203 54.6872 58.0234 55.0877 57.0833 55.6455C56.5323 54.773 56.0946 54.0579 55.6895 53.3999C56.4674 52.2843 57.4399 51.941 58.6069 51.9124L58.5744 51.8838V51.8981Z" fill="url(#paint11_linear_2343_318)"/>
<path d="M40.1784 2.92437C39.2708 3.21043 38.5576 3.43925 37.8931 3.65379C36.7262 2.92434 36.4183 2.08047 36.9207 1.03635C38.8116 0.62633 39.8921 1.25568 40.1622 2.92437H40.1784Z" fill="url(#paint12_linear_2343_318)"/>
<path d="M31.6369 55.6877C30.4375 55.1585 29.6596 54.8152 28.6709 54.3861L29.7406 52.0547C30.6968 52.2835 31.5072 52.4838 32.5607 52.7413C32.269 53.6853 32.0097 54.4862 31.6369 55.6877Z" fill="url(#paint13_linear_2343_318)"/>
<path d="M47.6182 2.88095C48.1692 1.44111 49.2606 0.749778 50.8921 0.806991V3.41016C50.4059 3.52458 50.1628 3.6676 49.9845 3.62469C49.2552 3.42445 48.542 3.18132 47.6182 2.88095Z" fill="url(#paint14_linear_2343_318)"/>
<path d="M73.5015 16.4405C72.4804 16.9125 71.7025 17.2558 70.7624 17.6849C70.26 16.9125 69.8548 16.2689 69.3037 15.4393C70.26 14.9387 71.0704 14.4953 72.1239 13.9375C72.6425 14.8815 73.0315 15.611 73.4853 16.4549L73.5015 16.4405Z" fill="url(#paint15_linear_2343_318)"/>
<path d="M20.1624 13.8655L17.5205 12.192L19.433 10.0752C20.292 10.6616 21.0375 11.1765 21.9452 11.7915C21.2969 12.5496 20.7783 13.136 20.1624 13.8655Z" fill="url(#paint16_linear_2343_318)"/>
<path d="M53.7934 1.53711C56.0085 2.0997 56.6082 3.22485 55.5925 4.91261C54.8307 4.66946 54.0365 4.41199 53.0479 4.09733C53.3072 3.22484 53.5179 2.49541 53.7934 1.53711Z" fill="url(#paint17_linear_2343_318)"/>
<path d="M28.6879 3.58203C29.1903 4.41161 29.5955 5.06953 30.0656 5.8419L27.7479 7.41524C27.0834 6.58566 26.5323 5.89914 25.8516 5.02665C26.8564 4.51174 27.683 4.09694 28.6879 3.58203Z" fill="url(#paint18_linear_2343_318)"/>
<path d="M60.4385 7.3862C59.4012 6.77116 58.6881 6.34208 57.748 5.78426C58.3964 4.98329 58.9312 4.29672 59.5957 3.48145C60.4872 4.03926 61.1841 4.48267 62.0107 5.01188C61.5082 5.78425 61.0869 6.44221 60.4548 7.40051L60.4385 7.3862Z" fill="url(#paint19_linear_2343_318)"/>
<path d="M26.0784 8.45983C24.9439 9.21789 24.2469 9.67557 23.4203 10.2334C22.7882 9.63266 22.2047 9.08913 21.5078 8.43119C22.2047 7.77325 22.7882 7.21544 23.5824 6.47168L26.0946 8.45983H26.0784Z" fill="url(#paint20_linear_2343_318)"/>
<path d="M73.6959 31.5014C73.7067 29.9663 74.4252 28.9889 75.8515 28.5693C76.4782 29.2845 76.7591 30.2094 76.6943 31.3441L73.6797 31.5014H73.6959Z" fill="url(#paint21_linear_2343_318)"/>
<path d="M68.4771 9.63184C69.2874 10.5472 69.8223 11.1337 70.5678 11.9489C69.6926 12.5353 68.947 13.0217 67.8773 13.7368C67.229 13.1218 66.7104 12.6355 66.0459 11.9918L68.4771 9.63184Z" fill="url(#paint22_linear_2343_318)"/>
<path d="M72.8701 24.1639C74.0209 23.8922 74.9285 23.692 76.1765 23.3916C76.29 24.5501 76.3548 25.3797 76.4358 26.1664C74.7718 26.5192 73.5833 25.8517 72.8701 24.1639Z" fill="url(#paint23_linear_2343_318)"/>
<path d="M16.5478 19.7875C16.1102 20.7458 15.8347 21.3609 15.4619 22.1905C14.6029 22.0045 13.8087 21.8186 12.6094 21.5468C12.9335 20.5456 13.209 19.7017 13.5494 18.6719C14.6839 19.101 15.4619 19.387 16.5478 19.7875Z" fill="url(#paint24_linear_2343_318)"/>
<path d="M14.6521 28.9268C14.7493 29.8851 14.7979 30.4572 14.8628 31.1723C13.8255 31.4298 12.8855 31.6729 11.5888 31.9876L11.4268 29.0841C12.5613 29.0269 13.4203 28.984 14.6359 28.9268H14.6521Z" fill="url(#paint25_linear_2343_318)"/>
<path d="M73.1779 33.6904C74.3124 33.8049 75.2362 33.8907 76.5004 34.0194C76.0952 35.1064 75.8035 35.8931 75.5118 36.6655C73.783 36.265 73.005 35.2733 73.1779 33.6904Z" fill="url(#paint26_linear_2343_318)"/>
<path d="M30.7949 2.4092C32.2698 2.20896 33.1775 1.95151 34.0365 2.05163C34.3444 2.09454 34.7496 3.00996 34.7172 3.51057C34.6685 4.62621 33.6799 4.86936 32.3832 4.89797C32.0105 4.31154 31.5891 3.66787 30.7949 2.4092Z" fill="url(#paint27_linear_2343_318)"/>
<path d="M17.1319 17.6274L14.6035 16.5689C15.0411 15.8538 15.2518 15.1387 15.7705 14.7525C16.6619 14.0945 17.5371 14.6095 18.072 15.2674C18.8337 16.2257 18.1206 16.9122 17.1319 17.6131V17.6274Z" fill="url(#paint28_linear_2343_318)"/>
<path d="M40.9409 33.8906L38.7204 32.4746C38.4935 32.5604 38.3477 32.6462 38.1856 32.6892C37.1807 32.9323 36.8079 33.5187 36.7917 34.4198C36.7917 35.4067 36.4675 35.6499 35.3654 35.7071C34.8306 35.7357 34.2957 35.7357 33.7771 35.7071C32.8695 35.6642 32.6101 35.4496 32.4805 34.6773C32.448 34.4913 32.4318 34.2911 32.3994 34.0908C32.3346 33.7905 32.2373 33.4901 32.1239 33.1182L30.568 32.4317L28.234 33.9335L25.4788 31.5592L27.0833 29.4996C27.0347 29.3851 26.9699 29.285 26.9374 29.1706C26.6781 28.1265 25.9812 27.6974 24.7494 27.7403C23.858 27.7689 23.6959 27.5544 23.6797 26.7391C23.6797 25.8809 23.6959 25.037 23.7121 24.1216L26.3864 23.621L27.0995 22.1764L25.7056 20.317C26.4674 19.373 27.4074 18.6721 28.3799 17.8712L30.6652 19.2872L32.3832 18.6579C32.4642 18.0857 32.5129 17.5422 32.6101 17.013C32.7074 16.4981 33.0315 16.1834 33.696 16.1977C34.6199 16.2263 35.5599 16.1977 36.4351 16.1977C37.3266 16.8843 36.9052 17.7997 37.1483 18.6435L38.8663 19.3158L41.184 17.8712C41.962 18.5577 42.7075 19.2014 43.4531 19.8593C43.8745 20.2312 43.7772 20.6317 43.4531 21.0179C43.0803 21.4469 42.6913 21.8617 42.3185 22.2765L43.0479 23.8499C43.9393 24.1073 44.9766 23.7068 45.8356 24.4792C45.8356 25.2801 45.8356 26.167 45.8356 27.0681C45.8356 27.4686 45.5925 27.726 45.1225 27.7975C44.4742 27.8976 43.8259 27.9977 43.0479 28.1122L42.3023 29.5854L43.8097 31.4591L40.9247 33.8906H40.9409ZM41.0867 19.2729C40.6491 19.5875 40.3088 19.8307 39.9846 20.0739C39.3849 20.5315 38.7691 20.6173 38.0397 20.2312C37.6345 20.0023 37.1483 19.8879 36.6945 19.7449C36.0462 19.5446 35.6248 19.23 35.6572 18.5577C35.6734 18.1429 35.5924 17.7281 35.56 17.2847H33.9392C33.9068 17.7138 33.8581 18.1 33.8419 18.4719C33.8095 19.1299 33.4692 19.5589 32.7236 19.7592C32.1888 19.9022 31.6539 20.1168 31.1515 20.3456C30.6166 20.5888 30.1466 20.5458 29.6766 20.2026C29.2714 19.9022 28.85 19.6305 28.6068 19.4588L27.294 20.2884L28.7365 22.1192C28.4285 22.6627 28.1854 23.0632 27.9747 23.4923C27.7478 23.95 27.5533 24.422 27.3588 24.8654L24.8953 25.2659V26.4816L27.3264 26.8535L28.7527 29.6855L27.3913 31.2731L28.4124 32.3888C28.9148 32.0312 29.32 31.7452 29.7252 31.4448C30.1142 31.173 30.5031 31.1301 30.9569 31.316C31.7835 31.6593 32.6426 31.974 33.5826 32.3316L34.0364 34.5056C34.5875 34.4055 35.1223 34.6344 35.6086 34.2911C35.641 33.8477 35.6086 33.4043 35.7058 32.9895C35.8031 32.6748 36.0138 32.2887 36.3055 32.16C37.2131 31.7738 38.1694 31.4877 39.1418 31.1587L41.1192 32.3888L42.1078 31.4305L40.714 29.6283L42.1564 26.8249C43.0155 26.5817 43.8583 26.9107 44.458 26.2385L44.3931 25.223C43.7448 25.1085 43.1289 25.037 42.5455 24.894C42.2861 24.8225 41.9457 24.6508 41.8485 24.4363C41.4433 23.621 41.1192 22.7771 40.7626 21.9475L42.1403 20.2169L41.0706 19.2157L41.0867 19.2729Z" fill="url(#paint29_linear_2343_318)"/>
<path d="M47.9911 40.7844L46.3218 41.8428C45.171 41.5138 44.4255 40.9274 43.6475 39.7116L44.9279 38.0811L44.2634 36.7795C43.8258 36.7509 43.4044 36.7223 42.9667 36.6793C42.2212 36.5935 42.0429 36.4362 42.0105 35.7926C41.9781 35.0488 42.0105 34.3193 42.0105 33.4612L44.312 32.9892L44.9441 31.7734L43.6151 30.1572C44.2472 29.2704 45.1224 28.6839 45.9976 27.9259L48.0074 29.0701L49.3202 28.6268L49.7902 26.6815C50.8113 26.3955 51.7837 26.5671 52.74 26.5528C53.21 26.5528 53.4369 26.8532 53.4856 27.2394C53.5342 27.6255 53.5504 28.0117 53.5828 28.4837L55.0739 29.1131L56.873 27.9831C57.9265 28.2692 58.4937 29.0558 59.1744 29.6995C59.3365 29.8425 59.2717 30.2001 59.2393 30.4575C59.2231 30.5863 59.0448 30.715 58.9476 30.8294C58.3857 31.5064 58.3424 32.2311 58.8179 33.0035L60.7952 33.3468C61.3949 34.2049 61.1842 35.0345 61.1518 35.8355C61.1518 36.3218 60.7466 36.6079 60.1955 36.6651C59.7579 36.708 59.3203 36.7223 58.8341 36.7509C58.6882 37.0512 58.5423 37.323 58.4127 37.5948C58.202 37.9952 58.2668 38.3528 58.6072 38.6675C58.7855 38.8391 58.9637 39.0108 59.1258 39.1967C59.45 39.5543 59.45 39.9261 59.0934 40.2551C58.4775 40.8129 57.8454 41.3421 57.1971 41.9143C56.8081 41.7426 56.4192 41.6711 56.2085 41.4566C55.4629 40.7415 54.6849 40.77 53.7125 41.3565C53.6638 41.6568 53.5504 42.0716 53.518 42.4864C53.4693 43.0013 53.1614 43.2874 52.6266 43.3589C51.7027 43.4876 50.7951 43.5592 49.8064 43.1587L49.3364 41.2563L47.9749 40.7557L47.9911 40.7844ZM46.6135 31.6876C46.3217 32.2025 46.0462 32.5315 45.9652 32.9034C45.7221 33.9618 45.0251 34.4338 43.8258 34.3766C43.7123 34.3766 43.5827 34.4624 43.4044 34.5339L43.5016 35.4064C43.761 35.435 43.9392 35.4779 44.1013 35.4779C45.09 35.4779 45.641 35.8498 45.8517 36.7366C45.9652 37.2229 46.2893 37.652 46.5649 38.2098L45.3817 39.683L46.0624 40.4125C46.2569 40.298 46.419 40.2265 46.5487 40.1264C47.3429 39.4971 48.0884 39.4112 49.1581 39.8117C50.3413 40.2551 51.0706 40.7128 50.9247 41.9C50.9247 42.0001 51.022 42.1002 51.103 42.2576L52.0755 42.1574C52.1565 41.6997 52.1889 41.2992 52.3024 40.9274C52.3834 40.6842 52.5455 40.3838 52.7886 40.2694C53.4531 39.9548 54.1501 39.6973 54.847 39.497C55.1063 39.4255 55.4629 39.4971 55.7222 39.6115C56.0788 39.7688 56.3543 40.0263 56.6785 40.2265C56.7757 40.2837 56.9216 40.3123 57.0837 40.3696L57.7806 39.6544C57.0026 38.8248 56.1598 38.0238 57.1647 36.9654C57.3916 35.6495 58.4289 35.3206 59.7741 35.4064V34.3909C59.3203 34.3623 58.9313 34.3337 58.5424 34.3051C58.0561 34.2765 57.6996 34.0476 57.5213 33.6471C57.2133 32.9606 56.954 32.2597 56.646 31.5446L57.7806 30.1L57.0999 29.299C56.6947 29.5851 56.4354 29.7424 56.2247 29.9283C55.6898 30.4146 55.1387 30.4003 54.4256 30.1715C53.0966 29.7567 52.0917 29.1703 52.1079 27.7686C52.1079 27.7114 51.9944 27.6541 51.9296 27.5826C51.6865 27.5826 51.411 27.5826 51.1517 27.5826C51.0868 27.5826 51.022 27.6684 50.9247 27.7399C50.9247 27.9116 50.8923 28.1118 50.8761 28.2978C50.8761 29.4992 50.714 29.4849 49.6443 29.7853C49.385 29.8568 49.1095 29.8997 48.8988 30.0284C48.1046 30.5004 47.4239 30.386 46.7918 29.771C46.6297 29.6137 46.3542 29.5421 46.111 29.4134L45.3007 30.0427L46.5811 31.6447L46.6135 31.6876Z" fill="url(#paint30_linear_2343_318)"/>
<path d="M44.4897 21.9754C44.749 21.6321 45.0083 21.3175 45.2514 21.0028C45.7539 20.3449 45.4135 19.5439 44.5221 19.3865C44.1331 19.315 43.7441 19.315 43.3389 19.2721C42.5448 18.4712 42.8851 17.5558 42.9661 16.6833C42.9823 16.5117 43.4686 16.3114 43.7765 16.2256C44.1817 16.1112 44.6355 16.0969 45.0569 16.054L45.5108 15.0098L44.3438 13.4508L46.5481 11.4913C46.9533 11.7058 47.3422 11.8346 47.6016 12.0777C48.2012 12.6069 48.7685 12.5354 49.4817 12.0777L49.9193 10.4329C50.989 10.2469 52.0263 10.3041 53.177 10.4185L53.4039 12.0634L54.5547 12.5354C54.9112 12.3209 55.2678 12.1206 55.6243 11.8918C56.4023 11.4055 56.5968 11.3768 57.2127 11.9203C57.7151 12.3494 58.4283 12.8215 58.4931 13.3364C58.5742 13.837 57.9583 14.4091 57.5855 15.067L57.9745 15.868C60.5677 16.34 60.1463 16.2828 60.1787 18.3138C60.1787 18.4998 60.1463 18.7 60.1301 18.8287C59.5952 19.501 58.7849 19.2578 58.0393 19.4295L57.5369 20.4593L58.6066 21.861C58.1366 22.6906 57.5693 23.2341 56.4347 23.9492C55.835 23.6632 55.2516 23.3056 54.6033 23.1053C54.344 23.0195 53.9549 23.2627 53.647 23.3485L53.2256 24.9934C52.399 25.6227 51.4428 25.4225 50.5514 25.3223C50.2596 25.2937 49.9354 24.9076 49.8058 24.6072C49.6599 24.3068 49.7248 23.9206 49.6761 23.5487C49.1899 23.277 48.7199 22.8908 48.104 23.1626C47.634 23.3628 47.245 23.6775 46.7912 23.9635C45.7539 23.5201 45.057 22.8479 44.4735 21.9754H44.4897ZM48.2499 13.9514L46.6777 13.0503L46.1915 13.5223L47.1801 14.8954C46.9532 15.4103 46.7425 15.7965 46.5805 16.197C46.3374 16.8406 45.997 17.3126 45.0893 17.2697C44.6517 17.2554 44.1817 17.3698 44.2628 17.9133C44.3438 17.9992 44.3924 18.0993 44.4573 18.0993C45.9646 18.1279 46.5643 18.9861 46.9208 20.116C46.9694 20.302 47.0667 20.4736 47.1639 20.6739L46.1267 22.0326L46.6777 22.4617L48.2499 21.5892C48.7847 21.7895 49.1737 21.9897 49.5951 22.0898C50.3893 22.2901 50.9728 22.5761 50.9079 23.4486C50.8755 23.8634 51.1997 24.078 51.7345 23.9492C51.7993 23.8634 51.929 23.7776 51.9452 23.6775C52.01 22.6619 52.707 22.19 53.7605 21.9897C54.1008 21.9182 54.3926 21.7466 54.7816 21.5892L56.3375 22.4903L56.8237 22.0183L55.8027 20.6309L56.8885 18.4425C57.2289 18.3853 57.5044 18.3853 57.7475 18.3138C58.0231 18.228 58.2824 18.0993 58.5418 17.9849C58.2662 17.3412 58.2662 17.2697 57.8286 17.284C56.9858 17.3126 56.6616 16.8692 56.4347 16.2685C56.2726 15.8251 56.0458 15.396 55.8189 14.8954L56.8399 13.5366L56.3051 13.0932L54.7492 13.9943L52.318 13.0646L51.8317 11.4627C51.07 11.3197 50.9241 11.763 50.9403 12.1206C50.9728 12.9788 50.4217 13.2792 49.6275 13.4794C49.1737 13.5938 48.7361 13.7941 48.2499 13.9657V13.9514Z" fill="url(#paint31_linear_2343_318)"/>
<path d="M30.0653 25.7234C29.8222 23.678 32.3182 21.5183 34.7493 21.5612C37.456 21.6184 39.5792 23.7066 39.4982 25.8235C39.4171 28.0976 37.4884 29.9142 34.7655 29.9714C32.0912 30.0286 30.049 28.1406 30.049 25.7234H30.0653ZM31.4429 25.8378C31.4105 27.5541 32.6585 28.7842 34.7493 28.8128C36.9698 28.8414 38.0557 27.3539 38.1205 25.752C38.1853 24.2358 36.4025 22.7912 34.7169 22.8199C33.2258 22.8342 31.2322 24.1357 31.4429 25.8378Z" fill="url(#paint32_linear_2343_318)"/>
<path d="M55.6892 34.8625C55.6892 36.8935 53.7119 38.6099 51.4428 38.567C49.2386 38.5241 47.3423 36.8077 47.3585 34.8339C47.3585 32.7743 48.882 31.2295 51.5401 31.1008C53.8253 30.9864 55.6892 32.8172 55.6892 34.8625ZM54.2954 34.8625C54.2954 33.4322 53.2095 32.4167 51.6049 32.3595C50.049 32.3023 48.801 33.3464 48.7686 34.7338C48.7361 36.1355 50.0165 37.337 51.5401 37.337C53.0474 37.337 54.2792 36.2356 54.2954 34.8625Z" fill="url(#paint33_linear_2343_318)"/>
<path d="M51.54 20.9743C49.2709 20.8742 47.7474 19.6727 47.7961 17.6274C47.8447 15.5534 49.3358 14.4092 51.5076 14.3663C53.5498 14.3234 55.284 15.5963 55.3812 17.6417C55.4623 19.4009 53.5984 20.9743 51.5562 20.9886L51.54 20.9743ZM51.54 19.7585C52.9177 19.7585 54.0198 18.8002 53.9874 17.6417C53.955 16.5117 52.8853 15.582 51.5886 15.5963C50.0813 15.5963 49.2385 16.3687 49.2547 17.7132C49.2547 19.0005 50.13 19.7585 51.54 19.7585Z" fill="url(#paint34_linear_2343_318)"/>
<defs>
<linearGradient id="paint0_linear_2343_318" x1="55.9814" y1="57.9334" x2="88.2185" y2="57.9334" gradientUnits="userSpaceOnUse">
<stop stop-color="#AE8ABE"/>
<stop offset="1" stop-color="#8390C8"/>
</linearGradient>
<linearGradient id="paint1_linear_2343_318" x1="0.388906" y1="57.9333" x2="32.2532" y2="57.9333" gradientUnits="userSpaceOnUse">
<stop stop-color="#AE8ABE"/>
<stop offset="1" stop-color="#8390C8"/>
</linearGradient>
<linearGradient id="paint2_linear_2343_318" x1="42.4637" y1="1.65114" x2="45.5917" y2="1.65114" gradientUnits="userSpaceOnUse">
<stop stop-color="#AE8ABE"/>
<stop offset="1" stop-color="#8390C8"/>
</linearGradient>
<linearGradient id="paint3_linear_2343_318" x1="44.8139" y1="56.3608" x2="48.3147" y2="56.3608" gradientUnits="userSpaceOnUse">
<stop stop-color="#AE8ABE"/>
<stop offset="1" stop-color="#8390C8"/>
</linearGradient>
<linearGradient id="paint4_linear_2343_318" x1="50.4057" y1="55.3161" x2="54.3927" y2="55.3161" gradientUnits="userSpaceOnUse">
<stop stop-color="#AE8ABE"/>
<stop offset="1" stop-color="#8390C8"/>
</linearGradient>
<linearGradient id="paint5_linear_2343_318" x1="39.514" y1="56.3173" x2="42.8203" y2="56.3173" gradientUnits="userSpaceOnUse">
<stop stop-color="#AE8ABE"/>
<stop offset="1" stop-color="#8390C8"/>
</linearGradient>
<linearGradient id="paint6_linear_2343_318" x1="62.3189" y1="8.33021" x2="67.0677" y2="8.33021" gradientUnits="userSpaceOnUse">
<stop stop-color="#AE8ABE"/>
<stop offset="1" stop-color="#8390C8"/>
</linearGradient>
<linearGradient id="paint7_linear_2343_318" x1="11.4102" y1="25.0657" x2="14.7165" y2="25.0657" gradientUnits="userSpaceOnUse">
<stop stop-color="#AE8ABE"/>
<stop offset="1" stop-color="#8390C8"/>
</linearGradient>
<linearGradient id="paint8_linear_2343_318" x1="11.9453" y1="35.4353" x2="15.5434" y2="35.4353" gradientUnits="userSpaceOnUse">
<stop stop-color="#AE8ABE"/>
<stop offset="1" stop-color="#8390C8"/>
</linearGradient>
<linearGradient id="paint9_linear_2343_318" x1="71.4756" y1="20.3599" x2="75.6572" y2="20.3599" gradientUnits="userSpaceOnUse">
<stop stop-color="#AE8ABE"/>
<stop offset="1" stop-color="#8390C8"/>
</linearGradient>
<linearGradient id="paint10_linear_2343_318" x1="33.793" y1="55.4445" x2="37.5694" y2="55.4445" gradientUnits="userSpaceOnUse">
<stop stop-color="#AE8ABE"/>
<stop offset="1" stop-color="#8390C8"/>
</linearGradient>
<linearGradient id="paint11_linear_2343_318" x1="55.6895" y1="53.7718" x2="59.4821" y2="53.7718" gradientUnits="userSpaceOnUse">
<stop stop-color="#AE8ABE"/>
<stop offset="1" stop-color="#8390C8"/>
</linearGradient>
<linearGradient id="paint12_linear_2343_318" x1="36.6938" y1="2.18059" x2="40.1784" y2="2.18059" gradientUnits="userSpaceOnUse">
<stop stop-color="#AE8ABE"/>
<stop offset="1" stop-color="#8390C8"/>
</linearGradient>
<linearGradient id="paint13_linear_2343_318" x1="28.6709" y1="53.8712" x2="32.5769" y2="53.8712" gradientUnits="userSpaceOnUse">
<stop stop-color="#AE8ABE"/>
<stop offset="1" stop-color="#8390C8"/>
</linearGradient>
<linearGradient id="paint14_linear_2343_318" x1="47.6182" y1="2.19439" x2="50.8921" y2="2.19439" gradientUnits="userSpaceOnUse">
<stop stop-color="#AE8ABE"/>
<stop offset="1" stop-color="#8390C8"/>
</linearGradient>
<linearGradient id="paint15_linear_2343_318" x1="69.3199" y1="15.7969" x2="73.5015" y2="15.7969" gradientUnits="userSpaceOnUse">
<stop stop-color="#AE8ABE"/>
<stop offset="1" stop-color="#8390C8"/>
</linearGradient>
<linearGradient id="paint16_linear_2343_318" x1="17.5205" y1="11.9775" x2="21.9452" y2="11.9775" gradientUnits="userSpaceOnUse">
<stop stop-color="#AE8ABE"/>
<stop offset="1" stop-color="#8390C8"/>
</linearGradient>
<linearGradient id="paint17_linear_2343_318" x1="53.0479" y1="3.22486" x2="56.5811" y2="3.22486" gradientUnits="userSpaceOnUse">
<stop stop-color="#AE8ABE"/>
<stop offset="1" stop-color="#8390C8"/>
</linearGradient>
<linearGradient id="paint18_linear_2343_318" x1="25.8678" y1="5.49864" x2="30.0818" y2="5.49864" gradientUnits="userSpaceOnUse">
<stop stop-color="#AE8ABE"/>
<stop offset="1" stop-color="#8390C8"/>
</linearGradient>
<linearGradient id="paint19_linear_2343_318" x1="57.748" y1="5.42668" x2="61.9945" y2="5.42668" gradientUnits="userSpaceOnUse">
<stop stop-color="#AE8ABE"/>
<stop offset="1" stop-color="#8390C8"/>
</linearGradient>
<linearGradient id="paint20_linear_2343_318" x1="21.4916" y1="8.35969" x2="26.0784" y2="8.35969" gradientUnits="userSpaceOnUse">
<stop stop-color="#AE8ABE"/>
<stop offset="1" stop-color="#8390C8"/>
</linearGradient>
<linearGradient id="paint21_linear_2343_318" x1="73.6959" y1="30.0425" x2="76.7591" y2="30.0425" gradientUnits="userSpaceOnUse">
<stop stop-color="#AE8ABE"/>
<stop offset="1" stop-color="#8390C8"/>
</linearGradient>
<linearGradient id="paint22_linear_2343_318" x1="66.0459" y1="11.6772" x2="70.5678" y2="11.6772" gradientUnits="userSpaceOnUse">
<stop stop-color="#AE8ABE"/>
<stop offset="1" stop-color="#8390C8"/>
</linearGradient>
<linearGradient id="paint23_linear_2343_318" x1="72.8701" y1="24.922" x2="76.4358" y2="24.922" gradientUnits="userSpaceOnUse">
<stop stop-color="#AE8ABE"/>
<stop offset="1" stop-color="#8390C8"/>
</linearGradient>
<linearGradient id="paint24_linear_2343_318" x1="12.6094" y1="20.4312" x2="16.5478" y2="20.4312" gradientUnits="userSpaceOnUse">
<stop stop-color="#AE8ABE"/>
<stop offset="1" stop-color="#8390C8"/>
</linearGradient>
<linearGradient id="paint25_linear_2343_318" x1="11.443" y1="30.4572" x2="14.8628" y2="30.4572" gradientUnits="userSpaceOnUse">
<stop stop-color="#AE8ABE"/>
<stop offset="1" stop-color="#8390C8"/>
</linearGradient>
<linearGradient id="paint26_linear_2343_318" x1="73.0806" y1="35.178" x2="76.5166" y2="35.178" gradientUnits="userSpaceOnUse">
<stop stop-color="#AE8ABE"/>
<stop offset="1" stop-color="#8390C8"/>
</linearGradient>
<linearGradient id="paint27_linear_2343_318" x1="30.7949" y1="3.46764" x2="34.7172" y2="3.46764" gradientUnits="userSpaceOnUse">
<stop stop-color="#AE8ABE"/>
<stop offset="1" stop-color="#8390C8"/>
</linearGradient>
<linearGradient id="paint28_linear_2343_318" x1="14.6035" y1="16.0398" x2="18.3961" y2="16.0398" gradientUnits="userSpaceOnUse">
<stop stop-color="#AE8ABE"/>
<stop offset="1" stop-color="#8390C8"/>
</linearGradient>
<linearGradient id="paint29_linear_2343_318" x1="23.6797" y1="25.9667" x2="45.8356" y2="25.9667" gradientUnits="userSpaceOnUse">
<stop stop-color="#AE8ABE"/>
<stop offset="1" stop-color="#8390C8"/>
</linearGradient>
<linearGradient id="paint30_linear_2343_318" x1="42.0267" y1="35.0059" x2="61.2328" y2="35.0059" gradientUnits="userSpaceOnUse">
<stop stop-color="#AE8ABE"/>
<stop offset="1" stop-color="#8390C8"/>
</linearGradient>
<linearGradient id="paint31_linear_2343_318" x1="42.8203" y1="17.8704" x2="60.2111" y2="17.8704" gradientUnits="userSpaceOnUse">
<stop stop-color="#AE8ABE"/>
<stop offset="1" stop-color="#8390C8"/>
</linearGradient>
<linearGradient id="paint32_linear_2343_318" x1="30.0491" y1="25.7806" x2="39.5144" y2="25.7806" gradientUnits="userSpaceOnUse">
<stop stop-color="#AE8ABE"/>
<stop offset="1" stop-color="#8390C8"/>
</linearGradient>
<linearGradient id="paint33_linear_2343_318" x1="47.3585" y1="34.8196" x2="55.6892" y2="34.8196" gradientUnits="userSpaceOnUse">
<stop stop-color="#AE8ABE"/>
<stop offset="1" stop-color="#8390C8"/>
</linearGradient>
<linearGradient id="paint34_linear_2343_318" x1="47.7961" y1="17.6703" x2="55.365" y2="17.6703" gradientUnits="userSpaceOnUse">
<stop stop-color="#AE8ABE"/>
<stop offset="1" stop-color="#8390C8"/>
</linearGradient>
</defs>
</svg>
