<svg width="90" height="85" viewBox="0 0 90 85" fill="none" xmlns="http://www.w3.org/2000/svg">
<path d="M46.5743 69.1986C46.5743 67.7969 46.6067 66.3809 46.5581 64.9792C46.5257 64.2926 46.5419 63.4916 46.1529 62.9481C44.7914 61.0601 44.5321 59.0291 44.678 56.8836C44.9049 53.8657 43.7217 51.4199 41.0636 49.4746C37.968 47.2148 35.5044 44.4829 33.8026 41.2361C27.1251 28.4921 36.0231 14.2319 50.3183 11.214C63.5762 8.42486 76.672 16.1628 79.5407 27.9056C81.356 35.3289 78.8276 41.7224 73.2521 47.3006C72.1338 48.4305 70.8372 49.4317 69.6054 50.4759C67.6119 52.1636 66.688 54.2662 66.6394 56.6691C66.5908 58.8574 66.8664 61.0601 65.3915 63.0911C64.9701 63.6776 65.1645 64.6502 65.1483 65.4511C65.1321 68.2546 65.0673 71.0723 65.1645 73.8757C65.2294 75.8066 64.192 76.8507 62.2633 77.4657C58.0493 78.8102 53.7867 78.7101 49.5727 77.5801C47.7088 77.0795 46.5257 75.9067 46.5743 74.0044C46.6229 72.4024 46.5743 70.7862 46.5743 69.1842V69.1986ZM49.751 42.08C48.7785 41.7224 47.9195 41.4649 47.1254 41.093C44.4835 39.8487 42.2468 38.3039 40.9502 35.7294C39.686 33.255 41.5175 30.6804 43.3165 29.765C45.3587 28.7352 48.4544 29.4217 49.8969 31.4385C50.8531 32.783 51.5663 34.2848 52.1984 35.7723C52.7008 36.9595 52.9277 38.2467 53.3005 39.5769L57.1579 39.391C57.5793 37.8176 57.8548 36.4445 58.3086 35.1144C58.9407 33.2836 59.8646 31.5672 61.615 30.3085C63.3655 29.0499 65.6345 28.9927 67.5957 30.1798C69.5406 31.3527 70.2537 33.255 69.4595 35.143C68.4222 37.6174 66.4773 39.3767 63.9165 40.621C62.8306 41.1503 61.7285 41.6223 60.5292 42.1801C60.2698 48.3304 60.2536 54.4235 60.5939 60.5166H63.0575C63.0575 59.2722 63.0575 58.1852 63.0575 57.0982C63.09 53.0647 64.8565 49.775 68.3574 47.1289C74.4839 42.509 77.1258 36.702 76.0723 29.5505C74.1111 16.2343 56.7041 9.32595 44.1918 17.0353C37.1414 21.3834 33.6081 29.3502 35.8448 36.845C37.0766 40.9929 39.605 44.3112 43.3003 47.0002C45.6342 48.7023 47.4657 50.7476 48.114 53.3794C48.5354 55.1243 48.5354 56.9408 48.7623 58.7287C48.8433 59.3438 49.0379 59.9588 49.2486 60.8742C51.1449 57.7561 51.2583 51.9491 49.751 42.0657V42.08ZM56.8337 60.5881C56.7365 57.5702 56.7689 54.7382 56.4123 51.8489C56.072 48.9454 56.6555 45.9561 56.8337 42.9095H53.6895C53.8839 44.5401 54.1595 45.999 54.1919 47.4579C54.2729 51.0623 54.2081 54.6523 54.2405 58.2567C54.2405 59.0291 54.3702 59.7871 54.4512 60.5881H56.8337ZM61.9716 71.3297C61.1288 70.4572 60.7236 69.6419 60.1563 69.5275C57.1093 68.9554 54.0136 68.5406 50.918 68.1687C50.7235 68.1401 50.4317 68.841 49.9941 69.456C54.0298 70.0853 57.7089 70.6575 61.9716 71.3154V71.3297ZM61.5016 64.0208H50.5776L50.4965 64.4928C54.1271 65.0936 57.7576 65.68 61.5016 66.295V64.0208ZM48.7785 38.3469L49.4268 37.9178C48.6651 36.4159 47.9843 34.8855 47.1415 33.4123C46.6877 32.6256 45.8125 32.2824 44.8725 32.783C43.9162 33.2979 44.0459 34.0702 44.4349 34.8712C45.3101 36.6305 47.0605 37.4744 48.7785 38.3469ZM60.5129 74.2904C58.3087 73.9615 56.7851 73.704 55.2292 73.5038C53.6246 73.2892 52.0038 73.1319 49.6699 72.8601C50.4641 73.847 50.691 74.4335 51.1448 74.6623C52.9763 75.5348 57.4497 75.4061 60.5129 74.2904ZM66.3801 33.5553C64.5324 32.3539 64.1759 32.2967 63.2358 33.2979C61.9392 34.6853 61.3557 36.3015 61.2909 38.2896C63.8193 37.2741 65.4563 35.8867 66.3801 33.5553Z" fill="url(#paint0_linear_2343_78)"/>
<path d="M74.6782 83.7872C72.7657 85.3749 72.0039 85.3892 71.0152 83.7872C69.3458 81.0983 68.6651 78.1375 68.5516 75.1339C68.2599 67.5819 71.0152 60.7593 75.3751 54.3802C77.0121 51.9772 78.7787 49.6315 80.5291 47.3001C86.3477 39.5908 87.0122 31.3236 83.1386 22.9563C78.0493 12.0145 68.5679 5.36357 55.2776 3.73303C46.1202 2.60308 36.8819 3.00357 28.5835 7.38031C19.5396 12.1575 13.6562 18.9658 12.1327 28.3629C11.9544 29.4213 12.2623 30.537 12.4406 31.624C12.9106 34.2558 12.9269 36.8303 11.2737 39.2046C9.37742 41.9365 7.41628 44.6255 5.48756 47.343C4.95271 48.0868 4.43407 48.8449 3.76955 49.7746C4.77443 50.1751 5.55236 50.504 6.36274 50.8044C9.53945 51.9343 9.68534 53.665 9.02083 56.168C8.77771 57.112 8.21045 57.9988 7.70801 59.0859C8.68047 59.3147 9.47466 59.3862 10.1068 59.7009C10.7551 60.0156 11.2575 60.5877 11.8572 61.074C11.6141 61.5746 11.4682 61.9465 11.2737 62.2897C11.1278 62.5615 10.9333 62.8047 10.7712 63.0335C10.8847 63.2337 10.9171 63.4769 11.063 63.5627C12.2786 64.1921 12.7648 65.1361 12.6513 66.3375C12.5379 67.6391 12.3272 68.9264 12.311 70.2279C12.311 71.4008 12.3596 72.5879 12.6352 73.7322C12.9593 75.0624 14.0776 75.7489 15.6174 75.7489C16.9788 75.7489 18.3726 75.8061 19.6855 75.563C26.8493 74.2042 33.6403 72.0444 39.5075 68.0253C41.112 66.9239 41.3876 67.0098 43.3487 68.6832C42.5221 69.5557 41.6793 70.4425 40.642 71.5295C40.7393 72.1302 40.869 72.9026 40.9986 73.6893C41.5821 77.3652 41.3551 80.898 38.7295 84.0018C37.5788 85.3606 37.0763 85.3034 35.1152 83.8302C37.3357 80.7264 38.2433 77.3366 37.3519 73.3889C36.3794 73.7179 35.5366 73.9324 34.7586 74.2757C30.3015 76.3067 25.6499 77.8944 20.6742 78.5809C19.5558 78.7383 18.4375 78.9242 17.3192 78.9528C11.1926 79.0815 7.61074 75.4343 8.50217 70.042C8.63183 69.2553 8.84254 68.4687 8.97221 67.682C9.02083 67.3959 8.93981 67.0813 8.89119 66.6522L6.41141 65.179C6.24933 63.7057 6.18449 62.3613 4.7258 61.1741C3.55884 60.2301 4.07749 58.5423 4.62856 57.1836C5.03375 56.1823 5.39032 55.1811 5.79551 54.1084C4.53131 53.6221 3.59124 53.3074 2.68361 52.9069C0.0579675 51.7198 -0.590318 49.9319 0.933205 47.7149C2.10016 45.9986 3.46158 44.3823 4.70957 42.7089C5.47134 41.7076 6.2169 40.7064 6.94624 39.6909C8.79392 37.1307 9.31255 34.4703 8.64803 31.3951C7.7404 27.2186 9.23155 23.2281 11.2737 19.495C16.606 9.79752 25.3582 3.73303 37.1412 1.02975C41.2417 0.0857462 45.4395 0.38611 49.6049 0.314595C54.062 0.24308 58.4057 0.715081 62.6521 2.01666C76.3476 6.22176 84.7593 14.775 88.1143 26.9898C90.1565 34.4274 88.7627 41.679 83.9166 48.2727C81.0802 52.1346 78.2439 56.0393 75.8613 60.13C73.3005 64.521 72.0363 69.2982 71.9877 74.3043C71.9715 76.8646 72.7008 79.2532 73.6084 81.6275C73.9002 82.3712 74.2891 83.1007 74.6133 83.7872H74.6782Z" fill="url(#paint1_linear_2343_78)"/>
<defs>
<linearGradient id="paint0_linear_2343_78" x1="31.5498" y1="44.5544" x2="80.1242" y2="44.5544" gradientUnits="userSpaceOnUse">
<stop stop-color="#AE8ABE"/>
<stop offset="1" stop-color="#8390C8"/>
</linearGradient>
<linearGradient id="paint1_linear_2343_78" x1="0.171437" y1="42.6516" x2="89.0868" y2="42.6516" gradientUnits="userSpaceOnUse">
<stop stop-color="#AE8ABE"/>
<stop offset="1" stop-color="#8390C8"/>
</linearGradient>
</defs>
</svg>
