<svg width="115" height="112" viewBox="0 0 115 112" fill="none" xmlns="http://www.w3.org/2000/svg">
<path d="M105.599 60.8553C106.592 60.7135 107.632 60.8553 108.626 60.7607C112.432 60.4297 113.615 59.2949 113.875 55.394C114.064 52.5333 114.088 49.649 113.946 46.8119C113.851 44.8732 113.331 42.9582 112.976 40.9487C110.021 40.4522 107.538 40.0975 105.079 39.6247C102.785 39.1518 102.099 37.5442 103.424 35.5346C104.44 33.9979 105.646 32.603 106.805 31.1608C107.751 30.0024 108.176 28.7966 107.16 27.4963C104.464 24.0682 102.005 20.451 98.1743 18.0395C94.5093 15.7462 94.4147 15.6752 91.2226 18.2759C89.7093 19.5053 88.0541 20.5455 85.9024 22.0823C84.9802 20.0254 84.2472 18.6069 83.727 17.1174C83.4669 16.3609 83.6088 15.4389 83.5378 14.6114C83.2541 11.1123 83.2777 11.0178 79.9674 10.3558C77.2009 9.78838 74.3634 9.48102 70.8639 8.93725C68.7595 2.24654 63.8648 0.0951262 56.9604 0.236979C42.6313 0.520684 28.2786 0.5916 13.9495 0.189684C5.72087 -0.0467365 0.306052 5.67467 0.400634 13.4293C0.708024 41.918 0.613439 70.4067 0.471567 98.9191C0.424276 106.414 5.03515 111.402 12.5071 111.473C28.2076 111.615 43.8845 111.544 59.585 111.473C64.1486 111.473 67.8136 109.369 69.7999 105.279C70.8403 103.104 70.9348 100.432 71.2186 97.9498C71.455 95.8456 71.3604 93.6942 71.4077 91.5191C74.7654 91.0936 77.5792 90.6443 80.393 90.3843C82.4265 90.1951 83.4669 89.2258 83.5378 87.1926C83.5851 86.0105 83.5378 84.8047 83.7743 83.6699C84.1053 81.8731 84.46 79.9818 86.9191 79.2489C88.5507 80.4546 90.2767 81.7549 92.0265 83.0316C94.3438 84.7575 94.8167 84.7575 97.4176 83.1498C101.343 80.691 104.369 77.3811 106.947 73.5511C108.129 71.8016 107.845 70.5013 106.521 69.0591C105.386 67.8297 104.275 66.5294 103.447 65.0872C102.123 62.8412 103.022 61.2099 105.646 60.8553H105.599ZM66.2294 99.2737C66.0639 104.026 63.7703 106.366 58.9703 106.414C48.3298 106.485 37.7131 106.414 27.0726 106.414C22.5091 106.414 17.9692 106.485 13.4056 106.414C7.63612 106.319 5.60262 104.262 5.57898 98.3753C5.53169 78.3032 5.57898 58.231 5.57898 38.1589C5.57898 29.8842 5.81544 21.633 5.50805 13.3583C5.31888 8.32255 8.48736 5.13087 13.4056 5.2018C28.4204 5.43822 43.4589 5.32 58.4737 5.27272C61.7604 5.27272 64.5033 5.95835 66.0402 10.0484C63.0609 11.7979 63.321 14.7532 63.2501 17.6376C63.2264 18.9142 63.3919 20.4037 61.1693 20.5219C60.9092 19.9072 60.6018 19.3634 60.4126 18.796C59.0885 14.4695 56.5348 12.4363 51.9949 12.3417C47.786 12.2472 43.5535 12.3181 39.3446 12.3181C32.9367 12.3181 26.5051 12.3654 20.0972 12.2944C17.1652 12.2471 14.848 13.3583 13.0036 15.5098C12.3888 16.2427 11.7504 17.1884 11.6322 18.1104C11.2302 21.0893 10.8519 24.1155 10.8283 27.118C10.7573 43.3129 10.7573 59.5077 10.8283 75.7025C10.8283 78.3741 11.1593 81.0693 11.6559 83.6936C12.2706 87.0271 14.5169 88.8948 17.9219 89.3204C18.7495 89.415 19.6007 89.3913 20.4519 89.3913C30.5722 89.3913 40.716 89.3913 50.8362 89.3913C53.2481 89.3913 55.5653 89.1785 57.4806 87.5472C59.0412 86.1996 60.4126 84.8284 60.4363 82.5115C60.4363 81.4948 60.9801 80.4546 61.3112 79.3671C63.7939 80.5255 63.2265 82.4169 63.2737 84.0009C63.3683 86.2233 63.3683 88.3274 65.3072 89.9824C65.9456 90.5261 66.1585 91.7792 66.2057 92.7249C66.3476 94.8999 66.3476 97.0986 66.2531 99.2974L66.2294 99.2737ZM43.3643 34.6835C45.5397 37.4969 44.7357 39.2701 41.2362 39.7429C39.0845 40.0266 36.9328 40.4285 34.4973 40.8305C31.9909 46.1972 32.7475 51.895 33.4096 57.4981C33.6461 59.555 35.3722 60.548 37.4057 60.7135C39.3919 60.879 41.4018 60.9262 43.317 61.0208C43.7426 62.5969 42.3948 66.0881 39.2737 71.4943C41.6382 76.3882 45.2796 80.3837 50.8599 83.9064C48.8028 84.1428 47.8569 84.3319 46.9348 84.3556C38.4934 84.3792 30.052 84.4265 21.6342 84.3792C16.7396 84.3792 15.8174 83.4099 15.8174 78.3741C15.8174 60.5007 15.8174 42.6272 15.8174 24.7538C15.8174 24.0682 15.7938 23.4062 15.8411 22.7206C16.1485 18.4414 17.1889 17.4011 21.3977 17.3775C29.4845 17.3302 37.5948 17.3775 45.6816 17.3775C46.32 17.3775 46.9584 17.5193 48.85 17.7557C44.2628 21.5148 40.8579 24.9193 38.9899 29.7423C40.4796 31.4209 42.0165 32.9576 43.3407 34.6599L43.3643 34.6835ZM98.6945 59.2476C98.1743 60.8316 97.4886 62.3684 96.7319 64.2834C98.3635 66.6949 100.137 69.2955 102.099 72.1799C99.7822 74.4022 97.6541 76.4591 95.3841 78.6578C93.7763 77.6412 92.4521 76.9319 91.2699 76.0335C90.2058 75.2297 89.26 74.2604 88.0541 73.1965C86.3753 73.8348 84.7201 74.5677 82.994 75.1115C80.6058 75.868 79.6363 77.3811 79.3526 79.9108C78.6196 86.1996 78.0048 86.6016 71.6915 86.1287C70.722 86.0578 69.7762 85.6795 68.6885 85.4195C68.4757 83.7881 68.3575 82.2987 68.0974 80.8329C67.8609 79.5089 67.4826 78.2322 67.1043 76.6009C64.7634 75.5134 62.2333 74.3076 59.5614 73.0546C57.1259 74.875 54.7377 76.6482 52.5387 78.2795C48.8737 77.0029 47.0766 74.4022 45.3978 71.5652C45.9653 70.7613 46.4855 69.9102 47.1003 69.1064C51.1909 63.6687 50.9308 65.5364 48.3771 58.8693C47.455 56.4342 46.0363 55.8904 43.8372 55.9141C37.6658 55.9614 37.9259 55.394 37.9968 49.3889C38.0441 45.1097 38.2096 44.9678 42.6313 44.7314C43.4825 44.6841 44.3101 44.6605 45.1614 44.6605C46.6983 44.6605 47.5495 43.9039 48.1643 42.4618C50.718 36.5985 50.7417 36.5985 46.9584 31.2554C46.4855 30.5698 45.9653 29.9078 45.4924 29.2695C46.5643 27.0944 48.984 24.6277 52.7515 21.8695C55.8964 24.3283 58.1663 27.8037 63.6284 25.7941C69.5634 23.5954 67.459 18.7251 68.8304 14.7532H78.123C78.7615 17.8976 79.3762 20.7819 79.991 23.8318C85.6186 28.6075 90.5841 26.5033 95.1713 21.4203C97.5122 23.8791 99.5931 26.0778 102.029 28.6311C100.279 31.019 98.5053 33.3832 96.6137 35.9365C96.9447 36.8113 97.394 37.7097 97.6068 38.6554C98.5999 43.0292 100.988 45.3934 105.812 44.8023C107.798 44.5659 108.957 45.7007 108.957 47.8049C108.957 50.1454 108.957 52.4624 108.957 55.394C106.427 55.6068 104.795 55.8432 103.14 55.8668C100.775 55.8905 99.4275 57.0253 98.6945 59.224V59.2476Z" fill="url(#paint0_linear_2399_3)"/>
<path d="M73.4422 32.5532C65.0481 32.0804 55.6609 39.6458 55.8737 50.5212C56.0865 60.4272 63.5821 67.9691 73.4185 68.0164C83.8225 68.04 91.4127 60.5927 91.4127 49.8119C91.4127 39.6931 82.6402 32.3641 73.4422 32.5532ZM66.0175 59.8835C61.7141 58.394 61.1466 54.7058 60.5081 51.5614C59.6096 47.1404 61.5958 43.5231 66.0175 40.0005V59.8835ZM84.3664 57.1173C81.5762 61.5857 77.2964 63.5007 72.0235 62.9097C71.0777 59.1742 70.8648 44.327 71.6688 37.8963C77.4855 36.6196 81.387 39.2439 84.39 43.4049C87.6058 47.8733 87.1329 52.6963 84.39 57.1173H84.3664Z" fill="url(#paint1_linear_2399_3)"/>
<defs>
<linearGradient id="paint0_linear_2399_3" x1="0.400634" y1="55.8432" x2="114.04" y2="55.8432" gradientUnits="userSpaceOnUse">
<stop stop-color="#AE8ABE"/>
<stop offset="1" stop-color="#8390C8"/>
</linearGradient>
<linearGradient id="paint1_linear_2399_3" x1="55.8737" y1="50.2611" x2="91.4127" y2="50.2611" gradientUnits="userSpaceOnUse">
<stop stop-color="#AE8ABE"/>
<stop offset="1" stop-color="#8390C8"/>
</linearGradient>
</defs>
</svg>
