<svg width="114" height="114" viewBox="0 0 114 114" fill="none" xmlns="http://www.w3.org/2000/svg">
<path d="M0.366952 86.0594C0.53247 89.0147 1.07634 89.653 3.93743 89.7239C7.31872 89.8185 10.6763 89.7239 14.0576 89.7712C15.1689 89.7712 16.2803 90.0549 17.6281 90.2441C17.6281 94.5469 17.6281 98.5897 17.6281 102.609C17.6281 105.139 17.5099 107.668 17.6754 110.198C17.8646 112.917 19.4015 113.768 21.766 112.515C22.8064 111.971 23.7523 111.238 24.6508 110.505C31.5789 104.666 38.5069 98.8025 45.4114 92.9393C48.0597 90.6696 50.8971 89.6057 54.5621 89.6766C66.3612 89.913 78.1603 89.6057 89.983 89.8421C95.3742 89.9367 96.7455 88.4 96.509 83.5061C96.3199 80.0307 96.5564 76.5317 96.6037 72.5598C101.12 72.5598 104.832 72.6071 108.545 72.5598C112.588 72.4889 113.676 71.4959 113.676 67.5004C113.723 46.9317 113.723 26.3868 113.652 5.81813C113.652 4.09226 112.919 2.39002 112.517 0.545937H107.953C81.1396 0.545937 54.3257 0.545937 27.5118 0.545937C25.3128 0.545937 23.1138 0.451368 20.9385 0.545937C18.3848 0.664147 17.7226 1.30248 17.6044 3.92676C17.4625 6.95295 17.6044 10.0028 17.5099 13.029C17.4862 14.4711 17.2498 15.9133 17.1079 17.521C15.3109 17.6155 13.9867 17.7574 12.6626 17.781C9.80149 17.8047 6.91672 17.7101 4.05563 17.8047C1.09995 17.8992 0.532447 18.5139 0.343284 21.3746C0.295993 22.0366 0.343284 22.7222 0.343284 23.4079C0.343284 43.4564 0.343307 63.5048 0.366952 83.5533C0.366952 84.4044 0.319661 85.2319 0.366952 86.083V86.0594ZM22.6172 7.89863C22.7118 5.53442 23.232 5.10888 25.7147 4.91974C26.5423 4.84881 27.3936 4.91974 28.2448 4.91974C53.5454 4.91974 78.846 4.91974 104.147 4.91974C105.305 4.91974 106.464 5.03794 107.859 5.13251C108.143 6.14912 108.616 7.07116 108.616 7.9932C108.663 27.2142 108.663 46.4116 108.639 65.6326C108.639 66.1055 108.403 66.5783 108.214 67.2876H96.7929C96.6983 65.8454 96.4855 64.4032 96.4855 62.9611C96.4855 49.9816 96.4855 37.002 96.4855 24.0225C96.4855 22.8404 96.5091 21.6583 96.4382 20.4762C96.3436 18.8922 95.3977 18.0175 93.8844 17.8756C92.7258 17.7574 91.5199 17.8283 90.3376 17.8283C69.6006 17.8283 48.84 17.8283 28.1029 17.8283C26.4478 17.8283 24.7927 17.8283 22.5937 17.8283C22.5937 13.9983 22.5226 10.9721 22.6172 7.94592V7.89863ZM5.71083 23.5497C5.71083 23.5497 5.92355 23.3369 6.06543 23.2187C6.18365 23.1241 6.3493 23.0059 6.49117 23.0059C7.83896 22.935 9.18665 22.8404 10.5344 22.8404C37.0173 22.8404 63.5237 22.8877 90.0065 22.935C90.2903 22.935 90.5977 23.1951 91.1888 23.4788V84.3099C89.3681 84.4517 87.7604 84.6882 86.1525 84.6882C75.181 84.7118 64.2095 84.7827 53.238 84.6645C49.7148 84.6172 46.8301 85.3029 44.0399 87.8089C37.9394 93.3412 31.4606 98.4715 25.1473 103.744C24.6744 104.146 24.1069 104.453 23.1375 105.115C22.9483 103.531 22.7119 102.443 22.7119 101.356C22.6646 97.1475 22.7118 92.9156 22.6409 88.7073C22.5699 85.4684 21.9788 84.83 18.834 84.7591C14.6251 84.6645 10.4163 84.7354 6.30197 84.7354C5.16699 81.0473 4.78866 33.8104 5.71083 23.5734V23.5497Z" fill="url(#paint0_linear_2343_487)"/>
<defs>
<linearGradient id="paint0_linear_2343_487" x1="0.319638" y1="56.7905" x2="113.699" y2="56.7905" gradientUnits="userSpaceOnUse">
<stop stop-color="#AE8ABE"/>
<stop offset="1" stop-color="#8390C8"/>
</linearGradient>
</defs>
</svg>
