<svg width="92" height="119" viewBox="0 0 92 119" fill="none" xmlns="http://www.w3.org/2000/svg">
<path d="M91.0786 43.8798C90.5111 36.9999 88.7141 30.3565 85.3328 24.2096C81.3604 16.9515 75.8037 11.2301 68.6864 7.11634C57.3603 0.614761 45.3011 -0.992919 32.7691 2.81346C19.2676 6.90354 9.90399 15.6984 4.13451 28.5597C1.368 34.754 0.966028 41.1373 0.942383 47.7571C0.942383 56.6938 3.80348 64.5903 8.93453 71.7066C10.3296 73.6216 10.3296 75.0874 9.62024 77.2388C6.94831 85.348 4.53648 93.5519 2.03007 101.708C0.634993 106.295 1.69904 107.524 6.49905 106.839C7.16112 106.744 7.79955 106.46 8.43797 106.342C12.8597 105.538 17.305 104.735 22.0104 103.907C25.4154 107.619 28.7494 111.402 32.2252 115.042C36.3868 119.393 37.2381 119.133 39.6735 113.435C41.4942 109.179 43.4804 104.995 45.3957 100.786C47.7603 101.566 47.9021 103.458 48.5642 104.9C49.9593 107.95 51.1179 111.094 52.442 114.191C53.175 115.894 53.979 117.572 56.2726 117.998C56.982 117.359 57.8332 116.792 58.448 116.012C61.2381 112.655 64.0046 109.274 66.6766 105.822C68.4973 103.458 70.3652 102.418 73.581 103.505C77.6953 104.876 82.0461 105.491 86.3022 106.413C89.4471 107.075 90.8421 105.775 90.0619 102.701C89.5416 100.597 88.7377 98.5403 87.9811 96.5071C85.4274 89.58 82.85 82.6529 80.3436 75.8439C82.8027 71.5174 85.2145 67.8529 87.0352 63.9046C89.9436 57.5922 91.6461 50.8305 91.055 43.8798H91.0786ZM43.1494 94.7339C40.7612 100.077 38.1839 105.349 35.4647 111.142C31.1139 106.886 27.2597 103.127 23.1218 99.0841C18.1799 99.8879 12.9779 100.739 7.16112 101.685C9.21827 93.6937 11.3464 86.1283 14.5385 78.4446C20.9227 84.8516 28.442 88.0196 36.4814 90.171C37.9238 90.5493 39.4607 90.5493 40.9504 90.7858C43.3149 91.1877 44.1425 92.5116 43.1494 94.7339ZM84.3633 100.503C82.85 100.503 81.715 100.668 80.6273 100.479C77.9791 100.006 75.2125 99.746 72.8007 98.7058C68.4027 96.8381 65.8253 98.8949 63.4608 102.11C61.2854 105.042 59.0391 107.926 56.4381 111.307C53.6007 104.262 50.2194 98.2803 48.3514 91.1404C59.1573 90.3365 68.1189 86.1283 76.7022 79.1066C79.3978 86.6011 81.8096 93.3627 84.3633 100.503ZM45.6795 86.4355C22.7671 86.601 5.05668 68.3493 5.34043 45.0619C5.57688 24.4696 22.3415 5.55597 46.1051 5.65054C69.0648 5.43776 86.586 24.9661 86.2313 46.1967C85.853 68.8222 68.9938 86.2228 45.6795 86.4119V86.4355Z" fill="url(#paint0_linear_2399_8)"/>
<path d="M46.1526 12.8855C27.851 12.7673 13.0017 26.4561 12.5288 45.8899C12.0796 63.8106 27.9929 79.5562 45.4432 78.7524C64.3122 79.769 79.0197 64.118 78.996 46.0791C78.9724 27.5909 64.6433 13.0037 46.1526 12.8855ZM45.0176 74.615C30.5939 74.4022 16.8323 60.8081 17.1633 45.4643C17.4707 30.6644 31.6579 16.4791 45.9161 17.7795C60.8836 16.6446 74.527 32.012 74.3615 45.748C74.1487 62.5103 59.8432 74.8278 45.0412 74.615H45.0176Z" fill="url(#paint1_linear_2399_8)"/>
<path d="M52.7962 33.5005C51.2829 29.9542 49.7932 26.3842 48.2799 22.8379C47.807 21.7267 47.1213 20.4974 45.7262 20.9466C44.7567 21.2539 43.9528 22.1996 43.2434 23.0034C42.8414 23.4763 42.8178 24.2565 42.5577 24.8712C41.6119 27.2117 40.5478 29.505 39.7439 31.8692C38.7271 34.8481 36.7409 35.9357 33.6434 36.0302C29.671 36.1721 25.7222 36.7395 22.0808 37.0941C20.6384 39.742 21.9153 41.0896 23.3576 42.3426C25.3912 44.0922 27.2591 46.149 29.5764 47.4257C33.0523 49.3407 33.005 51.965 32.1064 55.133C31.2789 58.0174 30.4749 60.9254 29.8601 63.8806C29.671 64.7317 29.8601 66.1739 30.4276 66.5522C31.2316 67.0723 32.5793 67.1196 33.5961 66.9068C34.5183 66.7177 35.3222 65.9375 36.1734 65.3937C38.4671 63.9988 40.7843 62.6275 43.007 61.1617C44.7567 60.0033 46.4119 59.9324 48.1617 61.1145C49.5567 62.0365 50.9991 62.8877 52.4651 63.7388C54.4986 64.9445 56.4375 66.2684 58.5893 67.2378C60.41 68.0652 61.9469 66.694 61.5686 64.6844C61.1666 62.5567 60.5046 60.4762 60.0789 58.3484C59.5114 55.6059 59.0622 52.8634 58.6129 50.3337C62.1834 47.3548 65.2809 44.8014 68.3548 42.2008C69.8681 40.9241 70.8849 39.4583 69.1588 37.0705C64.2878 36.6213 59.1568 36.1484 53.9075 35.6755C53.5292 34.9426 53.1272 34.2334 52.7962 33.4769V33.5005ZM61.4977 41.5151C59.0858 43.7139 57.4779 45.3925 55.6572 46.811C53.8129 48.2768 53.4346 50.0263 53.9311 52.1778C54.4513 54.4238 54.9715 56.6698 55.61 59.4122C51.6612 58.632 49.0365 55.9132 45.4424 54.3765C42.6523 55.9605 39.6257 57.6864 35.9843 59.7433C36.1971 58.2302 36.2917 57.379 36.4572 56.5279C36.8592 54.4001 37.3794 52.296 37.7104 50.1446C37.9705 48.5133 37.2848 47.2838 35.937 46.2672C34.0927 44.896 32.4138 43.312 30.6877 41.8462C32.0591 39.6947 33.9271 40.3095 35.4877 40.2385C41.6592 39.9548 41.7065 39.9548 43.7873 34.3043C44.2838 32.9331 44.8513 31.5855 45.537 29.8596C47.807 31.8692 47.9725 34.5408 48.9892 36.6922C50.1006 39.0091 51.3538 40.4749 54.2622 40.3567C56.3666 40.2621 58.4947 40.9714 61.4977 41.4679V41.5151Z" fill="url(#paint2_linear_2399_8)"/>
<defs>
<linearGradient id="paint0_linear_2399_8" x1="0.942383" y1="59.4126" x2="91.1968" y2="59.4126" gradientUnits="userSpaceOnUse">
<stop stop-color="#AE8ABE"/>
<stop offset="1" stop-color="#8390C8"/>
</linearGradient>
<linearGradient id="paint1_linear_2399_8" x1="12.5052" y1="45.8426" x2="78.9724" y2="45.8426" gradientUnits="userSpaceOnUse">
<stop stop-color="#AE8ABE"/>
<stop offset="1" stop-color="#8390C8"/>
</linearGradient>
<linearGradient id="paint2_linear_2399_8" x1="21.466" y1="44.1867" x2="70.0573" y2="44.1867" gradientUnits="userSpaceOnUse">
<stop stop-color="#AE8ABE"/>
<stop offset="1" stop-color="#8390C8"/>
</linearGradient>
</defs>
</svg>
