<svg width="114" height="101" viewBox="0 0 114 101" fill="none" xmlns="http://www.w3.org/2000/svg">
<path d="M113.7 6.59011C113.7 5.90449 113.748 5.24247 113.7 4.55685C113.535 1.60159 112.967 0.986928 110.201 0.750507C109.704 0.703223 109.184 0.750507 108.687 0.750507C73.9523 0.750507 39.1936 0.750507 4.4585 0.750507C3.18165 0.750507 1.90484 1.0815 0.509766 1.27064V100.024C3.11076 100.355 5.38078 100.898 7.67439 100.898C40.8962 100.946 74.1179 100.946 107.363 100.946C108.049 100.946 108.711 100.969 109.397 100.946C112.494 100.733 113.511 99.7163 113.7 96.5955C113.771 95.5789 113.7 94.5623 113.7 93.5693V6.6137V6.59011ZM5.52258 7.22842C5.54622 5.6444 6.7049 5.07697 8.38372 5.36067C10.3463 5.69166 12.3797 5.76257 14.3896 5.78621C43.7099 5.80986 73.0302 5.78621 102.35 5.78621C104.195 5.78621 106.039 5.78621 108.451 5.78621V22.4066C104.762 23.2577 12.096 23.4706 5.71178 22.6194C5.02606 17.5364 5.42799 12.3587 5.52258 7.20475V7.22842ZM108.664 33.282C108.664 52.503 108.664 71.724 108.664 90.9687C108.664 92.2926 108.522 93.6402 108.427 95.6262C106.441 95.7444 104.975 95.8863 103.509 95.8863C72.6282 95.8863 41.7473 95.8863 10.8428 95.8863C9.82604 95.8863 8.80936 95.9099 7.81625 95.8154C6.23201 95.6735 5.4044 94.7751 5.42805 93.1438C5.42805 92.6473 5.42805 92.1271 5.42805 91.6307C5.42805 71.393 5.42805 51.1554 5.42805 30.9178C5.42805 30.2558 5.52252 29.5939 5.61711 28.53C6.89396 28.3881 8.17094 28.1517 9.44779 28.1517C40.8489 28.128 72.2262 28.1517 103.627 28.1517C104.313 28.1517 104.975 28.1044 105.661 28.1517C108.049 28.3645 108.475 28.79 108.664 31.2488C108.711 31.9108 108.664 32.5964 108.664 33.282Z" fill="url(#paint0_linear_2343_1016)"/>
<path d="M58.2515 72.9772C56.8564 72.5753 55.2486 72.2679 54.2082 71.3932C50.9925 68.698 47.9422 65.8137 44.9156 62.8821C40.6831 58.792 36.5215 54.6073 32.3126 50.47C31.6032 49.7607 30.8939 49.0278 30.1372 48.3421C29.0023 47.3255 27.5598 46.9709 26.614 48.2476C26.0701 48.9805 26.141 50.3754 26.3066 51.4156C26.4484 52.1722 27.1815 52.8342 27.678 53.4962C33.1638 60.4942 38.6023 67.5396 44.1589 74.4667C46.1451 76.9728 48.3441 79.2424 48.1785 82.8124C48.1312 83.7344 48.7933 84.7037 49.2426 85.6021C51.1579 89.5031 54.7047 91.0161 59.4338 90.0232C62.7205 89.3375 65.3452 85.6021 65.2979 81.6775C65.2506 77.6583 62.4131 74.2303 58.2278 72.9772H58.2515ZM57.2821 85.673C53.4279 84.089 52.7422 83.3561 53.1442 81.2047C53.4279 79.668 55.1303 77.7293 56.4544 78.0366C57.7549 78.3439 59.292 79.1241 59.9777 80.188C61.0654 81.8903 60.0486 83.5689 57.2821 85.6967V85.673Z" fill="url(#paint1_linear_2343_1016)"/>
<path d="M89.3217 60.5879C80.2892 47.7266 62.106 41.5797 47.2803 45.4334C45.9798 45.7643 44.6792 46.1426 43.4496 46.6864C42.2437 47.2301 41.5817 48.3886 42.1492 49.5707C42.5038 50.3273 43.5679 51.1783 44.3718 51.2256C45.6487 51.2965 46.9729 50.7764 48.2497 50.4218C57.1404 48.0812 65.7 49.2397 73.6448 53.4953C83.7178 58.8857 89.8656 67.3968 91.6863 78.816C92.0883 81.2748 92.5138 83.7335 92.9868 86.5469C96.9828 86.6888 97.8341 86.0978 97.4558 82.977C96.4627 74.9151 94.169 67.4678 89.3217 60.5643V60.5879Z" fill="url(#paint2_linear_2343_1016)"/>
<path d="M25.6911 60.6133C19.1413 65.6018 15.1688 77.943 17.2023 86.5014C21.0802 86.7851 21.5295 86.6196 21.5295 83.2388C21.5295 76.8318 23.7048 71.1813 26.9915 65.8618C28.2447 63.8286 28.2448 62.1027 25.6911 60.6133Z" fill="url(#paint3_linear_2343_1016)"/>
<path d="M98.2116 19.9478C99.5121 18.7185 100.931 17.3709 102.255 16.1178C101.073 11.0821 99.8669 9.73446 96.9348 9.89996C94.5939 10.0418 92.8204 11.6258 92.513 13.8718C92.1347 16.8744 93.3643 18.222 98.2116 19.9242V19.9478Z" fill="url(#paint4_linear_2343_1016)"/>
<path d="M80.6906 19.7111C85.4197 18.5053 86.5548 17.4887 86.5548 14.6044C86.5548 12.4057 85.2778 10.5853 83.3626 10.0415C81.1872 9.42679 78.7754 10.3961 77.7586 12.2874C76.5291 14.5571 77.3094 16.614 80.7143 19.7111H80.6906Z" fill="url(#paint5_linear_2343_1016)"/>
<defs>
<linearGradient id="paint0_linear_2343_1016" x1="0.509766" y1="50.8481" x2="113.724" y2="50.8481" gradientUnits="userSpaceOnUse">
<stop stop-color="#AE8ABE"/>
<stop offset="1" stop-color="#8390C8"/>
</linearGradient>
<linearGradient id="paint1_linear_2343_1016" x1="26.1883" y1="68.8635" x2="65.2979" y2="68.8635" gradientUnits="userSpaceOnUse">
<stop stop-color="#AE8ABE"/>
<stop offset="1" stop-color="#8390C8"/>
</linearGradient>
<linearGradient id="paint2_linear_2343_1016" x1="41.9364" y1="65.4345" x2="97.5267" y2="65.4345" gradientUnits="userSpaceOnUse">
<stop stop-color="#AE8ABE"/>
<stop offset="1" stop-color="#8390C8"/>
</linearGradient>
<linearGradient id="paint3_linear_2343_1016" x1="16.6821" y1="73.5928" x2="27.8191" y2="73.5928" gradientUnits="userSpaceOnUse">
<stop stop-color="#AE8ABE"/>
<stop offset="1" stop-color="#8390C8"/>
</linearGradient>
<linearGradient id="paint4_linear_2343_1016" x1="92.4657" y1="14.9121" x2="102.255" y2="14.9121" gradientUnits="userSpaceOnUse">
<stop stop-color="#AE8ABE"/>
<stop offset="1" stop-color="#8390C8"/>
</linearGradient>
<linearGradient id="paint5_linear_2343_1016" x1="77.1911" y1="14.7935" x2="86.5548" y2="14.7935" gradientUnits="userSpaceOnUse">
<stop stop-color="#AE8ABE"/>
<stop offset="1" stop-color="#8390C8"/>
</linearGradient>
</defs>
</svg>
