<svg width="83" height="78" viewBox="0 0 83 78" fill="none" xmlns="http://www.w3.org/2000/svg">
<path d="M37.8256 63.6837C31.3749 68.2035 25.0053 73.324 18.2953 77.901C16.1559 76.5279 16.0587 76.2132 17.2094 75.0403C17.728 74.5111 18.3439 74.0535 18.9436 73.5958C24.4218 69.548 29.9162 65.5002 35.4106 61.4667C36.3831 60.7516 37.3718 60.4083 38.8143 60.6515C41.0023 61.0376 43.2714 61.0806 45.5242 61.1235C49.3006 61.195 52.1856 59.3785 54.9085 57.3618C58.5714 54.6585 62.2019 51.9266 65.8163 49.1947C68.5067 47.1637 68.3284 45.9193 65.0059 44.2173C64.5845 44.3746 64.082 44.5748 63.5634 44.7608C63.0447 44.9467 62.5261 45.1326 62.0399 45.3186C59.9167 44.0027 59.8032 43.4735 61.424 42.2005C62.0074 41.7285 62.7368 41.3853 63.3041 40.9133C64.3738 40.0122 64.779 38.2529 64.0658 37.3518C63.2392 36.3219 61.9912 36.1503 60.7108 36.5365C59.6087 36.8655 58.3931 37.4662 57.68 36.3363C56.902 35.1062 57.9879 34.3196 59.1063 33.6759C59.479 33.4614 59.8356 33.1896 60.1436 32.8892C61.0836 31.9452 61.2295 30.5006 60.4353 29.5709C59.5763 28.5554 58.4904 28.2694 57.1614 28.9273C56.5779 29.2134 55.9296 29.385 55.3461 29.5852C53.6767 27.9261 53.6767 27.8546 54.8112 26.5959C55.2813 26.0667 55.9134 25.5232 56.0754 24.9081C56.3348 23.9498 56.3996 22.8771 55.1192 22.2764C54.0333 21.7615 52.9474 21.6756 51.9263 22.3908C50.5 23.392 49.1061 24.4218 47.7285 25.4517C46.5129 26.3528 45.3135 27.2681 43.9845 28.2694C44.9408 30.1717 46.0591 32.1168 44.4707 34.1765C43.1417 35.9215 41.4885 37.1945 38.8467 37.0657C37.8742 39.8262 36.4479 42.1576 32.6391 42.5295C32.4608 45.0325 31.6018 47.2495 28.8627 48.0934C28.7331 49.5523 28.8627 50.8682 28.49 52.0696C27.404 55.531 23.4494 57.0471 19.9161 55.2735C17.8739 54.2437 16.0749 52.842 14.0975 51.5833C9.98077 54.5584 5.86402 57.5191 1.8121 60.4369C-0.278695 58.835 -0.408356 58.3773 1.03413 57.2616C3.69219 55.2163 6.41508 53.2568 9.10556 51.2543C9.96456 50.6107 10.8074 49.9528 11.7474 49.2376C10.5156 45.9622 11.9095 43.545 15.0376 41.6141C13.5789 38.1241 14.5838 35.3351 18.3115 33.5472C17.0635 28.7557 18.7167 27.4684 22.5255 25.5517C22.4121 22.9915 23.2387 20.7316 26.0912 19.3442C28.96 17.9568 31.3101 19.287 33.725 20.4885C34.2437 19.8878 34.6651 19.3013 35.1837 18.7864C37.2097 16.8126 39.7543 16.2834 42.6068 17.3132C44.3897 17.9569 46.1239 18.7292 47.8419 19.4873C48.8306 19.9307 49.7058 19.9021 50.7593 19.5588C56.0592 17.8281 59.5439 19.9736 59.7384 25.0225C59.7384 25.1227 59.7708 25.2228 59.8032 25.4946C61.4078 26.4958 63.6768 27.1966 64.1469 29.2563C64.4548 30.5865 64.3251 31.9881 64.4224 33.6902C67.745 35.2635 68.8633 38.0097 67.3398 41.5712C70.1275 43.545 72.3155 45.6762 70.5975 49.1232C74.0822 51.7693 77.502 54.401 80.9704 56.9613C81.8132 57.5906 82.5426 58.2056 82.1212 59.2212C81.9429 59.6359 81.408 59.922 80.7759 60.5084C76.5782 57.4905 72.4776 54.5297 68.3122 51.5261C62.2019 55.4165 57.1614 60.4369 50.3055 63.6551C52.3477 66.0008 55.2326 67.4168 57.6152 69.3191C59.9653 71.2071 62.5099 72.8949 64.9248 74.7257C65.4759 75.1405 65.8487 75.7698 66.4159 76.4135C65.6866 76.9713 65.1193 77.4003 64.5845 77.8008C64.1144 77.6149 63.7579 77.5577 63.5148 77.3717C59.8032 74.7257 56.1078 72.0796 52.4125 69.4192C50.4838 68.0318 48.5551 66.6301 46.6426 65.1998C45.5566 64.3846 44.3573 64.027 42.9148 64.0413C41.3426 64.0556 39.7705 63.8268 37.8418 63.6694L37.8256 63.6837ZM29.1545 21.8759C27.1447 21.9331 25.9291 23.1488 26.2695 24.5219C26.4316 25.1513 26.9016 25.8235 27.4527 26.2526C30.5159 28.6269 33.6278 30.9297 36.7397 33.2325C37.08 33.49 37.4852 33.6759 37.8904 33.8475C39.2681 34.434 40.2405 34.2051 41.1319 33.1467C42.072 32.0168 41.9261 30.801 40.4998 29.7139C37.3231 27.311 34.0978 24.9796 30.8401 22.6482C30.2566 22.2334 29.4948 22.0189 29.1545 21.8616V21.8759ZM32.3636 39.4972C33.1253 39.1253 34.0978 38.9251 34.5678 38.3673C35.2648 37.5234 35.1837 36.4507 34.4058 35.5639C34.0654 35.1634 33.644 34.8201 33.2064 34.5055C31.0183 32.9178 28.8141 31.3445 26.6099 29.7712C26.1723 29.4565 25.7022 29.1562 25.1998 28.9416C23.2549 28.0834 21.4234 29.0274 21.4882 30.9297C21.5206 31.6449 21.8772 32.5603 22.4607 33.0323C24.9081 34.9632 27.4689 36.794 30.0459 38.5962C30.6294 38.9967 31.4398 39.1397 32.3798 39.483L32.3636 39.4972ZM29.2841 43.1588C27.9875 41.0134 25.9129 39.154 22.5904 37.0943C21.0182 36.1074 19.673 36.1217 18.6681 37.1372C17.6956 38.1241 17.6794 39.6403 18.9274 40.6558C20.6616 42.0861 22.5093 43.4449 24.4542 44.6463C26.5612 45.9479 27.7606 45.5332 29.2841 43.1588ZM17.3391 44.2029C16.9015 44.3889 16.6583 44.4318 16.4963 44.5605C14.1137 46.4199 14.0327 47.035 16.2207 48.8658C17.6956 50.0958 19.2678 51.24 20.8885 52.3271C22.3797 53.3283 23.7411 53.1996 24.7784 52.1125C25.686 51.1542 25.6536 49.9957 24.438 48.9087C22.3797 47.0636 20.2564 45.2614 17.3391 44.2029ZM46.7236 22.1477C44.4383 21.3467 42.6231 20.56 40.7105 20.0594C39.1708 19.6589 37.858 20.3311 37.3718 21.4468C36.8531 22.6339 37.3069 23.5779 38.4253 24.3074C39.3167 24.8795 40.2405 25.423 41.4075 26.1382C43.1255 24.8509 44.7949 23.6066 46.7398 22.1477H46.7236Z" fill="url(#paint0_linear_2343_171)"/>
<path d="M48.782 4.76943C48.7171 5.87077 48.782 6.98643 48.5713 8.05916C48.4092 8.84583 47.7447 9.6611 46.675 9.34643C46.0753 9.17479 45.3135 8.44535 45.2649 7.93044C45.1028 5.84219 45.1514 3.72534 45.2487 1.62279C45.2811 0.721693 45.978 0.106664 47.0315 0.149573C48.085 0.192482 48.6361 0.864733 48.7009 1.76583C48.7658 2.76704 48.7009 3.76822 48.7009 4.76943H48.7658H48.782Z" fill="url(#paint1_linear_2343_171)"/>
<path d="M72.1212 6.57187C70.1925 8.86036 68.6851 11.5207 65.9298 13.3515C64.2929 12.6793 63.8228 11.721 64.6656 10.6053C65.9785 8.86037 67.4047 7.17261 68.9121 5.55636C69.8683 4.52654 70.549 4.75538 72.1212 6.57187Z" fill="url(#paint2_linear_2343_171)"/>
<path d="M30.1272 11.9349C29.0413 12.5213 28.4254 12.8646 27.8095 13.1935C25.2163 11.5487 23.9197 9.1887 22.3151 7.08615C22.0396 6.72857 22.3475 5.72732 22.7527 5.31254C23.4821 4.56878 24.4708 4.86913 25.0542 5.56998C26.7074 7.5438 28.2634 9.57486 30.1272 11.9349Z" fill="url(#paint3_linear_2343_171)"/>
<defs>
<linearGradient id="paint0_linear_2343_171" x1="0.0940822" y1="47.3496" x2="82.2671" y2="47.3496" gradientUnits="userSpaceOnUse">
<stop stop-color="#AE8ABE"/>
<stop offset="1" stop-color="#8390C8"/>
</linearGradient>
<linearGradient id="paint1_linear_2343_171" x1="45.1677" y1="4.78376" x2="48.782" y2="4.78376" gradientUnits="userSpaceOnUse">
<stop stop-color="#AE8ABE"/>
<stop offset="1" stop-color="#8390C8"/>
</linearGradient>
<linearGradient id="paint2_linear_2343_171" x1="64.2604" y1="9.14642" x2="72.1212" y2="9.14642" gradientUnits="userSpaceOnUse">
<stop stop-color="#AE8ABE"/>
<stop offset="1" stop-color="#8390C8"/>
</linearGradient>
<linearGradient id="paint3_linear_2343_171" x1="22.1855" y1="9.03134" x2="30.1272" y2="9.03134" gradientUnits="userSpaceOnUse">
<stop stop-color="#AE8ABE"/>
<stop offset="1" stop-color="#8390C8"/>
</linearGradient>
</defs>
</svg>
