<svg width="114" height="99" viewBox="0 0 114 99" fill="none" xmlns="http://www.w3.org/2000/svg">
<path d="M108.665 98.0161C112.944 98.0161 113.465 97.5669 113.488 93.5241C113.512 70.5913 113.488 47.6821 113.488 24.7493C113.488 23.6381 113.134 22.5269 112.873 21.0611H91.8527C91.3562 20.3755 91.1198 20.1155 90.9779 19.8318C88.9207 14.8669 86.8399 9.92567 84.8537 4.93719C83.1748 0.705252 82.3709 0.0905861 77.7837 0.0905861C71.0448 0.0905861 64.2822 0.0905861 57.5433 0.0905861C50.2841 0.0905861 43.025 0.208799 35.7895 0.0196627C32.7865 -0.0512636 30.9895 1.10716 30.02 3.82601C29.689 4.77169 29.4052 5.74104 29.0033 6.66309C26.9698 11.4388 24.9363 16.1908 22.7609 21.2502H1.07807C0.983493 23.378 0.865275 24.7257 0.865275 26.0496C0.865275 48.2969 0.865275 70.544 0.865275 92.8149C0.865275 93.5005 0.841653 94.1625 0.888943 94.8481C1.10175 97.165 1.69283 97.7797 3.93915 98.0161C4.76673 98.087 5.61799 98.0161 6.46922 98.0161C21.9806 98.0161 37.5156 97.9925 53.027 98.0161C71.5886 98.0161 90.1503 98.0634 108.688 98.0634L108.665 98.0161ZM5.87809 87.4954C5.83079 70.4731 5.85449 53.4508 5.85449 36.4285V26.5697C7.08405 26.4278 8.36084 26.1678 9.63769 26.1442C13.8466 26.0969 18.0791 26.0496 22.288 26.1442C25.4328 26.2151 27.2062 24.8675 28.2939 21.9123C30.3038 16.4037 32.5974 11.0132 34.7018 5.8356C38.7215 4.88991 73.433 4.70081 79.4389 5.57557C81.2123 9.78386 83.1039 14.2522 84.9719 18.7206C85.3503 19.6426 85.6813 20.6119 86.0359 21.5576C87.6438 25.7895 88.0458 26.0733 92.7039 26.1206C96.7473 26.1678 100.791 26.0969 104.858 26.1442C106.135 26.1442 107.388 26.4515 108.357 26.5697C108.357 48.5805 108.357 70.0948 108.357 91.6328C108.357 91.9165 108.05 92.2002 107.742 92.6966H6.72936C5.31063 91.2072 5.94907 89.2449 5.92542 87.4718L5.87809 87.4954Z" fill="url(#paint0_linear_2399_7)"/>
<path d="M57.5196 20.9895C41.2043 20.8003 25.8112 34.8674 25.8585 52.0552C25.9058 69.3849 39.9039 83.9484 57.2832 83.8538C74.5207 83.7829 89.0626 69.3612 88.2114 52.268C89.3227 34.8201 73.1965 21.155 57.5196 20.9658V20.9895ZM57.1886 78.818C41.2044 78.818 30.5876 66.3823 30.6585 52.1734C30.7295 37.1843 42.7413 25.7179 57.1413 26.1199C71.4704 25.6707 83.5769 37.0898 83.6714 52.1262C83.766 66.2641 73.1729 78.7944 57.1886 78.818Z" fill="url(#paint1_linear_2399_7)"/>
<path d="M57.426 33.2111C46.5727 32.1708 37.4456 42.0769 37.6347 52.2666C37.8712 65.388 47.9441 71.7949 57.1422 71.8186C66.2693 71.8186 76.4132 65.4825 76.697 52.3139C76.9098 42.0059 67.6407 32.3835 57.4496 33.2347L57.426 33.2111ZM56.9767 66.7591C49.0555 66.7119 42.5057 60.1394 42.5293 52.3611C42.553 45.3631 49.5993 36.8755 57.0712 38.2468C65.0161 36.8283 71.9442 45.7886 71.7787 52.6921C71.5895 60.5177 65.0161 66.7828 56.9767 66.7355V66.7591Z" fill="url(#paint2_linear_2399_7)"/>
<defs>
<linearGradient id="paint0_linear_2399_7" x1="0.79435" y1="48.9824" x2="113.512" y2="48.9824" gradientUnits="userSpaceOnUse">
<stop stop-color="#AE8ABE"/>
<stop offset="1" stop-color="#8390C8"/>
</linearGradient>
<linearGradient id="paint1_linear_2399_7" x1="25.8585" y1="52.4335" x2="88.2823" y2="52.4335" gradientUnits="userSpaceOnUse">
<stop stop-color="#AE8ABE"/>
<stop offset="1" stop-color="#8390C8"/>
</linearGradient>
<linearGradient id="paint2_linear_2399_7" x1="37.6347" y1="52.4794" x2="76.697" y2="52.4794" gradientUnits="userSpaceOnUse">
<stop stop-color="#AE8ABE"/>
<stop offset="1" stop-color="#8390C8"/>
</linearGradient>
</defs>
</svg>
