<svg width="99" height="76" viewBox="0 0 99 76" fill="none" xmlns="http://www.w3.org/2000/svg">
<path d="M70.7028 62.7481C69.0659 63.3345 67.6072 63.8494 66.035 64.4073C64.4143 67.8686 65.4516 71.9307 63.2635 75.4206H49.1142C48.7901 74.5624 48.2876 73.5898 48.0769 72.5743C47.5583 70.1285 47.2017 67.6398 46.6831 65.1939C46.5858 64.7648 45.9861 64.4216 45.3702 63.7779C44.5598 65.6087 44.9326 67.1105 44.884 68.5551C44.8192 70.1571 44.9326 71.7733 44.8354 73.3753C44.7381 75.0488 44.2357 75.4492 42.3232 75.5494C38.644 75.721 35.0459 75.1059 31.6099 74.1476C14.8674 69.4992 4.42961 59.5299 1.10704 44.3544C-1.45378 32.6688 2.30639 22.199 11.0423 13.1022C17.3147 6.58002 25.3537 2.7468 34.6407 0.830186C36.9422 0.358185 39.3572 0.300963 41.7235 0.172236C44.1709 0.0292053 44.803 0.544129 44.8354 2.68959C44.884 5.69323 44.8354 8.69686 44.8354 11.7005C46.132 11.7577 46.5858 11.2285 46.7479 10.3131C47.1531 7.93881 47.6393 5.5931 48.0283 3.21879C48.4497 0.658547 48.9521 0.20085 51.9506 0.157941C54.9004 0.129335 57.8664 0.115031 60.8162 0.157941C63.4094 0.186547 63.6363 0.329571 64.2198 2.63236C64.6736 4.47746 65.176 6.36546 65.1922 8.23916C65.2084 10.5276 66.343 11.7863 68.6769 12.4014C69.4386 12.6016 70.168 12.859 70.9135 13.0879C74.2199 10.9424 77.4939 8.81129 81.0758 6.5085C84.6414 9.52645 87.9478 12.5158 91.4649 15.6195C89.9576 19.2525 86.554 21.6554 84.3335 25.1025C84.9008 26.3754 85.5329 27.8486 86.1164 29.1788C90.2817 30.509 94.6092 30.1228 98.5963 31.3958V44.2543C94.6416 45.6989 90.4924 45.5702 86.3432 46.3139C85.6949 47.7013 85.0304 49.1602 84.2849 50.7622C85.8408 52.6216 87.3968 54.4523 88.9365 56.2974C89.5362 57.0269 90.1359 57.7563 90.7193 58.5001C91.4973 59.4584 91.4163 60.3881 90.4924 61.2177C87.8506 63.5777 85.1925 65.9234 82.5345 68.2405C81.4324 69.1988 80.3302 68.9986 79.1957 68.2119C77.3156 66.9103 75.4031 65.6516 73.4906 64.4073C72.5991 63.8208 71.6429 63.2916 70.7191 62.7338L70.7028 62.7481ZM62.518 13.1737C61.8535 9.7267 61.2375 6.50849 60.6217 3.276H51.7074C51.4319 4.72061 51.1078 6.0794 50.9457 7.43819C50.4811 11.2142 48.655 13.6696 45.4675 14.8043C45.2892 14.8758 45.1595 15.076 44.8678 15.3478C44.9326 18.5374 44.6895 21.87 45.0137 25.3885C55.1273 19.6673 64.5277 22.013 70.0221 28.0203C75.4031 33.8988 75.0951 42.4664 69.3738 48.1161C63.8794 53.5513 53.6524 55.5823 45.0623 50.0184V60.4739C45.743 60.7028 46.2616 60.903 46.7965 61.046C49.1628 61.6325 50.2812 62.8625 50.3946 65.1653C50.5081 67.511 51.286 69.8424 51.7561 72.1023C55.8728 72.6029 58.3526 72.5314 60.7027 71.8449L62.5018 62.2189C65.4516 61.1605 68.1582 60.2022 71.0756 59.1581C74.2361 61.1033 77.4615 63.0914 80.4437 64.9222C82.6641 62.9627 84.6577 61.1891 86.8295 59.2582C84.6577 56.5549 82.3886 53.7229 80.2006 51.0053C81.0596 49.1745 82.0482 47.6584 82.4696 46.0278C83.0693 43.6964 84.7387 43.0385 87.1212 42.8526C89.6821 42.638 92.2429 42.2518 94.7064 41.9515C95.4196 39.191 95.3872 35.7726 94.6902 33.5556C91.5622 33.0979 88.4503 32.6116 85.3222 32.2111C84.2039 32.0681 83.3935 31.7391 82.9883 30.7522C82.1293 28.6925 81.2378 26.6472 80.2816 24.3873C82.4858 21.5982 84.7387 18.7376 87.1212 15.7197C85.8408 14.5754 84.6577 13.517 83.4583 12.4586C82.6641 11.772 81.8375 11.0998 80.9461 10.356C80.1519 10.7565 79.4226 11.0426 78.8067 11.4431C76.878 12.6731 74.9493 13.9175 73.0692 15.2048C72.0157 15.9342 70.946 16.3347 69.6331 15.8198C67.3479 14.9473 65.0626 14.0891 62.5504 13.1308L62.518 13.1737ZM4.15407 39.52C5.01307 60.6313 27.169 72.9605 41.059 71.945C41.5776 67.0247 41.3831 41.8084 40.7672 39.52H4.15407ZM44.8678 37.8608C44.8678 39.8632 44.7543 41.88 44.9164 43.8681C44.9975 44.7978 45.3864 45.9134 46.0834 46.5571C50.0056 50.1185 55.0948 51.2484 60.1678 49.7609C68.8876 47.2007 71.6915 41.3221 69.5845 34.3422C66.6509 24.6305 53.4741 22.9141 46.6831 28.7927C45.3702 29.9369 44.7057 31.1097 44.8354 32.7546C44.9812 34.4424 44.8678 36.1587 44.8678 37.8608ZM41.0914 28.8642C31.3344 25.0309 21.6584 21.2263 11.8365 17.3645C10.8316 18.6661 10.0537 19.6816 9.17846 20.8402C19.989 25.0739 30.3943 29.1502 41.1076 33.341V28.8642H41.0914ZM39.3734 36.216C28.3846 31.9107 18.0765 27.863 7.50907 23.7151C6.9418 25.0024 6.40694 26.1752 5.85588 27.4053C6.50419 27.7485 6.95801 28.0489 7.46045 28.2491C13.8625 30.7808 20.2645 33.2981 26.699 35.7725C27.4931 36.0729 28.4494 36.1873 29.3246 36.2016C32.3879 36.2445 35.4349 36.216 39.3572 36.216H39.3734ZM14.4622 14.9044C17.5416 16.1201 20.5401 17.293 23.5385 18.4659C26.4234 19.6101 29.276 20.8688 32.2258 21.87C35.1918 22.8855 37.8985 24.4875 41.1562 25.1311V20.7829C33.409 17.7364 25.6941 14.7042 17.8172 11.6004C16.6988 12.7017 15.6615 13.7315 14.4784 14.8901L14.4622 14.9044ZM21.0749 9.39773C23.6195 10.3989 25.7751 11.2714 27.947 12.1153C30.1188 12.9592 32.2744 13.846 34.4787 14.6183C36.6019 15.3621 38.4982 16.7066 41.0914 16.8639V12.7875C36.0508 10.7994 31.1075 8.8542 26.0831 6.86608C24.4947 7.66705 22.9388 8.46803 21.0749 9.39773ZM4.25131 36.0729H18.4493C15.9209 35.0717 13.7976 34.142 11.5934 33.3983C9.35673 32.6402 7.36319 31.2671 4.68892 31.1384C4.52685 32.8833 4.39718 34.4424 4.25131 36.0729ZM31.075 5.17831C34.5759 6.5371 37.7364 7.76716 41.059 9.06874V3.14727C37.7364 4.04837 34.3814 3.63358 31.075 5.17831Z" fill="url(#paint0_linear_2406_12)"/>
<defs>
<linearGradient id="paint0_linear_2406_12" x1="0.296651" y1="37.8608" x2="98.5801" y2="37.8608" gradientUnits="userSpaceOnUse">
<stop stop-color="#AE8ABE"/>
<stop offset="1" stop-color="#8390C8"/>
</linearGradient>
</defs>
</svg>
