<svg width="82" height="82" viewBox="0 0 82 82" fill="none" xmlns="http://www.w3.org/2000/svg">
<path d="M64.6347 54.5617C65.932 55.1473 67.2131 55.7185 68.559 56.3326C68.4131 57.3038 68.2996 58.0607 68.1536 58.989C69.1753 59.2033 70.1158 59.4032 71.3807 59.6746C71.705 60.66 72.0618 61.7597 72.4024 62.8166L70.0509 64.6875C71.9483 66.4442 72.0294 68.2008 69.8078 70.0146C69.0131 69.9432 68.0563 69.8575 67.132 69.7861C66.1103 72.9853 66.0131 73.0566 62.4941 73.228C61.9589 72.6996 61.3589 72.1283 60.613 71.4C58.6183 72.9995 56.6074 73.1709 54.5479 71.1857C54.6452 70.5002 54.7425 69.6576 54.8723 68.6864C53.8668 68.5293 52.9911 68.4007 51.8235 68.2151C51.337 67.1439 50.8019 65.9729 50.2506 64.8018C50.4938 64.6161 50.7209 64.4161 50.9641 64.2305L51.1425 63.9877L50.9154 64.2019C50.7046 64.4161 50.4938 64.6161 50.2668 64.8303L46.2613 67.3868C46.2613 69.7861 46.1478 72.1854 46.2937 74.5705C46.4072 76.3557 45.6126 77.3411 43.8125 78.0267C41.3314 78.9693 38.9314 80.0833 36.6773 81.0545C35.0557 80.4118 35.234 79.3407 35.234 78.3552C35.234 75.456 35.1043 72.5425 35.2827 69.6433C35.3962 67.9009 34.5367 66.8298 33.1259 65.8443C27.4339 61.874 21.8392 57.7751 16.0498 53.919C14.0714 52.6051 12.6768 51.3198 13.1633 49.1204C12.2227 48.6491 11.347 48.3634 10.6984 47.8635C8.37939 46.0926 8.86591 43.3791 11.7362 42.3222C12.6444 41.9794 13.7146 41.8652 14.7038 41.8652C32.2177 41.8366 49.7479 41.8366 67.2617 41.8652C70.797 41.8652 72.6943 43.6218 72.224 46.1926C71.9159 47.8207 70.4888 48.4205 68.8347 48.9918C69.3698 51.9767 66.6293 53.0621 64.6022 54.576C64.3752 54.7759 64.1319 54.9759 63.9049 55.1615L63.2563 55.7756C63.1428 55.8613 63.013 55.9328 63.0778 55.9042C63.0292 55.9471 63.1265 55.8471 63.2238 55.7614L63.9374 55.1901L64.6022 54.576L64.6347 54.5617ZM56.575 55.6329C58.4399 53.9476 60.9535 54.9045 62.4616 53.2621C63.7103 51.9053 66.451 51.4911 65.7861 48.9918C62.1698 48.4634 18.1742 48.5634 15.2877 49.1632C15.7742 49.963 16.0498 50.8342 16.666 51.3769C17.785 52.348 19.1472 53.1192 20.3797 53.9904C26.2177 58.1179 32.0718 62.2453 38.1368 66.5441V78.1267C40.1638 77.2269 41.7531 76.5128 43.4558 75.7559C43.4558 73.7279 43.6504 71.8141 43.4071 69.9432C43.0666 67.3011 44.3802 65.5872 46.7154 64.1876C49.0668 62.7737 51.2722 61.217 52.2776 58.7177C52.456 58.2893 52.9912 57.9894 53.2993 57.6894C54.3047 57.7894 55.1642 57.8751 56.1372 57.975C56.3156 57.0182 56.4453 56.247 56.5588 55.6186L56.575 55.6329ZM12.4011 44.3216C11.9471 45.807 12.3686 46.4354 13.4714 46.5782C14.2498 46.6782 15.0606 46.6496 15.8552 46.6496C32.6718 46.6496 49.4722 46.6496 66.2888 46.6496C66.9699 46.6496 67.6996 46.7639 68.3159 46.5782C68.9483 46.3925 69.4834 45.9212 70.0834 45.5642C68.9158 43.8218 67.2779 44.3359 65.8995 44.3359C49.1964 44.3074 32.5096 44.3216 15.8066 44.3216H12.4011ZM59.0724 56.6754C58.9913 57.7465 58.9751 58.9034 57.7102 59.4318C56.5912 59.9031 55.3588 60.1459 54.1912 60.4887C55.7966 62.888 55.6993 63.7591 53.5425 65.8014C56.6236 66.5013 57.3372 67.3154 57.3047 70.0718C57.3047 70.2003 57.4993 70.3288 57.5966 70.443C58.3102 69.9575 58.9426 69.5433 59.8345 68.9435C61.1481 69.5147 62.5265 70.1288 63.8563 70.7144C64.6023 67.9866 65.2509 67.5724 69.0618 67.4582C68.5104 66.8012 67.9915 66.1728 67.2942 65.3302C67.9591 64.2019 68.6402 63.0308 69.305 61.8882C66.2725 61.7883 65.4779 59.8603 65.7536 57.2324C62.5427 58.8177 61.6345 58.7177 59.1048 56.6611L59.0724 56.6754Z" fill="url(#paint0_linear_2343_384)"/>
<path d="M26.6232 32.5232C27.5638 32.9659 28.3422 33.323 29.0719 33.6658C28.553 35.7937 27.0773 38.0931 25.0826 39.7927C23.0069 38.1931 21.9204 36.0937 20.8501 33.8086C21.8069 33.3087 22.6501 32.866 23.4772 32.4375C23.4772 29.5811 23.2988 29.3812 20.4609 29.2955C18.9852 29.2527 17.5095 29.2955 16.0338 29.2955C11.8824 29.2384 10.358 28.1673 9.32011 24.6396C9.2066 24.2683 9.10933 23.897 8.94716 23.2829C6.95253 23.2829 5.03894 23.3257 3.14161 23.2829C0.936152 23.2257 0.465866 22.883 0.44965 21.0264C0.401 14.828 0.417216 8.61547 0.44965 2.41716C0.44965 1.84589 0.757808 1.28889 1.00106 0.446267C2.93083 0.403421 4.82816 0.360595 6.7255 0.332031C7.52011 0.332031 8.31473 0.332031 9.10934 0.332031C15.6446 0.332031 15.9203 0.431981 20.0555 4.8165C20.5258 5.31636 20.996 6.03045 20.996 6.64456C21.0771 11.9288 21.0447 17.2274 21.0447 22.4545C18.2392 24.0827 15.2392 22.7544 12.5959 23.5114C12.0932 26.0535 12.5797 26.7248 15.1257 26.8533C16.6014 26.9247 18.0771 26.8676 19.5528 26.8819C24.4502 26.8962 25.9421 28.0815 26.6394 32.566L26.6232 32.5232ZM3.12542 2.4743C3.12542 8.32984 3.12542 13.8426 3.12542 19.3554C3.12542 19.7267 3.27133 20.1123 3.3362 20.4408C7.27682 20.9978 16.2446 20.8978 18.7095 20.2551C18.7095 18.0843 18.7906 15.8849 18.6933 13.6855C18.596 11.5289 19.1473 9.34384 18.3365 7.24442C16.6176 7.14445 15.0608 7.05875 13.4391 6.97306C13.2932 5.30209 13.1797 3.94533 13.0661 2.4743H3.12542ZM16.3906 4.75936C16.196 4.61654 16.05 4.48802 15.8716 4.37376C15.8716 4.37376 15.677 4.51657 15.677 4.54514C15.7581 4.70224 15.8878 4.84507 15.9851 5.00217L16.3906 4.75936Z" fill="url(#paint1_linear_2343_384)"/>
<path d="M80.722 22.7293C78.5003 23.9005 75.8732 22.8436 73.311 23.4577C73.2137 23.8433 73.0516 24.3003 72.9867 24.7716C72.6462 27.5423 70.9109 29.0705 67.7487 29.2561C66.273 29.3418 64.7973 29.2561 63.3216 29.2847C62.2027 29.3133 61.0837 29.3847 59.981 29.4418C59.5432 30.0988 59.1378 30.5843 58.8783 31.1271C58.6999 31.4698 58.7161 31.8983 58.6188 32.4124C59.7215 32.8409 60.7756 33.255 62.0567 33.7549C60.4188 35.8686 59.8512 38.2822 57.4188 39.9104C55.6349 37.9537 54.289 36.1971 53.4619 33.8691C54.3538 33.4121 55.1971 32.9837 56.1215 32.5124C56.1701 32.3267 56.2836 32.0411 56.316 31.7555C56.6404 28.4706 58.4566 26.9425 62.1864 26.8568C64.0027 26.8139 65.8189 26.8996 67.6352 26.8282C69.9866 26.7282 70.4082 26.2141 70.5055 23.6148C69.046 22.9293 67.4406 23.3863 65.9 23.2721C64.7648 23.2007 63.6297 23.2721 62.4946 23.2292C61.3107 23.1721 60.6135 22.6151 60.5162 21.5439C60.5 21.344 60.4999 21.1441 60.4999 20.9441C60.4999 14.4459 60.5323 7.93339 60.5485 1.43517C60.5485 1.24951 60.6945 1.06383 60.8404 0.706785C61.2296 0.59253 61.7486 0.335487 62.2675 0.335487C66.0135 0.292642 69.7758 0.264078 73.5218 0.335487C74.3488 0.349769 75.3381 0.635374 75.9705 1.10667C77.5111 2.27778 78.9543 3.57745 80.3165 4.91993C80.803 5.39123 81.1598 6.14817 81.1598 6.79085C81.1923 11.8895 81.1437 17.0023 81.095 22.1009C81.095 22.2866 80.9004 22.458 80.7382 22.7436L80.722 22.7293ZM78.8571 20.6728C78.8571 18.1592 78.8571 15.9741 78.8571 13.7747C78.8571 11.6181 78.8084 9.44726 78.7759 7.14789C77.5921 7.14789 76.7976 7.17646 76.0192 7.14789C75.257 7.10505 74.4948 6.9908 73.6029 6.89083C73.4569 5.30555 73.311 3.86308 73.1974 2.54915H63.4837C62.9162 8.20474 63.127 18.6019 63.8568 20.6728H78.8571ZM76.5219 4.76281C76.3273 4.61999 76.1814 4.49147 76.003 4.37722C76.003 4.37722 75.8084 4.52003 75.8084 4.54859C75.8895 4.70569 76.0192 4.84852 76.1165 5.00562L76.5219 4.76281Z" fill="url(#paint2_linear_2343_384)"/>
<path d="M50.6402 22.9568C49.4888 23.0568 48.2888 23.1996 47.0725 23.2567C45.8401 23.3138 44.5914 23.2567 43.3265 23.2567C42.3697 24.7991 42.8563 26.3273 42.7752 27.7841C42.6941 29.2836 42.759 30.7832 42.759 32.3828C43.6671 32.8112 44.5266 33.2111 45.5158 33.6824C44.7536 36.0246 43.4077 37.8955 41.559 39.7093C39.013 38.3954 38.5102 36.0389 36.9697 33.9824C37.9751 33.4396 38.7859 33.0112 39.8238 32.4542V23.3852C37.7805 23.3424 35.7696 23.2996 33.7749 23.271C30.7749 23.2139 30.4506 22.9711 30.4343 20.3289C30.4019 14.4163 30.4343 8.50359 30.4343 2.59092C30.4343 2.00537 30.5478 1.41983 30.6289 0.691463C31.3262 0.548645 31.9587 0.320108 32.5912 0.305826C36.1102 0.262981 39.6454 0.32011 43.1644 0.262983C44.5266 0.234419 45.4996 0.691459 46.4725 1.49124C51.0943 5.34733 51.1267 5.31875 51.1105 11.0315C51.1105 14.6305 51.0781 18.2438 51.0456 21.8428C51.0456 22.0285 50.9159 22.2141 50.6402 22.9425V22.9568ZM43.213 2.50524H33.4182V20.6146H48.7915V7.30395C46.8131 7.17541 45.1753 7.07541 43.4725 6.96115C43.3752 5.33303 43.3103 4.04767 43.213 2.50524ZM46.2294 5.01885L46.5212 4.89032L46.1158 4.43329L45.759 4.69035C45.905 4.80461 46.0672 4.90459 46.2131 5.01885H46.2294Z" fill="url(#paint3_linear_2343_384)"/>
<path d="M61.91 68.243C59.3315 68.3573 56.5423 66.0865 56.4288 63.7871C56.3315 61.7591 58.6342 59.6739 61.2127 59.4454C63.5154 59.2455 66.483 61.6163 66.5154 63.6728C66.5316 65.7151 64.083 68.1573 61.91 68.243ZM61.6018 65.9294C63.1586 65.9008 63.8721 65.2581 63.8883 63.8728C63.8883 62.5017 63.1748 61.8163 61.6504 61.7734C59.9801 61.7306 59.1207 62.5018 59.2018 63.9871C59.2667 65.3439 60.0289 65.9437 61.6181 65.9151L61.6018 65.9294Z" fill="url(#paint4_linear_2343_384)"/>
<path d="M5.25098 14.8867V12.4731C9.04565 12.3588 12.7106 12.3445 16.5863 12.4873C16.6512 13.2585 16.6998 13.8012 16.7809 14.6724C12.9863 15.1009 9.32133 14.8153 5.25098 14.8724V14.8867Z" fill="url(#paint5_linear_2343_384)"/>
<path d="M16.4879 8.78794C16.9095 10.0876 16.5852 10.6874 15.5635 10.7017C12.1905 10.7445 8.80122 10.716 5.28223 10.716V8.81654C9.02825 8.60231 12.7094 8.65944 16.4879 8.77369V8.78794Z" fill="url(#paint6_linear_2343_384)"/>
<path d="M16.4713 16.5732C16.9092 17.9014 16.6011 18.5012 15.5957 18.5298C13.374 18.5869 11.1523 18.5441 8.91441 18.5441C8.47657 17.4158 8.4928 16.6446 9.74147 16.5875C11.9631 16.4875 14.1848 16.5589 16.4713 16.5589V16.5732Z" fill="url(#paint7_linear_2343_384)"/>
<path d="M11.8019 7.00294H5.54234C4.95855 6.16031 4.94231 5.38911 5.93152 5.27485C7.4721 5.10347 9.06133 5.16061 10.6019 5.28915C10.9425 5.31771 11.2019 6.10322 11.8019 6.98869V7.00294Z" fill="url(#paint8_linear_2343_384)"/>
<path d="M7.64929 17.6706C7.00063 18.0419 6.61144 18.4561 6.18981 18.4847C5.37898 18.5418 4.94116 18.0134 5.20062 17.3564C5.33036 17.0279 5.97902 16.6566 6.36822 16.6851C6.7412 16.7137 7.08173 17.1993 7.66552 17.6706H7.64929Z" fill="url(#paint9_linear_2343_384)"/>
<path d="M76.5689 16.5869C77.1365 18.0865 76.5689 18.5577 75.4337 18.5577C72.158 18.5863 68.8984 18.5577 65.5902 18.5577C65.1524 17.4866 65.0389 16.644 66.3362 16.6011C69.7093 16.5011 73.0985 16.5726 76.5689 16.5726V16.5869Z" fill="url(#paint10_linear_2343_384)"/>
<path d="M65.4131 10.7455C65.332 10.0028 65.2996 9.61724 65.251 9.11737C65.8186 8.97455 66.3375 8.74603 66.8564 8.74603C69.6943 8.71747 72.5322 8.71747 75.3701 8.74603C76.489 8.74603 77.089 9.1602 76.6674 10.5741C73.116 10.9883 69.4348 10.6884 65.4131 10.7598V10.7455Z" fill="url(#paint11_linear_2343_384)"/>
<path d="M65.3965 14.8748V12.4326C67.6506 12.4326 69.7426 12.4041 71.8345 12.4326C72.7102 12.4469 73.5048 12.9182 73.2778 13.6894C73.1319 14.175 72.2562 14.7748 71.6562 14.8034C69.6777 14.9462 67.6668 14.8605 65.3965 14.8605V14.8748Z" fill="url(#paint12_linear_2343_384)"/>
<path d="M71.8345 6.97448H65.7209C65.056 6.23183 65.0398 5.40349 65.9804 5.28924C67.6183 5.08929 69.3048 5.2178 70.9589 5.34634C71.2021 5.36062 71.3805 6.10329 71.8345 6.97448Z" fill="url(#paint13_linear_2343_384)"/>
<path d="M76.9265 13.2604C76.9265 14.4029 76.4725 14.9885 75.5157 14.8028C75.013 14.7029 74.3805 14.1601 74.267 13.7317C74.04 12.9033 74.6724 12.3463 75.6291 12.4891C76.1643 12.5748 76.6022 13.0604 76.9265 13.2604Z" fill="url(#paint14_linear_2343_384)"/>
<path d="M46.8611 14.7607H35.3799V12.5898H46.4882L46.8611 14.7607Z" fill="url(#paint15_linear_2343_384)"/>
<path d="M35.4456 16.5733C38.9322 16.5733 42.3053 16.5304 45.6945 16.6019C46.7 16.6161 47.008 17.2445 46.5702 18.3871C45.7431 18.4442 44.7702 18.5728 43.7972 18.587C41.4134 18.6156 39.0295 18.587 36.6457 18.587C35.4781 18.587 34.9916 18.0729 35.4619 16.5876L35.4456 16.5733Z" fill="url(#paint16_linear_2343_384)"/>
<path d="M38.8351 10.4039C38.527 9.44703 38.7541 8.80437 39.7919 8.7758C42.0136 8.71868 44.2353 8.76151 46.2623 8.76151C47.0083 9.73267 47.0083 10.5324 46.0029 10.6181C43.6029 10.8324 41.1379 11.0752 38.8351 10.4182V10.4039Z" fill="url(#paint17_linear_2343_384)"/>
<path d="M41.8187 6.98908H35.5915C35.0077 6.13217 35.0239 5.37521 36.0294 5.26095C37.5699 5.08957 39.1592 5.14673 40.6997 5.28954C41.0241 5.31811 41.2673 6.11788 41.8187 6.97479V6.98908Z" fill="url(#paint18_linear_2343_384)"/>
<path d="M34.8145 9.85965C35.382 9.38835 35.7226 8.88851 36.0956 8.85995C36.4848 8.83139 37.1334 9.20271 37.2632 9.5312C37.5389 10.1882 37.0848 10.7166 36.274 10.6737C35.8524 10.6452 35.4631 10.2453 34.8145 9.87395V9.85965Z" fill="url(#paint19_linear_2343_384)"/>
<defs>
<linearGradient id="paint0_linear_2343_384" x1="9.27131" y1="61.4313" x2="72.4186" y2="61.4313" gradientUnits="userSpaceOnUse">
<stop stop-color="#AE8ABE"/>
<stop offset="1" stop-color="#8390C8"/>
</linearGradient>
<linearGradient id="paint1_linear_2343_384" x1="0.417216" y1="20.0409" x2="29.0719" y2="20.0409" gradientUnits="userSpaceOnUse">
<stop stop-color="#AE8ABE"/>
<stop offset="1" stop-color="#8390C8"/>
</linearGradient>
<linearGradient id="paint2_linear_2343_384" x1="53.4619" y1="20.1015" x2="81.1436" y2="20.1015" gradientUnits="userSpaceOnUse">
<stop stop-color="#AE8ABE"/>
<stop offset="1" stop-color="#8390C8"/>
</linearGradient>
<linearGradient id="paint3_linear_2343_384" x1="30.4181" y1="19.9862" x2="51.1105" y2="19.9862" gradientUnits="userSpaceOnUse">
<stop stop-color="#AE8ABE"/>
<stop offset="1" stop-color="#8390C8"/>
</linearGradient>
<linearGradient id="paint4_linear_2343_384" x1="56.4288" y1="63.8442" x2="66.5154" y2="63.8442" gradientUnits="userSpaceOnUse">
<stop stop-color="#AE8ABE"/>
<stop offset="1" stop-color="#8390C8"/>
</linearGradient>
<linearGradient id="paint5_linear_2343_384" x1="5.25098" y1="13.6584" x2="16.7647" y2="13.6584" gradientUnits="userSpaceOnUse">
<stop stop-color="#AE8ABE"/>
<stop offset="1" stop-color="#8390C8"/>
</linearGradient>
<linearGradient id="paint6_linear_2343_384" x1="5.29844" y1="9.71628" x2="16.6663" y2="9.71628" gradientUnits="userSpaceOnUse">
<stop stop-color="#AE8ABE"/>
<stop offset="1" stop-color="#8390C8"/>
</linearGradient>
<linearGradient id="paint7_linear_2343_384" x1="8.65495" y1="17.5586" x2="16.6659" y2="17.5586" gradientUnits="userSpaceOnUse">
<stop stop-color="#AE8ABE"/>
<stop offset="1" stop-color="#8390C8"/>
</linearGradient>
<linearGradient id="paint8_linear_2343_384" x1="5.13692" y1="6.07463" x2="11.8019" y2="6.07463" gradientUnits="userSpaceOnUse">
<stop stop-color="#AE8ABE"/>
<stop offset="1" stop-color="#8390C8"/>
</linearGradient>
<linearGradient id="paint9_linear_2343_384" x1="5.11954" y1="17.5849" x2="7.64931" y2="17.5849" gradientUnits="userSpaceOnUse">
<stop stop-color="#AE8ABE"/>
<stop offset="1" stop-color="#8390C8"/>
</linearGradient>
<linearGradient id="paint10_linear_2343_384" x1="65.2821" y1="17.558" x2="76.7797" y2="17.558" gradientUnits="userSpaceOnUse">
<stop stop-color="#AE8ABE"/>
<stop offset="1" stop-color="#8390C8"/>
</linearGradient>
<linearGradient id="paint11_linear_2343_384" x1="65.251" y1="9.76004" x2="76.8134" y2="9.76004" gradientUnits="userSpaceOnUse">
<stop stop-color="#AE8ABE"/>
<stop offset="1" stop-color="#8390C8"/>
</linearGradient>
<linearGradient id="paint12_linear_2343_384" x1="65.3965" y1="13.6608" x2="73.3265" y2="13.6608" gradientUnits="userSpaceOnUse">
<stop stop-color="#AE8ABE"/>
<stop offset="1" stop-color="#8390C8"/>
</linearGradient>
<linearGradient id="paint13_linear_2343_384" x1="65.2344" y1="6.08901" x2="71.8345" y2="6.08901" gradientUnits="userSpaceOnUse">
<stop stop-color="#AE8ABE"/>
<stop offset="1" stop-color="#8390C8"/>
</linearGradient>
<linearGradient id="paint14_linear_2343_384" x1="74.2183" y1="13.646" x2="76.9265" y2="13.646" gradientUnits="userSpaceOnUse">
<stop stop-color="#AE8ABE"/>
<stop offset="1" stop-color="#8390C8"/>
</linearGradient>
<linearGradient id="paint15_linear_2343_384" x1="35.3961" y1="13.661" x2="46.8611" y2="13.661" gradientUnits="userSpaceOnUse">
<stop stop-color="#AE8ABE"/>
<stop offset="1" stop-color="#8390C8"/>
</linearGradient>
<linearGradient id="paint16_linear_2343_384" x1="35.2673" y1="17.573" x2="46.7486" y2="17.573" gradientUnits="userSpaceOnUse">
<stop stop-color="#AE8ABE"/>
<stop offset="1" stop-color="#8390C8"/>
</linearGradient>
<linearGradient id="paint17_linear_2343_384" x1="38.7216" y1="9.7898" x2="46.7975" y2="9.7898" gradientUnits="userSpaceOnUse">
<stop stop-color="#AE8ABE"/>
<stop offset="1" stop-color="#8390C8"/>
</linearGradient>
<linearGradient id="paint18_linear_2343_384" x1="35.2023" y1="6.07504" x2="41.8187" y2="6.07504" gradientUnits="userSpaceOnUse">
<stop stop-color="#AE8ABE"/>
<stop offset="1" stop-color="#8390C8"/>
</linearGradient>
<linearGradient id="paint19_linear_2343_384" x1="34.8145" y1="9.7597" x2="37.3443" y2="9.7597" gradientUnits="userSpaceOnUse">
<stop stop-color="#AE8ABE"/>
<stop offset="1" stop-color="#8390C8"/>
</linearGradient>
</defs>
</svg>
