<svg width="113" height="77" viewBox="0 0 113 77" fill="none" xmlns="http://www.w3.org/2000/svg">
<path d="M0.648047 76.5779V73.0879C0.648047 50.8038 0.648047 28.5339 0.648047 6.24973C0.648047 5.74912 0.615632 5.24851 0.648047 4.7479C0.842539 2.11614 2.6578 0.47129 5.67243 0.456987C15.5591 0.414077 25.462 0.414077 35.3487 0.456987C38.1851 0.456987 40.2596 2.27348 40.4217 4.7479C40.519 6.23542 40.4379 7.72296 40.4379 9.56805H44.3764C61.7834 9.56805 79.1743 9.56805 96.5814 9.56805C101.557 9.56805 101.833 9.81119 101.833 14.1164C101.833 16.6194 101.833 19.1368 101.833 21.7113L105.398 23.3133L104.312 28.7913C106.16 28.7913 107.959 28.7484 109.758 28.7913C112.125 28.8629 112.757 29.5065 112.287 31.5948C111.087 36.987 109.823 42.365 108.526 47.7286C106.549 55.9243 104.637 64.1485 102.481 72.3013C101.363 76.5493 102.513 76.5922 96.6624 76.5922C66.1919 76.5779 35.7053 76.5922 5.23482 76.5922H0.631836L0.648047 76.5779ZM5.20241 72.716H98.2021C101.476 59.357 104.718 46.1267 107.975 32.9106C104.588 32.267 17.6823 32.3242 14.8622 32.9679C11.6693 46.1124 8.46015 59.3427 5.21862 72.7303L5.20241 72.716ZM5.04033 3.84683V54.9659C6.53144 50.1315 7.81185 45.3114 7.63356 40.2338C7.40666 33.5114 7.56873 26.7746 7.58494 20.0522C7.58494 18.6505 7.42286 17.2059 9.23812 16.1189H11.3775C37.7799 16.1189 64.166 16.1189 90.5683 16.1189C91.1356 16.1189 91.7029 16.1188 92.2701 16.1331C93.6154 16.1904 94.3771 16.7768 94.4257 18.0068C94.4581 19.1082 94.4419 20.2095 94.5068 21.3109C94.5068 21.5826 94.7661 21.8401 94.9768 22.2406C95.8358 22.1404 96.6786 22.0546 97.6349 21.9402C97.6673 18.9938 97.9752 16.219 97.408 13.2725C92.2539 13.2725 87.2619 13.2725 82.27 13.2725C68.3962 13.2725 54.5062 13.2725 40.6324 13.2725C37.1964 13.2725 36.467 12.6289 36.3212 9.61096C36.2888 8.80999 36.3536 8.009 36.3212 7.20803C36.2563 6.14961 36.1429 5.07688 36.0294 3.86112H5.05654L5.04033 3.84683ZM21.2966 28.6054H99.8391C100.034 28.1191 100.26 27.7758 100.325 27.3896C100.39 27.0178 100.293 26.6316 100.261 26.0881H22.2691L21.2804 28.6054H21.2966ZM11.9934 19.8949V28.9487C13.7763 28.82 15.3322 28.7055 17.0502 28.5768C17.504 27.1751 17.893 25.8306 18.3793 24.5147C19.0438 22.6983 19.6435 22.3121 21.7991 22.212C22.5933 22.169 23.3874 22.212 24.1816 22.212C43.0636 22.212 61.9455 22.212 80.8275 22.212C83.5504 22.212 86.2895 22.212 89.0124 22.169C89.3203 22.169 89.6283 21.9831 90.1307 21.8115L89.8552 19.8949H11.9772H11.9934Z" fill="url(#paint0_linear_2406_18)"/>
<path d="M33.4359 8.40977C32.82 9.71135 31.8152 10.1977 30.4213 10.1977C26.3532 10.1977 22.285 10.1977 18.2169 10.1977C18.1034 10.1977 17.99 10.1977 17.8765 10.1977C15.9316 10.0117 14.9754 9.33947 15.0402 8.20953C15.1212 7.02237 15.8992 6.53609 18.0386 6.50748C22.1067 6.47887 26.1749 6.50747 30.243 6.49316C31.7665 6.49316 32.8849 6.89366 33.4197 8.42409L33.4359 8.40977Z" fill="url(#paint1_linear_2406_18)"/>
<path d="M9.3188 10.2115C8.70291 9.59648 8.13564 9.02434 7.64941 8.52374C8.08702 7.29367 8.78396 6.46411 10.0644 6.63574C10.664 6.72156 11.4582 7.40811 11.6041 7.93733C11.8958 9.09587 10.891 9.68229 9.33502 10.2258L9.3188 10.2115Z" fill="url(#paint2_linear_2406_18)"/>
<defs>
<linearGradient id="paint0_linear_2406_18" x1="0.631836" y1="38.4888" x2="112.449" y2="38.4888" gradientUnits="userSpaceOnUse">
<stop stop-color="#AE8ABE"/>
<stop offset="1" stop-color="#8390C8"/>
</linearGradient>
<linearGradient id="paint1_linear_2406_18" x1="15.0402" y1="8.33826" x2="33.4359" y2="8.33826" gradientUnits="userSpaceOnUse">
<stop stop-color="#AE8ABE"/>
<stop offset="1" stop-color="#8390C8"/>
</linearGradient>
<linearGradient id="paint2_linear_2406_18" x1="7.64941" y1="8.40932" x2="11.6527" y2="8.40932" gradientUnits="userSpaceOnUse">
<stop stop-color="#AE8ABE"/>
<stop offset="1" stop-color="#8390C8"/>
</linearGradient>
</defs>
</svg>
