<svg width="114" height="110" viewBox="0 0 114 110" fill="none" xmlns="http://www.w3.org/2000/svg">
<path d="M110.667 91.7857C114.899 82.7308 113.764 73.4631 108.964 64.7155C105.489 58.3794 101.989 52.067 98.4659 45.7545C97.5673 44.1469 96.6452 42.5392 95.6284 41.0025C92.9092 36.7705 86.4067 35.021 81.5594 39.3002C80.6845 40.0568 79.8333 40.8606 78.9584 41.6645C73.5673 39.3712 69.8313 42.3028 66.2609 45.4708C62.2884 43.9814 58.9781 45.5418 55.4076 47.6459C54.4854 46.1801 53.6579 44.7616 52.712 43.414C50.4421 40.1041 48.3613 36.605 45.7367 33.5789C43.1593 30.6236 37.2716 30.5763 34.1977 32.9878C29.9179 36.3686 28.9011 40.6715 31.4312 45.4945C32.8499 48.166 34.5051 50.6957 36.0893 53.2727C40.0381 59.6561 44.0342 66.0158 48.2667 72.8011C45.3583 72.872 42.71 72.7538 40.109 73.0848C37.981 73.3448 35.9238 74.1014 33.8667 74.7398C32.2351 75.2599 31.5967 76.702 31.2184 78.1915C30.2016 82.1397 31.4548 85.3787 34.9307 87.7665C36.3021 88.7122 37.7445 89.587 39.2578 90.2963C50.8204 95.7576 62.3593 101.219 73.9692 106.609C77.9653 108.477 82.1742 109.777 86.6195 109.375C98.1112 108.335 105.985 101.786 110.643 91.7857H110.667ZM90.0481 103.843C86.8796 104.671 83.6875 104.812 80.6372 103.583C75.1752 101.384 69.7604 99.1147 64.4165 96.656C56.3061 92.9441 48.2667 89.0668 40.2509 85.1659C38.9504 84.5276 37.6972 83.5346 36.846 82.3998C35.5691 80.6739 36.113 79.1845 38.0519 78.357C41.6933 76.7966 45.2401 77.0094 48.6923 78.9717C51.1751 80.3902 53.6815 81.8088 56.7318 81.1704C58.1505 79.5391 57.5593 78.1442 56.5899 76.5838C52.1918 69.6094 47.8647 62.6113 43.5376 55.6133C41.315 52.0433 39.1632 48.4261 36.9406 44.8562C34.3159 40.6006 34.4814 39.6785 38.9504 35.8721C41.7169 36.345 43.3248 37.8108 44.6253 39.9858C47.2027 44.3124 49.9692 48.5443 52.7593 52.7289C54.9347 56.0152 56.1406 55.9443 58.6234 52.6817C60.917 49.6791 62.5249 49.3954 65.8116 51.2868C66.8047 51.8542 67.8924 52.2561 69.1456 52.8235C69.7604 51.8069 70.3279 51.0031 70.7298 50.152C72.8343 45.5654 74.6786 44.9271 78.8402 47.4331C79.5259 47.8587 80.2353 48.2842 81.1811 48.8753C81.985 47.7641 82.718 46.8893 83.2619 45.8964C86.2885 40.2932 89.1969 40.1277 92.5545 45.7073C95.5811 50.743 98.3476 55.9443 101.138 61.1219C103.195 64.9519 105.489 68.7583 106.978 72.8247C109.934 80.934 107.759 88.4049 102.769 95.0956C99.5772 99.3748 95.3683 102.425 90.119 103.82L90.0481 103.843Z" fill="url(#paint0_linear_2343_510)"/>
<path d="M58.7413 6.36791C51.293 1.73406 43.1117 0.504657 34.5048 1.14299C29.2082 1.54491 24.0772 2.75065 19.7028 5.61135C5.58646 14.7845 -1.67267 27.4093 0.62093 44.7154C2.53621 59.1843 10.6939 68.7594 23.9116 75.1191C24.7865 73.8424 25.5668 72.7076 26.6781 71.0763C24.5264 69.8942 23.2259 69.1377 21.9018 68.452C16.8417 65.8041 12.822 61.8086 10.1027 57.0329C2.98547 44.5972 3.00912 31.9486 11.285 20.0567C21.7599 4.97301 39.8959 2.65609 53.894 9.53595C61.8861 13.4605 67.5374 19.8203 70.4694 28.3314C71.1551 30.2937 71.5807 32.2323 73.9926 32.5633C76.428 31.2157 76.1207 29.1589 75.4349 27.1966C72.2901 18.3308 66.7571 11.3564 58.7649 6.36791H58.7413Z" fill="url(#paint1_linear_2343_510)"/>
<path d="M32.3532 22.5624C43.2301 18.6851 52.7119 24.8793 56.2114 34.3834C56.5661 35.3291 56.4479 36.5112 56.9681 37.2678C57.4646 37.9534 58.5996 38.639 59.3563 38.5208C60.1366 38.4026 61.0824 37.4569 61.3661 36.6531C61.6499 35.802 61.3661 34.6672 61.106 33.7215C59.6164 28.402 56.9208 23.8864 52.239 20.6947C41.102 13.0347 25.969 14.9969 18.3788 28.4966C12.964 38.1189 14.7847 50.2236 24.6921 57.9073C26.6074 59.3968 29.1375 60.177 31.502 60.9808C32.1404 61.1936 33.6537 60.508 33.8902 59.9169C34.1739 59.2313 33.6774 57.9783 33.1335 57.2926C32.5424 56.5597 31.502 56.1814 30.6271 55.685C24.1719 52.1387 20.7197 46.8192 20.9089 38.1898C20.9089 31.7828 25.5434 24.9975 32.3769 22.5624H32.3532Z" fill="url(#paint2_linear_2343_510)"/>
<defs>
<linearGradient id="paint0_linear_2343_510" x1="30.0834" y1="70.366" x2="113.292" y2="70.366" gradientUnits="userSpaceOnUse">
<stop stop-color="#AE8ABE"/>
<stop offset="1" stop-color="#8390C8"/>
</linearGradient>
<linearGradient id="paint1_linear_2343_510" x1="0.195313" y1="38.0483" x2="75.9078" y2="38.0483" gradientUnits="userSpaceOnUse">
<stop stop-color="#AE8ABE"/>
<stop offset="1" stop-color="#8390C8"/>
</linearGradient>
<linearGradient id="paint2_linear_2343_510" x1="15.3758" y1="38.639" x2="61.4843" y2="38.639" gradientUnits="userSpaceOnUse">
<stop stop-color="#AE8ABE"/>
<stop offset="1" stop-color="#8390C8"/>
</linearGradient>
</defs>
</svg>
