<svg width="72" height="86" viewBox="0 0 72 86" fill="none" xmlns="http://www.w3.org/2000/svg">
<path d="M19.6209 6.27783C20.1395 5.46256 20.5123 4.7188 21.0472 4.07516C22.7652 2.05843 24.856 0.785456 27.9516 0.856972C33.3002 0.985699 38.6487 1.02861 43.9972 0.856972C47.9195 0.728244 50.5452 2.08703 52.1821 5.13358C52.3766 5.49116 52.6197 5.82013 53.0411 6.46377C56.2989 6.46377 59.6863 6.44946 63.0737 6.46377C64.3217 6.46377 65.5859 6.46377 66.8015 6.63541C69.573 7.03589 71.2748 8.50911 71.7124 10.9835C71.8907 11.9705 71.9069 12.9717 71.9069 13.9729C71.9069 35.4561 71.9069 56.9393 71.9069 78.4225C71.9069 79.7097 71.7934 81.0399 71.4207 82.27C70.7562 84.5013 69.3299 85.388 66.7853 85.5168C66.4449 85.5311 66.1045 85.5168 65.7642 85.5168C46.2015 85.5168 26.6226 85.5168 7.05994 85.5168C2.82973 85.5168 0.868601 83.8004 0.868601 79.9815C0.852393 57.4971 0.852393 34.9984 0.868601 12.514C0.868601 8.4662 3.2025 6.47807 7.85411 6.44946C11.5008 6.42086 15.1314 6.43516 18.7781 6.42086C19.005 6.42086 19.2157 6.34934 19.6695 6.26353L19.6209 6.27783ZM52.9115 9.59614C52.9115 10.6117 52.9115 11.2124 52.9115 11.7988C52.9115 12.3995 52.9439 13.0003 52.9115 13.601C52.798 15.6177 52.3604 16.104 50.0589 16.1183C40.9664 16.1612 31.8739 16.1612 22.7814 16.1183C20.2044 16.1183 19.4912 15.3317 19.3778 12.9431C19.3292 11.8846 19.2967 10.8119 19.2481 9.58184C15.0341 9.58184 11.1767 9.52463 7.33547 9.59614C5.26088 9.63905 4.56394 10.3542 4.40187 12.185C4.35324 12.7857 4.40187 13.3865 4.40187 13.9872C4.40187 35.4561 4.40187 56.925 4.40187 78.3938V81.2974C6.03884 82.9565 7.77308 82.8421 9.49109 82.8421C27.4492 82.8421 45.4235 82.8421 63.3817 82.8421C64.0624 82.8421 64.7593 82.885 65.4238 82.8135C67.3525 82.6132 68.2115 81.8266 68.3898 80.0816C68.4709 79.2806 68.406 78.4797 68.406 77.6787C68.406 63.3327 68.406 48.9868 68.406 34.6408C68.406 27.3176 68.4222 19.9945 68.406 12.6713C68.406 10.5115 67.6119 9.68195 65.2455 9.61044C61.2909 9.51031 57.32 9.58184 52.9601 9.58184L52.9115 9.59614ZM49.1027 12.8143C49.1999 12.3137 49.2972 11.9418 49.3134 11.57C49.3458 10.769 49.3458 9.96802 49.3134 9.16705C49.2648 5.29092 47.5305 3.66037 43.2031 3.58885C38.6649 3.51733 34.143 3.53164 29.6048 3.58885C28.3892 3.60315 27.125 3.86061 26.0067 4.2754C24.7425 4.7474 23.6566 5.61989 23.5432 6.93577C23.3649 8.88099 23.1542 10.8548 23.7052 12.8H49.1027V12.8143Z" fill="url(#paint0_linear_2343_265)"/>
<path d="M36.6552 21.5387C37.0766 22.025 37.6439 22.4255 37.806 22.9261C38.0167 23.5841 37.9194 24.3135 37.9194 25.0144C37.9194 41.1625 37.9194 57.2964 37.9194 73.4445C37.9194 74.2455 38.0167 75.0894 37.7573 75.8331C37.5953 76.2908 36.8497 76.8343 36.3311 76.8629C35.8448 76.8915 35.0831 76.3766 34.8724 75.9333C34.532 75.2324 34.4186 74.3885 34.4186 73.6018C34.4023 57.3536 34.4186 41.1196 34.4023 24.8713C34.4023 23.5125 34.451 22.2253 36.6876 21.5244L36.6552 21.5387Z" fill="url(#paint1_linear_2343_265)"/>
<path d="M48.5031 19.4508C49.9943 20.3948 51.5016 21.3531 53.3168 22.4974C54.2569 21.8251 55.3752 21.0385 56.4773 20.2375C57.4012 19.5796 58.2926 19.4222 59.1516 20.2947C59.8972 21.0671 59.654 21.8108 58.9247 22.4116C58.0171 23.1553 57.0122 23.8133 55.8938 24.6142C57.4012 26.1733 58.5843 27.4033 59.7513 28.6048C57.9522 30.2353 57.4822 30.3784 56.2342 29.5488C55.1645 28.8336 54.2082 27.9612 53.1547 27.1173C52.085 27.9755 51.1288 28.8479 50.0591 29.5631C48.8111 30.3927 48.2924 30.221 46.623 28.5619C47.8548 27.3604 49.119 26.116 50.367 24.886C47.6873 22.6833 47.0607 20.8668 48.4869 19.4365L48.5031 19.4508Z" fill="url(#paint2_linear_2343_265)"/>
<path d="M53.2684 38.9745C50.8859 38.9745 48.5196 39.0317 46.1371 38.9459C45.1484 38.9173 44.0949 38.7313 43.2197 38.3595C42.0851 37.8732 42.15 36.4572 43.3007 35.9565C44.0787 35.6133 45.0187 35.413 45.894 35.413C50.7563 35.3558 55.6348 35.3558 60.4971 35.413C61.3561 35.413 62.2961 35.6562 63.0741 36.0138C64.1762 36.543 64.1438 37.959 62.9931 38.4167C62.1016 38.7743 61.0481 38.9173 60.0595 38.9459C57.8066 39.0174 55.5375 38.9745 53.2684 38.9745Z" fill="url(#paint3_linear_2343_265)"/>
<path d="M30.2857 37.2155C29.6211 38.56 28.5514 38.9748 27.19 38.9748C21.9549 38.9748 16.7198 38.9748 11.501 38.9748C10.1395 38.9748 9.0536 38.5743 8.48633 37.2298C8.90773 35.6994 10.4475 35.4563 11.8899 35.4276C16.8981 35.3418 21.8901 35.3418 26.8983 35.4276C28.2111 35.4563 29.6536 35.6708 30.2857 37.2012V37.2155Z" fill="url(#paint4_linear_2343_265)"/>
<path d="M8.51815 51.0606C9.02059 49.8448 9.99305 49.7304 11.079 49.7447C16.6382 49.7447 22.1974 49.7447 27.7567 49.7447C28.2105 49.7447 28.7616 49.7018 29.0695 49.9163C29.5557 50.2596 30.1716 50.7745 30.1878 51.2465C30.204 51.7042 29.6854 52.3479 29.183 52.6196C28.6481 52.9057 27.8863 52.92 27.2218 52.92C22.003 52.9486 16.7841 52.92 11.5652 52.9486C10.0579 52.9486 8.85852 52.6911 8.50195 51.0606H8.51815Z" fill="url(#paint5_linear_2343_265)"/>
<path d="M42.7981 45.6402C42.6198 43.08 42.8305 42.6366 44.7106 42.6079C50.3671 42.5364 56.0236 42.5221 61.68 42.6079C63.4629 42.6366 63.7222 43.1944 63.4467 45.5687C56.6719 45.8977 49.8484 45.7689 42.7981 45.6402Z" fill="url(#paint6_linear_2343_265)"/>
<path d="M63.4947 66.8373C62.0685 66.8373 60.8529 66.8373 59.6373 66.8373C55.2288 66.8373 50.8203 66.8373 46.3956 66.8373C45.6014 66.8373 44.8073 66.8374 44.0293 66.7944C43.1217 66.7515 42.3923 66.3367 42.5382 65.5215C42.6516 64.935 43.1865 64.3486 43.6889 63.9052C43.9483 63.6764 44.5317 63.6764 44.9693 63.6764C50.3989 63.6621 55.8285 63.6192 61.2581 63.6764C63.4137 63.705 63.673 64.1198 63.4785 66.8231L63.4947 66.8373Z" fill="url(#paint7_linear_2343_265)"/>
<path d="M8.34042 66.0501C8.95631 64.0334 10.1557 63.6472 11.6306 63.6615C16.736 63.6615 21.8576 63.6615 26.9631 63.6615C28.2759 63.6615 29.4104 63.9333 30.237 64.8773C30.237 66.6366 28.989 66.8511 27.4979 66.8368C23.1867 66.8368 18.8592 66.8368 14.548 66.8368C13.3 66.8368 12.0358 66.9226 10.804 66.7939C9.99361 66.7081 9.23185 66.3362 8.32422 66.0501H8.34042Z" fill="url(#paint8_linear_2343_265)"/>
<path d="M30.3015 59.2702C29.1021 59.542 27.9514 59.9997 26.8006 60.0283C21.8087 60.1141 16.8167 60.0569 11.8247 60.0712C10.3498 60.0712 9.11805 59.7994 8.55078 58.412C8.72907 57.0818 9.79877 56.9531 11.0143 56.9531C14.6449 56.9531 18.2754 56.9531 21.9059 56.9531C23.9481 56.9531 25.9902 56.9531 28.0324 56.9531C29.3452 56.9531 30.2043 57.3965 30.3015 59.2702Z" fill="url(#paint9_linear_2343_265)"/>
<path d="M8.34082 44.9537C8.95671 42.937 10.1237 42.5508 11.6148 42.5508C16.7202 42.5508 21.8418 42.5508 26.9473 42.5508C28.2601 42.5508 29.3946 42.8225 30.2536 43.7951C30.2374 45.4972 29.0056 45.7404 27.5145 45.7404C23.6571 45.7404 19.7835 45.7404 15.926 45.7404C14.2242 45.7404 12.5062 45.8119 10.8206 45.6974C10.0102 45.6402 9.24845 45.2398 8.34082 44.9537Z" fill="url(#paint10_linear_2343_265)"/>
<path d="M63.3815 50.0456C63.8029 52.3483 63.5111 52.8347 61.4203 52.9205C59.1513 53.0206 56.866 52.9491 54.5969 52.9491C51.7606 52.9491 48.908 52.9491 46.0717 52.9491C45.2775 52.9491 44.3861 53.0206 43.7377 52.7202C43.1705 52.4485 42.6356 51.719 42.587 51.1469C42.5546 50.7464 43.2677 50.2029 43.7864 49.8882C44.1105 49.688 44.6616 49.7595 45.1154 49.7595C50.9178 49.7595 56.7201 49.7738 62.5225 49.8024C62.7332 49.8024 62.9439 49.9311 63.3815 50.0599V50.0456Z" fill="url(#paint11_linear_2343_265)"/>
<path d="M63.3494 57.0827C64.1273 58.5703 63.8356 59.4141 62.4417 59.7431C61.5827 59.9433 60.6751 60.0435 59.7837 60.0435C55.3752 60.0721 50.9505 60.0864 46.542 60.0435C45.5533 60.0435 44.4674 59.9576 43.5922 59.5858C43.0573 59.3569 42.6359 58.5273 42.6035 57.9552C42.6035 57.6406 43.4625 57.1543 44.0136 56.9969C44.6295 56.8253 45.3588 56.9397 46.0395 56.9397C50.7884 56.9397 55.5535 56.9397 60.3023 56.9397C61.3072 56.9397 62.2959 57.0255 63.3656 57.0684L63.3494 57.0827Z" fill="url(#paint12_linear_2343_265)"/>
<path d="M17.0276 26.7311C19.3777 24.4998 21.4847 22.3972 23.7214 20.4091C24.2076 19.9657 25.1477 19.6224 25.796 19.7226C26.3956 19.8084 26.8819 20.5235 27.1574 20.7381C23.5593 24.1136 20.1719 27.2889 16.6386 30.5929C14.7585 29.7633 13.4943 28.3187 12.1815 26.9742C11.8249 26.6166 11.906 25.6011 12.2301 25.1148C12.765 24.3282 13.7374 24.2995 14.5802 24.9146C15.1961 25.3437 15.7796 25.8014 17.0114 26.7311H17.0276Z" fill="url(#paint13_linear_2343_265)"/>
<path d="M12.4736 71.7717C13.2192 71.4571 13.9485 70.9136 14.7103 70.885C17.7573 70.7848 20.8206 70.7991 23.8838 70.8563C25.4074 70.8849 26.3312 71.6144 26.1529 72.5298C25.9584 73.5882 25.067 74.003 23.9487 74.003C20.9989 74.0173 18.0653 74.0459 15.1155 74.003C13.673 73.9744 13.673 73.9029 12.4898 71.7574L12.4736 71.7717Z" fill="url(#paint14_linear_2343_265)"/>
<path d="M53.3654 70.8421C54.8403 70.8421 56.3152 70.8564 57.7901 70.8421C58.9733 70.8278 59.9781 71.2855 59.8809 72.3153C59.8323 72.9018 58.8598 73.8601 58.2601 73.8887C54.8727 74.0317 51.4691 74.0174 48.0655 73.8887C47.5468 73.8744 46.7851 73.0305 46.6554 72.4727C46.4609 71.5859 47.2227 70.9422 48.26 70.8993C49.9618 70.8278 51.6636 70.885 53.3654 70.885V70.8421Z" fill="url(#paint15_linear_2343_265)"/>
<defs>
<linearGradient id="paint0_linear_2343_265" x1="0.819978" y1="43.194" x2="71.9069" y2="43.194" gradientUnits="userSpaceOnUse">
<stop stop-color="#AE8ABE"/>
<stop offset="1" stop-color="#8390C8"/>
</linearGradient>
<linearGradient id="paint1_linear_2343_265" x1="34.3699" y1="49.2008" x2="37.9356" y2="49.2008" gradientUnits="userSpaceOnUse">
<stop stop-color="#AE8ABE"/>
<stop offset="1" stop-color="#8390C8"/>
</linearGradient>
<linearGradient id="paint2_linear_2343_265" x1="46.6393" y1="24.7573" x2="59.7675" y2="24.7573" gradientUnits="userSpaceOnUse">
<stop stop-color="#AE8ABE"/>
<stop offset="1" stop-color="#8390C8"/>
</linearGradient>
<linearGradient id="paint3_linear_2343_265" x1="42.4093" y1="37.1866" x2="63.8845" y2="37.1866" gradientUnits="userSpaceOnUse">
<stop stop-color="#AE8ABE"/>
<stop offset="1" stop-color="#8390C8"/>
</linearGradient>
<linearGradient id="paint4_linear_2343_265" x1="8.48633" y1="37.1726" x2="30.2857" y2="37.1726" gradientUnits="userSpaceOnUse">
<stop stop-color="#AE8ABE"/>
<stop offset="1" stop-color="#8390C8"/>
</linearGradient>
<linearGradient id="paint5_linear_2343_265" x1="8.51816" y1="51.3467" x2="30.1878" y2="51.3467" gradientUnits="userSpaceOnUse">
<stop stop-color="#AE8ABE"/>
<stop offset="1" stop-color="#8390C8"/>
</linearGradient>
<linearGradient id="paint6_linear_2343_265" x1="42.7495" y1="44.1527" x2="63.5439" y2="44.1527" gradientUnits="userSpaceOnUse">
<stop stop-color="#AE8ABE"/>
<stop offset="1" stop-color="#8390C8"/>
</linearGradient>
<linearGradient id="paint7_linear_2343_265" x1="42.522" y1="65.2354" x2="63.5434" y2="65.2354" gradientUnits="userSpaceOnUse">
<stop stop-color="#AE8ABE"/>
<stop offset="1" stop-color="#8390C8"/>
</linearGradient>
<linearGradient id="paint8_linear_2343_265" x1="8.34043" y1="65.2491" x2="30.237" y2="65.2491" gradientUnits="userSpaceOnUse">
<stop stop-color="#AE8ABE"/>
<stop offset="1" stop-color="#8390C8"/>
</linearGradient>
<linearGradient id="paint9_linear_2343_265" x1="8.53457" y1="58.5122" x2="30.3015" y2="58.5122" gradientUnits="userSpaceOnUse">
<stop stop-color="#AE8ABE"/>
<stop offset="1" stop-color="#8390C8"/>
</linearGradient>
<linearGradient id="paint10_linear_2343_265" x1="8.34082" y1="44.1527" x2="30.2536" y2="44.1527" gradientUnits="userSpaceOnUse">
<stop stop-color="#AE8ABE"/>
<stop offset="1" stop-color="#8390C8"/>
</linearGradient>
<linearGradient id="paint11_linear_2343_265" x1="42.6032" y1="51.3471" x2="63.5598" y2="51.3471" gradientUnits="userSpaceOnUse">
<stop stop-color="#AE8ABE"/>
<stop offset="1" stop-color="#8390C8"/>
</linearGradient>
<linearGradient id="paint12_linear_2343_265" x1="42.5873" y1="58.4987" x2="63.7708" y2="58.4987" gradientUnits="userSpaceOnUse">
<stop stop-color="#AE8ABE"/>
<stop offset="1" stop-color="#8390C8"/>
</linearGradient>
<linearGradient id="paint13_linear_2343_265" x1="11.9546" y1="25.1434" x2="27.1574" y2="25.1434" gradientUnits="userSpaceOnUse">
<stop stop-color="#AE8ABE"/>
<stop offset="1" stop-color="#8390C8"/>
</linearGradient>
<linearGradient id="paint14_linear_2343_265" x1="12.4736" y1="72.4297" x2="26.1691" y2="72.4297" gradientUnits="userSpaceOnUse">
<stop stop-color="#AE8ABE"/>
<stop offset="1" stop-color="#8390C8"/>
</linearGradient>
<linearGradient id="paint15_linear_2343_265" x1="46.623" y1="72.4155" x2="59.8809" y2="72.4155" gradientUnits="userSpaceOnUse">
<stop stop-color="#AE8ABE"/>
<stop offset="1" stop-color="#8390C8"/>
</linearGradient>
</defs>
</svg>
