<svg width="115" height="114" viewBox="0 0 115 114" fill="none" xmlns="http://www.w3.org/2000/svg">
<path d="M13.8943 81.9343C18.9544 82.0052 24.0145 81.9816 29.0746 81.9816C40.5426 81.9816 52.0106 81.9816 63.4786 81.9816C68.8225 81.9816 69.4846 81.2723 69.5082 75.7874C69.5082 73.6596 69.5791 71.5081 69.6264 69.0021C71.7782 69.0021 73.4333 69.0021 75.0885 69.0021C79.9831 69.0021 84.8777 69.0021 89.7723 69.0021C91.4984 69.0021 93.2009 68.9548 93.6738 66.827C92.8935 64.4155 91.1674 63.8954 88.8974 63.919C86.1073 63.9663 83.3171 63.7772 80.5506 63.7063C79.5338 60.4909 79.5811 57.9849 81.4964 55.6207C90.1743 55.6207 98.7812 55.6207 107.388 55.6207C109.422 55.6207 111.455 55.7389 113.299 53.6347C113.299 52.3108 113.299 50.6558 113.299 48.9772C113.299 34.8156 113.299 20.654 113.299 6.49238C113.299 0.0853701 113.299 0.0380859 106.868 0.0380859C83.9319 0.0380859 60.9722 0.0380859 38.0362 0.0380859C35.6953 0.0380859 33.3308 0.0380859 31.1318 0.0380859C28.98 2.2368 29.2401 4.31731 29.2401 6.32688C29.2401 16.9422 29.2401 27.5575 29.2165 38.1964C29.2165 39.3076 28.9564 40.4188 28.7672 41.79C23.6125 41.79 18.7416 41.7427 13.8706 41.79C10.3002 41.8373 9.77997 42.3102 9.75633 45.9274C9.68539 56.5427 9.68539 67.158 9.75633 77.7969C9.75633 81.4142 10.3002 81.887 13.8706 81.9343H13.8943ZM35.2933 5.40484H107.506C107.506 5.40484 107.601 5.52305 107.719 5.64126C107.837 5.75947 108.027 5.87768 108.027 6.01954C108.121 19.1409 108.192 32.2859 108.263 45.4309C108.263 46.9204 108.263 48.4335 108.263 49.8283C104.291 50.774 78.8245 51.0341 69.6974 50.2539C69.6264 48.8354 69.5791 47.6533 69.5082 46.4948C69.2717 42.8303 68.3023 41.8373 64.4954 41.8137C56.4087 41.7664 48.3219 41.8137 40.2116 41.8137C38.3909 41.8137 36.5938 41.8137 34.8914 41.8137C33.8746 35.2885 34.1347 9.04572 35.2697 5.42848L35.2933 5.40484ZM14.8164 51.9798V47.5823C18.7416 46.6603 57.922 46.4712 64.0934 47.3459C64.7555 56.8973 64.4481 66.5197 64.3772 76.0238C60.2629 77.1586 23.1869 77.466 14.8164 76.473V51.9798Z" fill="url(#paint0_linear_2343_514)"/>
<path d="M109.161 73.1179C103.084 72.9524 97.0075 72.9997 90.9306 73.1179C88.4242 73.1651 87.0764 74.7728 86.7927 77.3262C86.7454 77.8226 86.7691 78.3428 86.7691 78.8392C86.7691 88.7926 86.7218 98.7459 86.7691 108.699C86.7691 112.316 87.9513 113.428 91.5691 113.688C92.0656 113.735 92.5858 113.688 93.0824 113.688C98.1425 113.688 103.203 113.711 108.286 113.688C112.944 113.64 114.15 112.435 114.221 107.612C114.292 103.049 114.221 98.5095 114.221 93.9466C114.221 88.8871 114.316 83.8277 114.198 78.7683C114.103 75.0092 112.59 73.2361 109.161 73.1179ZM108.688 108.274C105.473 109.527 97.5041 109.739 91.6873 108.699V78.8629C94.6903 77.4916 97.575 78.2482 100.365 78.1063C103.037 77.9645 105.733 78.0827 108.31 78.0827C109.35 81.7236 109.54 102.647 108.688 108.274Z" fill="url(#paint1_linear_2343_514)"/>
<path d="M10.5605 93.0468C16.2591 92.9759 21.9576 92.503 27.6798 92.4794C32.4798 92.4794 37.2798 93.0941 42.0798 93.0468C52.8385 92.9522 63.5971 92.6212 74.3558 92.3848C74.8523 92.3848 75.5144 92.4794 75.8218 92.1957C76.5312 91.581 77.477 90.7771 77.5243 90.0206C77.5716 89.335 76.6494 88.2947 75.9164 87.9164C75.1124 87.4909 74.0011 87.5382 73.0316 87.5618C71.1873 87.6327 69.3666 88.0347 67.5223 87.9874C61.6582 87.8455 55.7705 87.3963 49.9065 87.349C35.0808 87.2545 20.2315 87.349 5.40584 87.3018C3.32504 87.3018 1.81174 87.9401 0.676758 90.5644C1.55164 91.2027 2.23736 92.1011 3.06495 92.243C5.52407 92.6922 8.05411 93.0941 10.5369 93.0704L10.5605 93.0468Z" fill="url(#paint2_linear_2343_514)"/>
<defs>
<linearGradient id="paint0_linear_2343_514" x1="9.73268" y1="41.0098" x2="113.323" y2="41.0098" gradientUnits="userSpaceOnUse">
<stop stop-color="#AE8ABE"/>
<stop offset="1" stop-color="#8390C8"/>
</linearGradient>
<linearGradient id="paint1_linear_2343_514" x1="86.7218" y1="93.3319" x2="114.269" y2="93.3319" gradientUnits="userSpaceOnUse">
<stop stop-color="#AE8ABE"/>
<stop offset="1" stop-color="#8390C8"/>
</linearGradient>
<linearGradient id="paint2_linear_2343_514" x1="0.676758" y1="90.1624" x2="77.5479" y2="90.1624" gradientUnits="userSpaceOnUse">
<stop stop-color="#AE8ABE"/>
<stop offset="1" stop-color="#8390C8"/>
</linearGradient>
</defs>
</svg>
