<svg width="107" height="109" viewBox="0 0 107 109" fill="none" xmlns="http://www.w3.org/2000/svg">
<path d="M0.632857 104.902C0.751083 107.858 1.29495 108.33 4.27427 108.496C5.78757 108.567 7.30086 108.543 8.83781 108.543C31.9393 108.543 55.0645 108.543 78.1661 108.543C82.643 108.543 84.8814 106.337 84.8814 101.923C84.8814 80.6929 84.9287 59.4386 84.7632 38.208C84.7632 35.0636 85.638 32.8649 87.9316 30.7371C92.9918 26.0323 97.7918 21.0438 102.639 16.1263C103.869 14.8733 104.838 13.3365 106.044 11.7761C102.545 8.22983 99.4233 4.91994 96.1603 1.77554C93.6775 -0.635956 92.377 -0.588673 89.776 2.01196C87.1513 4.63623 84.6213 7.33143 82.2568 10.1685C80.2469 12.58 77.906 13.3365 74.7612 13.3129C52.1562 13.171 29.5512 13.242 6.94621 13.242C5.12551 13.242 3.28114 13.242 0.632857 13.242C0.632857 15.8426 0.632857 17.663 0.632857 19.4835C0.632857 45.608 0.632857 71.7325 0.632857 97.857C0.632857 100.221 0.538275 102.585 0.632857 104.926V104.902ZM92.8499 5.74741C95.1198 7.96977 97.0824 9.90842 99.6597 12.4145C98.0046 13.9276 96.8932 14.9205 95.8055 15.8899C93.3306 14.7866 91.2499 12.7455 89.5632 9.76657C90.4381 8.67903 91.4548 7.44964 92.8263 5.72377L92.8499 5.74741ZM79.1356 19.6726C81.0272 17.8049 83.0134 16.0317 85.4489 13.7384C87.5533 15.9372 89.2321 17.734 91.1474 19.7199C90.4144 20.7601 89.8469 21.7531 89.0902 22.5333C77.3385 34.3307 65.4922 46.0572 53.7877 57.9019C50.7375 60.999 46.6941 61.3063 42.3906 63.0086C43.5965 58.1619 44.5187 54.0482 47.9946 50.6438C58.4931 40.454 68.7552 30.0042 79.1119 19.6726H79.1356ZM6.16594 18.9161C10.0438 18.1595 67.2419 18.0413 72.6094 18.8451C72.0419 19.7435 71.6873 20.5946 71.0725 21.2093C68.5897 23.6918 66.0124 26.0796 63.4823 28.5384C57.9493 33.9288 52.4872 39.3665 46.9306 44.7096C42.6507 48.847 38.9148 53.2444 38.0635 59.4623C37.6616 62.3939 35.368 64.9709 36.3611 68.2808C38.1818 69.7702 40.168 68.99 42.0596 68.4699C44.968 67.6661 47.8527 66.744 50.6902 65.7274C53.4094 64.7344 55.703 63.1268 57.7601 60.999C64.6882 53.8591 71.7109 46.8374 79.5848 38.87V102.68C75.8489 103.602 13.3304 103.862 6.3314 103.035C5.50381 99.4647 5.3383 24.6138 6.1186 18.8924L6.16594 18.9161Z" fill="url(#paint0_linear_2343_488)"/>
<defs>
<linearGradient id="paint0_linear_2343_488" x1="0.585566" y1="54.261" x2="106.044" y2="54.261" gradientUnits="userSpaceOnUse">
<stop stop-color="#AE8ABE"/>
<stop offset="1" stop-color="#8390C8"/>
</linearGradient>
</defs>
</svg>
