<svg width="114" height="102" viewBox="0 0 114 102" fill="none" xmlns="http://www.w3.org/2000/svg">
<path d="M1.07115 78.2548C1.07115 78.7513 1.07112 79.2714 1.11841 79.7679C1.30758 81.3283 2.22976 82.1794 3.79035 82.2504C5.13814 82.3213 6.48591 82.2976 7.83369 82.2976C17.7884 82.2976 27.7431 82.2976 37.6978 82.2976C38.9747 82.2976 40.2516 82.534 41.4338 82.6523V95.8446C37.2013 97.6414 32.4249 94.6152 28.5943 97.996C29.5875 101.069 31.3846 101.471 33.6072 101.471C49.4733 101.424 65.3393 101.471 81.1817 101.448C81.8438 101.448 82.7187 101.637 83.1679 101.306C83.9955 100.644 85.1542 99.6509 85.1069 98.8471C85.0596 98.0196 83.8773 96.9321 82.9551 96.5775C81.9384 96.1755 80.6379 96.4356 79.4556 96.4356C77.4694 96.4356 75.4832 96.4356 73.6388 96.4356C72.7167 91.0452 72.7876 86.2222 73.828 82.274C75.9088 82.274 78.0842 82.274 80.2595 82.274C89.8832 82.274 99.5069 82.3213 109.107 82.274C113.292 82.274 113.623 81.8484 113.718 77.5928C113.718 77.0964 113.718 76.5762 113.718 76.0798C113.718 52.9814 113.718 29.8831 113.718 6.78478C113.718 5.76817 113.765 4.75156 113.694 3.75859C113.505 1.11068 112.985 0.495951 110.336 0.401383C106.955 0.283172 103.598 0.354125 100.216 0.354125C69.0043 0.354125 37.7924 0.354125 6.58049 0.354125C1.30757 0.354125 0.55093 1.13431 0.385412 6.47742C0.361766 7.49403 0.385412 8.51064 0.385412 9.50361C0.385412 22.4831 0.290853 35.4626 0.40908 48.4421C0.503662 58.3718 0.834694 68.2779 1.07115 78.2075V78.2548ZM67.964 93.1021C67.893 95.8446 67.4201 96.3647 64.7245 96.4119C59.026 96.5065 53.3274 96.4356 47.6053 96.4356C46.0919 94.1423 46.9905 91.7308 46.825 89.4848C46.6595 87.3334 46.7777 85.182 46.7777 83.1015C50.5609 82.1321 61.5797 81.9666 67.9876 82.7941C67.9876 86.4113 68.0585 89.7685 67.9876 93.1021H67.964ZM5.91842 5.91C6.03665 5.79179 6.15489 5.64994 6.29676 5.6263C6.95883 5.53173 7.62092 5.41353 8.30663 5.41353C41.5284 5.41353 74.7265 5.41353 108.492 5.41353V76.6235C104.26 77.4274 11.6643 77.5456 6.08396 76.7654C5.87115 76.0797 5.44556 75.2996 5.44556 74.543C5.39827 51.7993 5.42189 29.032 5.42189 6.43013C5.68199 6.14642 5.77655 6.02821 5.91842 5.91Z" fill="url(#paint0_linear_2399_4)"/>
<path d="M22.4463 61.1404C27.9793 61.1404 31.5497 57.9015 31.668 52.6293C31.7152 50.667 31.4079 48.7047 31.3133 47.5935C34.8837 43.6926 38.0522 40.2172 40.9369 37.0728C43.0413 37.3329 45.0039 38.184 46.2808 37.5929C50.466 35.7016 52.9251 37.8766 55.3843 40.6191C55.5971 40.8792 55.8335 41.1629 56.1173 41.3047C59.2621 43.0542 60.4207 45.6312 59.8296 49.2248C59.5932 50.6434 59.8769 52.3219 60.468 53.6223C62.0523 57.1449 66.5449 59.4855 70.0208 58.8944C74.3006 58.1852 77.5163 55.2063 78.2493 51.1398C78.4621 50.0287 78.5567 48.8702 78.6986 47.7827C79.7863 47.2153 80.6612 46.6951 81.5833 46.3169C82.6474 45.8677 83.7823 45.5603 84.7518 45.2293C89.7883 48.4683 95.3449 48.7756 98.5134 46.0804C101.445 43.5744 102.793 37.9475 101.256 34.5904C99.6484 31.0677 94.612 28.1361 90.8523 29.0818C88.8188 29.5782 86.9036 30.9258 85.2247 32.2262C82.6474 34.2121 82.2927 37.3329 82.1509 40.359C80.141 41.3284 78.3676 42.1795 76.4286 43.1252C72.669 39.3424 68.3892 38.9642 63.7311 40.9265C62.3833 39.6971 61.3193 38.2785 59.9005 37.4747C55.9754 35.2051 54.604 32.2025 54.8877 27.545C55.2188 22.0128 49.8039 17.8281 44.4128 18.5847C39.0689 19.3412 34.5054 24.8735 36.066 29.7201C37.2009 33.2428 36.066 35.0632 33.7014 37.0728C32.1645 38.3731 30.7221 39.8153 29.3743 41.3284C28.0975 42.7705 26.7024 42.9597 24.8581 42.5814C17.6462 41.0683 12.8462 45.3239 13.1772 52.7239C13.4137 58.0197 16.8423 61.1404 22.4463 61.1168V61.1404ZM90.8051 34.1175C94.1154 32.9354 95.6523 35.2051 97.1656 37.4274C95.605 42.014 94.541 43.1015 91.7981 42.9597C89.6701 42.8414 88.0149 41.4229 87.6365 39.3424C87.3055 37.6402 88.9607 34.8031 90.8051 34.1412V34.1175ZM68.8385 44.851C71.2503 44.7328 73.2129 46.6478 73.2602 49.2248C73.3075 51.8018 71.4868 53.906 69.1459 53.9533C66.7104 54.0005 64.4168 51.8018 64.275 49.2485C64.1567 47.1207 66.3794 44.9692 68.8148 44.851H68.8385ZM45.5478 23.6204C48.0069 23.5259 49.8749 25.4172 49.9222 28.0652C49.9695 30.7367 48.1961 32.699 45.7606 32.7227C43.1832 32.7227 40.7477 30.4057 40.866 28.0179C40.9605 25.7955 43.1833 23.715 45.5714 23.6204H45.5478ZM22.0206 47.0025C24.6216 46.9788 26.6551 49.1539 26.6551 51.92C26.6551 54.497 24.7871 56.6721 22.4935 56.7194C20.3182 56.7667 17.7408 54.1897 17.5753 51.7545C17.4334 49.8631 20.0817 47.0261 22.0206 47.0025Z" fill="url(#paint1_linear_2399_4)"/>
<defs>
<linearGradient id="paint0_linear_2399_4" x1="0.338136" y1="50.9246" x2="113.765" y2="50.9246" gradientUnits="userSpaceOnUse">
<stop stop-color="#AE8ABE"/>
<stop offset="1" stop-color="#8390C8"/>
</linearGradient>
<linearGradient id="paint1_linear_2399_4" x1="13.1772" y1="39.8389" x2="101.918" y2="39.8389" gradientUnits="userSpaceOnUse">
<stop stop-color="#AE8ABE"/>
<stop offset="1" stop-color="#8390C8"/>
</linearGradient>
</defs>
</svg>
