<svg width="112" height="114" viewBox="0 0 112 114" fill="none" xmlns="http://www.w3.org/2000/svg">
<path d="M105.396 58.2426C105.255 54.3653 105.326 51.5283 104.971 48.7385C104.782 47.2254 105.704 45.3104 103.836 44.1992C102.063 41.0548 99.1778 40.0618 95.7729 40.0855C90.3817 40.1091 84.9905 40.1091 79.5757 40.0855C78.2752 40.0855 76.9748 39.92 75.5324 39.8018C75.4378 36.9647 76.8329 34.9079 78.1807 33.1584C83.4536 26.2312 83.1698 18.3347 82.4841 10.4383C81.9403 3.98397 75.1541 -0.342515 69.4555 0.626811C67.422 0.981443 65.7432 1.61978 65.0102 4.03128C64.088 7.05747 62.291 9.84723 61.487 12.8971C59.3353 21.0536 53.8259 26.5149 47.5126 31.4325C38.4564 38.5014 27.7924 42.0005 17.0101 45.2631C12.9903 46.4925 9.04155 47.8401 5.02183 49.0931C1.68783 50.1334 0.340062 52.0956 0.458289 55.8075C0.765679 64.886 0.552842 74.0119 0.576487 83.0905C0.576487 86.9678 0.576487 90.8451 0.576487 94.7224C0.576487 96.7556 1.52231 97.8195 3.57946 97.9849C6.91346 98.245 10.2947 98.3869 13.5815 98.9307C17.6721 99.5927 21.9519 99.6636 25.5933 102.146C28.6436 104.203 31.8593 106.047 34.9805 107.986C37.6998 108.979 40.419 109.972 43.1146 110.941C47.0397 111.674 50.9412 112.903 54.8899 113.021C65.1284 113.281 75.3905 113.021 85.629 112.927C86.7166 112.927 87.8043 112.407 88.892 112.123C95.229 111.768 98.3029 105.858 96.293 96.0227C99.3433 94.9351 101.684 92.9492 102.819 89.7575C104.64 88.1499 103.812 86.1166 103.576 84.2489C103.387 82.6649 102.937 81.1045 102.819 80.4426C105.444 77.2509 107.737 74.863 109.534 72.1915C110.882 70.1819 111.946 67.7704 110.031 65.3589C109.156 62.0963 106.863 59.7557 105.42 58.219L105.396 58.2426ZM95.7729 45.1449C97.9009 45.0976 99.1305 46.4216 100.667 47.3436C103.103 53.1596 100.928 56.4931 94.7088 56.4694C86.9531 56.4221 79.1974 56.3513 71.4417 56.2803C70.7324 55.3583 69.9048 54.4835 69.361 53.4669C67.3747 49.7078 69.8102 45.2868 74.09 45.2158C81.3019 45.074 88.5374 45.2867 95.7729 45.1685V45.1449ZM58.886 108.979C54.9609 108.364 51.0831 107.584 47.1816 106.874C46.8032 106.591 46.4013 106.047 46.0229 106.047C43.0436 106.165 40.5372 105.101 38.3145 103.163C38.0308 102.903 37.3687 103.068 36.8722 103.044C34.2712 101.555 31.4337 100.326 29.1165 98.4815C26.4918 96.3773 23.6071 95.3134 20.415 94.9115C16.4189 94.415 12.3992 94.1077 8.40314 93.6585C7.5992 93.5639 6.84252 93.2093 5.82577 92.9256V54.1998C7.31543 53.5851 8.80508 52.8759 10.3657 52.3557C18.8071 49.5896 27.414 47.2727 35.6663 44.0573C46.3303 39.8727 55.5284 33.2292 61.9599 23.6542C64.7974 19.4223 66.2161 14.221 68.2732 9.46893C68.8644 8.09769 69.4082 6.70284 70.023 5.21338C72.222 5.21338 73.759 6.32455 75.2486 7.27023C76.1472 7.86129 77.093 8.99609 77.2821 9.98906C78.4171 16.5143 78.4881 22.9686 74.8703 28.9264C71.6309 34.2222 68.3915 39.5417 65.2466 44.8848C64.6792 45.8541 64.5136 47.0599 64.1589 48.1711C63.1658 51.0318 62.3146 53.9161 61.1323 56.7059C58.6496 62.5928 54.3697 66.6119 48.1983 68.5506C47.8673 68.6451 47.5599 68.7633 47.2525 68.8815C45.7155 69.4489 44.4387 70.3001 45.0298 72.1915C45.6683 74.2247 47.5126 73.8464 48.8604 73.4681C53.8023 72.0969 58.2949 69.9455 61.3215 65.5244C61.6052 65.1225 61.9599 64.7915 62.2673 64.4132C62.622 65.4062 63.2604 66.3755 63.2841 67.3685C63.355 70.4892 65.1994 72.8534 66.4762 75.4777C66.7127 75.5723 66.9728 75.6432 67.2092 75.7378C67.091 76.6835 67.2565 77.7946 66.8309 78.5748C64.3718 83.2087 64.9156 87.7716 66.6417 91.6962C65.3885 95.0534 64.3008 97.914 63.2131 100.798C61.7944 102.548 61.8181 104.25 63.355 105.881C62.3382 108.908 61.7471 109.404 58.9097 108.955L58.886 108.979ZM85.9127 107.867C83.0989 107.986 80.2851 107.962 77.4713 107.986C75.3432 107.773 73.1678 107.749 71.1107 107.276C69.3609 106.898 68.4624 105.621 68.3679 103.612C68.0605 98.0086 68.4861 95.5498 76.0526 95.9518C78.6536 96.0936 81.1363 96.6374 83.761 95.9518C86.2674 95.3134 88.6792 96.0699 90.6418 97.8431C91.0201 99.0961 91.6349 100.326 91.7058 101.579C91.9659 105.787 90.1925 107.655 85.9127 107.844V107.867ZM95.7019 90.7741C95.4891 90.8687 95.2999 90.9633 95.0871 91.0578C95.2999 90.9633 95.4891 90.8451 95.7019 90.7741C91.5403 91.0342 87.3787 91.4834 83.1935 91.507C80.2615 91.507 77.3058 91.0578 74.3974 90.6086C72.2457 90.2776 70.5905 87.8898 70.4959 85.4074C70.4013 82.8068 72.1984 80.1824 74.4447 79.7332C75.0831 79.5914 75.7925 79.6623 76.4546 79.6623C82.5314 79.6623 88.6083 79.6387 94.6615 79.6387C95.6783 80.3243 96.6714 81.0099 97.6881 81.6719C98.8704 83.5396 98.8467 85.5729 98.6103 87.6534C97.6172 88.6936 96.6477 89.7102 95.6546 90.7505L95.7019 90.7741ZM100.88 73.5154C94.8034 73.9174 88.7029 74.201 82.626 74.5084H82.6023C81.0181 72.8298 78.9373 73.941 77.1166 73.5627C74.9176 73.1135 72.7186 72.7825 70.5196 72.4043C68.9826 70.5602 68.888 68.2905 69.4555 66.2573C69.8575 64.8624 71.2053 62.9237 72.3876 62.6873C74.8467 62.2145 77.2585 61.4816 80.1196 61.9308C84.8723 62.7109 89.9088 63.2784 94.7324 61.5289C95.7255 61.4816 96.7423 61.4579 97.7354 61.4106C100.88 61.3161 103.197 62.5691 104.451 65.548C104.758 66.2809 105.231 66.9666 105.609 67.6758C105.207 71.2222 103.623 73.3026 100.88 73.4681V73.5154Z" fill="url(#paint0_linear_2343_532)"/>
<defs>
<linearGradient id="paint0_linear_2343_532" x1="0.434644" y1="56.8241" x2="111.048" y2="56.8241" gradientUnits="userSpaceOnUse">
<stop stop-color="#AE8ABE"/>
<stop offset="1" stop-color="#8390C8"/>
</linearGradient>
</defs>
</svg>
