<svg width="110" height="110" viewBox="0 0 110 110" fill="none" xmlns="http://www.w3.org/2000/svg">
<path d="M55.1342 0.707049C25.8376 0.446986 0.938958 25.9568 0.891667 54.9893C0.844376 84.4237 26.4287 110.359 54.9923 109.153C83.7451 110.406 109.779 85.6058 109.708 55.1548C109.637 24.9166 85.755 0.967112 55.1342 0.707049ZM58.1845 6.31023C82.6811 5.62461 104.979 29.9996 104.033 52.034C103.607 52.1523 103.134 52.4123 102.661 52.4123C98.7836 52.436 94.9294 52.4123 90.6732 52.4123C88.8052 44.3031 86.2752 36.4776 80.1274 30.567C74.0505 24.7274 66.7441 21.1575 58.1845 20.1409V6.31023ZM58.1845 25.6022C72.8919 26.2169 84.8565 40.4258 84.7855 52.2705C80.1747 52.6015 75.5165 52.4123 70.6456 52.3178C68.8958 45.7453 64.4032 41.8207 58.1845 39.7638V25.6022ZM84.62 57.7554C85.0692 69.8602 72.2298 83.9036 58.1608 84.5183V70.0493C64.7579 68.3944 68.9904 64.2807 70.5746 57.5663C75.4692 57.4244 80.0801 57.2117 84.62 57.7318V57.7554ZM52.8643 32.1038C53.0061 34.4443 52.8879 36.8085 52.8879 39.9057C46.1017 41.5133 41.9401 45.8162 39.9775 52.1995H26.2159C25.7194 42.5063 35.4849 26.9971 51.9184 25.5313C53.6446 27.4463 52.7224 29.905 52.8643 32.1274V32.1038ZM52.9115 6.14474C52.9115 10.3294 52.9115 14.1831 52.9115 18.0367C52.9115 18.675 52.6751 19.3134 52.4859 20.2354C33.8534 22.7178 23.8041 34.0424 20.3046 52.1286C15.741 52.696 11.2956 52.436 6.87395 52.3414C4.8168 30.9926 27.8474 5.95561 52.9352 6.16839L52.9115 6.14474ZM52.6987 103.432C28.3913 105.229 5.10055 79.5771 6.80301 57.6845H20.2572C21.9834 65.6046 24.4189 73.241 30.5667 79.3643C36.7145 85.4876 44.1154 88.3956 52.6987 89.9323V103.432ZM52.6987 84.0218C40.4504 85.0148 26.0503 71.9171 26.0031 57.59H39.3391C41.1125 60.3561 42.413 63.335 44.5647 65.51C46.7164 67.6851 49.6958 69.08 52.6987 71.0423V84.0218ZM55.4416 65.3682C50.547 65.3682 45.1795 60.3088 44.9667 55.5331C44.7302 50.0954 49.7194 45.1306 55.4416 45.1069C61.1165 45.0833 65.1835 49.1261 65.2544 54.8711C65.3253 60.8998 61.1401 65.3918 55.4416 65.3682ZM58.1135 104.212V90.0505C66.2948 88.3956 73.8613 85.7477 79.9618 79.648C86.086 73.5247 88.7579 65.9356 90.555 57.6609H103.773C105.57 63.8078 101.172 76.6928 94.3855 85.2512C85.2584 96.7886 73.4594 103.172 58.1135 104.212Z" fill="url(#paint0_linear_2343_484)"/>
<defs>
<linearGradient id="paint0_linear_2343_484" x1="0.891667" y1="54.9657" x2="109.684" y2="54.9657" gradientUnits="userSpaceOnUse">
<stop stop-color="#AE8ABE"/>
<stop offset="1" stop-color="#8390C8"/>
</linearGradient>
</defs>
</svg>
