<svg width="95" height="80" viewBox="0 0 95 80" fill="none" xmlns="http://www.w3.org/2000/svg">
<path d="M72.2118 56.8346C72.0984 56.6773 71.9848 56.477 71.839 56.334C68.6623 53.378 64.7778 51.9001 60.1856 51.9001C56.7658 51.9001 53.3622 51.9001 49.9424 51.9287C49.7317 51.9287 49.521 52.0288 48.9537 52.1575C48.743 56.4341 48.9213 60.7966 48.8565 65.302C51.4983 66.2746 53.9457 67.4618 54.7885 69.9505C55.2262 71.2378 55.6475 72.5537 55.0803 74.0412C53.8647 77.2165 50.85 79.462 47.3492 79.462C44.0914 79.462 40.7202 77.102 39.845 74.2128C38.7429 70.5798 40.5257 67.848 45.696 65.302V51.9001H40.9471C37.3004 51.9001 33.6699 51.9572 30.0231 51.8714C28.532 51.8428 27.4299 52.2147 26.425 53.1873C25.2095 54.3745 23.848 55.4615 22.3893 56.7488C23.4915 58.8227 24.318 61.0969 23.0214 63.2567C22.211 64.6155 20.9306 65.9314 19.5044 66.7896C16.7653 68.4487 12.2919 67.8194 10.1201 65.6167C7.381 62.8276 7.10545 60.11 9.13141 57.0491C11.1412 54.0169 14.7717 53.2446 20.2337 54.6749C21.0927 53.9597 22.0652 53.1587 23.2483 52.1718C19.7313 51.2278 18.6615 48.9679 18.7102 46.2074C18.7426 44.1907 20.104 43.1323 22.5352 43.2038V34.5218H15.7604C12.7133 38.7841 9.4394 40.5005 5.98716 39.5422C2.72941 38.6411 -0.252807 36.5243 0.0551393 32.4336C0.282047 29.2297 2.38905 26.7982 6.03578 25.9686C9.90942 25.0818 12.6647 26.5264 15.8576 31.2321C16.7977 31.2321 17.916 31.2464 19.0343 31.2321C20.1365 31.2035 21.2548 31.1463 22.3245 31.1034C23.3294 28.2714 22.5514 26.0544 20.3148 24.1521C19.245 23.251 18.1753 22.3356 17.2839 21.3058C16.1332 19.9756 14.8041 18.6454 15.5659 16.7145C16.0197 15.556 15.0959 14.8265 14.3341 14.097C12.7944 12.6238 11.1412 11.2364 9.65006 9.72031C8.80726 8.86213 8.15898 7.83234 7.44584 6.88834C8.629 5.64397 9.63387 5.61535 10.6225 6.43063C11.6274 7.2459 12.5675 8.13269 13.4751 9.01948C14.9986 10.507 16.4735 12.0231 18.0619 13.6394C21.0441 13.0816 23.378 13.9969 25.1446 16.1281C25.955 17.1007 27.0247 17.4297 28.3862 17.4011C31.9194 17.3296 35.4528 17.5012 38.9698 17.3295C40.9634 17.2294 42.9083 16.6716 45.1287 16.2711C39.1643 11.3509 39.845 7.05997 43.0541 3.62724C46.5874 -0.148769 53.2488 0.509146 55.9554 2.84054C60.3639 6.60225 60.2019 11.0219 55.0316 16.0852C56.9117 16.9005 58.7918 17.4011 60.8502 17.3868C62.7789 17.3725 64.7238 17.3153 66.6525 17.3868C70.1047 17.5441 71.9848 19.3177 72.0334 22.3928C72.0659 25.1962 72.0334 27.9996 72.0334 31.0033H79.1324C80.1535 29.3012 81.3691 27.5848 83.6382 26.5407C88.225 24.4239 92.8441 26.8983 94.4163 30.1022C96.1019 33.5492 93.9138 37.8831 89.8619 39.2133C86.1341 40.4433 82.5523 39.3419 80.4777 36.3097C80.0725 35.7233 79.6997 35.1082 79.2621 34.436H72.2604V42.8462C72.3738 42.9463 72.5197 43.1609 72.698 43.1895C74.3836 43.3898 75.8909 43.7902 76.0368 45.5924C76.2151 47.7665 75.9071 49.8261 73.7352 51.2421C73.1356 51.6283 72.3901 51.8285 71.7742 52.1003L74.3998 54.8465C77.1389 53.9168 79.6997 53.1015 82.147 54.446C83.5571 55.2184 85.0158 56.1767 85.9072 57.3781C87.917 60.0671 87.1391 63.5427 84.3676 65.8598C82.0499 67.805 77.9006 68.2198 75.1615 66.8038C71.4338 64.8729 70.5424 61.8693 72.1956 56.806L72.2118 56.8346ZM62.941 35.1655C62.941 32.3907 63.0706 29.7875 62.9085 27.1987C62.6168 22.7647 58.5325 19.3892 53.5243 19.2891C52.2763 19.2605 50.9959 19.4178 49.7803 19.2605C44.2211 18.531 39.845 20.5334 35.939 23.723C35.5176 24.0663 35.1447 24.4668 34.6585 24.7099C33.7185 25.2105 32.7136 25.611 31.4657 26.1831C28.4996 23.4513 25.6795 20.8624 22.8918 18.2592C22.3407 17.7586 21.9517 17.0721 21.3196 16.7145C20.8496 16.4571 19.7474 16.3713 19.5205 16.6287C19.1153 17.0721 19.0343 17.8445 19.0506 18.4595C19.0506 18.7742 19.5692 19.0888 19.8609 19.3892C22.6325 22.164 25.3554 24.9817 28.2241 27.685C30.088 29.4299 32.5029 29.9019 35.0962 29.1153C36.49 28.7005 37.8029 28.0998 39.1643 27.5849C40.1692 27.1987 41.1902 26.8411 41.9682 26.5407C43.589 27.2988 43.3783 28.3715 43.3783 29.3441C43.3783 32.1475 43.3783 34.9652 43.3783 37.7686C43.3783 38.541 43.5242 39.3134 43.6052 40.1859C44.448 40.1143 45.0801 40.0714 45.8094 39.9999C45.1935 37.2966 46.7495 35.9093 49.1158 34.9223C51.6605 33.8639 54.1726 32.7339 56.6199 31.6612C56.7496 30.045 56.8631 28.6862 56.9603 27.3703C59.3915 27.0699 59.6184 27.1415 59.6994 28.5289C59.7967 30.1165 59.7156 31.7041 59.7156 33.3633C57.6249 34.3216 55.6799 35.1369 53.8322 36.0809C52.0656 36.982 49.6669 37.1679 48.8565 39.2562C50.8824 40.4004 50.9148 40.4433 52.8922 39.5851C56.1499 38.1834 59.3753 36.7102 62.9247 35.1226L62.941 35.1655ZM26.425 30.0021V43.3611C27.8351 43.3611 29.0669 43.261 30.2662 43.3754C34.4154 43.7759 38.9373 42.0881 42.6489 45.0346C46.4901 44.7056 50.5258 46.1788 54.205 43.9189C55.0316 43.404 56.3769 43.4183 57.479 43.3897C60.2019 43.3182 62.9409 43.3897 65.6638 43.3611C66.5391 43.3611 67.3981 43.2181 68.2085 43.1466C68.7595 39.485 68.6299 23.0222 68.0302 20.6622C67.3171 20.6193 66.5553 20.5335 65.7773 20.5191C65.048 20.5191 64.3024 20.5907 63.9458 20.6193C64.6914 22.7933 65.6963 24.8387 66.0205 26.9555C66.4419 29.6159 66.3608 32.3335 66.3932 35.0367C66.3932 36.3526 65.5504 37.2251 64.189 37.8115C60.526 39.3992 56.9117 41.1012 53.2326 42.6603C52.2439 43.075 51.0769 43.2467 49.9586 43.3182C48.3702 43.4327 46.7819 43.3611 45.1773 43.3468C41.1416 43.2896 40.3799 42.6317 40.3637 39.156C40.3637 36.2668 40.3637 33.3776 40.3637 30.2309C35.6472 32.4622 31.1901 33.7638 26.4088 30.0307L26.425 30.0021ZM72.2766 46.4649C67.0253 46.4649 62.0333 46.4649 57.0251 46.4792C56.4903 46.4792 55.7123 46.5364 55.453 46.8511C53.9295 48.5818 51.8063 48.2099 49.7965 48.2242C47.6409 48.2242 45.4691 48.2528 43.3135 48.2099C42.5355 48.1955 41.482 48.2099 41.0444 47.8094C39.2129 46.093 36.9114 46.4792 34.7072 46.4649C30.6391 46.4506 26.5709 46.4649 22.5352 46.4649C22.3731 48.9536 22.4865 49.1253 24.4801 49.254C25.2743 49.2969 26.0684 49.254 26.8626 49.254C39.7153 49.254 52.5681 49.254 65.4208 49.254C67.0091 49.254 68.6136 49.2969 70.202 49.2397C72.2441 49.1682 72.3252 49.0108 72.2928 46.4649H72.2766ZM50.1207 3.71305C46.8306 3.67014 44.059 6.05873 44.0428 8.96225C44.0266 11.7657 46.5874 14.2258 49.6344 14.3116C53.0218 14.3974 56.0851 11.8086 55.9879 8.91935C55.9069 6.24467 53.0867 3.75596 50.1207 3.71305ZM7.73757 28.8864C4.83639 28.8864 3.00493 30.4741 3.08597 32.9199C3.16701 35.2227 5.01469 36.7102 7.75379 36.7102C10.4929 36.7102 12.3244 35.2084 12.4054 32.9199C12.4864 30.4598 10.6712 28.9007 7.73757 28.9007V28.8864ZM83.5247 60.8824C83.5572 58.4509 81.8716 56.7917 79.2621 56.7202C76.6527 56.6487 74.7726 58.2506 74.6753 60.6106C74.5781 63.1566 76.4095 64.9445 79.1324 64.9445C81.7419 64.9445 83.5086 63.3139 83.541 60.8824H83.5247ZM11.2384 60.8824C11.2546 62.9706 13.4265 64.9015 15.809 64.9445C18.1267 64.9874 20.4282 63.0135 20.493 60.9253C20.5578 58.7226 18.2564 56.7345 15.6469 56.7488C13.3292 56.7488 11.2222 58.7512 11.2384 60.8967V60.8824ZM52.017 72.4106C51.9522 70.0792 49.6507 68.1197 47.1547 68.2914C44.7884 68.4487 42.7137 70.4511 42.7461 72.568C42.7786 74.5418 45.1612 76.487 47.4951 76.4584C49.91 76.4155 52.0656 74.4846 52.0008 72.4249L52.017 72.4106ZM87.3822 28.9007C84.562 28.8435 82.3902 30.5313 82.374 32.7769C82.374 34.7364 84.6593 36.6673 87.058 36.7102C89.8133 36.7674 91.5799 35.3085 91.6772 32.9485C91.7744 30.5885 90.024 28.9437 87.3822 28.8864V28.9007ZM29.4072 20.6479C30.5094 21.6348 31.1901 22.2355 31.9681 22.9221C33.1188 22.1068 33.9454 21.5061 35.1772 20.6479H29.4072Z" fill="url(#paint0_linear_2406_16)"/>
<defs>
<linearGradient id="paint0_linear_2406_16" x1="0.0389317" y1="40.2144" x2="94.9997" y2="40.2144" gradientUnits="userSpaceOnUse">
<stop stop-color="#AE8ABE"/>
<stop offset="1" stop-color="#8390C8"/>
</linearGradient>
</defs>
</svg>
