<svg width="115" height="116" viewBox="0 0 115 116" fill="none" xmlns="http://www.w3.org/2000/svg">
<path d="M33.2299 47.668C32.9698 55.5645 32.5442 63.4609 32.5205 71.3574C32.5205 75.5184 34.554 77.3861 38.6683 77.9772C39.6141 78.119 40.5599 78.2609 41.6949 78.4264C41.6949 80.5305 41.6949 82.3746 41.6949 84.2187C41.6713 91.8078 41.553 99.3969 41.6003 106.986C41.624 111.714 44.2723 115.024 48.5284 115.497C51.6733 115.852 54.96 116.112 57.6083 113.488C58.2703 113.866 58.8378 114.268 59.429 114.528C67.1374 117.932 74.8221 113.89 74.1127 105.733C73.6162 100.201 73.9472 94.6212 73.9472 89.0417C73.9472 85.5427 73.9472 82.02 73.9472 78.8756C76.6664 77.8353 78.629 77.3861 80.2605 76.3695C82.7906 74.7855 83.3344 72.1612 83.1926 69.3005C82.7906 61.2386 82.4596 53.1766 82.1285 45.1147C82.0576 43.4361 81.9157 41.7339 82.0576 40.0553C82.365 36.2016 80.0477 33.9083 76.9975 32.7026C73.9236 31.4968 70.5423 30.7639 67.2319 30.4566C61.7462 29.9601 56.1895 29.7237 50.6802 30.4093C47.0388 30.8585 43.421 31.5914 39.8742 32.5607C35.689 33.6955 33.3954 36.5326 33.4663 41.0719C33.49 43.2706 33.3245 45.4457 33.2535 47.6444L33.2299 47.668ZM36.7057 67.8347C36.9895 60.7894 37.4151 53.744 37.5333 46.6751C37.6988 36.5326 40.3235 37.0291 47.2279 35.5396C54.6999 33.932 62.2664 34.0265 69.762 35.5633C72.1738 36.0598 74.4674 37.0291 76.7374 37.7383C77.6123 49.7249 78.7236 61.1913 77.7778 73.036C74.6802 72.114 73.9236 70.3408 73.8526 67.9293C73.6635 61.7114 73.4034 55.4936 73.1433 49.2993C73.0723 47.8572 73.5689 46.0367 71.3935 45.7057C69.8802 45.4693 68.8871 46.8169 68.8871 49.2993C68.8871 58.9217 68.8398 68.5204 68.9817 78.1427C69.1236 87.3867 69.4546 96.6308 69.7383 105.875C69.8329 109.019 68.0359 111.194 65.0802 111.336C62.3373 111.478 60.3511 109.776 59.9728 106.844C59.8309 105.686 59.9255 104.48 59.9255 103.298C59.9255 94.6922 59.9255 86.0864 59.9255 77.5044C59.9255 75.8494 59.9255 74.1945 59.9255 72.2558H55.8349C55.7639 74.2654 55.622 76.0858 55.622 77.9063C55.622 87.3395 55.6457 96.7963 55.622 106.229C55.622 109.327 54.8181 110.343 52.288 111.1C49.3324 111.975 46.8496 110.343 46.5659 107.27C46.4713 106.277 46.5659 105.237 46.5659 104.244C46.6132 86.5356 46.6841 68.8277 46.7077 51.1198C46.7077 49.7958 46.7787 48.3536 46.3294 47.1715C46.0693 46.4859 44.8634 45.8949 43.9885 45.7767C43.5865 45.7294 42.7826 46.7933 42.5462 47.4789C42.2861 48.2354 42.4752 49.1338 42.4516 49.985C42.2151 56.0373 41.955 62.0661 41.7186 68.1184C41.6476 70.2462 41.0328 71.9957 38.9284 73.0833C36.6821 71.8539 36.6112 69.868 36.6821 67.8347H36.7057Z" fill="url(#paint0_linear_2343_518)"/>
<path d="M6.51115 78.1658C7.29145 78.2367 8.07175 78.4022 9.06486 78.5677C9.06486 80.9792 9.06486 83.1543 9.06486 85.3294C9.04121 92.9185 8.97027 100.508 8.99392 108.073C8.99392 111.974 10.72 114.575 14.0304 115.284C15.9457 115.709 18.2156 115.899 20.0127 115.284C22.2353 114.504 23.9851 114.764 26.2314 115.237C34.1763 116.962 38.7635 113.582 38.4797 105.874C38.2906 100.815 38.3851 95.7555 38.3851 90.6961C38.3851 88.3556 38.2433 86.0623 36.5644 84.1945C33.8216 84.0291 33.396 85.7076 33.396 87.7645C33.396 93.3204 33.4432 98.8763 33.4669 104.456C33.4669 105.638 33.5615 106.844 33.3723 107.978C33.0649 109.964 31.457 111.241 29.5181 111.288C27.39 111.336 25.7112 109.894 25.4511 107.671C25.3329 106.678 25.4511 105.662 25.4511 104.645C25.4511 97.907 25.4511 91.169 25.4511 84.431C25.4511 82.776 25.3092 81.1447 25.2383 79.5607C21.8097 79.0406 21.2659 79.1588 20.8403 81.2629C20.5565 82.7051 20.6747 84.2418 20.7457 85.7313C20.793 86.7242 21.1713 87.7172 21.124 88.7102C20.9821 92.5638 20.6511 96.4175 20.5329 100.271C20.4383 103.439 20.5329 106.631 20.5329 109.563C18.7122 110.839 17.3407 111.879 15.5437 110.934C13.6048 109.941 13.2737 108.168 13.392 106.205C13.4393 105.354 13.3683 104.527 13.392 103.676C13.6284 97.8124 14.0067 91.9255 14.1013 86.0623C14.2432 76.4636 14.1959 66.8412 14.1959 57.2426C14.1959 53.8854 13.392 52.5851 11.5713 52.7506C9.91609 52.8924 9.30131 53.9799 9.25402 57.1007C9.18308 60.978 9.18308 64.8553 9.20673 68.7326C9.20673 70.884 8.8284 72.7045 6.51115 73.532C4.57223 69.8911 4.73775 56.7934 6.88948 46.8164C11.5713 44.4995 16.5841 43.4356 21.9043 43.5774C23.8196 43.6247 26.0659 44.263 27.2955 41.5206C26.3969 39.2509 24.8836 38.3998 22.7792 38.6835C18.9723 39.2036 15.1181 39.5346 11.3821 40.3857C2.75154 42.3717 1.85301 43.7193 1.14365 52.656C0.812617 57.0061 0.528872 61.3563 0.316064 65.7064C0.197837 67.8815 0.1269 70.1039 0.339709 72.2789C0.741681 76.0144 2.79883 77.7875 6.60574 78.1185L6.51115 78.1658Z" fill="url(#paint1_linear_2343_518)"/>
<path d="M89.4124 38.8005C87.8282 38.966 87.0243 40.0299 87.1898 41.5903C87.3316 42.9615 88.3484 43.5762 89.6725 43.5998C92.3681 43.6471 95.0637 43.7653 97.7593 43.6471C101.07 43.5053 104.025 44.7347 107.052 45.6803C108.494 46.1295 109.275 47.0279 109.346 48.5883C109.653 55.4682 110.031 62.348 110.362 69.2042C110.433 70.5518 110.433 71.9467 108.778 72.6323C106.886 71.1665 106.39 69.1569 106.413 66.8637C106.413 63.8375 106.413 60.7876 106.366 57.7614C106.366 56.7448 106.437 55.7282 106.224 54.7353C105.964 53.4586 105.042 52.4656 103.742 52.8203C103.056 53.0094 102.394 54.1442 102.181 54.948C101.921 56.0592 102.086 57.2886 102.086 58.4707C102.134 73.6489 102.181 88.8035 102.252 103.982C102.252 105.164 102.346 106.346 102.252 107.528C101.944 110.389 100.171 111.665 97.3809 111.003C96.4351 110.767 95.5366 110.294 94.1652 109.75C94.1652 107.977 94.1652 106.157 94.1652 104.336C94.1652 97.2674 94.0233 90.1748 94.2125 83.1058C94.2834 80.1505 92.9829 78.9211 91.6351 78.9448C90.0272 78.9684 89.2942 80.1505 89.2706 83.224C89.2233 90.4585 89.2706 97.7166 89.2706 104.951C89.2706 106.606 89.1287 108.237 89.0578 109.703C84.0922 112.162 82.1769 111.074 82.0587 106.133C82.0351 104.951 82.0587 103.769 82.0587 102.587C82.0587 97.362 82.106 92.1371 82.0824 86.9122C82.0824 86.463 81.7986 85.9901 81.5385 85.2336C80.4745 85.3045 79.4104 85.3518 77.8498 85.4463C77.8498 87.5741 77.8735 89.3946 77.8498 91.215C77.8262 93.0591 77.7316 94.9032 77.637 96.7473C77.4715 100.27 76.9277 103.816 77.1641 107.292C77.6607 114.266 82.0587 115.921 86.3858 115.566C87.3789 115.472 88.5139 115.59 89.3651 115.164C91.1858 114.219 92.6992 114.502 94.6144 115.07C102.205 117.41 107.17 113.58 107.217 105.66C107.217 104.313 107.217 102.965 107.17 101.618C106.934 95.0687 106.65 88.5198 106.461 81.971C106.413 80.6943 106.65 79.394 106.745 78.2119C108.258 77.8572 109.44 77.7154 110.528 77.3371C113.129 76.3914 114.737 74.6419 114.618 71.663C114.311 63.7665 114.713 55.8937 113.744 47.9973C113.247 43.8835 111.213 41.7085 107.785 40.881C103.245 39.7935 98.5632 39.297 93.9287 38.6586C92.439 38.4695 90.8784 38.5877 89.3888 38.7296L89.4124 38.8005Z" fill="url(#paint2_linear_2343_518)"/>
<path d="M52.5718 26.2713C60.1383 29.4157 69.7383 24.1672 69.9511 14.5685C69.9511 13.9065 70.0457 13.1973 69.9511 12.5589C68.627 4.78067 65.624 1.75448 58.6486 0.24139C53.825 -0.822505 48.1501 2.96023 46.0457 8.23242C43.3028 15.1359 46.3058 23.6707 52.5954 26.295L52.5718 26.2713ZM57.6319 5.06438C62.1482 5.18259 65.8841 9.15446 65.695 13.6228C65.4822 18.3749 61.3442 22.6068 57.088 22.4413C52.6427 22.2522 49.5215 18.4931 49.6161 13.4337C49.7107 8.51612 53.1156 4.96981 57.6319 5.08802V5.06438Z" fill="url(#paint3_linear_2343_518)"/>
<path d="M91.8469 36.4149C97.7346 36.4149 103.622 30.4098 103.315 24.0265C103.315 15.87 97.4272 11.8508 91.9651 11.6144C85.6755 11.3307 80.1424 17.1939 80.1661 23.6955C80.1897 30.0552 84.7296 36.3913 91.8469 36.4149ZM88.0164 17.8323C90.1917 15.9645 92.8873 15.8227 95.3937 17.454C97.3563 18.7307 98.3257 20.8821 98.3257 23.9792C98.3257 29.346 95.1573 32.1121 90.1208 31.4974C87.4016 31.1664 86.6686 28.944 85.6282 27.2182C83.9257 24.4048 85.1789 20.2674 88.0164 17.8323Z" fill="url(#paint4_linear_2343_518)"/>
<path d="M12.091 26.8149C12.2565 33.0328 21.5728 39.1561 28.1699 35.1842C33.3245 32.0635 36.3039 25.0181 33.9157 19.4859C30.6526 11.8731 23.1334 8.70508 15.9925 14.4265C12.9186 16.8852 11.76 20.3843 11.9728 24.3089C12.0201 25.16 12.0673 25.9875 12.091 26.8386V26.8149ZM23.6299 16.3415C27.4368 16.767 30.6526 20.7862 30.2034 24.5453C29.6832 28.8481 26.4201 31.8034 22.5186 31.5197C18.9954 31.2596 15.8742 27.075 16.2762 23.1504C16.6545 19.3913 20.3432 15.9868 23.6299 16.3651V16.3415Z" fill="url(#paint5_linear_2343_518)"/>
<defs>
<linearGradient id="paint0_linear_2343_518" x1="32.5205" y1="72.8705" x2="83.1689" y2="72.8705" gradientUnits="userSpaceOnUse">
<stop stop-color="#AE8ABE"/>
<stop offset="1" stop-color="#8390C8"/>
</linearGradient>
<linearGradient id="paint1_linear_2343_518" x1="0.103255" y1="77.1728" x2="38.4797" y2="77.1728" gradientUnits="userSpaceOnUse">
<stop stop-color="#AE8ABE"/>
<stop offset="1" stop-color="#8390C8"/>
</linearGradient>
<linearGradient id="paint2_linear_2343_518" x1="77.0932" y1="77.1953" x2="114.642" y2="77.1953" gradientUnits="userSpaceOnUse">
<stop stop-color="#AE8ABE"/>
<stop offset="1" stop-color="#8390C8"/>
</linearGradient>
<linearGradient id="paint3_linear_2343_518" x1="45.0053" y1="13.5992" x2="69.9748" y2="13.5992" gradientUnits="userSpaceOnUse">
<stop stop-color="#AE8ABE"/>
<stop offset="1" stop-color="#8390C8"/>
</linearGradient>
<linearGradient id="paint4_linear_2343_518" x1="80.1897" y1="24.0265" x2="103.339" y2="24.0265" gradientUnits="userSpaceOnUse">
<stop stop-color="#AE8ABE"/>
<stop offset="1" stop-color="#8390C8"/>
</linearGradient>
<linearGradient id="paint5_linear_2343_518" x1="11.9728" y1="23.9542" x2="34.7669" y2="23.9542" gradientUnits="userSpaceOnUse">
<stop stop-color="#AE8ABE"/>
<stop offset="1" stop-color="#8390C8"/>
</linearGradient>
</defs>
</svg>
