<svg width="112" height="111" viewBox="0 0 112 111" fill="none" xmlns="http://www.w3.org/2000/svg">
<path d="M26.9741 12.7831C22.1268 9.75688 17.2322 6.8016 12.243 4.01183C11.2499 3.44442 9.2164 3.18438 8.55433 3.77543C5.33856 6.63612 1.60259 9.14218 0.0419922 13.5633C4.03806 20.0412 7.98684 26.4246 11.7465 32.5242C15.8608 32.5715 17.2085 29.1434 19.5021 27.9849C26.8086 35.314 33.9022 42.4539 41.6342 50.2321C40.8539 50.7523 39.719 51.2724 38.8914 52.0999C28.1091 62.8098 17.4214 73.5669 6.61541 84.2531C3.89619 86.9483 1.64988 90.14 1.2952 93.7809C0.254801 104.396 9.38192 112.789 19.9751 109.692C23.0253 108.794 25.2953 106.95 27.4706 104.774C37.4963 94.7502 47.5219 84.7496 57.5476 74.7253C59.0845 73.2123 60.6215 71.7228 62.3949 69.9969C64.8067 72.5266 66.9821 74.7726 69.2048 77.0896C67.8806 78.4844 66.9821 79.4538 66.0363 80.4231C65.0905 81.3924 64.0974 82.3145 63.2225 83.3311C61.4727 85.3643 61.4018 86.1208 63.2934 88.0595C69.323 94.1828 75.258 100.472 81.6186 106.217C85.922 110.118 91.0294 111.3 97.059 109.361C104.342 107.02 110.655 95.2703 102.828 86.4518C96.9172 79.7848 90.2964 73.6851 83.9358 67.42C81.855 65.3867 81.2166 65.5049 78.8757 67.7036C76.9368 69.5241 75.0688 71.3918 73.0117 73.425C70.6235 70.8008 68.6136 68.5784 66.1545 65.8832C70.3634 61.7695 74.6196 57.6794 78.7575 53.4711C80.058 52.1472 81.4531 51.6743 83.2501 51.7452C85.6147 51.8162 88.0738 52.1235 90.3201 51.5561C101.362 48.719 108.551 41.7446 111.104 30.5856C111.79 27.5594 111.53 24.1549 111.01 21.0578C110.324 17.0623 108.22 16.4003 105.122 18.9773C101.646 21.8616 98.3832 25.0297 94.9546 28.1504C94.0324 27.9376 93.063 27.7249 92.0935 27.4884C85.6147 25.9281 85.5201 25.8335 84.2196 19.4501C84.1959 19.2846 84.1486 19.1191 84.125 18.9537C83.794 17.2041 84.0541 15.691 85.4728 14.3671C87.6954 12.3102 89.8472 10.1588 91.9043 7.93643C93.1102 6.63611 94.0797 5.14666 95.3566 3.46807C93.9378 2.54603 93.063 1.71857 92.0226 1.3403C88.2866 -0.0309446 84.527 0.418234 80.6018 0.985644C69.7959 2.56966 59.723 13.6815 59.9358 25.5734C60.0067 29.6399 58.9899 32.6188 55.8451 35.2194C53.1259 37.4654 50.8086 40.1843 48.2786 42.6667C47.2618 43.6833 46.1505 44.6053 45.6539 45.0545C38.2529 37.6545 31.1593 30.5383 23.7347 23.1146C24.8224 22.1453 26.2884 20.9869 27.5652 19.6866C30.4263 16.7549 30.3081 14.9108 26.9268 12.8067L26.9741 12.7831ZM81.6186 72.1957C85.0708 75.6474 88.4994 79.0755 91.928 82.5036C94.0797 84.6551 96.0896 86.972 98.4068 88.887C102.025 91.8659 102.403 98.9349 99.0216 102.079C94.127 106.619 90.5329 106.524 85.5437 102.812C83.0137 100.921 80.8856 98.462 78.6156 96.216C75.991 93.639 73.3663 91.0384 70.8126 88.3905C70.0323 87.5866 69.4176 86.5937 68.7318 85.7426C69.0629 85.057 69.1811 84.5132 69.5121 84.1822C73.4373 80.2576 77.4097 76.3567 81.6422 72.172L81.6186 72.1957ZM62.7969 35.2903C63.7427 34.3447 64.6412 33.3281 65.6343 32.2642C63.5062 23.4457 65.7998 16.022 72.6806 10.0642C76.4875 6.75434 81.9496 5.05211 86.324 6.18693C84.858 7.77095 83.5575 9.28405 82.1624 10.6553C80.8383 11.932 79.3723 13.0904 78.0245 14.2489C79.1831 19.0009 80.1999 23.2092 81.2166 27.3939C81.6659 29.2379 82.9191 30.16 84.7161 30.6092C87.1516 31.2239 89.7053 31.6731 91.9753 32.6897C95.7822 34.3683 98.3595 33.0443 100.7 30.1127C102.119 28.3159 103.656 26.5427 106.044 25.8098C107.534 34.7938 99.0925 43.7779 91.9753 45.6692C89.1142 46.4258 85.8748 46.9932 83.061 46.4021C80.2708 45.8111 78.7102 46.4967 76.8895 48.3171C65.6107 59.689 54.2372 70.9899 42.8874 82.3145C36.9288 88.2723 30.9465 94.2301 24.9879 100.188C24.1603 101.015 23.3327 101.89 22.4105 102.623C17.9179 106.217 12.7869 106.193 9.09818 102.623C5.50408 99.1476 5.48043 93.2608 9.12182 88.9343C9.9967 87.894 11.0135 87.0193 11.9593 86.0499C28.913 69.1222 45.8431 52.1708 62.7969 35.2431V35.2903ZM14.0637 25.6917C10.3041 22.3345 8.71985 17.5824 5.83511 13.3032C7.08832 11.9792 7.89226 11.1518 8.69621 10.3006C9.92577 8.97668 11.4154 8.97669 12.7869 9.8278C16.0263 11.8137 19.1711 13.9652 22.3159 16.022C21.4411 18.6227 19.2657 21.176 14.0637 25.7153V25.6917Z" fill="url(#paint0_linear_2343_486)"/>
<defs>
<linearGradient id="paint0_linear_2343_486" x1="0.0419922" y1="55.3625" x2="111.554" y2="55.3625" gradientUnits="userSpaceOnUse">
<stop stop-color="#AE8ABE"/>
<stop offset="1" stop-color="#8390C8"/>
</linearGradient>
</defs>
</svg>
