<svg width="87" height="77" viewBox="0 0 87 77" fill="none" xmlns="http://www.w3.org/2000/svg">
<path d="M14.0424 73.6457C13.1348 76.5206 13.1348 76.5635 10.1039 76.5492C7.0731 76.5492 4.02605 76.7065 0.784513 76.3775C0.687267 75.3048 0.541383 74.4323 0.541383 73.5598C0.525175 66.0364 0.541383 58.4987 0.541383 50.9753C0.541383 50.4747 0.541399 49.9741 0.557607 49.4735C0.573814 48.2434 1.36799 47.6141 2.68081 47.5855C5.51716 47.5426 8.3697 47.4997 11.206 47.6141C12.9565 47.6856 13.2482 48.0861 14.2693 50.4175C17.7053 49.1159 19.8934 47.1421 19.7637 43.6092C19.7151 42.1217 19.7637 40.6342 19.7637 39.3755C19.2451 39.018 19.083 38.832 18.8885 38.7891C16.2629 38.36 14.9446 36.9679 14.9338 34.6126C14.9338 32.41 14.9338 30.193 14.9338 27.9903C14.9338 26.6887 15.6145 25.945 17.1219 25.7733C19.3585 25.5016 21.5952 25.1726 23.7832 24.8865C23.9777 24.7149 24.1722 24.6005 24.3019 24.4431C26.2144 22.1261 26.2792 19.9377 23.9129 17.7493C22.7621 16.6909 21.9842 15.3321 20.9145 13.959C23.7994 10.9554 26.9923 8.43803 30.2177 5.56312C33.0378 7.20797 35.6472 8.7241 38.3215 10.2831C39.8936 9.63949 41.3037 9.06737 42.6166 8.53815C43.2162 5.82057 43.7673 3.28893 44.3832 0.471231C48.9375 0.385413 53.2002 0.399716 57.8031 0.471231C58.4352 3.21742 59.0511 5.82056 59.6832 8.56674C61.0447 9.09596 62.4872 9.63949 64.0755 10.2402C66.5067 8.76701 68.9216 7.30808 71.5473 5.70613C72.5683 6.34977 73.6381 6.89329 74.5295 7.60844C76.1178 8.89572 77.6252 10.2688 79.1325 11.6419C81.3043 13.6157 81.3043 14.1735 79.3594 16.5049C78.2248 17.878 77.1227 19.2654 75.9396 20.7243C76.2475 21.3966 76.5879 22.0259 76.831 22.6696C77.4793 24.4145 78.7273 25.1869 80.8829 25.2441C82.763 25.3013 84.6107 25.8591 86.669 26.231V37.8737C83.9461 38.9178 80.9639 38.8606 77.9331 39.4614L75.9396 43.409C77.0741 44.8107 78.3221 46.3268 79.5215 47.8859C81.2557 50.1314 81.2395 50.4032 79.2135 52.234C76.912 54.3079 74.5619 56.339 71.9849 58.6274C70.3641 57.6834 68.7595 56.954 67.4467 55.9385C64.9183 53.9933 62.471 53.7644 59.5536 55.9385C59.278 57.3974 59.0187 59.171 58.6135 60.9159C57.9814 63.6192 57.7059 63.7766 54.5778 63.9053C54.124 63.9196 53.6702 63.9625 53.1515 63.9911C52.6491 65.4929 52.1467 66.9804 51.5146 68.8398C51.5632 68.9399 51.8063 69.3834 52.017 69.8411C53.6216 73.3024 51.4335 76.3203 47.1385 76.5063C45.5501 76.5778 43.9618 76.5063 42.3572 76.5063C37.0087 76.5063 31.6601 76.4777 26.3278 76.5063C23.9777 76.5206 21.8383 76.1344 20.0392 74.6755C18.3698 73.3024 16.3115 73.4597 14.0748 73.6457H14.0424ZM55.0478 61.1877C55.4044 59.1853 55.6799 57.5118 56.0041 55.8384C56.231 54.737 56.6038 53.7215 57.9977 53.2495C60.0074 52.5773 61.9685 51.8192 64.2214 51.0039C66.5553 52.377 68.9703 53.793 70.9638 54.9659C73.1032 53.2638 75.0319 51.7477 77.0093 50.1744C75.3561 48.0289 73.7677 45.9692 72.1794 43.9239C72.9574 42.3077 73.8001 40.8774 74.3188 39.3612C74.9509 37.5591 76.2475 36.8153 78.2897 36.6294C80.1698 36.4434 82.0012 36.0572 83.7517 35.7855V28.7341C80.9153 27.6041 77.69 28.305 75.4209 26.9033L72.3901 20.2953C74.027 18.2213 75.583 16.2761 77.2199 14.2165C75.1616 12.5716 73.2329 11.0269 71.1421 9.36773C69.5699 10.3546 67.7223 11.4846 65.907 12.6574C65.0156 13.2295 64.1404 13.487 63.0706 13.0436C61.0285 12.1997 58.9539 11.4131 56.8307 10.5835L54.9992 3.1888H47.1385L45.5339 10.5263C43.3459 11.4131 41.2389 12.3714 39.0184 13.0722C38.3215 13.2868 37.2194 13.015 36.5225 12.6431C34.5127 11.5561 32.6164 10.2974 30.8822 9.23899C28.921 11.0698 27.0896 12.7862 25.2905 14.4739C26.7654 16.4048 28.4024 18.536 29.9097 20.4955C29.0345 22.3406 28.1755 23.7852 27.7055 25.3156C27.203 26.9462 26.0847 27.5612 24.3181 27.7471C22.4218 27.9474 20.5579 28.2907 18.4023 28.6053C18.6454 31.1227 17.8998 33.5256 18.9209 36.0429C19.3261 35.714 19.5368 35.6138 19.634 35.4565C21.4979 32.3956 24.0263 31.9522 26.9599 34.1549C29.0669 35.7282 30.2987 37.6306 30.1853 40.1622C30.088 42.7368 30.169 45.3256 30.169 48.0003C31.4656 48.0575 32.3571 48.1147 33.2485 48.129C37.576 48.129 41.9034 48.0718 46.2147 48.1576C51.5956 48.272 53.7188 51.2614 51.5956 55.5809C51.5146 55.7525 51.4822 55.9671 51.4011 56.2817C52.3736 57.7407 53.2326 59.3426 52.1629 61.2449H55.0478V61.1877ZM34.8855 69.3118C35.3231 67.81 36.5225 67.9101 37.657 67.9101C40.2664 67.9101 42.8921 67.9387 45.5015 67.8815C46.3929 67.8672 47.3816 67.81 48.111 67.4238C48.6296 67.1521 49.0186 66.3082 49.0024 65.7361C49.0024 65.307 48.3054 64.7063 47.7706 64.5346C47.0574 64.3058 46.1985 64.3916 45.4043 64.3916C43.0217 64.3916 40.623 64.3916 38.2405 64.3916C36.8466 64.3916 35.5176 64.2486 34.8369 63.0328C35.0476 61.4452 36.2469 61.3021 37.5922 61.3021C40.6554 61.3021 43.7349 61.3021 46.7981 61.3021C48.0948 61.3021 49.0348 60.9445 49.1158 59.643C49.1807 58.513 48.5648 57.9838 46.9764 57.8551C46.1822 57.7979 45.3881 57.8265 44.5939 57.8265C42.2114 57.8265 39.8126 57.8265 37.4301 57.8265C36.0686 57.8265 34.9179 57.5976 34.8693 55.867C35.4365 55.5523 36.0362 55.066 36.7332 54.8801C37.4625 54.6798 38.3053 54.737 39.0995 54.737C41.7089 54.7227 44.3346 54.7799 46.944 54.7084C48.581 54.6655 49.1807 54.1077 49.1158 52.9634C49.0672 51.8478 48.4513 51.3901 46.8143 51.29C46.1336 51.2471 45.4529 51.29 44.7722 51.29C39.9909 51.29 35.2259 51.29 30.4446 51.29C29.4721 51.29 28.4996 51.1326 27.1868 51.0325C27.1868 49.7882 27.1868 48.8156 27.1868 47.8287C27.1868 45.626 27.3003 43.409 27.1544 41.2063C27.0085 38.8606 26.3116 36.6866 23.0701 35.7426C22.9242 36.5292 22.7135 37.1729 22.6973 37.8308C22.6487 39.9334 22.6325 42.0502 22.6973 44.1528C22.7621 46.713 21.7735 48.93 19.6016 50.5748C17.916 51.8335 15.9225 52.7918 13.9289 53.979C13.4427 56.8539 13.54 68.5109 14.1559 70.8709C15.4525 70.9424 16.8463 70.8423 18.1267 71.1283C19.4233 71.4144 20.72 71.9436 21.7897 72.6444C23.3456 73.66 24.9664 74.0175 26.8627 73.9889C33.0054 73.9317 39.1481 73.9889 45.2908 73.946C46.2633 73.946 47.3492 73.7887 48.1596 73.3739C48.662 73.1165 48.9862 72.1868 48.9213 71.6003C48.8727 71.2141 48.0623 70.7278 47.4951 70.5848C46.7495 70.3989 45.9229 70.4704 45.1287 70.4704C42.7462 70.4704 40.3475 70.4704 37.965 70.4704C36.8466 70.4704 35.631 70.6277 34.9179 69.3691L34.8855 69.3118ZM9.84461 73.3453C10.5253 69.1259 10.3308 52.7203 9.56908 50.5605C7.64036 50.818 5.61441 50.1887 3.7019 50.9324C3.23188 56.4391 3.41015 70.9853 3.99363 73.3453H9.84461Z" fill="url(#paint0_linear_2406_13)"/>
<path d="M66.9763 32.3383C66.7656 40.2765 59.7639 46.4411 50.7848 46.341C43.4103 46.2552 34.9175 41.3778 35.0634 32.2096C35.193 23.6278 41.8544 18.3213 50.8821 18.1926C60.5419 18.0496 66.8953 25.0438 66.9601 32.3383H66.9763ZM63.4917 32.3383C63.9293 25.6159 56.9275 21.139 51.2386 21.0961C44.399 21.0246 38.3697 26.3882 38.3049 32.2239C38.2563 38.1024 43.9938 43.3231 51.109 43.3946C57.7055 43.4518 63.9779 38.2169 63.4755 32.3526L63.4917 32.3383Z" fill="url(#paint1_linear_2406_13)"/>
<defs>
<linearGradient id="paint0_linear_2406_13" x1="0.525175" y1="38.5031" x2="86.6366" y2="38.5031" gradientUnits="userSpaceOnUse">
<stop stop-color="#AE8ABE"/>
<stop offset="1" stop-color="#8390C8"/>
</linearGradient>
<linearGradient id="paint1_linear_2406_13" x1="35.0634" y1="32.2668" x2="66.9763" y2="32.2668" gradientUnits="userSpaceOnUse">
<stop stop-color="#AE8ABE"/>
<stop offset="1" stop-color="#8390C8"/>
</linearGradient>
</defs>
</svg>
