<svg width="110" height="110" viewBox="0 0 110 110" fill="none" xmlns="http://www.w3.org/2000/svg">
<path d="M109.433 54.8341C109.716 25.5652 86.5438 0.670038 55.3082 0.575469C24.451 0.480901 1.49133 24.8796 0.781964 54.0539C0.119893 81.7152 22.3702 109.282 55.0245 109.376C87.9152 109.447 110.355 81.8097 109.433 54.8577V54.8341ZM54.2678 104.412C27.052 103.962 4.73073 80.8168 5.93664 54.0539C5.60561 28.3786 27.4776 5.25661 55.5447 5.49303C83.8955 5.75309 104.916 29.3006 104.538 55.8271C104.183 81.0532 82.8788 104.861 54.2442 104.388L54.2678 104.412Z" fill="url(#paint0_linear_2399_5)"/>
<path d="M84.8161 23.2969C83.2082 24.5972 81.4348 25.8029 79.9452 27.2924C73.2772 33.9122 66.6801 40.6029 60.2722 47.0572C57.3402 47.0572 54.9993 46.4898 53.1076 47.1754C49.9864 48.3102 47.6692 47.4827 45.0918 45.8987C40.812 43.2744 36.3431 40.9339 31.9687 38.4515C30.4554 37.6004 29.2022 38.3096 28.5874 39.5154C28.2563 40.1301 28.7529 41.4304 29.2731 42.1396C29.8406 42.8962 30.81 43.3927 31.6613 43.8892C34.2622 45.4259 36.816 47.0572 39.5115 48.3811C43.5785 50.3434 46.6052 52.7549 47.5037 57.6961C48.213 61.6444 51.2397 63.2048 55.4249 63.1102C59.35 63.0156 61.7855 61.3843 62.8732 57.6252C63.3934 55.8048 63.2752 53.8188 63.4643 51.5019C67.5786 47.3882 72.0003 43.038 76.3274 38.5933C79.7087 35.1179 83.0191 31.5716 86.2348 27.978C87.7481 26.2758 87.559 25.9448 84.8161 23.2969Z" fill="url(#paint1_linear_2399_5)"/>
<defs>
<linearGradient id="paint0_linear_2399_5" x1="0.758319" y1="54.9523" x2="109.456" y2="54.9523" gradientUnits="userSpaceOnUse">
<stop stop-color="#AE8ABE"/>
<stop offset="1" stop-color="#8390C8"/>
</linearGradient>
<linearGradient id="paint1_linear_2399_5" x1="28.4928" y1="43.2035" x2="87.2043" y2="43.2035" gradientUnits="userSpaceOnUse">
<stop stop-color="#AE8ABE"/>
<stop offset="1" stop-color="#8390C8"/>
</linearGradient>
</defs>
</svg>
