<svg width="114" height="106" viewBox="0 0 114 106" fill="none" xmlns="http://www.w3.org/2000/svg">
<path d="M77.6958 57.5264C80.7697 55.0676 81.0061 54.0983 78.8308 51.805C75.0002 47.7859 71.0279 43.8849 67.1028 39.9367C64.5963 37.4306 62.1372 34.8773 59.5599 32.4895C57.4081 30.5035 56.084 30.5271 53.9086 32.5367C51.946 34.3572 50.0543 36.2958 48.21 38.2817C45.0651 41.6625 42.015 45.1379 38.8702 48.5424C38.3263 49.1334 37.4041 49.3462 36.7894 49.89C35.7726 50.7648 34.6612 51.6395 33.9519 52.7271C33.479 53.4836 33.3844 54.6657 33.5263 55.5878C33.6209 56.2261 34.4721 56.7226 34.9686 57.29C37.9006 54.8076 40.5962 52.5615 43.2445 50.2446C44.2612 49.3699 45.4908 48.5188 46.0346 47.3839C47.6898 43.9795 50.7873 42.3718 54.4287 39.984C54.2159 45.398 53.9085 49.9846 53.8612 54.5475C53.7903 64.8082 53.8612 75.0925 53.8612 85.3532C53.8612 90.5781 53.9085 95.8029 53.8612 101.004C53.8612 103.416 54.3815 105.331 57.0061 105.874C59.6544 104.74 58.9214 102.47 58.9214 100.555C58.9687 82.3742 58.9451 64.1935 58.9451 46.0127C58.9451 44.2159 58.9451 42.3955 58.9451 39.4638C66.086 45.6581 71.5007 52.0651 77.6485 57.5264H77.6958Z" fill="url(#paint0_linear_2343_507)"/>
<path d="M99.3076 22.6062C95.4771 20.3839 91.1972 19.5565 86.8228 19.3437C85.7115 19.2964 84.3873 20.0056 83.536 19.5801C82.6375 19.1309 82.2357 17.7597 81.5736 16.814C81.1243 16.152 80.6514 15.49 80.1784 14.828C78.6651 11.3999 75.8278 9.15396 72.9903 6.9316C70.2001 4.80381 67.2445 2.95966 63.8632 1.91941C57.8573 -0.161092 51.7331 -0.610275 45.538 0.90282C36.009 3.24339 28.6315 8.58652 23.5714 17.0267C20.5448 21.235 20.5921 26.4599 18.7715 31.3539C16.8798 31.874 14.7044 32.1813 12.7654 33.0324C3.87476 36.957 -1.09074 45.2791 0.233403 55.327C0.280694 55.7525 0.77719 56.1072 1.06093 56.5091C1.36832 59.4407 2.73981 61.9704 4.51321 64.1454C8.65116 69.2521 13.4749 73.0822 20.6867 72.6566C25.534 72.3729 30.4286 72.6566 35.2996 72.7039C38.2552 72.7039 39.4138 72.0892 39.5794 70.3633C39.7685 68.4719 38.5389 67.6444 35.2049 67.5972C30.1684 67.5262 25.1084 67.5263 20.0719 67.5499C17.4709 67.5499 14.9645 67.1007 12.9783 65.5167C8.17829 61.6631 3.61464 57.5493 5.19888 50.3857C5.26981 50.0784 5.19888 49.7238 5.19888 49.3691C6.31021 45.2081 8.50934 41.78 11.9616 39.1321C15.5557 36.366 20.1664 36.9334 23.9733 35.7277C24.4935 32.2996 24.9666 29.1788 25.4395 26.0816C27.1419 22.7008 28.8207 19.3436 30.5231 15.9628C32.202 14.2842 33.9045 12.582 35.5833 10.9035C38.0897 9.5795 40.5015 8.01909 43.1262 6.95519C48.541 4.78012 54.1449 4.56733 59.8198 5.91493C63.1775 7.02611 66.204 8.72834 69.0888 10.7852C69.3016 10.9507 69.7273 10.8325 70.0583 10.8561C72.3992 13.244 74.7163 15.6082 77.0572 17.9961C77.2464 18.1143 77.4592 18.2089 77.6247 18.3034C77.4355 18.2325 77.2464 18.1143 77.0572 17.9961C78.3577 20.0529 79.6346 22.1335 80.5804 23.6229C84.4819 24.143 87.6504 24.5922 90.7952 24.9705C97.6051 25.7743 102.074 30.0063 105.432 35.4203C107.749 39.1321 108.955 43.5532 108.293 47.9506C106.496 59.8426 98.5982 67.3844 85.9716 67.5972C82.945 67.6444 79.8948 67.5972 76.8682 67.5972C76.0169 67.5972 75.0237 67.3608 74.3853 67.7154C73.4868 68.2119 72.3755 69.0866 72.1863 69.985C71.8553 71.5218 73.0139 72.4202 74.5508 72.5857C75.3784 72.6803 76.2297 72.6329 77.0809 72.6329C79.7765 72.6329 82.4957 72.4438 85.1676 72.6329C92.4977 73.1767 98.7638 70.4815 104.202 65.9895C110.681 60.6228 113.613 53.1282 113.329 44.9953C112.998 35.1366 107.962 27.5002 99.3313 22.4881L99.3076 22.6062Z" fill="url(#paint1_linear_2343_507)"/>
<defs>
<linearGradient id="paint0_linear_2343_507" x1="33.479" y1="68.4254" x2="80.2495" y2="68.4254" gradientUnits="userSpaceOnUse">
<stop stop-color="#AE8ABE"/>
<stop offset="1" stop-color="#8390C8"/>
</linearGradient>
<linearGradient id="paint1_linear_2343_507" x1="0.0442394" y1="36.4132" x2="113.306" y2="36.4132" gradientUnits="userSpaceOnUse">
<stop stop-color="#AE8ABE"/>
<stop offset="1" stop-color="#8390C8"/>
</linearGradient>
</defs>
</svg>
