<svg width="91" height="80" viewBox="0 0 91 80" fill="none" xmlns="http://www.w3.org/2000/svg">
<path d="M59.7421 59.4036V67.4705C62.7892 67.728 64.0372 69.6302 64.7827 71.9902C65.1231 73.0487 65.7714 74.0213 66.128 75.0654C67.068 77.8116 65.3986 79.8427 62.0923 79.8856C57.1975 79.9571 52.319 79.8999 47.4243 79.8999C41.5085 79.8999 35.5927 79.9142 29.6769 79.8999C25.4305 79.8856 23.8097 77.6829 25.3981 74.1643C25.8519 73.1488 26.2895 72.1047 26.7919 71.1035C28.0885 68.5289 28.1696 68.4717 31.3301 67.2559V59.5895C30.3576 59.5323 29.3852 59.4179 28.4127 59.4179C21.4758 59.4036 14.5389 59.4179 7.602 59.4179C2.9666 59.4179 1.32963 58.1735 0.519244 54.1257C0.308544 53.053 0.178871 51.9517 0.178871 50.8503C0.162664 36.8047 0.146456 22.7448 0.178871 8.6992C0.178871 7.41193 0.389569 6.11033 0.632685 4.83736C1.21616 1.89093 2.69107 0.646587 5.98123 0.260405C6.87265 0.160283 7.7965 0.20318 8.70413 0.20318C33.3884 0.20318 58.0565 0.20318 82.7409 0.20318C83.535 0.20318 84.3454 0.160299 85.1234 0.231814C88.0246 0.474966 89.8398 1.89093 90.4395 4.47978C90.6826 5.55251 90.8933 6.65389 90.8933 7.74092C90.9257 22.3873 90.9257 37.0479 90.8933 51.6942C90.8933 52.8813 90.6826 54.0828 90.4071 55.2556C89.8236 57.7301 87.8625 59.2176 84.9613 59.3892C83.4864 59.4751 82.0115 59.4179 80.5204 59.4179C73.7132 59.4179 66.8897 59.4179 59.6935 59.4179L59.7421 59.4036ZM5.0574 48.0326C5.54363 48.2186 5.75433 48.3616 5.96503 48.3616C31.8973 48.3902 57.8296 48.4045 83.7619 48.4188C84.3292 48.4188 84.8965 48.3616 85.4638 48.3044C85.561 48.3044 85.6582 48.2186 85.7393 48.1613C85.8365 48.1041 85.9013 48.0326 86.2093 47.7895V40.7667C86.2093 29.7247 86.2093 18.6828 86.1931 7.64079C86.1931 6.48224 86.6145 5.19494 85.0261 3.99348H24.6687C19.4336 3.99348 14.1985 3.99348 8.96346 3.99348C7.61822 3.99348 6.19194 3.80756 5.0574 5.08053V48.0326ZM5.21946 52.8385C4.6684 54.2974 5.17084 55.1698 6.66195 55.4416C7.65062 55.6275 8.70412 55.5703 9.7252 55.5703C33.7288 55.5703 57.7324 55.5703 81.7522 55.5703C82.4329 55.5703 83.1136 55.5989 83.7944 55.5703C85.9824 55.4416 86.1931 55.1126 85.6744 52.8527H5.23569L5.21946 52.8385ZM36.5003 67.2989C40.1795 67.7852 52.0111 67.728 54.6691 67.1988C54.7502 64.6814 55.0581 62.1211 54.4422 59.3892C48.9478 59.3892 43.6155 59.3892 38.2994 59.3892C37.7483 59.3892 37.2135 59.475 36.5003 59.5322V67.2846V67.2989ZM29.4986 75.8234C34.7013 76.4242 59.0452 76.2526 61.5088 75.5946C60.8767 74.2215 60.2446 72.877 59.6611 71.6183H31.3787L29.4986 75.8091V75.8234Z" fill="url(#paint0_linear_2343_422)"/>
<path d="M63.6316 41.5821H66.6463C66.7597 41.1816 66.9056 40.9099 66.9056 40.6238C66.9218 35.7036 66.9056 30.7833 66.938 25.8631C66.9542 22.0442 68.348 20.8141 72.6107 20.7712C74.5394 20.7569 76.4843 20.6997 78.413 20.7855C81.2656 20.9285 82.8539 22.273 82.8863 24.7903C82.9674 30.5116 82.9674 36.2328 82.8863 41.954C82.8539 44.1281 81.2656 45.5012 78.7696 45.5155C69.7905 45.5727 60.7953 45.587 51.8 45.5155C48.9637 45.5012 47.3267 44.0709 47.2618 41.5821C47.1484 37.1625 47.1484 32.7429 47.2618 28.3375C47.3105 25.8345 48.915 24.4757 51.7514 24.347C53.907 24.2468 56.0788 24.304 58.2345 24.3326C61.6219 24.3755 63.5019 25.906 63.6154 28.9239C63.7289 31.8275 63.6478 34.7453 63.6478 37.6631C63.6478 38.8646 63.6478 40.066 63.6478 41.5964L63.6316 41.5821ZM71.4437 25.1622V41.5678H78.3968V25.1622H71.4437ZM52.1566 41.5392H58.6235V28.8095H52.1566V41.5392Z" fill="url(#paint1_linear_2343_422)"/>
<path d="M8.21826 22.7587C8.21826 21.2568 8.23447 19.7407 8.21826 18.2389C8.18585 16.165 9.02865 14.5058 11.1032 13.4474C14.6365 11.6309 18.2022 9.8573 21.7679 8.08372C23.2752 7.33996 24.8311 7.35426 26.3223 8.08372C29.9852 9.90021 33.6968 11.6595 37.2462 13.6333C39.0615 14.6488 39.7908 16.4367 39.8395 18.3247C39.9043 21.3427 39.9043 24.3463 39.8395 27.3642C39.7908 29.5955 38.8508 31.4263 36.4845 32.5705C33.1943 34.1582 29.9366 35.7887 26.7112 37.4765C24.7015 38.5206 22.7403 38.2774 20.8765 37.3764C17.6998 35.8316 14.6203 34.1153 11.476 32.5133C9.17451 31.3405 8.13723 29.6098 8.21826 27.2784C8.26689 25.7766 8.21826 24.2605 8.21826 22.7587ZM12.7564 17.0804V28.6801C15.9655 30.2964 19.1098 31.8697 22.2379 33.4716C23.4373 34.0867 24.5718 34.101 25.7712 33.4716C28.413 32.0986 31.0549 30.754 33.713 29.4239C34.9123 28.8231 35.4958 27.9507 35.4958 26.7349C35.4958 24.1318 35.4958 21.5286 35.4958 18.9254C35.4958 17.8384 35.042 16.9945 33.9399 16.4367C31.298 15.0779 28.6562 13.7334 26.0143 12.346C24.7339 11.6738 23.5021 11.588 22.1731 12.2745C19.0612 13.8907 15.9169 15.4641 12.7402 17.0804H12.7564Z" fill="url(#paint2_linear_2343_422)"/>
<path d="M24.0367 41.7108C27.8941 41.7108 31.7516 41.7108 35.6252 41.7108C36.4194 41.7108 37.2298 41.6822 38.0077 41.7823C39.1747 41.9253 39.823 42.569 39.823 43.6274C39.823 44.6859 39.1423 45.3152 38.0077 45.4725C37.3432 45.5726 36.6463 45.544 35.9655 45.544C28.0238 45.544 20.0658 45.544 12.124 45.544C11.3299 45.544 10.5033 45.5869 9.75771 45.4153C8.80145 45.2008 8.2666 44.5571 8.2666 43.6274C8.2666 42.712 8.78524 42.0541 9.75771 41.8538C10.5195 41.6965 11.3299 41.7251 12.124 41.7251C16.0949 41.7251 20.0658 41.7251 24.0529 41.7251L24.0367 41.7108Z" fill="url(#paint3_linear_2343_422)"/>
<path d="M63.6157 11.2018C62.7567 11.1446 61.6221 11.2876 60.7793 10.9157C59.9852 10.5724 59.1748 9.71429 59.0289 8.98483C58.9317 8.52714 59.9527 7.4544 60.6011 7.36858C62.8053 7.09682 65.0744 6.98238 67.2948 7.12541C68.4294 7.19693 69.2398 8.09803 69.1911 9.28519C69.1425 10.4294 68.1539 10.8299 67.1814 11.0158C66.0955 11.2161 64.9285 11.1446 63.6481 11.2018H63.6157Z" fill="url(#paint4_linear_2343_422)"/>
<path d="M72.6276 9.31462C72.822 8.89983 72.9517 8.25621 73.3569 7.85572C74.6859 6.58275 80.4883 6.45402 81.9794 7.58396C83.0653 8.41354 83.2112 9.74374 82.1739 10.416C80.2776 11.6603 78.0409 11.0024 75.9501 11.1311C74.4752 11.2313 73.3083 10.7592 72.6113 9.31462H72.6276Z" fill="url(#paint5_linear_2343_422)"/>
<path d="M50.3738 11.202C49.2069 11.1448 48.0885 11.3165 47.2295 10.9732C46.4191 10.6442 45.5763 9.85754 45.3332 9.12808C45.0253 8.15547 45.9978 7.3545 47.0513 7.29729C49.2555 7.15426 51.476 7.16856 53.6802 7.29729C54.7499 7.3545 55.7224 8.1269 55.4144 9.11381C55.1875 9.84326 54.3447 10.6729 53.5505 10.9589C52.5619 11.3165 51.3463 11.1591 50.3738 11.2164V11.202Z" fill="url(#paint6_linear_2343_422)"/>
<path d="M77.8945 17.8244C76.8735 17.8244 75.8524 17.8244 74.8313 17.8244C73.5833 17.8244 72.9188 17.1236 72.7405 16.1939C72.546 15.164 73.3726 14.2916 74.3613 14.2201C76.7114 14.0341 79.0939 14.0484 81.444 14.2201C81.9627 14.263 82.611 15.3357 82.7731 16.0222C82.9838 16.8947 82.2544 17.5813 81.2657 17.7243C80.1636 17.8816 79.0129 17.8388 77.8783 17.8817V17.8101L77.8945 17.8244Z" fill="url(#paint7_linear_2343_422)"/>
<path d="M58.8672 15.5509C59.5317 15.0932 60.2449 14.2207 61.0552 14.1491C63.1784 13.9489 65.3503 14.0061 67.4897 14.1491C68.6404 14.2207 69.2239 15.0359 69.1753 16.0657C69.1104 17.1099 68.3973 17.7678 67.2466 17.8107C65.2206 17.8822 63.1784 17.8536 61.1363 17.825C59.7262 17.8107 59.2562 16.9239 58.8834 15.5651L58.8672 15.5509Z" fill="url(#paint8_linear_2343_422)"/>
<path d="M23.8585 15.822C28.2995 15.7648 32.4324 19.1403 32.2055 22.902C31.9624 26.7495 28.8019 29.9248 24.1503 29.9105C19.3366 29.9105 15.9492 27.15 15.8844 22.8591C15.8357 19.3262 18.8504 15.8506 23.8585 15.822ZM27.4243 22.8305C27.3918 21.0426 26.0142 19.7267 24.1179 19.6695C22.0595 19.6123 20.6494 20.9425 20.617 22.9449C20.5846 24.8615 22.0919 26.1631 24.2151 26.0487C26.1276 25.9486 27.4567 24.6184 27.4243 22.8162V22.8305Z" fill="url(#paint9_linear_2343_422)"/>
<defs>
<linearGradient id="paint0_linear_2343_422" x1="0.162664" y1="40.0658" x2="90.9419" y2="40.0658" gradientUnits="userSpaceOnUse">
<stop stop-color="#AE8ABE"/>
<stop offset="1" stop-color="#8390C8"/>
</linearGradient>
<linearGradient id="paint1_linear_2343_422" x1="47.1646" y1="33.1433" x2="82.935" y2="33.1433" gradientUnits="userSpaceOnUse">
<stop stop-color="#AE8ABE"/>
<stop offset="1" stop-color="#8390C8"/>
</linearGradient>
<linearGradient id="paint2_linear_2343_422" x1="8.20206" y1="22.8445" x2="39.8719" y2="22.8445" gradientUnits="userSpaceOnUse">
<stop stop-color="#AE8ABE"/>
<stop offset="1" stop-color="#8390C8"/>
</linearGradient>
<linearGradient id="paint3_linear_2343_422" x1="8.25039" y1="43.6274" x2="39.8068" y2="43.6274" gradientUnits="userSpaceOnUse">
<stop stop-color="#AE8ABE"/>
<stop offset="1" stop-color="#8390C8"/>
</linearGradient>
<linearGradient id="paint4_linear_2343_422" x1="59.0127" y1="9.12784" x2="69.1749" y2="9.12784" gradientUnits="userSpaceOnUse">
<stop stop-color="#AE8ABE"/>
<stop offset="1" stop-color="#8390C8"/>
</linearGradient>
<linearGradient id="paint5_linear_2343_422" x1="72.6275" y1="8.99997" x2="82.8708" y2="8.99997" gradientUnits="userSpaceOnUse">
<stop stop-color="#AE8ABE"/>
<stop offset="1" stop-color="#8390C8"/>
</linearGradient>
<linearGradient id="paint6_linear_2343_422" x1="45.2684" y1="9.18531" x2="55.463" y2="9.18531" gradientUnits="userSpaceOnUse">
<stop stop-color="#AE8ABE"/>
<stop offset="1" stop-color="#8390C8"/>
</linearGradient>
<linearGradient id="paint7_linear_2343_422" x1="72.7081" y1="15.9937" x2="82.8217" y2="15.9937" gradientUnits="userSpaceOnUse">
<stop stop-color="#AE8ABE"/>
<stop offset="1" stop-color="#8390C8"/>
</linearGradient>
<linearGradient id="paint8_linear_2343_422" x1="58.8672" y1="15.937" x2="69.1753" y2="15.937" gradientUnits="userSpaceOnUse">
<stop stop-color="#AE8ABE"/>
<stop offset="1" stop-color="#8390C8"/>
</linearGradient>
<linearGradient id="paint9_linear_2343_422" x1="15.9006" y1="22.8591" x2="32.2217" y2="22.8591" gradientUnits="userSpaceOnUse">
<stop stop-color="#AE8ABE"/>
<stop offset="1" stop-color="#8390C8"/>
</linearGradient>
</defs>
</svg>
