<svg width="113" height="83" viewBox="0 0 113 83" fill="none" xmlns="http://www.w3.org/2000/svg">
<path d="M2.12177 74.2292C1.36512 74.6075 0.51388 75.6477 0.490234 76.4279C0.490234 77.1845 1.29416 78.2484 2.02717 78.6503C2.83111 79.0759 3.98974 78.9813 4.98284 78.9813C8.34049 79.0286 11.7218 79.0995 15.0794 78.9813C17.5149 78.9104 19.5248 79.265 21.511 81.0618C23.6864 83.0477 26.9258 83.0241 28.9356 81.1327C31.2529 78.934 33.712 79.0049 36.3839 79.0049C59.7928 79.0049 83.2254 79.0049 106.634 79.0049C108.148 79.0049 109.708 79.0995 111.127 78.6976C111.86 78.4848 112.735 77.279 112.759 76.5225C112.759 75.7659 111.931 74.5602 111.198 74.3001C109.992 73.8746 108.55 73.9691 107.225 73.9691C96.2777 73.9691 85.3299 73.9691 74.3821 73.9691C60.2421 73.9691 46.0785 73.9691 32.1278 73.9691C31.6549 73.6382 31.3238 73.52 31.111 73.2599C27.0203 68.7206 24.7268 68.626 20.2578 72.5743C19.3593 73.3545 17.9169 73.8509 16.711 73.8982C12.8331 74.0637 8.95529 73.9455 5.07744 73.9691C4.08434 73.9691 2.94936 73.8273 2.12177 74.2529V74.2292Z" fill="url(#paint0_linear_2343_1009)"/>
<path d="M37.1176 4.53324C37.0466 16.4961 37.1176 28.459 37.0703 40.422C37.0703 42.3606 37.9452 43.59 40.0733 44.583C46.6467 40.8712 53.0782 37.2539 59.4861 33.5894C63.8605 31.0833 68.2113 28.53 72.4675 25.8584C76.5345 23.3051 76.4162 21.6974 72.1837 19.1913C71.8999 19.0258 71.5926 18.8603 71.3088 18.6949C62.9147 13.73 54.5442 8.76517 46.1501 3.82397C44.7078 2.97286 43.2417 2.07447 41.7048 1.43613C38.8201 0.254028 37.1412 1.31792 37.1176 4.53324ZM42.4142 7.72492C51.1157 12.6898 59.3443 17.3236 67.8093 22.7849C59.1787 27.8207 51.4467 32.9274 42.4142 37.0411V7.72492Z" fill="url(#paint1_linear_2343_1009)"/>
<defs>
<linearGradient id="paint0_linear_2343_1009" x1="0.490234" y1="76.1206" x2="112.759" y2="76.1206" gradientUnits="userSpaceOnUse">
<stop stop-color="#AE8ABE"/>
<stop offset="1" stop-color="#8390C8"/>
</linearGradient>
<linearGradient id="paint1_linear_2343_1009" x1="37.0703" y1="22.7849" x2="75.4468" y2="22.7849" gradientUnits="userSpaceOnUse">
<stop stop-color="#AE8ABE"/>
<stop offset="1" stop-color="#8390C8"/>
</linearGradient>
</defs>
</svg>
