<svg width="114" height="110" viewBox="0 0 114 110" fill="none" xmlns="http://www.w3.org/2000/svg">
<path d="M10.85 69.6701C11.4884 69.741 12.1269 69.8119 13.0018 69.9302C14.4442 75.8643 15.8393 81.6803 17.3053 87.4962C18.6531 92.8393 19.8825 98.2298 21.6086 103.478C22.8855 107.379 26.0777 109.2 30.2392 109.2C33.6205 109.2 37.0019 109.034 40.3595 109.247C43.8827 109.483 46.129 107.852 47.7369 104.991C49.2975 102.202 48.8482 99.5064 47.1221 96.9058C45.0886 93.8323 43.0077 90.7589 41.1161 87.5908C37.8766 82.2241 37.1438 76.4081 37.995 69.8592C40.0285 69.8119 41.7309 69.4337 43.2915 69.7647C49.0374 70.994 54.665 72.5781 59.7014 75.888C65.6364 79.7889 71.0512 84.2809 76.064 89.2694C79.8946 93.0758 83.6543 96.9531 87.5084 100.712C90.2986 103.431 93.94 103.786 97.0848 101.563C99.804 99.6246 101.554 97.1422 101.483 93.525C101.365 87.2835 101.577 81.0419 101.388 74.8241C101.294 71.396 101.979 69.0554 105.219 66.904C114.18 60.9698 115.836 48.7941 109.404 40.3303C107.441 37.7533 104.58 35.8619 101.459 33.0485C101.459 29.4076 101.459 24.8683 101.459 20.3527C101.459 16.6409 101.625 12.9291 101.388 9.24089C101.034 3.5195 97.7232 0.611533 92.3084 0.587891C89.4473 0.587891 87.6976 2.29011 85.9951 4.15783C79.0434 11.7469 71.6423 18.8632 63.3665 24.9629C56.3911 30.1169 48.7773 34.0415 39.6265 33.3322C37.6167 33.1667 35.5832 33.3322 33.5497 33.3322C26.8107 33.3322 20.0481 33.1194 13.3092 33.3795C4.67864 33.7341 0.0913747 37.3041 0.0913747 46.8555C0.0913747 50.7328 -0.0504976 54.6101 0.0913747 58.4874C0.351474 64.7762 4.53665 69.0554 10.8263 69.7174L10.85 69.6701ZM101.719 40.3066C110.468 45.4606 110.539 55.7685 101.719 63.3104V40.3066ZM44.8284 38.7935C46.0107 38.4625 47.2404 38.0842 48.4936 37.7533C58.0226 35.2472 65.9911 29.9987 73.132 23.4734C78.5941 18.485 83.8907 13.2837 89.2582 8.177C89.873 7.58595 90.4167 6.92396 91.0788 6.42747C92.8758 5.12716 94.7439 5.48181 95.6188 7.51503C96.139 8.69713 96.399 10.092 96.399 11.3923C96.4463 38.368 96.399 65.3436 96.399 92.3192C96.399 92.8157 96.399 93.3359 96.399 93.8323C96.3517 95.771 95.2167 97.0004 93.6089 97.686C92.1192 98.3243 91.0788 97.2368 90.1094 96.2675C84.7182 90.9244 79.5636 85.3212 73.9123 80.2854C66.9842 74.1385 59.4885 68.6771 50.2905 66.242C48.6826 65.8164 47.0511 65.4618 44.8521 64.9417V38.7699L44.8284 38.7935ZM42.0856 98.1115C42.4403 98.679 42.7713 99.27 43.055 99.8847C44.0954 102.249 43.2206 103.951 40.6196 104.069C37.262 104.235 33.8806 104.069 30.4993 104.117C27.7092 104.164 26.1014 102.745 25.4156 100.168C24.4462 96.4329 23.524 92.6975 22.6018 88.962C21.325 83.7608 20.048 78.5595 18.8185 73.3583C18.582 72.3889 18.5585 71.396 18.3457 69.812H32.1545C32.6038 73.7838 33.053 77.5666 33.4313 81.3493C33.7151 84.2573 34.5663 86.8816 36.2688 89.2931C38.3023 92.1774 40.1703 95.1563 42.0856 98.1115ZM5.17519 45.6734C5.24613 41.5833 7.84706 38.4862 11.9141 38.368C20.1663 38.1315 28.4186 38.297 36.6472 38.297C38.4679 38.297 39.5082 39.1009 39.5319 40.9922C39.5319 48.6996 39.5319 56.3832 39.5319 64.3033C38.3023 64.4216 37.4983 64.5871 36.6944 64.5871C28.6077 64.6107 20.5446 64.658 12.4579 64.5871C7.1613 64.5634 5.24613 62.5775 5.17519 57.2816C5.1279 53.4043 5.10425 49.5507 5.17519 45.6734Z" fill="url(#paint0_linear_2343_489)"/>
<defs>
<linearGradient id="paint0_linear_2343_489" x1="0.0440839" y1="54.9174" x2="113.305" y2="54.9174" gradientUnits="userSpaceOnUse">
<stop stop-color="#AE8ABE"/>
<stop offset="1" stop-color="#8390C8"/>
</linearGradient>
</defs>
</svg>
