<svg width="87" height="77" viewBox="0 0 87 77" fill="none" xmlns="http://www.w3.org/2000/svg">
<path d="M23.6011 61.2018C12.9526 54.0217 8.05791 44.5388 8.02549 33.411C7.99308 23.8995 12.3854 15.5179 20.4406 9.19591C37.1345 -3.91999 61.6891 -2.63271 76.1788 12.9147C89.5015 27.2178 87.7997 50.1885 66.519 63.2472C68.1722 62.6894 69.8416 62.1745 71.4624 61.5451C73.4073 60.7871 75.2712 60.5582 77.3782 61.2018C80.247 62.06 83.2291 62.6464 86.3572 63.3902C86.6976 66.9231 86.5032 70.2843 86.5032 73.8314C82.7754 75.0758 79.1124 76.1056 75.3036 76.4632C73.926 76.5919 72.2728 76.263 71.0572 75.6622C67.1511 73.717 62.8237 73.3022 58.5773 73.0877C52.2401 72.7587 45.8542 73.0019 39.3549 73.0019C38.269 75.7194 35.9513 76.0627 33.0826 76.0198C25.1246 75.8911 17.1666 76.0198 9.19245 75.934C7.65272 75.9197 5.99952 75.6622 4.62187 75.1044C0.796851 73.5597 -0.694262 70.3987 0.310614 66.5226C1.00755 63.805 4.36254 61.4164 7.8634 61.3449C12.3043 61.2591 16.729 61.3306 21.1699 61.3163C21.802 61.3163 22.4341 61.2591 23.5687 61.2018H23.6011ZM58.3828 5.377C58.3504 5.30548 58.3342 5.20536 58.2856 5.14814C58.2531 5.10523 58.1559 5.11954 58.0748 5.10524L58.399 5.3627C60.9598 8.98138 63.7151 12.5142 64.8983 16.6049H75.1415C71.6893 11.8706 67.0215 8.6524 61.5757 6.24949C60.587 5.82039 59.4525 5.66307 58.3828 5.39131V5.377ZM83.4561 65.9361C81.7381 65.4641 79.9228 65.0351 78.14 64.4772C75.6602 63.7049 73.3911 63.7621 70.9275 64.8491C68.1074 66.0935 65.0442 66.8945 61.7864 66.966C55.433 67.0947 49.0958 67.3092 42.7424 67.4809C41.5268 67.5095 40.295 67.4809 38.9822 67.4809V70.3558C44.6873 70.3558 50.1331 70.413 55.5951 70.3415C61.5757 70.2557 67.3294 71.0996 72.7752 73.3881C73.6342 73.7456 74.8012 73.9745 75.6926 73.8028C78.3182 73.2736 80.8629 72.487 83.4561 71.8004V65.9219V65.9361ZM44.4604 19.6658C40.5219 19.1509 32.645 19.251 29.8249 19.8946C29.1279 24.0425 28.3986 28.3334 27.6854 32.6243C32.1263 33.2251 42.2399 33.0963 44.4604 32.4956V19.6658ZM64.8983 32.8818C64.331 28.2333 64.2986 23.7421 62.1754 19.3511C59.8577 19.3511 57.6048 19.3511 55.352 19.3511C53.0019 19.3654 50.6679 19.4083 48.1233 19.4369C48.1233 21.9542 48.0747 24.1426 48.1233 26.3453C48.1719 28.5051 47.8802 30.6791 48.334 32.8818H64.8983ZM62.7264 48.515C64.3148 44.3528 64.4282 40.0905 64.8496 35.771H48.3178V48.515H62.7264ZM44.4442 35.9283C40.0195 35.3562 30.1328 35.4849 27.7989 36.1572C28.6093 40.2336 28.5606 44.4673 30.3759 48.515H44.4442V35.9283ZM11.4129 32.8246H24.379C25.0598 28.2905 25.7243 23.8995 26.3888 19.4798H15.3513C13.0985 23.6992 11.4129 27.9615 11.3967 32.8246H11.4129ZM66.1949 19.4655C66.9728 24.0711 67.7022 28.3763 68.464 32.8389H81.3815C81.0574 27.9615 79.6797 23.5419 77.1351 19.4655H66.1949ZM26.5347 48.5579C25.7729 44.1383 25.076 40.0333 24.3628 35.914C20.6675 35.4134 13.8279 35.5136 11.4777 36.1143C11.9964 40.4624 12.8878 44.7247 15.5134 48.5579H26.5347ZM66.3408 48.5293H77.1351C79.6797 44.5674 81.0411 40.3623 81.1708 35.628C78.9017 35.628 76.7461 35.628 74.6067 35.628C72.4835 35.628 70.3765 35.6423 68.4964 35.6566C67.7346 40.162 67.0539 44.2813 66.3246 48.5293H66.3408ZM44.6063 16.6335C44.6063 12.1852 44.6711 7.96585 44.5576 3.78936C39.4198 3.28875 33.115 10.1542 31.5429 16.6335H44.6063ZM48.4961 3.73215C47.8316 7.36513 47.9612 14.5453 48.7392 16.7336C50.8138 16.7336 52.9694 16.7479 55.1088 16.7336C57.1834 16.7193 59.2742 16.8337 61.4298 16.6621C58.9014 9.55349 54.0553 4.70476 48.4961 3.73215ZM48.4799 51.8763C47.8478 55.638 47.9774 62.2317 48.6744 64.2484C53.9905 64.0768 60.1818 57.9551 61.1543 51.8763H48.4799ZM31.1863 51.8763C32.4019 54.0217 33.3095 55.8525 34.444 57.5689C36.0486 60.0004 38.0259 62.1744 40.8785 63.5762C41.932 64.0911 42.9855 64.7919 44.6063 63.948C44.6063 62.1172 44.6063 60.1291 44.6063 58.1553C44.59 56.0957 44.5414 54.036 44.509 51.8763H31.2025H31.1863ZM3.60077 67.3808C14.4599 67.438 24.9139 67.4237 35.4813 67.3951V64.4629C26.0647 64.4629 16.8749 64.4629 7.70132 64.4629C5.7726 64.4629 4.62186 65.4212 3.60077 67.3665V67.3808ZM3.66562 70.5846C5.28639 72.6872 7.02063 73.3881 9.20867 73.3738C17.7339 73.3452 26.2592 73.3451 34.7844 73.3165C34.9789 73.3165 35.1896 73.1592 35.6434 72.9733L35.4975 70.5846H3.64939H3.66562ZM33.9578 5.26257C26.5995 7.76561 20.1651 12.3426 18.0743 16.5763H27.2478C29.5655 12.6859 31.7535 8.98137 33.9578 5.26257ZM57.7345 63.2758C65.1738 61.1875 70.3279 57.2971 74.8822 51.9335H64.9145C63.472 56.067 61.1867 59.6857 57.7345 63.2758ZM33.0664 61.2304C31.2673 58.1696 29.4683 55.0944 27.6368 51.9907H18.2363C20.084 54.8942 24.136 58.3126 27.7503 60.2292C29.4683 61.1446 31.2187 61.6881 33.0664 61.2304Z" fill="url(#paint0_linear_2406_11)"/>
<defs>
<linearGradient id="paint0_linear_2406_11" x1="0.0350844" y1="38.3456" x2="86.568" y2="38.3456" gradientUnits="userSpaceOnUse">
<stop stop-color="#AE8ABE"/>
<stop offset="1" stop-color="#8390C8"/>
</linearGradient>
</defs>
</svg>
