<svg width="114" height="105" viewBox="0 0 114 105" fill="none" xmlns="http://www.w3.org/2000/svg">
<path d="M87.9178 88.6659C88.107 90.9356 88.7691 91.6921 91.0627 91.7394C95.1061 91.8576 99.1729 91.8576 103.216 91.7394C105.936 91.6448 107.023 90.4154 107.212 87.602C107.283 86.5854 107.212 85.5688 107.212 84.5758C107.212 58.5932 107.212 32.6342 107.212 6.6515C107.212 5.63489 107.213 4.61826 107.189 3.6253C107.094 1.85214 106.219 0.764604 104.351 0.764604C99.7878 0.740962 95.2478 0.71732 90.6843 0.764604C88.8872 0.788246 87.9414 1.87579 87.8705 3.67259C87.8232 4.6892 87.8468 5.70581 87.8468 6.69878C87.8468 19.8438 87.8468 33.0124 87.8468 46.1574C87.8468 59.1369 87.8468 72.1401 87.8468 85.1196C87.8468 86.3017 87.7759 87.4838 87.8705 88.6659H87.9178ZM92.9306 5.98951H101.467C102.341 10.0087 102.46 81.2187 101.608 86.4672H93.7346C93.7346 86.4672 93.4981 86.2781 93.3799 86.1599C93.2853 86.0416 93.1435 85.8998 93.1435 85.7579C93.0726 60.8392 93.0016 35.9204 92.9543 11.0016C92.9543 9.51218 92.9543 8.02273 92.9543 6.01315L92.9306 5.98951Z" fill="url(#paint0_linear_2343_501)"/>
<path d="M33.4862 90.817C35.2833 91.148 37.0566 91.7863 38.7828 91.7154C43.2281 91.5026 47.839 92.7793 52.4262 90.4623C52.4971 89.1384 52.5917 88.3109 52.5917 87.4835C52.5917 67.7423 52.5917 48.0248 52.5917 28.2836C52.5917 27.4325 52.5917 26.6051 52.5444 25.7539C52.4735 24.1699 51.6222 23.1297 50.0617 23.106C45.3326 23.0115 40.6035 23.0351 35.8981 23.0824C34.3138 23.0824 33.439 24.0517 33.2972 25.6121C33.2262 26.4396 33.2972 27.2907 33.2972 28.1418C33.2972 48.0484 33.2735 67.9551 33.2735 87.8381C33.2735 88.6656 33.4153 89.4694 33.5335 90.817H33.4862ZM38.7828 28.3073C40.1778 28.2364 41.6202 28.0945 43.0862 28.0945C44.3867 28.0945 45.6872 28.2127 47.2478 28.2836V86.5141H39.043C38.1208 82.8732 37.8842 34.6434 38.7828 28.3073Z" fill="url(#paint1_linear_2343_501)"/>
<path d="M63.704 91.7393C68.0784 91.8575 72.4764 91.8575 76.8508 91.7393C79.0262 91.6684 79.6882 90.8409 79.8773 88.5476C79.9246 87.8856 79.8773 87.2 79.8773 86.5381C79.8773 71.3835 79.8773 56.2289 79.8773 41.0743C79.8773 40.2232 79.9246 39.3957 79.8537 38.5446C79.6409 36.1331 79.0971 35.4475 76.8271 35.4002C72.6183 35.282 68.4093 35.282 64.2004 35.4002C63.1128 35.4238 62.0487 36.1331 60.7955 36.6059C60.6773 37.6698 60.6064 38.1663 60.5828 38.6628C60.5828 54.834 60.5828 70.9815 60.5828 87.1527C60.5828 87.6492 60.5591 88.1693 60.5828 88.6658C60.8192 90.9591 61.3867 91.6684 63.704 91.7393ZM66.0449 40.5778H74.5571C74.6517 41.7363 74.8173 42.6819 74.8173 43.6513C74.8173 56.418 74.8173 69.2084 74.8173 81.9751C74.8173 82.8262 74.8173 83.6537 74.7463 84.5048C74.6281 85.8761 73.7769 86.6562 72.4528 86.7035C70.4429 86.7745 68.433 86.7035 66.4941 86.7035C65.3828 83.2281 65.0281 48.3797 66.0212 40.5778H66.0449Z" fill="url(#paint2_linear_2343_501)"/>
<path d="M2.32137 104.034C3.40906 104.341 4.66224 104.176 5.84451 104.176C39.7756 104.176 73.6832 104.176 107.614 104.176C109.27 104.176 110.925 104.176 113.076 104.176C112.296 99.8255 111.894 99.3527 109.222 99.1162C108.205 99.0217 107.189 99.1162 106.196 99.1162C82.7393 99.1162 59.2831 99.1162 35.8268 99.1162C25.8721 99.1162 15.9174 99.0926 5.96271 99.1635C4.4967 99.1635 2.93618 99.3763 1.61204 99.9437C0.902679 100.251 0.146009 101.599 0.264236 102.332C0.382463 103.017 1.51748 103.821 2.36871 104.081L2.32137 104.034Z" fill="url(#paint3_linear_2343_501)"/>
<path d="M11.0461 91.7406C14.2382 91.8825 17.4303 91.8115 20.6224 91.7643C24.784 91.717 25.186 91.3624 25.186 87.0831C25.2333 75.1439 25.186 63.2046 25.186 51.289C25.186 50.627 25.186 49.9414 25.186 49.2794C25.115 47.5063 24.1929 46.3951 22.3958 46.3714C17.8559 46.3005 13.316 46.3478 8.77607 46.3714C6.93173 46.3714 5.98601 47.3881 5.91507 49.1849C5.84414 51.0289 5.8914 52.873 5.8914 54.7407C5.8914 66.4909 5.8914 78.2647 5.8914 90.795C7.87762 91.1969 9.43819 91.717 11.0461 91.7879V91.7406ZM11.3535 51.5491H19.5112C20.3624 55.9229 20.4096 81.6455 19.5584 86.4685H11.7082C10.6915 83.1113 10.4076 59.7529 11.3298 51.5491H11.3535Z" fill="url(#paint4_linear_2343_501)"/>
<defs>
<linearGradient id="paint0_linear_2343_501" x1="87.8705" y1="46.2756" x2="107.236" y2="46.2756" gradientUnits="userSpaceOnUse">
<stop stop-color="#AE8ABE"/>
<stop offset="1" stop-color="#8390C8"/>
</linearGradient>
<linearGradient id="paint1_linear_2343_501" x1="33.2026" y1="57.458" x2="52.5681" y2="57.458" gradientUnits="userSpaceOnUse">
<stop stop-color="#AE8ABE"/>
<stop offset="1" stop-color="#8390C8"/>
</linearGradient>
<linearGradient id="paint2_linear_2343_501" x1="60.5355" y1="63.5579" x2="79.901" y2="63.5579" gradientUnits="userSpaceOnUse">
<stop stop-color="#AE8ABE"/>
<stop offset="1" stop-color="#8390C8"/>
</linearGradient>
<linearGradient id="paint3_linear_2343_501" x1="0.1933" y1="101.646" x2="113.076" y2="101.646" gradientUnits="userSpaceOnUse">
<stop stop-color="#AE8ABE"/>
<stop offset="1" stop-color="#8390C8"/>
</linearGradient>
<linearGradient id="paint4_linear_2343_501" x1="5.89142" y1="69.0679" x2="25.2096" y2="69.0679" gradientUnits="userSpaceOnUse">
<stop stop-color="#AE8ABE"/>
<stop offset="1" stop-color="#8390C8"/>
</linearGradient>
</defs>
</svg>
