<svg width="114" height="101" viewBox="0 0 114 101" fill="none" xmlns="http://www.w3.org/2000/svg">
<path d="M107.94 0.275633C97.4891 0.275633 87.0142 0.275633 76.563 0.275633C53.1067 0.275633 29.6505 0.27562 6.19427 0.299262C4.42087 0.299262 2.45833 -0.291782 0.755859 1.2686V100.471C2.78936 100.471 4.27901 100.471 5.76867 100.471C39.8417 100.471 73.9383 100.471 108.011 100.471C108.863 100.471 109.69 100.494 110.541 100.424C112.102 100.305 113.071 99.4306 113.19 97.8938C113.473 94.3948 113.875 90.8722 113.875 87.3495C113.923 61.3905 113.946 35.4314 113.875 9.44874C113.875 6.49348 113.237 3.56186 112.859 0.251967C110.92 0.251967 109.43 0.251967 107.94 0.251967V0.275633ZM5.6268 14.0117C5.50858 11.3401 5.60313 8.66858 5.60313 6.11523C9.57556 5.14591 103.4 4.9804 108.626 5.8788V22.2864C106.427 22.4046 104.488 22.6174 102.526 22.6174C74.5295 22.6174 46.5097 22.6174 18.5136 22.6174C14.4702 22.6174 10.4504 22.6174 6.2652 22.6174C5.08293 19.6621 5.7687 16.8015 5.65047 14.0117H5.6268ZM69.824 95.3405H44.1215C40.4092 89.2408 41.7097 81.6044 47.2427 76.7342C52.6338 72.0058 60.3186 71.9348 65.8043 76.0249C71.4319 80.2096 74.7659 88.437 69.824 95.3405ZM98.7187 88.5316C98.3876 90.3284 98.0094 92.1252 97.6547 93.9929C90.8448 95.7188 84.0349 95.6479 76.7285 95.2932C76.7285 93.9693 76.5629 92.8344 76.7521 91.7706C78.289 82.7866 74.1984 74.6537 66.2772 70.469C57.1974 65.6933 47.5501 69.216 42.5609 74.2045C36.7205 80.0204 36.4604 86.8766 37.7609 95.0332C30.4308 95.9789 23.5027 95.4824 16.1726 94.1111V82.9993C17.5441 81.2262 19.8377 81.3444 21.9894 81.4153C25.0633 81.5099 26.5766 80.2332 28.1372 77.4671C30.5254 73.2824 29.5559 70.3272 26.6239 67.2773C25.6072 66.2134 24.7323 65.0313 23.7155 63.8256C26.1273 60.0901 28.9648 57.3713 32.417 55.1253C34.5687 56.8275 36.5786 58.317 38.4702 59.9483C39.9362 61.2249 41.4023 61.485 43.1048 60.6103C43.554 60.3739 44.0033 60.0901 44.4762 59.9956C49.0634 59.0499 50.6949 56.3074 50.4112 51.6499C50.1511 47.2998 50.7186 47.0161 54.9274 46.9688C57.5757 46.9451 60.2003 47.1343 63.2269 47.2525C63.3688 49.593 63.558 51.3898 63.6053 53.1866C63.6762 56.331 64.5038 58.8135 68.0979 59.4754C69.0674 59.6646 69.9422 60.2793 70.8644 60.6812C72.3777 61.3905 73.7728 61.2722 75.097 60.1847C77.1778 58.5061 79.2821 56.8748 81.623 55.0544C84.8861 57.4186 87.7236 60.1374 90.0881 63.6837C88.0073 66.4498 86.0211 69.1214 83.7748 72.124C84.626 74.2045 85.6191 76.4978 86.5177 78.8147C87.2034 80.6588 88.4803 81.4153 90.3955 81.3444C91.2231 81.2971 92.0744 81.368 92.9256 81.4153C97.5601 81.6517 98.364 82.4319 98.7423 87.0421C98.7896 87.5386 98.8133 88.0587 98.7423 88.5552L98.7187 88.5316ZM108.461 95.0332C106.853 95.175 105.292 95.3405 103.471 95.506C102.171 89.4773 104.37 83.4012 101.627 77.5853C98.7187 77.1597 95.763 76.7342 92.8073 76.2613C89.9699 75.8121 88.9058 73.4479 90.5847 71.131C91.8615 69.3578 93.2566 67.6792 94.7226 66.0479C96.0704 64.5585 96.3069 63.069 94.9118 61.5796C91.7433 58.1278 88.7167 54.4633 85.2172 51.3662C82.3088 48.7892 80.3226 49.2384 77.2487 51.9336C75.8536 53.163 74.5058 54.416 73.158 55.6218C68.76 54.2742 68.7836 54.2742 68.5471 50.3969C68.4053 48.0799 68.8782 45.6212 67.0811 43.2806C61.4772 41.4602 55.5659 41.271 49.5363 42.5477C47.4555 42.9969 46.1787 43.8007 46.0604 46.1177C45.9895 47.7726 45.2801 49.4275 45.3274 51.0825C45.3984 53.825 44.0032 55.0307 41.3549 55.5745C39.6525 54.1796 37.8318 52.6902 36.0111 51.2244C33.623 49.3094 32.2988 49.1675 29.6505 50.8461C24.5431 54.0614 20.7835 58.4588 17.8515 64.062C19.483 66.1662 21.0909 68.2703 22.6988 70.3744C25.087 73.4952 24.283 75.6939 20.5234 76.285C19.3647 76.4741 18.2298 76.7815 17.0948 76.9942C11.7746 77.9636 11.1834 78.5073 10.8524 83.9923C10.6632 87.515 10.8051 91.0613 10.8051 95.0095C9.24455 95.1514 7.84948 95.2932 6.45441 95.4351C6.09973 94.7258 5.69774 94.3003 5.69774 93.8747C5.6268 88.1533 5.60313 82.4083 5.60313 76.6869C5.60313 61.8633 5.60313 47.0161 5.60313 32.1925C5.60313 30.8685 5.74505 29.5445 5.79234 28.2915C9.71747 27.4404 103.259 27.3222 108.201 28.1733C108.413 29.0008 108.839 29.9465 108.839 30.8921C108.886 51.4608 108.863 72.0294 108.839 92.5744C108.839 93.2127 108.626 93.8511 108.437 94.9859L108.461 95.0332Z" fill="url(#paint0_linear_2399_6)"/>
<path d="M97.1807 19.4264C99.9472 19.5446 102.123 17.275 102.099 14.2961C102.075 11.3172 100.373 9.56767 97.4881 9.52039C94.6506 9.4731 92.7354 11.3881 92.759 14.1778C92.7827 16.9203 94.8161 19.3082 97.1807 19.4264Z" fill="url(#paint1_linear_2399_6)"/>
<path d="M82.2846 19.4271C84.1526 19.3798 86.6826 16.7319 86.8008 14.7224C86.9663 11.9089 84.7437 9.45016 82.0481 9.4738C79.2107 9.49744 77.5318 11.247 77.4373 14.2495C77.3663 17.1811 79.5181 19.5217 82.2609 19.4271H82.2846Z" fill="url(#paint2_linear_2399_6)"/>
<defs>
<linearGradient id="paint0_linear_2399_6" x1="0.755859" y1="50.3259" x2="113.946" y2="50.3259" gradientUnits="userSpaceOnUse">
<stop stop-color="#AE8ABE"/>
<stop offset="1" stop-color="#8390C8"/>
</linearGradient>
<linearGradient id="paint1_linear_2399_6" x1="92.759" y1="14.4616" x2="102.075" y2="14.4616" gradientUnits="userSpaceOnUse">
<stop stop-color="#AE8ABE"/>
<stop offset="1" stop-color="#8390C8"/>
</linearGradient>
<linearGradient id="paint2_linear_2399_6" x1="77.4609" y1="14.4386" x2="86.8244" y2="14.4386" gradientUnits="userSpaceOnUse">
<stop stop-color="#AE8ABE"/>
<stop offset="1" stop-color="#8390C8"/>
</linearGradient>
</defs>
</svg>
