<svg width="91" height="80" viewBox="0 0 91 80" fill="none" xmlns="http://www.w3.org/2000/svg">
<path d="M45.3444 65.4542C29.8174 65.726 16.5757 53.5398 16.6892 39.8661C16.7864 27.308 28.4722 14.6212 45.4741 14.7213C61.9087 14.8214 74.2751 26.3068 74.2751 40.1808C74.2751 55.0559 59.9313 65.9262 45.3444 65.4399V65.4542ZM40.8224 61.7069L41.0818 61.8785L40.79 61.7355C39.4772 59.919 38.1482 58.0882 36.9974 56.5006H28.3263C32.3944 59.3183 36.0736 61.478 40.8224 61.7069ZM50.3526 61.7069C55.1014 61.4351 58.7806 59.2896 62.5083 56.5148H53.7562C52.5892 58.3027 51.4871 60.0191 50.3688 61.7355L50.1905 61.9643L50.3526 61.7069ZM55.5228 38.5359C55.0204 34.5168 54.1776 30.755 51.8275 27.5082H39.0558C37.1109 31.0697 35.5225 34.574 35.5063 38.5359H55.5228ZM39.2341 53.1822C41.5194 53.1822 43.5615 53.1822 45.6037 53.1822C47.7107 53.1679 49.8339 53.125 51.6978 53.0821C54.2748 48.8198 55.2149 45.759 55.2149 42.0545C50.0932 41.654 38.1644 41.7827 35.4091 42.3119C35.9277 46.0593 36.9488 49.6494 39.2341 53.1822ZM70.5798 38.5931C70.3853 37.4775 70.2394 36.5907 70.0611 35.7182C69.5749 33.3296 68.6511 31.0983 67.241 29.0101C66.6575 28.1376 66.0092 27.3366 64.6477 27.3509C61.8438 27.3795 59.0237 27.3509 56.2522 27.3509C57.4353 31.2557 58.5374 34.8886 59.672 38.5931H70.5798ZM34.5663 27.4511C31.1627 27.3509 27.9536 27.1364 24.8579 27.5369C22.0053 30.8838 20.9032 34.5167 20.3846 38.5216H31.3085C32.3944 34.8171 33.4155 31.2843 34.5501 27.4367L34.5663 27.4511ZM65.9119 52.9963C68.6024 49.7066 70.1908 46.1165 70.3367 42.0545H59.5747C58.4402 45.7876 57.3543 49.3204 56.2197 52.9963H65.9119ZM20.4008 41.9829C21.0653 46.2309 22.216 49.9211 25.1496 52.9963H34.6635C33.529 49.2489 32.4269 45.6159 31.3247 41.9829H20.4008ZM61.7142 23.4462C58.424 20.4711 53.7076 18.5974 50.077 18.7548C51.4385 20.371 52.4271 22.6166 54.21 23.3747C56.1549 24.2042 58.8292 23.6464 61.1955 23.675C61.2927 23.675 61.39 23.5892 61.6979 23.4462H61.7142ZM37.1271 23.6607L41.0818 18.197C36.1222 19.2983 32.2324 20.7572 28.7963 23.6607H37.1271ZM41.0818 56.4577C42.9132 58.3457 43.594 60.1764 45.9279 61.2348C47.1597 59.6758 48.3266 58.2026 49.7043 56.4577H41.0656H41.0818ZM49.3153 23.6178C48.3428 21.7441 47.0462 20.2852 45.2147 18.8406C43.9181 20.4568 42.7836 21.8871 41.4221 23.6178H49.3315H49.3153Z" fill="url(#paint0_linear_2406_5)"/>
<path d="M69.348 74.3934C69.121 72.2623 69.5587 70.2313 72.5409 69.3302C74.3561 68.7867 76.6252 69.2587 77.6301 70.6604C79.2509 72.9346 79.4616 75.3661 78.1325 77.7976C77.1763 79.5426 74.9558 80.3149 72.6219 79.8715C70.8067 79.5283 69.4938 78.0265 69.348 76.1385C69.3155 75.6379 69.348 75.1372 69.348 74.3934ZM73.6592 77.0396C75.3934 75.0944 75.3772 74.0216 73.7078 72.0192C72.6381 73.664 72.5409 75.123 73.6592 77.0396Z" fill="url(#paint1_linear_2406_5)"/>
<path d="M50.5948 6.19644C50.2544 7.06893 49.9951 8.25608 49.363 9.27159C48.3257 10.9021 46.4456 11.5172 44.4359 11.131C42.5234 10.7734 40.9999 9.41465 40.7568 7.64107C40.6109 6.55404 40.6433 5.45267 40.7081 4.35134C40.8702 1.99133 42.3613 0.503852 44.7438 0.232094C47.0129 -0.0253611 49.1848 1.16179 49.9789 3.22143C50.3031 4.05101 50.3517 4.96637 50.5948 6.18213V6.19644ZM44.598 7.79838C46.0405 8.15596 46.7536 7.62677 46.7374 6.52543C46.7374 5.38119 47.3857 3.86505 45.0194 3.33583C43.9173 4.83765 44.1117 6.31086 44.598 7.79838Z" fill="url(#paint2_linear_2406_5)"/>
<path d="M90.9682 21.7867C90.6278 22.9167 90.4495 24.1181 89.8823 25.1765C89.0719 26.6927 87.3376 27.322 85.652 27.1361C84.0313 26.9645 82.1998 26.3637 81.7298 24.676C81.3084 23.1599 81.0167 21.5293 81.1463 19.9846C81.357 17.6246 83.7396 15.9082 86.2193 15.9797C88.4236 16.0512 90.4009 17.9106 90.6764 20.2134C90.7413 20.6997 90.6764 21.2146 90.6764 21.7152L90.952 21.7725L90.9682 21.7867ZM86.8838 23.5889C87.127 22.0728 87.5646 20.6568 86.4949 19.298C84.323 20.2134 84.2258 20.4995 85.1496 23.5889H86.8676H86.8838Z" fill="url(#paint3_linear_2406_5)"/>
<path d="M69.3641 5.58165C69.3641 4.98092 69.2831 4.36587 69.3641 3.77945C69.6559 1.73411 71.4225 0.346715 73.6916 0.203684C75.4258 0.0892596 78.2459 1.51958 78.5215 3.30747C78.7484 4.79499 79.0725 6.19667 78.5539 7.71279C77.7759 10.0156 75.8796 11.403 73.4485 11.1742C71.0821 10.9453 69.5262 9.41485 69.3479 7.08345C69.3155 6.58285 69.3479 6.08226 69.3479 5.58165H69.3641ZM74.4372 7.82724C75.4258 4.62335 75.2151 3.82238 73.2864 3.66504C72.5246 6.96905 72.6219 7.35524 74.4372 7.82724Z" fill="url(#paint4_linear_2406_5)"/>
<path d="M90.7091 58.9602C90.8063 60.2475 90.6767 61.5777 89.4287 62.7219C87.0138 64.9389 83.3508 64.5956 81.7787 61.8494C80.709 59.9757 80.6765 57.9733 81.5517 56.0281C82.4756 53.9541 84.3233 52.9672 86.5924 53.2247C89.0397 53.4965 90.4984 54.9411 90.7091 57.3297C90.7577 57.8303 90.7091 58.3309 90.7091 58.9746V58.9602ZM86.9327 60.5908C86.9651 59.6325 87.0786 58.5025 86.9813 57.3869C86.9489 57.0579 86.2682 56.5573 85.8954 56.5573C85.5065 56.5573 84.8581 57.0579 84.7933 57.4012C84.6312 58.2593 84.615 59.1605 84.7771 60.0186C84.923 60.8196 85.6037 61.12 86.9327 60.5908Z" fill="url(#paint5_linear_2406_5)"/>
<path d="M40.4336 74.3499C40.7902 73.2343 40.8874 71.9756 41.5357 71.0173C42.5082 69.587 44.1938 68.7574 46.1225 69.0435C47.9864 69.3152 49.4127 70.3308 50.0123 72.0185C50.6931 73.8922 50.6445 75.7516 49.7206 77.5395C48.7319 79.4561 47.0626 80.1856 44.4531 79.8995C42.6054 79.6993 41.1143 78.3691 40.7578 76.4954C40.6281 75.8231 40.7415 75.1079 40.7415 74.4071L40.4336 74.3499ZM44.5341 76.5382C45.7173 76.8386 46.5763 76.6097 46.6898 75.6371C46.8032 74.6788 46.6249 73.6777 46.4142 72.7193C46.3656 72.4619 45.7659 72.2902 45.3607 72.0471C43.6265 73.4631 44.291 75.0078 44.5179 76.5382H44.5341Z" fill="url(#paint6_linear_2406_5)"/>
<path d="M21.8916 74.708C22.1185 77.9118 19.9791 80.2861 16.2189 79.8713C15.3761 79.7712 14.4523 79.4566 13.7716 78.9846C10.8866 76.9964 11.5025 71.1464 14.6954 69.5588C17.2886 68.2715 20.4329 69.4158 21.4378 72.0762C21.7458 72.9057 21.7458 73.8212 21.8916 74.708ZM16.9159 72.0333C14.9385 73.3778 15.7165 74.9654 15.9434 76.6675C16.7214 76.6246 17.321 76.5816 18.0828 76.5244C17.9531 74.8795 18.8932 73.2777 16.9159 72.0333Z" fill="url(#paint7_linear_2406_5)"/>
<path d="M21.9891 5.66712C21.746 6.72555 21.6812 7.8698 21.2112 8.8424C19.9794 11.417 16.2192 11.9319 13.8366 10.1011C11.4865 8.2989 11.5838 3.39294 13.3342 1.77669C14.5822 0.632446 16.0409 -0.111328 17.8886 0.374976C19.8497 0.889886 21.3246 1.93401 21.7136 3.82202C21.8271 4.40844 21.7298 5.02349 21.7298 5.62422L21.9891 5.65281V5.66712ZM18.1803 5.83875C18.0506 4.95196 18.5207 3.56456 16.9323 3.55026C15.3764 3.55026 15.6843 4.89475 15.6681 5.83875C15.6681 6.69694 15.4898 7.84119 16.8999 7.85549C18.3586 7.86979 18.0669 6.69694 18.1641 5.83875H18.1803Z" fill="url(#paint8_linear_2406_5)"/>
<path d="M9.52462 21.6153C9.52462 22.1159 9.55704 22.6165 9.52462 23.1171C9.37875 25.377 7.41766 27.1077 5.00271 27.1363C2.57156 27.1649 0.545604 25.4485 0.399735 23.2029C0.334904 22.3018 0.367319 21.4151 0.399735 20.514C0.480773 17.8965 2.53912 15.9084 5.08373 16.0085C7.61213 16.1086 9.42739 17.8965 9.54085 20.4281C9.55705 20.8286 9.54085 21.2291 9.54085 21.6296L9.52462 21.6153ZM4.09509 23.9324C4.95409 23.5462 5.74827 23.3889 5.76448 23.16C5.91035 21.8155 6.62347 20.2994 4.84063 19.1266C3.39814 20.4997 4.01405 21.9442 4.09509 23.9324Z" fill="url(#paint9_linear_2406_5)"/>
<path d="M9.47624 58.474C9.47624 59.2749 9.58973 60.0903 9.46006 60.8626C9.1035 62.8364 7.14235 64.2381 4.93811 64.2238C2.71765 64.2238 0.740298 62.8078 0.464767 60.8197C0.270275 59.4466 0.3189 58.0306 0.416146 56.6432C0.562015 54.7266 2.50696 53.282 4.79224 53.2104C7.19098 53.1389 9.26556 54.655 9.49246 56.6861C9.55729 57.2725 9.49246 57.8875 9.49246 58.474H9.46006H9.47624ZM4.16012 60.9341C6.68852 60.9055 5.84573 59.3321 5.94297 58.3881C6.04022 57.5156 6.2185 56.2856 4.16012 56.5717V60.9341Z" fill="url(#paint10_linear_2406_5)"/>
<path d="M16.8671 16.0085C18.4554 16.5091 18.9255 17.4387 18.9255 18.6545C18.9255 20.6569 18.9417 22.6594 18.9092 24.6618C18.9092 25.1481 18.7958 25.6773 18.5365 26.0921C17.9044 27.1505 16.1539 27.1791 15.5056 26.135C15.1815 25.6201 14.9384 25.0194 14.9059 24.4329C14.8411 22.5306 14.7925 20.6283 14.9059 18.726C14.987 17.639 15.3111 16.5377 16.8347 15.9941L16.8671 16.0085Z" fill="url(#paint11_linear_2406_5)"/>
<path d="M19.0711 58.5598C18.909 60.1475 18.8604 61.5492 18.5524 62.908C18.4552 63.38 17.6448 64.0951 17.2558 64.0665C16.6075 63.995 15.7971 63.5087 15.473 63.0081C15.0516 62.3502 14.9219 61.4776 14.8733 60.7053C14.7922 59.2035 14.7922 57.6874 14.8733 56.1855C14.9057 55.499 15.0353 54.7552 15.4081 54.1831C15.6836 53.754 16.4454 53.3106 16.964 53.3392C17.4827 53.3678 18.3093 53.8971 18.4065 54.3118C18.7631 55.7565 18.8604 57.2582 19.0387 58.5741L19.0711 58.5598Z" fill="url(#paint12_linear_2406_5)"/>
<path d="M59.8012 68.958C61.5355 72.4337 60.4009 75.9522 60.6602 79.3134C57.9536 80.0143 57.289 79.7711 57.1918 77.9546C57.0621 75.6661 57.1756 73.3776 57.1432 71.0748C57.1432 69.8591 57.8887 69.287 59.8012 68.958Z" fill="url(#paint13_linear_2406_5)"/>
<path d="M75.7005 21.5867C75.7005 22.8883 75.7005 24.1898 75.7005 25.4914C75.7005 26.464 74.9549 27.0934 74.0311 27.0361C73.4314 26.9932 72.8317 26.2924 72.3292 25.8061C72.1348 25.6201 72.1348 25.234 72.1348 24.9479C72.1348 22.6451 72.1348 20.3423 72.1348 18.0538C72.1348 16.9954 72.7345 16.2373 73.9176 16.2373C75.0684 16.2373 75.7491 16.9096 75.7329 18.0109C75.7329 19.2124 75.7329 20.4138 75.7329 21.6153L75.7005 21.5867Z" fill="url(#paint14_linear_2406_5)"/>
<path d="M75.6687 58.7889C75.6687 60.0905 75.7498 61.392 75.6363 62.6793C75.5715 63.5661 74.8584 64.2669 73.8535 64.0953C73.2376 63.9809 72.3138 63.2801 72.2813 62.8081C72.1517 60.019 72.1517 57.2299 72.33 54.4408C72.3624 54.026 73.4483 53.3394 74.0318 53.3537C74.5991 53.3823 75.4905 54.0975 75.5715 54.5981C75.7822 55.9712 75.6526 57.3872 75.6526 58.7746H75.685L75.6687 58.7889Z" fill="url(#paint15_linear_2406_5)"/>
<path d="M6.73678 40.2088C6.73678 41.4103 6.81785 42.6117 6.72061 43.7989C6.63957 44.7715 6.07226 45.5582 4.80806 45.4866C3.73835 45.4294 3.21971 44.7143 3.18729 43.8418C3.13867 41.3531 3.12246 38.85 3.18729 36.3613C3.21971 35.3744 3.83562 34.602 5.08361 34.6735C6.13711 34.7308 6.65576 35.4459 6.70438 36.3184C6.76921 37.62 6.72061 38.9072 6.72061 40.2088H6.73678Z" fill="url(#paint16_linear_2406_5)"/>
<path d="M60.676 5.66703C60.676 6.9686 60.7247 8.25587 60.6598 9.54314C60.6112 10.4299 60.0602 11.0879 58.9905 11.1165C57.9207 11.1451 57.2562 10.5157 57.2238 9.62896C57.1428 7.0401 57.1428 4.45126 57.1914 1.86241C57.2076 0.975618 57.8397 0.289062 58.877 0.289062C60.0764 0.289062 60.676 1.03285 60.6922 2.06267C60.7247 3.26413 60.6922 4.45125 60.6922 5.65271H60.676V5.66703Z" fill="url(#paint17_linear_2406_5)"/>
<path d="M6.7539 5.93885C6.7539 7.04019 6.78631 8.1272 6.7539 9.22854C6.72148 10.2154 6.26767 11.0593 5.03588 11.1022C3.78789 11.1594 3.2206 10.3442 3.18818 9.35726C3.12335 6.96865 3.1558 4.58005 3.17201 2.17714C3.17201 1.16162 3.70686 0.432186 4.89002 0.274852C5.87869 0.160428 6.67286 1.01857 6.7539 2.33445C6.83493 3.52161 6.7539 4.72308 6.7539 5.92453V5.93885Z" fill="url(#paint18_linear_2406_5)"/>
<path d="M30.6439 69.0006C31.0329 69.2294 31.3895 69.3582 31.5516 69.587C31.7947 69.9017 32.0054 70.3022 32.0216 70.6741C32.054 73.5633 32.0378 76.4668 32.0378 79.2702C29.4284 80.0283 28.6828 79.7565 28.5694 77.9543C28.4397 75.7516 28.5208 73.5346 28.537 71.332C28.537 70.2306 29.1367 69.4154 30.6278 68.9863L30.6439 69.0006Z" fill="url(#paint19_linear_2406_5)"/>
<path d="M84.3721 45.0429C84.3721 42.0965 84.3721 39.2931 84.3721 36.4897C84.3721 35.6029 84.7286 34.9307 85.8794 34.6875C87.1112 34.902 87.7919 35.6887 87.8405 36.7614C87.9215 39.0642 87.9702 41.3813 87.8405 43.6841C87.7595 45.2574 87.0788 45.5149 84.3721 45.0429Z" fill="url(#paint20_linear_2406_5)"/>
<path d="M31.7778 10.8164C30.2219 11.3742 29.0549 11.131 28.9739 10.0726C28.7632 7.19769 28.7956 4.32281 28.8766 1.43359C28.8928 0.747044 29.6384 0.0318912 30.5622 0.360862C31.1619 0.58971 31.9399 1.29056 31.9561 1.79117C32.0209 4.7662 32.3451 7.76983 31.7778 10.8021V10.8164Z" fill="url(#paint21_linear_2406_5)"/>
<path d="M84.6473 79.5427C84.6473 76.1672 84.6311 72.9776 84.6959 69.8024C84.6959 69.5306 85.3119 69.2874 85.636 69.0156C87.1757 69.2731 87.8402 70.117 87.8726 71.347C87.9212 73.5497 87.9699 75.7667 87.8564 77.9694C87.7754 79.5856 87.2243 79.8002 84.6473 79.5427Z" fill="url(#paint22_linear_2406_5)"/>
<path d="M84.6317 10.9595C84.6317 7.41235 84.6155 4.25137 84.6803 1.07609C84.6803 0.818633 85.28 0.561166 85.6041 0.303711C87.1925 0.489651 87.8408 1.36212 87.8732 2.56357C87.938 4.65182 87.9867 6.76871 87.8408 8.85695C87.7922 9.57211 87.2736 10.3731 86.7063 10.9023C86.4146 11.174 85.5069 10.9452 84.6479 10.9452L84.6317 10.9595Z" fill="url(#paint23_linear_2406_5)"/>
<path d="M6.7376 74.5221C6.7376 75.7235 6.80246 76.925 6.72142 78.1122C6.65659 79.0991 6.13796 79.8714 4.85755 79.8428C3.77163 79.8142 3.22052 79.142 3.18811 78.2552C3.12328 75.7521 3.13952 73.2634 3.17193 70.7604C3.17193 69.8021 3.93368 69.2014 4.87372 69.1728C5.99205 69.1441 6.72139 69.8163 6.7376 70.9034C6.7376 72.1048 6.7376 73.3063 6.7376 74.4934V74.5221Z" fill="url(#paint24_linear_2406_5)"/>
<defs>
<linearGradient id="paint0_linear_2406_5" x1="16.6892" y1="40.1092" x2="74.2751" y2="40.1092" gradientUnits="userSpaceOnUse">
<stop stop-color="#AE8ABE"/>
<stop offset="1" stop-color="#8390C8"/>
</linearGradient>
<linearGradient id="paint1_linear_2406_5" x1="69.2993" y1="74.5508" x2="79.0078" y2="74.5508" gradientUnits="userSpaceOnUse">
<stop stop-color="#AE8ABE"/>
<stop offset="1" stop-color="#8390C8"/>
</linearGradient>
<linearGradient id="paint2_linear_2406_5" x1="40.6433" y1="5.72446" x2="50.5948" y2="5.72446" gradientUnits="userSpaceOnUse">
<stop stop-color="#AE8ABE"/>
<stop offset="1" stop-color="#8390C8"/>
</linearGradient>
<linearGradient id="paint3_linear_2406_5" x1="81.1139" y1="21.5722" x2="90.9682" y2="21.5722" gradientUnits="userSpaceOnUse">
<stop stop-color="#AE8ABE"/>
<stop offset="1" stop-color="#8390C8"/>
</linearGradient>
<linearGradient id="paint4_linear_2406_5" x1="69.3317" y1="5.71037" x2="78.8294" y2="5.71037" gradientUnits="userSpaceOnUse">
<stop stop-color="#AE8ABE"/>
<stop offset="1" stop-color="#8390C8"/>
</linearGradient>
<linearGradient id="paint5_linear_2406_5" x1="80.9197" y1="58.6742" x2="90.7253" y2="58.6742" gradientUnits="userSpaceOnUse">
<stop stop-color="#AE8ABE"/>
<stop offset="1" stop-color="#8390C8"/>
</linearGradient>
<linearGradient id="paint6_linear_2406_5" x1="40.4336" y1="74.4786" x2="50.4824" y2="74.4786" gradientUnits="userSpaceOnUse">
<stop stop-color="#AE8ABE"/>
<stop offset="1" stop-color="#8390C8"/>
</linearGradient>
<linearGradient id="paint7_linear_2406_5" x1="11.9239" y1="74.4791" x2="21.9078" y2="74.4791" gradientUnits="userSpaceOnUse">
<stop stop-color="#AE8ABE"/>
<stop offset="1" stop-color="#8390C8"/>
</linearGradient>
<linearGradient id="paint8_linear_2406_5" x1="12.0376" y1="5.71003" x2="21.9891" y2="5.71003" gradientUnits="userSpaceOnUse">
<stop stop-color="#AE8ABE"/>
<stop offset="1" stop-color="#8390C8"/>
</linearGradient>
<linearGradient id="paint9_linear_2406_5" x1="0.351112" y1="21.5581" x2="9.52464" y2="21.5581" gradientUnits="userSpaceOnUse">
<stop stop-color="#AE8ABE"/>
<stop offset="1" stop-color="#8390C8"/>
</linearGradient>
<linearGradient id="paint10_linear_2406_5" x1="0.318899" y1="58.7028" x2="9.52489" y2="58.7028" gradientUnits="userSpaceOnUse">
<stop stop-color="#AE8ABE"/>
<stop offset="1" stop-color="#8390C8"/>
</linearGradient>
<linearGradient id="paint11_linear_2406_5" x1="14.8411" y1="21.4579" x2="18.9255" y2="21.4579" gradientUnits="userSpaceOnUse">
<stop stop-color="#AE8ABE"/>
<stop offset="1" stop-color="#8390C8"/>
</linearGradient>
<linearGradient id="paint12_linear_2406_5" x1="14.8247" y1="58.6886" x2="19.0711" y2="58.6886" gradientUnits="userSpaceOnUse">
<stop stop-color="#AE8ABE"/>
<stop offset="1" stop-color="#8390C8"/>
</linearGradient>
<linearGradient id="paint13_linear_2406_5" x1="57.1107" y1="74.3216" x2="60.7899" y2="74.3216" gradientUnits="userSpaceOnUse">
<stop stop-color="#AE8ABE"/>
<stop offset="1" stop-color="#8390C8"/>
</linearGradient>
<linearGradient id="paint14_linear_2406_5" x1="72.1186" y1="21.6153" x2="75.7167" y2="21.6153" gradientUnits="userSpaceOnUse">
<stop stop-color="#AE8ABE"/>
<stop offset="1" stop-color="#8390C8"/>
</linearGradient>
<linearGradient id="paint15_linear_2406_5" x1="72.2003" y1="58.7317" x2="75.7012" y2="58.7317" gradientUnits="userSpaceOnUse">
<stop stop-color="#AE8ABE"/>
<stop offset="1" stop-color="#8390C8"/>
</linearGradient>
<linearGradient id="paint16_linear_2406_5" x1="3.13867" y1="40.0801" x2="6.76922" y2="40.0801" gradientUnits="userSpaceOnUse">
<stop stop-color="#AE8ABE"/>
<stop offset="1" stop-color="#8390C8"/>
</linearGradient>
<linearGradient id="paint17_linear_2406_5" x1="57.159" y1="5.70993" x2="60.7084" y2="5.70993" gradientUnits="userSpaceOnUse">
<stop stop-color="#AE8ABE"/>
<stop offset="1" stop-color="#8390C8"/>
</linearGradient>
<linearGradient id="paint18_linear_2406_5" x1="3.13958" y1="5.6957" x2="6.7701" y2="5.6957" gradientUnits="userSpaceOnUse">
<stop stop-color="#AE8ABE"/>
<stop offset="1" stop-color="#8390C8"/>
</linearGradient>
<linearGradient id="paint19_linear_2406_5" x1="28.5045" y1="74.3357" x2="32.0378" y2="74.3357" gradientUnits="userSpaceOnUse">
<stop stop-color="#AE8ABE"/>
<stop offset="1" stop-color="#8390C8"/>
</linearGradient>
<linearGradient id="paint20_linear_2406_5" x1="84.3721" y1="39.9653" x2="87.9215" y2="39.9653" gradientUnits="userSpaceOnUse">
<stop stop-color="#AE8ABE"/>
<stop offset="1" stop-color="#8390C8"/>
</linearGradient>
<linearGradient id="paint21_linear_2406_5" x1="28.828" y1="5.6959" x2="32.102" y2="5.6959" gradientUnits="userSpaceOnUse">
<stop stop-color="#AE8ABE"/>
<stop offset="1" stop-color="#8390C8"/>
</linearGradient>
<linearGradient id="paint22_linear_2406_5" x1="84.6473" y1="74.3364" x2="87.9213" y2="74.3364" gradientUnits="userSpaceOnUse">
<stop stop-color="#AE8ABE"/>
<stop offset="1" stop-color="#8390C8"/>
</linearGradient>
<linearGradient id="paint23_linear_2406_5" x1="84.6317" y1="5.68166" x2="87.9218" y2="5.68166" gradientUnits="userSpaceOnUse">
<stop stop-color="#AE8ABE"/>
<stop offset="1" stop-color="#8390C8"/>
</linearGradient>
<linearGradient id="paint24_linear_2406_5" x1="3.15571" y1="74.5221" x2="6.77003" y2="74.5221" gradientUnits="userSpaceOnUse">
<stop stop-color="#AE8ABE"/>
<stop offset="1" stop-color="#8390C8"/>
</linearGradient>
</defs>
</svg>
