<svg width="469" height="425" viewBox="0 0 469 425" fill="none" xmlns="http://www.w3.org/2000/svg">
<path d="M215.517 410.288C214.811 409.076 213.751 408.297 212.339 407.951C211.014 407.605 209.602 407.865 208.189 408.643C199.184 413.922 190.796 415.826 183.203 414.269C175.61 412.711 169.341 407.865 164.397 399.816L130.405 344.171C127.05 338.632 122.547 334.651 116.897 332.142C111.246 329.632 105.595 329.199 100.033 330.844L99.5034 329.892C103.565 325.824 105.86 320.805 106.302 314.747C106.743 308.689 105.242 302.891 101.887 297.439L67.8953 241.794C62.951 233.745 61.6267 226.043 63.8339 218.687C66.0412 211.418 71.6918 205.1 80.6975 199.821C82.1101 199.043 82.993 197.918 83.3462 196.533C83.6993 195.235 83.5228 193.937 82.7281 192.725C81.7569 191.167 80.6974 190.302 79.3731 190.042C78.0487 189.783 76.7244 190.042 75.3117 190.908C67.807 195.321 62.1564 200.6 58.1833 206.745C54.2102 212.889 52.2679 219.466 52.3561 226.476C52.3561 233.486 54.5634 240.409 58.7131 247.332L92.705 302.978C96.1483 308.603 97.1195 314.314 95.6186 319.94C94.1176 325.565 90.3211 330.238 84.2291 333.786C84.0525 333.873 83.9642 334.046 83.7876 334.132L41.4081 358.017C37.0819 353.171 30.8132 349.969 23.75 349.969C10.7712 349.969 0.264648 360.267 0.264648 372.989C0.264648 385.71 10.7712 396.009 23.75 396.009C36.7287 396.009 47.2353 385.71 47.2353 372.989C47.2353 370.825 46.7938 368.748 46.2641 366.758L89.3499 342.527C89.3499 342.527 89.5265 342.527 89.7031 342.44C95.7952 338.892 101.711 337.767 107.538 339.151C113.365 340.536 117.956 343.998 121.399 349.709L155.391 405.355C159.541 412.192 164.838 417.384 171.107 420.673C177.376 424.048 184.262 425.432 191.679 424.913C199.095 424.394 206.512 421.971 214.016 417.557C215.429 416.778 216.312 415.653 216.665 414.442C217.018 413.144 216.753 411.759 215.87 410.288H215.517ZM23.5734 386.056C16.2453 386.056 10.2415 380.172 10.2415 372.989C10.2415 365.806 16.2453 359.921 23.5734 359.921C30.9015 359.921 36.9053 365.806 36.9053 372.989C36.9053 380.172 30.9015 386.056 23.5734 386.056Z" fill="#AE8ABE"/>
<path d="M445.514 350.056C438.981 350.056 433.154 352.652 428.827 356.892L384.77 331.709C379.385 328.248 375.941 324.007 374.44 318.728C372.939 313.103 373.822 307.391 377.266 301.766L410.993 245.948C415.142 239.024 417.261 232.101 417.261 225.091C417.261 218.082 415.319 211.505 411.346 205.36C407.373 199.216 401.634 193.937 394.129 189.61C392.716 188.831 391.392 188.485 390.068 188.744C388.743 189.004 387.596 189.956 386.713 191.427C386.006 192.639 385.741 193.937 386.095 195.235C386.448 196.533 387.331 197.658 388.743 198.437C397.837 203.716 403.4 209.947 405.695 217.303C407.902 224.572 406.578 232.274 401.722 240.409L367.995 296.228C364.64 301.766 363.227 307.478 363.669 313.536C364.11 319.594 366.406 324.613 370.467 328.68L369.937 329.632C364.375 328.075 358.725 328.507 353.074 331.017C347.423 333.527 342.921 337.507 339.654 343.046L305.927 398.865C300.982 406.999 294.802 411.846 287.209 413.403C279.616 414.961 271.317 413.144 262.223 407.865C260.81 407.086 259.398 406.826 258.073 407.172C256.749 407.519 255.689 408.297 254.895 409.509C254.012 411.067 253.747 412.451 254.1 413.663C254.542 414.961 255.424 416 256.837 416.778C264.342 421.105 271.758 423.529 279.175 424.048C286.591 424.567 293.389 423.096 299.658 419.721C305.927 416.346 311.136 411.153 315.286 404.317L349.013 348.498C352.456 342.873 357.047 339.325 362.874 337.94C368.701 336.555 374.617 337.594 380.709 341.142C381.327 341.488 381.945 341.748 382.475 341.921L423.53 365.373C422.647 367.797 422.029 370.393 422.029 373.076C422.029 385.797 432.536 396.095 445.514 396.095C458.493 396.095 469 385.797 469 373.076C469 360.354 458.493 350.056 445.514 350.056ZM445.514 386.143C438.186 386.143 432.182 380.258 432.182 373.076C432.182 365.893 438.186 360.008 445.514 360.008C452.842 360.008 458.846 365.893 458.846 373.076C458.846 380.258 452.842 386.143 445.514 386.143Z" fill="#8390C8"/>
<path d="M366.406 136.474C363.051 129.983 358.283 124.964 352.103 121.416C345.922 117.868 338.771 116.137 330.56 116.137L264.43 116.31C257.72 116.31 252.246 114.233 248.096 110.079C243.947 105.925 241.828 100.387 241.828 93.3767C241.828 93.0306 241.739 92.771 241.739 92.5113L242.004 45.4333C252.511 43.1833 260.457 33.9235 260.457 22.9328C260.457 10.2114 249.951 -0.0869141 236.972 -0.0869141C223.993 -0.0869141 213.486 10.2114 213.486 22.9328C213.486 33.9235 221.344 43.0968 231.851 45.3468L231.586 93.2902C231.586 100.213 229.555 105.839 225.406 109.993C221.256 114.146 215.782 116.31 209.072 116.31L142.942 116.483C134.819 116.483 127.58 118.3 121.488 121.849C115.307 125.397 110.54 130.416 107.273 136.993C103.918 143.484 102.24 151.013 102.329 159.58C102.329 161.138 102.77 162.436 103.653 163.474C104.536 164.426 105.948 164.946 107.714 164.946C109.127 164.946 110.363 164.426 111.422 163.474C112.394 162.523 112.923 161.224 112.923 159.58C112.923 149.282 115.484 141.32 120.781 135.695C125.99 130.07 133.495 127.301 143.119 127.214L209.249 127.041C215.782 127.041 221.609 125.31 226.642 121.762C231.674 118.3 234.941 113.8 236.442 108.262H237.502C239.002 113.8 242.269 118.214 247.302 121.675C252.423 125.137 258.25 126.868 264.695 126.868L330.825 126.695C340.448 126.695 347.865 129.464 353.162 135.003C358.46 140.628 361.108 148.503 361.108 158.888C361.108 160.446 361.638 161.744 362.609 162.782C363.581 163.734 364.817 164.253 366.318 164.253C368.172 164.253 369.496 163.734 370.379 162.782C371.262 161.83 371.703 160.532 371.703 158.888C371.703 150.32 369.938 142.878 366.582 136.387L366.406 136.474ZM223.552 23.0194C223.552 15.8365 229.555 9.95177 236.883 9.95177C244.212 9.95177 250.215 15.8365 250.215 23.0194C250.215 30.2022 244.212 36.087 236.883 36.087C229.555 36.087 223.552 30.2022 223.552 23.0194Z" fill="url(#paint0_linear_2321_60)"/>
<path d="M322.79 219.812L313.961 204.841C310.518 199.043 304.161 195.321 297.274 195.321L244.477 194.889C243.417 194.889 241.916 195.408 241.033 196.273C240.15 197.139 239.621 198.35 239.621 199.648V344.95C239.621 347.546 241.828 349.709 244.477 349.709C247.125 349.709 249.333 347.546 249.333 344.95V204.408L297.274 204.841C300.718 204.841 303.896 206.745 305.662 209.601L314.491 224.572C316.257 227.514 316.257 231.236 314.491 234.178L288.534 277.189H282.971V219.293C282.971 216.697 280.764 214.533 278.115 214.533C275.467 214.533 273.259 216.697 273.259 219.293V277.102H267.697V219.293C267.697 216.697 265.49 214.533 262.841 214.533C260.192 214.533 257.985 216.697 257.985 219.293V281.775C257.985 284.371 260.104 286.535 262.841 286.535L291.271 286.795C292.948 286.795 294.626 285.929 295.42 284.458L322.79 239.024C326.322 233.14 326.41 225.784 322.879 219.812H322.79Z" fill="#8390C8"/>
<path d="M221.256 194.802H218.961C216.753 194.802 214.899 196.186 214.281 198.263L203.598 235.216L184.262 198.61C183.468 197.052 181.79 196.013 179.936 196.013H170.048C164.75 196.013 159.718 198.783 156.892 203.283L151.418 210.466L145.414 218.427C140.558 224.745 140.117 233.226 144.178 240.062L175.786 292.679C177.111 294.929 180.113 295.708 182.408 294.323C184.704 293.025 185.498 290.083 184.086 287.833L152.478 235.216C150.359 231.755 150.624 227.341 153.096 224.139L154.773 221.975L200.155 297.698C201.038 299.17 202.715 300.035 204.393 300.035C205.187 300.035 206.07 299.862 206.865 299.343C209.16 298.044 209.955 295.102 208.631 292.852L161.219 213.668L164.838 208.908C164.838 208.908 165.015 208.648 165.103 208.475C166.163 206.744 168.017 205.706 170.048 205.706H176.934L200.596 250.447C201.479 252.178 203.421 253.217 205.364 252.957C207.306 252.784 208.984 251.399 209.513 249.495L221.786 207.004V345.036C221.786 347.632 223.993 349.796 226.642 349.796C229.291 349.796 231.498 347.632 231.498 345.036V204.927C231.498 199.388 226.907 194.802 221.168 194.802H221.256Z" fill="#AE89BE"/>
<defs>
<linearGradient id="paint0_linear_2321_60" x1="101.975" y1="82.5592" x2="371.438" y2="82.5592" gradientUnits="userSpaceOnUse">
<stop stop-color="#AE8ABE"/>
<stop offset="1" stop-color="#8390C8"/>
</linearGradient>
</defs>
</svg>
