<svg width="224" height="216" viewBox="0 0 224 216" fill="none" xmlns="http://www.w3.org/2000/svg">
<path d="M78.8955 215.02C86.2404 215.432 93.0082 213.989 99.1464 210.689C105.285 207.339 110.269 202.338 114.203 195.74L137.76 155.736C139.911 152.024 142.796 149.704 146.311 148.725C147.938 148.261 149.669 148.158 151.453 148.364C149.039 161.252 154.758 174.81 166.929 181.769C174.432 186.048 183.141 187.182 191.535 185.017C199.929 182.852 206.906 177.594 211.261 170.222C215.615 162.85 216.77 154.241 214.566 145.993C212.363 137.745 207.011 130.888 199.509 126.61C187.652 119.856 173.225 121.403 163.047 129.29C161.84 127.744 161.053 126.146 160.581 124.393C159.689 120.887 160.319 117.279 162.522 113.619L186.078 73.615C189.961 66.9649 191.902 60.2118 191.745 53.3555C191.64 46.4992 189.541 40.0037 185.449 33.9722C181.409 27.8892 175.638 22.7857 168.241 18.61C165.355 17.0119 162.522 16.4964 159.689 17.2181C156.856 17.8883 154.705 19.4864 153.289 21.9093C151.767 24.4868 151.453 27.1159 152.24 29.8997C153.026 32.6319 154.863 34.8486 157.748 36.4467C163.572 39.746 167.244 43.6638 168.766 48.2003C170.287 52.7368 169.5 57.5311 166.51 62.6347L142.953 102.638C140.173 107.381 139.019 112.381 139.386 117.743C139.806 123.104 141.799 127.537 145.419 131.146L144.527 132.693C139.543 131.404 134.612 131.919 129.733 134.239C124.801 136.559 120.971 140.064 118.191 144.807L94.687 184.811C91.6966 189.914 87.8143 192.956 83.0926 193.935C78.3709 194.915 73.0721 193.729 67.2486 190.43C64.4156 188.832 61.5301 188.316 58.6971 189.038C55.8641 189.708 53.7131 191.358 52.1916 193.884C50.7751 196.307 50.4603 198.884 51.2473 201.668C52.0342 204.452 53.8704 206.617 56.7559 208.215C64.1533 212.442 71.5506 214.762 78.8955 215.174V215.02ZM195.312 150.942C196.151 154.138 195.732 157.489 194.053 160.324C192.374 163.211 189.646 165.221 186.393 166.098C183.141 166.974 179.73 166.51 176.845 164.86C170.864 161.458 168.818 153.829 172.281 147.952C175.743 142.075 183.508 140.064 189.489 143.467C192.374 145.116 194.473 147.797 195.312 150.993V150.942Z" fill="url(#paint0_linear_2321_71)"/>
<path d="M38.6557 33.8175C34.5635 39.849 32.465 46.3444 32.3601 53.2007C32.2551 60.1086 34.1438 66.8618 38.0261 73.4603L61.5298 113.516C63.6808 117.227 64.3628 120.836 63.4185 124.29C62.9988 125.888 62.2118 127.434 61.1625 128.878C51.0371 120.372 36.1899 118.464 23.9659 125.372C16.4636 129.599 11.0599 136.456 8.80395 144.704C6.54802 152.901 7.64975 161.51 11.9518 168.881C16.2538 176.305 23.2314 181.614 31.6256 183.831C39.9673 186.048 48.7287 184.965 56.231 180.687C68.1402 173.985 74.0161 160.891 72.0749 148.312C74.0161 148.055 75.8523 148.209 77.5836 148.673C81.0987 149.653 83.9317 152.024 86.1352 155.684L109.639 195.74C113.521 202.39 118.558 207.39 124.643 210.689C130.782 214.04 137.497 215.484 144.894 215.071C152.239 214.659 159.637 212.339 167.086 208.112C169.972 206.462 171.756 204.297 172.595 201.565C173.382 198.833 173.12 196.203 171.651 193.781C170.129 191.203 167.978 189.605 165.145 188.883C162.312 188.213 159.479 188.677 156.594 190.275C150.77 193.574 145.471 194.76 140.75 193.781C136.028 192.801 132.146 189.76 129.155 184.656L105.652 144.601C102.871 139.858 99.0412 136.353 94.1096 134.033C89.1781 131.713 84.2465 131.198 79.3149 132.486L78.423 130.94C82.043 127.383 84.0366 122.898 84.4563 117.536C84.876 112.175 83.6694 107.175 80.9413 102.432L57.4376 62.3768C54.4472 57.2733 53.7127 52.479 55.1817 47.9425C56.7031 43.4576 60.3756 39.4881 66.199 36.1889C69.0321 34.5908 70.8683 32.3741 71.7077 29.6419C72.4947 26.9097 72.1799 24.229 70.6584 21.703C69.2419 19.2801 67.0909 17.7336 64.2579 17.0118C61.4249 16.3417 58.5918 16.8056 55.7063 18.4037C48.309 22.5794 42.538 27.7345 38.4983 33.766L38.6557 33.8175ZM36.9244 164.963C33.6717 164.087 30.996 162.025 29.3172 159.19C27.6383 156.303 27.2186 153.004 28.1105 149.807C29.0024 146.611 31.1009 143.982 33.9864 142.333C40.0197 138.93 47.7319 140.992 51.1945 146.921C54.6571 152.849 52.5585 160.427 46.5252 163.829C43.5873 165.479 40.2296 165.891 36.9769 165.067L36.9244 164.963Z" fill="url(#paint1_linear_2321_71)"/>
<path d="M218.448 90.1629C215.143 83.6674 210.474 78.667 204.493 75.1099C198.512 71.5529 191.587 69.8002 183.77 69.8002H136.71C132.356 69.8002 128.893 68.5114 126.27 66.037C125.063 64.9028 124.119 63.4594 123.384 61.8613C135.976 57.4795 145.052 45.8289 145.104 31.9617C145.104 23.4557 141.747 15.4138 135.661 9.3823C129.523 3.35082 121.391 0 112.734 0C104.078 0 95.8936 3.29927 89.7553 9.2792C83.6171 15.3107 80.207 23.3011 80.207 31.807C80.207 45.3134 88.7585 56.8093 100.825 61.5005C100.038 63.2532 99.0414 64.7997 97.7298 66.037C95.1066 68.563 91.5916 69.8002 87.2371 69.8002H40.2298C32.4127 69.8002 25.54 71.5529 19.5067 75.0584C13.5259 78.6154 8.85662 83.6159 5.55142 90.1113C2.24621 96.6068 0.619846 104.03 0.567383 112.433C0.567383 115.681 1.56419 118.31 3.61027 120.372C5.65634 122.434 8.06966 123.465 10.9027 123.465C13.8931 123.465 16.4114 122.434 18.4574 120.372C20.5035 118.31 21.5003 115.681 21.5003 112.433C21.5003 105.783 23.1267 100.731 26.327 97.1738C29.5272 93.6168 34.144 91.8641 40.1773 91.8641H87.2371C92.7982 91.8641 97.8347 90.3691 102.294 87.3791C106.806 84.3376 109.744 80.4197 111.056 75.5739H112.839C114.203 80.4197 117.089 84.3891 121.601 87.4307C126.113 90.4722 131.097 91.9672 136.658 91.9672H183.717C189.698 91.9672 194.315 93.7715 197.568 97.2769C200.768 100.834 202.395 105.886 202.395 112.536C202.395 115.784 203.391 118.413 205.437 120.475C207.483 122.537 209.949 123.568 212.992 123.568C215.825 123.568 218.291 122.537 220.285 120.475C222.331 118.413 223.327 115.732 223.327 112.536C223.327 104.133 221.701 96.6583 218.396 90.2144L218.448 90.1629ZM103.763 23.0949C106.124 20.7751 109.324 19.4863 112.682 19.4863C116.04 19.4863 119.187 20.7751 121.548 23.1464C123.909 25.5178 125.221 28.6109 125.221 31.9101C125.221 38.7149 119.555 44.2824 112.629 44.2308C105.704 44.2308 100.091 38.6633 100.091 31.8586C100.091 28.5593 101.402 25.4662 103.816 23.1464L103.763 23.0949Z" fill="url(#paint2_linear_2321_71)"/>
<defs>
<linearGradient id="paint0_linear_2321_71" x1="212.344" y1="43.3577" x2="104.629" y2="234.987" gradientUnits="userSpaceOnUse">
<stop stop-color="#AE8ABE"/>
<stop offset="1" stop-color="#8390C8"/>
</linearGradient>
<linearGradient id="paint1_linear_2321_71" x1="123.193" y1="233.278" x2="13.9292" y2="42.4371" gradientUnits="userSpaceOnUse">
<stop stop-color="#AE8ABE"/>
<stop offset="1" stop-color="#8390C8"/>
</linearGradient>
<linearGradient id="paint2_linear_2321_71" x1="0.383533" y1="62.4091" x2="223.2" y2="61.5059" gradientUnits="userSpaceOnUse">
<stop stop-color="#AE8ABE"/>
<stop offset="1" stop-color="#8390C8"/>
</linearGradient>
</defs>
</svg>
