<svg width="196" height="188" viewBox="0 0 196 188" fill="none" xmlns="http://www.w3.org/2000/svg">
<path d="M117.857 186.795C122.047 187.059 125.908 186.236 129.41 184.355C132.911 182.473 135.784 179.621 138.029 175.859L151.557 153.075C152.814 150.958 154.43 149.636 156.435 149.077C157.363 148.812 158.35 148.754 159.368 148.871C157.961 156.221 161.193 163.952 168.137 167.95C172.387 170.391 177.385 171.067 182.173 169.861C186.962 168.627 190.942 165.657 193.456 161.483C195.97 157.279 196.629 152.37 195.401 147.666C194.144 142.962 191.122 139.023 186.842 136.583C180.078 132.702 171.848 133.555 166.042 138.053C165.383 137.171 164.905 136.23 164.665 135.26C164.156 133.261 164.545 131.203 165.773 129.116L179.3 106.332C181.545 102.569 182.652 98.7183 182.592 94.779C182.532 90.869 181.365 87.1649 179.061 83.6959C176.756 80.227 173.494 77.2872 169.274 74.8765C167.658 73.9358 166.012 73.6712 164.396 74.0534C162.78 74.4356 161.553 75.3175 160.745 76.6992C159.877 78.1397 159.667 79.6684 160.116 81.2559C160.565 82.814 161.612 84.0781 163.229 85.0188C166.551 86.9297 168.646 89.1639 169.484 91.751C170.322 94.338 169.903 97.072 168.167 99.9824L154.639 122.766C153.053 125.441 152.365 128.322 152.574 131.379C152.814 134.437 153.951 136.965 155.986 139.023L155.477 139.905C152.664 139.17 149.821 139.434 147.007 140.757C144.194 142.051 142.009 144.079 140.393 146.755L126.896 169.538C125.16 172.448 122.945 174.153 120.252 174.712C117.558 175.271 114.535 174.565 111.213 172.684C109.597 171.743 107.981 171.478 106.335 171.86C104.719 172.243 103.492 173.154 102.624 174.624C101.816 176.006 101.636 177.475 102.085 179.063C102.534 180.65 103.582 181.885 105.198 182.826C109.418 185.236 113.638 186.589 117.827 186.853L117.857 186.795ZM184.418 150.517C184.897 152.34 184.627 154.251 183.67 155.868C182.712 157.485 181.156 158.661 179.3 159.131C177.445 159.601 175.499 159.337 173.853 158.396C170.441 156.426 169.274 152.105 171.279 148.754C173.284 145.402 177.684 144.256 181.096 146.225C182.742 147.166 183.939 148.695 184.418 150.517Z" fill="url(#paint0_linear_2321_45)"/>
<path d="M17.897 84.402C15.5626 87.8416 14.3655 91.5164 14.2757 95.4557C14.1859 99.395 15.2633 103.246 17.478 107.038L30.7961 129.91C32.0231 132.027 32.3823 134.085 31.8735 136.054C31.6341 136.966 31.1851 137.848 30.5866 138.671C24.8104 133.791 16.3707 132.674 9.39738 136.583C5.08771 138.994 2.0051 142.875 0.718188 147.578C-0.598654 152.253 0.0298388 157.162 2.48395 161.366C4.93807 165.599 8.8886 168.627 13.6771 169.921C18.4357 171.214 23.4337 170.597 27.7434 168.186C34.5371 164.394 37.919 156.956 36.8416 149.754C37.9489 149.636 38.9964 149.695 39.984 149.96C41.9892 150.518 43.6053 151.87 44.8324 153.987L58.1505 176.859C60.3652 180.651 63.2083 183.503 66.68 185.413C70.1517 187.324 74.0124 188.177 78.2024 187.942C82.4223 187.706 86.6122 186.413 90.862 184.032C92.5081 183.12 93.5556 181.886 94.0045 180.298C94.4833 178.74 94.3038 177.241 93.4957 175.859C92.6577 174.389 91.4007 173.478 89.7846 173.066C88.1685 172.655 86.5524 172.919 84.9063 173.831C81.5543 175.712 78.5615 176.359 75.8381 175.8C73.1445 175.242 70.9298 173.478 69.2538 170.567L55.9358 147.696C54.3795 144.991 52.1648 142.992 49.3815 141.64C46.5682 140.317 43.755 139.994 40.9417 140.729L40.433 139.847C42.498 137.818 43.6652 135.29 43.9046 132.233C44.1441 129.175 43.4856 126.324 41.9294 123.619L28.6113 100.747C26.9054 97.8369 26.4864 95.0735 27.3842 92.5159C28.2522 89.9583 30.3471 87.724 33.6991 85.8425C35.3452 84.9312 36.3926 83.6965 36.8416 82.109C37.3204 80.5509 37.1109 79.0222 36.2729 77.5817C35.4649 76.2 34.2378 75.2887 32.6516 74.9065C31.0355 74.4949 29.4194 74.7595 27.7733 75.6708C23.5235 78.0521 20.2613 80.9625 17.9269 84.402H17.897ZM16.6101 159.161C14.7545 158.661 13.2282 157.485 12.2705 155.839C11.3128 154.193 11.0734 152.282 11.5821 150.489C12.0909 148.695 13.288 147.167 14.964 146.226C18.4058 144.315 22.8052 145.491 24.7506 148.872C26.6959 152.253 25.4988 156.574 22.057 158.485C20.381 159.426 18.4656 159.661 16.6101 159.161Z" fill="url(#paint1_linear_2321_45)"/>
<path d="M158.56 51.6526C156.704 47.9484 154.04 45.0674 150.629 43.039C147.217 41.0105 143.266 39.9816 138.837 39.9522L111.991 39.8346C109.507 39.8346 107.532 39.0996 106.035 37.6591C105.347 37.0124 104.808 36.1892 104.389 35.2485C111.572 32.7791 116.78 26.1351 116.84 18.2565C116.87 13.4058 114.984 8.81974 111.512 5.38017C108.041 1.94061 103.402 0.0297426 98.4636 0.000344662C93.5255 -0.0290533 88.8567 1.82302 85.3551 5.23318C81.8535 8.64335 79.8782 13.2 79.8483 18.0507C79.7884 25.753 84.6667 32.3381 91.5502 35.0133C91.1013 36.0129 90.5327 36.8948 89.7845 37.6003C88.288 39.0115 86.2828 39.717 83.7988 39.717L56.9532 39.5994C52.4939 39.5994 48.5733 40.5695 45.1315 42.5686C41.6898 44.5677 39.0262 47.4193 37.1407 51.1234C35.2253 54.8276 34.2975 59.0609 34.2676 63.8527C34.2676 65.7048 34.8362 67.2041 35.9735 68.4094C37.1108 69.5853 38.5174 70.2027 40.1335 70.2027C41.8394 70.2027 43.276 69.6147 44.4432 68.4682C45.6104 67.2923 46.179 65.793 46.2089 63.9409C46.2089 60.1486 47.1666 57.2676 48.9923 55.2391C50.8478 53.2401 53.4815 52.2405 56.8933 52.2405L83.7389 52.3581C86.9113 52.3581 89.7845 51.535 92.3583 49.8005C94.9321 48.0954 96.6081 45.8318 97.3862 43.0684H98.4038C99.152 45.8612 100.828 48.0954 103.372 49.8299C105.916 51.5644 108.789 52.4463 111.961 52.4463L138.807 52.5639C142.219 52.5639 144.852 53.5928 146.678 55.6213C148.504 57.6498 149.431 60.5602 149.401 64.3231C149.401 66.1752 149.97 67.6745 151.107 68.8798C152.245 70.0557 153.681 70.6437 155.387 70.6731C157.003 70.6731 158.41 70.0851 159.577 68.9386C160.744 67.7627 161.313 66.2634 161.343 64.4113C161.343 59.6194 160.445 55.3567 158.589 51.6526H158.56ZM93.2861 13.1706C94.6628 11.8477 96.4584 11.1128 98.3738 11.1422C100.289 11.1422 102.085 11.9065 103.432 13.2294C104.778 14.5523 105.527 16.3456 105.497 18.2271C105.497 22.1076 102.235 25.2532 98.2841 25.2238C94.3335 25.2238 91.1312 22.0194 91.1611 18.1389C91.1611 16.2574 91.9393 14.4935 93.2861 13.1706Z" fill="url(#paint2_linear_2321_45)"/>
<path d="M133.839 104.305C131.115 104.511 128.631 105.716 126.836 107.744C126.147 108.509 125.669 109.361 125.25 110.273L120.281 109.538C120.281 109.538 120.281 109.302 120.281 109.214C120.281 103.864 118.276 98.9837 114.984 95.2208L125.818 83.2264C127.494 83.9908 129.35 84.4612 131.295 84.4612C131.624 84.4612 131.953 84.4612 132.283 84.4318C135.814 84.1672 139.017 82.5797 141.351 79.9339C143.685 77.2881 144.793 73.9367 144.523 70.4677C143.985 63.2946 137.61 57.8854 130.307 58.4439C126.776 58.7085 123.574 60.296 121.239 62.9418C118.905 65.5877 117.797 68.939 118.067 72.408C118.276 75.1714 119.384 77.6408 121.03 79.6399L110.465 91.3109C106.963 89.0178 102.773 87.6655 98.2842 87.6655C96.2192 87.6655 94.214 87.9595 92.2986 88.4887L90.2036 83.785C94.0045 80.3454 94.6629 74.5834 91.5204 70.4383C89.9043 68.2629 87.51 66.8812 84.7866 66.4696C82.0631 66.058 79.3696 66.7342 77.1848 68.3217C74.9701 69.9092 73.5336 72.261 73.1445 74.9362C72.7255 77.582 73.4138 80.2572 75.03 82.4033C77.0352 85.0785 80.1477 86.4896 83.2902 86.4896C83.7989 86.4896 84.3077 86.4602 84.7866 86.372L86.7918 90.8699C82.931 93.1923 79.8484 96.6613 78.0527 100.777L65.3033 97.3669C65.3631 96.1321 65.3033 94.8974 65.0339 93.6333C63.328 86.225 55.816 81.5508 48.2741 83.2264C44.6229 84.0496 41.5103 86.1956 39.5052 89.3118C37.5 92.428 36.8415 96.1027 37.6795 99.6893C39.146 106.069 44.9521 110.449 51.3567 110.449C52.3743 110.449 53.4218 110.331 54.4393 110.096C58.5994 109.185 61.8615 106.48 63.7171 103.011L76.4964 106.451C76.3767 107.362 76.2869 108.303 76.2869 109.244C76.2869 114.182 77.9929 118.71 80.866 122.355L77.1848 126.03C72.5459 123.825 66.8296 125.354 64.0463 129.734C62.6097 132.027 62.1608 134.732 62.7893 137.348C63.4178 139.965 65.0339 142.199 67.3683 143.61C69.0144 144.609 70.8699 145.139 72.7554 145.139C73.5336 145.139 74.3416 145.05 75.1198 144.874C77.7834 144.257 80.0579 142.669 81.4945 140.376C83.5595 137.113 83.4398 133.144 81.6142 130.028L85.1457 126.5C88.8269 129.205 93.346 130.822 98.2842 130.822C99.8405 130.822 101.337 130.675 102.773 130.351L106.904 141.787C101.487 145.109 98.9426 151.783 101.157 157.897C102.384 161.337 104.928 164.1 108.28 165.658C110.166 166.54 112.201 166.981 114.236 166.981C115.792 166.981 117.378 166.717 118.905 166.188C122.406 164.982 125.22 162.483 126.806 159.191C128.392 155.898 128.602 152.194 127.345 148.755C125.13 142.61 118.875 139.024 112.53 139.788L108.4 128.323C113.607 125.648 117.588 120.973 119.294 115.358L124.441 116.123C125.309 120.885 129.529 124.413 134.467 124.413C134.707 124.413 134.946 124.413 135.186 124.413C140.812 124.031 145.092 119.18 144.673 113.653C144.254 108.127 139.316 103.923 133.719 104.334L133.839 104.305ZM125.818 66.7342C127.075 65.2937 128.841 64.4117 130.786 64.2648C130.966 64.2648 131.145 64.2648 131.325 64.2648C135.096 64.2648 138.298 67.1164 138.568 70.8793C138.717 72.7902 138.089 74.6128 136.832 76.0827C135.575 77.5232 133.809 78.4052 131.864 78.5522C127.853 78.7873 124.382 75.8769 124.082 71.967C123.933 70.0561 124.561 68.2335 125.818 66.7636V66.7342ZM59.4074 97.3081L58.6592 100.013C57.6417 102.129 55.6963 103.776 53.2123 104.334C48.9026 105.304 44.593 102.629 43.6053 98.3664C43.1265 96.3085 43.5155 94.1919 44.6528 92.428C45.7901 90.6347 47.5858 89.4 49.6808 88.959C50.2793 88.8415 50.8779 88.7533 51.4465 88.7533C55.1277 88.7533 58.4497 91.2521 59.2877 94.8974C59.4673 95.7206 59.4972 96.5143 59.4074 97.3081ZM76.4665 137.201C75.2395 139.171 72.6058 139.759 70.6006 138.553C68.5954 137.348 67.9968 134.761 69.2239 132.791C70.0319 131.527 71.4386 130.822 72.8452 130.822C73.6233 130.822 74.4015 131.028 75.0898 131.439C77.095 132.644 77.6936 135.231 76.4665 137.201ZM85.8939 79.7575C84.0084 81.1392 81.3448 80.7276 79.9382 78.8755C79.2498 77.9642 78.9805 76.8765 79.1601 75.7594C79.3396 74.6422 79.9382 73.6721 80.836 73.0253C81.5842 72.4962 82.4522 72.2022 83.35 72.2022C83.5595 72.2022 83.769 72.2022 83.9785 72.261C85.1158 72.4374 86.1034 73.0253 86.7618 73.9073C88.1685 75.7594 87.7495 78.4052 85.864 79.7575H85.8939ZM111.692 145.962C112.56 145.668 113.458 145.521 114.326 145.521C117.588 145.521 120.641 147.52 121.778 150.695C122.496 152.664 122.376 154.752 121.479 156.633C120.581 158.515 118.965 159.926 116.989 160.602C114.984 161.307 112.859 161.19 110.944 160.308C109.028 159.426 107.592 157.838 106.904 155.898C105.437 151.871 107.592 147.402 111.722 145.991L111.692 145.962ZM113.308 114.418C113.308 114.418 113.248 114.506 113.248 114.565C113.009 115.182 112.71 115.77 112.41 116.358C112.261 116.652 112.111 116.946 111.931 117.21C111.632 117.71 111.273 118.181 110.914 118.651C110.674 118.974 110.435 119.268 110.166 119.562C109.777 119.974 109.388 120.356 108.999 120.738C108.699 121.003 108.4 121.238 108.071 121.473C107.622 121.826 107.143 122.179 106.664 122.473C106.574 122.532 106.514 122.59 106.425 122.649C104.719 123.619 102.833 124.295 100.798 124.619C99.9901 124.766 99.1821 124.883 98.3441 124.883H98.2243C98.2243 124.883 97.9849 124.854 97.8652 124.854C97.0871 124.854 96.3089 124.766 95.5607 124.619C95.052 124.531 94.5432 124.413 94.0344 124.266C93.765 124.178 93.4957 124.119 93.2263 124.031C86.7918 121.944 82.123 116.064 82.123 109.067C82.123 100.336 89.3357 93.2511 98.2243 93.2511C107.113 93.2511 114.326 100.336 114.326 109.067C114.326 110.949 113.937 112.742 113.308 114.447V114.418ZM134.886 118.504C132.582 118.651 130.487 116.917 130.337 114.623C130.248 113.506 130.607 112.419 131.355 111.595C132.103 110.743 133.151 110.243 134.258 110.155C134.348 110.155 134.467 110.155 134.557 110.155C136.772 110.155 138.657 111.831 138.807 114.036C138.987 116.329 137.191 118.357 134.857 118.504H134.886Z" fill="url(#paint3_linear_2321_45)"/>
<defs>
<linearGradient id="paint0_linear_2321_45" x1="101.866" y1="130.356" x2="196.008" y2="130.382" gradientUnits="userSpaceOnUse">
<stop stop-color="#AE8ABE"/>
<stop offset="1" stop-color="#8390C8"/>
</linearGradient>
<linearGradient id="paint1_linear_2321_45" x1="0.0155332" y1="131.35" x2="94.2783" y2="131.358" gradientUnits="userSpaceOnUse">
<stop stop-color="#AE8ABE"/>
<stop offset="1" stop-color="#8390C8"/>
</linearGradient>
<linearGradient id="paint2_linear_2321_45" x1="34.2225" y1="35.342" x2="161.331" y2="35.346" gradientUnits="userSpaceOnUse">
<stop stop-color="#AE8ABE"/>
<stop offset="1" stop-color="#8390C8"/>
</linearGradient>
<linearGradient id="paint3_linear_2321_45" x1="37.4401" y1="112.683" x2="144.823" y2="112.683" gradientUnits="userSpaceOnUse">
<stop stop-color="#AE8ABE"/>
<stop offset="1" stop-color="#8390C8"/>
</linearGradient>
</defs>
</svg>
